<svg width="365" height="103" viewBox="0 0 365 103" fill="none" xmlns="http://www.w3.org/2000/svg">
<g clip-path="url(#clip0_294_844)">
<path d="M9.21387 101.813C9.21387 101.813 17.0098 88.8665 30.9008 97.3712C30.9008 97.3712 40.3978 83.5274 52.7296 84.5196C65.0614 85.5119 73.8968 97.4184 73.8968 97.4184C73.8968 97.4184 84.197 90.8509 91.8512 101.813" fill="#ECECEC"/>
<path d="M9.21387 101.813C9.21387 101.813 17.0098 88.8665 30.9008 97.3712C30.9008 97.3712 40.3978 83.5274 52.7296 84.5196C65.0614 85.5119 73.8968 97.4184 73.8968 97.4184C73.8968 97.4184 84.197 90.8509 91.8512 101.813" stroke="black" stroke-width="0.944966" stroke-miterlimit="10"/>
<path d="M0 101.812H97.0008" stroke="black" stroke-width="0.944966" stroke-miterlimit="10"/>
</g>
<path d="M32.5465 70.8342C32.5465 70.8342 33.4125 69.9706 34.897 67.5761C36.3816 65.1816 34.196 60 34.196 60L22.1133 70.8734" fill="#7ACADA"/>
<path d="M32.5465 70.8342C32.5465 70.8342 33.4125 69.9706 34.897 67.5761C36.3816 65.1816 34.196 60 34.196 60L22.1133 70.8734" stroke="black" stroke-width="1.17371" stroke-miterlimit="10"/>
<path d="M35.3507 66.123H27.3506" stroke="black" stroke-width="1.17371" stroke-miterlimit="10" stroke-linecap="round" stroke-linejoin="round"/>
<path d="M29.2891 66.1241C29.3715 66.1241 34.7325 61.5312 34.7325 61.5312L29.2891 66.1241Z" fill="#D0A021"/>
<path d="M29.2891 66.1241C29.3715 66.1241 34.7325 61.5312 34.7325 61.5312" stroke="black" stroke-width="1.17371" stroke-miterlimit="10" stroke-linecap="round" stroke-linejoin="round"/>
<path d="M31.9277 66.1229C32.0102 66.1229 35.1443 63.415 35.1443 63.415L31.9277 66.1229Z" fill="#D0A021"/>
<path d="M31.9277 66.1229C32.0102 66.1229 35.1443 63.415 35.1443 63.415" stroke="black" stroke-width="1.17371" stroke-miterlimit="10" stroke-linecap="round" stroke-linejoin="round"/>
<path d="M38.3202 70.8735C38.4027 71.0698 26.8148 81.6297 19.4745 74.3673C19.4745 74.3673 16.8352 73.857 16.8765 72.169C16.9177 70.481 20.1343 70.8735 24.9591 70.8735C29.784 70.8735 38.3202 70.8735 38.3202 70.8735Z" fill="#EA5727" stroke="black" stroke-width="1.17371" stroke-miterlimit="10"/>
<path d="M13 72.287L16.8764 72.1689" stroke="black" stroke-width="1.17371" stroke-miterlimit="10"/>
<path d="M19.5152 72.8751C19.7657 72.8751 19.9688 72.6818 19.9688 72.4434C19.9688 72.205 19.7657 72.0117 19.5152 72.0117C19.2646 72.0117 19.0615 72.205 19.0615 72.4434C19.0615 72.6818 19.2646 72.8751 19.5152 72.8751Z" fill="black"/>
<path d="M322.733 86.8342C322.733 86.8342 321.867 85.9706 320.382 83.5761C318.898 81.1816 321.083 76 321.083 76L333.166 86.8734" fill="#39B29C"/>
<path d="M322.733 86.8342C322.733 86.8342 321.867 85.9706 320.382 83.5761C318.898 81.1816 321.083 76 321.083 76L333.166 86.8734" stroke="black" stroke-width="1.17371" stroke-miterlimit="10"/>
<path d="M319.929 82.123H327.97" stroke="black" stroke-width="1.17371" stroke-miterlimit="10" stroke-linecap="round" stroke-linejoin="round"/>
<path d="M326.031 82.1238C325.949 82.1238 320.588 77.5312 320.588 77.5312L326.031 82.1238Z" fill="#D0A021"/>
<path d="M326.031 82.1238C325.949 82.1238 320.588 77.5312 320.588 77.5312" stroke="black" stroke-width="1.17371" stroke-miterlimit="10" stroke-linecap="round" stroke-linejoin="round"/>
<path d="M323.392 82.1235C323.31 82.1235 320.176 79.415 320.176 79.415L323.392 82.1235Z" fill="#D0A021"/>
<path d="M323.392 82.1235C323.31 82.1235 320.176 79.415 320.176 79.415" stroke="black" stroke-width="1.17371" stroke-miterlimit="10" stroke-linecap="round" stroke-linejoin="round"/>
<path d="M317 86.8735C316.918 87.0698 328.506 97.6297 335.846 90.3673C335.846 90.3673 338.485 89.857 338.444 88.169C338.403 86.481 335.186 86.8735 330.362 86.8735C325.578 86.8735 317 86.8735 317 86.8735Z" fill="#F9B233" stroke="black" stroke-width="1.17371" stroke-miterlimit="10"/>
<path d="M342.321 88.2861L338.444 88.1689" stroke="black" stroke-width="1.17371" stroke-miterlimit="10"/>
<path d="M335.764 88.8751C336.015 88.8751 336.218 88.6818 336.218 88.4434C336.218 88.205 336.015 88.0117 335.764 88.0117C335.514 88.0117 335.311 88.205 335.311 88.4434C335.311 88.6818 335.514 88.8751 335.764 88.8751Z" fill="black"/>
<g clip-path="url(#clip1_294_844)">
<path d="M282.214 17.8125C282.214 17.8125 290.01 4.86649 303.901 13.3712C303.901 13.3712 313.398 -0.472568 325.73 0.519647C338.061 1.51186 346.897 13.4184 346.897 13.4184C346.897 13.4184 357.197 6.85092 364.851 17.8125" fill="#ECECEC"/>
<path d="M282.214 17.8125C282.214 17.8125 290.01 4.86649 303.901 13.3712C303.901 13.3712 313.398 -0.472568 325.73 0.519647C338.061 1.51186 346.897 13.4184 346.897 13.4184C346.897 13.4184 357.197 6.85092 364.851 17.8125" stroke="black" stroke-width="0.944966" stroke-miterlimit="10"/>
<path d="M273 17.8125H370.001" stroke="black" stroke-width="0.944966" stroke-miterlimit="10"/>
</g>
<g clip-path="url(#clip2_294_844)">
<path d="M20.4964 19.5519C20.4964 19.5519 34.4819 2.77877 51.3968 17.6147C51.3968 17.6147 58.5785 14.6381 61.5552 19.5519H17" fill="#DADADA"/>
<path d="M20.4964 19.5519C20.4964 19.5519 34.4819 2.77877 51.3968 17.6147C51.3968 17.6147 58.5785 14.6381 61.5552 19.5519H17" stroke="black" stroke-width="0.944966" stroke-miterlimit="10"/>
<path d="M65.5245 19.5518H61.5557" stroke="black" stroke-width="0.944966" stroke-miterlimit="10"/>
</g>
<defs>
<clipPath id="clip0_294_844">
<rect width="97.0008" height="18.2851" fill="white" transform="translate(0 84)"/>
</clipPath>
<clipPath id="clip1_294_844">
<rect width="97.0008" height="18.2851" fill="white" transform="translate(273)"/>
</clipPath>
<clipPath id="clip2_294_844">
<rect width="48.524" height="9.02443" fill="white" transform="translate(17 11)"/>
</clipPath>
</defs>
</svg>
