<svg width="964" height="215" viewBox="0 0 964 215" fill="none" xmlns="http://www.w3.org/2000/svg">
<path d="M135.161 97.4146C135.161 97.4146 136.637 95.943 139.166 91.8627C141.696 87.7825 137.972 78.9531 137.972 78.9531L117.383 97.4814" fill="#7ACADA"/>
<path d="M135.161 97.4146C135.161 97.4146 136.637 95.943 139.166 91.8627C141.696 87.7825 137.972 78.9531 137.972 78.9531L117.383 97.4814" stroke="black" stroke-width="2" stroke-miterlimit="10"/>
<path d="M139.939 89.3867H126.307" stroke="black" stroke-width="2" stroke-miterlimit="10" stroke-linecap="round" stroke-linejoin="round"/>
<path d="M129.609 89.3887C129.75 89.3887 138.885 81.5625 138.885 81.5625L129.609 89.3887Z" fill="#D0A021"/>
<path d="M129.609 89.3887C129.75 89.3887 138.885 81.5625 138.885 81.5625" stroke="black" stroke-width="2" stroke-miterlimit="10" stroke-linecap="round" stroke-linejoin="round"/>
<path d="M134.107 89.3877C134.248 89.3877 139.588 84.7734 139.588 84.7734L134.107 89.3877Z" fill="#D0A021"/>
<path d="M134.107 89.3877C134.248 89.3877 139.588 84.7734 139.588 84.7734" stroke="black" stroke-width="2" stroke-miterlimit="10" stroke-linecap="round" stroke-linejoin="round"/>
<path d="M144.998 97.4815C145.139 97.8159 125.393 115.81 112.885 103.435C112.885 103.435 108.388 102.565 108.458 99.6889C108.528 96.8126 114.009 97.4815 122.231 97.4815C130.452 97.4815 144.998 97.4815 144.998 97.4815Z" fill="#EA5727" stroke="black" stroke-width="2" stroke-miterlimit="10"/>
<path d="M101.854 99.8887L108.459 99.6875" stroke="black" stroke-width="2" stroke-miterlimit="10"/>
<path d="M112.957 100.893C113.383 100.893 113.73 100.564 113.73 100.157C113.73 99.7512 113.383 99.4219 112.957 99.4219C112.53 99.4219 112.184 99.7512 112.184 100.157C112.184 100.564 112.53 100.893 112.957 100.893Z" fill="black"/>
<path d="M736.27 20.4614C736.27 20.4614 734.794 18.9899 732.264 14.9096C729.735 10.8294 733.459 2 733.459 2L754.048 20.5283" fill="#39B29C"/>
<path d="M736.27 20.4614C736.27 20.4614 734.794 18.9899 732.264 14.9096C729.735 10.8294 733.459 2 733.459 2L754.048 20.5283" stroke="black" stroke-width="2" stroke-miterlimit="10"/>
<path d="M731.492 12.4336H745.195" stroke="black" stroke-width="2" stroke-miterlimit="10" stroke-linecap="round" stroke-linejoin="round"/>
<path d="M741.892 12.4351C741.751 12.4351 732.616 4.60938 732.616 4.60938L741.892 12.4351Z" fill="#D0A021"/>
<path d="M741.892 12.4351C741.751 12.4351 732.616 4.60938 732.616 4.60938" stroke="black" stroke-width="2" stroke-miterlimit="10" stroke-linecap="round" stroke-linejoin="round"/>
<path d="M737.394 12.4355C737.254 12.4355 731.913 7.82031 731.913 7.82031L737.394 12.4355Z" fill="#D0A021"/>
<path d="M737.394 12.4355C737.254 12.4355 731.913 7.82031 731.913 7.82031" stroke="black" stroke-width="2" stroke-miterlimit="10" stroke-linecap="round" stroke-linejoin="round"/>
<path d="M726.503 20.5284C726.362 20.8628 746.108 38.8568 758.616 26.4818C758.616 26.4818 763.113 25.6122 763.043 22.7358C762.973 19.8594 757.492 20.5284 749.27 20.5284C741.119 20.5284 726.503 20.5284 726.503 20.5284Z" fill="#F9B233" stroke="black" stroke-width="2" stroke-miterlimit="10"/>
<path d="M769.648 22.938L763.043 22.7383" stroke="black" stroke-width="2" stroke-miterlimit="10"/>
<path d="M758.475 23.9399C758.902 23.9399 759.248 23.6106 759.248 23.2043C759.248 22.7981 758.902 22.4688 758.475 22.4688C758.048 22.4688 757.702 22.7981 757.702 23.2043C757.702 23.6106 758.048 23.9399 758.475 23.9399Z" fill="black"/>
<g clip-path="url(#clip0_463_858)">
<path d="M778.002 136.7C778.002 136.7 794.502 109.3 823.902 127.3C823.902 127.3 844.002 97.9999 870.102 100.1C896.202 102.2 914.902 127.4 914.902 127.4C914.902 127.4 936.702 113.5 952.902 136.7" fill="#ECECEC"/>
<path d="M778.002 136.7C778.002 136.7 794.502 109.3 823.902 127.3C823.902 127.3 844.002 97.9999 870.102 100.1C896.202 102.2 914.902 127.4 914.902 127.4C914.902 127.4 936.702 113.5 952.902 136.7" stroke="black" stroke-width="2" stroke-miterlimit="10"/>
<path d="M758.502 136.7H963.802" stroke="black" stroke-width="2" stroke-miterlimit="10"/>
</g>
<g clip-path="url(#clip1_463_858)">
<path d="M15.4141 214.225C15.4141 214.225 28.0322 192.985 50.5154 206.938C50.5154 206.938 65.8865 184.225 85.8461 185.853C105.806 187.481 120.106 207.016 120.106 207.016C120.106 207.016 136.777 196.241 149.166 214.225" fill="#ECECEC"/>
<path d="M15.4141 214.225C15.4141 214.225 28.0322 192.985 50.5154 206.938C50.5154 206.938 65.8865 184.225 85.8461 185.853C105.806 187.481 120.106 207.016 120.106 207.016C120.106 207.016 136.777 196.241 149.166 214.225" stroke="black" stroke-width="2" stroke-miterlimit="10"/>
<path d="M0.501953 214.225H157.502" stroke="black" stroke-width="2" stroke-miterlimit="10"/>
</g>
<g clip-path="url(#clip2_463_858)">
<path d="M102.59 26.6391C102.59 26.6391 142.94 -21.6855 191.742 21.058C191.742 21.058 212.463 12.4821 221.051 26.6391H92.502" fill="#DADADA"/>
<path d="M102.59 26.6391C102.59 26.6391 142.94 -21.6855 191.742 21.058C191.742 21.058 212.463 12.4821 221.051 26.6391H92.502" stroke="black" stroke-width="2" stroke-miterlimit="10"/>
<path d="M232.502 26.6387H221.051" stroke="black" stroke-width="2" stroke-miterlimit="10"/>
</g>
<defs>
<clipPath id="clip0_463_858">
<rect width="205.3" height="38.7" fill="white" transform="translate(758.502 99)"/>
</clipPath>
<clipPath id="clip1_463_858">
<rect width="157" height="30" fill="white" transform="translate(0.501953 185)"/>
</clipPath>
<clipPath id="clip2_463_858">
<rect width="140" height="26" fill="white" transform="translate(92.502 2)"/>
</clipPath>
</defs>
</svg>
