<svg width="52" height="52" viewBox="0 0 52 52" fill="none" xmlns="http://www.w3.org/2000/svg">
<path d="M10.4462 25.5103H8.73242V27.1206H10.4462V25.5103Z" fill="#010202"/>
<path d="M9.58424 26.2749C10.0595 26.2749 10.4448 25.9228 10.4448 25.4883C10.4448 25.0539 10.0595 24.7017 9.58424 24.7017C9.10894 24.7017 8.72363 25.0539 8.72363 25.4883C8.72363 25.9228 9.10894 26.2749 9.58424 26.2749Z" fill="#010202"/>
<path d="M14.3925 25.5103H12.6787V27.1206H14.3925V25.5103Z" fill="#010202"/>
<path d="M13.5393 26.2749C14.0146 26.2749 14.3999 25.9228 14.3999 25.4883C14.3999 25.0539 14.0146 24.7017 13.5393 24.7017C13.064 24.7017 12.6787 25.0539 12.6787 25.4883C12.6787 25.9228 13.064 26.2749 13.5393 26.2749Z" fill="#010202"/>
<path d="M12.6868 24.6421H10.4463V27.1208H12.6868V24.6421Z" fill="#010202"/>
<path d="M11.5666 25.8221C12.1853 25.8221 12.6868 25.2806 12.6868 24.6125C12.6868 23.9444 12.1853 23.4028 11.5666 23.4028C10.9478 23.4028 10.4463 23.9444 10.4463 24.6125C10.4463 25.2806 10.9478 25.8221 11.5666 25.8221Z" fill="#010202"/>
<path d="M11.6339 22.4902H11.4707V23.685H11.6339V22.4902Z" fill="#010202"/>
<path d="M11.9121 22.9214V22.7358H11.185V22.9214H11.9121Z" fill="#010202"/>
<path d="M9.66712 24.0117H9.50391V25.0136H9.66712V24.0117Z" fill="#010202"/>
<path d="M9.9541 24.3819V24.2261H9.22704V24.3819H9.9541Z" fill="#010202"/>
<path d="M13.7257 24.0117H13.5625V25.0136H13.7257V24.0117Z" fill="#010202"/>
<path d="M14.0107 24.3824V24.2266H13.2837V24.3824H14.0107Z" fill="#010202"/>
<path d="M38.3409 23.692C38.3409 23.692 37.9328 24.1966 37.9996 24.4787C38.0664 24.7532 38.2518 24.6271 38.1702 24.82C38.0812 25.013 38.007 25.0501 37.9922 25.1762C37.9847 25.3098 38.2889 25.2059 38.1702 25.3543C38.0515 25.5028 37.6732 25.5696 37.7919 25.6957C37.9031 25.8293 38.1999 25.7254 38.1702 25.8293C38.1405 25.9258 37.5693 25.7774 37.6138 26.1558C37.6583 26.5343 37.9922 26.4304 38.2518 26.3859C38.5115 26.3339 38.8231 26.2894 38.8528 26.4378C38.8824 26.5863 39.0976 26.6976 39.2311 26.5343C39.3647 26.371 39.6095 25.8961 39.3276 25.8516C39.0531 25.7996 38.9492 25.7402 39.1124 25.6067C39.2757 25.4731 39.0828 25.4137 38.9641 25.2505C38.8528 25.0872 39.0457 25.1169 39.016 24.9388C38.9863 24.7607 38.6747 24.8274 38.7415 24.6271C38.8083 24.4341 39.016 24.5158 38.875 24.2338C38.7118 23.9517 38.4892 23.4768 38.3409 23.692Z" fill="#010202"/>
<path d="M37.1993 26.5347C37.0806 26.5199 36.9842 26.5051 36.9248 26.4902C36.68 26.4457 36.9248 26.3863 37.0584 26.2156C37.0955 26.1637 37.0732 26.134 37.0287 26.1192C36.91 26.0746 36.6206 26.0895 36.5835 25.9856C36.5316 25.8446 36.7171 25.8594 36.6206 25.7852C36.5242 25.711 36.5835 25.6516 36.6206 25.5403C36.6206 25.5329 36.6206 25.5255 36.6206 25.518C36.6206 25.4809 36.5761 25.4587 36.5168 25.4513C36.4129 25.4364 36.2571 25.4513 36.131 25.5032C35.9084 25.5997 36.2571 25.6516 36.3981 25.711C36.5464 25.7704 36.3758 25.8446 36.309 25.9856C36.2794 26.0598 36.3239 26.0969 36.4055 26.1414C36.4871 26.1859 36.591 26.2305 36.6874 26.3195C36.8803 26.5051 36.4797 26.4902 36.2497 26.468C36.0197 26.4457 35.9826 26.3789 35.9158 26.4383C35.9084 26.4457 35.901 26.4531 35.8936 26.4531C35.812 26.4902 35.6265 26.4383 35.5375 26.3789C35.4855 26.3344 35.441 26.3566 35.4113 26.3566C35.4039 26.3566 35.3965 26.3492 35.3891 26.3492C35.3742 26.3418 35.3594 26.3121 35.352 26.2602C35.3149 26.0895 35.4707 26.1117 35.5894 25.9856C35.7081 25.8594 35.1739 26.0004 35.3149 25.8297C35.4559 25.659 35.5523 25.6368 35.5746 25.4364C35.5968 25.2435 35.4262 25.3622 35.3297 25.2657C35.2481 25.1841 35.4707 25.2064 35.5597 24.9615C35.5746 24.9243 35.582 24.8724 35.5894 24.8205C35.6265 24.4271 35.7823 24.2193 35.812 24.3307C35.8342 24.442 36.0345 25.0876 36.0345 25.0876C36.0939 25.2806 36.2571 25.1618 36.4426 25.1396C36.6281 25.1173 36.4945 24.8798 36.3684 24.5384C36.2497 24.1971 36.5168 24.3826 36.7468 24.6943C36.9767 25.0134 36.9767 24.8501 37.0435 25.0357C37.1029 25.2212 37.2513 25.0579 37.3032 25.2286C37.3551 25.3993 37.2809 25.3845 37.4293 25.429C37.5777 25.4735 37.5183 25.6294 37.4441 25.7629C37.3774 25.8891 37.4367 25.7778 37.689 25.9262C37.7038 25.9336 37.7261 25.9485 37.7483 25.9633C37.8299 26.0153 37.867 26.0524 37.8819 26.0746C37.9115 26.1414 37.7409 26.1192 37.6741 26.1785C37.5999 26.2453 37.8003 26.2602 37.9931 26.4012C38.0154 26.416 38.0451 26.4383 38.0673 26.4605C38.2157 26.6461 37.5999 26.5941 37.1993 26.5347Z" fill="#010202"/>
<path d="M42.1616 24.8131C42.1616 24.8131 42.3026 24.1081 42.3174 23.9819C42.3322 23.8632 42.4435 24.0858 42.4732 24.5162C42.4955 24.9467 42.7255 24.8873 42.6513 24.9986C42.5845 25.1025 42.4658 24.9689 42.4806 25.1841C42.4955 25.3994 42.5697 25.4216 42.6661 25.6146C42.7625 25.8001 42.3842 25.6368 42.4732 25.7778C42.5622 25.9188 42.9554 26.0227 42.9258 26.2157C42.8961 26.4086 42.5771 26.134 42.5029 26.2157C42.4287 26.2973 42.2803 26.3493 42.2358 26.2825C42.1913 26.2157 42.169 26.2899 42.0058 26.3122C41.8426 26.3344 41.5607 26.3493 41.6942 26.1489C41.8352 25.9485 42.0058 25.9337 41.9613 25.7778C41.9168 25.622 41.7981 25.5478 41.9019 25.481C42.0058 25.4142 42.2432 25.3622 42.0874 25.2509C41.9316 25.147 41.7165 25.1693 41.7461 25.288C41.7684 25.4068 41.8129 25.4736 41.7461 25.5552C41.6794 25.6368 41.8055 25.622 41.7684 25.7778C41.7313 25.9337 41.3381 25.8372 41.4345 26.0227C41.531 26.2083 41.7016 26.2676 41.531 26.3196C41.3604 26.3715 40.5962 26.5348 40.7446 26.3196C40.893 26.1044 41.0784 26.0895 41.0191 26.0079C40.9597 25.9263 40.752 25.993 40.9672 25.7704C41.1823 25.5478 41.2342 25.6962 41.1823 25.5478C41.1304 25.3994 41.0859 25.2287 41.1897 25.1767C41.2936 25.1322 41.2417 25.147 41.2788 24.9541C41.3158 24.7611 41.4197 24.9392 41.4568 24.7389C41.5013 24.5385 41.5013 24.7092 41.6645 24.3678C41.8278 24.019 42.0132 23.8186 41.9316 24.1971C41.8426 24.5682 41.7536 24.8279 41.8797 24.8502C42.0132 24.8947 42.1245 25.0283 42.1616 24.8131Z" fill="#010202"/>
<path d="M40.1655 24.0557C40.1284 24.1745 40.1135 24.7681 39.8465 24.9759C39.5794 25.1837 39.1342 25.206 39.4384 25.3025C39.7426 25.4064 40.0913 25.1986 39.9132 25.3025C39.7426 25.4064 39.3494 25.6735 39.572 25.77C39.7945 25.8665 40.1581 25.6587 39.9652 25.9184C39.7723 26.1856 39.112 26.104 39.342 26.3266C39.572 26.5492 40.6551 26.4676 40.8703 26.3266C41.0854 26.1856 40.7442 26.1707 40.7219 25.9184C40.6997 25.6661 41.1893 25.7552 40.9445 25.5177C40.6997 25.2802 40.21 25.1466 40.4326 25.1244C40.6551 25.1021 41.0483 25.3396 40.9222 25.1244C40.8035 24.9166 40.2397 23.8108 40.1655 24.0557Z" fill="#010202"/>
<path d="M42.9044 26.2671C42.897 26.2745 42.8895 26.2745 42.8747 26.2819C42.6225 26.3932 41.9918 26.5491 41.6951 26.6456C41.2128 26.8014 41.9251 26.6752 42.1031 26.8608C42.2886 27.0463 40.9309 26.9276 40.4635 27.0611C39.9887 27.1873 40.8271 27.165 41.5244 27.217C42.2218 27.2689 41.339 27.6326 40.4635 27.5287C39.8552 27.4619 38.364 27.5732 37.4885 27.5732C37.1176 27.5732 36.8505 27.5509 36.8208 27.4841C36.7837 27.3951 37.0582 27.3654 37.4217 27.358C37.993 27.3357 38.7646 27.358 38.861 27.2467C38.9426 27.1502 38.1191 27.1725 37.3624 27.1428C36.7318 27.1205 36.1457 27.0537 36.1754 26.8608C36.3237 26.9201 36.435 26.9795 36.524 27.0315C36.524 27.0315 37.1176 27.2318 36.6205 26.883C36.5611 26.8385 36.4499 26.7866 36.3015 26.7198C36.4869 26.6159 36.8579 26.6678 37.2511 26.7346C37.6962 26.8088 38.1562 26.9053 38.4159 26.8385C38.6681 26.7643 37.993 26.7049 37.2214 26.6381C36.7466 26.5936 36.2421 26.5491 35.8934 26.4897C35.5744 26.4378 35.3889 26.371 35.4928 26.2968C35.5818 26.2374 35.9157 26.1929 36.4053 26.1706C36.5908 26.1632 36.7985 26.1483 37.0211 26.1483C37.036 26.1483 37.0508 26.1483 37.0731 26.1483C37.2363 26.1409 37.4143 26.1409 37.5998 26.1335C37.6888 26.1335 37.7779 26.1335 37.8669 26.1261C38.3714 26.1187 38.9055 26.1187 39.4323 26.1187C39.4991 26.1187 39.5732 26.1187 39.64 26.1187C40.0555 26.1187 40.4561 26.1261 40.8345 26.1335C40.879 26.1335 40.9161 26.1335 40.9606 26.1335C41.1535 26.1335 41.3316 26.1409 41.5022 26.1409C41.5764 26.1409 41.6431 26.1409 41.7099 26.1483C42.207 26.1558 42.5779 26.1632 42.7263 26.1706C42.8154 26.1706 42.8821 26.178 42.9266 26.1854C43.0231 26.1854 43.0008 26.2225 42.9044 26.2671Z" fill="#010202"/>
<path d="M42.5552 27.2614C42.7231 27.2614 42.8593 27.2249 42.8593 27.1798C42.8593 27.1347 42.7231 27.0981 42.5552 27.0981C42.3872 27.0981 42.251 27.1347 42.251 27.1798C42.251 27.2249 42.3872 27.2614 42.5552 27.2614Z" fill="#010202"/>
<path d="M42.37 31.1271C42.4725 31.1271 42.5555 31.0906 42.5555 31.0455C42.5555 31.0004 42.4725 30.9639 42.37 30.9639C42.2676 30.9639 42.1846 31.0004 42.1846 31.0455C42.1846 31.0906 42.2676 31.1271 42.37 31.1271Z" fill="#010202"/>
<path d="M43.0077 31.1271C43.1102 31.1271 43.1932 31.0906 43.1932 31.0455C43.1932 31.0004 43.1102 30.9639 43.0077 30.9639C42.9053 30.9639 42.8223 31.0004 42.8223 31.0455C42.8223 31.0906 42.9053 31.1271 43.0077 31.1271Z" fill="#010202"/>
<path d="M15.164 28.7899C15.5614 28.7899 15.8836 28.7168 15.8836 28.6266C15.8836 28.5365 15.5614 28.4634 15.164 28.4634C14.7665 28.4634 14.4443 28.5365 14.4443 28.6266C14.4443 28.7168 14.7665 28.7899 15.164 28.7899Z" fill="#010202"/>
<path d="M13.9696 29.072C14.1745 29.072 14.3405 29.0354 14.3405 28.9903C14.3405 28.9452 14.1745 28.9087 13.9696 28.9087C13.7647 28.9087 13.5986 28.9452 13.5986 28.9903C13.5986 29.0354 13.7647 29.072 13.9696 29.072Z" fill="#010202"/>
<path d="M15.2241 29.176C15.3511 29.176 15.4541 29.156 15.4541 29.1314C15.4541 29.1068 15.3511 29.0869 15.2241 29.0869C15.0971 29.0869 14.9941 29.1068 14.9941 29.1314C14.9941 29.156 15.0971 29.176 15.2241 29.176Z" fill="#010202"/>
<path d="M36.3681 27.4472C36.4705 27.4472 36.5536 27.4239 36.5536 27.3952C36.5536 27.3665 36.4705 27.3433 36.3681 27.3433C36.2657 27.3433 36.1826 27.3665 36.1826 27.3952C36.1826 27.4239 36.2657 27.4472 36.3681 27.4472Z" fill="#010202"/>
<path d="M42.6747 26.7421C42.7772 26.7421 42.8602 26.7188 42.8602 26.6901C42.8602 26.6614 42.7772 26.6382 42.6747 26.6382C42.5723 26.6382 42.4893 26.6614 42.4893 26.6901C42.4893 26.7188 42.5723 26.7421 42.6747 26.7421Z" fill="#010202"/>
<path d="M39.1496 28.2855C39.4119 28.2855 39.6244 28.2457 39.6244 28.1965C39.6244 28.1473 39.4119 28.1074 39.1496 28.1074C38.8874 28.1074 38.6748 28.1473 38.6748 28.1965C38.6748 28.2457 38.8874 28.2855 39.1496 28.2855Z" fill="#010202"/>
<path d="M8.73164 27.0313C8.73164 27.0313 7.81169 27.1426 8.1307 27.4097C8.4423 27.6695 9.79998 27.4988 9.80739 27.5804C9.81481 27.6621 9.54773 27.6769 9.71095 27.7882C9.87417 27.8995 10.5048 27.714 10.9722 27.7882C11.4396 27.8624 12.1963 27.855 12.2111 27.6992C12.226 27.5433 12.9234 27.6101 12.9085 27.6769C12.8937 27.7437 13.0643 27.8327 13.5243 27.7734C13.9843 27.714 13.8062 27.5359 14.2069 27.6101C14.6075 27.6843 14.7559 27.5804 14.7336 27.432C14.7113 27.2836 15.5497 27.0313 14.6001 27.0313C13.6356 27.0312 8.73164 27.0313 8.73164 27.0313Z" fill="#010202"/>
<path d="M20.0823 32.9603C19.8152 32.9455 17.8195 32.7525 17.3447 33.1606C16.8328 33.5984 17.7527 33.7765 19.5555 34.2366C21.3509 34.6966 22.5973 34.986 22.397 35.5796C22.2041 36.1658 20.7945 35.8096 20.4013 36.099C20.0081 36.3884 20.3048 36.841 21.0838 36.752C21.8703 36.6555 22.5528 36.7668 22.0335 36.9746C21.5141 37.1823 21.0171 37.4049 21.4474 37.5088C21.8703 37.6053 23.7027 37.2714 23.3763 37.6869C23.0499 38.1024 20.5348 37.8056 20.3716 38.1618C20.2084 38.518 22.627 38.3473 22.7902 38.6144C22.9534 38.8815 21.2248 38.748 21.3509 39.208C21.477 39.6681 21.937 39.6161 22.9831 39.6384C24.8453 39.6903 26.2326 39.6607 25.6243 39.2674C25.0085 38.8741 25.5352 38.7554 26.0546 38.8296C26.5739 38.9038 28.9925 39.3416 28.8293 38.8296C28.666 38.3176 27.7535 38.6812 27.0635 38.2212C26.381 37.7611 27.4568 37.9169 28.1764 37.6795C28.896 37.442 27.7832 37.353 28.0132 36.9746C28.2432 36.5887 28.8589 37.2936 29.126 36.9746C29.3857 36.6555 28.9331 36.5887 30.1053 36.5739C31.285 36.5591 32.1604 36.3661 31.055 36.0396C29.9495 35.7132 29.1928 35.4164 29.9792 35.357C30.7656 35.2976 31.7078 35.2902 32.101 34.8969C32.4942 34.5037 32.7539 34.6001 33.7035 34.4072C34.6532 34.2143 34.2896 33.8507 34.8609 33.8878C35.4322 33.9249 36.226 32.99 35.6399 33.1235C35.0538 33.2571 28.9702 33.9027 27.6126 33.9027C26.1436 33.9027 24.7785 34.0733 23.7992 33.9027C22.8792 33.7172 20.5645 32.9826 20.0823 32.9603Z" fill="#010202"/>
<path d="M24.1341 40.603C25.392 40.603 26.4117 40.5033 26.4117 40.3803C26.4117 40.2574 25.392 40.1577 24.1341 40.1577C22.8762 40.1577 21.8564 40.2574 21.8564 40.3803C21.8564 40.5033 22.8762 40.603 24.1341 40.603Z" fill="#010202"/>
<path d="M24.5645 43.1254C26.7402 43.1254 28.504 42.9925 28.504 42.8286C28.504 42.6646 26.7402 42.5317 24.5645 42.5317C22.3888 42.5317 20.625 42.6646 20.625 42.8286C20.625 42.9925 22.3888 43.1254 24.5645 43.1254Z" fill="#010202"/>
<path d="M28.1394 39.9348C28.9958 39.9348 29.69 39.8218 29.69 39.6825C29.69 39.5431 28.9958 39.4302 28.1394 39.4302C27.2831 39.4302 26.5889 39.5431 26.5889 39.6825C26.5889 39.8218 27.2831 39.9348 28.1394 39.9348Z" fill="#010202"/>
<path d="M28.1179 44.1053C28.8226 44.1053 29.3939 44.0489 29.3939 43.9792C29.3939 43.9095 28.8226 43.853 28.1179 43.853C27.4131 43.853 26.8418 43.9095 26.8418 43.9792C26.8418 44.0489 27.4131 44.1053 28.1179 44.1053Z" fill="#010202"/>
<path d="M17.152 30.6008C17.1668 30.6231 17.1817 30.6528 17.1891 30.6751C17.1594 30.6825 17.1297 30.6825 17.1001 30.6825C17.0333 30.6899 16.9517 30.6825 16.8701 30.6751C16.8182 30.6676 16.7662 30.6676 16.7217 30.6676C16.4101 30.6528 16.3804 30.6973 16.3285 30.7418C16.284 30.7789 16.2321 30.8161 15.9724 30.8086C15.3863 30.7938 15.2379 30.4821 14.5331 30.7493C13.8283 31.0238 14.5554 30.9571 14.0954 30.9719C13.6354 30.9867 13.7912 30.6231 13.2348 30.7196C12.6858 30.8161 13.2496 30.9274 13.398 31.0981C13.5538 31.2687 12.5522 30.9719 12.0403 30.7715C11.5284 30.5786 10.5417 30.6454 10.5788 30.445C10.6159 30.2372 11.15 30.3559 10.831 30.2075C10.512 30.0665 10.1485 30.1259 10.4156 29.9775C10.6826 29.829 11.2984 29.9626 11.4245 29.7622C11.5433 29.5619 10.0001 29.7845 9.82204 29.6732C9.63657 29.5619 10.3785 29.6212 10.193 29.4283C10.0075 29.2279 8.91693 29.1908 8.26406 29.1908C7.61119 29.1982 7.43313 28.9979 7.95988 28.9682C8.48663 28.9385 8.62759 28.8123 9.22111 28.7678C9.81463 28.7233 10.5788 28.9756 11.15 28.7381C11.7213 28.5007 12.5597 28.6268 13.0419 28.842C13.5241 29.0572 12.5448 28.983 12.1516 29.0201C11.7584 29.0572 12.0997 29.3244 12.5893 29.4357C13.0716 29.547 12.9974 29.1908 13.8431 29.2947C14.6889 29.406 14.318 29.547 14.8744 29.5619C15.4308 29.5693 15.7572 29.6064 15.7572 29.6064H15.7647C16.6401 29.6584 16.5882 29.881 16.6475 30.0962C16.6846 30.2446 16.3804 30.1407 16.0169 30.1036C15.8537 30.0888 15.683 30.0888 15.5272 30.1333C15.1637 30.2298 15.5124 30.2817 16.1133 30.2966C16.3433 30.304 16.603 30.2966 16.8849 30.2892H16.8923C16.9294 30.2892 16.9665 30.2892 17.0036 30.2892C17.152 30.2892 17.2633 30.304 17.3523 30.3263C17.2633 30.4376 17.2039 30.5266 17.152 30.6008Z" fill="#010202"/>
<path d="M44.4987 29.0718C43.8458 29.0421 42.733 28.8343 42.5401 28.9753C42.3472 29.1163 43.0891 29.1015 42.8962 29.1757C42.7033 29.2573 41.175 29.0198 41.2863 29.1757C41.3975 29.3315 42.0207 29.2573 42.2804 29.376C42.5401 29.4948 42.1839 29.4354 41.8575 29.5319C41.5311 29.6284 42.0652 29.5616 42.0949 29.7174C42.1172 29.8733 41.1379 29.7768 40.6185 29.9029C40.0992 30.0291 39.0828 30.2146 39.246 30.0885C39.4092 29.9623 39.9805 29.9029 39.4315 29.8065C38.8825 29.71 39.016 29.992 38.5561 29.9623C38.0961 29.9326 38.8157 30.0068 38.1332 29.7768C38.0887 29.7619 38.0516 29.7471 38.0145 29.7397C37.6213 29.6284 37.4061 29.6803 37.1465 29.7248C37.1539 29.6135 37.1465 29.4948 37.139 29.376C37.3616 29.3686 37.4135 29.3315 37.191 29.2796C37.1687 29.2721 37.1539 29.2721 37.1316 29.2647C37.1168 29.1311 37.0945 28.9976 37.0723 28.8714C37.1984 28.864 37.4581 28.864 37.829 28.8714C37.8438 28.8714 37.8587 28.8714 37.8735 28.8714C38.4299 28.8862 38.0664 28.7601 38.9196 28.7156C39.7654 28.671 39.6689 28.9382 40.1586 28.8714C40.6482 28.8046 41.0117 28.6191 40.6185 28.5746C40.2253 28.53 39.246 28.5449 39.7357 28.4039C40.2253 28.2629 41.0785 28.2035 41.6275 28.4039C42.1839 28.6042 42.3027 28.5226 42.8962 28.582C43.4897 28.6414 43.4526 28.7675 43.9793 28.812C44.4987 28.864 45.1515 29.1015 44.4987 29.0718Z" fill="#010202"/>
<path d="M10.4893 28.0476C10.4522 28.0551 10.4819 28.0996 9.93287 28.0922C9.38387 28.0847 9.18356 27.9141 8.67907 28.0254C8.17457 28.1367 7.94459 28.2183 7.6775 28.2109C7.41042 28.2109 7.46235 28.5374 7.73685 28.4706C8.01136 28.4039 8.24876 28.3371 8.72358 28.3816C9.1984 28.4261 9.20581 28.4039 9.60644 28.3519C10.0071 28.3 10.4003 28.4113 10.7564 28.389C11.1199 28.3668 11.6912 28.2703 11.4463 28.1961C11.2089 28.1219 11.0086 27.966 10.4893 28.0476Z" fill="#010202"/>
<path d="M14.3336 28.0849C14.4152 28.0107 14.7119 28.0775 14.6897 27.981C14.6823 27.9513 14.4745 27.8919 14.1778 27.9439C13.7326 28.0181 14.0962 28.0255 13.4062 28.0478C12.7162 28.0775 12.6865 28.1665 12.4417 28.2036C12.1969 28.2407 11.9372 28.3892 12.1598 28.3743C12.3824 28.3595 12.783 28.2407 12.6866 28.3372C12.5901 28.4337 12.3824 28.5747 12.553 28.5673C12.7236 28.5599 12.8572 28.4485 13.0575 28.5079C13.2652 28.5673 13.4952 28.5376 13.6065 28.5673C13.7178 28.597 13.8588 28.686 13.9181 28.6489C13.9775 28.6118 14.0739 28.4485 13.8884 28.404C13.703 28.3595 13.6436 28.2259 13.8365 28.2407C14.0294 28.263 14.1555 28.3001 14.4819 28.2704C14.801 28.2407 15.0013 28.3521 15.0458 28.2704C15.0977 28.1888 15.298 28.0255 14.8974 28.0775C14.4968 28.1368 14.2445 28.1665 14.3336 28.0849Z" fill="#010202"/>
<path d="M40.5527 31.1124C39.7959 31.0828 40.1817 31.2015 39.6475 31.1792C39.2617 31.157 38.6682 31.0976 38.0747 31.1124C37.8373 31.1199 37.5925 31.1347 37.3625 31.1792C36.5687 31.3128 35.9751 31.2757 35.8193 31.2609C35.8193 31.2609 36.0048 31.1199 36.2867 30.9863C36.7467 30.9714 37.0212 30.9492 37.0435 30.9195C37.1102 30.8156 36.9099 30.8379 36.9099 30.8379C36.8357 30.8453 36.769 30.8453 36.6948 30.8453C37.0212 30.7785 37.4293 30.7711 37.7928 30.8304C37.9041 30.8453 37.9931 30.8601 38.0821 30.8601C38.3789 30.8675 38.5569 30.7785 38.8314 30.6598C39.1876 30.4965 39.3582 30.6746 39.6772 30.8008C39.9962 30.9343 40.2188 30.8675 40.8346 30.8601C41.4504 30.8453 41.4429 30.7414 41.7619 30.8601C42.0735 30.9789 41.3094 31.1347 40.5527 31.1124Z" fill="#010202"/>
<path d="M13.0504 15.9232L12.7908 16.2571L10.2609 14.313L8.68066 16.3684L10.1496 17.5036C10.6096 17.8598 10.8989 18.216 11.0028 18.5721L10.7728 18.8764L11.9599 19.789L12.4347 19.1732L11.8412 18.7131L13.1617 16.9916L13.7553 17.4517L14.2301 16.8358L13.0504 15.9232ZM11.5221 17.9117C11.3886 17.5778 11.0918 17.2439 10.6393 16.8952L9.73416 16.1977L10.3722 15.3666L12.3234 16.8655L11.5221 17.9117Z" fill="#009FE3"/>
<path d="M16.2184 14.1945L13.6811 11.1968L13.2286 11.5752L13.4957 14.4987L11.9451 12.6585L11.3516 13.1557L13.8889 16.1534L14.3414 15.775L14.0818 12.8589L15.6323 14.6916L16.2184 14.1945Z" fill="#009FE3"/>
<path d="M18.6588 11.5011C18.466 11.1523 18.1692 10.9742 17.776 10.9668C17.8947 10.6774 17.8799 10.3881 17.7241 10.0987C17.5683 9.81671 17.3383 9.63863 17.0415 9.57185C16.7373 9.50507 16.4406 9.54959 16.1438 9.71283L14.7861 10.4623L16.6854 13.9052L18.1469 13.1038C18.4511 12.9406 18.6514 12.7031 18.7553 12.4063C18.8517 12.0873 18.8221 11.7979 18.6588 11.5011ZM15.81 10.7145L16.4851 10.3435C16.5964 10.2842 16.7002 10.2693 16.8115 10.3064C16.9228 10.3435 17.0044 10.4103 17.0638 10.5216C17.1231 10.6329 17.138 10.7368 17.1083 10.8481C17.0786 10.9594 17.0118 11.041 16.908 11.1004L16.2328 11.4788L15.81 10.7145ZM18.0134 12.1837C17.9837 12.3024 17.9095 12.3915 17.7908 12.4583L17.0118 12.8886L16.5667 12.0798L17.3457 11.6495C17.457 11.5827 17.5757 11.5753 17.6944 11.605C17.8131 11.6421 17.9021 11.7163 17.9689 11.8276C18.0282 11.9463 18.0431 12.065 18.0134 12.1837Z" fill="#009FE3"/>
<path d="M22.6726 9.36398C22.5094 8.81489 22.1829 8.40679 21.6933 8.13966C21.2036 7.87254 20.6843 7.8206 20.1353 7.97642C19.5863 8.13967 19.1857 8.46615 18.9186 8.95588C18.6515 9.4456 18.5996 9.96501 18.7628 10.5141C18.926 11.0632 19.2524 11.4713 19.7421 11.7384C20.2317 12.0055 20.7511 12.0575 21.2927 11.9017C21.8417 11.7384 22.2423 11.4119 22.5168 10.9222C22.7765 10.4325 22.8358 9.91307 22.6726 9.36398ZM21.8417 10.5735C21.6784 10.8777 21.4188 11.078 21.0775 11.1745C20.7288 11.2784 20.4098 11.2413 20.1056 11.0854C19.8014 10.9222 19.6011 10.6625 19.4973 10.2989C19.3934 9.94275 19.4231 9.60885 19.5863 9.30462C19.7495 9.0004 20.0092 8.80005 20.3505 8.69617C20.6917 8.59229 21.0182 8.62939 21.3223 8.79263C21.6265 8.95588 21.8268 9.223 21.9307 9.57917C22.0346 9.94275 22.0049 10.2692 21.8417 10.5735Z" fill="#009FE3"/>
<path d="M25.3741 7.18994L25.3296 9.51277C25.3222 9.88382 25.2554 10.1287 25.1441 10.2549C25.0254 10.381 24.8474 10.4256 24.6174 10.3885L24.6025 11.1083C24.8029 11.1306 24.9809 11.1232 25.1441 11.0935C25.3073 11.0564 25.4631 10.9896 25.6115 10.8783C25.7599 10.7669 25.8712 10.5963 25.9602 10.3662C26.0492 10.1361 26.0938 9.85414 26.1012 9.51277L26.1309 7.95432L27.266 7.97658L27.1992 11.1677L27.9708 11.1825L28.0524 7.25673L25.3741 7.18994Z" fill="#009FE3"/>
<path d="M31.7687 11.872L31.3236 7.85776L30.3888 7.64258L28.1631 11.1597L28.9792 11.3526L29.365 10.7145L30.8933 11.0707L30.96 11.8127L31.7168 11.9908L31.7836 12.0056L31.7687 11.872ZM29.773 10.0615L30.6633 8.62203L30.8265 10.3064L29.773 10.0615Z" fill="#009FE3"/>
<path d="M36.391 9.84641L34.0466 8.7334L33.2454 10.4103C32.9931 10.9372 32.7038 11.2933 32.3773 11.4714L32.0361 11.3082L31.7616 11.8795L31.7096 11.9908L31.3906 12.6586L32.088 12.9925L32.4144 12.3099L34.3731 13.2448L34.0466 13.9201L34.744 14.254L35.382 12.9035L35.0037 12.7254L36.391 9.84641ZM34.3211 12.3915L33.1341 11.8276C33.4308 11.6272 33.6979 11.2637 33.9428 10.7517L34.4324 9.72027L35.3746 10.1655L34.3211 12.3915Z" fill="#009FE3"/>
<path d="M40.0115 13.096C39.9448 12.5395 39.6925 12.0869 39.2474 11.7307C38.8022 11.3745 38.3052 11.2261 37.7487 11.2929C37.1923 11.3523 36.7398 11.612 36.3836 12.0572C36.0275 12.5024 35.8791 13.007 35.9385 13.5635C35.9979 14.12 36.2501 14.5726 36.6952 14.9288C37.1404 15.2849 37.6374 15.4333 38.1939 15.3666C38.7503 15.3072 39.2103 15.0549 39.5664 14.6023C39.9299 14.1571 40.0709 13.6525 40.0115 13.096ZM38.9654 14.12C38.7355 14.4094 38.4461 14.58 38.1048 14.6097C37.7636 14.6468 37.452 14.5503 37.1701 14.3277C36.8881 14.1051 36.7323 13.8232 36.6878 13.4818C36.6507 13.1405 36.7472 12.8289 36.9772 12.5321C37.2071 12.2427 37.4965 12.072 37.8378 12.0349C38.179 11.9978 38.4906 12.0869 38.7726 12.3169C39.0545 12.5395 39.2103 12.8215 39.2548 13.1628C39.2919 13.5115 39.1954 13.8306 38.9654 14.12Z" fill="#009FE3"/>
<path d="M41.5324 13.9346L38.5352 16.4726L39.0322 17.0663L41.4657 15.0106L42.4079 16.1238L42.9717 15.6489L41.5324 13.9346Z" fill="#009FE3"/>
<path d="M43.7873 16.8657L39.7217 17.7414L40.1594 18.4539L40.8865 18.2832L41.7025 19.619L41.2203 20.1904L41.658 20.9103L44.2918 17.6821L43.7873 16.8657ZM42.1848 19.0401L41.6209 18.1199L43.268 17.7414L42.1848 19.0401Z" fill="#009FE3"/>
<path d="M13.102 37.1675C13.102 36.9003 13.0204 36.6777 12.8498 36.4996C12.6791 36.3215 12.464 36.2324 12.2043 36.2324C11.9298 36.2324 11.6998 36.3215 11.5292 36.4996C11.3511 36.6777 11.2695 36.9003 11.2695 37.1749C11.2695 37.4421 11.3586 37.6721 11.5366 37.8502C11.7147 38.0283 11.9521 38.1174 12.2414 38.1174C12.5827 38.1174 12.8424 37.9912 13.0204 37.7389L12.6495 37.5237C12.5604 37.6424 12.4269 37.7018 12.2488 37.7018C11.9743 37.7018 11.8111 37.5905 11.7443 37.3679H13.0872C13.102 37.2862 13.102 37.2269 13.102 37.1675ZM11.7369 36.9968C11.7592 36.8855 11.8185 36.7964 11.9001 36.7296C11.9818 36.6703 12.0856 36.6332 12.2043 36.6332C12.3082 36.6332 12.4046 36.6628 12.4862 36.7222C12.5679 36.7816 12.6198 36.8706 12.6495 36.9894H11.7369V36.9968Z" fill="#009FE3"/>
<path d="M14.601 37.2344C14.5417 37.1527 14.4601 37.0934 14.371 37.0637C14.282 37.0266 14.193 37.0043 14.0965 36.9821C14.0075 36.9598 13.9333 36.9375 13.8665 36.9004C13.7998 36.8707 13.7701 36.8336 13.7701 36.7891C13.7701 36.7446 13.7924 36.7075 13.8295 36.6778C13.8665 36.6555 13.9185 36.6407 13.9778 36.6407C14.1114 36.6407 14.2078 36.7001 14.2598 36.8188L14.653 36.6036C14.5862 36.4848 14.4897 36.3884 14.371 36.3216C14.2523 36.2548 14.1188 36.2251 13.9778 36.2251C13.7849 36.2251 13.6217 36.277 13.4956 36.3735C13.3695 36.4774 13.3027 36.611 13.3027 36.7891C13.3027 36.9078 13.3324 37.0043 13.3992 37.0785C13.4585 37.1527 13.5401 37.2121 13.6291 37.2492C13.7182 37.2863 13.8072 37.316 13.8962 37.3383C13.9853 37.3605 14.0594 37.3902 14.1262 37.4199C14.1856 37.4496 14.2227 37.4867 14.2227 37.5386C14.2227 37.6425 14.1411 37.6945 13.9778 37.6945C13.7998 37.6945 13.6811 37.6203 13.6291 37.4644L13.2285 37.6871C13.3621 37.9691 13.6143 38.1101 13.9778 38.1101C14.1856 38.1101 14.3488 38.0581 14.4897 37.9616C14.6233 37.8652 14.6975 37.7242 14.6975 37.5386C14.6975 37.4125 14.6678 37.316 14.601 37.2344Z" fill="#009FE3"/>
<path d="M15.9593 36.7148V36.277H15.5587V35.7798L15.0987 35.9208V36.2844H14.7871V36.7223H15.0987V37.4644C15.0987 37.7093 15.1655 37.88 15.2916 37.9764C15.4177 38.0729 15.6403 38.1026 15.9593 38.0655V37.6499C15.8703 37.6573 15.7961 37.6573 15.7367 37.6499C15.6774 37.6425 15.6329 37.6277 15.6032 37.6054C15.5735 37.5757 15.5587 37.5312 15.5587 37.4718V36.7297H15.9593V36.7148Z" fill="#009FE3"/>
<path d="M16.7898 37.5827C16.7305 37.5233 16.6563 37.4937 16.5747 37.4937C16.4931 37.4937 16.4189 37.5233 16.3595 37.5827C16.3002 37.6421 16.2705 37.7163 16.2705 37.7979C16.2705 37.8796 16.3002 37.9538 16.3595 38.0131C16.4189 38.0725 16.4931 38.1022 16.5747 38.1022C16.6563 38.1022 16.7305 38.0725 16.7898 38.0131C16.8492 37.9538 16.8789 37.8796 16.8789 37.7979C16.8789 37.7163 16.8492 37.6421 16.7898 37.5827Z" fill="#009FE3"/>
<path d="M35.0403 37.8205L35.53 37.3307C35.8045 37.0561 35.938 36.789 35.938 36.5292C35.938 36.2917 35.8564 36.0988 35.6932 35.9578C35.53 35.8168 35.3371 35.75 35.1145 35.75C34.9365 35.75 34.7807 35.7945 34.6323 35.8836C34.4839 35.9726 34.3726 36.1062 34.291 36.2769L34.7065 36.5218C34.7955 36.3289 34.9365 36.2324 35.1219 36.2324C35.2184 36.2324 35.2926 36.2621 35.3519 36.3214C35.4113 36.3808 35.441 36.4624 35.441 36.5589C35.441 36.6925 35.3445 36.8558 35.159 37.0561L34.3059 37.9318V38.2955H35.9751V37.8205H35.0403Z" fill="#009FE3"/>
<path d="M37.9275 36.1062C37.7494 35.8687 37.5046 35.75 37.193 35.75C36.8814 35.75 36.6365 35.8687 36.4585 36.1062C36.2804 36.3437 36.1914 36.6554 36.1914 37.0487C36.1914 37.442 36.2804 37.7537 36.4585 37.9912C36.6365 38.2287 36.8814 38.3474 37.193 38.3474C37.5046 38.3474 37.7494 38.2287 37.9275 37.9912C38.1055 37.7537 38.1871 37.442 38.1871 37.0487C38.1871 36.6554 38.1055 36.3437 37.9275 36.1062ZM37.5713 37.6572C37.4823 37.7982 37.3562 37.865 37.193 37.865C37.0298 37.865 36.9036 37.7982 36.8146 37.6572C36.7256 37.5162 36.6885 37.3159 36.6885 37.0487C36.6885 36.7815 36.733 36.5812 36.8146 36.4402C36.8962 36.2992 37.0223 36.2324 37.193 36.2324C37.3636 36.2324 37.4897 36.2992 37.5713 36.4402C37.6604 36.5812 37.7049 36.7815 37.7049 37.0487C37.7049 37.3084 37.6604 37.5162 37.5713 37.6572Z" fill="#009FE3"/>
<path d="M38.9341 35.8022L38.2812 36.0323L38.4 36.4553L38.8674 36.3217V38.2958H39.357V35.8022H38.9341Z" fill="#009FE3"/>
<path d="M41.4734 36.1062C41.2953 35.8687 41.0505 35.75 40.7389 35.75C40.4273 35.75 40.1824 35.8687 40.0044 36.1062C39.8263 36.3437 39.7373 36.6554 39.7373 37.0487C39.7373 37.442 39.8263 37.7537 40.0044 37.9912C40.1824 38.2287 40.4273 38.3474 40.7389 38.3474C41.0505 38.3474 41.2953 38.2287 41.4734 37.9912C41.6514 37.7537 41.7404 37.442 41.7404 37.0487C41.7404 36.6554 41.6514 36.3437 41.4734 36.1062ZM41.1247 37.6572C41.0356 37.7982 40.9095 37.865 40.7463 37.865C40.5831 37.865 40.4569 37.7982 40.3679 37.6572C40.2789 37.5162 40.2418 37.3159 40.2418 37.0487C40.2418 36.7815 40.2863 36.5812 40.3679 36.4402C40.4569 36.2992 40.5757 36.2324 40.7463 36.2324C40.9095 36.2324 41.0356 36.2992 41.1247 36.4402C41.2137 36.5812 41.2582 36.7815 41.2582 37.0487C41.2508 37.3084 41.2063 37.5162 41.1247 37.6572Z" fill="#009FE3"/>
<path d="M23.8886 41.0773C24.1854 40.9512 28.0878 40.6172 28.9336 41.0773C29.7867 41.5374 28.4142 41.3074 28.2807 41.5003C28.1472 41.6933 29.6532 41.5671 30.6993 41.6636C31.7454 41.7601 31.6118 42.0866 30.4841 42.0569C29.3564 42.0272 22.5458 42.0421 22.3381 42.0569C21.7742 42.1089 21.2994 41.7601 24.4302 41.6636C25.2834 41.6413 23.5103 41.2406 23.8886 41.0773Z" fill="black"/>
<path d="M45.0259 6.96748L32.9626 0H19.0297L6.96643 6.96748L0 19.0326V32.9675L6.96643 45.0326L19.0297 52.0001H32.9626L45.0259 45.0326L51.9923 32.9675V19.0326L45.0259 6.96748ZM51.2504 32.7672L44.4843 44.4909L32.7623 51.2581H19.23L7.50802 44.4909L0.741899 32.7672V19.2329L7.50802 7.50914L19.23 0.74201H32.7623L44.4843 7.50914L51.2504 19.2329V32.7672Z" fill="#D88532"/>
<path d="M42.2483 9.6348L31.9062 3.66162H19.969L9.6344 9.62738L3.66211 19.971V31.91L9.6344 42.2462L19.969 48.2193H31.9062L42.2409 42.2462L48.2131 31.91V19.971L42.2483 9.6348ZM47.4712 31.7096L41.6993 41.7045L31.7059 47.4773H20.1694L10.176 41.7045L4.40401 31.7096V20.1713L10.176 10.1765L20.1694 4.40363H31.7059L41.6993 10.1765L47.4712 20.1713V31.7096Z" fill="#D88532"/>
<path d="M24.4538 0.371582H23.7119V4.08959H24.4538V0.371582Z" fill="#D88532"/>
<path d="M28.4606 0.371094H27.7188V4.0891H28.4606V0.371094Z" fill="#D88532"/>
<path d="M51.9992 27.4614H47.8965V28.2406H51.9992V27.4614Z" fill="#D88532"/>
<path d="M51.9992 23.4546H47.8965V24.2338H51.9992V23.4546Z" fill="#D88532"/>
<path d="M28.3864 47.9038H27.6445V51.6218H28.3864V47.9038Z" fill="#D88532"/>
<path d="M24.3796 47.9038H23.6377V51.6218H24.3796V47.9038Z" fill="#D88532"/>
<path d="M4.08801 23.4766H0.371094V24.2187H4.08801V23.4766Z" fill="#D88532"/>
<path d="M4.08801 27.4839H0.371094V28.226H4.08801V27.4839Z" fill="#D88532"/>
<path d="M33.8225 23.3215L33.3477 20.2792L32.7987 19.4185L30.5285 19.1514C30.5285 19.1662 30.4914 19.2923 30.432 19.4927C30.2021 20.3163 29.6085 22.4088 29.4231 23.1434C29.3785 23.3066 29.3563 23.4031 29.3637 23.4105C29.4008 23.4253 32.9471 23.9819 32.9471 23.9819L33.8374 23.4179L33.8225 23.3215ZM30.803 19.9973C30.803 19.9973 32.8655 20.4944 32.9322 20.5241C33.0064 20.5538 33.2364 23.0321 33.2364 23.0321L32.8655 23.0024L32.5316 23.366L29.9646 22.8837L30.803 19.9973Z" fill="black"/>
<path d="M26.041 18.914L24.5869 22.9802L25.1953 23.0619L26.7607 18.7285L26.041 18.914Z" fill="black"/>
<path d="M19.1854 19.8786L17.709 23.7376L18.0503 23.6634L19.445 19.7896L19.1854 19.8786Z" fill="black"/>
<path d="M33.3558 20.2799C33.3558 20.2799 29.7724 19.3152 29.6537 19.3003C29.535 19.2855 26.1445 19.3448 26.1445 19.3448L17.6424 20.0795C17.6424 20.0795 17.5459 19.3226 17.7462 19.0777C17.9391 18.8402 18.2952 18.6027 18.2952 18.6027C18.2952 18.6027 18.2285 18.291 18.5549 18.291C18.8813 18.291 29.0899 17.4302 29.0899 17.4302L32.7845 18.1649L33.5264 18.996L33.3558 20.2799Z" fill="black"/>
<path d="M34.9207 25.1545L27.9245 23.9968L23.7922 24.4718C22.62 24.5089 21.2104 24.5757 20.9136 24.6351C20.6836 24.6796 20.283 24.7612 19.9862 24.8429L18.5915 24.8354H18.3021L16.5587 24.828L15.2158 24.3679C15.2158 24.3679 15.4829 24.1972 15.5719 24.1675C15.661 24.1378 16.2025 24.0043 16.2025 24.0043L16.6996 23.7297L16.8851 23.6258C16.8851 23.6258 16.9296 23.6184 17.0112 23.6109L17.1002 23.6035C17.1299 23.6035 17.167 23.5961 17.1967 23.5887L17.3525 23.5738L17.4415 23.5664L17.538 23.5516L17.6418 23.5367L17.7383 23.5293C17.7531 23.5293 17.7605 23.5293 17.7754 23.5219C17.8496 23.5145 17.9312 23.507 18.0202 23.4922C18.0425 23.4922 18.0721 23.4848 18.0944 23.4848C19.6746 23.3067 22.4864 23.0173 24.6008 22.8985C24.8234 22.8837 25.0386 22.8762 25.2463 22.8688C25.6766 22.854 26.0698 22.8466 26.3888 22.854C27.2939 22.8762 28.3771 22.995 29.4083 23.1434C31.3299 23.4254 33.0437 23.7965 33.0437 23.7965L33.4517 23.1954L33.8078 23.3067L34.6832 23.5813L34.839 24.7019L34.9207 25.1545Z" fill="black"/>
<path d="M22.687 33.6208L21.8338 31.3577C21.0548 30.6379 20.6542 29.8959 20.6542 29.8959C20.5355 29.6807 20.7432 29.614 21.1884 29.6436L20.7952 28.59C20.7136 28.5603 20.6542 28.5455 20.6245 28.5232C20.1868 28.3006 20.3723 28.219 20.5504 28.2709C20.5504 28.2709 20.6023 28.2858 20.6913 28.308L20.3723 27.4621C20.2239 27.2692 20.1126 27.0021 20.031 26.7201L18.6066 24.8428L18.1763 24.2715L15.2309 24.3679C14.7339 24.6054 14.5781 25.7703 14.5781 25.7703C14.5781 25.7703 14.5781 25.7703 14.5706 25.7703C14.5632 25.7703 14.5484 25.7778 14.5261 25.7926C14.5187 25.8 14.5039 25.8 14.4965 25.8074C14.489 25.8074 14.489 25.8149 14.4816 25.8149C14.4742 25.8223 14.4668 25.8223 14.4594 25.8297C14.4445 25.8371 14.4371 25.8445 14.4223 25.852L14.4149 25.8594C14.4074 25.8668 14.4 25.8742 14.3852 25.8816C14.3778 25.8891 14.3629 25.8965 14.3555 25.9039C14.3332 25.9187 14.311 25.941 14.2887 25.9633C14.2739 25.9781 14.2665 25.9855 14.2516 26.0004C14.2368 26.0152 14.2294 26.0226 14.2145 26.0375C14.2071 26.0449 14.1997 26.0597 14.1923 26.0671C14.1849 26.0746 14.1774 26.0894 14.17 26.0968C14.1626 26.1117 14.1552 26.1191 14.1403 26.1339C14.1329 26.1488 14.1255 26.1562 14.1181 26.171C14.1107 26.1859 14.1033 26.1933 14.0958 26.2081C14.0884 26.223 14.081 26.2378 14.0736 26.2527C14.0662 26.2675 14.0587 26.2823 14.0513 26.2898C14.0216 26.3491 13.992 26.4159 13.9623 26.4901C13.9549 26.5198 13.94 26.5569 13.94 26.5866C13.94 26.6014 13.9326 26.6162 13.9326 26.6311C13.9326 26.6385 13.9326 26.6459 13.9326 26.6533C13.9326 26.6904 13.9326 26.7275 13.94 26.7572C13.9475 26.7869 13.9549 26.8092 13.9623 26.8314C13.9623 26.8388 13.9697 26.8463 13.9697 26.8537C13.9697 26.8611 13.9771 26.8685 13.9845 26.8759C13.9845 26.8834 13.992 26.8908 13.9994 26.8982C14.0068 26.9056 14.0142 26.9205 14.0216 26.9279C14.0216 26.9279 14.0216 26.9279 14.0216 26.9353C14.0291 26.9427 14.0365 26.9501 14.0439 26.965C14.0513 26.9798 14.0662 26.9872 14.081 27.0021C14.0958 27.0095 14.1033 27.0243 14.1181 27.0318C14.1255 27.0392 14.1403 27.0466 14.1478 27.054C14.1626 27.0614 14.17 27.0689 14.1849 27.0763C14.1923 27.0837 14.2071 27.0911 14.2145 27.0985C14.222 27.106 14.2294 27.106 14.2368 27.1134C14.2368 27.1134 14.2368 27.1134 14.2442 27.1208C14.2591 27.1282 14.2813 27.1431 14.3036 27.1505C14.3036 27.1505 14.3036 27.1505 14.311 27.1505C14.3258 27.1579 14.3407 27.1653 14.3555 27.1653C14.3629 27.1727 14.3703 27.1727 14.3778 27.1727C14.3926 27.1802 14.4074 27.1802 14.4223 27.1876C14.4297 27.1876 14.4371 27.195 14.4445 27.195C14.4519 27.195 14.4594 27.2024 14.4668 27.2024C14.4742 27.2024 14.4816 27.2098 14.489 27.2098C14.5039 27.2173 14.5113 27.2173 14.5261 27.2173C14.5558 27.2247 14.5706 27.2247 14.5706 27.2247C14.5706 27.2247 14.5707 27.2321 14.5781 27.2395C14.5781 27.2469 14.5855 27.2544 14.5855 27.2618C14.6003 27.2915 14.6226 27.336 14.6523 27.3879C14.6597 27.4028 14.6671 27.4176 14.6745 27.425C14.6894 27.4621 14.7116 27.4918 14.7339 27.5363C14.7487 27.5586 14.7561 27.5883 14.771 27.6105C14.771 27.618 14.7784 27.6179 14.7784 27.6254C14.7932 27.6625 14.8155 27.6996 14.8377 27.7367C14.8377 27.7367 14.8377 27.7441 14.8452 27.7441C14.8674 27.7886 14.8897 27.8331 14.9119 27.8777C14.9342 27.9222 14.9564 27.9741 14.9861 28.0261C14.9935 28.0409 15.001 28.0483 15.001 28.0632C15.0306 28.1225 15.0603 28.1819 15.09 28.2412C15.1271 28.308 15.1642 28.3822 15.2013 28.4564C15.2161 28.4861 15.2309 28.5158 15.2458 28.5455C15.268 28.5974 15.2977 28.6493 15.32 28.7013C15.3348 28.7235 15.3496 28.7532 15.3571 28.7829C15.498 29.0575 15.639 29.3468 15.7874 29.6288C15.8764 29.7995 15.958 29.9627 16.0396 30.1259C16.0544 30.1556 16.0693 30.1779 16.0841 30.2076C16.099 30.2372 16.1138 30.2669 16.1286 30.2966C16.1286 30.304 16.1361 30.3114 16.1361 30.3189C16.2102 30.4747 16.2844 30.6157 16.3586 30.7492C16.3809 30.8012 16.4106 30.8457 16.4328 30.8902C16.4699 30.957 16.4996 31.0238 16.5367 31.0906C16.5367 31.098 16.5367 31.098 16.5441 31.098C16.5515 31.1202 16.5664 31.1425 16.5738 31.1573C16.5886 31.1796 16.596 31.2093 16.6109 31.2315C16.6183 31.2538 16.6331 31.2686 16.6405 31.2909C16.6554 31.328 16.6776 31.3651 16.6925 31.3948C16.737 31.4764 16.7741 31.5506 16.7963 31.6025C16.8038 31.61 16.8112 31.6248 16.8112 31.6322C16.8186 31.6396 16.826 31.6471 16.8334 31.6619C16.8409 31.6693 16.8409 31.6693 16.8483 31.6767C16.8557 31.6842 16.8631 31.6916 16.8705 31.699C16.878 31.7064 16.8854 31.7138 16.8928 31.7213C16.9002 31.7287 16.9002 31.7287 16.9076 31.7361C16.9225 31.7435 16.9299 31.7584 16.9447 31.7658C16.9521 31.7732 16.9596 31.7806 16.9744 31.788C16.9892 31.8029 17.0041 31.8103 17.0189 31.8251C17.0263 31.8326 17.0412 31.84 17.0486 31.8474C17.0708 31.8623 17.0931 31.8771 17.1228 31.8919C17.1376 31.8993 17.145 31.9068 17.1599 31.9142C17.2266 31.9513 17.3008 31.9958 17.375 32.0329C17.3973 32.0403 17.4121 32.0552 17.4344 32.0626C17.4937 32.0923 17.5605 32.122 17.6273 32.1516C17.6718 32.1739 17.7163 32.1962 17.7608 32.211C17.7757 32.2184 17.7831 32.2258 17.7979 32.2258C17.8202 32.2333 17.8498 32.2481 17.8721 32.2555C17.9315 32.2778 17.9908 32.3075 18.0576 32.3297C18.065 32.3297 18.0724 32.3371 18.0798 32.3371H18.0873C18.0873 32.3371 18.0947 32.3371 18.1021 32.3446C18.1021 32.3446 18.1021 32.3446 18.1095 32.3446H18.1169C18.154 32.3594 18.1911 32.3742 18.2356 32.3891C18.2727 32.4039 18.3098 32.4188 18.3469 32.4336C18.4211 32.4633 18.5027 32.493 18.5769 32.5226C18.6214 32.5375 18.6659 32.5523 18.7104 32.5746C18.7772 32.5968 18.844 32.6191 18.9033 32.6414C18.9627 32.6636 19.0369 32.6859 19.0962 32.7081C19.1556 32.7304 19.2149 32.7452 19.2743 32.7675C19.3114 32.7823 19.3485 32.7898 19.3856 32.8046C19.4227 32.8194 19.4672 32.8343 19.5043 32.8417C19.5414 32.8565 19.5785 32.864 19.6156 32.8788C19.6527 32.8936 19.6898 32.9011 19.7268 32.9159C19.7788 32.9307 19.8233 32.9456 19.8678 32.9604C19.9197 32.9753 19.9717 32.9901 20.0236 33.0049C20.0607 33.0198 20.1052 33.0272 20.1423 33.042C20.1868 33.0569 20.2313 33.0717 20.2684 33.0791C20.2981 33.0866 20.3204 33.094 20.35 33.1014C20.3723 33.1088 20.402 33.1162 20.4242 33.1237C20.5207 33.1533 20.6171 33.183 20.6987 33.2053C20.721 33.2127 20.7358 33.2201 20.7581 33.2201C20.7952 33.235 20.8323 33.2424 20.8694 33.2498C20.8842 33.2572 20.899 33.2572 20.9139 33.2646C20.9436 33.2721 20.9732 33.2795 20.9955 33.2869C21.04 33.3018 21.0697 33.3092 21.0919 33.3166C21.0994 33.3166 21.1068 33.324 21.1142 33.324H21.1216C21.129 33.324 21.129 33.324 21.129 33.324L22.7538 33.695L22.687 33.6208ZM21.2997 32.582C21.1736 32.5449 20.3649 32.3223 19.4894 32.0255C17.9834 31.5209 17.5457 31.2464 17.4344 31.1648C17.375 31.0535 17.286 30.8828 17.1821 30.675C17.1673 30.6528 17.1599 30.6231 17.145 30.6008C17.197 30.5192 17.2637 30.4376 17.3454 30.3411C17.6644 29.9627 18.2356 29.473 19.2595 28.7829C19.2595 28.7829 19.5488 28.3229 19.022 28.5009C18.9256 28.538 17.5531 29.2059 16.9447 30.2001C16.277 28.8868 15.2606 26.8908 15.2458 26.8685L15.0677 26.5198L14.9045 26.4901L15.2903 26.3565L15.3571 25.8668C15.3942 25.6145 15.4832 25.3103 15.5648 25.1471L17.7905 25.0729L18.6882 26.2601C18.9182 27.1134 19.1704 27.9667 19.304 28.2041C19.482 28.5232 20.2536 30.356 21.1884 31.8622L21.4703 32.6117L21.2997 32.582Z" fill="white"/>
<path d="M22.687 33.6208L21.8338 31.3577C21.0548 30.6379 20.6542 29.8959 20.6542 29.8959C20.5355 29.6807 20.7432 29.614 21.1884 29.6436L20.7952 28.59C20.7136 28.5603 20.6542 28.5455 20.6245 28.5232C20.1868 28.3006 20.3723 28.219 20.5504 28.2709C20.5504 28.2709 20.6023 28.2858 20.6913 28.308L20.3723 27.4621C20.2239 27.2692 20.1126 27.0021 20.031 26.7201L18.6066 24.8428L18.1763 24.2715L15.2309 24.3679C14.7339 24.6054 14.5781 25.7703 14.5781 25.7703C14.5781 25.7703 14.5781 25.7703 14.5706 25.7703C14.5632 25.7703 14.5484 25.7778 14.5261 25.7926C14.5187 25.8 14.5039 25.8 14.4965 25.8074C14.489 25.8074 14.489 25.8149 14.4816 25.8149C14.4742 25.8223 14.4668 25.8223 14.4594 25.8297C14.4445 25.8371 14.4371 25.8445 14.4223 25.852L14.4149 25.8594C14.4074 25.8668 14.4 25.8742 14.3852 25.8816C14.3778 25.8891 14.3629 25.8965 14.3555 25.9039C14.3332 25.9187 14.311 25.941 14.2887 25.9633C14.2739 25.9781 14.2665 25.9855 14.2516 26.0004C14.2368 26.0152 14.2294 26.0226 14.2145 26.0375C14.2071 26.0449 14.1997 26.0597 14.1923 26.0671C14.1849 26.0746 14.1774 26.0894 14.17 26.0968C14.1626 26.1117 14.1552 26.1191 14.1403 26.1339C14.1329 26.1488 14.1255 26.1562 14.1181 26.171C14.1107 26.1859 14.1033 26.1933 14.0958 26.2081C14.0884 26.223 14.081 26.2378 14.0736 26.2527C14.0662 26.2675 14.0587 26.2823 14.0513 26.2898C14.0216 26.3491 13.992 26.4159 13.9623 26.4901C13.9549 26.5198 13.94 26.5569 13.94 26.5866C13.94 26.6014 13.9326 26.6162 13.9326 26.6311C13.9326 26.6385 13.9326 26.6459 13.9326 26.6533C13.9326 26.6904 13.9326 26.7275 13.94 26.7572C13.9475 26.7869 13.9549 26.8092 13.9623 26.8314C13.9623 26.8388 13.9697 26.8463 13.9697 26.8537C13.9697 26.8611 13.9771 26.8685 13.9845 26.8759C13.9845 26.8834 13.992 26.8908 13.9994 26.8982C14.0068 26.9056 14.0142 26.9205 14.0216 26.9279C14.0216 26.9279 14.0216 26.9279 14.0216 26.9353C14.0291 26.9427 14.0365 26.9501 14.0439 26.965C14.0513 26.9798 14.0662 26.9872 14.081 27.0021C14.0958 27.0095 14.1033 27.0243 14.1181 27.0318C14.1255 27.0392 14.1403 27.0466 14.1478 27.054C14.1626 27.0614 14.17 27.0689 14.1849 27.0763C14.1923 27.0837 14.2071 27.0911 14.2145 27.0985C14.222 27.106 14.2294 27.106 14.2368 27.1134C14.2368 27.1134 14.2368 27.1134 14.2442 27.1208C14.2591 27.1282 14.2813 27.1431 14.3036 27.1505C14.3036 27.1505 14.3036 27.1505 14.311 27.1505C14.3258 27.1579 14.3407 27.1653 14.3555 27.1653C14.3629 27.1727 14.3703 27.1727 14.3778 27.1727C14.3926 27.1802 14.4074 27.1802 14.4223 27.1876C14.4297 27.1876 14.4371 27.195 14.4445 27.195C14.4519 27.195 14.4594 27.2024 14.4668 27.2024C14.4742 27.2024 14.4816 27.2098 14.489 27.2098C14.5039 27.2173 14.5113 27.2173 14.5261 27.2173C14.5558 27.2247 14.5706 27.2247 14.5706 27.2247C14.5706 27.2247 14.5707 27.2321 14.5781 27.2395C14.5781 27.2469 14.5855 27.2544 14.5855 27.2618C14.6003 27.2915 14.6226 27.336 14.6523 27.3879C14.6597 27.4028 14.6671 27.4176 14.6745 27.425C14.6894 27.4621 14.7116 27.4918 14.7339 27.5363C14.7487 27.5586 14.7561 27.5883 14.771 27.6105C14.771 27.618 14.7784 27.6179 14.7784 27.6254C14.7932 27.6625 14.8155 27.6996 14.8377 27.7367C14.8377 27.7367 14.8377 27.7441 14.8452 27.7441C14.8674 27.7886 14.8897 27.8331 14.9119 27.8777C14.9342 27.9222 14.9564 27.9741 14.9861 28.0261C14.9935 28.0409 15.001 28.0483 15.001 28.0632C15.0306 28.1225 15.0603 28.1819 15.09 28.2412C15.1271 28.308 15.1642 28.3822 15.2013 28.4564C15.2161 28.4861 15.2309 28.5158 15.2458 28.5455C15.268 28.5974 15.2977 28.6493 15.32 28.7013C15.3348 28.7235 15.3496 28.7532 15.3571 28.7829C15.498 29.0575 15.639 29.3468 15.7874 29.6288C15.8764 29.7995 15.958 29.9627 16.0396 30.1259C16.0544 30.1556 16.0693 30.1779 16.0841 30.2076C16.099 30.2372 16.1138 30.2669 16.1286 30.2966C16.1286 30.304 16.1361 30.3114 16.1361 30.3189C16.2102 30.4747 16.2844 30.6157 16.3586 30.7492C16.3809 30.8012 16.4106 30.8457 16.4328 30.8902C16.4699 30.957 16.4996 31.0238 16.5367 31.0906C16.5367 31.098 16.5367 31.098 16.5441 31.098C16.5515 31.1202 16.5664 31.1425 16.5738 31.1573C16.5886 31.1796 16.596 31.2093 16.6109 31.2315C16.6183 31.2538 16.6331 31.2686 16.6405 31.2909C16.6554 31.328 16.6776 31.3577 16.6925 31.3948C16.737 31.4764 16.7741 31.5506 16.7963 31.6025C16.8038 31.61 16.8112 31.6248 16.8112 31.6322C16.8186 31.6396 16.826 31.6471 16.8334 31.6619C16.8409 31.6693 16.8409 31.6693 16.8483 31.6767C16.8557 31.6842 16.8631 31.6916 16.8705 31.699C16.878 31.7064 16.8854 31.7138 16.8928 31.7213C16.9002 31.7287 16.9002 31.7287 16.9076 31.7361C16.9225 31.7435 16.9299 31.7584 16.9447 31.7658C16.9521 31.7732 16.9596 31.7806 16.9744 31.788C16.9892 31.8029 17.0041 31.8103 17.0189 31.8251C17.0263 31.8326 17.0412 31.84 17.0486 31.8474C17.0708 31.8623 17.0931 31.8771 17.1228 31.8919C17.1376 31.8993 17.145 31.9068 17.1599 31.9142C17.2266 31.9513 17.3008 31.9958 17.375 32.0329C17.3973 32.0403 17.4121 32.0552 17.4344 32.0626C17.4937 32.0923 17.5605 32.122 17.6273 32.1516C17.6718 32.1739 17.7163 32.1962 17.7608 32.211C17.7757 32.2184 17.7831 32.2258 17.7979 32.2258C17.8202 32.2333 17.8498 32.2481 17.8721 32.2555C17.9315 32.2778 17.9908 32.3075 18.0576 32.3297C18.065 32.3297 18.0724 32.3371 18.0798 32.3371H18.0873C18.0873 32.3371 18.0947 32.3371 18.1021 32.3446C18.1021 32.3446 18.1021 32.3446 18.1095 32.3446H18.1169C18.154 32.3594 18.1911 32.3742 18.2356 32.3891C18.2727 32.4039 18.3098 32.4188 18.3469 32.4336C18.4211 32.4633 18.5027 32.493 18.5769 32.5226C18.6214 32.5375 18.6659 32.5523 18.7104 32.5746C18.7772 32.5968 18.844 32.6191 18.9033 32.6414C18.9627 32.6636 19.0369 32.6859 19.0962 32.7081C19.1556 32.7304 19.2149 32.7452 19.2743 32.7675C19.3114 32.7823 19.3485 32.7898 19.3856 32.8046C19.4227 32.8194 19.4672 32.8343 19.5043 32.8417C19.5414 32.8565 19.5785 32.864 19.6156 32.8788C19.6527 32.8936 19.6898 32.9011 19.7268 32.9159C19.7788 32.9307 19.8233 32.9456 19.8678 32.9604C19.9197 32.9753 19.9717 32.9901 20.0236 33.0049C20.0607 33.0198 20.1052 33.0272 20.1423 33.042C20.1868 33.0569 20.2313 33.0717 20.2684 33.0791C20.2981 33.0866 20.3204 33.094 20.35 33.1014C20.3723 33.1088 20.402 33.1162 20.4242 33.1237C20.5207 33.1533 20.6171 33.183 20.6987 33.2053C20.721 33.2127 20.7358 33.2201 20.7581 33.2201C20.7952 33.235 20.8323 33.2424 20.8694 33.2498C20.8842 33.2572 20.899 33.2572 20.9139 33.2646C20.9436 33.2721 20.9732 33.2795 20.9955 33.2869C21.04 33.3018 21.0697 33.3092 21.0919 33.3166C21.0994 33.3166 21.1068 33.324 21.1142 33.324H21.1216C21.129 33.324 21.129 33.324 21.129 33.324L22.7538 33.695L22.687 33.6208ZM21.2997 32.582C21.1736 32.5449 20.3649 32.3223 19.4894 32.0255C17.9834 31.5209 17.5457 31.2464 17.4344 31.1648C17.375 31.0535 17.286 30.8828 17.1821 30.675C17.1673 30.6528 17.1599 30.6231 17.145 30.6008C17.1005 30.5118 17.0486 30.4153 16.9967 30.3114C16.9818 30.2743 16.9596 30.2447 16.9447 30.2076C16.277 28.8942 15.2606 26.8982 15.2458 26.8759L15.0677 26.5272L14.9045 26.4975L15.2903 26.364L15.3571 25.8742C15.3942 25.6219 15.4832 25.3177 15.5648 25.1545L17.7905 25.0803L18.6882 26.2675L19.4523 27.2766L21.1884 31.8771L21.4703 32.6265L21.2997 32.582Z" fill="black"/>
<path d="M19.1548 19.9453L18.3165 20.0195L17.0107 23.6188L17.0998 23.6114C17.1294 23.6114 17.1665 23.6039 17.1962 23.5965L17.352 23.5817L17.441 23.5743L17.5375 23.5594L17.6414 23.5446L17.7378 23.5372L19.0881 20.0937L19.0955 20.0789L19.1548 19.9453ZM17.5746 23.2997L17.3891 23.3219L18.502 20.257L18.7839 20.2347L17.5746 23.2997Z" fill="white"/>
<path d="M18.1393 19.7824L18.0428 20.0421L16.7074 23.7299L16.6406 23.908L17.9315 23.7596L17.9612 23.6779L18.0354 23.4924L18.9479 21.17V21.1625V21.1551L19.4302 19.916L19.534 19.6562L18.1393 19.7824ZM18.7773 20.2276L17.5754 23.2995L17.3899 23.3218L18.5028 20.2573L18.7773 20.2276Z" fill="black"/>
<path d="M37.2213 26.6237C36.7465 26.5792 36.242 26.5346 35.8933 26.4753C35.8117 26.5124 35.6262 26.4604 35.5372 26.4011C35.4853 26.3565 35.4407 26.3788 35.4111 26.3788C35.7746 26.505 36.0788 26.6237 36.3013 26.7127C36.4868 26.6088 36.8578 26.6608 37.251 26.7276C37.2436 26.6905 37.2361 26.6534 37.2213 26.6237ZM38.0077 29.755C37.9632 29.5027 37.8964 29.1984 37.8222 28.8868C37.7258 28.4639 37.5997 28.0038 37.4884 27.5734C37.4661 27.4992 37.4513 27.425 37.429 27.3508C37.4068 27.2766 37.3919 27.2024 37.3697 27.1357C37.3326 26.9947 37.2881 26.8537 37.251 26.7276C37.2436 26.6905 37.2287 26.6608 37.2213 26.6237C37.2139 26.594 37.2065 26.5643 37.199 26.5421C37.1545 26.3862 37.11 26.2452 37.0803 26.1265C37.021 25.9188 36.9839 25.8 36.9839 25.8C36.8726 25.711 36.7539 25.6145 36.6278 25.5329C36.5907 25.5107 36.561 25.4884 36.5239 25.4661C36.2494 25.2955 35.923 25.1322 35.5669 24.9838C35.3443 24.8948 35.1143 24.8057 34.8695 24.7241C31.9909 23.7595 27.6286 23.4479 25.7886 23.574C23.3849 23.7447 19.1116 24.1528 19.1116 24.1528L18.1768 24.2715C18.1768 24.2715 18.2287 24.4941 18.3177 24.8428C18.4142 25.2213 18.5477 25.7407 18.6887 26.2675C18.9187 27.1208 19.1709 27.9741 19.3044 28.2116C19.4825 28.5306 20.2541 30.3634 21.1889 31.8697C21.6192 32.5672 22.0866 33.1979 22.5391 33.5763C22.6059 33.6283 22.6727 33.6802 22.732 33.7247C22.8656 33.8138 22.9991 33.8805 23.1252 33.9176C24.4903 34.3109 32.629 33.6283 35.7969 33.3092C36.3236 33.2572 36.7168 33.2127 36.9097 33.183C37.9632 33.0421 38.0522 31.981 38.0671 31.1128C38.0671 31.0238 38.0671 30.9422 38.0671 30.8606C38.0671 30.6973 38.0671 30.5415 38.0745 30.4079C38.0893 30.2595 38.0597 30.0295 38.0077 29.755ZM20.9218 24.6351C21.2111 24.5757 22.6207 24.5089 23.8004 24.4718C24.4829 24.4496 25.0913 24.4347 25.3509 24.4422C26.0557 24.457 26.8941 24.4347 29.3423 24.7761C31.0858 25.0209 33.8086 25.8075 35.3962 26.364C35.4037 26.364 35.4111 26.3714 35.4185 26.3714C35.782 26.4975 36.0862 26.6163 36.3088 26.7053C36.4646 26.7721 36.5684 26.824 36.6278 26.8685C37.1323 27.2247 36.5313 27.0169 36.5313 27.0169C36.4497 26.965 36.331 26.9131 36.1826 26.8463C34.6692 26.2081 30.0991 25.058 27.8882 24.7612C25.4622 24.4347 19.7051 25.0358 19.7051 25.0358C19.5048 24.9987 19.6977 24.9171 19.9944 24.8354C20.2912 24.7612 20.6918 24.6796 20.9218 24.6351ZM36.1159 32.5523C35.5224 32.9159 26.1151 33.1163 23.9413 32.5449C23.0659 32.3149 22.3611 31.84 21.8343 31.3577C21.0553 30.6379 20.6547 29.8959 20.6547 29.8959C20.536 29.6808 20.7437 29.614 21.1889 29.6437C22.6727 29.7475 26.7976 30.9793 29.973 31.38C34.0757 31.8994 36.7094 32.1888 36.1159 32.5523ZM37.0284 30.9125C37.0136 30.9422 36.7317 30.9719 36.2717 30.9793C35.0846 31.009 32.6957 30.9496 30.4774 30.6157C27.6137 30.1779 21.9233 28.9387 20.7882 28.59C20.7066 28.5603 20.6473 28.5455 20.6176 28.5232C20.1799 28.3006 20.3654 28.219 20.5434 28.2709C20.5434 28.2709 20.5953 28.2858 20.6844 28.308C21.9456 28.6345 31.5013 31.0312 36.6797 30.8383C36.7539 30.8383 36.8281 30.8309 36.8949 30.8309C36.9023 30.8309 37.0952 30.8086 37.0284 30.9125ZM37.1397 29.7401C37.1249 30.074 37.0284 30.3189 36.7836 30.3337C35.9675 30.3857 21.0776 28.0558 20.5063 27.6105C20.4544 27.5734 20.4099 27.5215 20.3654 27.4696C20.217 27.2766 20.1057 27.0095 20.0241 26.7276C19.8683 26.1785 19.8238 25.5997 19.8238 25.5997C27.317 24.546 32.4583 26.9724 35.9378 27.5734C36.472 27.6625 36.8949 28.078 37.0062 28.6123C37.0284 28.7013 37.0432 28.7978 37.0581 28.8868C37.0803 29.0204 37.1026 29.1539 37.1174 29.2801C37.1174 29.3172 37.1249 29.3543 37.1249 29.3914C37.1471 29.5101 37.1471 29.6288 37.1397 29.7401ZM37.2213 26.6237C36.7465 26.5792 36.242 26.5346 35.8933 26.4753C35.8117 26.5124 35.6262 26.4604 35.5372 26.4011C35.4853 26.3565 35.4407 26.3788 35.4111 26.3788C35.7746 26.505 36.0788 26.6237 36.3013 26.7127C36.4868 26.6088 36.8578 26.6608 37.251 26.7276C37.2436 26.6905 37.2361 26.6534 37.2213 26.6237Z" fill="black"/>
<path d="M19.2672 28.7903C18.2433 29.4805 17.6721 29.9703 17.3531 30.3488C17.2714 30.4378 17.2121 30.5269 17.1527 30.6085C17.1379 30.6382 17.1157 30.6679 17.1008 30.6902C17.0118 30.846 16.9599 30.9796 16.9302 31.1057C16.8115 31.5659 16.6557 31.2245 16.6557 31.2245C16.6483 31.039 16.6705 30.8534 16.7299 30.6753C16.767 30.5492 16.8189 30.4304 16.8857 30.3117C16.9079 30.2746 16.9302 30.2375 16.9524 30.2004C17.5682 29.2133 18.9333 28.538 19.0298 28.5009C19.5491 28.3228 19.2672 28.7903 19.2672 28.7903Z" fill="black"/>
<path d="M21.3886 17.66C21.3663 17.8381 21.2699 17.9939 21.1363 18.0904C21.0473 18.1572 20.9434 18.2092 20.8321 18.224C20.7728 18.2314 20.7134 18.2314 20.6541 18.224C20.5725 18.2092 20.4983 18.1869 20.4315 18.1498C20.2757 18.0607 20.157 17.9123 20.1125 17.7416C20.1644 17.8975 20.3054 18.0162 20.476 18.0385C20.4983 18.0385 20.5131 18.0459 20.5354 18.0459C20.7579 18.0459 20.9508 17.8826 20.9805 17.66C21.0102 17.4151 20.8396 17.185 20.5947 17.1553C20.5725 17.1553 20.5576 17.1479 20.5354 17.1479C20.3202 17.1479 20.1348 17.3038 20.0977 17.519C20.0977 17.5116 20.0977 17.5041 20.0977 17.4893C20.1422 17.1628 20.4167 16.9253 20.7357 16.9253C20.7654 16.9253 20.8025 16.9253 20.8321 16.9327C21.1882 16.9698 21.4331 17.2964 21.3886 17.66Z" fill="black"/>
<path d="M23.7187 17.4823C23.6964 17.6456 23.6148 17.794 23.4961 17.8979C23.37 18.0093 23.1993 18.0686 23.0139 18.0538C23.0064 18.0538 22.9916 18.0538 22.9842 18.0538C22.8951 18.0389 22.8061 18.0093 22.7319 17.9647C22.6132 17.8905 22.5168 17.7792 22.4648 17.6456C22.5316 17.7421 22.6429 17.8089 22.769 17.8237C22.7913 17.8237 22.8061 17.8237 22.8284 17.8237C23.0509 17.8237 23.2438 17.653 23.2735 17.4378C23.3032 17.1929 23.1326 16.9629 22.8877 16.9332C22.8655 16.9332 22.8506 16.9258 22.8284 16.9258C22.7097 16.9258 22.5984 16.9703 22.5168 17.0519C22.6429 16.8516 22.8729 16.7254 23.1251 16.7477C23.1326 16.7477 23.1474 16.7477 23.1548 16.7477C23.5183 16.7996 23.7706 17.1261 23.7187 17.4823Z" fill="black"/>
<path d="M25.9292 17.2968C25.9069 17.4675 25.8179 17.6085 25.6992 17.7124C25.5953 17.8014 25.4618 17.8534 25.3208 17.8608C25.2763 17.8682 25.2318 17.8608 25.1947 17.8534C25.1057 17.8385 25.0241 17.8163 24.9499 17.7718C24.846 17.7124 24.757 17.6159 24.6976 17.512C24.7644 17.5936 24.8683 17.653 24.9796 17.6679C25.0018 17.6679 25.0167 17.6753 25.0389 17.6753C25.2615 17.6753 25.4544 17.512 25.4841 17.2894C25.4989 17.1706 25.4692 17.0519 25.395 16.9554C25.3208 16.859 25.217 16.7996 25.0983 16.7847C25.076 16.7847 25.0612 16.7773 25.0389 16.7773C24.8905 16.7773 24.7496 16.8515 24.668 16.9703C24.757 16.7328 24.987 16.5695 25.2466 16.5547C25.2837 16.5547 25.3208 16.5547 25.3579 16.5621C25.7215 16.6066 25.9737 16.9406 25.9292 17.2968Z" fill="black"/>
<path d="M28.096 17.1702C28.0811 17.3112 28.0144 17.43 27.9253 17.5265C27.8066 17.66 27.6286 17.7417 27.4357 17.7342C27.4134 17.7342 27.3838 17.7342 27.3615 17.7268C27.2428 17.712 27.1389 17.6675 27.0499 17.5932C26.9312 17.5042 26.8496 17.3706 26.8125 17.2296C26.8719 17.378 27.0054 17.4819 27.1686 17.5042C27.1909 17.5042 27.2057 17.5116 27.228 17.5116C27.4505 17.5116 27.6434 17.3409 27.6731 17.1257C27.7028 16.8808 27.5321 16.6508 27.2873 16.6211C27.2651 16.6211 27.2502 16.6137 27.228 16.6137C27.0573 16.6137 26.9164 16.7101 26.8348 16.8437C26.9386 16.5691 27.2131 16.391 27.5173 16.4207C27.5247 16.4207 27.5321 16.4207 27.5321 16.4207C27.8883 16.4801 28.1405 16.8066 28.096 17.1702Z" fill="black"/>
<path d="M20.7284 16.9179C20.6913 16.9104 20.6616 16.903 20.6245 16.8956C20.5948 16.8882 20.5651 16.8882 20.528 16.8882C20.3871 16.8882 20.2535 16.9327 20.1423 17.0069C20.1274 17.0143 20.1052 17.0292 20.0903 17.044C20.0681 17.0663 20.0458 17.0811 20.0235 17.1034C20.0161 17.1108 20.0087 17.1182 20.0013 17.1257C19.9865 17.1405 19.979 17.1553 19.9642 17.1702C19.9345 17.2147 19.9048 17.2592 19.8826 17.3112C19.8752 17.326 19.8678 17.3483 19.8603 17.3631C19.8529 17.3854 19.8455 17.4077 19.8455 17.4225C19.8381 17.4448 19.8381 17.467 19.8307 17.4893C19.7936 17.7639 19.9197 18.0236 20.1348 18.1646C20.2239 18.224 20.3203 18.2611 20.4316 18.2759C20.4613 18.2759 20.4909 18.2834 20.528 18.2834C20.6319 18.2834 20.7358 18.2611 20.8248 18.2166C20.8545 18.2017 20.8842 18.1869 20.9064 18.172C20.9212 18.1572 20.9435 18.1498 20.9583 18.1349C20.9658 18.1275 20.9732 18.1201 20.9806 18.1127C20.988 18.1053 20.9954 18.1053 20.9954 18.0978C21.0029 18.0904 21.0103 18.083 21.0251 18.0681C21.04 18.0533 21.0548 18.0385 21.0696 18.0236C21.0845 18.0088 21.0919 17.9939 21.1067 17.9717C21.1216 17.9568 21.129 17.9346 21.1364 17.9197C21.1438 17.9049 21.1587 17.8826 21.1661 17.8604C21.1735 17.8381 21.1809 17.8232 21.1883 17.801C21.1958 17.7787 21.2032 17.7639 21.2032 17.7416C21.2106 17.7194 21.2106 17.6971 21.218 17.6748C21.2699 17.3335 21.0548 17.0143 20.7284 16.9179ZM20.0903 17.5116C20.1274 17.2963 20.3129 17.1405 20.528 17.1405C20.5503 17.1405 20.5651 17.1405 20.5874 17.1479C20.8322 17.1776 21.0029 17.4077 20.9732 17.6526C20.9435 17.8752 20.7506 18.0385 20.528 18.0385C20.5058 18.0385 20.4835 18.0385 20.4687 18.031C20.2981 18.0088 20.1571 17.89 20.1052 17.7342C20.0903 17.6674 20.0829 17.5932 20.0903 17.5116Z" fill="white"/>
<path d="M20.7284 16.9179C20.6913 16.9104 20.6616 16.903 20.6245 16.8956C20.5948 16.8882 20.5651 16.8882 20.528 16.8882C20.3871 16.8882 20.2535 16.9327 20.1423 17.0069C20.1274 17.0143 20.1052 17.0292 20.0903 17.044C20.0681 17.0663 20.0458 17.0811 20.0235 17.1034C20.0161 17.1108 20.0087 17.1182 20.0013 17.1257C19.9865 17.1405 19.979 17.1553 19.9642 17.1702C19.9345 17.2147 19.9048 17.2592 19.8826 17.3112C19.8752 17.326 19.8678 17.3483 19.8603 17.3631C19.8529 17.3854 19.8455 17.4077 19.8455 17.4225C19.8381 17.4448 19.8381 17.467 19.8307 17.4893C19.7936 17.7639 19.9197 18.0236 20.1348 18.1646C20.2239 18.224 20.3203 18.2611 20.4316 18.2759C20.4613 18.2759 20.4909 18.2834 20.528 18.2834C20.6319 18.2834 20.7358 18.2611 20.8248 18.2166C20.8545 18.2017 20.8842 18.1869 20.9064 18.172C20.9212 18.1572 20.9435 18.1498 20.9583 18.1349C20.9658 18.1275 20.9732 18.1201 20.9806 18.1127C20.988 18.1053 20.9954 18.1053 20.9954 18.0978C21.0029 18.0904 21.0177 18.083 21.0251 18.0681C21.04 18.0533 21.0548 18.0385 21.0696 18.0236C21.0845 18.0088 21.0919 17.9939 21.1067 17.9717C21.1216 17.9568 21.129 17.9346 21.1364 17.9197C21.1438 17.9049 21.1587 17.8826 21.1661 17.8604C21.1735 17.8381 21.1809 17.8232 21.1883 17.801C21.1958 17.7787 21.2032 17.7639 21.2032 17.7416C21.2106 17.7194 21.2106 17.6971 21.218 17.6748C21.2699 17.3335 21.0548 17.0143 20.7284 16.9179ZM20.0829 17.5264C20.0829 17.519 20.0829 17.5116 20.0829 17.5116C20.12 17.2963 20.3055 17.1405 20.5206 17.1405C20.5429 17.1405 20.5577 17.1405 20.58 17.1479C20.8248 17.1776 20.9954 17.4077 20.9658 17.6526C20.9361 17.8752 20.7432 18.0385 20.5206 18.0385C20.4984 18.0385 20.4761 18.0385 20.4613 18.031C20.2906 18.0088 20.1497 17.89 20.0977 17.7342C20.0829 17.6748 20.0755 17.6006 20.0829 17.5264Z" fill="black"/>
<path d="M23.5035 17.2148C23.5035 17.2074 23.496 17.1925 23.496 17.1851C23.496 17.1777 23.4886 17.1703 23.4886 17.1628C23.4812 17.1406 23.4738 17.1183 23.4664 17.0961C23.4664 17.0886 23.4589 17.0812 23.4515 17.0664C23.4441 17.0515 23.4367 17.0293 23.4219 17.0144C23.4144 17.007 23.4144 16.9996 23.407 16.9847C23.3996 16.9773 23.3996 16.9699 23.3922 16.9625C23.3848 16.9551 23.3773 16.9476 23.3773 16.9402C23.3625 16.9254 23.3477 16.9031 23.3328 16.8883C23.3106 16.866 23.2957 16.8512 23.2735 16.8363C23.2586 16.8215 23.2364 16.8066 23.2215 16.7992C23.1993 16.7844 23.1696 16.7695 23.1473 16.7547H23.1399C23.1103 16.7398 23.0732 16.725 23.0435 16.7176C23.0286 16.7102 23.0138 16.7102 22.999 16.7102C22.9915 16.7102 22.9915 16.7102 22.9841 16.7102C22.9693 16.7102 22.9545 16.7027 22.9322 16.7027C22.9174 16.7027 22.9025 16.6953 22.8877 16.6953C22.8728 16.6953 22.8654 16.6953 22.8506 16.6953C22.8135 16.6953 22.7764 16.6953 22.7467 16.7027C22.7393 16.7027 22.7245 16.7027 22.717 16.7102C22.717 16.7102 22.7096 16.7102 22.7022 16.7102H22.6948C22.6874 16.7102 22.68 16.7176 22.6651 16.7176C22.6503 16.725 22.6354 16.725 22.6206 16.7324C22.5687 16.7473 22.5242 16.7695 22.4796 16.7992C22.4722 16.8066 22.4648 16.8066 22.45 16.8141C22.4351 16.8215 22.4129 16.8363 22.398 16.8512C22.3906 16.8586 22.3832 16.866 22.3758 16.8734C22.3609 16.8883 22.3461 16.9031 22.3313 16.9179C22.3238 16.9254 22.3164 16.9328 22.309 16.9402C22.2942 16.9551 22.2867 16.9699 22.2719 16.9847C22.2422 17.0293 22.2126 17.0738 22.1977 17.1183C22.1903 17.1406 22.1829 17.1554 22.1755 17.1777C22.168 17.2 22.1606 17.2222 22.1606 17.2371C22.1532 17.2593 22.1532 17.2816 22.1458 17.3038C22.1309 17.3855 22.1384 17.4671 22.1532 17.5413C22.1532 17.5487 22.1606 17.5636 22.1606 17.5784C22.168 17.5933 22.168 17.6155 22.1755 17.6304C22.1829 17.6452 22.1829 17.6601 22.1903 17.6749V17.6823C22.1977 17.7046 22.2126 17.7343 22.2274 17.7565C22.2274 17.7565 22.2274 17.764 22.2348 17.764C22.2496 17.7862 22.2645 17.8085 22.2793 17.8308C22.2867 17.8456 22.3016 17.853 22.309 17.8679C22.3387 17.8975 22.3684 17.9272 22.398 17.9495C22.4203 17.9718 22.45 17.9866 22.4796 18.0089C22.4796 18.0089 22.4796 18.0089 22.4871 18.0163C22.539 18.046 22.5983 18.0756 22.6651 18.0905C22.6725 18.0905 22.6799 18.0979 22.6874 18.0979C22.7096 18.1053 22.7319 18.1053 22.7541 18.1128C22.769 18.1128 22.7838 18.1128 22.7912 18.1202C22.7987 18.1202 22.8061 18.1202 22.8135 18.1202C22.8209 18.1202 22.8283 18.1202 22.8283 18.1202H22.8506C22.858 18.1202 22.858 18.1202 22.8654 18.1202C22.8728 18.1202 22.8803 18.1202 22.8877 18.1202C22.8951 18.1202 22.9025 18.1202 22.9099 18.1202C22.9248 18.1202 22.9396 18.1202 22.947 18.1128C22.9619 18.1128 22.9767 18.1053 22.9915 18.1053C22.999 18.1053 22.999 18.1053 23.0064 18.0979C23.0064 18.0979 23.0064 18.0979 23.0138 18.0979H23.0212C23.0435 18.0905 23.0583 18.0831 23.0806 18.0756C23.0954 18.0682 23.1177 18.0608 23.1399 18.0534C23.1473 18.046 23.1548 18.046 23.1696 18.0385C23.1844 18.0311 23.2067 18.0163 23.2215 18.0089C23.2438 17.994 23.266 17.9792 23.2809 17.9643C23.2883 17.9569 23.2883 17.9569 23.2957 17.9569C23.3106 17.9421 23.3254 17.9272 23.3402 17.9124C23.3477 17.905 23.3551 17.8975 23.3625 17.8901C23.3699 17.8827 23.3773 17.8753 23.3848 17.8679C23.3996 17.853 23.407 17.8382 23.4219 17.8159C23.4367 17.8011 23.4441 17.7788 23.4515 17.764C23.4589 17.7491 23.4738 17.7269 23.4812 17.7046C23.4886 17.6823 23.496 17.6675 23.5035 17.6452C23.5109 17.623 23.5183 17.6007 23.5183 17.5859C23.5257 17.5636 23.5257 17.5413 23.5331 17.5191C23.5331 17.5042 23.5331 17.4968 23.5331 17.482C23.5331 17.4745 23.5331 17.4671 23.5331 17.4597V17.4523C23.5257 17.341 23.5183 17.2742 23.5035 17.2148ZM23.2661 17.4374C23.2364 17.6601 23.0435 17.8233 22.8209 17.8233C22.7987 17.8233 22.7838 17.8233 22.7616 17.8233C22.6354 17.8085 22.5316 17.7417 22.4574 17.6452C22.3906 17.5562 22.3535 17.4374 22.3758 17.3187C22.3906 17.2148 22.4425 17.1183 22.5093 17.0515C22.5909 16.9773 22.7022 16.9254 22.8209 16.9254C22.8432 16.9254 22.858 16.9254 22.8803 16.9328C23.1251 16.9625 23.3031 17.1925 23.2661 17.4374Z" fill="white"/>
<path d="M23.5035 17.2148C23.5035 17.2074 23.496 17.1925 23.496 17.1851C23.496 17.1777 23.4886 17.1703 23.4886 17.1628C23.4812 17.1406 23.4738 17.1183 23.4664 17.0961C23.4664 17.0886 23.4589 17.0812 23.4515 17.0664C23.4441 17.0515 23.4367 17.0293 23.4219 17.0144C23.4144 17.007 23.4144 16.9996 23.407 16.9847C23.3996 16.9773 23.3996 16.9699 23.3922 16.9625C23.3848 16.9551 23.3773 16.9476 23.3773 16.9402C23.3625 16.9254 23.3477 16.9031 23.3328 16.8883C23.3106 16.866 23.2957 16.8512 23.2735 16.8363C23.2586 16.8215 23.2364 16.8066 23.2215 16.7992C23.1993 16.7844 23.1696 16.7695 23.1473 16.7547H23.1399C23.1103 16.7398 23.0732 16.725 23.0435 16.7176C23.0286 16.7102 23.0138 16.7102 22.999 16.7102C22.9915 16.7102 22.9915 16.7102 22.9841 16.7102C22.9693 16.7102 22.9545 16.7027 22.9322 16.7027C22.9174 16.7027 22.9025 16.6953 22.8877 16.6953C22.8728 16.6953 22.8654 16.6953 22.8506 16.6953H22.8432C22.8135 16.6953 22.7764 16.6953 22.7467 16.7027C22.7393 16.7027 22.7245 16.7027 22.717 16.7102C22.717 16.7102 22.7096 16.7102 22.7022 16.7102H22.6948C22.6874 16.7102 22.68 16.7176 22.6651 16.7176C22.6503 16.725 22.6354 16.725 22.6206 16.7324C22.5687 16.7473 22.5242 16.7695 22.4796 16.7992C22.4722 16.8066 22.4648 16.8066 22.45 16.8141C22.4351 16.8215 22.4129 16.8363 22.398 16.8512C22.3906 16.8586 22.3832 16.866 22.3758 16.8734C22.3609 16.8883 22.3461 16.9031 22.3313 16.9179C22.3238 16.9254 22.3164 16.9328 22.309 16.9402C22.2942 16.9551 22.2867 16.9699 22.2719 16.9847C22.2422 17.0293 22.2126 17.0738 22.1977 17.1183C22.1903 17.1406 22.1829 17.1554 22.1755 17.1777C22.168 17.2 22.1606 17.2222 22.1606 17.2371C22.1532 17.2593 22.1532 17.2816 22.1458 17.3038C22.1309 17.3855 22.1384 17.4671 22.1532 17.5413C22.1532 17.5487 22.1606 17.5636 22.1606 17.5784C22.168 17.5933 22.168 17.6155 22.1755 17.6304C22.1829 17.6452 22.1829 17.6601 22.1903 17.6749V17.6823C22.1977 17.7046 22.2126 17.7343 22.2274 17.7565C22.2274 17.7565 22.2274 17.764 22.2348 17.764C22.2496 17.7862 22.2645 17.8085 22.2793 17.8308C22.2867 17.8456 22.3016 17.853 22.309 17.8679C22.3387 17.8975 22.3684 17.9272 22.398 17.9495C22.4203 17.9718 22.45 17.9866 22.4796 18.0089C22.4796 18.0089 22.4796 18.0089 22.4871 18.0163C22.539 18.046 22.5983 18.0756 22.6651 18.0905C22.6725 18.0905 22.6799 18.0979 22.6874 18.0979C22.7096 18.1053 22.7319 18.1053 22.7541 18.1128C22.769 18.1128 22.7838 18.1128 22.7912 18.1202C22.7987 18.1202 22.8061 18.1202 22.8135 18.1202C22.8209 18.1202 22.8283 18.1202 22.8283 18.1202C22.8358 18.1202 22.8357 18.1202 22.8432 18.1202C22.8506 18.1202 22.8506 18.1202 22.858 18.1202C22.8654 18.1202 22.8654 18.1202 22.8728 18.1202C22.8803 18.1202 22.8877 18.1202 22.8951 18.1202C22.9025 18.1202 22.9099 18.1202 22.9174 18.1202C22.9322 18.1202 22.947 18.1202 22.9545 18.1128C22.9693 18.1128 22.9841 18.1053 22.999 18.1053C23.0064 18.1053 23.0064 18.1053 23.0138 18.0979C23.0138 18.0979 23.0138 18.0979 23.0212 18.0979H23.0286C23.0509 18.0905 23.0657 18.0831 23.088 18.0756C23.1028 18.0682 23.1251 18.0608 23.1473 18.0534C23.1548 18.046 23.1622 18.046 23.177 18.0385C23.1919 18.0311 23.2141 18.0163 23.229 18.0089C23.2512 17.994 23.2735 17.9792 23.2883 17.9643C23.2957 17.9569 23.2957 17.9569 23.3031 17.9569C23.318 17.9421 23.3328 17.9272 23.3477 17.9124C23.3551 17.905 23.3625 17.8975 23.3699 17.8901C23.3773 17.8827 23.3848 17.8753 23.3922 17.8679C23.407 17.853 23.4144 17.8382 23.4293 17.8159C23.4441 17.8011 23.4515 17.7788 23.4589 17.764C23.4664 17.7491 23.4812 17.7269 23.4886 17.7046C23.496 17.6823 23.5035 17.6675 23.5109 17.6452C23.5183 17.623 23.5257 17.6007 23.5257 17.5859C23.5331 17.5636 23.5331 17.5413 23.5406 17.5191C23.5406 17.5042 23.5406 17.4968 23.5406 17.482C23.5406 17.4745 23.5406 17.4671 23.5406 17.4597V17.4523C23.5257 17.341 23.5183 17.2742 23.5035 17.2148ZM23.2661 17.4374C23.2364 17.6601 23.0435 17.8233 22.8209 17.8233C22.7987 17.8233 22.7838 17.8233 22.7616 17.8233C22.6354 17.8085 22.5316 17.7417 22.4574 17.6452C22.3906 17.5562 22.3535 17.4374 22.3758 17.3187C22.3906 17.2148 22.4425 17.1183 22.5093 17.0515C22.5909 16.9773 22.7022 16.9254 22.8209 16.9254C22.8432 16.9254 22.858 16.9254 22.8803 16.9328C23.1251 16.9625 23.3031 17.1925 23.2661 17.4374Z" fill="black"/>
<path d="M25.7367 17.1927C25.7367 17.1779 25.7367 17.163 25.7367 17.1556C25.7367 17.1482 25.7367 17.1408 25.7367 17.1333C25.7367 17.1259 25.7367 17.1111 25.7292 17.1037C25.7292 17.0962 25.7292 17.0814 25.7218 17.074C25.7218 17.0666 25.7144 17.0517 25.7144 17.0443C25.7144 17.0369 25.7144 17.0294 25.707 17.022C25.707 17.0072 25.6996 16.9923 25.6921 16.9849C25.6921 16.9775 25.6847 16.9627 25.6773 16.9552C25.6773 16.9478 25.6699 16.9404 25.6699 16.933C25.6625 16.9107 25.6476 16.8884 25.6402 16.8736C25.6328 16.8662 25.6328 16.8588 25.6254 16.8513C25.6105 16.8217 25.5883 16.7994 25.566 16.7771C25.5586 16.7623 25.5438 16.7549 25.5364 16.74C25.5215 16.7252 25.5141 16.7178 25.4993 16.7029C25.4844 16.6955 25.477 16.6806 25.4622 16.6732C25.4622 16.6732 25.4622 16.6732 25.4547 16.6658C25.4547 16.6658 25.4547 16.6658 25.4473 16.6658C25.4325 16.6584 25.4251 16.651 25.4102 16.6361C25.3954 16.6287 25.3806 16.6213 25.3657 16.6139C25.3509 16.6064 25.3286 16.599 25.3138 16.5916C25.3064 16.5842 25.2915 16.5842 25.2841 16.5768C25.2767 16.5768 25.2693 16.5693 25.2618 16.5693C25.2544 16.5693 25.247 16.5619 25.2396 16.5619C25.2322 16.5619 25.2173 16.5545 25.2099 16.5545C25.2025 16.5545 25.1951 16.5471 25.1877 16.5471C25.1728 16.5396 25.158 16.5396 25.1431 16.5396C25.1135 16.5322 25.0838 16.5322 25.0467 16.5322C25.0319 16.5322 25.0096 16.5322 24.9948 16.5322C24.9799 16.5322 24.9651 16.5322 24.9577 16.5396C24.9577 16.5396 24.9577 16.5396 24.9503 16.5396C24.9428 16.5396 24.928 16.5396 24.9206 16.5471C24.8909 16.5545 24.8686 16.5545 24.839 16.5693C24.8241 16.5768 24.8093 16.5768 24.8019 16.5842H24.7945C24.7796 16.5916 24.7648 16.599 24.7499 16.6064C24.7425 16.6064 24.7351 16.6139 24.7277 16.6139C24.7203 16.6213 24.7128 16.6213 24.7054 16.6287C24.6906 16.6361 24.6757 16.6435 24.6609 16.6584C24.6461 16.6658 24.6238 16.6806 24.609 16.6955C24.5867 16.7178 24.5645 16.7326 24.5422 16.7549C24.5348 16.7623 24.5274 16.7697 24.52 16.7771C24.5051 16.792 24.4977 16.8068 24.4829 16.8217C24.4532 16.8662 24.4235 16.9107 24.4012 16.9552C24.3938 16.9775 24.3864 16.9923 24.379 17.0146C24.3716 17.0369 24.3642 17.0517 24.3642 17.074C24.3567 17.0962 24.3567 17.1185 24.3493 17.1408C24.3419 17.1927 24.3419 17.2521 24.3493 17.304C24.3493 17.3114 24.3493 17.3189 24.3493 17.3263C24.3493 17.3411 24.3567 17.3634 24.3567 17.3782C24.3642 17.4005 24.3716 17.4228 24.379 17.445C24.3864 17.4599 24.3864 17.4747 24.3938 17.4896C24.3938 17.497 24.4012 17.5044 24.4012 17.5044C24.4087 17.5192 24.4161 17.5341 24.4161 17.5415C24.4309 17.5638 24.4383 17.586 24.4532 17.6083C24.468 17.638 24.4903 17.6602 24.5125 17.6825C24.5199 17.6973 24.5348 17.7048 24.5422 17.7122C24.5496 17.727 24.5645 17.7345 24.5719 17.7419C24.5793 17.7493 24.5941 17.7567 24.6016 17.7716C24.6164 17.779 24.6238 17.7864 24.6387 17.8012C24.6609 17.8161 24.6832 17.8309 24.7128 17.8458C24.7203 17.8532 24.7277 17.8532 24.7425 17.8606C24.7574 17.868 24.7722 17.8755 24.787 17.8755C24.7945 17.8755 24.8019 17.8829 24.8019 17.8829C24.8167 17.8903 24.8315 17.8903 24.8464 17.8977C24.8538 17.8977 24.8686 17.9051 24.8761 17.9051C24.8983 17.9126 24.9206 17.9126 24.9428 17.92C24.9725 17.9274 25.0022 17.9274 25.0393 17.9274C25.069 17.9274 25.106 17.9274 25.1357 17.92C25.1431 17.92 25.158 17.92 25.1654 17.9126C25.1728 17.9126 25.1802 17.9126 25.1877 17.9051C25.1951 17.9051 25.2025 17.8977 25.2173 17.8977C25.2544 17.8903 25.2841 17.8755 25.3212 17.8606C25.3212 17.8606 25.3212 17.8606 25.3286 17.8606C25.3435 17.8532 25.3583 17.8458 25.3806 17.8384C25.3954 17.8309 25.4176 17.8161 25.4325 17.8087C25.4473 17.7938 25.4696 17.7864 25.4844 17.7716C25.4918 17.7641 25.4993 17.7567 25.5067 17.7493C25.5141 17.7419 25.5215 17.7345 25.5289 17.727C25.5364 17.7196 25.5438 17.7122 25.5438 17.7122C25.5512 17.7048 25.5586 17.6899 25.5734 17.6825C25.5809 17.6751 25.5883 17.6602 25.5957 17.6528C25.6031 17.638 25.6105 17.6306 25.6254 17.6157C25.6402 17.6009 25.6476 17.5786 25.6551 17.5638C25.6625 17.5489 25.6699 17.5341 25.6773 17.5192V17.5118V17.5044C25.6773 17.497 25.6847 17.4896 25.6847 17.4821C25.6922 17.4747 25.6922 17.4599 25.6996 17.4525C25.707 17.4302 25.7144 17.4079 25.7144 17.3931C25.7218 17.3708 25.7218 17.3486 25.7292 17.3263C25.7292 17.3114 25.7292 17.2966 25.7367 17.2818C25.7367 17.2669 25.7367 17.2595 25.7367 17.2447C25.7367 17.2224 25.7367 17.2076 25.7367 17.1927ZM24.5941 17.163C24.6016 17.0888 24.6312 17.022 24.6683 16.9701C24.7499 16.8513 24.8835 16.7771 25.0393 16.7771C25.0615 16.7771 25.0764 16.7771 25.0986 16.7845C25.2173 16.7994 25.3212 16.8588 25.3954 16.9552C25.4696 17.0517 25.4993 17.1704 25.4844 17.2892C25.4547 17.5118 25.2618 17.6751 25.0393 17.6751C25.017 17.6751 25.0022 17.6751 24.9799 17.6677C24.8686 17.6528 24.7648 17.5935 24.698 17.5118C24.6164 17.4228 24.5793 17.2966 24.5941 17.163Z" fill="white"/>
<path d="M25.7367 17.1927C25.7367 17.1779 25.7367 17.163 25.7367 17.1556C25.7367 17.1482 25.7367 17.1408 25.7367 17.1333C25.7367 17.1259 25.7367 17.1111 25.7292 17.1037C25.7292 17.0962 25.7292 17.0814 25.7218 17.074C25.7218 17.0666 25.7144 17.0517 25.7144 17.0443C25.7144 17.0369 25.7144 17.0294 25.707 17.022C25.707 17.0072 25.6996 16.9923 25.6921 16.9849C25.6921 16.9775 25.6847 16.9627 25.6773 16.9552C25.6773 16.9478 25.6699 16.9404 25.6699 16.933C25.6625 16.9107 25.6476 16.8884 25.6402 16.8736C25.6328 16.8662 25.6328 16.8588 25.6254 16.8513C25.6105 16.8217 25.5883 16.7994 25.566 16.7771C25.5586 16.7623 25.5438 16.7549 25.5364 16.74C25.5215 16.7252 25.5141 16.7178 25.4993 16.7029C25.4844 16.6955 25.477 16.6806 25.4622 16.6732C25.4622 16.6732 25.4622 16.6732 25.4547 16.6658C25.4547 16.6658 25.4547 16.6658 25.4473 16.6658C25.4325 16.6584 25.4251 16.651 25.4102 16.6361C25.3954 16.6287 25.3806 16.6213 25.3657 16.6139C25.3509 16.6064 25.3286 16.599 25.3138 16.5916C25.3064 16.5842 25.2915 16.5842 25.2841 16.5768C25.2767 16.5768 25.2693 16.5693 25.2618 16.5693C25.2544 16.5693 25.247 16.5619 25.2396 16.5619C25.2322 16.5619 25.2173 16.5545 25.2099 16.5545C25.2025 16.5545 25.1951 16.5471 25.1877 16.5471C25.1728 16.5396 25.158 16.5396 25.1431 16.5396C25.1135 16.5322 25.0838 16.5322 25.0467 16.5322C25.0319 16.5322 25.0096 16.5322 24.9948 16.5322C24.9799 16.5322 24.9651 16.5322 24.9577 16.5396C24.9577 16.5396 24.9577 16.5396 24.9503 16.5396C24.9428 16.5396 24.928 16.5396 24.9206 16.5471C24.8909 16.5545 24.8686 16.5545 24.839 16.5693C24.8241 16.5768 24.8093 16.5768 24.8019 16.5842H24.7945C24.7796 16.5916 24.7648 16.599 24.7499 16.6064C24.7425 16.6064 24.7351 16.6139 24.7277 16.6139C24.7203 16.6213 24.7128 16.6213 24.7054 16.6287C24.6906 16.6361 24.6757 16.6435 24.6609 16.6584C24.6461 16.6658 24.6238 16.6806 24.609 16.6955C24.5867 16.7178 24.5645 16.7326 24.5422 16.7549C24.5348 16.7623 24.5274 16.7697 24.52 16.7771C24.5051 16.792 24.4977 16.8068 24.4829 16.8217C24.4532 16.8662 24.4235 16.9107 24.4012 16.9552C24.3938 16.9775 24.3864 16.9923 24.379 17.0146C24.3716 17.0369 24.3642 17.0517 24.3642 17.074C24.3567 17.0962 24.3567 17.1185 24.3493 17.1408C24.3419 17.1927 24.3419 17.2521 24.3493 17.304C24.3493 17.3114 24.3493 17.3189 24.3493 17.3263C24.3493 17.3411 24.3567 17.3634 24.3567 17.3782C24.3642 17.4005 24.3716 17.4228 24.379 17.445C24.3864 17.4599 24.3864 17.4747 24.3938 17.4896C24.3938 17.497 24.4012 17.5044 24.4012 17.5044C24.4087 17.5192 24.4161 17.5341 24.4161 17.5415C24.4309 17.5638 24.4383 17.586 24.4532 17.6083C24.468 17.638 24.4903 17.6602 24.5125 17.6825C24.5199 17.6973 24.5348 17.7048 24.5422 17.7122C24.5496 17.727 24.5645 17.7345 24.5719 17.7419C24.5793 17.7493 24.5941 17.7567 24.6016 17.7716C24.6164 17.779 24.6238 17.7864 24.6387 17.8012C24.6609 17.8161 24.6832 17.8309 24.7128 17.8458C24.7203 17.8532 24.7277 17.8532 24.7425 17.8606C24.7574 17.868 24.7722 17.8755 24.787 17.8755C24.7945 17.8755 24.8019 17.8829 24.8019 17.8829C24.8167 17.8903 24.8315 17.8903 24.8464 17.8977C24.8538 17.8977 24.8686 17.9051 24.8761 17.9051C24.8983 17.9126 24.9206 17.9126 24.9428 17.92C24.9725 17.9274 25.0022 17.9274 25.0393 17.9274C25.069 17.9274 25.106 17.9274 25.1357 17.92C25.1431 17.92 25.158 17.92 25.1654 17.9126C25.1728 17.9126 25.1802 17.9126 25.1877 17.9051C25.1951 17.9051 25.2025 17.8977 25.2173 17.8977C25.2544 17.8903 25.2841 17.8755 25.3212 17.8606C25.3212 17.8606 25.3212 17.8606 25.3286 17.8606C25.3435 17.8532 25.3583 17.8458 25.3806 17.8384C25.3954 17.8309 25.4176 17.8161 25.4325 17.8087C25.4473 17.7938 25.4696 17.7864 25.4844 17.7716C25.4918 17.7641 25.4993 17.7567 25.5067 17.7493C25.5141 17.7419 25.5215 17.7345 25.5289 17.727C25.5364 17.7196 25.5438 17.7122 25.5438 17.7122C25.5512 17.7048 25.5586 17.6899 25.5734 17.6825C25.5809 17.6751 25.5883 17.6602 25.5957 17.6528C25.6031 17.638 25.6105 17.6306 25.6254 17.6157C25.6402 17.6009 25.6476 17.5786 25.6551 17.5638C25.6625 17.5489 25.6699 17.5341 25.6773 17.5192V17.5118V17.5044C25.6773 17.497 25.6847 17.4896 25.6847 17.4821C25.6922 17.4747 25.6922 17.4599 25.6996 17.4525C25.707 17.4302 25.7144 17.4079 25.7144 17.3931C25.7218 17.3708 25.7218 17.3486 25.7292 17.3263C25.7292 17.3114 25.7292 17.2966 25.7367 17.2818C25.7367 17.2743 25.7367 17.2743 25.7367 17.2669V17.2521C25.7367 17.2224 25.7367 17.2076 25.7367 17.1927ZM24.5941 17.163C24.6016 17.0888 24.6312 17.022 24.6683 16.9701C24.7499 16.8513 24.8835 16.7771 25.0393 16.7771C25.0615 16.7771 25.0764 16.7771 25.0986 16.7845C25.2173 16.7994 25.3212 16.8588 25.3954 16.9552C25.4696 17.0517 25.4993 17.1704 25.4844 17.2892C25.4547 17.5118 25.2618 17.6751 25.0393 17.6751C25.017 17.6751 25.0022 17.6751 24.9799 17.6677C24.8686 17.6528 24.7648 17.5935 24.698 17.5118C24.6164 17.4228 24.5793 17.2966 24.5941 17.163Z" fill="black"/>
<path d="M27.9241 17.0143C27.9241 16.9995 27.9241 16.9846 27.9167 16.9698C27.9092 16.9327 27.9018 16.8956 27.8944 16.8584C27.8944 16.8436 27.887 16.8288 27.8796 16.8139C27.8721 16.7917 27.8647 16.7768 27.8573 16.7546C27.8499 16.7397 27.8425 16.7323 27.8425 16.7174C27.8276 16.6952 27.8128 16.6655 27.798 16.6432C27.7905 16.6358 27.7831 16.6284 27.7831 16.621C27.7683 16.6061 27.7609 16.5913 27.746 16.5839C27.7312 16.569 27.7238 16.5542 27.7089 16.5468C27.7015 16.5393 27.6867 16.5319 27.6793 16.5171C27.6793 16.5171 27.6793 16.5171 27.6718 16.5171C27.6644 16.5097 27.657 16.5097 27.6496 16.5022L27.6422 16.4948C27.6347 16.4874 27.6273 16.4874 27.6199 16.48C27.6125 16.4725 27.6051 16.4725 27.5976 16.4651C27.5754 16.4503 27.5531 16.4429 27.5309 16.428C27.5309 16.428 27.5235 16.428 27.5235 16.4206H27.516C27.5012 16.4132 27.4938 16.4132 27.4789 16.4058C27.4715 16.4058 27.4641 16.3983 27.4567 16.3983C27.4344 16.3909 27.4196 16.3835 27.3973 16.3835C27.3899 16.3835 27.3825 16.3761 27.3751 16.3761H27.3677H27.3602C27.3528 16.3761 27.3454 16.3761 27.338 16.3761C27.3231 16.3761 27.3083 16.3687 27.2935 16.3687C27.2786 16.3687 27.2712 16.3687 27.2564 16.3687C27.2341 16.3687 27.2044 16.3687 27.1822 16.3687C27.1673 16.3687 27.1599 16.3687 27.1525 16.3687C27.1451 16.3687 27.1377 16.3687 27.1302 16.3761C27.1228 16.3761 27.1154 16.3761 27.1154 16.3761H27.108C27.1006 16.3761 27.0932 16.3835 27.0857 16.3835C27.0783 16.3835 27.0709 16.3835 27.0709 16.3909C27.0635 16.3909 27.0486 16.3983 27.0412 16.3983C27.019 16.4058 27.0041 16.4132 26.9819 16.4206C26.9745 16.4206 26.967 16.428 26.9522 16.4354C26.9374 16.4429 26.9151 16.4577 26.9003 16.4651C26.8928 16.4725 26.8854 16.4725 26.878 16.48C26.8632 16.4874 26.8409 16.5022 26.8261 16.5171C26.8187 16.5245 26.8112 16.5319 26.8038 16.5393C26.789 16.5542 26.7741 16.569 26.7593 16.5839C26.7445 16.5987 26.7296 16.6136 26.7222 16.6284C26.7074 16.6432 26.6999 16.6581 26.6851 16.6803C26.6703 16.6952 26.6629 16.7174 26.6554 16.7323C26.648 16.7471 26.6332 16.7694 26.6258 16.7917C26.6183 16.8139 26.6109 16.8288 26.6035 16.851C26.5961 16.8733 26.5887 16.8956 26.5887 16.9104C26.5812 16.9327 26.5812 16.9549 26.5738 16.9772C26.5664 17.0069 26.5664 17.0366 26.5664 17.0662C26.5664 17.0811 26.5664 17.0959 26.5664 17.1033C26.5664 17.1108 26.5664 17.1256 26.5664 17.133C26.5664 17.1405 26.5664 17.1479 26.5664 17.1627C26.5664 17.1701 26.5664 17.185 26.5738 17.1924C26.5738 17.2072 26.5812 17.2221 26.5812 17.2369C26.5812 17.2443 26.5812 17.2518 26.5887 17.2592V17.2666C26.5887 17.274 26.5961 17.2889 26.5961 17.2963C26.5961 17.3037 26.6035 17.3111 26.6035 17.3186C26.6035 17.326 26.6109 17.3334 26.6109 17.3482C26.6109 17.3557 26.6183 17.3557 26.6183 17.3631C26.6258 17.3779 26.6332 17.3928 26.6406 17.4002C26.648 17.4076 26.648 17.415 26.6554 17.4299C26.6629 17.4447 26.6777 17.467 26.6925 17.4818C26.6999 17.4892 26.7074 17.5041 26.7148 17.5115C26.7148 17.5115 26.7148 17.5115 26.7222 17.5189C26.7296 17.5264 26.7296 17.5338 26.737 17.5412C26.7519 17.556 26.7667 17.5783 26.789 17.5931C26.7964 17.6006 26.8112 17.6154 26.8261 17.6228L26.8335 17.6303C26.8335 17.6303 26.8335 17.6302 26.8409 17.6377C26.8483 17.6451 26.8557 17.6451 26.8632 17.6525C26.878 17.6599 26.8854 17.6674 26.9003 17.6748C26.9077 17.6822 26.9151 17.6822 26.9299 17.6896C26.9374 17.697 26.9448 17.697 26.9596 17.7045C26.9819 17.7193 27.0041 17.7267 27.0338 17.7341C27.0486 17.7416 27.0561 17.7416 27.0709 17.749C27.0783 17.749 27.0857 17.7564 27.0932 17.7564C27.1006 17.7564 27.108 17.7564 27.1154 17.7638C27.1228 17.7638 27.1377 17.7713 27.1451 17.7713C27.1525 17.7713 27.1673 17.7787 27.1748 17.7787C27.1896 17.7787 27.2044 17.7861 27.2193 17.7861C27.2341 17.7861 27.2415 17.7861 27.2564 17.7861H27.2786H27.286C27.2935 17.7861 27.3083 17.7861 27.3157 17.7861H27.3231C27.3306 17.7861 27.338 17.7861 27.3454 17.7861C27.3602 17.7861 27.3677 17.7861 27.3825 17.7787C27.3825 17.7787 27.3825 17.7787 27.3899 17.7787C27.4122 17.7713 27.427 17.7713 27.4493 17.7638C27.4493 17.7638 27.4493 17.7638 27.4567 17.7638H27.4641H27.4715C27.4715 17.7638 27.4715 17.7638 27.4789 17.7638C27.5309 17.749 27.5754 17.7267 27.6199 17.697C27.6273 17.6896 27.6347 17.6896 27.6422 17.6822C27.6496 17.6748 27.657 17.6748 27.6644 17.6674C27.6718 17.6599 27.6793 17.6525 27.6867 17.6525C27.6941 17.6451 27.7015 17.6377 27.7089 17.6303C27.7163 17.6228 27.7312 17.6154 27.7386 17.6006C27.746 17.5931 27.7534 17.5857 27.7683 17.5709C27.7757 17.5635 27.7757 17.556 27.7831 17.556C27.7905 17.5486 27.7905 17.5412 27.798 17.5412C27.8128 17.5264 27.8202 17.5115 27.8351 17.4892C27.8425 17.4744 27.8499 17.467 27.8573 17.4521C27.8647 17.4373 27.8721 17.4225 27.8796 17.4076C27.887 17.3928 27.8944 17.3779 27.9018 17.3631C27.9092 17.3482 27.9092 17.3334 27.9167 17.3186C27.9241 17.2963 27.9315 17.274 27.9315 17.2592C27.9389 17.2369 27.9389 17.2147 27.9463 17.1924C27.9538 17.1627 27.9538 17.133 27.9538 17.0959C27.9241 17.0514 27.9241 17.0366 27.9241 17.0143ZM26.7816 17.0069C26.789 16.9475 26.8038 16.903 26.8335 16.851C26.9077 16.71 27.0561 16.621 27.2267 16.621C27.249 16.621 27.2638 16.621 27.286 16.6284C27.5309 16.6581 27.7015 16.8881 27.6718 17.133C27.6422 17.3557 27.4493 17.5189 27.2267 17.5189C27.2044 17.5189 27.1896 17.5189 27.1673 17.5115C27.0041 17.4892 26.8706 17.3779 26.8112 17.2369C26.7816 17.1701 26.7667 17.0885 26.7816 17.0069Z" fill="white"/>
<path d="M27.9245 17.0143C27.9245 16.9995 27.9245 16.9846 27.917 16.9698C27.9096 16.9327 27.9022 16.8956 27.8948 16.8584C27.8948 16.8436 27.8874 16.8288 27.8799 16.8139C27.8725 16.7917 27.8651 16.7768 27.8577 16.7546C27.8503 16.7397 27.8428 16.7323 27.8428 16.7174C27.828 16.6952 27.8132 16.6655 27.7983 16.6432C27.7909 16.6358 27.7835 16.6284 27.7835 16.621C27.7687 16.6061 27.7612 16.5913 27.7464 16.5839C27.7316 16.569 27.7241 16.5542 27.7093 16.5468C27.7019 16.5393 27.6871 16.5319 27.6796 16.5171C27.6796 16.5171 27.6796 16.5171 27.6722 16.5171C27.6648 16.5097 27.6574 16.5097 27.65 16.5022L27.6425 16.4948C27.6351 16.4874 27.6277 16.4874 27.6203 16.48C27.6129 16.4725 27.6054 16.4725 27.598 16.4651C27.5758 16.4503 27.5535 16.4429 27.5313 16.428C27.5313 16.428 27.5238 16.428 27.5238 16.4206H27.5164C27.5016 16.4132 27.4942 16.4132 27.4793 16.4058C27.4719 16.4058 27.4645 16.3983 27.4571 16.3983C27.4348 16.3909 27.42 16.3835 27.3977 16.3835C27.3903 16.3835 27.3829 16.3761 27.3755 16.3761H27.368H27.3606C27.3532 16.3761 27.3458 16.3761 27.3384 16.3761C27.3235 16.3761 27.3087 16.3687 27.2938 16.3687C27.279 16.3687 27.2716 16.3687 27.2567 16.3687H27.2493C27.2271 16.3687 27.2048 16.3687 27.1826 16.3761H27.1529C27.1455 16.3761 27.138 16.3761 27.1232 16.3761C27.1158 16.3761 27.1084 16.3761 27.101 16.3835C27.0935 16.3835 27.0861 16.3835 27.0861 16.3835H27.0787C27.0713 16.3835 27.0639 16.3909 27.0564 16.3909C27.049 16.3909 27.0416 16.3909 27.0416 16.3983C27.0342 16.3983 27.0193 16.4058 27.0119 16.4058C26.9897 16.4132 26.9748 16.4206 26.9526 16.428C26.9452 16.428 26.9377 16.4354 26.9229 16.4429C26.9081 16.4503 26.8858 16.4651 26.871 16.4725C26.8635 16.48 26.8561 16.48 26.8487 16.4874C26.8339 16.4948 26.8116 16.5097 26.7968 16.5245C26.7894 16.5319 26.7819 16.5393 26.7745 16.5468C26.7597 16.5616 26.7448 16.5764 26.73 16.5913C26.7152 16.6061 26.7003 16.621 26.6929 16.6358C26.6781 16.6507 26.6706 16.6655 26.6558 16.6878C26.641 16.7026 26.6336 16.7249 26.6261 16.7397C26.6187 16.7546 26.6039 16.7768 26.5965 16.7991C26.589 16.8213 26.5816 16.8362 26.5742 16.8584C26.5668 16.8807 26.5594 16.903 26.5594 16.9178C26.5519 16.9401 26.5519 16.9623 26.5445 16.9846C26.5371 17.0143 26.5371 17.044 26.5371 17.0737C26.5371 17.0885 26.5371 17.1033 26.5371 17.1108C26.5371 17.1182 26.5371 17.133 26.5371 17.1405C26.5371 17.1479 26.5371 17.1553 26.5371 17.1701C26.5371 17.1776 26.5371 17.1924 26.5445 17.1998C26.5445 17.2147 26.5519 17.2295 26.5519 17.2443C26.5519 17.2518 26.5519 17.2592 26.5594 17.2666V17.274C26.5594 17.2815 26.5668 17.2963 26.5668 17.3037C26.5668 17.3111 26.5742 17.3186 26.5742 17.326C26.5742 17.3334 26.5816 17.3408 26.5816 17.3557C26.5816 17.3631 26.589 17.3631 26.589 17.3705C26.5965 17.3854 26.6039 17.4002 26.6113 17.4076C26.6187 17.415 26.6187 17.4225 26.6261 17.4373C26.6336 17.4521 26.6484 17.4744 26.6632 17.4892C26.6706 17.4967 26.6781 17.5115 26.6855 17.5189C26.6855 17.5189 26.6855 17.5189 26.6929 17.5264C26.7003 17.5338 26.7003 17.5412 26.7077 17.5486C26.7226 17.5635 26.7374 17.5857 26.7597 17.6006C26.7671 17.608 26.7819 17.6228 26.7968 17.6303L26.8042 17.6377C26.8042 17.6377 26.8042 17.6377 26.8116 17.6451C26.819 17.6525 26.8264 17.6525 26.8339 17.6599C26.8487 17.6674 26.8561 17.6748 26.871 17.6822C26.8784 17.6896 26.8858 17.6896 26.9006 17.697C26.9081 17.7045 26.9155 17.7045 26.9303 17.7119C26.9526 17.7267 26.9748 17.7341 27.0045 17.7416C27.0193 17.749 27.0268 17.749 27.0416 17.7564C27.049 17.7564 27.0564 17.7638 27.0639 17.7638C27.0713 17.7638 27.0787 17.7638 27.0861 17.7713C27.0935 17.7713 27.1084 17.7787 27.1158 17.7787C27.1232 17.7787 27.138 17.7861 27.1455 17.7861C27.1603 17.7861 27.1751 17.7935 27.19 17.7935C27.2048 17.7935 27.2122 17.7935 27.2271 17.7935H27.2345C27.2345 17.7935 27.2419 17.7935 27.2493 17.7935H27.2567C27.2642 17.7935 27.279 17.7935 27.2864 17.7935H27.2938C27.3013 17.7935 27.3087 17.7935 27.3161 17.7935C27.3309 17.7935 27.3384 17.7935 27.3532 17.7861C27.3532 17.7861 27.3532 17.7861 27.3606 17.7861C27.3755 17.7861 27.3903 17.7787 27.4051 17.7787C27.4125 17.7787 27.4125 17.7787 27.42 17.7713C27.42 17.7713 27.42 17.7713 27.4274 17.7713H27.4348C27.4348 17.7713 27.4348 17.7713 27.4422 17.7713C27.4942 17.7564 27.5387 17.7341 27.5832 17.7045C27.5906 17.697 27.598 17.697 27.6054 17.6896C27.6129 17.6822 27.6203 17.6822 27.6277 17.6748C27.6351 17.6674 27.6425 17.6599 27.65 17.6599C27.6574 17.6525 27.6648 17.6451 27.6722 17.6377C27.6796 17.6302 27.6945 17.6228 27.7019 17.608C27.7093 17.5931 27.7167 17.5931 27.7316 17.5783C27.739 17.5709 27.739 17.5635 27.7464 17.5635C27.7538 17.556 27.7538 17.5486 27.7612 17.5486C27.7761 17.5338 27.7835 17.5189 27.7983 17.4967C27.8058 17.4818 27.8132 17.4744 27.8206 17.4596C27.828 17.4447 27.8354 17.4299 27.8428 17.415C27.8503 17.4002 27.8577 17.3854 27.8651 17.3705C27.8725 17.3557 27.8725 17.3408 27.8799 17.326C27.8874 17.3037 27.8948 17.2815 27.8948 17.2666C27.9022 17.2443 27.9022 17.2221 27.9096 17.1998C27.917 17.1701 27.917 17.1405 27.917 17.1033C27.9245 17.0514 27.9245 17.0366 27.9245 17.0143ZM26.7819 17.0069C26.7894 16.9475 26.8042 16.903 26.8339 16.851C26.9081 16.71 27.0564 16.621 27.2271 16.621C27.2493 16.621 27.2642 16.621 27.2864 16.6284C27.5313 16.6581 27.7019 16.8881 27.6722 17.133C27.6425 17.3557 27.4496 17.5189 27.2271 17.5189C27.2048 17.5189 27.19 17.5189 27.1677 17.5115C27.0045 17.4892 26.871 17.3779 26.8116 17.2369C26.7819 17.1701 26.7671 17.0885 26.7819 17.0069Z" fill="black"/>
</svg>
