<svg width="64" height="64" viewBox="0 0 64 64" fill="none" xmlns="http://www.w3.org/2000/svg">
<path fill-rule="evenodd" clip-rule="evenodd" d="M0 8C0 3.58172 3.58172 0 8 0H56C60.4183 0 64 3.58172 64 8V58.3532C64 61.4718 61.4719 64 58.3532 64H54.9255C53.6999 64 52.7064 63.0065 52.7064 61.7809V61.7809C52.7064 60.5554 51.7129 59.5619 50.4874 59.5619H13.0431C11.8176 59.5619 10.8241 60.5554 10.8241 61.7809V61.7809C10.8241 63.0065 9.83057 64 8.60501 64H5.41204C2.42305 64 0 61.5769 0 58.588V8ZM15.0224 49.4759C15.2813 53.696 18.7794 56.9859 23.0074 56.9859H40.5473C44.7874 56.9859 48.291 53.6778 48.5342 49.4447L50.3108 18.5159C50.4206 16.6043 48.9 14.994 46.9853 14.994V14.994C45.6645 14.994 44.4857 14.1897 43.6562 13.1618C41.797 10.858 38.0314 8.09964 31.9292 8.03183C25.7898 7.96362 21.9052 10.7867 19.9658 13.154C19.1157 14.1916 17.9145 14.994 16.5731 14.994V14.994C14.5856 14.994 13.0095 16.6697 13.1312 18.6535L15.0224 49.4759ZM41.0839 25.629C41.0839 24.9327 40.5194 24.3682 39.823 24.3682H23.4867C22.7904 24.3682 22.2259 24.9327 22.2259 25.629V25.629C22.2259 26.3254 22.7904 26.8899 23.4867 26.8899H39.823C40.5194 26.8899 41.0839 26.3254 41.0839 25.629V25.629ZM22.2259 32.4259C22.2259 31.7295 22.7904 31.165 23.4867 31.165H39.823C40.5194 31.165 41.0839 31.7295 41.0839 32.4259V32.4259C41.0839 33.1222 40.5194 33.6868 39.823 33.6868H23.4867C22.7904 33.6868 22.2259 33.1222 22.2259 32.4259V32.4259Z" fill="#B9836D"/>
</svg>
