<svg width="26" height="26" viewBox="0 0 26 26" fill="none" xmlns="http://www.w3.org/2000/svg">
<path fill-rule="evenodd" clip-rule="evenodd" d="M1.35449 21.6667C1.35449 16.4314 5.59844 12.1875 10.8337 12.1875H22.7503C23.1601 12.1875 23.5057 12.4926 23.5566 12.8992L24.6399 21.5659C24.6688 21.7971 24.597 22.0297 24.4428 22.2044C24.2885 22.3791 24.0667 22.4792 23.8337 22.4792H2.16699C1.71826 22.4792 1.35449 22.1154 1.35449 21.6667ZM3.02101 20.8542H22.9133L22.0331 13.8125H10.8337C6.77024 13.8125 3.42758 16.8982 3.02101 20.8542Z" fill="#D88532"/>
<path fill-rule="evenodd" clip-rule="evenodd" d="M7.85449 4.3335C7.85449 3.88476 8.21826 3.521 8.66699 3.521H21.667C22.0768 3.521 22.4224 3.82612 22.4732 4.23272L23.5566 12.8994C23.6122 13.3447 23.2964 13.7507 22.8511 13.8064C22.4058 13.862 21.9998 13.5462 21.9441 13.1009L20.9497 5.146H8.66699C8.21826 5.146 7.85449 4.78223 7.85449 4.3335Z" fill="#D88532"/>
<path fill-rule="evenodd" clip-rule="evenodd" d="M8.39551 17.3335C8.39551 16.8848 8.75928 16.521 9.20801 16.521H10.2913C10.7401 16.521 11.1038 16.8848 11.1038 17.3335C11.1038 17.7822 10.7401 18.146 10.2913 18.146H9.20801C8.75928 18.146 8.39551 17.7822 8.39551 17.3335Z" fill="#D88532"/>
<path fill-rule="evenodd" clip-rule="evenodd" d="M12.7295 17.3335C12.7295 16.8848 13.0933 16.521 13.542 16.521H14.6253C15.0741 16.521 15.4378 16.8848 15.4378 17.3335C15.4378 17.7822 15.0741 18.146 14.6253 18.146H13.542C13.0933 18.146 12.7295 17.7822 12.7295 17.3335Z" fill="#D88532"/>
</svg>
