<svg width="26" height="26" viewBox="0 0 26 26" fill="none" xmlns="http://www.w3.org/2000/svg">
<path fill-rule="evenodd" clip-rule="evenodd" d="M5.95833 2.979C5.80876 2.979 5.6875 3.10026 5.6875 3.24984V20.5832C5.6875 20.7327 5.80876 20.854 5.95833 20.854H18.9583C19.1079 20.854 19.2292 20.7327 19.2292 20.5832V3.24984C19.2292 3.10026 19.1079 2.979 18.9583 2.979H5.95833ZM4.0625 3.24984C4.0625 2.2028 4.91129 1.354 5.95833 1.354H18.9583C20.0054 1.354 20.8542 2.2028 20.8542 3.24984V20.5832C20.8542 21.6302 20.0054 22.479 18.9583 22.479H5.95833C4.91129 22.479 4.0625 21.6302 4.0625 20.5832V3.24984Z" fill="#D88532"/>
<path fill-rule="evenodd" clip-rule="evenodd" d="M4.0625 11.9165C4.0625 11.4678 4.42627 11.104 4.875 11.104H20.0417C20.4904 11.104 20.8542 11.4678 20.8542 11.9165C20.8542 12.3652 20.4904 12.729 20.0417 12.729H4.875C4.42627 12.729 4.0625 12.3652 4.0625 11.9165Z" fill="#D88532"/>
<path fill-rule="evenodd" clip-rule="evenodd" d="M4.875 10.021C5.32373 10.021 5.6875 10.3848 5.6875 10.8335V13.0002C5.6875 13.4489 5.32373 13.8127 4.875 13.8127C4.42627 13.8127 4.0625 13.4489 4.0625 13.0002V10.8335C4.0625 10.3848 4.42627 10.021 4.875 10.021Z" fill="#D88532"/>
<path fill-rule="evenodd" clip-rule="evenodd" d="M20.042 10.021C20.4907 10.021 20.8545 10.3848 20.8545 10.8335V13.0002C20.8545 13.4489 20.4907 13.8127 20.042 13.8127C19.5933 13.8127 19.2295 13.4489 19.2295 13.0002V10.8335C19.2295 10.3848 19.5933 10.021 20.042 10.021Z" fill="#D88532"/>
<path fill-rule="evenodd" clip-rule="evenodd" d="M8.125 14.896C8.57373 14.896 8.9375 15.2598 8.9375 15.7085V17.8752C8.9375 18.3239 8.57373 18.6877 8.125 18.6877C7.67627 18.6877 7.3125 18.3239 7.3125 17.8752V15.7085C7.3125 15.2598 7.67627 14.896 8.125 14.896Z" fill="#D88532"/>
<path fill-rule="evenodd" clip-rule="evenodd" d="M8.125 5.146C8.57373 5.146 8.9375 5.50976 8.9375 5.9585V8.12516C8.9375 8.57389 8.57373 8.93766 8.125 8.93766C7.67627 8.93766 7.3125 8.57389 7.3125 8.12516V5.9585C7.3125 5.50976 7.67627 5.146 8.125 5.146Z" fill="#D88532"/>
<path fill-rule="evenodd" clip-rule="evenodd" d="M17.875 20.854C18.3237 20.854 18.6875 21.2178 18.6875 21.6665V23.8332C18.6875 24.2819 18.3237 24.6457 17.875 24.6457C17.4263 24.6457 17.0625 24.2819 17.0625 23.8332V21.6665C17.0625 21.2178 17.4263 20.854 17.875 20.854Z" fill="#D88532"/>
<path fill-rule="evenodd" clip-rule="evenodd" d="M7.04199 20.854C7.49072 20.854 7.85449 21.2178 7.85449 21.6665V23.8332C7.85449 24.2819 7.49072 24.6457 7.04199 24.6457C6.59326 24.6457 6.22949 24.2819 6.22949 23.8332V21.6665C6.22949 21.2178 6.59326 20.854 7.04199 20.854Z" fill="#D88532"/>
</svg>
