<svg width="26" height="26" viewBox="0 0 26 26" fill="none" xmlns="http://www.w3.org/2000/svg">
<path fill-rule="evenodd" clip-rule="evenodd" d="M1.35449 12.9998C1.35449 6.56802 6.56851 1.354 13.0003 1.354C19.4321 1.354 24.6462 6.56802 24.6462 12.9998C24.6462 19.4317 19.4321 24.6457 13.0003 24.6457C6.56851 24.6457 1.35449 19.4317 1.35449 12.9998ZM13.0003 2.979C7.46597 2.979 2.97949 7.46548 2.97949 12.9998C2.97949 18.5342 7.46597 23.0207 13.0003 23.0207C18.5347 23.0207 23.0212 18.5342 23.0212 12.9998C23.0212 7.46548 18.5347 2.979 13.0003 2.979Z" fill="#D88532"/>
<path fill-rule="evenodd" clip-rule="evenodd" d="M7.67597 13.1699C7.82991 13.016 8.03869 12.9296 8.25636 12.9297L16.8934 12.9327C17.3465 12.9329 17.7137 13.3002 17.7137 13.7532V15.9094C17.7137 16.3626 17.3463 16.73 16.8932 16.73L8.25607 16.73C8.03846 16.73 7.82975 16.6436 7.67587 16.4897C7.522 16.3358 7.43555 16.1271 7.43555 15.9095V13.7502C7.43555 13.5325 7.52203 13.3238 7.67597 13.1699ZM9.07659 14.571V15.089L16.0726 15.0889V14.5735L9.07659 14.571Z" fill="#D88532"/>
<path fill-rule="evenodd" clip-rule="evenodd" d="M16.3129 13.1697C16.4669 13.0158 16.6758 12.9295 16.8936 12.9297L20.1325 12.9327C20.5853 12.9331 20.9522 13.3004 20.9522 13.7532V15.9094C20.9522 16.3626 20.5849 16.73 20.1317 16.73L16.8928 16.73C16.6752 16.73 16.4665 16.6436 16.3126 16.4897C16.1587 16.3358 16.0723 16.1271 16.0723 15.9095V13.7502C16.0723 13.5325 16.1588 13.3236 16.3129 13.1697ZM17.7133 14.5715V15.0889L19.3112 15.0889V14.573L17.7133 14.5715Z" fill="#D88532"/>
<path fill-rule="evenodd" clip-rule="evenodd" d="M13.5453 5.37849C13.9949 5.32228 14.405 5.64124 14.4612 6.09091C14.5641 6.91407 14.4922 8.18291 13.7848 9.15772C13.4159 9.66619 12.8837 10.0776 12.1658 10.2816C11.4606 10.482 10.6296 10.4677 9.66929 10.2276C8.20941 9.86263 7.21293 10.3364 6.72748 10.9609C6.23698 11.5918 6.16947 12.4795 6.75323 13.2578C7.02513 13.6204 6.95165 14.1347 6.58912 14.4066C6.22659 14.6785 5.71229 14.605 5.44039 14.2424C4.40469 12.8615 4.49551 11.1581 5.4319 9.95362C6.37335 8.74266 8.07235 8.13681 10.0673 8.63555C10.8344 8.82734 11.362 8.804 11.7172 8.70304C12.0599 8.60566 12.2902 8.42323 12.4566 8.19395C12.8199 7.69327 12.9099 6.9108 12.8328 6.29445C12.7766 5.84479 13.0956 5.4347 13.5453 5.37849Z" fill="#D88532"/>
</svg>
