<svg width="26" height="26" viewBox="0 0 26 26" fill="none" xmlns="http://www.w3.org/2000/svg">
<path fill-rule="evenodd" clip-rule="evenodd" d="M2.4375 20.0415C2.4375 19.5928 2.80127 19.229 3.25 19.229H22.75C23.1987 19.229 23.5625 19.5928 23.5625 20.0415V23.8332C23.5625 24.2819 23.1987 24.6457 22.75 24.6457H3.25C2.80127 24.6457 2.4375 24.2819 2.4375 23.8332V20.0415ZM4.0625 20.854V23.0207H21.9375V20.854H4.0625Z" fill="#D88532"/>
<path fill-rule="evenodd" clip-rule="evenodd" d="M1.42762 5.07966C1.5596 4.78994 1.84864 4.604 2.167 4.604H19.5003C19.9249 4.604 20.2779 4.93088 20.3104 5.35419L21.3938 19.4375C21.4282 19.8849 21.0934 20.2755 20.646 20.3099C20.1986 20.3444 19.808 20.0096 19.7736 19.5622L18.7479 6.229H3.9505L6.33665 8.9725C6.76627 9.46655 6.97918 10.1127 6.92727 10.7655L6.22694 19.5643C6.19134 20.0116 5.79986 20.3454 5.35254 20.3098C4.90522 20.2742 4.57146 19.8827 4.60707 19.4354L5.30738 10.6366C5.30738 10.6366 5.30738 10.6367 5.30738 10.6366C5.32468 10.4191 5.25373 10.2036 5.11053 10.0389C5.11051 10.0389 5.11054 10.0389 5.11053 10.0389L1.55394 5.94971C1.34501 5.70949 1.29563 5.36938 1.42762 5.07966Z" fill="#D88532"/>
<path fill-rule="evenodd" clip-rule="evenodd" d="M10.5625 9.75C10.5625 9.30127 10.9263 8.9375 11.375 8.9375H14.0833C14.5321 8.9375 14.8958 9.30127 14.8958 9.75C14.8958 10.1987 14.5321 10.5625 14.0833 10.5625H11.375C10.9263 10.5625 10.5625 10.1987 10.5625 9.75Z" fill="#D88532"/>
<path fill-rule="evenodd" clip-rule="evenodd" d="M10.5625 13C10.5625 12.5513 10.9263 12.1875 11.375 12.1875H14.0833C14.5321 12.1875 14.8958 12.5513 14.8958 13C14.8958 13.4487 14.5321 13.8125 14.0833 13.8125H11.375C10.9263 13.8125 10.5625 13.4487 10.5625 13Z" fill="#D88532"/>
<path fill-rule="evenodd" clip-rule="evenodd" d="M10.5625 16.25C10.5625 15.8013 10.9263 15.4375 11.375 15.4375H14.0833C14.5321 15.4375 14.8958 15.8013 14.8958 16.25C14.8958 16.6987 14.5321 17.0625 14.0833 17.0625H11.375C10.9263 17.0625 10.5625 16.6987 10.5625 16.25Z" fill="#D88532"/>
<path fill-rule="evenodd" clip-rule="evenodd" d="M18.6875 5.4165C18.6875 4.96777 19.0513 4.604 19.5 4.604H23.8333C24.2821 4.604 24.6458 4.96777 24.6458 5.4165V14.0832C24.6458 14.5319 24.2821 14.8957 23.8333 14.8957H20.5833C20.1346 14.8957 19.7708 14.5319 19.7708 14.0832C19.7708 13.6344 20.1346 13.2707 20.5833 13.2707H23.0208V6.229H19.5C19.0513 6.229 18.6875 5.86524 18.6875 5.4165Z" fill="#D88532"/>
<path fill-rule="evenodd" clip-rule="evenodd" d="M9.47949 2.1665C9.47949 1.71777 9.84326 1.354 10.292 1.354H15.167C15.6157 1.354 15.9795 1.71777 15.9795 2.1665V4.87484C15.9795 5.32357 15.6157 5.68734 15.167 5.68734C14.7183 5.68734 14.3545 5.32357 14.3545 4.87484V2.979H11.1045V4.87484C11.1045 5.32357 10.7407 5.68734 10.292 5.68734C9.84326 5.68734 9.47949 5.32357 9.47949 4.87484V2.1665Z" fill="#D88532"/>
</svg>
