<svg width="26" height="26" viewBox="0 0 26 26" fill="none" xmlns="http://www.w3.org/2000/svg">
<path d="M20.4509 11.5978L21.1625 11.361L21.1625 11.361L20.4509 11.5978ZM19.0563 8.35662L19.708 7.98539C19.5477 7.70404 19.225 7.55732 18.9076 7.6215C18.5903 7.68568 18.3499 7.94629 18.3116 8.2678L19.0563 8.35662ZM16.906 11.9612H16.156C16.156 12.2469 16.3183 12.5078 16.5745 12.634C16.8308 12.7603 17.1365 12.73 17.363 12.556L16.906 11.9612ZM14.6345 6.30153L15.254 5.87871L15.254 5.87869L14.6345 6.30153ZM10.392 2.1665L10.8665 1.58567C10.6422 1.4024 10.3323 1.36472 10.0706 1.48887C9.80887 1.61303 9.64204 1.87682 9.64204 2.1665H10.392ZM7.62244 9.80411L7.06288 9.30472L7.06286 9.30474L7.62244 9.80411ZM5.70234 12.1684L5.06351 11.7755L5.06349 11.7755L5.70234 12.1684ZM13 24.5832C17.8636 24.5832 21.8749 20.7236 21.8749 15.7613H20.3749C20.3749 19.8732 17.0573 23.0832 13 23.0832V24.5832ZM21.8749 15.7613C21.8749 14.5944 21.8127 13.3153 21.1625 11.361L19.7392 11.8346C20.3238 13.5917 20.3749 14.7006 20.3749 15.7613H21.8749ZM21.1625 11.361C20.8545 10.4352 20.6595 9.88126 20.4543 9.41111C20.2463 8.93446 20.0328 8.55554 19.708 7.98539L18.4046 8.72784C18.7327 9.3037 18.9078 9.61754 19.0795 10.0111C19.2541 10.4111 19.4299 10.9047 19.7393 11.8346L21.1625 11.361ZM18.3116 8.2678C18.0728 10.2705 16.8251 11.0775 16.449 11.3665L17.363 12.556C17.7451 12.2623 19.4821 11.1201 19.801 8.44543L18.3116 8.2678ZM17.656 11.9612C17.656 11.827 17.6205 11.6591 17.5971 11.5524C17.5663 11.4121 17.5223 11.2358 17.4671 11.0334C17.3563 10.6279 17.1953 10.1007 16.9909 9.52053C16.5865 8.37251 15.993 6.96144 15.254 5.87871L14.0151 6.72436C14.6448 7.64687 15.187 8.91413 15.5762 10.0189C15.7686 10.5651 15.9188 11.0579 16.0201 11.4287C16.0708 11.6145 16.1081 11.7653 16.132 11.8742C16.1633 12.0166 16.156 12.0197 16.156 11.9612H17.656ZM15.254 5.87869C13.8328 3.79683 11.8899 2.42166 10.8665 1.58567L9.91755 2.74734C11.0371 3.66193 12.7489 4.86951 14.0151 6.72438L15.254 5.87869ZM9.64204 2.1665C9.64204 2.93725 9.53248 3.91985 9.33962 4.86508C9.14478 5.82003 8.87794 6.67202 8.59238 7.20907L9.9168 7.91329C10.301 7.1907 10.6029 6.17674 10.8093 5.16496C11.0178 4.14347 11.142 3.05855 11.142 2.1665H9.64204ZM8.59238 7.20907C8.26275 7.82901 8.08719 8.11108 7.90627 8.34664C7.70891 8.60361 7.50985 8.80389 7.06288 9.30472L8.182 10.3035C8.57164 9.86692 8.85377 9.57556 9.09589 9.26033C9.35444 8.92368 9.57666 8.55299 9.9168 7.91329L8.59238 7.20907ZM7.06286 9.30474C6.26799 10.1954 5.80905 10.5634 5.06351 11.7755L6.34118 12.5614C6.99476 11.4987 7.30379 11.2876 8.18202 10.3035L7.06286 9.30474ZM5.06349 11.7755C4.24769 13.102 4.125 14.7997 4.125 15.9346H5.625C5.625 14.842 5.75793 13.5097 6.34119 12.5613L5.06349 11.7755ZM4.125 15.9346C4.125 20.918 8.15818 24.5832 13 24.5832V23.0832C8.9209 23.0832 5.625 20.0254 5.625 15.9346H4.125Z" fill="#D88532"/>
</svg>
