<svg width="26" height="26" viewBox="0 0 26 26" fill="none" xmlns="http://www.w3.org/2000/svg">
<path fill-rule="evenodd" clip-rule="evenodd" d="M12.637 8.48177C12.8657 8.3674 13.1349 8.3674 13.3637 8.48177L23.2717 13.4358C23.2717 13.4358 23.2717 13.4358 23.2717 13.4358C24.1141 13.857 24.6462 14.718 24.6462 15.6596C24.6462 17.0328 23.533 18.146 22.1598 18.146H20.042C19.5933 18.146 19.2295 17.7822 19.2295 17.3335C19.2295 16.8848 19.5933 16.521 20.042 16.521H22.1598C22.6355 16.521 23.0212 16.1354 23.0212 15.6596C23.0212 15.3334 22.8368 15.0351 22.5451 14.8893L22.545 14.8892L13.0003 10.1169L3.45563 14.8892L3.4556 14.8893C3.16384 15.0351 2.97949 15.3334 2.97949 15.6596C2.97949 16.1354 3.36513 16.521 3.84083 16.521H5.95866C6.40739 16.521 6.77116 16.8848 6.77116 17.3335C6.77116 17.7822 6.40739 18.146 5.95866 18.146H3.84083C2.46767 18.146 1.35449 17.0328 1.35449 15.6596C1.35449 14.718 1.88654 13.857 2.72891 13.4358C2.72892 13.4358 2.72892 13.4358 2.72893 13.4358L12.637 8.48177Z" fill="#D88532"/>
<path fill-rule="evenodd" clip-rule="evenodd" d="M5.14551 16.25C5.14551 15.8013 5.50928 15.4375 5.95801 15.4375H20.0413C20.4901 15.4375 20.8538 15.8013 20.8538 16.25V23.8333C20.8538 24.2821 20.4901 24.6458 20.0413 24.6458H5.95801C5.50928 24.6458 5.14551 24.2821 5.14551 23.8333V16.25ZM6.77051 17.0625V23.0208H19.2288V17.0625H6.77051Z" fill="#D88532"/>
<path fill-rule="evenodd" clip-rule="evenodd" d="M10.0205 4.33317C10.0205 2.68782 11.3544 1.354 12.9997 1.354C14.645 1.354 15.9788 2.68782 15.9788 4.33317C15.9788 4.80454 15.7847 5.39002 15.5833 5.89876C15.3671 6.44483 15.0839 7.0417 14.8078 7.58659C14.5305 8.13392 14.2541 8.64127 14.0475 9.01103C13.944 9.19621 13.8577 9.34761 13.7969 9.45313C13.7666 9.5059 13.7426 9.54724 13.726 9.57563L13.7069 9.60835L13.7004 9.61947C13.7003 9.61955 13.6998 9.62053 12.9997 9.20817L13.6998 9.62053C13.472 10.0072 12.974 10.136 12.5873 9.90825C12.2007 9.68052 12.0719 9.1825 12.2996 8.79586L12.3049 8.78682L12.322 8.7575C12.3372 8.73143 12.3597 8.69257 12.3886 8.64243C12.4464 8.54211 12.5293 8.39678 12.6289 8.21842C12.8286 7.86108 13.0938 7.37404 13.3582 6.8522C13.6238 6.32792 13.8823 5.78082 14.0723 5.30065C14.2772 4.78315 14.3538 4.4601 14.3538 4.33317C14.3538 3.58529 13.7475 2.979 12.9997 2.979C12.2518 2.979 11.6455 3.58529 11.6455 4.33317C11.6455 4.7819 11.2817 5.14567 10.833 5.14567C10.3843 5.14567 10.0205 4.7819 10.0205 4.33317Z" fill="#D88532"/>
</svg>
