<svg width="25" height="24" viewBox="0 0 25 24" fill="none" xmlns="http://www.w3.org/2000/svg">
<path d="M15.8854 2H9.75C4.14581 2 2.8125 3.33331 2.8125 8.92706V15.0625C2.8125 20.6666 4.13544 22 9.73956 22H15.875C21.4792 22 22.8125 20.6771 22.8125 15.0729V8.9375C22.8125 3.33331 21.4896 2 15.8854 2ZM18.9583 16.2708H17.5C16.9479 16.2708 16.7812 15.8229 15.7917 14.8333C14.9271 14 14.5625 13.8958 14.3438 13.8958C14.0417 13.8958 13.9583 13.9791 13.9583 14.3958V15.7083C13.9583 16.0625 13.8437 16.2708 12.9167 16.2708C12.0171 16.2104 11.1447 15.9371 10.3714 15.4735C9.59807 15.0098 8.94596 14.3691 8.46875 13.6041C7.33586 12.194 6.54761 10.5391 6.16669 8.77081C6.16669 8.55206 6.25 8.35413 6.66669 8.35413H8.125C8.5 8.35413 8.63544 8.52081 8.78125 8.90625C9.48956 10.9896 10.6979 12.8021 11.1875 12.8021C11.375 12.8021 11.4583 12.7188 11.4583 12.25V10.1041C11.3958 9.125 10.875 9.04163 10.875 8.6875C10.8819 8.59407 10.9249 8.50699 10.9949 8.44475C11.0649 8.3825 11.1564 8.35 11.25 8.35413H13.5417C13.8542 8.35413 13.9583 8.51038 13.9583 8.88538V11.7812C13.9583 12.0938 14.0938 12.1979 14.1875 12.1979C14.375 12.1979 14.5208 12.0938 14.8646 11.75C15.6032 10.8492 16.2068 9.84559 16.6562 8.77081C16.7021 8.64149 16.7891 8.53074 16.9038 8.4555C17.0186 8.38025 17.1548 8.34465 17.2917 8.35413H18.75C19.1875 8.35413 19.2812 8.57288 19.1875 8.88538C18.6569 10.0737 18.0003 11.2017 17.2292 12.25C17.0729 12.4896 17.0104 12.6146 17.2292 12.8958C17.375 13.1146 17.8854 13.5416 18.2292 13.9479C18.7292 14.4466 19.1443 15.0237 19.4583 15.6562C19.5833 16.0625 19.375 16.2708 18.9583 16.2708V16.2708Z" fill="#009FE4"/>
</svg>
