<svg width="36" height="35" viewBox="0 0 36 35" fill="none" xmlns="http://www.w3.org/2000/svg">
<path d="M18.4808 2.91699C15.5965 2.91699 12.777 3.77229 10.3787 5.37473C7.98052 6.97716 6.11134 9.25477 5.00756 11.9195C3.90378 14.5843 3.61498 17.5165 4.17768 20.3454C4.74038 23.1743 6.12931 25.7728 8.16883 27.8123C10.2083 29.8518 12.8068 31.2407 15.6357 31.8034C18.4646 32.3661 21.3968 32.0774 24.0616 30.9736C26.7264 29.8698 29.004 28.0006 30.6064 25.6024C32.2088 23.2042 33.0641 20.3846 33.0641 17.5003C33.0643 15.5852 32.6872 13.6887 31.9544 11.9193C31.2215 10.1499 30.1473 8.54222 28.7931 7.188C27.4389 5.83378 25.8312 4.75958 24.0618 4.02676C22.2924 3.29393 20.396 2.91683 18.4808 2.91699V2.91699ZM23.1176 25.0143C23.063 25.1505 22.9799 25.2733 22.874 25.3747C22.768 25.4761 22.6416 25.5537 22.5033 25.6022C22.3649 25.6507 22.2177 25.6691 22.0717 25.6562C21.9256 25.6432 21.784 25.5991 21.6563 25.5269L17.6974 22.4508L15.1566 24.7949C15.0976 24.8385 15.0286 24.8665 14.956 24.8764C14.8834 24.8864 14.8094 24.8778 14.7409 24.8517L15.228 20.4935L15.2436 20.5059L15.2536 20.4199C15.2536 20.4199 22.3775 13.9339 22.6677 13.6576C22.9615 13.3819 22.8646 13.3221 22.8646 13.3221C22.8813 12.986 22.3374 13.3221 22.3374 13.3221L12.8983 19.3947L8.96738 18.056C8.96738 18.056 8.36363 17.8394 8.30675 17.3632C8.24696 16.8907 8.98705 16.6341 8.98705 16.6341L24.616 10.4252C24.616 10.4252 25.9008 9.85278 25.9008 10.8007L23.1176 25.0143Z" fill="#D88532"/>
</svg>
