<svg width="29" height="29" viewBox="0 0 29 29" fill="none" xmlns="http://www.w3.org/2000/svg">
<g clip-path="url(#clip0_80_2100)">
<path fill-rule="evenodd" clip-rule="evenodd" d="M6.86188 8.61921C9.25524 5.44453 13.7333 3.4315 17.8174 4.85026C21.8994 6.26826 24.1645 10.6205 24.0772 14.5927C24.0769 14.6047 24.0799 14.6677 24.1931 14.8455C24.2475 14.9308 24.3131 15.0216 24.3966 15.1359L24.4099 15.1541C24.4864 15.2589 24.576 15.3815 24.6622 15.5117C24.8459 15.7894 25.0418 16.1412 25.135 16.5742C25.2306 17.018 25.2096 17.5042 25.0241 18.0381C24.8392 18.5705 24.5568 18.963 24.2054 19.2461C23.8623 19.5225 23.4911 19.6639 23.1793 19.7544C23.0322 19.797 22.8876 19.8311 22.7663 19.8598L22.7485 19.864C22.6162 19.8952 22.5154 19.9195 22.4269 19.9468C22.2895 19.9892 22.2475 20.0202 22.2398 20.0268C19.8626 23.2875 15.3276 25.3541 11.1936 23.918C7.07507 22.4873 4.80145 18.0783 4.93701 14.0639C4.93598 14.0556 4.92532 14.0035 4.83562 13.8724C4.7824 13.7945 4.71784 13.7116 4.63296 13.6035L4.62329 13.5911C4.54506 13.4916 4.45186 13.3729 4.36202 13.2455C4.17294 12.9774 3.97039 12.6327 3.87437 12.1988C3.77617 11.755 3.8001 11.268 3.98693 10.7302C4.1741 10.1914 4.45892 9.79302 4.81034 9.5019C5.15378 9.21738 5.52681 9.06381 5.84429 8.96182C5.99455 8.91355 6.1425 8.87386 6.26812 8.84016L6.28565 8.83546C6.42195 8.79888 6.52854 8.76977 6.62321 8.73779C6.81979 8.67138 6.85695 8.62576 6.86188 8.61921ZM17.351 6.19306C13.9821 5.02279 10.1107 6.67116 7.99696 9.47495C7.73092 9.82783 7.35988 9.98936 7.07818 10.0845C6.9337 10.1333 6.78363 10.1736 6.65413 10.2084L6.64812 10.21C6.51407 10.246 6.39571 10.2777 6.27908 10.3152C6.04521 10.3903 5.86392 10.475 5.7172 10.5966C5.57845 10.7115 5.43727 10.8871 5.32972 11.1966C5.22184 11.5072 5.22572 11.7263 5.2623 11.8916C5.30107 12.0668 5.38813 12.2341 5.52367 12.4262C5.59207 12.5232 5.66552 12.6167 5.74966 12.7239L5.75242 12.7274C5.83205 12.8288 5.92545 12.9477 6.0091 13.0701C6.17303 13.3099 6.37287 13.664 6.35774 14.111C6.23775 17.6539 8.26091 21.3944 11.6601 22.5752C15.0734 23.7609 18.9961 22.0651 21.0928 19.1871C21.3562 18.8256 21.7334 18.673 22.0082 18.5883C22.1497 18.5447 22.2968 18.51 22.4218 18.4805L22.428 18.479C22.558 18.4483 22.6715 18.4216 22.7834 18.3891C23.0076 18.3241 23.1773 18.2489 23.3135 18.1392C23.4414 18.0362 23.5766 17.873 23.6813 17.5717C23.7855 17.2718 23.7835 17.0504 23.7454 16.8736C23.705 16.686 23.6143 16.5042 23.4767 16.2961C23.4092 16.1942 23.3372 16.0956 23.2562 15.9846L23.2486 15.9743C23.1687 15.8648 23.0767 15.7387 22.9944 15.6094C22.8341 15.3579 22.6463 15.0004 22.656 14.5614C22.7331 11.0531 20.7179 7.36266 17.351 6.19306Z" fill="#D88532"/>
<path fill-rule="evenodd" clip-rule="evenodd" d="M16.9133 5.28859C17.0421 4.91778 17.4471 4.72161 17.8179 4.85042C21.8998 6.26842 24.165 10.6206 24.0776 14.5928C24.069 14.9853 23.7439 15.2964 23.3514 15.2878C22.959 15.2792 22.6478 14.954 22.6565 14.5616C22.7336 11.0533 20.7183 7.36282 17.3514 6.19322C16.9806 6.06441 16.7844 5.65939 16.9133 5.28859Z" fill="#D88532"/>
<path d="M12.6548 12.6374C12.5264 13.0073 12.3132 13.2971 12.0843 13.4706C11.8538 13.6452 11.6323 13.6867 11.4585 13.6264C11.2847 13.566 11.1367 13.3961 11.0641 13.1162C10.9921 12.8382 11.0045 12.4786 11.133 12.1087C11.2615 11.7389 11.4746 11.449 11.7035 11.2756C11.934 11.1009 12.1555 11.0594 12.3293 11.1198C12.5031 11.1802 12.6511 11.35 12.7237 11.63C12.7958 11.908 12.7833 12.2675 12.6548 12.6374Z" fill="#D88532"/>
<path d="M18.563 14.6901C18.4346 15.06 18.2214 15.3499 17.9925 15.5233C17.762 15.698 17.5406 15.7395 17.3667 15.6791C17.1929 15.6187 17.0449 15.4489 16.9723 15.1689C16.9003 14.8909 16.9127 14.5313 17.0412 14.1615C17.1697 13.7916 17.3828 13.5018 17.6117 13.3283C17.8422 13.1536 18.0637 13.1122 18.2375 13.1725C18.4113 13.2329 18.5593 13.4028 18.6319 13.6827C18.704 13.9607 18.6915 14.3202 18.563 14.6901Z" fill="#D88532"/>
<path fill-rule="evenodd" clip-rule="evenodd" d="M10.8066 17.0879C11.4688 17.9699 12.1901 18.5464 12.9704 18.8174C13.7499 19.0882 14.6236 19.0665 15.5915 18.7522" fill="#D88532"/>
<path fill-rule="evenodd" clip-rule="evenodd" d="M10.3796 16.519C10.6935 16.2833 11.1391 16.3467 11.3748 16.6606C11.9799 17.4666 12.5946 17.934 13.2034 18.1455C13.8051 18.3545 14.5161 18.3535 15.3716 18.0756C15.745 17.9544 16.1459 18.1587 16.2672 18.5321C16.3884 18.9054 16.1841 19.3064 15.8107 19.4276C14.7306 19.7784 13.6942 19.8208 12.7369 19.4883C11.785 19.1576 10.9572 18.472 10.238 17.5141C10.0023 17.2002 10.0657 16.7546 10.3796 16.519Z" fill="#D88532"/>
<path fill-rule="evenodd" clip-rule="evenodd" d="M20.84 7.01131C21.225 7.08797 21.475 7.46221 21.3983 7.84719C21.2899 8.39167 21.0796 8.88032 20.7328 9.26808C20.3809 9.66154 19.9259 9.9088 19.4042 10.0244L19.4041 10.0244C18.4105 10.2445 17.1309 10.0043 15.6528 9.4622C15.2843 9.32703 15.0951 8.9187 15.2303 8.55016C15.3654 8.18163 15.7738 7.99245 16.1423 8.12762C17.5615 8.64813 18.5171 8.76494 19.0966 8.63657M20.84 7.01131C20.4551 6.93465 20.0808 7.18459 20.0042 7.56958ZM20.0042 7.56958C19.932 7.93221 19.8101 8.16746 19.6733 8.3204ZM19.6733 8.3204C19.5416 8.46764 19.3615 8.57787 19.0967 8.63656Z" fill="#D88532"/>
</g>
<defs>
<clipPath id="clip0_80_2100">
<rect width="22.7442" height="22.7442" fill="white" transform="translate(7.46387) rotate(19.1563)"/>
</clipPath>
</defs>
</svg>
