<svg width="159" height="62" viewBox="0 0 159 62" fill="none" xmlns="http://www.w3.org/2000/svg">
<mask id="mask0_268_938" style="mask-type:alpha" maskUnits="userSpaceOnUse" x="0" y="0" width="159" height="62">
<rect width="159" height="62" fill="#D9D9D9"/>
</mask>
<g mask="url(#mask0_268_938)">
<path fill-rule="evenodd" clip-rule="evenodd" d="M-496.731 44.188C-473.286 26.6038 -440.158 26.6037 -416.712 44.1879L-410.602 48.7707C-392.739 62.1682 -367.499 62.1682 -349.635 48.7707L-343.525 44.188C-320.08 26.6038 -286.952 26.6037 -263.506 44.1879L-257.396 48.7707C-239.533 62.1682 -214.292 62.1682 -196.429 48.7707L-190.319 44.188C-166.873 26.6038 -133.745 26.6037 -110.3 44.1879L-104.19 48.7707C-86.3265 62.1682 -61.086 62.1682 -43.2228 48.7707L-37.1126 44.188C-13.6672 26.6038 -0.445503 5.41533 23 22.9996L54 40.4996C71 46.9996 98.6368 47.3971 116.5 33.9996L139 22.9996C162.446 5.41539 172.667 26.6037 196.113 44.1879L202.223 48.7707C220.086 62.1682 245.326 62.1682 263.19 48.7707L269.3 44.188C292.745 26.6038 325.873 26.6037 349.319 44.1879L355.429 48.7707C373.292 62.1682 398.533 62.1682 416.396 48.7707L422.506 44.188C445.952 26.6038 479.08 26.6037 502.525 44.1879L508.635 48.7707C526.499 62.1682 551.739 62.1682 569.602 48.7707L575.712 44.188C599.158 26.6038 632.286 26.6037 655.731 44.1879L697.088 75.2057C700.412 77.6984 700.973 82.2722 698.343 85.4216C695.712 88.571 690.886 89.1033 687.562 86.6106L646.205 55.5929C628.342 42.1954 603.102 42.1954 585.238 55.5929L579.128 60.1756C555.683 77.7599 522.555 77.7598 499.109 60.1756L492.999 55.5929C475.136 42.1954 449.895 42.1954 432.032 55.5929L425.922 60.1756C402.477 77.7599 369.348 77.7598 345.903 60.1756L339.793 55.5929C321.93 42.1954 296.689 42.1954 278.826 55.5929L272.716 60.1756C249.27 77.7599 216.142 77.7598 192.697 60.1756L186.587 55.5929C168.723 42.1954 180.863 78.1025 163 91.5L127 88.5C103.554 106.084 62.9455 101.584 39.5 84L2 74.4996C-15.8632 61.1021 -41.1036 61.1021 -58.9669 74.4996L-33.6967 60.1756C-57.1423 77.7599 -90.2703 77.7598 -113.716 60.1756L-119.826 55.5929C-137.689 42.1954 -162.93 42.1954 -180.793 55.5929L-186.903 60.1756C-210.349 77.7599 -243.477 77.7598 -266.922 60.1756L-273.032 55.5929C-290.895 42.1954 -316.136 42.1954 -333.999 55.5929L-340.109 60.1756C-363.555 77.7599 -396.683 77.7598 -420.128 60.1756L-426.238 55.5929C-444.102 42.1954 -469.342 42.1954 -487.205 55.5929L-528.562 86.6106C-531.886 89.1033 -536.712 88.571 -539.343 85.4216C-541.973 82.2722 -541.412 77.6984 -538.088 75.2057L-496.731 44.188Z" fill="white"/>
</g>
</svg>
