<svg width="10" height="94" viewBox="0 0 10 94" fill="none" xmlns="http://www.w3.org/2000/svg">
<path d="M5.5 2V2C8.60743 5.19397 8.74373 10.238 5.81334 13.5952L4.83696 14.7137C1.49302 18.5446 1.49302 24.2568 4.83696 28.0877L5 28.2744C8.43735 32.2124 8.43735 38.084 5 42.022L4.69405 42.3725C1.43198 46.1096 1.43198 51.6818 4.69405 55.419L6.04996 56.9723C8.8105 60.1349 8.56724 64.9164 5.5 67.7825V67.7825L5.2956 67.9708C1.90517 71.0945 1.90517 76.4477 5.2956 79.5714V79.5714C8.46132 82.488 8.70369 87.4043 5.84021 90.6182L5.5 91" stroke="#009FE3" stroke-width="4" stroke-linecap="square"/>
</svg>
