<svg width="375" height="47" viewBox="0 0 375 47" fill="none" xmlns="http://www.w3.org/2000/svg">
<path fill-rule="evenodd" clip-rule="evenodd" d="M-464.731 2.18818C-441.286 -15.396 -408.158 -15.3961 -384.712 2.18815L-378.602 6.77087C-360.739 20.1684 -335.499 20.1684 -317.635 6.77089L-311.525 2.18818C-288.08 -15.396 -254.952 -15.3961 -231.506 2.18815L-225.396 6.77087C-207.533 20.1684 -182.292 20.1684 -164.429 6.77089L-158.319 2.18818C-134.873 -15.396 -101.745 -15.3961 -78.2999 2.18815L-72.1897 6.77087C-54.3264 20.1684 -29.086 20.1684 -11.2228 6.77089L-5.11261 2.18818C18.3329 -15.396 51.4609 -15.3961 74.9064 2.18815L81.0166 6.77087C98.8798 20.1684 124.12 20.1684 141.983 6.77089L148.094 2.18818C171.539 -15.396 204.667 -15.3961 228.113 2.18815L234.223 6.77087C252.086 20.1684 277.326 20.1684 295.19 6.77089L301.3 2.18818C324.745 -15.396 357.873 -15.3961 381.319 2.18815L387.429 6.77087C405.292 20.1684 430.533 20.1684 448.396 6.77089L454.506 2.18818C477.952 -15.396 511.08 -15.3961 534.525 2.18815L540.635 6.77087C558.499 20.1684 583.739 20.1684 601.602 6.77089L607.712 2.18818C631.158 -15.396 664.286 -15.3961 687.731 2.18815L729.088 33.2059C732.412 35.6986 732.973 40.2724 730.343 43.4218C727.712 46.5712 722.886 47.1035 719.562 44.6109L678.205 13.5931C660.342 0.195616 635.102 0.195633 617.238 13.5931L611.128 18.1758C587.683 35.7601 554.555 35.76 531.109 18.1758L524.999 13.5931C507.136 0.195616 481.895 0.195633 464.032 13.5931L457.922 18.1758C434.477 35.7601 401.348 35.76 377.903 18.1758L371.793 13.5931C353.93 0.195616 328.689 0.195633 310.826 13.5931L304.716 18.1758C281.27 35.7601 248.142 35.76 224.697 18.1758L218.587 13.5931C200.723 0.195616 175.483 0.195633 157.62 13.5931L151.51 18.1758C128.064 35.7601 94.936 35.76 71.4905 18.1758L65.3803 13.5931C47.5171 0.195616 22.2767 0.195633 4.41345 13.5931L-1.69675 18.1758C-25.1422 35.7601 -58.2703 35.76 -81.7157 18.1758L-87.8259 13.5931C-105.689 0.195616 -130.93 0.195633 -148.793 13.5931L-154.903 18.1758C-178.348 35.7601 -211.477 35.76 -234.922 18.1758L-241.032 13.5931C-258.895 0.195616 -284.136 0.195633 -301.999 13.5931L-308.109 18.1758C-331.555 35.7601 -364.683 35.76 -388.128 18.1758L-394.238 13.5931C-412.102 0.195616 -437.342 0.195633 -455.205 13.5931L-496.562 44.6109C-499.886 47.1035 -504.712 46.5712 -507.343 43.4218C-509.973 40.2724 -509.412 35.6986 -506.088 33.2059L-464.731 2.18818Z" fill="#E6F6FD"/>
</svg>
