<svg width="636" height="545" viewBox="0 0 636 545" fill="none" xmlns="http://www.w3.org/2000/svg">
<g clip-path="url(#clip0_19_4853)">
<path d="M237.135 544.104L249.768 481.777H392.144L401.642 544.104H237.135Z" fill="#FEBE9A" stroke="black" stroke-width="2" stroke-miterlimit="10"/>
<path d="M401.642 544.105L395.191 501.39L302.723 531.747L401.642 544.105Z" fill="#010202"/>
<path d="M149.506 381.124C149.506 381.124 194.127 536.135 320.733 531.389C447.428 526.642 476.996 402.795 476.996 402.795L537.387 165.399C537.387 165.399 471.889 77.4608 470.276 77.1026C468.663 76.7444 207.925 72.3564 207.925 72.3564C207.925 72.3564 130.331 127.877 127.643 133.161C124.955 138.534 149.506 381.124 149.506 381.124Z" fill="#FEBE9A" stroke="black" stroke-width="2" stroke-miterlimit="10"/>
<path d="M108.648 131.101C108.648 131.101 144.668 -3.13381 320.285 0.985482C495.903 5.10477 532.639 135.847 532.639 135.847" fill="#D88532"/>
<path d="M108.648 131.101C108.648 131.101 144.668 -3.13381 320.285 0.985482C495.903 5.10477 532.639 135.847 532.639 135.847" stroke="black" stroke-width="2" stroke-miterlimit="10"/>
<path d="M488.286 544.104H147.804" stroke="black" stroke-width="2" stroke-miterlimit="10"/>
<path d="M521.618 222.442C545.899 195.308 550.29 165.041 546.079 148.116C543.839 138.982 540.971 131.28 526.725 122.057C330.768 -5.19358 170.025 99.2215 116.533 119.012C100.315 125.012 89.2047 140.146 88.3087 157.518C85.8895 203.099 116.354 226.472 116.354 226.472C116.354 226.472 285.43 71.7297 521.618 222.442Z" fill="#D88532" stroke="black" stroke-width="2" stroke-miterlimit="10"/>
<path d="M106.229 139.967C106.229 139.967 96.2837 179.816 127.465 214.204" stroke="black" stroke-width="2" stroke-miterlimit="10"/>
<path d="M128.807 127.43C128.807 127.43 118.683 166.205 147.265 202.025" stroke="black" stroke-width="2" stroke-miterlimit="10"/>
<path d="M155.061 113.37C155.061 113.37 141.71 158.951 172.802 193.338" stroke="black" stroke-width="2" stroke-miterlimit="10"/>
<path d="M182.837 101.102C182.837 101.102 172.443 146.682 196.636 181.07" stroke="black" stroke-width="2" stroke-miterlimit="10"/>
<path d="M216.527 89.2812C216.527 89.2812 205.148 130.116 221.724 173.727" stroke="black" stroke-width="2" stroke-miterlimit="10"/>
<path d="M249.679 80.1475C249.679 80.1475 241.257 126.355 252.547 162.712" stroke="black" stroke-width="2" stroke-miterlimit="10"/>
<path d="M529.95 137.996C529.95 137.996 539.896 177.846 508.715 212.233" stroke="black" stroke-width="2" stroke-miterlimit="10"/>
<path d="M508.088 125.012C508.088 125.012 517.496 164.324 488.913 200.054" stroke="black" stroke-width="2" stroke-miterlimit="10"/>
<path d="M481.745 110.505C481.745 110.505 494.558 156.981 463.377 191.458" stroke="black" stroke-width="2" stroke-miterlimit="10"/>
<path d="M453.521 97.4297C453.521 97.4297 463.735 144.712 439.543 179.099" stroke="black" stroke-width="2" stroke-miterlimit="10"/>
<path d="M419.473 84.8936C419.473 84.8936 431.031 128.146 414.455 171.757" stroke="black" stroke-width="2" stroke-miterlimit="10"/>
<path d="M386.41 76.207C386.41 76.207 394.026 127.34 382.736 163.697" stroke="black" stroke-width="2" stroke-miterlimit="10"/>
<path d="M284.534 74.2363C284.534 74.2363 278.62 122.235 286.057 158.592" stroke="black" stroke-width="2" stroke-miterlimit="10"/>
<path d="M320.195 70.207C320.195 70.207 317.417 120.355 321.091 156.712" stroke="black" stroke-width="2" stroke-miterlimit="10"/>
<path d="M353.527 71.1924C353.527 71.1924 361.591 122.236 354.423 158.503" stroke="black" stroke-width="2" stroke-miterlimit="10"/>
<path d="M2.11328 544.105L115.637 365.901C115.637 365.901 72.5394 312.081 95.0292 252.889C117.519 193.697 161.334 175.428 176.924 170.682C192.515 165.936 213.212 160.026 221.724 172.026C230.237 184.025 223.875 204.622 201.654 205.786C179.523 206.95 152.642 245.904 152.642 245.904L261.149 361.423C261.149 361.423 291.344 345.752 299.05 364.647C306.756 383.542 286.595 395.99 286.595 395.99C286.595 395.99 247.888 424.556 193.5 418.108L147.535 544.015H2.11328V544.105Z" fill="#FEBE9A" stroke="black" stroke-width="2" stroke-miterlimit="10"/>
<path d="M152.194 181.966C152.194 181.966 171.19 177.041 176.476 190.115C181.673 203.1 175.401 214.293 175.401 214.293" stroke="black" stroke-width="2" stroke-miterlimit="10"/>
<path d="M129.884 199.159C129.884 199.159 149.417 207.935 158.108 197.189C166.799 186.443 165.366 181.07 165.366 181.07" stroke="black" stroke-width="2" stroke-miterlimit="10"/>
<path d="M180.598 169.697C180.598 169.697 194.396 169.16 198.697 177.13C202.998 185.1 201.923 191.995 201.923 191.995" stroke="black" stroke-width="2" stroke-miterlimit="10"/>
<path d="M175.76 188.592C175.76 188.592 189.289 183.04 190.454 171.04" stroke="black" stroke-width="2" stroke-miterlimit="10"/>
<path d="M213.482 166.205C213.482 166.205 211.331 177.667 200.311 181.07" stroke="black" stroke-width="2" stroke-miterlimit="10"/>
<path d="M143.861 544.105L173.43 411.213C173.43 411.213 185.705 416.407 193.5 418.198L147.804 544.105H143.861Z" fill="black"/>
<path d="M301.2 374.139C301.2 374.139 287.402 371.811 281.04 380.945C274.679 390.079 275.395 402.885 275.395 402.885" stroke="black" stroke-width="2" stroke-miterlimit="10"/>
<path d="M193.5 418.198C193.5 418.198 186.243 416.586 169.129 408.526" stroke="black" stroke-width="2" stroke-miterlimit="10"/>
<path d="M633.888 544.105L520.364 365.901C520.364 365.901 563.462 312.081 540.972 252.889C518.483 193.697 474.668 175.428 459.077 170.682C443.487 165.936 422.789 160.026 414.277 172.026C405.765 184.025 412.127 204.622 434.348 205.786C456.479 206.95 483.359 245.904 483.359 245.904L374.853 361.423C374.853 361.423 344.657 345.752 336.952 364.647C329.246 383.542 349.406 395.99 349.406 395.99C349.406 395.99 388.114 424.556 442.501 418.108L488.466 544.015H633.888V544.105Z" fill="#FEBE9A" stroke="black" stroke-width="2" stroke-miterlimit="10"/>
<path d="M483.807 181.966C483.807 181.966 464.812 177.041 459.525 190.115C454.328 203.1 460.601 214.293 460.601 214.293" stroke="black" stroke-width="2" stroke-miterlimit="10"/>
<path d="M506.207 199.159C506.207 199.159 486.674 207.935 477.983 197.189C469.291 186.443 470.725 181.07 470.725 181.07" stroke="black" stroke-width="2" stroke-miterlimit="10"/>
<path d="M455.404 169.697C455.404 169.697 441.605 169.16 437.304 177.13C433.093 185.1 434.079 191.995 434.079 191.995" stroke="black" stroke-width="2" stroke-miterlimit="10"/>
<path d="M460.331 188.592C460.331 188.592 446.802 183.04 445.637 171.04" stroke="black" stroke-width="2" stroke-miterlimit="10"/>
<path d="M422.52 166.205C422.52 166.205 424.67 177.667 435.691 181.07" stroke="black" stroke-width="2" stroke-miterlimit="10"/>
<path d="M492.14 544.105L462.572 411.213C462.572 411.213 450.296 416.407 442.501 418.198L488.197 544.105H492.14Z" fill="black"/>
<path d="M334.801 374.139C334.801 374.139 348.599 371.811 354.961 380.945C361.323 390.079 360.606 402.885 360.606 402.885" stroke="black" stroke-width="2" stroke-miterlimit="10"/>
<path d="M442.501 418.198C442.501 418.198 449.759 416.586 466.872 408.526" stroke="black" stroke-width="2" stroke-miterlimit="10"/>
<path d="M297.437 347.901C297.437 347.901 321.539 368.319 341.072 347.901" stroke="black" stroke-width="2" stroke-miterlimit="10"/>
<path d="M349.315 446.406C336.771 433.78 323.779 440.227 320.643 442.108C317.507 440.227 304.604 433.78 291.971 446.406C291.971 446.406 300.304 464.853 318.134 466.465C318.403 466.465 318.672 466.465 318.94 466.465C319.12 466.465 319.299 466.465 319.478 466.465C319.837 466.465 320.195 466.465 320.553 466.465C320.912 466.465 321.27 466.465 321.629 466.465C321.808 466.465 321.987 466.465 322.166 466.465C322.435 466.465 322.704 466.465 322.973 466.465C340.982 464.853 349.315 446.406 349.315 446.406Z" fill="#D6719B" stroke="black" stroke-width="2" stroke-miterlimit="10"/>
<path d="M271.721 434.585C271.721 434.585 291.254 452.943 319.388 452.584C347.523 452.316 367.952 433.958 367.952 433.958" stroke="black" stroke-width="2" stroke-miterlimit="10"/>
<path d="M296.452 307.514C296.452 307.514 319.48 290.231 340.984 307.514L353.259 245.993H284.983L296.452 307.514Z" fill="#2D401D" stroke="black" stroke-width="2" stroke-miterlimit="10"/>
<path d="M319.122 287.365C335.65 287.365 349.049 273.974 349.049 257.456C349.049 240.937 335.65 227.546 319.122 227.546C302.594 227.546 289.195 240.937 289.195 257.456C289.195 273.974 302.594 287.365 319.122 287.365Z" fill="#2D401D" stroke="black" stroke-width="2" stroke-miterlimit="10"/>
<path d="M319.121 280.381C331.79 280.381 342.059 270.117 342.059 257.456C342.059 244.795 331.79 234.531 319.121 234.531C306.453 234.531 296.184 244.795 296.184 257.456C296.184 270.117 306.453 280.381 319.121 280.381Z" fill="#2D401D" stroke="black" stroke-width="2" stroke-miterlimit="10"/>
<path d="M319.121 268.918C325.455 268.918 330.59 263.786 330.59 257.456C330.59 251.125 325.455 245.993 319.121 245.993C312.787 245.993 307.652 251.125 307.652 257.456C307.652 263.786 312.787 268.918 319.121 268.918Z" fill="#2D401D" stroke="black" stroke-width="2" stroke-miterlimit="10"/>
<path d="M319.121 264.889C323.229 264.889 326.558 261.561 326.558 257.456C326.558 253.351 323.229 250.023 319.121 250.023C315.014 250.023 311.685 253.351 311.685 257.456C311.685 261.561 315.014 264.889 319.121 264.889Z" fill="#2D401D" stroke="black" stroke-width="2" stroke-miterlimit="10"/>
<path d="M423.686 378.885C472.181 378.885 511.494 339.594 511.494 291.126C511.494 242.658 472.181 203.367 423.686 203.367C375.19 203.367 335.877 242.658 335.877 291.126C335.877 339.594 375.19 378.885 423.686 378.885Z" fill="#2D401D" stroke="black" stroke-width="2" stroke-miterlimit="10"/>
<path d="M426.374 384.258C476.354 384.258 516.87 343.764 516.87 293.812C516.87 243.861 476.354 203.367 426.374 203.367C376.394 203.367 335.877 243.861 335.877 293.812C335.877 343.764 376.394 384.258 426.374 384.258Z" fill="#0A0B0B"/>
<path d="M423.686 378.885C472.181 378.885 511.494 339.594 511.494 291.126C511.494 242.658 472.181 203.367 423.686 203.367C375.19 203.367 335.877 242.658 335.877 291.126C335.877 339.594 375.19 378.885 423.686 378.885Z" fill="#2D401D" stroke="black" stroke-width="2" stroke-miterlimit="10"/>
<path d="M423.686 373.065C468.965 373.065 505.67 336.38 505.67 291.127C505.67 245.873 468.965 209.188 423.686 209.188C378.407 209.188 341.701 245.873 341.701 291.127C341.701 336.38 378.407 373.065 423.686 373.065Z" fill="#2D401D" stroke="black" stroke-width="2" stroke-miterlimit="10"/>
<path d="M423.686 361.512C462.581 361.512 494.112 330 494.112 291.126C494.112 252.253 462.581 220.74 423.686 220.74C384.791 220.74 353.26 252.253 353.26 291.126C353.26 330 384.791 361.512 423.686 361.512Z" fill="#83CCDB" stroke="black" stroke-width="2" stroke-miterlimit="10"/>
<path d="M212.138 383.541C261.92 383.541 302.277 343.208 302.277 293.454C302.277 243.701 261.92 203.367 212.138 203.367C162.356 203.367 122 243.701 122 293.454C122 343.208 162.356 383.541 212.138 383.541Z" fill="#08090A"/>
<path d="M214.468 378.885C262.963 378.885 302.277 339.594 302.277 291.126C302.277 242.658 262.963 203.367 214.468 203.367C165.972 203.367 126.659 242.658 126.659 291.126C126.659 339.594 165.972 378.885 214.468 378.885Z" fill="#2D401D" stroke="black" stroke-width="2" stroke-miterlimit="10"/>
<path d="M214.468 373.065C259.747 373.065 296.453 336.38 296.453 291.127C296.453 245.873 259.747 209.188 214.468 209.188C169.189 209.188 132.483 245.873 132.483 291.127C132.483 336.38 169.189 373.065 214.468 373.065Z" fill="#2D401D" stroke="black" stroke-width="2" stroke-miterlimit="10"/>
<path d="M214.468 361.512C253.363 361.512 284.894 330 284.894 291.126C284.894 252.253 253.363 220.74 214.468 220.74C175.573 220.74 144.042 252.253 144.042 291.126C144.042 330 175.573 361.512 214.468 361.512Z" fill="#010202"/>
<path d="M211.153 361.602C248.266 361.602 278.353 331.532 278.353 294.44C278.353 257.347 248.266 227.277 211.153 227.277C174.039 227.277 143.952 257.347 143.952 294.44C143.952 331.532 174.039 361.602 211.153 361.602Z" fill="#83CCDB" stroke="black" stroke-width="2" stroke-miterlimit="10"/>
<path d="M468.376 347.613L446.642 361.523L425.327 365H401.436L383.428 355.003L380.572 351.09L379 349.538L383.428 334.48L385.046 329.056L387.857 319.503L389.134 315.213L392.285 304.446L392.966 302.098L393.137 301.37L409.998 243.973L425.327 192L468.376 347.613Z" fill="#A4B635" stroke="black" stroke-width="2" stroke-miterlimit="10"/>
<path d="M425.327 365V296.027V192" stroke="black" stroke-width="2" stroke-miterlimit="10"/>
<path d="M280.977 333.025L262.258 345.005L243.9 348H223.324L207.814 339.389L205.354 336.02L204 334.683L207.814 321.714L209.208 317.042L211.628 308.815L212.728 305.12L215.442 295.846L216.029 293.824L216.175 293.197L230.698 243.763L243.9 199L280.977 333.025Z" fill="#A4B635" stroke="black" stroke-width="2" stroke-miterlimit="10"/>
<path d="M243.9 348V288.595V199" stroke="black" stroke-width="2" stroke-miterlimit="10"/>
<path d="M205.829 329.945L192.01 338.789L178.457 341H163.266L151.816 334.643L149.999 332.156L149 331.168L151.816 321.594L152.845 318.145L154.631 312.072L155.444 309.343L157.447 302.497L157.88 301.005L157.989 300.541L168.71 264.046L178.457 231L205.829 329.945Z" fill="#A4B635" stroke="black" stroke-width="2" stroke-miterlimit="10"/>
<path d="M178.457 341V297.144V231" stroke="black" stroke-width="2" stroke-miterlimit="10"/>
<path d="M265.378 350.036L211 365.5L164.03 352L164.03 340.826L166.431 332.838L168.746 324.932L171.061 317.025L173.376 309.038L175.691 301.131L178.092 293.225L180.407 285.237L182.722 277.331L185.037 269.424L187.352 261.437L189.667 253.53L192.068 245.624L194.383 237.718L196.698 229.73L199.013 221.824L201.328 213.836L203.729 205.929L206.044 198.023L208.359 190.117L213.418 173L218.391 190.117L220.706 198.023L223.107 205.929L225.422 213.836L227.737 221.824L230.052 229.73L232.282 237.229L232.367 237.718L234.768 245.624L237.083 253.53L239.398 261.437L241.713 269.424L242.228 271.136L243.342 274.886L244.028 277.331L246.429 285.237L247.287 288.497L248.573 292.817L248.744 293.225L248.916 293.795L250.288 298.604L251.059 301.131L251.317 302.028L252.517 306.103L253.374 309.038L254.146 311.564L255.689 317.025L256.976 321.182L258.09 324.932L259.805 330.8L260.405 332.838L262.549 340.418L262.72 340.826L265.378 350.036Z" fill="#A4B635" stroke="black" stroke-width="2" stroke-miterlimit="10"/>
<path d="M213.418 173V192.399V201.446V210.412V219.46V228.426V237.473V246.439V255.487V264.452V273.5V282.466V291.513V300.561V301.457V309.527V318.574V327.54V336.587V345.553L213.418 364" stroke="black" stroke-width="2" stroke-miterlimit="10"/>
<path d="M263 341L248.92 346.965L239.767 350.941L234.135 353.302L224.279 357.651L219.069 359.763L215.83 361.13L214 362" stroke="black" stroke-width="2" stroke-miterlimit="10"/>
<path d="M213 362L164 341" stroke="black" stroke-width="2" stroke-miterlimit="10"/>
<path d="M252.859 354.6L255.089 353.541L264.092 349.384L264.863 349.058" stroke="black" stroke-width="2" stroke-miterlimit="10"/>
<path d="M173.977 354.6L161.973 349.058" stroke="black" stroke-width="2" stroke-miterlimit="10"/>
<path d="M166.43 332.837L213.417 354.6L260.404 332.837" stroke="black" stroke-width="2" stroke-miterlimit="10"/>
<path d="M168.746 324.931L213.418 345.553L258.09 324.931" stroke="black" stroke-width="2" stroke-miterlimit="10"/>
<path d="M171.062 317.024L213.419 336.587L255.69 317.024" stroke="black" stroke-width="2" stroke-miterlimit="10"/>
<path d="M173.376 309.037L213.418 327.539L253.374 309.037" stroke="black" stroke-width="2" stroke-miterlimit="10"/>
<path d="M175.691 301.132L213.418 318.575L251.059 301.132" stroke="black" stroke-width="2" stroke-miterlimit="10"/>
<path d="M178.092 293.225L213.418 309.526L248.744 293.225" stroke="black" stroke-width="2" stroke-miterlimit="10"/>
<path d="M180.406 285.236L213.417 300.56L246.428 285.236" stroke="black" stroke-width="2" stroke-miterlimit="10"/>
<path d="M182.723 277.33L213.419 291.512L244.029 277.33" stroke="black" stroke-width="2" stroke-miterlimit="10"/>
<path d="M185.038 269.424L213.419 282.465L241.714 269.424" stroke="black" stroke-width="2" stroke-miterlimit="10"/>
<path d="M187.353 261.438L213.418 273.501L239.399 261.438" stroke="black" stroke-width="2" stroke-miterlimit="10"/>
<path d="M189.754 253.531L213.419 264.453L237.084 253.531" stroke="black" stroke-width="2" stroke-miterlimit="10"/>
<path d="M192.068 245.624L213.418 255.487L234.768 245.624" stroke="black" stroke-width="2" stroke-miterlimit="10"/>
<path d="M194.383 237.719L213.418 246.44L232.367 237.719" stroke="black" stroke-width="2" stroke-miterlimit="10"/>
<path d="M196.699 229.729L213.419 237.472L230.053 229.729" stroke="black" stroke-width="2" stroke-miterlimit="10"/>
<path d="M199.013 221.823L213.418 228.425L227.737 221.823" stroke="black" stroke-width="2" stroke-miterlimit="10"/>
<path d="M201.329 213.916L213.419 219.459L225.423 213.916" stroke="black" stroke-width="2" stroke-miterlimit="10"/>
<path d="M203.73 205.931L213.419 210.414L223.108 205.931" stroke="black" stroke-width="2" stroke-miterlimit="10"/>
<path d="M206.044 198.022L213.418 201.445L220.706 198.022" stroke="black" stroke-width="2" stroke-miterlimit="10"/>
<path d="M208.359 190.116L213.418 192.399L218.391 190.116" stroke="black" stroke-width="2" stroke-miterlimit="10"/>
<path d="M429.022 359.986L393.448 361L377.14 351.892L371.224 345.513L359.462 335.704L361.41 330L355.565 327.61L351.597 325.484L353.545 318.83L355.565 312.176L357.514 305.454L359.462 298.8L361.41 292.147L363.358 285.425L365.307 278.771L367.327 272.117L369.275 265.464L371.224 258.741L373.172 252.088L375.12 245.366L377.141 238.712L379.089 232.058L381.037 225.405L385.294 211L389.479 225.405L391.428 232.058L393.448 238.712L395.396 245.366L397.345 252.088L399.293 258.741L401.169 265.052L401.241 265.464L403.262 272.117L405.21 278.771L407.158 285.425L409.106 292.147L409.539 293.587L410.477 296.743L411.055 298.8L413.075 305.454L413.797 308.198L414.879 311.833L415.023 312.176L415.168 312.656L416.322 316.703L416.972 318.83L417.188 319.584L418.198 323.014L418.92 325.484L419.569 327.61L420.868 332.206L421.95 335.704L422.888 338.859L424.332 343.798L424.837 345.513L426.641 351.892L426.785 352.235L429.022 359.986Z" fill="#A4B635" stroke="black" stroke-width="2" stroke-miterlimit="10"/>
<path d="M385.294 211V227.325V234.939V242.485V250.099V257.644V265.258V272.803V280.417V287.963V295.577V303.122V310.736V318.35V319.104V325.895V333.509V341.054V348.668V356.214L387 360.5" stroke="black" stroke-width="2" stroke-miterlimit="10"/>
<path d="M427.021 352.382L415.171 357.401L407.469 360.748L402.729 362.735H396.5L392 360.748L390.05 359L383.5 356" stroke="black" stroke-width="2" stroke-miterlimit="10"/>
<path d="M418.487 363.827L420.363 362.936L427.94 359.437L428.589 359.163" stroke="black" stroke-width="2" stroke-miterlimit="10"/>
<path d="M385.294 363.826L424.836 345.512" stroke="black" stroke-width="2" stroke-miterlimit="10"/>
<path d="M385.295 356.213L422.889 338.858" stroke="black" stroke-width="2" stroke-miterlimit="10"/>
<path d="M358.5 336L385.295 348.668L420.869 332.205" stroke="black" stroke-width="2" stroke-miterlimit="10"/>
<path d="M351.597 325.483L385.294 341.054L418.92 325.483" stroke="black" stroke-width="2" stroke-miterlimit="10"/>
<path d="M353.545 318.83L385.294 333.509L416.972 318.83" stroke="black" stroke-width="2" stroke-miterlimit="10"/>
<path d="M355.565 312.176L385.294 325.894L415.023 312.176" stroke="black" stroke-width="2" stroke-miterlimit="10"/>
<path d="M357.514 305.453L385.294 318.349L413.075 305.453" stroke="black" stroke-width="2" stroke-miterlimit="10"/>
<path d="M359.463 298.8L385.295 310.735L411.056 298.8" stroke="black" stroke-width="2" stroke-miterlimit="10"/>
<path d="M361.41 292.146L385.294 303.122L409.106 292.146" stroke="black" stroke-width="2" stroke-miterlimit="10"/>
<path d="M363.358 285.426L385.294 295.578L407.158 285.426" stroke="black" stroke-width="2" stroke-miterlimit="10"/>
<path d="M365.379 278.771L385.294 287.963L405.21 278.771" stroke="black" stroke-width="2" stroke-miterlimit="10"/>
<path d="M367.327 272.117L385.294 280.417L403.262 272.117" stroke="black" stroke-width="2" stroke-miterlimit="10"/>
<path d="M369.275 265.465L385.294 272.804L401.241 265.465" stroke="black" stroke-width="2" stroke-miterlimit="10"/>
<path d="M371.225 258.74L385.295 265.257L399.294 258.74" stroke="black" stroke-width="2" stroke-miterlimit="10"/>
<path d="M373.172 252.088L385.294 257.644L397.345 252.088" stroke="black" stroke-width="2" stroke-miterlimit="10"/>
<path d="M375.12 245.434L385.294 250.098L395.396 245.434" stroke="black" stroke-width="2" stroke-miterlimit="10"/>
<path d="M377.142 238.713L385.295 242.485L393.449 238.713" stroke="black" stroke-width="2" stroke-miterlimit="10"/>
<path d="M379.089 232.058L385.294 234.938L391.428 232.058" stroke="black" stroke-width="2" stroke-miterlimit="10"/>
<path d="M381.037 225.404L385.294 227.325L389.48 225.404" stroke="black" stroke-width="2" stroke-miterlimit="10"/>
<path d="M417.001 359.986L452.574 361L468.882 351.892L474.799 345.513L486.561 335.704L484.612 330L490.457 327.61L494.426 325.484L492.478 318.83L490.457 312.176L488.509 305.454L486.561 298.8L484.612 292.147L482.664 285.425L480.716 278.771L478.695 272.117L476.747 265.464L474.799 258.741L472.851 252.088L470.902 245.366L468.882 238.712L466.934 232.058L464.985 225.405L460.728 211L456.543 225.405L454.595 232.058L452.574 238.712L450.626 245.366L448.678 252.088L446.73 258.741L444.853 265.052L444.781 265.464L442.761 272.117L440.813 278.771L438.864 285.425L436.916 292.147L436.483 293.587L435.545 296.743L434.968 298.8L432.947 305.454L432.226 308.198L431.143 311.833L430.999 312.176L430.855 312.656L429.7 316.703L429.051 318.83L428.834 319.584L427.824 323.014L427.103 325.484L426.453 327.61L425.154 332.206L424.072 335.704L423.134 338.859L421.691 343.798L421.186 345.513L419.382 351.892L419.237 352.235L417.001 359.986Z" fill="#A4B635" stroke="black" stroke-width="2" stroke-miterlimit="10"/>
<path d="M460.729 211V227.325V234.939V242.485V250.099V257.644V265.258V272.803V280.417V287.963V295.577V303.122V310.736V318.35V319.104V325.895V333.509V341.054V348.668V356.214L459.023 360.5" stroke="black" stroke-width="2" stroke-miterlimit="10"/>
<path d="M419.001 352.382L430.851 357.401L438.553 360.748L443.293 362.735H449.522L454.022 360.748L455.972 359L462.522 356" stroke="black" stroke-width="2" stroke-miterlimit="10"/>
<path d="M427.535 363.827L425.659 362.936L418.083 359.437L417.433 359.163" stroke="black" stroke-width="2" stroke-miterlimit="10"/>
<path d="M460.729 363.826L421.186 345.512" stroke="black" stroke-width="2" stroke-miterlimit="10"/>
<path d="M460.728 356.213L423.133 338.858" stroke="black" stroke-width="2" stroke-miterlimit="10"/>
<path d="M487.522 336L460.728 348.668L425.154 332.205" stroke="black" stroke-width="2" stroke-miterlimit="10"/>
<path d="M494.426 325.483L460.728 341.054L427.103 325.483" stroke="black" stroke-width="2" stroke-miterlimit="10"/>
<path d="M492.478 318.83L460.728 333.509L429.051 318.83" stroke="black" stroke-width="2" stroke-miterlimit="10"/>
<path d="M490.457 312.176L460.728 325.894L430.999 312.176" stroke="black" stroke-width="2" stroke-miterlimit="10"/>
<path d="M488.509 305.453L460.728 318.349L432.947 305.453" stroke="black" stroke-width="2" stroke-miterlimit="10"/>
<path d="M486.56 298.8L460.727 310.735L434.967 298.8" stroke="black" stroke-width="2" stroke-miterlimit="10"/>
<path d="M484.612 292.146L460.728 303.122L436.916 292.146" stroke="black" stroke-width="2" stroke-miterlimit="10"/>
<path d="M482.664 285.426L460.728 295.578L438.864 285.426" stroke="black" stroke-width="2" stroke-miterlimit="10"/>
<path d="M480.644 278.771L460.728 287.963L440.813 278.771" stroke="black" stroke-width="2" stroke-miterlimit="10"/>
<path d="M478.695 272.117L460.728 280.417L442.761 272.117" stroke="black" stroke-width="2" stroke-miterlimit="10"/>
<path d="M476.747 265.465L460.728 272.804L444.781 265.465" stroke="black" stroke-width="2" stroke-miterlimit="10"/>
<path d="M474.798 258.74L460.727 265.257L446.729 258.74" stroke="black" stroke-width="2" stroke-miterlimit="10"/>
<path d="M472.851 252.088L460.728 257.644L448.678 252.088" stroke="black" stroke-width="2" stroke-miterlimit="10"/>
<path d="M470.902 245.434L460.728 250.098L450.626 245.434" stroke="black" stroke-width="2" stroke-miterlimit="10"/>
<path d="M468.881 238.713L460.727 242.485L452.573 238.713" stroke="black" stroke-width="2" stroke-miterlimit="10"/>
<path d="M466.934 232.058L460.728 234.938L454.595 232.058" stroke="black" stroke-width="2" stroke-miterlimit="10"/>
<path d="M464.985 225.404L460.728 227.325L456.543 225.404" stroke="black" stroke-width="2" stroke-miterlimit="10"/>
<path d="M494.112 291.217C494.112 329.992 462.662 361.513 423.775 361.692C384.889 361.782 353.26 330.35 353.17 291.396V291.217H341.701V291.396C341.791 336.618 378.617 373.244 423.865 373.065C469.113 372.975 505.67 336.35 505.67 291.127H494.112V291.217Z" fill="#2D401D" stroke="black" stroke-width="2" stroke-miterlimit="10"/>
<path d="M352.274 290.231H342.597V292.47H352.274V290.231Z" fill="#2D401D"/>
<path d="M504.685 290.142H495.008V292.38H504.685V290.142Z" fill="#2D401D"/>
<path d="M284.087 291.217C284.087 329.992 253.533 361.513 214.646 361.692C175.76 361.782 144.131 330.35 144.041 291.396V291.217H132.572V291.396C132.662 336.618 169.488 373.244 214.736 373.065C259.984 372.975 296.542 336.35 296.542 291.127H284.087V291.217Z" fill="#2D401D" stroke="black" stroke-width="2" stroke-miterlimit="10"/>
<path d="M143.056 290.231H133.379V292.47H143.056V290.231Z" fill="#2D401D"/>
<path d="M295.467 290.142H284.895V292.38H295.467V290.142Z" fill="#2D401D"/>
<path d="M330.768 189.667C330.768 189.667 328.887 187.697 325.661 182.234C322.435 176.772 327.184 164.951 327.184 164.951L353.437 189.756" fill="#39B29C"/>
<path d="M330.768 189.667C330.768 189.667 328.887 187.697 325.661 182.234C322.435 176.772 327.184 164.951 327.184 164.951L353.437 189.756" stroke="black" stroke-width="2" stroke-miterlimit="10"/>
<path d="M324.675 178.921H342.147" stroke="black" stroke-width="2" stroke-miterlimit="10" stroke-linecap="round" stroke-linejoin="round"/>
<path d="M337.937 178.921C337.757 178.921 326.109 168.443 326.109 168.443L337.937 178.921Z" fill="#D0A021"/>
<path d="M337.937 178.921C337.757 178.921 326.109 168.443 326.109 168.443" stroke="black" stroke-width="2" stroke-miterlimit="10" stroke-linecap="round" stroke-linejoin="round"/>
<path d="M332.202 178.921C332.023 178.921 325.213 172.742 325.213 172.742L332.202 178.921Z" fill="#D0A021"/>
<path d="M332.202 178.921C332.023 178.921 325.213 172.742 325.213 172.742" stroke="black" stroke-width="2" stroke-miterlimit="10" stroke-linecap="round" stroke-linejoin="round"/>
<path d="M318.313 189.756C318.134 190.204 343.312 214.293 359.261 197.726C359.261 197.726 364.995 196.562 364.906 192.711C364.816 188.861 357.827 189.756 347.344 189.756C336.95 189.756 318.313 189.756 318.313 189.756Z" fill="#F9B233" stroke="black" stroke-width="2" stroke-miterlimit="10"/>
<path d="M373.329 192.981L364.906 192.712" stroke="black" stroke-width="2" stroke-miterlimit="10"/>
<path d="M359.081 194.324C359.626 194.324 360.067 193.883 360.067 193.339C360.067 192.795 359.626 192.354 359.081 192.354C358.537 192.354 358.096 192.795 358.096 193.339C358.096 193.883 358.537 194.324 359.081 194.324Z" fill="black"/>
<path d="M144.937 394.198C144.937 394.198 146.818 392.228 150.044 386.765C153.269 381.303 148.521 369.482 148.521 369.482L122.268 394.288" fill="#A5A52C"/>
<path d="M144.937 394.198C144.937 394.198 146.818 392.228 150.044 386.765C153.269 381.303 148.521 369.482 148.521 369.482L122.268 394.288" stroke="black" stroke-width="2" stroke-miterlimit="10"/>
<path d="M151.029 383.452H133.646" stroke="black" stroke-width="2" stroke-miterlimit="10" stroke-linecap="round" stroke-linejoin="round"/>
<path d="M137.858 383.452C138.038 383.452 149.686 372.975 149.686 372.975L137.858 383.452Z" fill="#D0A021"/>
<path d="M137.858 383.452C138.038 383.452 149.686 372.975 149.686 372.975" stroke="black" stroke-width="2" stroke-miterlimit="10" stroke-linecap="round" stroke-linejoin="round"/>
<path d="M143.592 383.452C143.771 383.452 150.581 377.273 150.581 377.273L143.592 383.452Z" fill="#D0A021"/>
<path d="M143.592 383.452C143.771 383.452 150.581 377.273 150.581 377.273" stroke="black" stroke-width="2" stroke-miterlimit="10" stroke-linecap="round" stroke-linejoin="round"/>
<path d="M157.481 394.288C157.66 394.735 132.483 418.824 116.534 402.257C116.534 402.257 110.799 401.093 110.889 397.243C110.978 393.392 117.967 394.288 128.45 394.288C138.934 394.288 157.481 394.288 157.481 394.288Z" fill="#EB5758" stroke="black" stroke-width="2" stroke-miterlimit="10"/>
<path d="M102.466 397.512L110.888 397.243" stroke="black" stroke-width="2" stroke-miterlimit="10"/>
<path d="M116.622 398.855C117.167 398.855 117.608 398.414 117.608 397.87C117.608 397.326 117.167 396.885 116.622 396.885C116.078 396.885 115.637 397.326 115.637 397.87C115.637 398.414 116.078 398.855 116.622 398.855Z" fill="black"/>
</g>
<defs>
<clipPath id="clip0_19_4853">
<rect width="635" height="545" fill="white" transform="translate(0.5)"/>
</clipPath>
</defs>
</svg>
