<svg width="636" height="545" fill="none" xmlns="http://www.w3.org/2000/svg"><g clip-path="url(#a)"><path d="m237.135 544.104 12.633-62.327h142.376l9.498 62.327H237.135Z" fill="#FEBE9A" stroke="#000" stroke-width="2" stroke-miterlimit="10"/><path d="m401.642 544.105-6.451-42.715-92.468 30.357 98.919 12.358Z" fill="#010202"/><path d="M149.506 381.124s44.621 155.011 171.227 150.265c126.695-4.747 156.263-128.594 156.263-128.594l60.391-237.396s-65.498-87.938-67.111-88.296c-1.613-.359-262.351-4.747-262.351-4.747s-77.594 55.521-80.282 60.805c-2.688 5.373 21.863 247.963 21.863 247.963Z" fill="#FEBE9A" stroke="#000" stroke-width="2" stroke-miterlimit="10"/><path d="M108.648 131.101S144.668-3.134 320.285.985c175.618 4.12 212.354 134.862 212.354 134.862" fill="#D88532"/><path d="M108.648 131.101S144.668-3.134 320.285.985c175.618 4.12 212.354 134.862 212.354 134.862m-44.353 408.257H147.804" stroke="#000" stroke-width="2" stroke-miterlimit="10"/><path d="M521.618 222.442c24.281-27.134 28.672-57.401 24.461-74.326-2.24-9.134-5.108-16.836-19.354-26.059-195.957-127.25-356.7-22.835-410.192-3.045-16.218 6-27.328 21.134-28.224 38.506-2.42 45.581 28.045 68.954 28.045 68.954s169.076-154.742 405.264-4.03Z" fill="#D88532" stroke="#000" stroke-width="2" stroke-miterlimit="10"/><path d="M106.229 139.967s-9.945 39.849 21.236 74.237m1.342-86.774s-10.124 38.775 18.458 74.595m7.796-88.655s-13.351 45.581 17.741 79.968m10.035-92.236s-10.394 45.58 13.799 79.968m19.891-91.789s-11.379 40.835 5.197 84.446m27.955-93.58s-8.422 46.208 2.868 82.565m277.403-24.716s9.946 39.85-21.235 74.237m-.627-87.221s9.408 39.312-19.175 75.042m-7.168-89.549s12.813 46.476-18.368 80.953m-9.856-94.028s10.214 47.282-13.978 81.669m-20.07-94.205s11.558 43.252-5.018 86.863m-28.045-95.55s7.616 51.133-3.674 87.49m-98.202-89.461s-5.914 47.999 1.523 84.356m34.138-88.385s-2.778 50.148.896 86.505m32.436-85.52s8.064 51.044.896 87.311" stroke="#000" stroke-width="2" stroke-miterlimit="10"/><path d="m2.113 544.105 113.524-178.204s-43.098-53.82-20.608-113.012 66.305-77.461 81.895-82.207c15.591-4.746 36.288-10.656 44.8 1.344 8.513 11.999 2.151 32.596-20.07 33.76-22.131 1.164-49.012 40.118-49.012 40.118l108.507 115.519s30.195-15.671 37.901 3.224c7.706 18.895-12.455 31.343-12.455 31.343s-38.707 28.566-93.095 22.118l-45.965 125.907H2.113v.09Z" fill="#FEBE9A" stroke="#000" stroke-width="2" stroke-miterlimit="10"/><path d="M152.194 181.966s18.996-4.925 24.282 8.149c5.197 12.985-1.075 24.178-1.075 24.178" stroke="#000" stroke-width="2" stroke-miterlimit="10"/><path d="M129.884 199.159s19.533 8.776 28.224-1.97c8.691-10.746 7.258-16.119 7.258-16.119m15.232-11.373s13.798-.537 18.099 7.433 3.226 14.865 3.226 14.865" stroke="#000" stroke-width="2" stroke-miterlimit="10"/><path d="M175.76 188.592s13.529-5.552 14.694-17.552m23.028-4.835s-2.151 11.462-13.171 14.865" stroke="#000" stroke-width="2" stroke-miterlimit="10"/><path d="m143.861 544.105 29.569-132.892s12.275 5.194 20.07 6.985l-45.696 125.907h-3.943Z" fill="#000"/><path d="M301.2 374.139s-13.798-2.328-20.16 6.806c-6.361 9.134-5.645 21.94-5.645 21.94M193.5 418.198s-7.257-1.612-24.371-9.672" stroke="#000" stroke-width="2" stroke-miterlimit="10"/><path d="M633.888 544.105 520.364 365.901s43.098-53.82 20.608-113.012c-22.489-59.192-66.304-77.461-81.895-82.207-15.59-4.746-36.288-10.656-44.8 1.344-8.512 11.999-2.15 32.596 20.071 33.76 22.131 1.164 49.011 40.118 49.011 40.118L374.853 361.423s-30.196-15.671-37.901 3.224c-7.706 18.895 12.454 31.343 12.454 31.343s38.708 28.566 93.095 22.118l45.965 125.907h145.422v.09Z" fill="#FEBE9A" stroke="#000" stroke-width="2" stroke-miterlimit="10"/><path d="M483.807 181.966s-18.995-4.925-24.282 8.149c-5.197 12.985 1.076 24.178 1.076 24.178" stroke="#000" stroke-width="2" stroke-miterlimit="10"/><path d="M506.207 199.159s-19.533 8.776-28.224-1.97c-8.692-10.746-7.258-16.119-7.258-16.119m-15.321-11.373s-13.799-.537-18.1 7.433c-4.211 7.97-3.225 14.865-3.225 14.865" stroke="#000" stroke-width="2" stroke-miterlimit="10"/><path d="M460.331 188.592s-13.529-5.552-14.694-17.552m-23.117-4.835s2.15 11.462 13.171 14.865" stroke="#000" stroke-width="2" stroke-miterlimit="10"/><path d="m492.14 544.105-29.568-132.892s-12.276 5.194-20.071 6.985l45.696 125.907h3.943Z" fill="#000"/><path d="M334.801 374.139s13.798-2.328 20.16 6.806 5.645 21.94 5.645 21.94m81.895 15.313s7.258-1.612 24.371-9.672m-169.435-60.625s24.102 20.418 43.635 0" stroke="#000" stroke-width="2" stroke-miterlimit="10"/><path d="M349.315 446.406c-12.544-12.626-25.536-6.179-28.672-4.298-3.136-1.881-16.039-8.328-28.672 4.298 0 0 8.333 18.447 26.163 20.059h4.839c18.009-1.612 26.342-20.059 26.342-20.059Z" fill="#D6719B" stroke="#000" stroke-width="2" stroke-miterlimit="10"/><path d="M271.721 434.585s19.533 18.358 47.667 17.999c28.135-.268 48.564-18.626 48.564-18.626" stroke="#000" stroke-width="2" stroke-miterlimit="10"/><path d="M296.452 307.514s23.028-17.283 44.532 0l12.275-61.521h-68.276l11.469 61.521Z" fill="#2D401D" stroke="#000" stroke-width="2" stroke-miterlimit="10"/><path d="M319.122 287.365c16.528 0 29.927-13.391 29.927-29.909 0-16.519-13.399-29.91-29.927-29.91s-29.927 13.391-29.927 29.91c0 16.518 13.399 29.909 29.927 29.909Z" fill="#2D401D" stroke="#000" stroke-width="2" stroke-miterlimit="10"/><path d="M319.121 280.381c12.669 0 22.938-10.264 22.938-22.925 0-12.661-10.269-22.925-22.938-22.925-12.668 0-22.937 10.264-22.937 22.925 0 12.661 10.269 22.925 22.937 22.925Z" fill="#2D401D" stroke="#000" stroke-width="2" stroke-miterlimit="10"/><path d="M319.121 268.918c6.334 0 11.469-5.132 11.469-11.462 0-6.331-5.135-11.463-11.469-11.463s-11.469 5.132-11.469 11.463c0 6.33 5.135 11.462 11.469 11.462Z" fill="#2D401D" stroke="#000" stroke-width="2" stroke-miterlimit="10"/><path d="M319.121 264.889a7.435 7.435 0 0 0 7.437-7.433 7.435 7.435 0 0 0-7.437-7.433 7.434 7.434 0 0 0-7.436 7.433 7.434 7.434 0 0 0 7.436 7.433Zm104.565 113.996c48.495 0 87.808-39.291 87.808-87.759s-39.313-87.759-87.808-87.759c-48.496 0-87.809 39.291-87.809 87.759s39.313 87.759 87.809 87.759Z" fill="#2D401D" stroke="#000" stroke-width="2" stroke-miterlimit="10"/><path d="M426.374 384.258c49.98 0 90.496-40.494 90.496-90.446 0-49.951-40.516-90.445-90.496-90.445s-90.497 40.494-90.497 90.445c0 49.952 40.517 90.446 90.497 90.446Z" fill="#0A0B0B"/><path d="M423.686 378.885c48.495 0 87.808-39.291 87.808-87.759s-39.313-87.759-87.808-87.759c-48.496 0-87.809 39.291-87.809 87.759s39.313 87.759 87.809 87.759Z" fill="#2D401D" stroke="#000" stroke-width="2" stroke-miterlimit="10"/><path d="M423.686 373.065c45.279 0 81.984-36.685 81.984-81.938 0-45.254-36.705-81.939-81.984-81.939-45.279 0-81.985 36.685-81.985 81.939 0 45.253 36.706 81.938 81.985 81.938Z" fill="#2D401D" stroke="#000" stroke-width="2" stroke-miterlimit="10"/><path d="M423.686 361.512c38.895 0 70.426-31.512 70.426-70.386 0-38.873-31.531-70.386-70.426-70.386s-70.426 31.513-70.426 70.386c0 38.874 31.531 70.386 70.426 70.386Z" fill="#83CCDB" stroke="#000" stroke-width="2" stroke-miterlimit="10"/><path d="M212.138 383.541c49.782 0 90.139-40.333 90.139-90.087 0-49.753-40.357-90.087-90.139-90.087S122 243.701 122 293.454c0 49.754 40.356 90.087 90.138 90.087Z" fill="#08090A"/><path d="M214.468 378.885c48.495 0 87.809-39.291 87.809-87.759s-39.314-87.759-87.809-87.759c-48.496 0-87.809 39.291-87.809 87.759s39.313 87.759 87.809 87.759Z" fill="#2D401D" stroke="#000" stroke-width="2" stroke-miterlimit="10"/><path d="M214.468 373.065c45.279 0 81.985-36.685 81.985-81.938 0-45.254-36.706-81.939-81.985-81.939-45.279 0-81.985 36.685-81.985 81.939 0 45.253 36.706 81.938 81.985 81.938Z" fill="#2D401D" stroke="#000" stroke-width="2" stroke-miterlimit="10"/><path d="M214.468 361.512c38.895 0 70.426-31.512 70.426-70.386 0-38.873-31.531-70.386-70.426-70.386s-70.426 31.513-70.426 70.386c0 38.874 31.531 70.386 70.426 70.386Z" fill="#010202"/><path d="M211.153 361.602c37.113 0 67.2-30.07 67.2-67.162 0-37.093-30.087-67.163-67.2-67.163-37.114 0-67.201 30.07-67.201 67.163 0 37.092 30.087 67.162 67.201 67.162Z" fill="#83CCDB" stroke="#000" stroke-width="2" stroke-miterlimit="10"/><path d="m468.376 347.613-21.734 13.91L425.327 365h-23.891l-18.008-9.997-2.856-3.913-1.572-1.552 4.428-15.058 1.618-5.424 2.811-9.553 1.277-4.29 3.151-10.767.681-2.348.171-.728 16.861-57.397L425.327 192l43.049 155.613Z" fill="#A4B635" stroke="#000" stroke-width="2" stroke-miterlimit="10"/><path d="M425.327 365V192" stroke="#000" stroke-width="2" stroke-miterlimit="10"/><path d="m280.977 333.025-18.719 11.98L243.9 348h-20.576l-15.51-8.611-2.46-3.369-1.354-1.337 3.814-12.969 1.394-4.672 2.42-8.227 1.1-3.695 2.714-9.274.587-2.022.146-.627 14.523-49.434L243.9 199l37.077 134.025Z" fill="#A4B635" stroke="#000" stroke-width="2" stroke-miterlimit="10"/><path d="M243.9 348V199" stroke="#000" stroke-width="2" stroke-miterlimit="10"/><path d="m205.829 329.945-13.819 8.844L178.457 341h-15.191l-11.45-6.357-1.817-2.487-.999-.988 2.816-9.574 1.029-3.449 1.786-6.073.813-2.729 2.003-6.846.433-1.492.109-.464 10.721-36.495L178.457 231l27.372 98.945Z" fill="#A4B635" stroke="#000" stroke-width="2" stroke-miterlimit="10"/><path d="M178.457 341V231" stroke="#000" stroke-width="2" stroke-miterlimit="10"/><path d="M265.378 350.036 211 365.5 164.03 352v-11.174l2.401-7.988 2.315-7.906 2.315-7.907 2.315-7.987 2.315-7.907 2.401-7.906 2.315-7.988 2.315-7.906 2.315-7.907 2.315-7.987 2.315-7.907 2.401-7.906 2.315-7.906 2.315-7.988 2.315-7.906 2.315-7.988 2.401-7.907 2.315-7.906 2.315-7.906L213.418 173l4.973 17.117 2.315 7.906 2.401 7.906 2.315 7.907 2.315 7.988 2.315 7.906 2.23 7.499.085.489 2.401 7.906 2.315 7.906 2.315 7.907 2.315 7.987.515 1.712 1.114 3.75.686 2.445 2.401 7.906.858 3.26 1.286 4.32.171.408.172.57 1.372 4.809.771 2.527.258.897 1.2 4.075.857 2.935.772 2.526 1.543 5.461 1.287 4.157 1.114 3.75 1.715 5.868.6 2.038 2.144 7.58.171.408 2.658 9.21Z" fill="#A4B635" stroke="#000" stroke-width="2" stroke-miterlimit="10"/><path d="M213.418 173v191M263 341l-14.08 5.965-9.153 3.976-5.632 2.361-9.856 4.349-5.21 2.112-3.239 1.367-1.83.87m-1 0-49-21m88.859 13.6 2.23-1.059 9.003-4.157.771-.326m-90.886 5.542-12.004-5.542m4.457-16.221 46.987 21.763 46.987-21.763" stroke="#000" stroke-width="2" stroke-miterlimit="10"/><path d="m168.746 324.931 44.672 20.622 44.672-20.622" stroke="#000" stroke-width="2" stroke-miterlimit="10"/><path d="m171.062 317.024 42.357 19.563 42.271-19.563" stroke="#000" stroke-width="2" stroke-miterlimit="10"/><path d="m173.376 309.037 40.042 18.502 39.956-18.502" stroke="#000" stroke-width="2" stroke-miterlimit="10"/><path d="m175.691 301.132 37.727 17.443 37.641-17.443" stroke="#000" stroke-width="2" stroke-miterlimit="10"/><path d="m178.092 293.225 35.326 16.301 35.326-16.301" stroke="#000" stroke-width="2" stroke-miterlimit="10"/><path d="m180.406 285.236 33.011 15.324 33.011-15.324" stroke="#000" stroke-width="2" stroke-miterlimit="10"/><path d="m182.723 277.33 30.696 14.182 30.61-14.182" stroke="#000" stroke-width="2" stroke-miterlimit="10"/><path d="m185.038 269.424 28.381 13.041 28.295-13.041" stroke="#000" stroke-width="2" stroke-miterlimit="10"/><path d="m187.353 261.438 26.065 12.063 25.981-12.063" stroke="#000" stroke-width="2" stroke-miterlimit="10"/><path d="m189.754 253.531 23.665 10.922 23.665-10.922" stroke="#000" stroke-width="2" stroke-miterlimit="10"/><path d="m192.068 245.624 21.35 9.863 21.35-9.863" stroke="#000" stroke-width="2" stroke-miterlimit="10"/><path d="m194.383 237.719 19.035 8.721 18.949-8.721m-35.668-7.99 16.72 7.743 16.634-7.743m-31.04-7.906 14.405 6.602 14.319-6.602m-26.408-7.907 12.09 5.543 12.004-5.543m-21.693-7.985 9.689 4.483 9.689-4.483m-17.064-7.909 7.374 3.423 7.288-3.423m-12.347-7.906 5.059 2.283 4.973-2.283" stroke="#000" stroke-width="2" stroke-miterlimit="10"/><path d="M429.022 359.986 393.448 361l-16.308-9.108-5.916-6.379-11.762-9.809L361.41 330l-5.845-2.39-3.968-2.126 1.948-6.654 2.02-6.654 1.949-6.722 1.948-6.654 1.948-6.653 1.948-6.722 1.949-6.654 2.02-6.654 1.948-6.653 1.949-6.723 1.948-6.653 1.948-6.722 2.021-6.654 1.948-6.654 1.948-6.653L385.294 211l4.185 14.405 1.949 6.653 2.02 6.654 1.948 6.654 1.949 6.722 1.948 6.653 1.876 6.311.072.412 2.021 6.653 1.948 6.654 1.948 6.654 1.948 6.722.433 1.44.938 3.156.578 2.057 2.02 6.654.722 2.744 1.082 3.635.144.343.145.48 1.154 4.047.65 2.127.216.754 1.01 3.43.722 2.47.649 2.126 1.299 4.596 1.082 3.498.938 3.155 1.444 4.939.505 1.715 1.804 6.379.144.343 2.237 7.751Z" fill="#A4B635" stroke="#000" stroke-width="2" stroke-miterlimit="10"/><path d="M385.294 211v145.214L387 360.5" stroke="#000" stroke-width="2" stroke-miterlimit="10"/><path d="m427.021 352.382-11.85 5.019-7.702 3.347-4.74 1.987H396.5l-4.5-1.987-1.95-1.748-6.55-3m34.987 7.827 1.876-.891 7.577-3.499.649-.274m-43.295 4.663 39.542-18.314m-39.541 10.701 37.594-17.355M358.5 336l26.795 12.668 35.574-16.463" stroke="#000" stroke-width="2" stroke-miterlimit="10"/><path d="m351.597 325.483 33.697 15.571 33.626-15.571" stroke="#000" stroke-width="2" stroke-miterlimit="10"/><path d="m353.545 318.83 31.749 14.679 31.678-14.679" stroke="#000" stroke-width="2" stroke-miterlimit="10"/><path d="m355.565 312.176 29.729 13.718 29.729-13.718" stroke="#000" stroke-width="2" stroke-miterlimit="10"/><path d="m357.514 305.453 27.78 12.896 27.781-12.896" stroke="#000" stroke-width="2" stroke-miterlimit="10"/><path d="m359.463 298.8 25.832 11.935 25.761-11.935" stroke="#000" stroke-width="2" stroke-miterlimit="10"/><path d="m361.41 292.146 23.884 10.976 23.812-10.976" stroke="#000" stroke-width="2" stroke-miterlimit="10"/><path d="m363.358 285.426 21.936 10.152 21.864-10.152" stroke="#000" stroke-width="2" stroke-miterlimit="10"/><path d="m365.379 278.771 19.915 9.192 19.916-9.192" stroke="#000" stroke-width="2" stroke-miterlimit="10"/><path d="m367.327 272.117 17.967 8.3 17.968-8.3" stroke="#000" stroke-width="2" stroke-miterlimit="10"/><path d="m369.275 265.465 16.019 7.339 15.947-7.339m-30.016-6.725 14.07 6.517 13.999-6.517m-26.122-6.652 12.122 5.556 12.051-5.556m-22.225-6.654 10.174 4.664 10.102-4.664m-18.254-6.721 8.153 3.772 8.154-3.772m-14.36-6.655 6.205 2.88 6.134-2.88m-10.391-6.654 4.257 1.921 4.186-1.921" stroke="#000" stroke-width="2" stroke-miterlimit="10"/><path d="M417.001 359.986 452.574 361l16.308-9.108 5.917-6.379 11.762-9.809-1.949-5.704 5.845-2.39 3.969-2.126-1.948-6.654-2.021-6.654-1.948-6.722-1.948-6.654-1.949-6.653-1.948-6.722-1.948-6.654-2.021-6.654-1.948-6.653-1.948-6.723-1.948-6.653-1.949-6.722-2.02-6.654-1.948-6.654-1.949-6.653L460.728 211l-4.185 14.405-1.948 6.653-2.021 6.654-1.948 6.654-1.948 6.722-1.948 6.653-1.877 6.311-.072.412-2.02 6.653-1.948 6.654-1.949 6.654-1.948 6.722-.433 1.44-.938 3.156-.577 2.057-2.021 6.654-.721 2.744-1.083 3.635-.144.343-.144.48-1.155 4.047-.649 2.127-.217.754-1.01 3.43-.721 2.47-.65 2.126-1.299 4.596-1.082 3.498-.938 3.155-1.443 4.939-.505 1.715-1.804 6.379-.145.343-2.236 7.751Z" fill="#A4B635" stroke="#000" stroke-width="2" stroke-miterlimit="10"/><path d="M460.729 211v145.214l-1.706 4.286" stroke="#000" stroke-width="2" stroke-miterlimit="10"/><path d="m419.001 352.382 11.85 5.019 7.702 3.347 4.74 1.987h6.229l4.5-1.987 1.95-1.748 6.55-3m-34.987 7.827-1.876-.891-7.576-3.499-.65-.274m43.296 4.663-39.543-18.314m39.542 10.701-37.595-17.355M487.522 336l-26.794 12.668-35.574-16.463" stroke="#000" stroke-width="2" stroke-miterlimit="10"/><path d="m494.426 325.483-33.698 15.571-33.625-15.571" stroke="#000" stroke-width="2" stroke-miterlimit="10"/><path d="m492.478 318.83-31.75 14.679-31.677-14.679" stroke="#000" stroke-width="2" stroke-miterlimit="10"/><path d="m490.457 312.176-29.729 13.718-29.729-13.718" stroke="#000" stroke-width="2" stroke-miterlimit="10"/><path d="m488.509 305.453-27.781 12.896-27.781-12.896" stroke="#000" stroke-width="2" stroke-miterlimit="10"/><path d="m486.56 298.8-25.833 11.935-25.76-11.935" stroke="#000" stroke-width="2" stroke-miterlimit="10"/><path d="m484.612 292.146-23.884 10.976-23.812-10.976" stroke="#000" stroke-width="2" stroke-miterlimit="10"/><path d="m482.664 285.426-21.936 10.152-21.864-10.152" stroke="#000" stroke-width="2" stroke-miterlimit="10"/><path d="m480.644 278.771-19.916 9.192-19.915-9.192" stroke="#000" stroke-width="2" stroke-miterlimit="10"/><path d="m478.695 272.117-17.967 8.3-17.967-8.3" stroke="#000" stroke-width="2" stroke-miterlimit="10"/><path d="m476.747 265.465-16.019 7.339-15.947-7.339m30.017-6.725-14.071 6.517-13.998-6.517m26.122-6.652-12.123 5.556-12.05-5.556m22.224-6.654-10.174 4.664-10.102-4.664m18.255-6.721-8.154 3.772-8.154-3.772m14.361-6.655-6.206 2.88-6.133-2.88m10.39-6.654-4.257 1.921-4.185-1.921" stroke="#000" stroke-width="2" stroke-miterlimit="10"/><path d="M494.112 291.217c0 38.775-31.45 70.296-70.337 70.475-38.886.09-70.515-31.342-70.605-70.296v-.179h-11.469v.179c.09 45.222 36.916 81.848 82.164 81.669 45.248-.09 81.805-36.715 81.805-81.938h-11.558v.09Z" fill="#2D401D" stroke="#000" stroke-width="2" stroke-miterlimit="10"/><path d="M352.274 290.231h-9.677v2.239h9.677v-2.239Zm152.411-.089h-9.677v2.238h9.677v-2.238Z" fill="#2D401D"/><path d="M284.087 291.217c0 38.775-30.554 70.296-69.441 70.475-38.886.09-70.515-31.342-70.605-70.296v-.179h-11.469v.179c.09 45.222 36.916 81.848 82.164 81.669 45.248-.09 81.806-36.715 81.806-81.938h-12.455v.09Z" fill="#2D401D" stroke="#000" stroke-width="2" stroke-miterlimit="10"/><path d="M143.056 290.231h-9.677v2.239h9.677v-2.239Zm152.411-.089h-10.572v2.238h10.572v-2.238Z" fill="#2D401D"/><path d="M330.768 189.667s-1.881-1.97-5.107-7.433c-3.226-5.462 1.523-17.283 1.523-17.283l26.253 24.805" fill="#39B29C"/><path d="M330.768 189.667s-1.881-1.97-5.107-7.433c-3.226-5.462 1.523-17.283 1.523-17.283l26.253 24.805" stroke="#000" stroke-width="2" stroke-miterlimit="10"/><path d="M324.675 178.921h17.472" stroke="#000" stroke-width="2" stroke-miterlimit="10" stroke-linecap="round" stroke-linejoin="round"/><path d="M337.937 178.921c-.18 0-11.828-10.478-11.828-10.478l11.828 10.478Z" fill="#D0A021"/><path d="M337.937 178.921c-.18 0-11.828-10.478-11.828-10.478" stroke="#000" stroke-width="2" stroke-miterlimit="10" stroke-linecap="round" stroke-linejoin="round"/><path d="M332.202 178.921c-.179 0-6.989-6.179-6.989-6.179l6.989 6.179Z" fill="#D0A021"/><path d="M332.202 178.921c-.179 0-6.989-6.179-6.989-6.179" stroke="#000" stroke-width="2" stroke-miterlimit="10" stroke-linecap="round" stroke-linejoin="round"/><path d="M318.313 189.756c-.179.448 24.999 24.537 40.948 7.97 0 0 5.734-1.164 5.645-5.015-.09-3.85-7.079-2.955-17.562-2.955h-29.031Z" fill="#F9B233" stroke="#000" stroke-width="2" stroke-miterlimit="10"/><path d="m373.329 192.981-8.423-.269" stroke="#000" stroke-width="2" stroke-miterlimit="10"/><path d="M359.081 194.324a.985.985 0 1 0 .002-1.97.985.985 0 0 0-.002 1.97Z" fill="#000"/><path d="M144.937 394.198s1.881-1.97 5.107-7.433c3.225-5.462-1.523-17.283-1.523-17.283l-26.253 24.806" fill="#A5A52C"/><path d="M144.937 394.198s1.881-1.97 5.107-7.433c3.225-5.462-1.523-17.283-1.523-17.283l-26.253 24.806" stroke="#000" stroke-width="2" stroke-miterlimit="10"/><path d="M151.029 383.452h-17.383" stroke="#000" stroke-width="2" stroke-miterlimit="10" stroke-linecap="round" stroke-linejoin="round"/><path d="M137.858 383.452c.18 0 11.828-10.477 11.828-10.477l-11.828 10.477Z" fill="#D0A021"/><path d="M137.858 383.452c.18 0 11.828-10.477 11.828-10.477" stroke="#000" stroke-width="2" stroke-miterlimit="10" stroke-linecap="round" stroke-linejoin="round"/><path d="M143.592 383.452c.179 0 6.989-6.179 6.989-6.179l-6.989 6.179Z" fill="#D0A021"/><path d="M143.592 383.452c.179 0 6.989-6.179 6.989-6.179" stroke="#000" stroke-width="2" stroke-miterlimit="10" stroke-linecap="round" stroke-linejoin="round"/><path d="M157.481 394.288c.179.447-24.998 24.536-40.947 7.969 0 0-5.735-1.164-5.645-5.014.089-3.851 7.078-2.955 17.561-2.955h29.031Z" fill="#EB5758" stroke="#000" stroke-width="2" stroke-miterlimit="10"/><path d="m102.466 397.512 8.422-.269" stroke="#000" stroke-width="2" stroke-miterlimit="10"/><path d="M116.622 398.855a.985.985 0 1 0 .002-1.97.985.985 0 0 0-.002 1.97Z" fill="#000"/></g><defs><clipPath id="a"><path fill="#fff" transform="translate(.5)" d="M0 0h635v545H0z"/></clipPath></defs></svg>