<svg width="105" height="80" fill="none" xmlns="http://www.w3.org/2000/svg">
  <mask id="a" style="mask-type:alpha" maskUnits="userSpaceOnUse" x="0" y="0" width="105" height="80">
    <path fill="#D9D9D9" d="M0 0h105v80H0z"/>
  </mask>
  <g mask="url(#a)" stroke="#000" stroke-width="2" stroke-miterlimit="10">
    <path d="m88.09 147.433.926 3.079H17l2.719-9.293 1.62-5.388 1.561-5.334 1.562-5.334 1.562-5.389 1.561-5.334 1.62-5.333 1.562-5.389 1.562-5.334 1.562-5.334 1.561-5.388 1.562-5.334 1.62-5.334 1.562-5.334 1.561-5.389 1.562-5.333 1.562-5.39 1.62-5.333 1.561-5.334 1.562-5.334L53.037 28l3.355 11.547 1.562 5.334 1.62 5.334 1.561 5.334 1.562 5.389 1.562 5.333 1.504 5.06.058.33 1.62 5.333 1.561 5.334 1.562 5.334 1.562 5.388.347 1.155.752 2.53.462 1.65 1.62 5.333.578 2.199.868 2.915.116.275.115.385.926 3.244.52 1.704.174.605.81 2.75.578 1.979.521 1.705 1.041 3.684.868 2.804.752 2.53 1.157 3.959.405 1.375 1.446 5.113.115.275 1.794 6.214Z" fill="#A4B635"/>
    <path d="M53.037 28v122.512M38.634 76.994l14.403 6.654 14.403-6.654"/>
    <path d="m131.92 163.433 1.079 3.079H49.016l3.17-9.293 1.889-5.388 1.821-5.334 1.822-5.334 1.82-5.389 1.822-5.334 1.889-5.333 1.821-5.389 1.822-5.334 1.821-5.334 1.821-5.388 1.822-5.334 1.889-5.334 1.82-5.334 1.822-5.389 1.822-5.333 1.82-5.39 1.89-5.333 1.821-5.334 1.821-5.334L91.041 44l3.913 11.547 1.821 5.334 1.889 5.334 1.821 5.334 1.822 5.389 1.821 5.333 1.754 5.06.067.33 1.889 5.333 1.821 5.334 1.822 5.334 1.821 5.388.405 1.155.877 2.529.539 1.65 1.889 5.334.675 2.199 1.012 2.915.135.275.134.385 1.08 3.244.607 1.704.202.605.945 2.75.674 1.979.607 1.705 1.215 3.684 1.011 2.804.877 2.53 1.349 3.959.473 1.375 1.686 5.113.135.275 2.091 6.214Z" fill="#A4B635"/>
    <path d="M91.041 44v122.512"/>
    <path d="m59.09 121.433.926 3.079H-12l2.719-9.293 1.62-5.388 1.561-5.334 1.562-5.334 1.562-5.389 1.562-5.334 1.62-5.333 1.56-5.39 1.563-5.333L4.89 67.05l1.561-5.389 1.562-5.333 1.62-5.334 1.562-5.334 1.561-5.389 1.562-5.333 1.562-5.39 1.62-5.333 1.561-5.334 1.562-5.334L24.037 2l3.355 11.547 1.562 5.334 1.62 5.334 1.561 5.334 1.562 5.389 1.562 5.333 1.504 5.06.058.33 1.62 5.333 1.561 5.334 1.562 5.333 1.562 5.39.347 1.154.752 2.53.462 1.65 1.62 5.333.578 2.2.868 2.914.116.275.115.385.926 3.244.52 1.704.174.605.81 2.75.578 1.98.521 1.704 1.041 3.684.868 2.804.752 2.53 1.157 3.959.405 1.375 1.446 5.113.115.275 1.794 6.214Z" fill="#A4B635"/>
    <path d="M24.037 2v122.512M1.767 77.718l22.27 10.338 22.27-10.338"/>
    <path d="m3.33 72.383 20.707 9.568 20.65-9.568"/>
    <path d="m4.89 67.05 19.147 8.798 19.089-8.798"/>
    <path d="M6.452 61.662 24.037 69.8l17.527-8.138"/>
    <path d="m8.072 56.328 15.965 7.368 15.965-7.368"/>
    <path d="m9.634 50.994 14.403 6.654 14.403-6.654"/>
    <path d="m11.195 45.66 12.842 5.884 12.783-5.883M12.758 40.27l11.28 5.224 11.221-5.224M14.32 34.938l9.717 4.453 9.66-4.453M15.88 29.603l8.157 3.74 8.098-3.74M17.501 24.216l6.536 3.024 6.537-3.024M19.063 18.88l4.974 2.31 4.917-2.31M20.624 13.547l3.413 1.54 3.355-1.54"/>
    <path d="m106.091 148.433.925 3.079H35l2.719-9.293 1.62-5.388 1.561-5.334 1.562-5.334 1.562-5.389 1.562-5.334 1.62-5.333 1.56-5.389 1.563-5.334 1.562-5.334 1.561-5.388 1.562-5.334 1.62-5.334 1.562-5.334 1.561-5.389 1.562-5.333 1.562-5.39 1.62-5.333 1.561-5.334 1.562-5.334L71.037 29l3.355 11.547 1.562 5.334 1.62 5.334 1.561 5.334 1.562 5.389 1.562 5.333 1.504 5.06.058.33 1.62 5.333 1.561 5.334 1.562 5.334 1.562 5.388.347 1.155.752 2.53.462 1.65 1.62 5.333.578 2.199.868 2.915.116.275.115.385.926 3.244.52 1.704.174.605.81 2.75.578 1.979.521 1.705 1.041 3.684.868 2.804.752 2.53 1.157 3.959.405 1.375 1.446 5.113.115.275 1.794 6.214Z" fill="#A4B635"/>
    <path d="M71.037 29v122.512M56.634 77.994l14.403 6.654 14.403-6.654"/>
    <path d="m58.195 72.66 12.842 5.884 12.783-5.883M59.758 67.27l11.28 5.224 11.221-5.224M64.501 51.216l6.536 3.024 6.537-3.024M67.624 40.547l3.413 1.54 3.355-1.54"/>
  </g>
</svg>
