<svg width="212" height="226" viewBox="0 0 212 226" fill="none" xmlns="http://www.w3.org/2000/svg">
<path d="M344.165 233.332C344.165 280.606 306.029 318.881 259.045 318.881C212.062 318.881 173.926 280.606 173.926 233.332C173.926 186.057 212.062 147.782 259.045 147.782C306.029 147.782 344.165 186.057 344.165 233.332Z" stroke="#FFF9F4" stroke-width="12.0015"/>
<path d="M314.149 233.331C314.149 263.95 289.452 288.723 259.046 288.723C228.639 288.723 203.942 263.95 203.942 233.331C203.942 202.712 228.639 177.939 259.046 177.939C289.452 177.939 314.149 202.712 314.149 233.331Z" stroke="#FFF9F4" stroke-width="12.0015"/>
<path d="M372.344 233.331C372.344 297.164 321.52 348.73 259.046 348.73C196.571 348.73 145.748 297.164 145.748 233.331C145.748 169.498 196.571 117.931 259.046 117.931C321.52 117.931 372.344 169.498 372.344 233.331Z" stroke="#FFF9F4" stroke-width="12.0015"/>
<path d="M403.584 233.331C403.584 313.577 338.845 378.581 259.045 378.581C179.245 378.581 114.506 313.577 114.506 233.331C114.506 153.086 179.245 88.0818 259.045 88.0818C338.845 88.0818 403.584 153.086 403.584 233.331Z" stroke="#FFF9F4" stroke-width="12.0015"/>
<path d="M435.549 233.441C435.549 331.368 356.543 410.706 259.144 410.706C161.746 410.706 82.74 331.368 82.74 233.441C82.74 135.514 161.746 56.1766 259.144 56.1766C356.543 56.1766 435.549 135.514 435.549 233.441Z" stroke="#FFF9F4" stroke-width="12.0015"/>
<path d="M469.653 233.442C469.653 350.295 375.378 444.974 259.143 444.974C142.908 444.974 48.6326 350.295 48.6326 233.442C48.6326 116.59 142.908 21.9109 259.143 21.9109C375.378 21.9109 469.653 116.59 469.653 233.442Z" stroke="#FFF9F4" stroke-width="12.0015"/>
<path d="M508.631 233.442C508.631 371.923 396.905 484.135 259.143 484.135C121.381 484.135 9.65507 371.923 9.65507 233.442C9.65507 94.9614 121.381 -17.2512 259.143 -17.2512C396.905 -17.2512 508.631 94.9614 508.631 233.442Z" stroke="#FFF9F4" stroke-width="12.0015"/>
<path d="M547.609 233.442C547.609 393.551 418.432 523.297 259.143 523.297C99.8539 523.297 -29.3234 393.551 -29.3234 233.442C-29.3234 73.3326 99.8539 -56.4133 259.143 -56.4133C418.432 -56.4133 547.609 73.3326 547.609 233.442Z" stroke="#FFF9F4" stroke-width="12.0015"/>
<path d="M586.587 233.442C586.587 415.179 439.959 562.459 259.143 562.459C78.3274 562.459 -68.301 415.179 -68.301 233.442C-68.301 51.7039 78.3274 -95.5754 259.143 -95.5754C439.959 -95.5754 586.587 51.7039 586.587 233.442Z" stroke="#FFF9F4" stroke-width="12.0015"/>
</svg>
