<svg width="58" height="58" fill="none" xmlns="http://www.w3.org/2000/svg"><path d="M11.652 28.453H9.74v1.796h1.912v-1.796Z" fill="#fff"/><path d="M10.69 29.307c.53 0 .96-.393.96-.878 0-.484-.43-.877-.96-.877s-.96.393-.96.877c0 .485.43.878.96.878Zm5.363-.854h-1.911v1.796h1.911v-1.796Z" fill="#fff"/><path d="M15.101 29.307c.53 0 .96-.393.96-.878 0-.484-.43-.877-.96-.877s-.96.393-.96.877c0 .485.43.878.96.878Z" fill="#fff"/><path d="M14.15 27.486h-2.499v2.765h2.5v-2.765Z" fill="#fff"/><path d="M12.9 28.801c.691 0 1.25-.604 1.25-1.35 0-.744-.559-1.349-1.25-1.349-.69 0-1.249.605-1.249 1.35 0 .745.56 1.349 1.25 1.349Z" fill="#fff"/><path d="M12.976 25.086h-.182v1.333h.182v-1.333Z" fill="#fff"/><path d="M13.287 25.567v-.207h-.81v.207h.81Zm-2.504 1.215H10.6V27.9h.182v-1.118Z" fill="#fff"/><path d="M11.102 27.195v-.174h-.81v.174h.81Zm4.208-.413h-.182V27.9h.182v-1.118Z" fill="#fff"/><path d="M15.628 27.196v-.174h-.811v.174h.81Zm27.137-.77s-.455.563-.38.877c.074.306.28.166.19.381-.1.215-.183.257-.199.397-.008.15.331.033.199.199-.133.165-.555.24-.422.38.124.15.455.034.422.15-.034.107-.67-.058-.621.364.05.422.422.306.712.257.29-.058.637-.108.67.057.033.166.273.29.422.108.149-.182.422-.712.107-.761-.306-.058-.422-.125-.24-.274.182-.149-.033-.215-.165-.397-.124-.182.091-.149.058-.348-.033-.198-.38-.124-.306-.347.074-.215.306-.124.149-.439-.182-.315-.43-.844-.596-.604Z" fill="#fff"/><path d="M41.492 29.596a2.956 2.956 0 0 1-.306-.05c-.273-.05 0-.115.149-.306.04-.058.016-.09-.034-.107-.132-.05-.455-.033-.496-.15-.058-.157.149-.14.041-.223-.107-.083-.041-.149 0-.273v-.025c0-.041-.05-.066-.115-.074a.901.901 0 0 0-.43.058c-.25.107.14.165.297.231.166.067-.025.15-.1.307-.032.082.017.124.108.173.091.05.207.1.315.2.215.206-.232.19-.488.165-.257-.025-.298-.1-.373-.033-.008.008-.016.016-.025.016-.09.042-.297-.016-.397-.083-.058-.05-.107-.024-.14-.024-.009 0-.017-.009-.025-.009-.017-.008-.033-.041-.042-.099-.041-.19.133-.166.265-.306.133-.141-.463.016-.306-.174.157-.19.265-.215.29-.439.024-.215-.166-.083-.273-.19-.092-.091.157-.066.256-.34a.751.751 0 0 0 .033-.157c.041-.439.215-.67.248-.546.025.124.249.844.249.844.066.215.248.083.455.058.207-.025.058-.29-.083-.67-.132-.381.166-.174.422.173.256.356.256.174.331.381.066.207.232.025.29.215.058.19-.025.174.14.224.166.05.1.223.017.372-.075.141-.008.017.273.183a.747.747 0 0 1 .066.04c.091.059.133.1.15.125.032.075-.158.05-.233.116-.082.074.141.091.356.248a.585.585 0 0 1 .083.067c.166.206-.521.149-.968.082Zm5.534-1.92s.158-.786.174-.927c.017-.132.141.116.174.596.025.48.281.414.199.538-.075.116-.207-.033-.19.207.016.24.099.265.206.48.108.207-.314.025-.215.182.1.158.538.274.505.489-.033.215-.39-.091-.472 0-.083.09-.248.149-.298.074-.05-.074-.074.008-.256.033s-.497.042-.348-.182c.157-.223.348-.24.298-.414-.05-.173-.182-.256-.066-.33.116-.075.38-.133.207-.257-.174-.116-.414-.091-.38.041.024.133.074.207 0 .298-.075.091.065.075.024.248-.041.174-.48.067-.372.274.107.207.297.273.107.33-.19.059-1.042.24-.877 0 .166-.24.372-.256.306-.347-.066-.091-.298-.017-.058-.265s.298-.083.24-.248c-.058-.166-.107-.356.009-.414.115-.05.057-.033.099-.248.041-.216.157-.017.198-.24.05-.224.05-.034.232-.414.182-.39.389-.613.298-.19-.1.413-.199.703-.058.728.149.05.273.198.314-.042Z" fill="#fff"/><path d="M44.8 26.831c-.041.133-.058.795-.356 1.027-.297.231-.794.256-.455.364.34.116.729-.116.53 0-.19.116-.629.414-.38.521.247.108.653-.124.438.166-.215.298-.952.207-.695.455.256.248 1.464.157 1.704 0s-.14-.174-.165-.455c-.025-.281.521-.182.248-.447s-.82-.414-.57-.439c.247-.025.686.24.545 0-.132-.232-.761-1.465-.844-1.192Z" fill="#fff"/><path d="M47.855 29.297c-.008.009-.017.009-.033.017-.282.124-.985.298-1.316.405-.538.174.256.034.455.24.207.207-1.307.075-1.829.224-.53.14.406.116 1.184.174.777.058-.207.463-1.184.348-.678-.075-2.342.05-3.318.05-.414 0-.712-.026-.745-.1-.041-.1.265-.133.67-.14.638-.026 1.498 0 1.606-.125.09-.108-.828-.083-1.672-.116-.703-.025-1.357-.1-1.324-.314.166.066.29.132.39.19 0 0 .661.224.107-.166a2.234 2.234 0 0 0-.356-.182c.207-.116.62-.058 1.06.017.496.083 1.009.19 1.298.116.282-.083-.471-.15-1.332-.224-.53-.05-1.092-.1-1.481-.165-.356-.058-.563-.133-.447-.215.1-.067.472-.116 1.018-.141.207-.009.438-.025.687-.025h.057c.183-.008.381-.008.588-.017.1 0 .199 0 .298-.008.563-.008 1.159-.008 1.746-.008h.232c.463 0 .91.008 1.332.016h.14c.216 0 .414.009.605.009.083 0 .157 0 .232.008.554.008.968.017 1.133.025.1 0 .174.008.224.016.107 0 .082.042-.025.091Zm-.39 1.111c.188 0 .34-.041.34-.091 0-.05-.152-.091-.34-.091-.187 0-.339.04-.339.09 0 .05.152.092.34.092Zm-.205 4.312c.114 0 .207-.042.207-.092 0-.05-.093-.09-.207-.09-.115 0-.207.04-.207.09 0 .05.092.091.207.091Zm.71 0c.115 0 .207-.042.207-.092 0-.05-.092-.09-.206-.09-.115 0-.207.04-.207.09 0 .05.092.091.206.091Zm-31.056-2.608c.443 0 .803-.081.803-.182 0-.1-.36-.182-.803-.182-.443 0-.803.082-.803.182 0 .1.36.182.803.182Zm-1.332.315c.228 0 .413-.04.413-.09 0-.051-.185-.092-.413-.092-.229 0-.414.04-.414.091 0 .05.185.091.414.091Zm1.399.116c.142 0 .257-.023.257-.05 0-.027-.115-.05-.257-.05-.142 0-.256.023-.256.05 0 .027.114.05.256.05Zm23.583-1.929c.115 0 .207-.026.207-.058s-.092-.058-.207-.058c-.114 0-.207.026-.207.058s.093.058.207.058Z" fill="#fff"/><path d="M47.6 29.829c.114 0 .206-.026.206-.058s-.092-.058-.206-.058c-.115 0-.207.026-.207.058s.092.058.206.058Zm-3.933 1.721c.293 0 .53-.045.53-.1 0-.055-.237-.1-.53-.1-.292 0-.53.045-.53.1 0 .055.238.1.53.1ZM9.74 30.15s-1.027.125-.67.423c.347.29 1.861.099 1.87.19.008.091-.29.107-.108.232.182.124.885-.083 1.406 0 .522.082 1.366.074 1.382-.1.017-.174.795-.099.778-.024-.016.074.174.173.687.107.513-.066.315-.265.761-.182.447.083.613-.033.588-.199-.025-.165.91-.447-.149-.447H9.739Zm12.66 6.613c-.298-.016-2.524-.231-3.054.224-.57.488.455.687 2.466 1.2 2.003.513 3.393.836 3.17 1.498-.216.654-1.788.256-2.226.58-.439.322-.108.827.76.728.878-.108 1.64.016 1.06.248-.58.232-1.134.48-.654.596.472.107 2.516-.265 2.152.198-.364.464-3.17.133-3.352.53-.182.397 2.516.207 2.698.505.182.298-1.746.149-1.605.662.14.513.653.455 1.82.48 2.077.058 3.625.025 2.946-.414-.687-.438-.1-.57.48-.488.58.083 3.277.571 3.095 0-.182-.571-1.2-.166-1.97-.679-.76-.513.44-.339 1.242-.604.803-.265-.439-.364-.182-.786.256-.43.943.356 1.241 0 .29-.356-.215-.43 1.092-.447 1.316-.016 2.293-.232 1.06-.596s-2.077-.695-1.2-.761c.877-.066 1.928-.075 2.366-.513.439-.44.729-.331 1.788-.547 1.059-.215.653-.62 1.29-.579.638.041 1.523-1.002.87-.852-.654.148-7.44.869-8.954.869-1.639 0-3.161.19-4.253 0-1.026-.207-3.608-1.027-4.146-1.052Zm4.52 8.525c1.402 0 2.54-.111 2.54-.249 0-.137-1.138-.248-2.54-.248-1.404 0-2.541.111-2.541.248s1.137.249 2.54.249Zm.479 2.815c2.427 0 4.394-.149 4.394-.331 0-.183-1.967-.332-4.394-.332s-4.394.149-4.394.332c0 .182 1.967.33 4.394.33Zm3.988-3.56c.955 0 1.73-.126 1.73-.281 0-.156-.775-.282-1.73-.282-.956 0-1.73.127-1.73.282 0 .155.774.281 1.73.281Zm-.024 4.651c.786 0 1.423-.063 1.423-.14 0-.078-.637-.14-1.423-.14s-1.424.062-1.424.14c0 .078.638.14 1.424.14ZM19.131 34.132a.385.385 0 0 1 .041.083c-.033.008-.066.008-.099.008-.074.008-.165 0-.256-.008-.058-.009-.116-.009-.166-.009-.347-.016-.38.033-.438.083-.05.041-.108.083-.398.075-.653-.017-.819-.365-1.605-.067-.786.307.025.232-.488.249-.513.016-.34-.39-.96-.282-.613.108.016.232.182.422.174.19-.943-.14-1.514-.364-.571-.215-1.672-.14-1.63-.364.04-.232.637-.1.28-.265-.355-.157-.76-.09-.463-.256.298-.166.985-.017 1.126-.24.132-.224-1.59.024-1.788-.1-.207-.124.621-.058.414-.273-.207-.224-1.423-.265-2.151-.265-.729.008-.927-.215-.34-.248.588-.033.745-.174 1.407-.224.662-.05 1.514.232 2.152-.033.637-.265 1.572-.124 2.11.116.538.24-.555.157-.993.199-.439.041-.058.34.488.463.538.124.455-.273 1.398-.157.944.124.53.281 1.15.298.621.008.985.05.985.05h.009c.976.058.918.306.984.546.042.165-.298.05-.703.008a1.509 1.509 0 0 0-.546.033c-.406.108-.017.166.654.182.256.009.546 0 .86-.008h.133c.165 0 .29.017.389.042-.1.124-.166.223-.224.306Zm30.503-1.705c-.728-.033-1.97-.265-2.185-.108-.215.158.613.141.398.224-.216.09-1.92-.174-1.796 0 .124.174.82.09 1.109.223.29.133-.108.067-.472.174-.364.108.232.033.265.207.025.174-1.068.066-1.647.207-.58.14-1.713.348-1.53.207.181-.14.818-.207.206-.315-.612-.107-.463.207-.976.174-.514-.033.29.05-.472-.207-.05-.016-.091-.033-.133-.041-.438-.124-.678-.066-.968-.017.009-.124 0-.256-.008-.389.248-.008.306-.05.058-.107-.025-.009-.041-.009-.066-.017a7.02 7.02 0 0 0-.066-.439c.14-.008.43-.008.844 0h.05c.62.017.214-.124 1.166-.173.943-.05.836.248 1.382.173.546-.074.952-.281.513-.33-.438-.05-1.53-.034-.985-.191.547-.157 1.498-.224 2.11 0 .621.223.754.132 1.416.199.661.066.62.206 1.208.256.579.058 1.307.323.579.29ZM11.7 31.285c-.042.008-.009.058-.621.05-.613-.01-.836-.2-1.399-.075-.563.124-.82.215-1.117.207-.298 0-.24.364.066.29.306-.075.571-.15 1.1-.1.53.05.539.025.986-.033.446-.058.885.066 1.282.041.406-.024 1.043-.132.77-.215-.265-.083-.489-.256-1.068-.165Zm4.288.042c.09-.083.422-.009.397-.116-.008-.033-.24-.1-.571-.042-.497.083-.091.091-.86.116-.77.033-.803.133-1.076.174-.274.041-.563.207-.315.19.248-.016.695-.149.588-.04-.108.107-.34.264-.15.256.191-.009.34-.133.563-.066.232.066.489.033.613.066s.281.132.347.09c.067-.04.174-.223-.033-.272-.207-.05-.273-.199-.058-.183.215.025.356.067.72.034.356-.034.58.09.63 0 .057-.091.28-.273-.166-.216-.447.067-.729.1-.63.009Zm29.244 3.376c-.844-.033-.414.1-1.01.075-.43-.025-1.092-.092-1.754-.075a5.061 5.061 0 0 0-.795.075 7.027 7.027 0 0 1-1.72.09s.206-.157.52-.306c.514-.016.82-.041.845-.074.074-.116-.15-.091-.15-.091-.082.008-.157.008-.24.008a3.56 3.56 0 0 1 1.225-.017c.124.017.224.034.323.034.331.008.53-.091.836-.224.397-.182.587.017.943.157.356.15.604.075 1.291.067.687-.017.679-.133 1.035 0 .347.132-.505.306-1.35.281Z" fill="#fff"/><path d="m14.556 17.76-.29.372-2.822-2.168-1.762 2.292 1.638 1.267c.513.397.836.794.952 1.192l-.257.339 1.324 1.018.53-.687-.662-.513 1.473-1.92.662.513.53-.687-1.316-1.018Zm-1.705 2.218c-.149-.373-.48-.745-.985-1.134l-1.01-.778.712-.927 2.177 1.672-.894 1.167Zm5.239-4.148-2.83-3.343-.505.422.298 3.261-1.73-2.052-.662.554 2.83 3.344.505-.422-.29-3.253 1.73 2.045.654-.555Zm2.72-3.002a1.078 1.078 0 0 0-.984-.596 1.083 1.083 0 0 0-.058-.968 1.13 1.13 0 0 0-.761-.588 1.39 1.39 0 0 0-1.001.157l-1.515.836 2.119 3.84 1.63-.894c.34-.182.563-.447.678-.778a1.237 1.237 0 0 0-.107-1.01Zm-3.177-.878.753-.413a.439.439 0 0 1 .364-.042.472.472 0 0 1 .282.24c.066.124.082.24.05.364a.446.446 0 0 1-.224.282l-.753.422-.472-.853Zm2.458 1.64a.477.477 0 0 1-.248.305l-.87.48-.496-.902.87-.48a.496.496 0 0 1 .388-.05.533.533 0 0 1 .306.249.56.56 0 0 1 .05.397Zm5.197-3.146a2.21 2.21 0 0 0-1.093-1.366c-.546-.298-1.125-.356-1.737-.182A2.194 2.194 0 0 0 21.1 9.99a2.191 2.191 0 0 0-.174 1.738 2.21 2.21 0 0 0 1.092 1.365 2.21 2.21 0 0 0 1.73.182 2.232 2.232 0 0 0 1.365-1.092c.29-.546.356-1.126.174-1.738Zm-.927 1.349c-.182.34-.472.563-.852.67a1.403 1.403 0 0 1-1.084-.1c-.34-.181-.563-.47-.679-.876-.116-.398-.083-.77.1-1.11.181-.339.471-.562.852-.678.38-.116.744-.075 1.084.108.339.182.562.48.678.877.116.405.083.77-.099 1.109Zm3.94-3.774-.05 2.59c-.008.414-.082.687-.207.828-.132.14-.33.19-.587.15l-.017.802c.224.025.422.017.604-.016.183-.042.356-.116.522-.24.165-.125.29-.315.389-.572.1-.256.149-.57.157-.952l.033-1.738 1.266.025-.074 3.56.86.016.091-4.379-2.987-.074Zm7.133 5.223-.497-4.478-1.042-.24-2.483 3.923.91.216.43-.712 1.705.397.075.828.844.198.074.017-.016-.15Zm-2.226-2.02.993-1.605.182 1.879-1.175-.274Z" fill="#009FE3"/><path d="m40.59 10.98-2.616-1.24-.893 1.87c-.282.587-.605.985-.969 1.183l-.38-.182-.306.637-.059.125-.355.744.778.373.364-.762 2.184 1.043-.364.753.778.373.712-1.506-.422-.2 1.547-3.21Zm-2.31 2.84-1.324-.63c.331-.223.63-.628.902-1.2l.547-1.15 1.05.497-1.175 2.482Zm6.347.787a2.216 2.216 0 0 0-.852-1.523c-.496-.397-1.05-.563-1.671-.489-.621.067-1.126.356-1.523.853a2.223 2.223 0 0 0-.497 1.68 2.18 2.18 0 0 0 .845 1.523c.496.397 1.05.563 1.671.488a2.172 2.172 0 0 0 1.531-.852 2.19 2.19 0 0 0 .496-1.68Zm-1.166 1.142c-.257.323-.58.513-.96.546a1.389 1.389 0 0 1-1.043-.315 1.385 1.385 0 0 1-.538-.943c-.041-.38.066-.728.323-1.06.256-.322.58-.513.96-.554.38-.041.728.058 1.043.315.314.248.488.562.537.943a1.42 1.42 0 0 1-.322 1.068Zm2.864-.207-3.344 2.83.555.663 2.714-2.293 1.051 1.242.629-.53-1.605-1.912Zm2.515 3.268-4.535.977.488.795.81-.19.911 1.49-.538.637.489.803 2.937-3.6-.563-.912Zm-1.788 2.426-.629-1.027 1.837-.422-1.208 1.449ZM14.613 41.455c0-.298-.09-.546-.281-.745a.955.955 0 0 0-.72-.298c-.306 0-.563.1-.753.298-.199.199-.29.447-.29.753 0 .298.1.555.298.754.199.198.464.298.786.298.381 0 .67-.141.87-.423l-.415-.24c-.099.133-.248.2-.446.2-.307 0-.489-.125-.563-.373h1.498c.016-.092.016-.158.016-.224Zm-1.522-.19a.509.509 0 0 1 .182-.298.572.572 0 0 1 .654-.009.499.499 0 0 1 .181.298h-1.017v.009Zm3.194.266a.526.526 0 0 0-.257-.19 1.864 1.864 0 0 0-.306-.091.997.997 0 0 1-.256-.092c-.075-.033-.108-.074-.108-.124s.025-.09.066-.124a.326.326 0 0 1 .166-.041c.149 0 .256.066.314.199l.439-.24a.82.82 0 0 0-.315-.315.883.883 0 0 0-.438-.108.867.867 0 0 0-.538.166.566.566 0 0 0-.215.463c0 .133.033.24.107.323a.652.652 0 0 0 .257.19c.1.042.198.075.298.1.099.025.182.058.256.091.066.033.108.074.108.132 0 .116-.091.174-.273.174-.199 0-.331-.083-.39-.256l-.446.248c.149.314.43.472.836.472a.97.97 0 0 0 .57-.166.552.552 0 0 0 .232-.472.506.506 0 0 0-.107-.339Zm1.515-.58v-.488h-.446v-.555l-.513.157v.406h-.348v.488h.348v.828c0 .273.074.464.215.571.14.108.389.141.745.1v-.464c-.1.008-.182.008-.249 0a.314.314 0 0 1-.149-.05c-.033-.033-.05-.082-.05-.149v-.827h.448v-.017Zm.927.969a.331.331 0 0 0-.24-.1.331.331 0 0 0-.24.1.332.332 0 0 0-.1.24c0 .09.034.174.1.24s.149.1.24.1a.331.331 0 0 0 .24-.1.332.332 0 0 0 .099-.24.332.332 0 0 0-.1-.24Zm20.357.265.546-.546c.306-.306.455-.604.455-.894a.803.803 0 0 0-.273-.637.952.952 0 0 0-.645-.232.991.991 0 0 0-.919.588l.463.273c.1-.215.257-.323.464-.323a.34.34 0 0 1 .256.1c.067.066.1.157.1.264 0 .15-.108.331-.315.555l-.951.977v.405h1.861v-.53h-1.042Zm3.22-1.912a.968.968 0 0 0-.819-.397.968.968 0 0 0-.819.397c-.198.265-.298.613-.298 1.051 0 .44.1.787.298 1.052a.968.968 0 0 0 .82.397c.347 0 .62-.132.819-.397.198-.265.29-.613.29-1.051 0-.44-.092-.787-.29-1.052Zm-.397 1.73a.468.468 0 0 1-.422.232.468.468 0 0 1-.422-.232c-.099-.157-.14-.38-.14-.678 0-.298.05-.522.14-.68a.45.45 0 0 1 .422-.231.45.45 0 0 1 .422.232c.1.157.15.38.15.678 0 .29-.05.522-.15.68Zm1.519-2.068-.728.256.133.472.521-.149v2.202h.546v-2.781h-.472Zm2.834.338a.968.968 0 0 0-.82-.397.968.968 0 0 0-.819.397c-.199.265-.298.613-.298 1.051 0 .44.1.787.298 1.052a.968.968 0 0 0 .82.397c.347 0 .62-.132.819-.397.198-.265.297-.613.297-1.051 0-.44-.099-.787-.297-1.052Zm-.39 1.73a.468.468 0 0 1-.421.232.468.468 0 0 1-.422-.232c-.1-.157-.141-.38-.141-.678 0-.298.05-.522.14-.68a.46.46 0 0 1 .423-.231.47.47 0 0 1 .422.232c.099.157.149.38.149.678-.009.29-.058.522-.15.68Z" fill="#009FE3"/><path d="M26.645 45.817c.331-.14 4.684-.513 5.627 0 .952.514-.579.257-.728.472-.149.215 1.531.075 2.698.182 1.167.108 1.018.472-.24.439-1.258-.033-8.855-.016-9.086 0-.63.058-1.159-.331 2.333-.439.952-.024-1.026-.471-.604-.654Z" fill="#fff"/><path d="M50.221 7.771 36.767 0h-15.54L7.77 7.771 0 21.23v15.543L7.77 50.23l13.456 7.772h15.54l13.456-7.772 7.77-13.457V21.229L50.222 7.77Zm6.943 28.777-7.547 13.077-13.074 7.548H21.449L8.374 49.625.828 36.548V21.452L8.374 8.376 21.45.828h15.094l13.074 7.548 7.547 13.076v15.096Z" fill="#D88532"/><path d="M47.124 10.746 35.588 4.084H22.274l-11.528 6.654-6.661 11.537v13.317l6.661 11.529 11.528 6.662h13.314l11.527-6.662 6.662-11.529V22.275l-6.653-11.529Zm5.825 24.622-6.438 11.149-11.146 6.439H22.497l-11.146-6.44-6.439-11.148v-12.87l6.439-11.147 11.146-6.44h12.868l11.146 6.44 6.438 11.148v12.87Z" fill="#D88532"/><path d="M27.276.414h-.828v4.147h.828V.414Zm4.468 0h-.827v4.147h.827V.414ZM57.999 30.63h-4.576v.869h4.576v-.87Zm0-4.469h-4.576v.87h4.576v-.87ZM31.662 53.433h-.828v4.147h.828v-4.147Zm-4.469 0h-.828v4.147h.828v-4.147ZM4.56 26.186H.414v.827H4.56v-.828Zm0 4.468H.414v.828H4.56v-.828Z" fill="#D88532"/><path d="m37.726 26.013-.53-3.394-.612-.96-2.532-.298c0 .017-.042.158-.108.381-.256.919-.918 3.253-1.125 4.072-.05.182-.075.29-.067.298.042.017 3.997.637 3.997.637l.993-.629-.016-.107Zm-3.368-3.708s2.3.554 2.375.587c.083.034.34 2.798.34 2.798l-.415-.033-.372.405-2.863-.538.935-3.22Zm-5.311-1.209-1.622 4.535.678.091 1.746-4.833-.802.207ZM21.4 22.172l-1.647 4.304.38-.083 1.556-4.32-.29.099Z" fill="#fff"/><path d="M37.205 22.619s-3.997-1.076-4.13-1.093c-.132-.016-3.914.05-3.914.05l-9.483.82s-.107-.845.116-1.118c.215-.265.612-.53.612-.53s-.074-.347.29-.347 11.75-.96 11.75-.96l4.122.819.827.927-.19 1.432Zm1.745 5.438-7.803-1.292-4.61.53c-1.307.041-2.88.116-3.21.182-.257.05-.703.14-1.034.232l-1.556-.008h-.323l-1.945-.009-1.497-.513s.298-.19.397-.223c.1-.033.703-.182.703-.182l.555-.307.207-.116s.05-.008.14-.016l.1-.008a.482.482 0 0 0 .107-.017l.174-.016.1-.009.107-.016.116-.017.107-.008c.017 0 .025 0 .042-.009.082-.008.173-.016.273-.033.024 0 .058-.008.082-.008 1.763-.198 4.9-.521 7.258-.654.248-.016.488-.025.72-.033.48-.016.918-.025 1.274-.016 1.01.024 2.218.157 3.368.322 2.143.315 4.055.729 4.055.729l.455-.67.397.123.976.307.174 1.25.091.505Z" fill="#fff"/><path d="m25.306 37.498-.952-2.524a7.06 7.06 0 0 1-1.316-1.63c-.132-.24.1-.315.596-.282l-.439-1.175c-.09-.033-.157-.05-.19-.074-.488-.249-.281-.34-.083-.282 0 0 .058.017.158.042l-.356-.944c-.166-.215-.29-.513-.38-.828l-1.59-2.093-.48-.638-3.285.108c-.554.265-.728 1.564-.728 1.564h-.008c-.009 0-.025.008-.05.025-.008.008-.025.008-.033.017-.008 0-.008.008-.017.008-.008.008-.016.008-.024.016-.017.009-.025.017-.042.025l-.008.008a.101.101 0 0 1-.033.025c-.008.009-.025.017-.033.025a.54.54 0 0 0-.075.066l-.041.042-.042.041c-.008.008-.016.025-.024.033-.009.008-.017.025-.025.033a.146.146 0 0 1-.033.042c-.009.016-.017.024-.025.041s-.017.025-.025.041l-.025.05a.18.18 0 0 1-.025.041 3.086 3.086 0 0 0-.099.224c-.008.033-.025.074-.025.107 0 .017-.008.034-.008.05v.025a.508.508 0 0 0 .033.199c0 .008.008.016.008.025 0 .008.009.016.017.024 0 .009.008.017.017.025.008.008.016.025.024.033v.008a.107.107 0 0 1 .025.034c.008.016.025.024.042.041.016.008.024.025.04.033.01.008.026.017.034.025.016.008.025.017.041.025.009.008.025.016.034.025.008.008.016.008.024.016l.009.008c.016.009.04.025.066.034h.008c.017.008.033.016.05.016.008.008.016.008.024.008.017.009.034.009.05.017.008 0 .017.008.025.008s.017.009.025.009.016.008.025.008a.074.074 0 0 0 .041.008c.033.008.05.008.05.008s0 .009.008.017c0 .008.008.016.008.025.017.033.042.082.075.14.008.017.016.034.024.042.017.041.042.074.067.124.016.025.025.058.041.083 0 .008.008.008.008.016a.882.882 0 0 0 .075.133l.074.149c.025.05.05.107.083.165.008.017.017.025.017.041l.099.2c.041.074.083.156.124.24l.05.098c.024.058.058.116.082.174a.305.305 0 0 1 .042.091c.157.306.314.63.48.944.1.19.19.372.281.554l.05.091.05.1c0 .008.008.016.008.025.082.173.165.33.248.48.025.057.058.107.083.157.041.074.074.149.116.223 0 .008 0 .008.008.008.008.025.025.05.033.067.017.025.025.058.041.083.009.024.025.04.033.066.017.041.042.083.058.116.05.09.091.173.116.231a.063.063 0 0 1 .017.033.115.115 0 0 1 .025.033l.016.017.025.025.025.025.016.016c.017.009.025.025.042.033a.113.113 0 0 0 .033.025c.016.017.033.025.05.042.008.008.024.016.033.024.024.017.05.033.082.05.017.008.025.017.042.025.074.041.157.091.24.132.024.009.041.025.066.034.066.033.14.066.215.099.05.025.1.05.149.066.017.008.025.017.041.017.025.008.058.024.083.033.066.025.133.058.207.082.008 0 .017.009.025.009h.008s.008 0 .017.008h.016c.042.017.083.033.133.05l.124.05c.082.032.174.066.256.099.05.016.1.033.15.057.074.025.148.05.214.075.066.025.15.05.215.075.067.024.133.04.2.066.04.016.082.025.123.041a.82.82 0 0 0 .133.041c.041.017.082.025.124.042.041.016.082.025.124.041.058.017.107.033.157.05l.174.05c.041.016.09.024.132.04.05.018.1.034.14.042l.092.025.083.025c.107.033.215.066.306.091.025.008.041.017.066.017a.695.695 0 0 0 .124.033c.017.008.033.008.05.016.033.008.066.017.09.025.05.017.084.025.108.033.009 0 .017.008.025.008h.017l1.812.414-.074-.083Zm-1.548-1.158c-.14-.042-1.043-.29-2.019-.62-1.68-.564-2.168-.87-2.292-.961a24.168 24.168 0 0 1-.281-.546c-.017-.025-.025-.058-.042-.083.058-.091.133-.182.224-.29.355-.422.993-.968 2.135-1.738 0 0 .322-.513-.265-.314-.108.041-1.639.786-2.317 1.895a974.582 974.582 0 0 0-1.895-3.716l-.199-.389-.182-.033.43-.149.075-.546c.041-.282.14-.621.232-.803l2.482-.083 1.001 1.324c.257.952.538 1.904.687 2.169.199.356 1.06 2.4 2.102 4.08l.314.836-.19-.033Z" fill="#fff"/><path d="m25.306 37.498-.952-2.524a7.06 7.06 0 0 1-1.316-1.63c-.132-.24.1-.315.596-.282l-.439-1.175c-.09-.033-.157-.05-.19-.074-.488-.249-.281-.34-.083-.282 0 0 .058.017.158.042l-.356-.944c-.166-.215-.29-.513-.38-.828l-1.59-2.093-.48-.638-3.285.108c-.554.265-.728 1.564-.728 1.564h-.008c-.009 0-.025.008-.05.025-.008.008-.025.008-.033.017-.008 0-.008.008-.017.008-.008.008-.016.008-.024.016-.017.009-.025.017-.042.025l-.008.008a.101.101 0 0 1-.033.025c-.008.009-.025.017-.033.025a.54.54 0 0 0-.075.066l-.041.042-.042.041c-.008.008-.016.025-.024.033-.009.008-.017.025-.025.033a.146.146 0 0 1-.033.042c-.009.016-.017.024-.025.041s-.017.025-.025.041l-.025.05a.18.18 0 0 1-.025.041 3.086 3.086 0 0 0-.099.224c-.008.033-.025.074-.025.107 0 .017-.008.034-.008.05v.025a.508.508 0 0 0 .033.199c0 .008.008.016.008.025 0 .008.009.016.017.024 0 .009.008.017.017.025.008.008.016.025.024.033v.008a.107.107 0 0 1 .025.034c.008.016.025.024.042.041.016.008.024.025.04.033.01.008.026.017.034.025.016.008.025.017.041.025.009.008.025.016.034.025.008.008.016.008.024.016l.009.008c.016.009.04.025.066.034h.008c.017.008.033.016.05.016.008.008.016.008.024.008.017.009.034.009.05.017.008 0 .017.008.025.008s.017.009.025.009.016.008.025.008a.074.074 0 0 0 .041.008c.033.008.05.008.05.008s0 .009.008.017c0 .008.008.016.008.025.017.033.042.082.075.14.008.017.016.034.024.042.017.041.042.074.067.124.016.025.025.058.041.083 0 .008.008.008.008.016a.882.882 0 0 0 .075.133l.074.149c.025.05.05.107.083.165.008.017.017.025.017.041l.099.2c.041.074.083.156.124.24l.05.098c.024.058.058.116.082.174a.305.305 0 0 1 .042.091c.157.306.314.63.48.944.1.19.19.372.281.554l.05.091.05.1c0 .008.008.016.008.025.082.173.165.33.248.48.025.057.058.107.083.157.041.074.074.149.116.223 0 .008 0 .008.008.008.008.025.025.05.033.067.017.025.025.058.041.083.009.024.025.04.033.066.017.041.042.074.058.116.05.09.091.173.116.231a.063.063 0 0 1 .017.033.115.115 0 0 1 .025.033l.016.017.025.025.025.025.016.016c.017.009.025.025.042.033a.113.113 0 0 0 .033.025c.016.017.033.025.05.042.008.008.024.016.033.024.024.017.05.033.082.05.017.008.025.017.042.025.074.041.157.091.24.132.024.009.041.025.066.034.066.033.14.066.215.099.05.025.1.05.149.066.017.008.025.017.041.017.025.008.058.024.083.033.066.025.133.058.207.082.008 0 .017.009.025.009h.008s.008 0 .017.008h.016c.042.017.083.033.133.05l.124.05c.082.032.174.066.256.099.05.016.1.033.15.057.074.025.148.05.214.075.066.025.15.05.215.075.067.024.133.04.2.066.04.016.082.025.123.041a.82.82 0 0 0 .133.041c.041.017.082.025.124.042.041.016.082.025.124.041.058.017.107.033.157.05l.174.05c.041.016.09.024.132.04.05.018.1.034.14.042l.092.025.083.025c.107.033.215.066.306.091.025.008.041.017.066.017a.695.695 0 0 0 .124.033c.017.008.033.008.05.016.033.008.066.017.09.025.05.017.084.025.108.033.009 0 .017.008.025.008h.017l1.812.414-.074-.083Zm-1.548-1.158c-.14-.042-1.043-.29-2.019-.62-1.68-.564-2.168-.87-2.292-.961a24.168 24.168 0 0 1-.281-.546c-.017-.025-.025-.058-.042-.083-.05-.1-.107-.207-.165-.323-.017-.041-.042-.074-.058-.116a966.516 966.516 0 0 0-1.895-3.716l-.199-.389-.182-.033.43-.149.075-.546c.041-.281.14-.62.232-.803l2.482-.083 1.001 1.325.853 1.125 1.936 5.132.314.835-.19-.05Zm-2.392-14.095-.935.083-1.456 4.015.099-.009a.489.489 0 0 0 .107-.016l.174-.017.1-.008.107-.017.116-.016.108-.009 1.506-3.84.008-.017.066-.149Zm-1.762 3.742-.207.024 1.24-3.418.315-.025-1.349 3.419Z" fill="#fff"/><path d="m20.233 22.064-.108.29-1.489 4.113-.075.198 1.44-.165.034-.091.082-.207 1.018-2.59v-.017l.538-1.383.116-.29-1.556.142Zm.712.496-1.34 3.427-.208.024 1.242-3.418.306-.033Zm20.572 7.135c-.53-.05-1.093-.1-1.482-.166-.09.042-.298-.016-.397-.082-.058-.05-.107-.025-.14-.025.405.14.744.273.992.372.207-.116.621-.058 1.06.017-.009-.041-.017-.083-.033-.116Zm.877 3.493c-.05-.282-.124-.621-.207-.969-.108-.472-.248-.985-.372-1.465-.025-.082-.042-.165-.067-.248-.025-.083-.041-.166-.066-.24-.041-.157-.091-.314-.132-.455-.009-.041-.025-.075-.033-.116-.009-.033-.017-.066-.025-.091-.05-.174-.1-.331-.133-.463-.066-.232-.107-.365-.107-.365-.124-.099-.257-.207-.397-.298-.042-.025-.075-.05-.116-.074a7.535 7.535 0 0 0-1.068-.538c-.248-.1-.505-.199-.778-.29-3.21-1.076-8.076-1.423-10.128-1.283-2.681.19-7.448.646-7.448.646l-1.043.132s.058.249.158.638c.107.422.256 1.001.413 1.589.257.952.538 1.903.687 2.168.199.356 1.06 2.4 2.102 4.08.48.778 1.001 1.482 1.506 1.904l.215.165c.15.1.298.174.439.216 1.523.438 10.6-.323 14.134-.68a28.547 28.547 0 0 0 1.241-.14c1.175-.157 1.274-1.34 1.29-2.309v-.281c0-.182 0-.356.01-.505.016-.166-.017-.422-.075-.728Zm-19.058-5.711c.323-.066 1.895-.14 3.21-.182a39.71 39.71 0 0 1 1.73-.033c.787.016 1.722-.009 4.452.372 1.945.273 4.982 1.15 6.753 1.771.008 0 .016.009.025.009.405.14.745.273.993.372.173.074.29.132.356.182.562.397-.108.166-.108.166-.091-.058-.223-.116-.389-.19-1.688-.712-6.785-1.995-9.251-2.326-2.706-.365-9.128.306-9.128.306-.223-.042-.008-.133.323-.224.33-.082.778-.173 1.034-.223Zm16.948 8.83c-.662.406-11.155.63-13.58-.008-.976-.256-1.762-.786-2.35-1.324-.869-.803-1.316-1.63-1.316-1.63-.132-.24.1-.315.596-.282 1.655.116 6.256 1.49 9.798 1.937 4.576.58 7.514.902 6.852 1.308ZM41.3 34.48c-.016.033-.33.066-.844.074-1.324.033-3.988-.033-6.462-.405-3.195-.489-9.542-1.87-10.808-2.26-.09-.033-.157-.05-.19-.074-.488-.249-.281-.34-.083-.282 0 0 .058.017.157.042 1.407.364 12.065 3.037 17.841 2.822.083 0 .166-.008.24-.008.009 0 .224-.025.15.09Zm.124-1.308c-.016.373-.124.646-.397.662-.91.058-17.518-2.54-18.155-3.037a.942.942 0 0 1-.157-.157c-.166-.216-.29-.514-.381-.828-.174-.613-.224-1.258-.224-1.258 8.358-1.175 14.093 1.531 17.974 2.201.596.1 1.068.563 1.192 1.159.024.1.041.207.057.306.025.15.05.298.067.439 0 .041.008.083.008.124.025.133.025.265.017.389Zm.092-3.476c-.53-.05-1.093-.1-1.482-.166-.09.042-.298-.016-.397-.082-.058-.05-.107-.025-.14-.025.405.14.744.273.992.372.207-.116.621-.058 1.06.017-.009-.041-.017-.083-.033-.116ZM21.49 32.112c-1.141.77-1.779 1.316-2.134 1.738-.091.1-.158.199-.224.29-.016.033-.041.066-.058.091a1.69 1.69 0 0 0-.19.464c-.133.513-.306.132-.306.132a1.713 1.713 0 0 1 .082-.612c.042-.141.1-.274.174-.406l.075-.124c.687-1.101 2.21-1.854 2.317-1.896.579-.198.265.323.265.323Zm2.367-12.415a.703.703 0 0 1-.281.48.738.738 0 0 1-.34.15.795.795 0 0 1-.198 0 .798.798 0 0 1-.249-.083.752.752 0 0 1-.356-.456.496.496 0 0 0 .406.332c.025 0 .041.008.066.008a.5.5 0 0 0 .497-.43.503.503 0 0 0-.43-.564c-.025 0-.042-.008-.067-.008a.497.497 0 0 0-.488.414v-.033a.721.721 0 0 1 .82-.62c.396.04.67.405.62.81Zm2.599-.197a.754.754 0 0 1-.248.463.719.719 0 0 1-.538.173h-.033a.813.813 0 0 1-.282-.099.74.74 0 0 1-.297-.356.48.48 0 0 0 .339.199h.066c.248 0 .463-.19.497-.43a.503.503 0 0 0-.43-.563c-.026 0-.042-.009-.067-.009a.488.488 0 0 0-.348.141.727.727 0 0 1 .68-.34h.032a.727.727 0 0 1 .63.82Zm2.465-.207a.743.743 0 0 1-.256.463.704.704 0 0 1-.422.166.39.39 0 0 1-.14-.009.761.761 0 0 1-.274-.09.788.788 0 0 1-.281-.29.5.5 0 0 0 .314.173c.025 0 .042.009.066.009a.5.5 0 0 0 .067-.994c-.025 0-.042-.008-.067-.008a.506.506 0 0 0-.413.215.732.732 0 0 1 .645-.463c.041 0 .083 0 .124.008.406.05.687.422.637.82Zm2.418-.142a.691.691 0 0 1-.19.398.695.695 0 0 1-.547.231c-.024 0-.058 0-.082-.008a.66.66 0 0 1-.348-.149.746.746 0 0 1-.265-.406.494.494 0 0 0 .397.307c.025 0 .042.008.067.008.248 0 .463-.19.496-.43a.503.503 0 0 0-.43-.563c-.025 0-.042-.009-.066-.009a.515.515 0 0 0-.439.257.734.734 0 0 1 .761-.472h.017c.397.066.678.43.629.836Z" fill="#fff"/><path d="m23.12 18.87-.115-.025c-.033-.008-.066-.008-.108-.008a.777.777 0 0 0-.488.174c-.025.025-.05.041-.074.066l-.025.025c-.017.016-.025.033-.042.05a.972.972 0 0 0-.09.157c-.009.016-.017.041-.025.058a.229.229 0 0 0-.017.066c-.008.025-.008.05-.017.074a.775.775 0 0 0 .67.878c.034 0 .067.008.108.008a.746.746 0 0 0 .331-.074c.033-.017.066-.034.091-.05.017-.017.042-.025.058-.041l.025-.025c.008-.009.017-.009.017-.017l.033-.033.05-.05c.016-.016.024-.033.04-.058.017-.016.026-.041.034-.058.008-.016.025-.04.033-.066.008-.025.017-.041.025-.066s.016-.041.016-.066c.009-.025.009-.05.017-.075a.765.765 0 0 0-.546-.844Zm-.71.662a.497.497 0 0 1 .487-.414c.025 0 .042 0 .067.009.273.033.463.29.43.563a.5.5 0 0 1-.497.43c-.024 0-.05 0-.066-.008a.496.496 0 0 1-.405-.331.8.8 0 0 1-.017-.249Z" fill="#fff"/><path d="m23.12 18.87-.115-.025c-.033-.008-.066-.008-.108-.008a.777.777 0 0 0-.488.174c-.025.025-.05.041-.074.066l-.025.025c-.017.016-.025.033-.042.05a.972.972 0 0 0-.09.157c-.009.016-.017.041-.025.058a.229.229 0 0 0-.017.066c-.008.025-.008.05-.017.074a.775.775 0 0 0 .67.878c.034 0 .067.008.108.008a.746.746 0 0 0 .331-.074c.033-.017.066-.034.091-.05.017-.017.042-.025.058-.041l.025-.025c.008-.009.017-.009.017-.017.008-.008.024-.016.033-.033l.05-.05c.016-.016.024-.033.04-.058.017-.016.026-.041.034-.058.008-.016.025-.04.033-.066.008-.025.017-.041.025-.066s.016-.041.016-.066c.009-.025.009-.05.017-.075a.765.765 0 0 0-.546-.844Zm-.72.679v-.017a.497.497 0 0 1 .49-.414c.024 0 .04 0 .065.009a.5.5 0 0 1-.066.993c-.025 0-.05 0-.066-.008a.496.496 0 0 1-.406-.331.698.698 0 0 1-.016-.232Zm3.816-.348c0-.008-.009-.024-.009-.033 0-.008-.008-.016-.008-.024l-.025-.075c0-.008-.008-.017-.016-.033-.009-.017-.017-.041-.033-.058-.009-.008-.009-.017-.017-.033-.008-.008-.008-.017-.016-.025-.009-.008-.017-.017-.017-.025-.017-.016-.033-.041-.05-.058a.435.435 0 0 0-.066-.058.25.25 0 0 0-.058-.041c-.024-.017-.058-.033-.082-.05h-.009a.573.573 0 0 0-.107-.041c-.017-.008-.033-.008-.05-.008h-.016c-.017 0-.034-.009-.058-.009-.017 0-.034-.008-.05-.008h-.041c-.042 0-.083 0-.116.008-.009 0-.025 0-.033.009h-.025c-.009 0-.017.008-.033.008-.017.008-.033.008-.05.017a.544.544 0 0 0-.157.074c-.009.008-.017.008-.033.017a.249.249 0 0 0-.058.04l-.025.026-.05.05-.024.024c-.017.017-.025.033-.042.05a.72.72 0 0 0-.083.149c-.008.025-.016.041-.024.066a.255.255 0 0 0-.017.066c-.008.025-.008.05-.017.075a.708.708 0 0 0 .009.265c0 .008.008.024.008.041.008.017.008.041.017.058.008.017.008.033.016.05v.008a.388.388 0 0 0 .041.083s0 .008.009.008l.05.075c.008.016.024.024.033.04a.924.924 0 0 0 .099.092c.025.025.058.041.09.066l.01.009a.714.714 0 0 0 .198.082c.008 0 .016.008.024.008.025.009.05.009.075.017.017 0 .033 0 .041.008h.133c.016 0 .033 0 .041-.008.017 0 .033-.008.05-.008.008 0 .008 0 .016-.009h.017c.025-.008.041-.016.066-.024a.545.545 0 0 1 .066-.025c.009-.008.017-.008.033-.017.017-.008.042-.024.058-.033a.417.417 0 0 0 .067-.05c.008-.008.008-.008.016-.008l.05-.05.024-.024a5.81 5.81 0 0 0 .025-.025c.017-.017.025-.033.042-.058.016-.017.024-.041.033-.058.008-.017.025-.041.033-.066s.017-.042.025-.066a.255.255 0 0 0 .016-.067c.009-.024.009-.05.017-.074v-.075a1.495 1.495 0 0 0-.033-.265Zm-.265.249a.5.5 0 0 1-.497.43h-.066a.498.498 0 0 1-.43-.563.54.54 0 0 1 .149-.298.525.525 0 0 1 .347-.14c.025 0 .042 0 .067.008.273.033.471.29.43.563Z" fill="#fff"/><path d="M26.216 19.201c0-.008-.009-.024-.009-.033 0-.008-.008-.016-.008-.024l-.025-.075c0-.008-.008-.017-.016-.033-.009-.017-.017-.041-.033-.058-.009-.008-.009-.017-.017-.033-.008-.008-.008-.017-.016-.025-.009-.008-.017-.017-.017-.025-.017-.016-.033-.041-.05-.058a.435.435 0 0 0-.066-.058.25.25 0 0 0-.058-.041c-.024-.017-.058-.033-.082-.05h-.009a.573.573 0 0 0-.107-.041c-.017-.008-.033-.008-.05-.008h-.016c-.017 0-.034-.009-.058-.009-.017 0-.034-.008-.05-.008h-.05c-.033 0-.074 0-.107.008-.009 0-.025 0-.033.009h-.025c-.009 0-.017.008-.033.008-.017.008-.033.008-.05.017a.544.544 0 0 0-.157.074c-.009.008-.017.008-.033.017a.249.249 0 0 0-.058.04l-.025.026-.05.05-.024.024c-.017.017-.025.033-.042.05a.72.72 0 0 0-.083.149c-.008.025-.016.041-.024.066a.255.255 0 0 0-.017.066c-.008.025-.008.05-.017.075a.708.708 0 0 0 .009.265c0 .008.008.024.008.041.008.017.008.041.017.058.008.017.008.033.016.05v.008a.388.388 0 0 0 .041.083s0 .008.009.008l.05.075c.008.016.024.024.033.04a.924.924 0 0 0 .099.092c.025.025.058.041.09.066l.01.009a.714.714 0 0 0 .198.082c.008 0 .016.008.024.008.025.009.05.009.075.017.017 0 .033 0 .041.008h.141c.017 0 .033 0 .041-.008.017 0 .034-.008.05-.008.008 0 .008 0 .017-.009h.016c.025-.008.041-.016.066-.024a.558.558 0 0 1 .067-.025c.008-.008.016-.008.033-.017l.058-.033c.024-.016.05-.033.066-.05.008-.008.008-.008.016-.008l.05-.05a2.9 2.9 0 0 1 .025-.024l.025-.025c.016-.017.024-.033.041-.058.017-.017.025-.041.033-.058s.025-.041.033-.066.017-.042.025-.066a.255.255 0 0 0 .017-.067c.008-.024.008-.05.016-.074v-.075c-.016-.124-.025-.198-.041-.265Zm-.265.249a.5.5 0 0 1-.497.43h-.066a.498.498 0 0 1-.43-.563.54.54 0 0 1 .149-.298.525.525 0 0 1 .347-.14c.025 0 .042 0 .067.008.273.033.471.29.43.563Zm2.755-.274v-.066c0-.008 0-.025-.008-.033 0-.009 0-.025-.009-.033 0-.009-.008-.025-.008-.033 0-.009 0-.017-.008-.025a.063.063 0 0 0-.017-.042.062.062 0 0 0-.016-.033c0-.008-.009-.016-.009-.025-.008-.024-.024-.05-.033-.066-.008-.008-.008-.016-.016-.025a.325.325 0 0 0-.066-.082c-.009-.017-.025-.025-.033-.042a8.08 8.08 0 0 1-.042-.041c-.016-.008-.025-.025-.041-.033l-.008-.009h-.009a.142.142 0 0 1-.041-.033l-.05-.024c-.016-.009-.041-.017-.058-.025-.008-.009-.025-.009-.033-.017-.008 0-.016-.008-.025-.008-.008 0-.016-.008-.024-.008-.009 0-.025-.009-.034-.009-.008 0-.016-.008-.024-.008-.017-.008-.034-.008-.05-.008-.033-.009-.066-.009-.108-.009h-.058c-.016 0-.033 0-.04.009h-.01c-.007 0-.024 0-.032.008-.033.008-.058.008-.091.025-.017.008-.033.008-.042.016h-.008l-.05.025c-.008 0-.016.009-.024.009-.009.008-.017.008-.025.016a.17.17 0 0 0-.05.033.248.248 0 0 0-.058.042c-.025.024-.05.04-.074.066l-.025.025c-.017.016-.025.033-.041.05a1.182 1.182 0 0 0-.091.148c-.009.025-.017.042-.025.066-.009.025-.017.042-.017.067-.008.024-.008.05-.016.074a.669.669 0 0 0 0 .182v.025c0 .017.008.041.008.058l.025.075c.008.016.008.033.016.05 0 .008.009.016.009.016a.139.139 0 0 1 .016.041c.017.025.025.05.041.075a.317.317 0 0 0 .067.082c.008.017.024.025.033.034.008.016.024.024.033.033.008.008.025.016.033.033a.132.132 0 0 1 .041.033c.025.017.05.033.083.05.008.008.017.008.033.016.017.008.033.017.05.017.008 0 .016.008.016.008.017.008.033.008.05.016.008 0 .025.009.033.009.025.008.05.008.075.016a.436.436 0 0 0 .107.009c.033 0 .075 0 .108-.009.008 0 .024 0 .033-.008.008 0 .016 0 .025-.008.008 0 .016-.009.033-.009.041-.008.074-.024.116-.04h.008a.402.402 0 0 1 .058-.026l.058-.033c.016-.016.041-.025.058-.041l.024-.025.025-.025.017-.016c.008-.009.016-.025.033-.034.008-.008.017-.024.025-.033a.142.142 0 0 1 .033-.041c.016-.017.025-.041.033-.058l.025-.05v-.016c0-.009.008-.017.008-.025.008-.008.008-.025.017-.033a.27.27 0 0 0 .016-.066c.008-.025.008-.05.017-.075 0-.016 0-.033.008-.05v-.099Zm-1.274-.033a.495.495 0 0 1 .497-.43c.024 0 .04 0 .065.008a.503.503 0 0 1 .43.563.5.5 0 0 1-.496.43c-.025 0-.041 0-.066-.008a.499.499 0 0 1-.314-.174.49.49 0 0 1-.116-.389Z" fill="#fff"/><path d="M28.706 19.176v-.066c0-.008 0-.025-.008-.033 0-.009 0-.025-.009-.033 0-.009-.008-.025-.008-.033 0-.009 0-.017-.008-.025a.063.063 0 0 0-.017-.042.062.062 0 0 0-.016-.033c0-.008-.009-.016-.009-.025-.008-.024-.024-.05-.033-.066-.008-.008-.008-.016-.016-.025a.325.325 0 0 0-.066-.082c-.009-.017-.025-.025-.033-.042a8.08 8.08 0 0 1-.042-.041c-.016-.008-.025-.025-.041-.033l-.008-.009h-.009a.142.142 0 0 1-.041-.033l-.05-.024c-.016-.009-.041-.017-.058-.025-.008-.009-.025-.009-.033-.017-.008 0-.016-.008-.025-.008-.008 0-.016-.008-.024-.008-.009 0-.025-.009-.034-.009-.008 0-.016-.008-.024-.008-.017-.008-.034-.008-.05-.008-.033-.009-.066-.009-.108-.009h-.058c-.016 0-.033 0-.04.009h-.01c-.007 0-.024 0-.032.008-.033.008-.058.008-.091.025-.017.008-.033.008-.042.016h-.008l-.05.025c-.008 0-.016.009-.024.009-.009.008-.017.008-.025.016a.17.17 0 0 0-.05.033.248.248 0 0 0-.058.042c-.025.024-.05.04-.074.066l-.025.025c-.017.016-.025.033-.041.05a1.182 1.182 0 0 0-.091.148c-.009.025-.017.042-.025.066-.009.025-.017.042-.017.067-.008.024-.008.05-.016.074a.669.669 0 0 0 0 .182v.025c0 .017.008.041.008.058l.025.075c.008.016.008.033.016.05 0 .008.009.016.009.016a.139.139 0 0 1 .016.041c.017.025.025.05.041.075a.317.317 0 0 0 .067.082c.008.017.024.025.033.034.008.016.024.024.033.033.008.008.025.016.033.033a.132.132 0 0 1 .041.033c.025.017.05.033.083.05.008.008.017.008.033.016.017.008.033.017.05.017.008 0 .016.008.016.008.017.008.033.008.05.016.008 0 .025.009.033.009.025.008.05.008.075.016a.436.436 0 0 0 .107.009c.033 0 .075 0 .108-.009.008 0 .024 0 .033-.008.008 0 .016 0 .025-.008.008 0 .016-.009.033-.009.041-.008.074-.024.116-.04h.008a.402.402 0 0 1 .058-.026l.058-.033c.016-.016.041-.025.058-.041l.024-.025.025-.025.017-.016c.008-.009.016-.025.033-.034.008-.008.017-.024.025-.033a.142.142 0 0 1 .033-.041c.016-.017.025-.041.033-.058l.025-.05v-.016c0-.009.008-.017.008-.025.008-.008.008-.025.017-.033a.27.27 0 0 0 .016-.066c.008-.025.008-.05.017-.075 0-.016 0-.033.008-.05v-.099Zm-1.274-.033a.495.495 0 0 1 .497-.43c.024 0 .04 0 .065.008a.503.503 0 0 1 .43.563.5.5 0 0 1-.496.43c-.025 0-.041 0-.066-.008a.499.499 0 0 1-.314-.174.49.49 0 0 1-.116-.389Zm3.714-.166c0-.017 0-.033-.008-.05l-.025-.124a.117.117 0 0 0-.017-.05c-.008-.024-.016-.04-.024-.066-.009-.016-.017-.025-.017-.041-.016-.025-.033-.058-.05-.083-.008-.008-.016-.016-.016-.025-.017-.016-.025-.033-.041-.041-.017-.017-.025-.033-.042-.041-.008-.009-.025-.017-.033-.034h-.008c-.008-.008-.017-.008-.025-.016l-.008-.008c-.009-.009-.017-.009-.025-.017-.008-.008-.017-.008-.025-.017-.025-.016-.05-.024-.074-.04 0 0-.009 0-.009-.01h-.008c-.017-.008-.025-.008-.041-.016-.009 0-.017-.008-.025-.008-.025-.008-.041-.017-.066-.017-.009 0-.017-.008-.025-.008h-.042c-.016 0-.033-.008-.05-.008h-.156c-.009 0-.017 0-.025.008h-.025c-.008 0-.017.008-.025.008s-.016 0-.016.009c-.009 0-.025.008-.034.008-.024.008-.04.017-.066.025-.008 0-.016.008-.033.016-.016.009-.041.025-.058.033-.008.009-.016.009-.025.017a.249.249 0 0 0-.057.041l-.025.025-.05.05a.219.219 0 0 0-.041.05c-.017.016-.025.033-.042.058-.016.016-.025.04-.033.057s-.025.042-.033.067c-.008.024-.017.041-.025.066a.254.254 0 0 0-.016.066c-.009.025-.009.05-.017.075-.008.033-.008.066-.008.099v.107c0 .009 0 .025.008.034 0 .016.008.033.008.05 0 .008 0 .016.009.024v.008c0 .009.008.025.008.034 0 .008.008.016.008.024 0 .009.009.017.009.034 0 .008.008.008.008.016a.177.177 0 0 0 .025.041c.008.009.008.017.016.034a.254.254 0 0 0 .041.058c.009.008.017.024.025.033l.009.008c.008.008.008.016.016.025.017.016.033.041.058.058a.198.198 0 0 0 .042.033l.008.008.008.008c.008.009.017.009.025.017.016.008.025.016.041.025.008.008.017.008.033.016.009.008.017.008.033.017a.25.25 0 0 0 .083.033c.017.008.025.008.042.017.008 0 .016.008.024.008.009 0 .017 0 .025.008.009 0 .025.008.033.008.009 0 .025.009.033.009.017 0 .034.008.05.008h.141c.016 0 .024 0 .041-.008h.008c.025-.009.042-.009.067-.017h.033a.548.548 0 0 0 .157-.075c.008-.008.016-.008.025-.016.008-.008.016-.008.024-.017.009-.008.017-.016.025-.016l.025-.025c.009-.008.025-.017.033-.033l.033-.033c.009-.008.009-.017.017-.017.008-.008.008-.016.017-.016.016-.017.024-.033.04-.058.01-.017.017-.025.026-.042l.024-.05.025-.049c.009-.017.009-.033.017-.05a.26.26 0 0 0 .016-.066c.009-.025.009-.05.017-.074.008-.034.008-.067.008-.108-.033-.05-.033-.066-.033-.091Zm-1.274-.008a.433.433 0 0 1 .058-.174.488.488 0 0 1 .438-.257c.025 0 .042 0 .067.009.273.033.463.29.43.562a.5.5 0 0 1-.497.43c-.024 0-.041 0-.066-.007a.51.51 0 0 1-.397-.307.444.444 0 0 1-.033-.256Z" fill="#fff"/><path d="M31.147 18.977c0-.017 0-.033-.008-.05a271.46 271.46 0 0 0-.025-.124.117.117 0 0 0-.017-.05c-.008-.024-.016-.04-.024-.066-.009-.016-.017-.025-.017-.041-.017-.025-.033-.058-.05-.083-.008-.008-.016-.016-.016-.025-.017-.016-.025-.033-.042-.041-.016-.017-.024-.033-.04-.041-.01-.009-.026-.017-.034-.034h-.008c-.009-.008-.017-.008-.025-.016l-.008-.008c-.009-.009-.017-.009-.025-.017-.009-.008-.017-.008-.025-.017-.025-.016-.05-.024-.075-.04 0 0-.008 0-.008-.01h-.008c-.017-.008-.025-.008-.041-.016-.009 0-.017-.008-.025-.008-.025-.008-.042-.017-.067-.017-.008 0-.016-.008-.024-.008h-.042c-.016 0-.033-.008-.05-.008h-.049c-.025 0-.05 0-.074.008h-.067c-.008 0-.016 0-.024.008h-.025c-.009 0-.017.009-.025.009s-.017 0-.017.008c-.008 0-.024.008-.033.008-.025.009-.041.017-.066.025-.008 0-.016.008-.033.017-.017.008-.042.024-.058.033-.008.008-.017.008-.025.016a.251.251 0 0 0-.058.042l-.025.024-.05.05a.219.219 0 0 0-.04.05c-.017.016-.025.033-.042.058-.017.016-.025.041-.033.058-.008.016-.025.041-.033.066-.009.025-.017.041-.025.066s-.017.05-.017.066c-.008.025-.008.05-.016.075-.008.033-.008.066-.008.1v.106c0 .008 0 .025.008.033 0 .017.008.033.008.05 0 .008 0 .016.008.024v.009c0 .008.009.024.009.033 0 .008.008.016.008.025 0 .008.008.016.008.033 0 .008.008.008.008.016a.18.18 0 0 0 .025.042c.009.008.009.016.017.033a.249.249 0 0 0 .041.058c.009.008.017.025.025.033l.008.008c.009.008.009.017.017.025.017.017.033.041.058.058a.18.18 0 0 0 .041.033l.009.008.008.009c.008.008.016.008.025.016.016.008.024.017.041.025.008.008.016.008.033.016.008.009.017.009.033.017.025.017.05.025.083.033.017.009.025.009.041.017.009 0 .017.008.025.008s.017 0 .025.008c.008 0 .025.009.033.009s.025.008.033.008c.017 0 .033.008.05.008h.14c.017 0 .025 0 .042-.008h.008c.017 0 .033-.008.05-.008.008 0 .008 0 .016-.009h.025a.551.551 0 0 0 .157-.074c.009-.009.017-.009.025-.017.008-.008.017-.008.025-.016.008-.009.017-.017.025-.017l.025-.025c.008-.008.024-.016.033-.033.008-.016.016-.016.033-.033.008-.008.008-.017.016-.017.009-.008.009-.016.017-.016.017-.017.025-.033.041-.058.009-.017.017-.025.025-.041l.025-.05.025-.05c.008-.016.008-.033.016-.05a.254.254 0 0 0 .017-.066c.008-.024.008-.05.017-.074.008-.033.008-.066.008-.108.008-.058.008-.074.008-.099Zm-1.274-.008a.433.433 0 0 1 .058-.174.488.488 0 0 1 .438-.257c.025 0 .042 0 .066.009.274.033.464.29.43.562a.5.5 0 0 1-.496.43c-.025 0-.041 0-.066-.007a.51.51 0 0 1-.397-.307.443.443 0 0 1-.033-.256Z" fill="#fff"/></svg>