<svg width="58" height="58" viewBox="0 0 58 58" fill="none" xmlns="http://www.w3.org/2000/svg">
<path d="M11.6518 28.4531H9.74023V30.2493H11.6518V28.4531Z" fill="white"/>
<path d="M10.6904 29.3066C11.2205 29.3066 11.6503 28.9138 11.6503 28.4292C11.6503 27.9446 11.2205 27.5518 10.6904 27.5518C10.1602 27.5518 9.73047 27.9446 9.73047 28.4292C9.73047 28.9138 10.1602 29.3066 10.6904 29.3066Z" fill="white"/>
<path d="M16.0531 28.4531H14.1416V30.2493H16.0531V28.4531Z" fill="white"/>
<path d="M15.1015 29.3066C15.6317 29.3066 16.0614 28.9138 16.0614 28.4292C16.0614 27.9446 15.6317 27.5518 15.1015 27.5518C14.5714 27.5518 14.1416 27.9446 14.1416 28.4292C14.1416 28.9138 14.5714 29.3066 15.1015 29.3066Z" fill="white"/>
<path d="M14.1504 27.4863H11.6514V30.251H14.1504V27.4863Z" fill="white"/>
<path d="M12.9009 28.801C13.591 28.801 14.1504 28.1969 14.1504 27.4518C14.1504 26.7066 13.591 26.1025 12.9009 26.1025C12.2108 26.1025 11.6514 26.7066 11.6514 27.4518C11.6514 28.1969 12.2108 28.801 12.9009 28.801Z" fill="white"/>
<path d="M12.976 25.0859H12.7939V26.4186H12.976V25.0859Z" fill="white"/>
<path d="M13.2871 25.5673V25.3604H12.4761V25.5673H13.2871Z" fill="white"/>
<path d="M10.7826 26.7822H10.6006V27.8997H10.7826V26.7822Z" fill="white"/>
<path d="M11.1025 27.1953V27.0215H10.2916V27.1953H11.1025Z" fill="white"/>
<path d="M15.31 26.7822H15.1279V27.8997H15.31V26.7822Z" fill="white"/>
<path d="M15.6279 27.1963V27.0225H14.817V27.1963H15.6279Z" fill="white"/>
<path d="M42.7649 26.4258C42.7649 26.4258 42.3098 26.9887 42.3842 27.3032C42.4587 27.6095 42.6656 27.4688 42.5746 27.684C42.4753 27.8992 42.3925 27.9406 42.376 28.0813C42.3677 28.2303 42.707 28.1144 42.5746 28.28C42.4422 28.4455 42.0201 28.52 42.1525 28.6607C42.2767 28.8097 42.6077 28.6939 42.5746 28.8097C42.5415 28.9173 41.9043 28.7518 41.9539 29.1739C42.0036 29.5961 42.376 29.4802 42.6656 29.4306C42.9552 29.3726 43.3028 29.3229 43.3359 29.4885C43.369 29.654 43.6089 29.7782 43.7579 29.5961C43.9068 29.414 44.1799 28.8842 43.8655 28.8346C43.5593 28.7766 43.4434 28.7104 43.6255 28.5614C43.8075 28.4124 43.5924 28.3462 43.46 28.1641C43.3359 27.982 43.551 28.0151 43.5179 27.8164C43.4848 27.6178 43.1373 27.6923 43.2117 27.4688C43.2862 27.2536 43.5179 27.3446 43.3607 27.0301C43.1786 26.7155 42.9304 26.1858 42.7649 26.4258Z" fill="white"/>
<path d="M41.4918 29.5962C41.3594 29.5797 41.2518 29.5631 41.1856 29.5466C40.9125 29.4969 41.1856 29.4307 41.3346 29.2403C41.3759 29.1824 41.3511 29.1492 41.3015 29.1327C41.1691 29.083 40.8463 29.0996 40.805 28.9837C40.747 28.8264 40.9539 28.843 40.8463 28.7602C40.7388 28.6774 40.805 28.6112 40.8463 28.487C40.8463 28.4788 40.8463 28.4705 40.8463 28.4622C40.8463 28.4208 40.7967 28.396 40.7305 28.3877C40.6146 28.3712 40.4409 28.3877 40.3002 28.4457C40.0519 28.5533 40.4409 28.6112 40.5981 28.6774C40.7636 28.7437 40.5733 28.8264 40.4988 28.9837C40.4657 29.0665 40.5153 29.1079 40.6064 29.1575C40.6974 29.2072 40.8132 29.2569 40.9208 29.3562C41.136 29.5631 40.6891 29.5466 40.4326 29.5217C40.1761 29.4969 40.1347 29.4224 40.0602 29.4886C40.0519 29.4969 40.0436 29.5052 40.0354 29.5052C39.9443 29.5466 39.7375 29.4886 39.6382 29.4224C39.5802 29.3727 39.5306 29.3976 39.4975 29.3976C39.4892 29.3976 39.4809 29.3893 39.4727 29.3893C39.4561 29.381 39.4396 29.3479 39.4313 29.29C39.3899 29.0996 39.5637 29.1244 39.6961 28.9837C39.8285 28.843 39.2327 29.0003 39.3899 28.8099C39.5471 28.6195 39.6547 28.5947 39.6795 28.3712C39.7044 28.1559 39.514 28.2884 39.4065 28.1808C39.3154 28.0897 39.5637 28.1146 39.663 27.8414C39.6795 27.8 39.6878 27.7421 39.6961 27.6841C39.7375 27.2454 39.9112 27.0137 39.9443 27.1378C39.9692 27.262 40.1926 27.9821 40.1926 27.9821C40.2588 28.1973 40.4409 28.0649 40.6477 28.0401C40.8546 28.0152 40.7057 27.7504 40.565 27.3696C40.4326 26.9888 40.7305 27.1958 40.987 27.5434C41.2435 27.8993 41.2435 27.7172 41.318 27.9242C41.3842 28.1311 41.5497 27.949 41.6076 28.1394C41.6656 28.3298 41.5828 28.3132 41.7483 28.3629C41.9138 28.4126 41.8476 28.5864 41.7649 28.7354C41.6904 28.8761 41.7566 28.7519 42.0379 28.9175C42.0545 28.9258 42.0793 28.9423 42.1041 28.9589C42.1952 29.0168 42.2365 29.0582 42.2531 29.083C42.2862 29.1575 42.0959 29.1327 42.0214 29.1989C41.9386 29.2734 42.1621 29.29 42.3772 29.4472C42.402 29.4638 42.4351 29.4886 42.46 29.5135C42.6255 29.7204 41.9386 29.6625 41.4918 29.5962Z" fill="white"/>
<path d="M47.0265 27.6763C47.0265 27.6763 47.1838 26.89 47.2003 26.7492C47.2169 26.6168 47.341 26.8651 47.3741 27.3452C47.3989 27.8253 47.6554 27.7591 47.5727 27.8833C47.4982 27.9991 47.3658 27.8502 47.3824 28.0902C47.3989 28.3302 47.4817 28.3551 47.5892 28.5703C47.6968 28.7772 47.2748 28.5951 47.3741 28.7524C47.4734 28.9097 47.912 29.0256 47.8789 29.2408C47.8458 29.456 47.4899 29.1497 47.4072 29.2408C47.3244 29.3318 47.1589 29.3898 47.1093 29.3153C47.0596 29.2408 47.0348 29.3235 46.8528 29.3484C46.6707 29.3732 46.3563 29.3898 46.5052 29.1663C46.6624 28.9428 46.8528 28.9262 46.8031 28.7524C46.7535 28.5786 46.6211 28.4958 46.7369 28.4213C46.8528 28.3468 47.1176 28.2889 46.9438 28.1647C46.77 28.0488 46.53 28.0736 46.5631 28.2061C46.588 28.3385 46.6376 28.413 46.5631 28.5041C46.4887 28.5951 46.6293 28.5786 46.588 28.7524C46.5466 28.9262 46.108 28.8186 46.2156 29.0256C46.3232 29.2325 46.5135 29.2987 46.3232 29.3567C46.1328 29.4146 45.2805 29.5967 45.446 29.3567C45.6115 29.1166 45.8184 29.1001 45.7522 29.009C45.686 28.918 45.4543 28.9924 45.6942 28.7441C45.9342 28.4958 45.9921 28.6613 45.9342 28.4958C45.8763 28.3302 45.8266 28.1399 45.9425 28.0819C46.0584 28.0323 46.0004 28.0488 46.0418 27.8336C46.0832 27.6184 46.199 27.817 46.2404 27.5935C46.2901 27.3701 46.2901 27.5604 46.4721 27.1797C46.6542 26.7906 46.861 26.5671 46.77 26.9893C46.6707 27.4032 46.5714 27.6929 46.7121 27.7177C46.861 27.7674 46.9852 27.9164 47.0265 27.6763Z" fill="white"/>
<path d="M44.8002 26.8313C44.7589 26.9637 44.7423 27.6259 44.4444 27.8577C44.1465 28.0894 43.65 28.1143 43.9893 28.2219C44.3286 28.3378 44.7175 28.106 44.5189 28.2219C44.3286 28.3378 43.89 28.6358 44.1382 28.7434C44.3865 28.851 44.792 28.6192 44.5768 28.9089C44.3617 29.2069 43.6252 29.1158 43.8817 29.3642C44.1382 29.6125 45.3464 29.5214 45.5864 29.3642C45.8263 29.2069 45.4457 29.1903 45.4209 28.9089C45.396 28.6275 45.9422 28.7268 45.6691 28.4619C45.396 28.197 44.8499 28.0481 45.0981 28.0232C45.3464 27.9984 45.785 28.2633 45.6443 28.0232C45.5119 27.7914 44.883 26.5581 44.8002 26.8313Z" fill="white"/>
<path d="M47.8548 29.2974C47.8465 29.3057 47.8382 29.3057 47.8217 29.3139C47.5403 29.4381 46.8369 29.6119 46.5059 29.7195C45.968 29.8934 46.7624 29.7526 46.961 29.9596C47.1679 30.1665 45.6536 30.0341 45.1323 30.1831C44.6026 30.3238 45.5377 30.299 46.3156 30.3569C47.0934 30.4148 46.1087 30.8204 45.1323 30.7046C44.4537 30.6301 42.7904 30.7542 41.8139 30.7542C41.4002 30.7542 41.1023 30.7294 41.0692 30.6549C41.0278 30.5556 41.334 30.5225 41.7395 30.5142C42.3766 30.4893 43.2373 30.5142 43.3448 30.39C43.4359 30.2824 42.5173 30.3072 41.6733 30.2741C40.9699 30.2493 40.3161 30.1748 40.3492 29.9596C40.5148 30.0258 40.6389 30.092 40.7382 30.15C40.7382 30.15 41.4002 30.3735 40.8458 29.9844C40.7796 29.9348 40.6554 29.8768 40.4899 29.8023C40.6968 29.6864 41.1106 29.7444 41.5491 29.8189C42.0456 29.9016 42.5587 30.0093 42.8483 29.9348C43.1297 29.852 42.3766 29.7858 41.516 29.7113C40.9864 29.6616 40.4237 29.6119 40.0348 29.5457C39.679 29.4878 39.4721 29.4133 39.5879 29.3305C39.6872 29.2643 40.0596 29.2146 40.6058 29.1898C40.8127 29.1815 41.0444 29.1649 41.2926 29.1649C41.3092 29.1649 41.3257 29.1649 41.3505 29.1649C41.5326 29.1567 41.7312 29.1567 41.9381 29.1484C42.0374 29.1484 42.1367 29.1484 42.236 29.1401C42.7987 29.1318 43.3945 29.1318 43.982 29.1318C44.0565 29.1318 44.1392 29.1318 44.2137 29.1318C44.6771 29.1318 45.124 29.1401 45.546 29.1484C45.5957 29.1484 45.637 29.1484 45.6867 29.1484C45.9018 29.1484 46.1004 29.1567 46.2908 29.1567C46.3735 29.1567 46.448 29.1567 46.5225 29.1649C47.0769 29.1732 47.4907 29.1815 47.6562 29.1898C47.7555 29.1898 47.8299 29.1981 47.8796 29.2063C47.9872 29.2063 47.9623 29.2477 47.8548 29.2974Z" fill="white"/>
<path d="M47.4653 30.4077C47.6526 30.4077 47.8045 30.3669 47.8045 30.3166C47.8045 30.2663 47.6526 30.2256 47.4653 30.2256C47.2779 30.2256 47.126 30.2663 47.126 30.3166C47.126 30.3669 47.2779 30.4077 47.4653 30.4077Z" fill="white"/>
<path d="M47.2596 34.7192C47.3739 34.7192 47.4665 34.6784 47.4665 34.6282C47.4665 34.5779 47.3739 34.5371 47.2596 34.5371C47.1454 34.5371 47.0527 34.5779 47.0527 34.6282C47.0527 34.6784 47.1454 34.7192 47.2596 34.7192Z" fill="white"/>
<path d="M47.9705 34.7192C48.0848 34.7192 48.1774 34.6784 48.1774 34.6282C48.1774 34.5779 48.0848 34.5371 47.9705 34.5371C47.8563 34.5371 47.7637 34.5779 47.7637 34.6282C47.7637 34.6784 47.8563 34.7192 47.9705 34.7192Z" fill="white"/>
<path d="M16.914 32.1123C17.3573 32.1123 17.7167 32.0307 17.7167 31.9302C17.7167 31.8296 17.3573 31.748 16.914 31.748C16.4707 31.748 16.1113 31.8296 16.1113 31.9302C16.1113 32.0307 16.4707 32.1123 16.914 32.1123Z" fill="white"/>
<path d="M15.5817 32.4272C15.8102 32.4272 15.9955 32.3865 15.9955 32.3362C15.9955 32.2859 15.8102 32.2451 15.5817 32.2451C15.3532 32.2451 15.168 32.2859 15.168 32.3362C15.168 32.3865 15.3532 32.4272 15.5817 32.4272Z" fill="white"/>
<path d="M16.9811 32.5427C17.1228 32.5427 17.2377 32.5205 17.2377 32.493C17.2377 32.4656 17.1228 32.4434 16.9811 32.4434C16.8395 32.4434 16.7246 32.4656 16.7246 32.493C16.7246 32.5205 16.8395 32.5427 16.9811 32.5427Z" fill="white"/>
<path d="M40.5643 30.6139C40.6786 30.6139 40.7712 30.588 40.7712 30.556C40.7712 30.524 40.6786 30.498 40.5643 30.498C40.45 30.498 40.3574 30.524 40.3574 30.556C40.3574 30.588 40.45 30.6139 40.5643 30.6139Z" fill="white"/>
<path d="M47.5995 29.8288C47.7137 29.8288 47.8063 29.8028 47.8063 29.7708C47.8063 29.7388 47.7137 29.7129 47.5995 29.7129C47.4852 29.7129 47.3926 29.7388 47.3926 29.7708C47.3926 29.8028 47.4852 29.8288 47.5995 29.8288Z" fill="white"/>
<path d="M43.6673 31.5492C43.9598 31.5492 44.1969 31.5048 44.1969 31.4499C44.1969 31.3951 43.9598 31.3506 43.6673 31.3506C43.3748 31.3506 43.1377 31.3951 43.1377 31.4499C43.1377 31.5048 43.3748 31.5492 43.6673 31.5492Z" fill="white"/>
<path d="M9.73941 30.1504C9.73941 30.1504 8.7133 30.2746 9.06913 30.5725C9.41668 30.8623 10.931 30.6719 10.9393 30.7629C10.9476 30.854 10.6497 30.8705 10.8317 30.9947C11.0138 31.1189 11.7172 30.9119 12.2385 30.9947C12.7598 31.0775 13.6039 31.0692 13.6204 30.8954C13.637 30.7215 14.4148 30.796 14.3983 30.8705C14.3817 30.945 14.5721 31.0444 15.0851 30.9781C15.5982 30.9119 15.3996 30.7133 15.8464 30.796C16.2933 30.8788 16.4588 30.7629 16.434 30.5974C16.4091 30.4318 17.3442 30.1504 16.285 30.1504C15.2092 30.1504 9.73941 30.1504 9.73941 30.1504Z" fill="white"/>
<path d="M22.3998 36.7634C22.1018 36.7469 19.8758 36.5317 19.3462 36.9869C18.7753 37.4752 19.8014 37.6738 21.8122 38.187C23.8148 38.7001 25.205 39.0229 24.9816 39.685C24.7664 40.3388 23.1942 39.9415 22.7556 40.2643C22.317 40.5871 22.648 41.092 23.5169 40.9926C24.394 40.885 25.1554 41.0092 24.5761 41.2409C23.9968 41.4727 23.4424 41.721 23.9224 41.8368C24.394 41.9444 26.438 41.572 26.0739 42.0355C25.7098 42.4989 22.9045 42.1679 22.7225 42.5651C22.5404 42.9624 25.2381 42.772 25.4202 43.07C25.6022 43.3679 23.6741 43.219 23.8148 43.7321C23.9555 44.2452 24.4685 44.1873 25.6353 44.2121C27.7124 44.2701 29.2598 44.237 28.5812 43.7983C27.8944 43.3597 28.4819 43.2272 29.0612 43.31C29.6405 43.3928 32.3381 43.8811 32.1561 43.31C31.974 42.7389 30.9562 43.1445 30.1866 42.6313C29.4253 42.1182 30.6252 42.292 31.4279 42.0272C32.2306 41.7623 30.9893 41.663 31.2458 41.2409C31.5023 40.8106 32.1892 41.5968 32.4871 41.2409C32.7767 40.885 32.2719 40.8106 33.5794 40.794C34.8951 40.7775 35.8716 40.5623 34.6386 40.1981C33.4056 39.834 32.5616 39.5029 33.4387 39.4367C34.3159 39.3705 35.3668 39.3622 35.8054 38.9236C36.244 38.4849 36.5336 38.5925 37.5928 38.3773C38.652 38.1621 38.2465 37.7566 38.8837 37.798C39.5209 37.8394 40.4063 36.7965 39.7526 36.9455C39.0989 37.0945 32.3133 37.8145 30.799 37.8145C29.1605 37.8145 27.6379 38.0049 26.5456 37.8145C25.5195 37.6076 22.9376 36.7883 22.3998 36.7634Z" fill="white"/>
<path d="M26.9194 45.2877C28.3224 45.2877 29.4598 45.1765 29.4598 45.0393C29.4598 44.9022 28.3224 44.791 26.9194 44.791C25.5163 44.791 24.3789 44.9022 24.3789 45.0393C24.3789 45.1765 25.5163 45.2877 26.9194 45.2877Z" fill="white"/>
<path d="M27.399 48.1026C29.8257 48.1026 31.793 47.9544 31.793 47.7715C31.793 47.5887 29.8257 47.4404 27.399 47.4404C24.9722 47.4404 23.0049 47.5887 23.0049 47.7715C23.0049 47.9544 24.9722 48.1026 27.399 48.1026Z" fill="white"/>
<path d="M31.3867 44.5433C32.3419 44.5433 33.1162 44.4173 33.1162 44.2619C33.1162 44.1065 32.3419 43.9805 31.3867 43.9805C30.4315 43.9805 29.6572 44.1065 29.6572 44.2619C29.6572 44.4173 30.4315 44.5433 31.3867 44.5433Z" fill="white"/>
<path d="M31.3628 49.1945C32.1488 49.1945 32.7861 49.1315 32.7861 49.0538C32.7861 48.9761 32.1488 48.9131 31.3628 48.9131C30.5767 48.9131 29.9395 48.9761 29.9395 49.0538C29.9395 49.1315 30.5767 49.1945 31.3628 49.1945Z" fill="white"/>
<path d="M19.1311 34.1319C19.1477 34.1567 19.1642 34.1898 19.1725 34.2146C19.1394 34.2229 19.1063 34.2229 19.0732 34.2229C18.9987 34.2312 18.9077 34.2229 18.8167 34.2146C18.7587 34.2064 18.7008 34.2064 18.6512 34.2064C18.3036 34.1898 18.2705 34.2395 18.2126 34.2891C18.1629 34.3305 18.105 34.3719 17.8154 34.3636C17.1617 34.3471 16.9962 33.9994 16.21 34.2974C15.4239 34.6037 16.2348 34.5292 15.7218 34.5457C15.2087 34.5623 15.3825 34.1567 14.7619 34.2643C14.1495 34.3719 14.7784 34.4961 14.9439 34.6864C15.1177 34.8768 14.0006 34.5457 13.4296 34.3222C12.8586 34.107 11.758 34.1815 11.7994 33.958C11.8408 33.7263 12.4366 33.8587 12.0807 33.6931C11.7249 33.5359 11.3194 33.6021 11.6173 33.4365C11.9152 33.271 12.6021 33.42 12.7428 33.1965C12.8752 32.973 11.1539 33.2213 10.9553 33.0972C10.7485 32.973 11.576 33.0392 11.3691 32.824C11.1622 32.6005 9.94578 32.5591 9.21757 32.5591C8.48936 32.5674 8.29076 32.3439 8.87829 32.3108C9.46582 32.2777 9.62305 32.137 10.2851 32.0873C10.9471 32.0376 11.7994 32.3191 12.4366 32.0542C13.0738 31.7893 14.0088 31.93 14.5467 32.1701C15.0846 32.4101 13.9923 32.3274 13.5537 32.3687C13.1151 32.4101 13.4958 32.7081 14.0419 32.8323C14.5798 32.9564 14.4971 32.5591 15.4404 32.675C16.3838 32.7992 15.97 32.9564 16.5907 32.973C17.2113 32.9813 17.5754 33.0227 17.5754 33.0227H17.5837C18.5601 33.0806 18.5022 33.3289 18.5684 33.569C18.6098 33.7345 18.2705 33.6187 17.865 33.5773C17.683 33.5607 17.4927 33.5607 17.3189 33.6104C16.9134 33.718 17.3023 33.7759 17.9726 33.7925C18.2291 33.8008 18.5188 33.7925 18.8332 33.7842H18.8415C18.8829 33.7842 18.9242 33.7842 18.9656 33.7842C19.1311 33.7842 19.2553 33.8008 19.3546 33.8256C19.2553 33.9498 19.1891 34.0491 19.1311 34.1319Z" fill="white"/>
<path d="M49.6339 32.4269C48.9057 32.3938 47.6645 32.162 47.4493 32.3193C47.2342 32.4766 48.0617 32.46 47.8465 32.5428C47.6314 32.6339 45.9267 32.369 46.0508 32.5428C46.175 32.7166 46.8701 32.6339 47.1597 32.7663C47.4493 32.8987 47.0521 32.8325 46.688 32.9401C46.3239 33.0477 46.9197 32.9732 46.9528 33.1471C46.9776 33.3209 45.8853 33.2133 45.3061 33.354C44.7268 33.4947 43.5931 33.7017 43.7752 33.5609C43.9572 33.4202 44.5944 33.354 43.9821 33.2464C43.3697 33.1388 43.5187 33.4533 43.0056 33.4202C42.4925 33.3871 43.2952 33.4699 42.5339 33.2133C42.4843 33.1967 42.4429 33.1802 42.4015 33.1719C41.9629 33.0477 41.723 33.1057 41.4333 33.1553C41.4416 33.0312 41.4333 32.8987 41.4251 32.7663C41.6733 32.758 41.7312 32.7166 41.483 32.6587C41.4582 32.6504 41.4416 32.6504 41.4168 32.6421C41.4002 32.4931 41.3754 32.3441 41.3506 32.2034C41.4913 32.1951 41.7809 32.1951 42.1946 32.2034C42.2112 32.2034 42.2277 32.2034 42.2443 32.2034C42.8649 32.22 42.4594 32.0793 43.4111 32.0296C44.3544 31.9799 44.2469 32.2779 44.793 32.2034C45.3392 32.1289 45.7447 31.922 45.3061 31.8723C44.8675 31.8227 43.7752 31.8392 44.3213 31.6819C44.8675 31.5247 45.8191 31.4584 46.4315 31.6819C47.0521 31.9054 47.1845 31.8144 47.8465 31.8806C48.5085 31.9468 48.4672 32.0875 49.0547 32.1372C49.6339 32.1951 50.3622 32.46 49.6339 32.4269Z" fill="white"/>
<path d="M11.6993 31.2845C11.6579 31.2928 11.691 31.3425 11.0786 31.3342C10.4663 31.3259 10.2428 31.1355 9.68013 31.2597C9.11743 31.3839 8.8609 31.4749 8.56299 31.4666C8.26509 31.4666 8.32302 31.8308 8.6292 31.7563C8.93537 31.6818 9.20018 31.6073 9.72978 31.657C10.2594 31.7067 10.2677 31.6818 10.7145 31.6239C11.1614 31.566 11.6 31.6901 11.9972 31.6653C12.4026 31.6405 13.0398 31.5329 12.7667 31.4501C12.5019 31.3673 12.2785 31.1935 11.6993 31.2845Z" fill="white"/>
<path d="M15.9877 31.3267C16.0787 31.2439 16.4097 31.3184 16.3849 31.2108C16.3766 31.1777 16.1449 31.1115 15.8139 31.1694C15.3174 31.2522 15.7229 31.2605 14.9533 31.2853C14.1838 31.3184 14.1507 31.4177 13.8776 31.4591C13.6045 31.5005 13.3149 31.6661 13.5631 31.6495C13.8114 31.633 14.2582 31.5005 14.1507 31.6081C14.0431 31.7157 13.8114 31.873 14.0017 31.8647C14.192 31.8564 14.341 31.7323 14.5644 31.7985C14.7961 31.8647 15.0526 31.8316 15.1768 31.8647C15.3009 31.8978 15.4581 31.9972 15.5243 31.9558C15.5905 31.9144 15.6981 31.7323 15.4912 31.6826C15.2843 31.6329 15.2181 31.484 15.4333 31.5005C15.6484 31.5253 15.7891 31.5667 16.1532 31.5336C16.5091 31.5005 16.7325 31.6247 16.7821 31.5336C16.8401 31.4426 17.0635 31.2605 16.6166 31.3184C16.1698 31.3846 15.8884 31.4177 15.9877 31.3267Z" fill="white"/>
<path d="M45.2317 34.703C44.3876 34.6699 44.8179 34.8023 44.2221 34.7775C43.7918 34.7527 43.1298 34.6864 42.4678 34.703C42.203 34.7113 41.9299 34.7278 41.6734 34.7775C40.7879 34.9265 40.1259 34.8851 39.9521 34.8686C39.9521 34.8686 40.159 34.7113 40.4735 34.5623C40.9865 34.5457 41.2927 34.5209 41.3175 34.4878C41.392 34.3719 41.1686 34.3967 41.1686 34.3967C41.0858 34.405 41.0114 34.405 40.9286 34.405C41.2927 34.3305 41.7478 34.3222 42.1533 34.3885C42.2774 34.405 42.3767 34.4216 42.4761 34.4216C42.8071 34.4298 43.0057 34.3305 43.3118 34.1981C43.709 34.016 43.8994 34.2146 44.2552 34.3553C44.611 34.5043 44.8593 34.4298 45.5461 34.4216C46.2329 34.405 46.2247 34.2891 46.5805 34.4216C46.9281 34.554 46.0757 34.7278 45.2317 34.703Z" fill="white"/>
<path d="M14.5557 17.7598L14.266 18.1323L11.4442 15.9639L9.68164 18.2564L11.3201 19.5227C11.8332 19.92 12.1559 20.3172 12.2717 20.7145L12.0152 21.0538L13.3392 22.0718L13.8688 21.3849L13.2068 20.8717L14.6798 18.9516L15.3418 19.4648L15.8714 18.7778L14.5557 17.7598ZM12.851 19.9779C12.702 19.6055 12.371 19.233 11.8663 18.844L10.8567 18.0661L11.5684 17.1391L13.7447 18.8109L12.851 19.9779Z" fill="#009FE3"/>
<path d="M18.0896 15.8309L15.2595 12.4873L14.7547 12.9094L15.0526 16.1703L13.3231 14.1177L12.6611 14.6723L15.4912 18.0159L15.996 17.5938L15.7064 14.3412L17.4359 16.3855L18.0896 15.8309Z" fill="#009FE3"/>
<path d="M20.8108 12.8277C20.5957 12.4387 20.2647 12.2401 19.8261 12.2318C19.9585 11.9091 19.9419 11.5863 19.7681 11.2635C19.5944 10.949 19.3378 10.7504 19.0068 10.6759C18.6676 10.6014 18.3366 10.651 18.0056 10.8331L16.4912 11.669L18.6096 15.5093L20.2398 14.6154C20.5791 14.4333 20.8025 14.1685 20.9184 13.8374C21.026 13.4816 20.9929 13.1588 20.8108 12.8277ZM17.6332 11.9504L18.3862 11.5366C18.5103 11.4704 18.6262 11.4539 18.7503 11.4952C18.8744 11.5366 18.9655 11.6111 19.0317 11.7352C19.0979 11.8594 19.1144 11.9753 19.0813 12.0994C19.0482 12.2236 18.9737 12.3146 18.8579 12.3808L18.1049 12.8029L17.6332 11.9504ZM20.0909 13.5891C20.0578 13.7216 19.975 13.8209 19.8426 13.8954L18.9737 14.3754L18.4772 13.4733L19.3461 12.9932C19.4702 12.9188 19.6026 12.9105 19.735 12.9436C19.8674 12.985 19.9667 13.0677 20.0412 13.1919C20.1074 13.3243 20.124 13.4567 20.0909 13.5891Z" fill="#009FE3"/>
<path d="M25.2878 10.4438C25.1057 9.83139 24.7416 9.37619 24.1955 9.07824C23.6493 8.78029 23.0701 8.72236 22.4577 8.89616C21.8454 9.07824 21.3985 9.4424 21.1006 9.98864C20.8027 10.5349 20.7448 11.1142 20.9268 11.7267C21.1089 12.3391 21.473 12.7943 22.0191 13.0923C22.5653 13.3902 23.1445 13.4481 23.7486 13.2743C24.361 13.0923 24.8078 12.7281 25.114 12.1819C25.4036 11.6356 25.4698 11.0563 25.2878 10.4438ZM24.361 11.7929C24.1789 12.1322 23.8893 12.3557 23.5087 12.4633C23.1197 12.5791 22.7639 12.5377 22.4246 12.3639C22.0853 12.1819 21.8619 11.8922 21.7461 11.4867C21.6302 11.0894 21.6633 10.717 21.8454 10.3776C22.0274 10.0383 22.317 9.81483 22.6977 9.69896C23.0783 9.5831 23.4424 9.62448 23.7817 9.80656C24.121 9.98864 24.3444 10.2866 24.4603 10.6838C24.5761 11.0894 24.543 11.4535 24.361 11.7929Z" fill="#009FE3"/>
<path d="M28.301 8.01855L28.2514 10.6094C28.2431 11.0233 28.1686 11.2964 28.0445 11.4372C27.9121 11.5779 27.7135 11.6275 27.457 11.5862L27.4404 12.3891C27.6639 12.4139 27.8625 12.4056 28.0445 12.3725C28.2266 12.3311 28.4003 12.2566 28.5658 12.1325C28.7313 12.0083 28.8555 11.8179 28.9548 11.5613C29.0541 11.3047 29.1037 10.9902 29.112 10.6094L29.1451 8.87114L30.4112 8.89597L30.3367 12.4553L31.1973 12.4719L31.2883 8.09305L28.301 8.01855Z" fill="#009FE3"/>
<path d="M35.4338 13.2419L34.9373 8.76443L33.8946 8.52441L31.4121 12.4474L32.3224 12.6626L32.7527 11.9508L34.4573 12.3481L34.5318 13.1757L35.3759 13.3743L35.4504 13.3909L35.4338 13.2419ZM33.2078 11.2225L34.2008 9.61689L34.3829 11.4956L33.2078 11.2225Z" fill="#009FE3"/>
<path d="M40.5891 10.9807L37.9742 9.73926L37.0805 11.6097C36.7991 12.1973 36.4764 12.5946 36.1123 12.7932L35.7316 12.6111L35.4255 13.2484L35.3675 13.3726L35.0117 14.1174L35.7896 14.4899L36.1537 13.7284L38.3383 14.7713L37.9742 15.5244L38.7521 15.8968L39.4637 14.3906L39.0417 14.1919L40.5891 10.9807ZM38.2804 13.8195L36.9564 13.1905C37.2874 12.967 37.5853 12.5615 37.8583 11.9904L38.4045 10.84L39.4554 11.3366L38.2804 13.8195Z" fill="#009FE3"/>
<path d="M44.6275 14.6066C44.553 13.9859 44.2717 13.4811 43.7752 13.0838C43.2787 12.6865 42.7243 12.521 42.1036 12.5955C41.483 12.6617 40.9782 12.9514 40.581 13.448C40.1838 13.9445 40.0183 14.5073 40.0845 15.1281C40.1507 15.7488 40.4321 16.2536 40.9286 16.6509C41.4251 17.0482 41.9795 17.2137 42.6001 17.1392C43.2208 17.073 43.7338 16.7916 44.131 16.2867C44.5365 15.7902 44.6937 15.2274 44.6275 14.6066ZM43.4607 15.7488C43.2042 16.0716 42.8815 16.2619 42.5008 16.295C42.1202 16.3364 41.7726 16.2288 41.4582 15.9805C41.1437 15.7322 40.9699 15.4177 40.9203 15.037C40.8789 14.6563 40.9865 14.3087 41.243 13.9776C41.4995 13.6549 41.8223 13.4645 42.2029 13.4231C42.5836 13.3817 42.9311 13.4811 43.2456 13.7376C43.56 13.9859 43.7338 14.3004 43.7835 14.6811C43.8248 15.0701 43.7173 15.426 43.4607 15.7488Z" fill="#009FE3"/>
<path d="M46.3246 15.542L42.9814 18.3729L43.5359 19.0351L46.2501 16.7422L47.301 17.9839L47.9299 17.4541L46.3246 15.542Z" fill="#009FE3"/>
<path d="M48.8394 18.8105L44.3047 19.7873L44.7929 20.5819L45.6039 20.3916L46.5141 21.8815L45.9763 22.5189L46.4645 23.3218L49.4021 19.7211L48.8394 18.8105ZM47.052 21.2359L46.4231 20.2094L48.2602 19.7873L47.052 21.2359Z" fill="#009FE3"/>
<path d="M14.6133 41.4551C14.6133 41.1571 14.5223 40.9088 14.3319 40.7101C14.1416 40.5114 13.9016 40.4121 13.612 40.4121C13.3058 40.4121 13.0493 40.5114 12.859 40.7101C12.6604 40.9088 12.5693 41.1571 12.5693 41.4634C12.5693 41.7613 12.6686 42.0179 12.8672 42.2166C13.0658 42.4153 13.3306 42.5146 13.6534 42.5146C14.034 42.5146 14.3237 42.3739 14.5223 42.0924L14.1085 41.8524C14.0092 41.9848 13.8603 42.0511 13.6616 42.0511C13.3555 42.0511 13.1734 41.9269 13.0989 41.6786H14.5967C14.6133 41.5875 14.6133 41.5213 14.6133 41.4551ZM13.0907 41.2647C13.1155 41.1405 13.1817 41.0412 13.2727 40.9667C13.3637 40.9005 13.4796 40.8591 13.612 40.8591C13.7278 40.8591 13.8354 40.8922 13.9265 40.9584C14.0175 41.0246 14.0754 41.124 14.1085 41.2564H13.0907V41.2647Z" fill="#009FE3"/>
<path d="M16.2848 41.531C16.2186 41.44 16.1276 41.3737 16.0283 41.3406C15.929 41.2992 15.8297 41.2744 15.7221 41.2496C15.6228 41.2247 15.54 41.1999 15.4656 41.1585C15.3911 41.1254 15.358 41.084 15.358 41.0344C15.358 40.9847 15.3828 40.9433 15.4242 40.9102C15.4656 40.8854 15.5235 40.8688 15.5897 40.8688C15.7386 40.8688 15.8462 40.935 15.9041 41.0675L16.3427 40.8274C16.2682 40.695 16.1607 40.5874 16.0283 40.5129C15.8959 40.4384 15.7469 40.4053 15.5897 40.4053C15.3745 40.4053 15.1925 40.4632 15.0518 40.5708C14.9111 40.6867 14.8367 40.8357 14.8367 41.0344C14.8367 41.1668 14.8698 41.2744 14.9442 41.3572C15.0104 41.44 15.1015 41.5062 15.2008 41.5476C15.3001 41.589 15.3994 41.6221 15.4987 41.6469C15.598 41.6717 15.6807 41.7048 15.7552 41.738C15.8214 41.7711 15.8628 41.8124 15.8628 41.8704C15.8628 41.9863 15.7717 42.0442 15.5897 42.0442C15.3911 42.0442 15.2587 41.9614 15.2008 41.7876L14.7539 42.0359C14.9029 42.3505 15.1842 42.5078 15.5897 42.5078C15.8214 42.5078 16.0034 42.4498 16.1607 42.3422C16.3096 42.2346 16.3924 42.0773 16.3924 41.8704C16.3924 41.7297 16.3593 41.6221 16.2848 41.531Z" fill="#009FE3"/>
<path d="M17.8006 40.9512V40.4628H17.3538V39.9082L16.8407 40.0655V40.4711H16.4932V40.9594H16.8407V41.7872C16.8407 42.0604 16.9152 42.2507 17.0559 42.3583C17.1965 42.466 17.4448 42.4991 17.8006 42.4577V41.9941C17.7013 42.0024 17.6186 42.0024 17.5524 41.9941C17.4862 41.9859 17.4365 41.9693 17.4034 41.9445C17.3703 41.9114 17.3538 41.8617 17.3538 41.7955V40.9677H17.8006V40.9512Z" fill="#009FE3"/>
<path d="M18.7267 41.9196C18.6605 41.8534 18.5778 41.8203 18.4867 41.8203C18.3957 41.8203 18.313 41.8534 18.2468 41.9196C18.1806 41.9859 18.1475 42.0686 18.1475 42.1597C18.1475 42.2507 18.1806 42.3335 18.2468 42.3997C18.313 42.466 18.3957 42.4991 18.4867 42.4991C18.5778 42.4991 18.6605 42.466 18.7267 42.3997C18.7929 42.3335 18.826 42.2507 18.826 42.1597C18.826 42.0686 18.7929 41.9859 18.7267 41.9196Z" fill="#009FE3"/>
<path d="M39.0838 42.1854L39.63 41.6391C39.9362 41.3328 40.0851 41.0348 40.0851 40.7451C40.0851 40.4802 39.9941 40.265 39.812 40.1077C39.63 39.9505 39.4148 39.876 39.1666 39.876C38.968 39.876 38.7942 39.9256 38.6287 40.025C38.4632 40.1243 38.3391 40.2733 38.248 40.4637L38.7114 40.7368C38.8108 40.5216 38.968 40.414 39.1749 40.414C39.2824 40.414 39.3652 40.4471 39.4314 40.5133C39.4976 40.5796 39.5307 40.6706 39.5307 40.7782C39.5307 40.9272 39.4231 41.1093 39.2162 41.3328L38.2646 42.3096V42.7152H40.1265V42.1854H39.0838V42.1854Z" fill="#009FE3"/>
<path d="M42.3045 40.2733C42.1059 40.0084 41.8329 39.876 41.4853 39.876C41.1377 39.876 40.8647 40.0084 40.6661 40.2733C40.4675 40.5382 40.3682 40.8858 40.3682 41.3245C40.3682 41.7632 40.4675 42.1109 40.6661 42.3758C40.8647 42.6407 41.1377 42.7731 41.4853 42.7731C41.8329 42.7731 42.1059 42.6407 42.3045 42.3758C42.5031 42.1109 42.5942 41.7632 42.5942 41.3245C42.5942 40.8858 42.5031 40.5382 42.3045 40.2733ZM41.9073 42.0033C41.808 42.1606 41.6674 42.2351 41.4853 42.2351C41.3032 42.2351 41.1626 42.1606 41.0633 42.0033C40.964 41.846 40.9226 41.6225 40.9226 41.3245C40.9226 41.0266 40.9722 40.8031 41.0633 40.6458C41.1543 40.4885 41.295 40.414 41.4853 40.414C41.6756 40.414 41.8163 40.4885 41.9073 40.6458C42.0066 40.8031 42.0563 41.0266 42.0563 41.3245C42.0563 41.6143 42.0066 41.846 41.9073 42.0033Z" fill="#009FE3"/>
<path d="M43.4264 39.9346L42.6982 40.1912L42.8306 40.663L43.352 40.514V42.7158H43.8981V39.9346H43.4264Z" fill="#009FE3"/>
<path d="M46.2596 40.2733C46.061 40.0084 45.7879 39.876 45.4404 39.876C45.0928 39.876 44.8198 40.0084 44.6211 40.2733C44.4225 40.5382 44.3232 40.8858 44.3232 41.3245C44.3232 41.7632 44.4225 42.1109 44.6211 42.3758C44.8198 42.6407 45.0928 42.7731 45.4404 42.7731C45.7879 42.7731 46.061 42.6407 46.2596 42.3758C46.4582 42.1109 46.5575 41.7632 46.5575 41.3245C46.5575 40.8858 46.4582 40.5382 46.2596 40.2733ZM45.8707 42.0033C45.7714 42.1606 45.6307 42.2351 45.4487 42.2351C45.2666 42.2351 45.1259 42.1606 45.0266 42.0033C44.9273 41.846 44.886 41.6225 44.886 41.3245C44.886 41.0266 44.9356 40.8031 45.0266 40.6458C45.1259 40.4885 45.2583 40.414 45.4487 40.414C45.6307 40.414 45.7714 40.4885 45.8707 40.6458C45.97 40.8031 46.0196 41.0266 46.0196 41.3245C46.0114 41.6143 45.9617 41.846 45.8707 42.0033Z" fill="#009FE3"/>
<path d="M26.6453 45.8174C26.9763 45.6767 31.329 45.3042 32.2724 45.8174C33.224 46.3306 31.6931 46.074 31.5442 46.2892C31.3952 46.5044 33.0751 46.3637 34.2418 46.4713C35.4086 46.5789 35.2597 46.9431 34.0019 46.91C32.744 46.8769 25.1475 46.8935 24.9158 46.91C24.2869 46.968 23.7573 46.5789 27.2494 46.4713C28.201 46.4465 26.2233 45.9995 26.6453 45.8174Z" fill="white"/>
<path d="M50.2215 7.77147L36.7662 0H21.2256L7.77031 7.77147L0 21.2288V36.7717L7.77031 50.229L21.2256 58.0005H36.7662L50.2215 50.229L57.9918 36.7717V21.2288L50.2215 7.77147ZM57.1643 36.5483L49.6174 49.6249L36.5428 57.1729H21.449L8.37439 49.6249L0.827509 36.5483V21.4522L8.37439 8.37565L21.449 0.827633H36.5428L49.6174 8.37565L57.1643 21.4522V36.5483V36.5483Z" fill="#D88532"/>
<path d="M47.1237 10.7464L35.5882 4.08398H22.2736L10.7464 10.7382L4.08496 22.2754V35.592L10.7464 47.1209L22.2736 53.7833H35.5882L47.1154 47.1209L53.7769 35.592V22.2754L47.1237 10.7464ZM52.9494 35.3685L46.5113 46.5167L35.3648 52.9557H22.497L11.3505 46.5167L4.91247 35.3685V22.4988L11.3505 11.3506L22.497 4.91162H35.3648L46.5113 11.3506L52.9494 22.4988V35.3685V35.3685Z" fill="#D88532"/>
<path d="M27.2758 0.414062H26.4482V4.5611H27.2758V0.414062Z" fill="#D88532"/>
<path d="M31.7445 0.414062H30.917V4.5611H31.7445V0.414062Z" fill="#D88532"/>
<path d="M57.999 30.6299H53.4229V31.499H57.999V30.6299Z" fill="#D88532"/>
<path d="M57.999 26.1611H53.4229V27.0303H57.999V26.1611Z" fill="#D88532"/>
<path d="M31.6615 53.4326H30.834V57.5797H31.6615V53.4326Z" fill="#D88532"/>
<path d="M27.1927 53.4326H26.3652V57.5797H27.1927V53.4326Z" fill="#D88532"/>
<path d="M4.55988 26.1855H0.414062V27.0133H4.55988V26.1855Z" fill="#D88532"/>
<path d="M4.55988 30.6543H0.414062V31.482H4.55988V30.6543Z" fill="#D88532"/>
<path d="M37.7259 26.0126L37.1963 22.6193L36.5839 21.6593L34.0517 21.3613C34.0517 21.3779 34.0104 21.5186 33.9442 21.742C33.6876 22.6607 33.0256 24.9946 32.8187 25.814C32.7691 25.9961 32.7443 26.1037 32.7525 26.1119C32.7939 26.1285 36.7494 26.7492 36.7494 26.7492L37.7424 26.1202L37.7259 26.0126ZM34.3579 22.3048C34.3579 22.3048 36.6584 22.8593 36.7329 22.8924C36.8156 22.9256 37.0721 25.6898 37.0721 25.6898L36.6584 25.6567L36.286 26.0623L33.4228 25.5243L34.3579 22.3048Z" fill="white"/>
<path d="M29.0467 21.0956L27.4248 25.631L28.1034 25.722L29.8494 20.8887L29.0467 21.0956Z" fill="white"/>
<path d="M21.3997 22.1716L19.7529 26.4759L20.1336 26.3931L21.6893 22.0723L21.3997 22.1716Z" fill="white"/>
<path d="M37.2049 22.619C37.2049 22.619 33.208 21.5429 33.0756 21.5264C32.9432 21.5098 29.1615 21.576 29.1615 21.576L19.6782 22.3955C19.6782 22.3955 19.5707 21.5512 19.7941 21.278C20.0092 21.0132 20.4064 20.7483 20.4064 20.7483C20.4064 20.7483 20.332 20.4006 20.6961 20.4006C21.0602 20.4006 32.4467 19.4404 32.4467 19.4404L36.5677 20.2599L37.3952 21.187L37.2049 22.619Z" fill="white"/>
<path d="M38.9503 28.0566L31.1469 26.7653L26.5377 27.295C25.2302 27.3364 23.6579 27.4109 23.3269 27.4772C23.0704 27.5268 22.6236 27.6179 22.2926 27.7089L20.7368 27.7006H20.4141L18.4695 27.6924L16.9717 27.1792C16.9717 27.1792 17.2696 26.9888 17.3689 26.9557C17.4682 26.9226 18.0723 26.7736 18.0723 26.7736L18.6267 26.4673L18.8336 26.3514C18.8336 26.3514 18.8832 26.3431 18.9743 26.3349L19.0736 26.3266C19.1067 26.3266 19.148 26.3183 19.1811 26.31L19.3549 26.2935L19.4542 26.2852L19.5618 26.2686L19.6776 26.2521L19.7852 26.2438C19.8018 26.2438 19.81 26.2438 19.8266 26.2355C19.9093 26.2273 20.0004 26.219 20.0997 26.2024C20.1245 26.2024 20.1576 26.1941 20.1824 26.1941C21.945 25.9955 25.0813 25.6727 27.4397 25.5402C27.6879 25.5237 27.9279 25.5154 28.1596 25.5071C28.6396 25.4906 29.0781 25.4823 29.434 25.4906C30.4435 25.5154 31.6517 25.6478 32.8019 25.8134C34.9452 26.1279 36.8567 26.5418 36.8567 26.5418L37.3118 25.8713L37.709 25.9955L38.6855 26.3017L38.8593 27.5517L38.9503 28.0566Z" fill="white"/>
<path d="M25.3056 37.4985L24.354 34.9742C23.4851 34.1714 23.0382 33.3438 23.0382 33.3438C22.9058 33.1038 23.1375 33.0293 23.6341 33.0624L23.1955 31.8871C23.1044 31.854 23.0382 31.8375 23.0051 31.8126C22.5169 31.5644 22.7238 31.4733 22.9224 31.5313C22.9224 31.5313 22.9803 31.5478 23.0796 31.5726L22.7238 30.6291C22.5583 30.414 22.4342 30.116 22.3431 29.8015L20.7543 27.7076L20.2744 27.0703L16.9892 27.1779C16.4347 27.4427 16.2609 28.7421 16.2609 28.7421C16.2609 28.7421 16.2609 28.7421 16.2527 28.7421C16.2444 28.7421 16.2278 28.7504 16.203 28.767C16.1947 28.7752 16.1782 28.7752 16.1699 28.7835C16.1616 28.7835 16.1616 28.7918 16.1534 28.7918C16.1451 28.8001 16.1368 28.8001 16.1285 28.8083C16.112 28.8166 16.1037 28.8249 16.0872 28.8332L16.0789 28.8414C16.0706 28.8497 16.0623 28.858 16.0458 28.8663C16.0375 28.8746 16.021 28.8828 16.0127 28.8911C15.9879 28.9077 15.963 28.9325 15.9382 28.9573C15.9217 28.9739 15.9134 28.9821 15.8968 28.9987C15.8803 29.0152 15.872 29.0235 15.8555 29.0401C15.8472 29.0484 15.8389 29.0649 15.8306 29.0732C15.8224 29.0815 15.8141 29.098 15.8058 29.1063C15.7975 29.1228 15.7893 29.1311 15.7727 29.1477C15.7644 29.1642 15.7562 29.1725 15.7479 29.1891C15.7396 29.2056 15.7313 29.2139 15.7231 29.2304C15.7148 29.247 15.7065 29.2635 15.6982 29.2801C15.69 29.2966 15.6817 29.3132 15.6734 29.3215C15.6403 29.3877 15.6072 29.4622 15.5741 29.5449C15.5658 29.578 15.5493 29.6194 15.5493 29.6525C15.5493 29.6691 15.541 29.6856 15.541 29.7022C15.541 29.7105 15.541 29.7187 15.541 29.727C15.541 29.7684 15.541 29.8098 15.5493 29.8429C15.5576 29.876 15.5658 29.9008 15.5741 29.9256C15.5741 29.9339 15.5824 29.9422 15.5824 29.9505C15.5824 29.9588 15.5907 29.967 15.5989 29.9753C15.5989 29.9836 15.6072 29.9919 15.6155 30.0001C15.6238 30.0084 15.632 30.025 15.6403 30.0332C15.6403 30.0332 15.6403 30.0332 15.6403 30.0415C15.6486 30.0498 15.6569 30.0581 15.6651 30.0746C15.6734 30.0912 15.69 30.0994 15.7065 30.116C15.7231 30.1243 15.7313 30.1408 15.7479 30.1491C15.7562 30.1574 15.7727 30.1657 15.781 30.1739C15.7975 30.1822 15.8058 30.1905 15.8224 30.1988C15.8306 30.207 15.8472 30.2153 15.8555 30.2236C15.8637 30.2319 15.872 30.2319 15.8803 30.2401C15.8803 30.2401 15.8803 30.2401 15.8886 30.2484C15.9051 30.2567 15.9299 30.2733 15.9548 30.2815C15.9548 30.2815 15.9548 30.2815 15.963 30.2815C15.9796 30.2898 15.9961 30.2981 16.0127 30.2981C16.021 30.3064 16.0292 30.3064 16.0375 30.3064C16.0541 30.3146 16.0706 30.3146 16.0872 30.3229C16.0954 30.3229 16.1037 30.3312 16.112 30.3312C16.1203 30.3312 16.1285 30.3395 16.1368 30.3395C16.1451 30.3395 16.1534 30.3477 16.1616 30.3477C16.1782 30.356 16.1865 30.356 16.203 30.356C16.2361 30.3643 16.2527 30.3643 16.2527 30.3643C16.2527 30.3643 16.2527 30.3726 16.2609 30.3808C16.2609 30.3891 16.2692 30.3974 16.2692 30.4057C16.2858 30.4388 16.3106 30.4884 16.3437 30.5464C16.352 30.5629 16.3602 30.5795 16.3685 30.5878C16.3851 30.6291 16.4099 30.6622 16.4347 30.7119C16.4513 30.7367 16.4596 30.7698 16.4761 30.7947C16.4761 30.8029 16.4844 30.8029 16.4844 30.8112C16.5009 30.8526 16.5258 30.894 16.5506 30.9354C16.5506 30.9354 16.5506 30.9436 16.5589 30.9436C16.5837 30.9933 16.6085 31.043 16.6333 31.0926C16.6582 31.1423 16.683 31.2002 16.7161 31.2581C16.7244 31.2747 16.7326 31.283 16.7326 31.2995C16.7657 31.3657 16.7988 31.4319 16.8319 31.4981C16.8733 31.5726 16.9147 31.6554 16.9561 31.7382C16.9726 31.7713 16.9892 31.8044 17.0057 31.8375C17.0305 31.8954 17.0636 31.9533 17.0885 32.0113C17.105 32.0361 17.1216 32.0692 17.1298 32.1023C17.2871 32.4085 17.4443 32.7313 17.6098 33.0458C17.7091 33.2362 17.8001 33.4183 17.8911 33.6003C17.9077 33.6334 17.9242 33.6583 17.9408 33.6914C17.9573 33.7245 17.9739 33.7576 17.9904 33.7907C17.9904 33.799 17.9987 33.8072 17.9987 33.8155C18.0815 33.9893 18.1642 34.1466 18.247 34.2955C18.2718 34.3535 18.3049 34.4031 18.3297 34.4528C18.3711 34.5273 18.4042 34.6018 18.4456 34.6763C18.4456 34.6845 18.4456 34.6845 18.4538 34.6845C18.4621 34.7094 18.4787 34.7342 18.4869 34.7507C18.5035 34.7756 18.5118 34.8087 18.5283 34.8335C18.5366 34.8583 18.5531 34.8749 18.5614 34.8997C18.578 34.9411 18.6028 34.9825 18.6193 35.0156C18.669 35.1066 18.7104 35.1894 18.7352 35.2473C18.7435 35.2556 18.7517 35.2722 18.7517 35.2804C18.76 35.2887 18.7683 35.297 18.7766 35.3135C18.7848 35.3218 18.7849 35.3218 18.7931 35.3301C18.8014 35.3384 18.8097 35.3466 18.8179 35.3549C18.8262 35.3632 18.8345 35.3715 18.8428 35.3797C18.8511 35.388 18.8511 35.388 18.8593 35.3963C18.8759 35.4046 18.8842 35.4211 18.9007 35.4294C18.909 35.4377 18.9173 35.446 18.9338 35.4542C18.9504 35.4708 18.9669 35.4791 18.9835 35.4956C18.9917 35.5039 19.0083 35.5122 19.0166 35.5204C19.0414 35.537 19.0662 35.5535 19.0993 35.5701C19.1159 35.5784 19.1241 35.5867 19.1407 35.5949C19.2152 35.6363 19.2979 35.686 19.3807 35.7274C19.4055 35.7356 19.422 35.7522 19.4469 35.7605C19.5131 35.7936 19.5875 35.8267 19.662 35.8598C19.7117 35.8846 19.7613 35.9094 19.811 35.926C19.8275 35.9343 19.8358 35.9425 19.8523 35.9425C19.8772 35.9508 19.9103 35.9674 19.9351 35.9756C20.0013 36.0005 20.0675 36.0336 20.142 36.0584C20.1502 36.0584 20.1585 36.0667 20.1668 36.0667H20.1751C20.1751 36.0667 20.1833 36.0667 20.1916 36.075C20.1916 36.075 20.1916 36.075 20.1999 36.075H20.2082C20.2495 36.0915 20.2909 36.1081 20.3406 36.1246C20.3819 36.1412 20.4233 36.1577 20.4647 36.1743C20.5474 36.2074 20.6385 36.2405 20.7212 36.2736C20.7709 36.2901 20.8205 36.3067 20.8702 36.3315C20.9446 36.3564 21.0191 36.3812 21.0853 36.406C21.1515 36.4308 21.2343 36.4557 21.3005 36.4805C21.3667 36.5053 21.4329 36.5219 21.4991 36.5467C21.5405 36.5633 21.5818 36.5715 21.6232 36.5881C21.6646 36.6046 21.7142 36.6212 21.7556 36.6295C21.797 36.646 21.8384 36.6543 21.8797 36.6709C21.9211 36.6874 21.9625 36.6957 22.0039 36.7122C22.0618 36.7288 22.1114 36.7453 22.1611 36.7619C22.219 36.7784 22.2769 36.795 22.3349 36.8116C22.3762 36.8281 22.4259 36.8364 22.4673 36.8529C22.5169 36.8695 22.5666 36.886 22.6079 36.8943C22.641 36.9026 22.6659 36.9109 22.699 36.9191C22.7238 36.9274 22.7569 36.9357 22.7817 36.944C22.8893 36.9771 22.9969 37.0102 23.0879 37.035C23.1127 37.0433 23.1293 37.0516 23.1541 37.0516C23.1955 37.0681 23.2368 37.0764 23.2782 37.0847C23.2948 37.0929 23.3113 37.0929 23.3279 37.1012C23.361 37.1095 23.3941 37.1178 23.4189 37.1261C23.4685 37.1426 23.5016 37.1509 23.5265 37.1592C23.5347 37.1592 23.543 37.1674 23.5513 37.1674H23.5596C23.5679 37.1674 23.5678 37.1674 23.5678 37.1674L25.3801 37.5813L25.3056 37.4985ZM23.7582 36.3398C23.6175 36.2984 22.7155 36.0501 21.7391 35.7191C20.0592 35.1563 19.571 34.8501 19.4469 34.759C19.3807 34.6349 19.2814 34.4445 19.1655 34.2128C19.149 34.188 19.1407 34.1549 19.1241 34.13C19.1821 34.039 19.2565 33.9479 19.3476 33.8403C19.7034 33.4183 20.3406 32.872 21.4825 32.1023C21.4825 32.1023 21.8053 31.5892 21.2177 31.7878C21.1101 31.8292 19.5793 32.5741 18.9007 33.6831C18.1559 32.2182 17.0223 29.9919 17.0057 29.967L16.8071 29.578L16.6251 29.5449L17.0554 29.396L17.1298 28.8497C17.1712 28.5683 17.2705 28.229 17.3615 28.0469L19.8441 27.9642L20.8453 29.2884C21.1019 30.2401 21.3832 31.1919 21.5322 31.4568C21.7308 31.8126 22.5914 33.8569 23.6341 35.537L23.9485 36.3729L23.7582 36.3398Z" fill="white"/>
<path d="M25.3056 37.4985L24.354 34.9742C23.4851 34.1714 23.0382 33.3438 23.0382 33.3438C22.9058 33.1038 23.1375 33.0293 23.6341 33.0624L23.1955 31.8871C23.1044 31.854 23.0382 31.8375 23.0051 31.8126C22.5169 31.5644 22.7238 31.4733 22.9224 31.5313C22.9224 31.5313 22.9803 31.5478 23.0796 31.5726L22.7238 30.6291C22.5583 30.414 22.4342 30.116 22.3431 29.8015L20.7543 27.7076L20.2744 27.0703L16.9892 27.1779C16.4347 27.4427 16.2609 28.7421 16.2609 28.7421C16.2609 28.7421 16.2609 28.7421 16.2527 28.7421C16.2444 28.7421 16.2278 28.7504 16.203 28.767C16.1947 28.7752 16.1782 28.7752 16.1699 28.7835C16.1616 28.7835 16.1616 28.7918 16.1534 28.7918C16.1451 28.8001 16.1368 28.8001 16.1285 28.8083C16.112 28.8166 16.1037 28.8249 16.0872 28.8332L16.0789 28.8414C16.0706 28.8497 16.0623 28.858 16.0458 28.8663C16.0375 28.8746 16.021 28.8828 16.0127 28.8911C15.9879 28.9077 15.963 28.9325 15.9382 28.9573C15.9217 28.9739 15.9134 28.9821 15.8968 28.9987C15.8803 29.0152 15.872 29.0235 15.8555 29.0401C15.8472 29.0484 15.8389 29.0649 15.8306 29.0732C15.8224 29.0815 15.8141 29.098 15.8058 29.1063C15.7975 29.1228 15.7893 29.1311 15.7727 29.1477C15.7644 29.1642 15.7562 29.1725 15.7479 29.1891C15.7396 29.2056 15.7313 29.2139 15.7231 29.2304C15.7148 29.247 15.7065 29.2635 15.6982 29.2801C15.69 29.2966 15.6817 29.3132 15.6734 29.3215C15.6403 29.3877 15.6072 29.4622 15.5741 29.5449C15.5658 29.578 15.5493 29.6194 15.5493 29.6525C15.5493 29.6691 15.541 29.6856 15.541 29.7022C15.541 29.7105 15.541 29.7187 15.541 29.727C15.541 29.7684 15.541 29.8098 15.5493 29.8429C15.5576 29.876 15.5658 29.9008 15.5741 29.9256C15.5741 29.9339 15.5824 29.9422 15.5824 29.9505C15.5824 29.9588 15.5907 29.967 15.5989 29.9753C15.5989 29.9836 15.6072 29.9919 15.6155 30.0001C15.6238 30.0084 15.632 30.025 15.6403 30.0332C15.6403 30.0332 15.6403 30.0332 15.6403 30.0415C15.6486 30.0498 15.6569 30.0581 15.6651 30.0746C15.6734 30.0912 15.69 30.0994 15.7065 30.116C15.7231 30.1243 15.7313 30.1408 15.7479 30.1491C15.7562 30.1574 15.7727 30.1657 15.781 30.1739C15.7975 30.1822 15.8058 30.1905 15.8224 30.1988C15.8306 30.207 15.8472 30.2153 15.8555 30.2236C15.8637 30.2319 15.872 30.2319 15.8803 30.2401C15.8803 30.2401 15.8803 30.2401 15.8886 30.2484C15.9051 30.2567 15.9299 30.2733 15.9548 30.2815C15.9548 30.2815 15.9548 30.2815 15.963 30.2815C15.9796 30.2898 15.9961 30.2981 16.0127 30.2981C16.021 30.3064 16.0292 30.3064 16.0375 30.3064C16.0541 30.3146 16.0706 30.3146 16.0872 30.3229C16.0954 30.3229 16.1037 30.3312 16.112 30.3312C16.1203 30.3312 16.1285 30.3395 16.1368 30.3395C16.1451 30.3395 16.1534 30.3477 16.1616 30.3477C16.1782 30.356 16.1865 30.356 16.203 30.356C16.2361 30.3643 16.2527 30.3643 16.2527 30.3643C16.2527 30.3643 16.2527 30.3726 16.2609 30.3808C16.2609 30.3891 16.2692 30.3974 16.2692 30.4057C16.2858 30.4388 16.3106 30.4884 16.3437 30.5464C16.352 30.5629 16.3602 30.5795 16.3685 30.5878C16.3851 30.6291 16.4099 30.6622 16.4347 30.7119C16.4513 30.7367 16.4596 30.7698 16.4761 30.7947C16.4761 30.8029 16.4844 30.8029 16.4844 30.8112C16.5009 30.8526 16.5258 30.894 16.5506 30.9354C16.5506 30.9354 16.5506 30.9436 16.5589 30.9436C16.5837 30.9933 16.6085 31.043 16.6333 31.0926C16.6582 31.1423 16.683 31.2002 16.7161 31.2581C16.7244 31.2747 16.7326 31.283 16.7326 31.2995C16.7657 31.3657 16.7988 31.4319 16.8319 31.4981C16.8733 31.5726 16.9147 31.6554 16.9561 31.7382C16.9726 31.7713 16.9892 31.8044 17.0057 31.8375C17.0305 31.8954 17.0636 31.9533 17.0885 32.0113C17.105 32.0361 17.1216 32.0692 17.1298 32.1023C17.2871 32.4085 17.4443 32.7313 17.6098 33.0458C17.7091 33.2362 17.8001 33.4183 17.8911 33.6003C17.9077 33.6334 17.9242 33.6583 17.9408 33.6914C17.9573 33.7245 17.9739 33.7576 17.9904 33.7907C17.9904 33.799 17.9987 33.8072 17.9987 33.8155C18.0815 33.9893 18.1642 34.1466 18.247 34.2955C18.2718 34.3535 18.3049 34.4031 18.3297 34.4528C18.3711 34.5273 18.4042 34.6018 18.4456 34.6763C18.4456 34.6845 18.4456 34.6845 18.4538 34.6845C18.4621 34.7094 18.4787 34.7342 18.4869 34.7507C18.5035 34.7756 18.5118 34.8087 18.5283 34.8335C18.5366 34.8583 18.5531 34.8749 18.5614 34.8997C18.578 34.9411 18.6028 34.9742 18.6193 35.0156C18.669 35.1066 18.7104 35.1894 18.7352 35.2473C18.7435 35.2556 18.7517 35.2722 18.7517 35.2804C18.76 35.2887 18.7683 35.297 18.7766 35.3135C18.7848 35.3218 18.7849 35.3218 18.7931 35.3301C18.8014 35.3384 18.8097 35.3466 18.8179 35.3549C18.8262 35.3632 18.8345 35.3715 18.8428 35.3797C18.8511 35.388 18.8511 35.388 18.8593 35.3963C18.8759 35.4046 18.8842 35.4211 18.9007 35.4294C18.909 35.4377 18.9173 35.446 18.9338 35.4542C18.9504 35.4708 18.9669 35.4791 18.9835 35.4956C18.9917 35.5039 19.0083 35.5122 19.0166 35.5204C19.0414 35.537 19.0662 35.5535 19.0993 35.5701C19.1159 35.5784 19.1241 35.5867 19.1407 35.5949C19.2152 35.6363 19.2979 35.686 19.3807 35.7274C19.4055 35.7356 19.422 35.7522 19.4469 35.7605C19.5131 35.7936 19.5875 35.8267 19.662 35.8598C19.7117 35.8846 19.7613 35.9094 19.811 35.926C19.8275 35.9343 19.8358 35.9425 19.8523 35.9425C19.8772 35.9508 19.9103 35.9674 19.9351 35.9756C20.0013 36.0005 20.0675 36.0336 20.142 36.0584C20.1502 36.0584 20.1585 36.0667 20.1668 36.0667H20.1751C20.1751 36.0667 20.1833 36.0667 20.1916 36.075C20.1916 36.075 20.1916 36.075 20.1999 36.075H20.2082C20.2495 36.0915 20.2909 36.1081 20.3406 36.1246C20.3819 36.1412 20.4233 36.1577 20.4647 36.1743C20.5474 36.2074 20.6385 36.2405 20.7212 36.2736C20.7709 36.2901 20.8205 36.3067 20.8702 36.3315C20.9446 36.3564 21.0191 36.3812 21.0853 36.406C21.1515 36.4308 21.2343 36.4557 21.3005 36.4805C21.3667 36.5053 21.4329 36.5219 21.4991 36.5467C21.5405 36.5633 21.5818 36.5715 21.6232 36.5881C21.6646 36.6046 21.7142 36.6212 21.7556 36.6295C21.797 36.646 21.8384 36.6543 21.8797 36.6709C21.9211 36.6874 21.9625 36.6957 22.0039 36.7122C22.0618 36.7288 22.1114 36.7453 22.1611 36.7619C22.219 36.7784 22.2769 36.795 22.3349 36.8116C22.3762 36.8281 22.4259 36.8364 22.4673 36.8529C22.5169 36.8695 22.5666 36.886 22.6079 36.8943C22.641 36.9026 22.6659 36.9109 22.699 36.9191C22.7238 36.9274 22.7569 36.9357 22.7817 36.944C22.8893 36.9771 22.9969 37.0102 23.0879 37.035C23.1127 37.0433 23.1293 37.0516 23.1541 37.0516C23.1955 37.0681 23.2368 37.0764 23.2782 37.0847C23.2948 37.0929 23.3113 37.0929 23.3279 37.1012C23.361 37.1095 23.3941 37.1178 23.4189 37.1261C23.4685 37.1426 23.5016 37.1509 23.5265 37.1592C23.5347 37.1592 23.543 37.1674 23.5513 37.1674H23.5596C23.5679 37.1674 23.5678 37.1674 23.5678 37.1674L25.3801 37.5813L25.3056 37.4985ZM23.7582 36.3398C23.6175 36.2984 22.7155 36.0501 21.7391 35.7191C20.0592 35.1563 19.571 34.8501 19.4469 34.759C19.3807 34.6349 19.2814 34.4445 19.1655 34.2128C19.149 34.188 19.1407 34.1549 19.1241 34.13C19.0745 34.0307 19.0166 33.9231 18.9586 33.8072C18.9421 33.7659 18.9173 33.7328 18.9007 33.6914C18.1559 32.2265 17.0223 30.0001 17.0057 29.9753L16.8071 29.5863L16.6251 29.5532L17.0554 29.4042L17.1298 28.858C17.1712 28.5766 17.2705 28.2373 17.3615 28.0552L19.8441 27.9724L20.8453 29.2966L21.6977 30.4222L23.6341 35.5536L23.9485 36.3895L23.7582 36.3398Z" fill="white"/>
<path d="M21.3661 22.2451L20.431 22.3279L18.9746 26.3425L19.0739 26.3342C19.107 26.3342 19.1484 26.3259 19.1815 26.3177L19.3553 26.3011L19.4546 26.2928L19.5621 26.2763L19.678 26.2597L19.7856 26.2514L21.2916 22.4107L21.2999 22.3941L21.3661 22.2451ZM19.6035 25.9866L19.3966 26.0114L20.6379 22.5928L20.9524 22.5679L19.6035 25.9866Z" fill="white"/>
<path d="M20.2331 22.0636L20.1255 22.3532L18.636 26.4666L18.5615 26.6652L20.0014 26.4997L20.0345 26.4086L20.1172 26.2017L21.1351 23.6112V23.6029V23.5947L21.673 22.2125L21.7888 21.9229L20.2331 22.0636ZM20.9447 22.5601L19.6042 25.9865L19.3973 26.0114L20.6386 22.5932L20.9447 22.5601Z" fill="white"/>
<path d="M41.5166 29.695C40.987 29.6453 40.4243 29.5956 40.0353 29.5294C39.9443 29.5708 39.7374 29.5129 39.6381 29.4467C39.5802 29.397 39.5305 29.4218 39.4974 29.4218C39.9029 29.5625 40.2422 29.695 40.4905 29.7943C40.6973 29.6784 41.1111 29.7363 41.5497 29.8108C41.5414 29.7695 41.5331 29.7281 41.5166 29.695ZM42.3937 33.1876C42.3441 32.9062 42.2696 32.5669 42.1868 32.2192C42.0793 31.7475 41.9386 31.2344 41.8145 30.7543C41.7896 30.6716 41.7731 30.5888 41.7483 30.506C41.7234 30.4233 41.7069 30.3405 41.6821 30.266C41.6407 30.1088 41.591 29.9515 41.5497 29.8108C41.5414 29.7695 41.5248 29.7363 41.5166 29.695C41.5083 29.6619 41.5 29.6288 41.4917 29.6039C41.4421 29.4301 41.3924 29.2729 41.3593 29.1405C41.2931 28.9087 41.2518 28.7763 41.2518 28.7763C41.1276 28.677 40.9952 28.5694 40.8546 28.4783C40.8132 28.4535 40.7801 28.4287 40.7387 28.4039C40.4325 28.2135 40.0684 28.0314 39.6712 27.8659C39.423 27.7666 39.1664 27.6673 38.8934 27.5762C35.6826 26.5003 30.8169 26.1527 28.7647 26.2934C26.0835 26.4838 21.3171 26.9389 21.3171 26.9389L20.2744 27.0714C20.2744 27.0714 20.3323 27.3197 20.4316 27.7086C20.5392 28.1307 20.6882 28.7101 20.8454 29.2977C21.1019 30.2495 21.3833 31.2013 21.5322 31.4661C21.7308 31.822 22.5914 33.8662 23.6341 35.5463C24.1141 36.3243 24.6354 37.0278 25.1402 37.4499C25.2146 37.5078 25.2891 37.5658 25.3553 37.6154C25.5043 37.7147 25.6532 37.7892 25.7939 37.8306C27.3165 38.2692 36.3943 37.5078 39.9277 37.1519C40.5153 37.094 40.9539 37.0443 41.169 37.0112C42.3441 36.854 42.4434 35.6705 42.4599 34.7021C42.4599 34.6028 42.4599 34.5118 42.4599 34.4207C42.4599 34.2387 42.4599 34.0649 42.4682 33.9159C42.4848 33.7504 42.4516 33.4938 42.3937 33.1876ZM23.3362 27.4769C23.6589 27.4107 25.2312 27.3362 26.5469 27.2948C27.3082 27.27 27.9868 27.2534 28.2764 27.2617C29.0626 27.2783 29.9976 27.2534 32.7284 27.6342C34.6731 27.9073 37.71 28.7846 39.4809 29.4053C39.4892 29.4053 39.4974 29.4136 39.5057 29.4136C39.9112 29.5543 40.2505 29.6867 40.4987 29.786C40.6725 29.8605 40.7884 29.9184 40.8546 29.9681C41.4173 30.3653 40.747 30.1336 40.747 30.1336C40.656 30.0757 40.5236 30.0177 40.3581 29.9433C38.6699 29.2315 33.5725 27.9487 31.1065 27.6176C28.4005 27.2534 21.9791 27.9238 21.9791 27.9238C21.7557 27.8824 21.9708 27.7914 22.3018 27.7004C22.6328 27.6176 23.0797 27.5266 23.3362 27.4769ZM40.2836 36.3078C39.6216 36.7133 29.1288 36.9368 26.7042 36.2995C25.7277 36.0429 24.9416 35.5132 24.354 34.9753C23.4851 34.1725 23.0383 33.3448 23.0383 33.3448C22.9059 33.1048 23.1376 33.0303 23.6341 33.0634C25.2891 33.1793 29.8901 34.5532 33.4318 35.0001C38.0079 35.5794 40.9456 35.9022 40.2836 36.3078ZM41.3014 34.4787C41.2849 34.5118 40.9704 34.5449 40.4574 34.5532C39.1333 34.5863 36.4688 34.5201 33.9945 34.1476C30.8003 33.6593 24.4533 32.2772 23.1872 31.8882C23.0962 31.8551 23.03 31.8385 22.9969 31.8137C22.5087 31.5654 22.7156 31.4744 22.9142 31.5323C22.9142 31.5323 22.9721 31.5489 23.0714 31.5737C24.4782 31.9379 35.1365 34.6111 40.9125 34.3959C40.9952 34.3959 41.078 34.3876 41.1525 34.3876C41.1607 34.3876 41.3759 34.3628 41.3014 34.4787ZM41.4255 33.171C41.409 33.5435 41.3014 33.8166 41.0283 33.8331C40.1181 33.8911 23.51 31.2923 22.8728 30.7957C22.8149 30.7543 22.7652 30.6964 22.7156 30.6385C22.5501 30.4233 22.4259 30.1253 22.3349 29.8108C22.1611 29.1984 22.1115 28.5528 22.1115 28.5528C30.4693 27.3776 36.204 30.084 40.085 30.7543C40.6808 30.8537 41.1525 31.3171 41.2766 31.913C41.3014 32.0123 41.318 32.1199 41.3345 32.2192C41.3593 32.3682 41.3842 32.5172 41.4007 32.6579C41.4007 32.6993 41.409 32.7407 41.409 32.782C41.4338 32.9145 41.4338 33.0469 41.4255 33.171ZM41.5166 29.695C40.987 29.6453 40.4243 29.5956 40.0353 29.5294C39.9443 29.5708 39.7374 29.5129 39.6381 29.4467C39.5802 29.397 39.5305 29.4218 39.4974 29.4218C39.9029 29.5625 40.2422 29.695 40.4905 29.7943C40.6973 29.6784 41.1111 29.7363 41.5497 29.8108C41.5414 29.7695 41.5331 29.7281 41.5166 29.695Z" fill="white"/>
<path d="M21.4905 32.1121C20.3486 32.8819 19.7114 33.4282 19.3556 33.8504C19.2645 33.9497 19.1983 34.049 19.1321 34.1401C19.1156 34.1732 19.0908 34.2063 19.0742 34.2311C18.9749 34.405 18.917 34.554 18.8839 34.6947C18.7515 35.2079 18.5777 34.8271 18.5777 34.8271C18.5694 34.6202 18.5943 34.4132 18.6605 34.2146C18.7018 34.0739 18.7598 33.9414 18.8342 33.809C18.8591 33.7676 18.8839 33.7262 18.9087 33.6848C19.5955 32.5839 21.1182 31.8307 21.2257 31.7893C21.805 31.5906 21.4905 32.1121 21.4905 32.1121Z" fill="white"/>
<path d="M23.8569 19.6974C23.832 19.8961 23.7245 20.0699 23.5755 20.1775C23.4762 20.252 23.3604 20.3099 23.2362 20.3265C23.17 20.3348 23.1038 20.3348 23.0376 20.3265C22.9466 20.3099 22.8638 20.2851 22.7894 20.2437C22.6156 20.1444 22.4832 19.9788 22.4335 19.7885C22.4915 19.9623 22.6487 20.0947 22.839 20.1196C22.8638 20.1196 22.8804 20.1278 22.9052 20.1278C23.1535 20.1278 23.3686 19.9457 23.4017 19.6974C23.4348 19.4242 23.2445 19.1676 22.9714 19.1345C22.9466 19.1345 22.93 19.1263 22.9052 19.1263C22.6652 19.1263 22.4584 19.3001 22.417 19.5401C22.417 19.5319 22.417 19.5236 22.417 19.507C22.4666 19.1428 22.7728 18.8779 23.1287 18.8779C23.1618 18.8779 23.2031 18.8779 23.2362 18.8862C23.6334 18.9276 23.9065 19.2918 23.8569 19.6974Z" fill="white"/>
<path d="M26.4561 19.4991C26.4313 19.6812 26.3403 19.8467 26.2079 19.9626C26.0672 20.0868 25.8769 20.153 25.67 20.1364C25.6617 20.1364 25.6451 20.1364 25.6369 20.1364C25.5376 20.1199 25.4383 20.0868 25.3555 20.0371C25.2231 19.9543 25.1155 19.8302 25.0576 19.6812C25.1321 19.7888 25.2562 19.8633 25.3969 19.8798C25.4217 19.8798 25.4383 19.8798 25.4631 19.8798C25.7114 19.8798 25.9265 19.6894 25.9596 19.4494C25.9927 19.1762 25.8024 18.9196 25.5293 18.8865C25.5045 18.8865 25.4879 18.8782 25.4631 18.8782C25.3307 18.8782 25.2066 18.9279 25.1155 19.019C25.2562 18.7955 25.5127 18.6548 25.7941 18.6796C25.8024 18.6796 25.8189 18.6796 25.8272 18.6796C26.2327 18.7375 26.514 19.1017 26.4561 19.4991Z" fill="white"/>
<path d="M28.9214 19.2926C28.8966 19.483 28.7973 19.6402 28.6649 19.7561C28.549 19.8555 28.4001 19.9134 28.2429 19.9217C28.1932 19.93 28.1436 19.9217 28.1022 19.9134C28.0029 19.8969 27.9119 19.872 27.8291 19.8224C27.7132 19.7561 27.6139 19.6485 27.5477 19.5326C27.6222 19.6237 27.7381 19.6899 27.8622 19.7065C27.887 19.7065 27.9036 19.7147 27.9284 19.7147C28.1767 19.7147 28.3918 19.5326 28.4249 19.2843C28.4415 19.1519 28.4084 19.0194 28.3256 18.9118C28.2429 18.8042 28.127 18.738 27.9946 18.7214C27.9698 18.7214 27.9532 18.7132 27.9284 18.7132C27.7629 18.7132 27.6057 18.7959 27.5146 18.9284C27.6139 18.6635 27.8705 18.4814 28.1601 18.4648C28.2015 18.4648 28.2429 18.4648 28.2842 18.4731C28.6897 18.5228 28.9711 18.8953 28.9214 19.2926Z" fill="white"/>
<path d="M31.3388 19.1511C31.3223 19.3084 31.2478 19.4409 31.1485 19.5485C31.0161 19.6975 30.8175 19.7885 30.6023 19.7802C30.5775 19.7802 30.5444 19.7802 30.5196 19.772C30.3872 19.7554 30.2713 19.7057 30.172 19.623C30.0396 19.5236 29.9486 19.3746 29.9072 19.2174C29.9734 19.3829 30.1224 19.4988 30.3044 19.5236C30.3293 19.5236 30.3458 19.5319 30.3706 19.5319C30.6189 19.5319 30.834 19.3415 30.8671 19.1015C30.9002 18.8283 30.7099 18.5717 30.4368 18.5386C30.412 18.5386 30.3955 18.5303 30.3706 18.5303C30.1803 18.5303 30.0231 18.6379 29.9321 18.7869C30.0479 18.4807 30.3541 18.282 30.6934 18.3151C30.7016 18.3151 30.7099 18.3151 30.7099 18.3151C31.1071 18.3813 31.3885 18.7455 31.3388 19.1511Z" fill="white"/>
<path d="M23.1208 18.87C23.0794 18.8617 23.0463 18.8535 23.0049 18.8452C22.9718 18.8369 22.9387 18.8369 22.8973 18.8369C22.7401 18.8369 22.5912 18.8866 22.467 18.9694C22.4505 18.9776 22.4257 18.9942 22.4091 19.0107C22.3843 19.0356 22.3595 19.0521 22.3346 19.077C22.3264 19.0852 22.3181 19.0935 22.3098 19.1018C22.2933 19.1183 22.285 19.1349 22.2684 19.1515C22.2353 19.2011 22.2022 19.2508 22.1774 19.3087C22.1691 19.3253 22.1609 19.3501 22.1526 19.3667C22.1443 19.3915 22.136 19.4163 22.136 19.4329C22.1278 19.4577 22.1278 19.4826 22.1195 19.5074C22.0781 19.8137 22.2188 20.1034 22.4588 20.2606C22.5581 20.3269 22.6656 20.3683 22.7898 20.3848C22.8229 20.3848 22.856 20.3931 22.8973 20.3931C23.0132 20.3931 23.129 20.3683 23.2283 20.3186C23.2614 20.302 23.2945 20.2855 23.3194 20.2689C23.3359 20.2524 23.3607 20.2441 23.3773 20.2275C23.3856 20.2193 23.3938 20.211 23.4021 20.2027C23.4104 20.1944 23.4187 20.1944 23.4187 20.1861C23.4269 20.1779 23.4352 20.1696 23.4518 20.153C23.4683 20.1365 23.4849 20.1199 23.5014 20.1034C23.518 20.0868 23.5262 20.0703 23.5428 20.0454C23.5593 20.0289 23.5676 20.004 23.5759 19.9875C23.5842 19.9709 23.6007 19.9461 23.609 19.9213C23.6173 19.8964 23.6256 19.8799 23.6338 19.855C23.6421 19.8302 23.6504 19.8137 23.6504 19.7888C23.6586 19.764 23.6587 19.7392 23.6669 19.7143C23.7249 19.3336 23.4849 18.9776 23.1208 18.87ZM22.4091 19.5322C22.4505 19.2922 22.6574 19.1183 22.8973 19.1183C22.9222 19.1183 22.9387 19.1183 22.9635 19.1266C23.2366 19.1597 23.4269 19.4163 23.3938 19.6895C23.3607 19.9378 23.1456 20.1199 22.8973 20.1199C22.8725 20.1199 22.8477 20.1199 22.8311 20.1117C22.6408 20.0868 22.4836 19.9544 22.4257 19.7806C22.4091 19.7061 22.4008 19.6233 22.4091 19.5322Z" fill="white"/>
<path d="M23.1208 18.87C23.0794 18.8617 23.0463 18.8535 23.0049 18.8452C22.9718 18.8369 22.9387 18.8369 22.8973 18.8369C22.7401 18.8369 22.5912 18.8866 22.467 18.9694C22.4505 18.9776 22.4257 18.9942 22.4091 19.0107C22.3843 19.0356 22.3595 19.0521 22.3346 19.077C22.3264 19.0852 22.3181 19.0935 22.3098 19.1018C22.2933 19.1183 22.285 19.1349 22.2684 19.1515C22.2353 19.2011 22.2022 19.2508 22.1774 19.3087C22.1691 19.3253 22.1609 19.3501 22.1526 19.3667C22.1443 19.3915 22.136 19.4163 22.136 19.4329C22.1278 19.4577 22.1278 19.4826 22.1195 19.5074C22.0781 19.8137 22.2188 20.1034 22.4588 20.2606C22.5581 20.3269 22.6656 20.3683 22.7898 20.3848C22.8229 20.3848 22.856 20.3931 22.8973 20.3931C23.0132 20.3931 23.129 20.3683 23.2283 20.3186C23.2614 20.302 23.2945 20.2855 23.3194 20.2689C23.3359 20.2524 23.3607 20.2441 23.3773 20.2275C23.3856 20.2193 23.3938 20.211 23.4021 20.2027C23.4104 20.1944 23.4187 20.1944 23.4187 20.1861C23.4269 20.1779 23.4435 20.1696 23.4518 20.153C23.4683 20.1365 23.4849 20.1199 23.5014 20.1034C23.518 20.0868 23.5262 20.0703 23.5428 20.0454C23.5593 20.0289 23.5676 20.004 23.5759 19.9875C23.5842 19.9709 23.6007 19.9461 23.609 19.9213C23.6173 19.8964 23.6256 19.8799 23.6338 19.855C23.6421 19.8302 23.6504 19.8137 23.6504 19.7888C23.6586 19.764 23.6587 19.7392 23.6669 19.7143C23.7249 19.3336 23.4849 18.9776 23.1208 18.87ZM22.4008 19.5488C22.4008 19.5405 22.4008 19.5322 22.4008 19.5322C22.4422 19.2922 22.6491 19.1183 22.8891 19.1183C22.9139 19.1183 22.9304 19.1183 22.9553 19.1266C23.2283 19.1597 23.4187 19.4163 23.3856 19.6895C23.3525 19.9378 23.1373 20.1199 22.8891 20.1199C22.8642 20.1199 22.8394 20.1199 22.8229 20.1117C22.6325 20.0868 22.4753 19.9544 22.4174 19.7806C22.4008 19.7143 22.3926 19.6316 22.4008 19.5488Z" fill="white"/>
<path d="M26.2157 19.2015C26.2157 19.1932 26.2075 19.1767 26.2075 19.1684C26.2075 19.1601 26.1992 19.1518 26.1992 19.1436C26.1909 19.1187 26.1826 19.0939 26.1744 19.0691C26.1744 19.0608 26.1661 19.0525 26.1578 19.0359C26.1495 19.0194 26.1413 18.9946 26.1247 18.978C26.1164 18.9697 26.1164 18.9614 26.1082 18.9449C26.0999 18.9366 26.0999 18.9283 26.0916 18.9201C26.0833 18.9118 26.0751 18.9035 26.0751 18.8952C26.0585 18.8787 26.042 18.8538 26.0254 18.8373C26.0006 18.8125 25.984 18.7959 25.9592 18.7793C25.9427 18.7628 25.9178 18.7462 25.9013 18.738C25.8765 18.7214 25.8434 18.7048 25.8185 18.6883H25.8103C25.7772 18.6717 25.7358 18.6552 25.7027 18.6469C25.6861 18.6386 25.6696 18.6386 25.653 18.6386C25.6448 18.6386 25.6448 18.6386 25.6365 18.6386C25.6199 18.6386 25.6034 18.6303 25.5786 18.6303C25.562 18.6303 25.5455 18.6221 25.5289 18.6221C25.5124 18.6221 25.5041 18.6221 25.4875 18.6221C25.4462 18.6221 25.4048 18.6221 25.3717 18.6303C25.3634 18.6303 25.3469 18.6303 25.3386 18.6386C25.3386 18.6386 25.3303 18.6386 25.322 18.6386H25.3138C25.3055 18.6386 25.2972 18.6469 25.2807 18.6469C25.2641 18.6552 25.2476 18.6552 25.231 18.6635C25.1731 18.68 25.1234 18.7048 25.0738 18.738C25.0655 18.7462 25.0572 18.7462 25.0407 18.7545C25.0241 18.7628 24.9993 18.7793 24.9828 18.7959C24.9745 18.8042 24.9662 18.8125 24.9579 18.8207C24.9414 18.8373 24.9248 18.8538 24.9083 18.8704C24.9 18.8787 24.8917 18.887 24.8835 18.8952C24.8669 18.9118 24.8586 18.9283 24.8421 18.9449C24.809 18.9946 24.7759 19.0442 24.7593 19.0939C24.7511 19.1187 24.7428 19.1353 24.7345 19.1601C24.7262 19.1849 24.718 19.2098 24.718 19.2263C24.7097 19.2512 24.7097 19.276 24.7014 19.3008C24.6849 19.3919 24.6931 19.4829 24.7097 19.5657C24.7097 19.574 24.718 19.5905 24.718 19.6071C24.7262 19.6236 24.7262 19.6485 24.7345 19.665C24.7428 19.6816 24.7428 19.6981 24.7511 19.7147V19.723C24.7593 19.7478 24.7759 19.7809 24.7924 19.8058C24.7924 19.8058 24.7924 19.814 24.8007 19.814C24.8173 19.8389 24.8338 19.8637 24.8504 19.8885C24.8586 19.9051 24.8752 19.9134 24.8835 19.9299C24.9166 19.963 24.9497 19.9961 24.9828 20.021C25.0076 20.0458 25.0407 20.0624 25.0738 20.0872C25.0738 20.0872 25.0738 20.0872 25.0821 20.0955C25.14 20.1286 25.2062 20.1617 25.2807 20.1782C25.2889 20.1782 25.2972 20.1865 25.3055 20.1865C25.3303 20.1948 25.3551 20.1948 25.38 20.2031C25.3965 20.2031 25.4131 20.2031 25.4213 20.2114C25.4296 20.2114 25.4379 20.2114 25.4462 20.2114C25.4544 20.2114 25.4627 20.2114 25.4627 20.2114H25.4875C25.4958 20.2114 25.4958 20.2114 25.5041 20.2114C25.5124 20.2114 25.5206 20.2114 25.5289 20.2114C25.5372 20.2114 25.5455 20.2114 25.5537 20.2114C25.5703 20.2114 25.5868 20.2114 25.5951 20.2031C25.6117 20.2031 25.6282 20.1948 25.6448 20.1948C25.653 20.1948 25.653 20.1948 25.6613 20.1865C25.6613 20.1865 25.6613 20.1865 25.6696 20.1865H25.6779C25.7027 20.1782 25.7192 20.17 25.7441 20.1617C25.7606 20.1534 25.7854 20.1451 25.8103 20.1369C25.8185 20.1286 25.8268 20.1286 25.8434 20.1203C25.8599 20.112 25.8847 20.0955 25.9013 20.0872C25.9261 20.0706 25.9509 20.0541 25.9675 20.0375C25.9758 20.0292 25.9758 20.0292 25.984 20.0292C26.0006 20.0127 26.0171 19.9961 26.0337 19.9796C26.042 19.9713 26.0502 19.963 26.0585 19.9548C26.0668 19.9465 26.0751 19.9382 26.0833 19.9299C26.0999 19.9134 26.1082 19.8968 26.1247 19.872C26.1413 19.8554 26.1495 19.8306 26.1578 19.814C26.1661 19.7975 26.1826 19.7726 26.1909 19.7478C26.1992 19.723 26.2075 19.7064 26.2157 19.6816C26.224 19.6568 26.2323 19.6319 26.2323 19.6154C26.2406 19.5905 26.2406 19.5657 26.2488 19.5409C26.2488 19.5243 26.2488 19.516 26.2488 19.4995C26.2488 19.4912 26.2488 19.4829 26.2488 19.4747V19.4664C26.2406 19.3422 26.2323 19.2677 26.2157 19.2015ZM25.9509 19.4498C25.9178 19.6981 25.7027 19.8803 25.4544 19.8803C25.4296 19.8803 25.4131 19.8803 25.3882 19.8803C25.2476 19.8637 25.1317 19.7892 25.049 19.6816C24.9745 19.5823 24.9331 19.4498 24.9579 19.3174C24.9745 19.2015 25.0324 19.0939 25.1069 19.0194C25.1979 18.9366 25.322 18.8787 25.4544 18.8787C25.4793 18.8787 25.4958 18.8787 25.5206 18.887C25.7937 18.9201 25.9923 19.1767 25.9509 19.4498Z" fill="white"/>
<path d="M26.2157 19.2015C26.2157 19.1932 26.2075 19.1767 26.2075 19.1684C26.2075 19.1601 26.1992 19.1518 26.1992 19.1436C26.1909 19.1187 26.1826 19.0939 26.1744 19.0691C26.1744 19.0608 26.1661 19.0525 26.1578 19.0359C26.1495 19.0194 26.1413 18.9946 26.1247 18.978C26.1164 18.9697 26.1164 18.9614 26.1082 18.9449C26.0999 18.9366 26.0999 18.9283 26.0916 18.9201C26.0833 18.9118 26.0751 18.9035 26.0751 18.8952C26.0585 18.8787 26.042 18.8538 26.0254 18.8373C26.0006 18.8125 25.984 18.7959 25.9592 18.7793C25.9427 18.7628 25.9178 18.7462 25.9013 18.738C25.8765 18.7214 25.8434 18.7048 25.8185 18.6883H25.8103C25.7772 18.6717 25.7358 18.6552 25.7027 18.6469C25.6861 18.6386 25.6696 18.6386 25.653 18.6386C25.6448 18.6386 25.6448 18.6386 25.6365 18.6386C25.6199 18.6386 25.6034 18.6303 25.5786 18.6303C25.562 18.6303 25.5455 18.6221 25.5289 18.6221C25.5124 18.6221 25.5041 18.6221 25.4875 18.6221H25.4793C25.4462 18.6221 25.4048 18.6221 25.3717 18.6303C25.3634 18.6303 25.3469 18.6303 25.3386 18.6386C25.3386 18.6386 25.3303 18.6386 25.322 18.6386H25.3138C25.3055 18.6386 25.2972 18.6469 25.2807 18.6469C25.2641 18.6552 25.2476 18.6552 25.231 18.6635C25.1731 18.68 25.1234 18.7048 25.0738 18.738C25.0655 18.7462 25.0572 18.7462 25.0407 18.7545C25.0241 18.7628 24.9993 18.7793 24.9828 18.7959C24.9745 18.8042 24.9662 18.8125 24.9579 18.8207C24.9414 18.8373 24.9248 18.8538 24.9083 18.8704C24.9 18.8787 24.8917 18.887 24.8835 18.8952C24.8669 18.9118 24.8586 18.9283 24.8421 18.9449C24.809 18.9946 24.7759 19.0442 24.7593 19.0939C24.7511 19.1187 24.7428 19.1353 24.7345 19.1601C24.7262 19.1849 24.718 19.2098 24.718 19.2263C24.7097 19.2512 24.7097 19.276 24.7014 19.3008C24.6849 19.3919 24.6931 19.4829 24.7097 19.5657C24.7097 19.574 24.718 19.5905 24.718 19.6071C24.7262 19.6236 24.7262 19.6485 24.7345 19.665C24.7428 19.6816 24.7428 19.6981 24.7511 19.7147V19.723C24.7593 19.7478 24.7759 19.7809 24.7924 19.8058C24.7924 19.8058 24.7924 19.814 24.8007 19.814C24.8173 19.8389 24.8338 19.8637 24.8504 19.8885C24.8586 19.9051 24.8752 19.9134 24.8835 19.9299C24.9166 19.963 24.9497 19.9961 24.9828 20.021C25.0076 20.0458 25.0407 20.0624 25.0738 20.0872C25.0738 20.0872 25.0738 20.0872 25.0821 20.0955C25.14 20.1286 25.2062 20.1617 25.2807 20.1782C25.2889 20.1782 25.2972 20.1865 25.3055 20.1865C25.3303 20.1948 25.3551 20.1948 25.38 20.2031C25.3965 20.2031 25.4131 20.2031 25.4213 20.2114C25.4296 20.2114 25.4379 20.2114 25.4462 20.2114C25.4544 20.2114 25.4627 20.2114 25.4627 20.2114C25.471 20.2114 25.471 20.2114 25.4793 20.2114C25.4875 20.2114 25.4875 20.2114 25.4958 20.2114C25.5041 20.2114 25.5041 20.2114 25.5124 20.2114C25.5206 20.2114 25.5289 20.2114 25.5372 20.2114C25.5455 20.2114 25.5537 20.2114 25.562 20.2114C25.5786 20.2114 25.5951 20.2114 25.6034 20.2031C25.6199 20.2031 25.6365 20.1948 25.653 20.1948C25.6613 20.1948 25.6613 20.1948 25.6696 20.1865C25.6696 20.1865 25.6696 20.1865 25.6779 20.1865H25.6861C25.711 20.1782 25.7275 20.17 25.7523 20.1617C25.7689 20.1534 25.7937 20.1451 25.8185 20.1369C25.8268 20.1286 25.8351 20.1286 25.8516 20.1203C25.8682 20.112 25.893 20.0955 25.9096 20.0872C25.9344 20.0706 25.9592 20.0541 25.9758 20.0375C25.984 20.0292 25.984 20.0292 25.9923 20.0292C26.0089 20.0127 26.0254 19.9961 26.042 19.9796C26.0502 19.9713 26.0585 19.963 26.0668 19.9548C26.0751 19.9465 26.0833 19.9382 26.0916 19.9299C26.1082 19.9134 26.1164 19.8968 26.133 19.872C26.1495 19.8554 26.1578 19.8306 26.1661 19.814C26.1744 19.7975 26.1909 19.7726 26.1992 19.7478C26.2075 19.723 26.2157 19.7064 26.224 19.6816C26.2323 19.6568 26.2406 19.6319 26.2406 19.6154C26.2488 19.5905 26.2488 19.5657 26.2571 19.5409C26.2571 19.5243 26.2571 19.516 26.2571 19.4995C26.2571 19.4912 26.2571 19.4829 26.2571 19.4747V19.4664C26.2406 19.3422 26.2323 19.2677 26.2157 19.2015ZM25.9509 19.4498C25.9178 19.6981 25.7027 19.8803 25.4544 19.8803C25.4296 19.8803 25.4131 19.8803 25.3882 19.8803C25.2476 19.8637 25.1317 19.7892 25.049 19.6816C24.9745 19.5823 24.9331 19.4498 24.9579 19.3174C24.9745 19.2015 25.0324 19.0939 25.1069 19.0194C25.1979 18.9366 25.322 18.8787 25.4544 18.8787C25.4793 18.8787 25.4958 18.8787 25.5206 18.887C25.7937 18.9201 25.9923 19.1767 25.9509 19.4498Z" fill="white"/>
<path d="M28.706 19.1762C28.706 19.1596 28.706 19.143 28.706 19.1348C28.706 19.1265 28.706 19.1182 28.706 19.1099C28.706 19.1017 28.706 19.0851 28.6977 19.0768C28.6977 19.0685 28.6977 19.052 28.6894 19.0437C28.6894 19.0354 28.6812 19.0189 28.6812 19.0106C28.6812 19.0023 28.6812 18.994 28.6729 18.9858C28.6729 18.9692 28.6646 18.9527 28.6563 18.9444C28.6563 18.9361 28.6481 18.9195 28.6398 18.9113C28.6398 18.903 28.6315 18.8947 28.6315 18.8864C28.6232 18.8616 28.6067 18.8368 28.5984 18.8202C28.5901 18.8119 28.5901 18.8037 28.5819 18.7954C28.5653 18.7623 28.5405 18.7374 28.5157 18.7126C28.5074 18.6961 28.4908 18.6878 28.4826 18.6712C28.466 18.6547 28.4577 18.6464 28.4412 18.6298C28.4246 18.6216 28.4164 18.605 28.3998 18.5967C28.3998 18.5967 28.3998 18.5967 28.3915 18.5884C28.3915 18.5884 28.3915 18.5884 28.3833 18.5884C28.3667 18.5802 28.3584 18.5719 28.3419 18.5553C28.3253 18.5471 28.3088 18.5388 28.2922 18.5305C28.2757 18.5222 28.2509 18.514 28.2343 18.5057C28.226 18.4974 28.2095 18.4974 28.2012 18.4891C28.1929 18.4891 28.1847 18.4808 28.1764 18.4808C28.1681 18.4808 28.1598 18.4726 28.1516 18.4726C28.1433 18.4726 28.1267 18.4643 28.1185 18.4643C28.1102 18.4643 28.1019 18.456 28.0936 18.456C28.0771 18.4477 28.0605 18.4477 28.044 18.4477C28.0109 18.4395 27.9778 18.4395 27.9364 18.4395C27.9199 18.4395 27.895 18.4395 27.8785 18.4395C27.8619 18.4395 27.8454 18.4395 27.8371 18.4477C27.8371 18.4477 27.8371 18.4477 27.8288 18.4477C27.8206 18.4477 27.804 18.4477 27.7957 18.456C27.7626 18.4643 27.7378 18.4643 27.7047 18.4808C27.6882 18.4891 27.6716 18.4891 27.6633 18.4974H27.6551C27.6385 18.5057 27.622 18.514 27.6054 18.5222C27.5971 18.5222 27.5889 18.5305 27.5806 18.5305C27.5723 18.5388 27.564 18.5388 27.5558 18.5471C27.5392 18.5553 27.5227 18.5636 27.5061 18.5802C27.4896 18.5884 27.4647 18.605 27.4482 18.6216C27.4234 18.6464 27.3985 18.6629 27.3737 18.6878C27.3654 18.6961 27.3572 18.7043 27.3489 18.7126C27.3323 18.7292 27.3241 18.7457 27.3075 18.7623C27.2744 18.8119 27.2413 18.8616 27.2165 18.9113C27.2082 18.9361 27.1999 18.9527 27.1916 18.9775C27.1834 19.0023 27.1751 19.0189 27.1751 19.0437C27.1668 19.0685 27.1668 19.0934 27.1586 19.1182C27.1503 19.1762 27.1503 19.2424 27.1586 19.3003C27.1586 19.3086 27.1586 19.3169 27.1586 19.3251C27.1586 19.3417 27.1668 19.3665 27.1668 19.3831C27.1751 19.4079 27.1834 19.4328 27.1916 19.4576C27.1999 19.4741 27.1999 19.4907 27.2082 19.5073C27.2082 19.5155 27.2165 19.5238 27.2165 19.5238C27.2247 19.5404 27.233 19.5569 27.233 19.5652C27.2496 19.59 27.2579 19.6149 27.2744 19.6397C27.291 19.6728 27.3158 19.6976 27.3406 19.7225C27.3489 19.739 27.3654 19.7473 27.3737 19.7556C27.382 19.7721 27.3985 19.7804 27.4068 19.7887C27.4151 19.797 27.4316 19.8052 27.4399 19.8218C27.4565 19.8301 27.4647 19.8384 27.4813 19.8549C27.5061 19.8715 27.5309 19.888 27.564 19.9046C27.5723 19.9129 27.5806 19.9128 27.5971 19.9211C27.6137 19.9294 27.6302 19.9377 27.6468 19.9377C27.6551 19.9377 27.6633 19.946 27.6633 19.946C27.6799 19.9542 27.6964 19.9542 27.713 19.9625C27.7213 19.9625 27.7378 19.9708 27.7461 19.9708C27.7709 19.9791 27.7957 19.9791 27.8206 19.9873C27.8537 19.9956 27.8868 19.9956 27.9281 19.9956C27.9612 19.9956 28.0026 19.9956 28.0357 19.9873C28.044 19.9873 28.0605 19.9873 28.0688 19.9791C28.0771 19.9791 28.0854 19.9791 28.0936 19.9708C28.1019 19.9708 28.1102 19.9625 28.1267 19.9625C28.1681 19.9542 28.2012 19.9377 28.2426 19.9211C28.2426 19.9211 28.2426 19.9211 28.2509 19.9211C28.2674 19.9128 28.284 19.9046 28.3088 19.8963C28.3253 19.888 28.3502 19.8715 28.3667 19.8632C28.3833 19.8466 28.4081 19.8384 28.4246 19.8218C28.4329 19.8135 28.4412 19.8052 28.4495 19.797C28.4577 19.7887 28.466 19.7804 28.4743 19.7721C28.4826 19.7639 28.4908 19.7556 28.4908 19.7556C28.4991 19.7473 28.5074 19.7307 28.5239 19.7225C28.5322 19.7142 28.5405 19.6976 28.5488 19.6894C28.557 19.6728 28.5653 19.6645 28.5819 19.648C28.5984 19.6314 28.6067 19.6066 28.615 19.59C28.6232 19.5735 28.6315 19.5569 28.6398 19.5404V19.5321V19.5238C28.6398 19.5155 28.6481 19.5073 28.6481 19.499C28.6563 19.4907 28.6563 19.4741 28.6646 19.4659C28.6729 19.441 28.6812 19.4162 28.6812 19.3996C28.6894 19.3748 28.6894 19.35 28.6977 19.3251C28.6977 19.3086 28.6977 19.292 28.706 19.2755C28.706 19.2589 28.706 19.2506 28.706 19.2341C28.706 19.2093 28.706 19.1927 28.706 19.1762ZM27.4316 19.143C27.4399 19.0603 27.473 18.9858 27.5144 18.9278C27.6054 18.7954 27.7544 18.7126 27.9281 18.7126C27.953 18.7126 27.9695 18.7126 27.9943 18.7209C28.1267 18.7374 28.2426 18.8037 28.3253 18.9113C28.4081 19.0189 28.4412 19.1513 28.4246 19.2838C28.3915 19.5321 28.1764 19.7142 27.9281 19.7142C27.9033 19.7142 27.8868 19.7142 27.8619 19.7059C27.7378 19.6894 27.622 19.6231 27.5475 19.5321C27.4565 19.4328 27.4151 19.292 27.4316 19.143Z" fill="white"/>
<path d="M28.706 19.1762C28.706 19.1596 28.706 19.143 28.706 19.1348C28.706 19.1265 28.706 19.1182 28.706 19.1099C28.706 19.1017 28.706 19.0851 28.6977 19.0768C28.6977 19.0685 28.6977 19.052 28.6894 19.0437C28.6894 19.0354 28.6812 19.0189 28.6812 19.0106C28.6812 19.0023 28.6812 18.994 28.6729 18.9858C28.6729 18.9692 28.6646 18.9527 28.6563 18.9444C28.6563 18.9361 28.6481 18.9195 28.6398 18.9113C28.6398 18.903 28.6315 18.8947 28.6315 18.8864C28.6232 18.8616 28.6067 18.8368 28.5984 18.8202C28.5901 18.8119 28.5901 18.8037 28.5819 18.7954C28.5653 18.7623 28.5405 18.7374 28.5157 18.7126C28.5074 18.6961 28.4908 18.6878 28.4826 18.6712C28.466 18.6547 28.4577 18.6464 28.4412 18.6298C28.4246 18.6216 28.4164 18.605 28.3998 18.5967C28.3998 18.5967 28.3998 18.5967 28.3915 18.5884C28.3915 18.5884 28.3915 18.5884 28.3833 18.5884C28.3667 18.5802 28.3584 18.5719 28.3419 18.5553C28.3253 18.5471 28.3088 18.5388 28.2922 18.5305C28.2757 18.5222 28.2509 18.514 28.2343 18.5057C28.226 18.4974 28.2095 18.4974 28.2012 18.4891C28.1929 18.4891 28.1847 18.4808 28.1764 18.4808C28.1681 18.4808 28.1598 18.4726 28.1516 18.4726C28.1433 18.4726 28.1267 18.4643 28.1185 18.4643C28.1102 18.4643 28.1019 18.456 28.0936 18.456C28.0771 18.4477 28.0605 18.4477 28.044 18.4477C28.0109 18.4395 27.9778 18.4395 27.9364 18.4395C27.9199 18.4395 27.895 18.4395 27.8785 18.4395C27.8619 18.4395 27.8454 18.4395 27.8371 18.4477C27.8371 18.4477 27.8371 18.4477 27.8288 18.4477C27.8206 18.4477 27.804 18.4477 27.7957 18.456C27.7626 18.4643 27.7378 18.4643 27.7047 18.4808C27.6882 18.4891 27.6716 18.4891 27.6633 18.4974H27.6551C27.6385 18.5057 27.622 18.514 27.6054 18.5222C27.5971 18.5222 27.5889 18.5305 27.5806 18.5305C27.5723 18.5388 27.564 18.5388 27.5558 18.5471C27.5392 18.5553 27.5227 18.5636 27.5061 18.5802C27.4896 18.5884 27.4647 18.605 27.4482 18.6216C27.4234 18.6464 27.3985 18.6629 27.3737 18.6878C27.3654 18.6961 27.3572 18.7043 27.3489 18.7126C27.3323 18.7292 27.3241 18.7457 27.3075 18.7623C27.2744 18.8119 27.2413 18.8616 27.2165 18.9113C27.2082 18.9361 27.1999 18.9527 27.1916 18.9775C27.1834 19.0023 27.1751 19.0189 27.1751 19.0437C27.1668 19.0685 27.1668 19.0934 27.1586 19.1182C27.1503 19.1762 27.1503 19.2424 27.1586 19.3003C27.1586 19.3086 27.1586 19.3169 27.1586 19.3251C27.1586 19.3417 27.1668 19.3665 27.1668 19.3831C27.1751 19.4079 27.1834 19.4328 27.1916 19.4576C27.1999 19.4741 27.1999 19.4907 27.2082 19.5073C27.2082 19.5155 27.2165 19.5238 27.2165 19.5238C27.2247 19.5404 27.233 19.5569 27.233 19.5652C27.2496 19.59 27.2579 19.6149 27.2744 19.6397C27.291 19.6728 27.3158 19.6976 27.3406 19.7225C27.3489 19.739 27.3654 19.7473 27.3737 19.7556C27.382 19.7721 27.3985 19.7804 27.4068 19.7887C27.4151 19.797 27.4316 19.8052 27.4399 19.8218C27.4565 19.8301 27.4647 19.8384 27.4813 19.8549C27.5061 19.8715 27.5309 19.888 27.564 19.9046C27.5723 19.9129 27.5806 19.9128 27.5971 19.9211C27.6137 19.9294 27.6302 19.9377 27.6468 19.9377C27.6551 19.9377 27.6633 19.946 27.6633 19.946C27.6799 19.9542 27.6964 19.9542 27.713 19.9625C27.7213 19.9625 27.7378 19.9708 27.7461 19.9708C27.7709 19.9791 27.7957 19.9791 27.8206 19.9873C27.8537 19.9956 27.8868 19.9956 27.9281 19.9956C27.9612 19.9956 28.0026 19.9956 28.0357 19.9873C28.044 19.9873 28.0605 19.9873 28.0688 19.9791C28.0771 19.9791 28.0854 19.9791 28.0936 19.9708C28.1019 19.9708 28.1102 19.9625 28.1267 19.9625C28.1681 19.9542 28.2012 19.9377 28.2426 19.9211C28.2426 19.9211 28.2426 19.9211 28.2509 19.9211C28.2674 19.9128 28.284 19.9046 28.3088 19.8963C28.3253 19.888 28.3502 19.8715 28.3667 19.8632C28.3833 19.8466 28.4081 19.8384 28.4246 19.8218C28.4329 19.8135 28.4412 19.8052 28.4495 19.797C28.4577 19.7887 28.466 19.7804 28.4743 19.7721C28.4826 19.7639 28.4908 19.7556 28.4908 19.7556C28.4991 19.7473 28.5074 19.7307 28.5239 19.7225C28.5322 19.7142 28.5405 19.6976 28.5488 19.6894C28.557 19.6728 28.5653 19.6645 28.5819 19.648C28.5984 19.6314 28.6067 19.6066 28.615 19.59C28.6232 19.5735 28.6315 19.5569 28.6398 19.5404V19.5321V19.5238C28.6398 19.5155 28.6481 19.5073 28.6481 19.499C28.6563 19.4907 28.6563 19.4741 28.6646 19.4659C28.6729 19.441 28.6812 19.4162 28.6812 19.3996C28.6894 19.3748 28.6894 19.35 28.6977 19.3251C28.6977 19.3086 28.6977 19.292 28.706 19.2755C28.706 19.2672 28.706 19.2672 28.706 19.2589V19.2424C28.706 19.2093 28.706 19.1927 28.706 19.1762ZM27.4316 19.143C27.4399 19.0603 27.473 18.9858 27.5144 18.9278C27.6054 18.7954 27.7544 18.7126 27.9281 18.7126C27.953 18.7126 27.9695 18.7126 27.9943 18.7209C28.1267 18.7374 28.2426 18.8037 28.3253 18.9113C28.4081 19.0189 28.4412 19.1513 28.4246 19.2838C28.3915 19.5321 28.1764 19.7142 27.9281 19.7142C27.9033 19.7142 27.8868 19.7142 27.8619 19.7059C27.7378 19.6894 27.622 19.6231 27.5475 19.5321C27.4565 19.4328 27.4151 19.292 27.4316 19.143Z" fill="white"/>
<path d="M31.1462 18.977C31.1462 18.9604 31.1462 18.9439 31.1379 18.9273C31.1296 18.8859 31.1214 18.8445 31.1131 18.8032C31.1131 18.7866 31.1048 18.77 31.0965 18.7535C31.0882 18.7287 31.08 18.7121 31.0717 18.6873C31.0634 18.6707 31.0551 18.6624 31.0551 18.6459C31.0386 18.621 31.0221 18.5879 31.0055 18.5631C30.9972 18.5548 30.9889 18.5465 30.9889 18.5383C30.9724 18.5217 30.9641 18.5052 30.9476 18.4969C30.931 18.4803 30.9227 18.4638 30.9062 18.4555C30.8979 18.4472 30.8814 18.4389 30.8731 18.4224C30.8731 18.4224 30.8731 18.4224 30.8648 18.4224C30.8565 18.4141 30.8483 18.4141 30.84 18.4058L30.8317 18.3976C30.8234 18.3893 30.8152 18.3893 30.8069 18.381C30.7986 18.3727 30.7903 18.3727 30.7821 18.3644C30.7572 18.3479 30.7324 18.3396 30.7076 18.3231C30.7076 18.3231 30.6993 18.3231 30.6993 18.3148H30.691C30.6745 18.3065 30.6662 18.3065 30.6497 18.2982C30.6414 18.2982 30.6331 18.2899 30.6248 18.2899C30.6 18.2817 30.5835 18.2734 30.5586 18.2734C30.5504 18.2734 30.5421 18.2651 30.5338 18.2651H30.5255H30.5173C30.509 18.2651 30.5007 18.2651 30.4924 18.2651C30.4759 18.2651 30.4593 18.2568 30.4428 18.2568C30.4262 18.2568 30.418 18.2568 30.4014 18.2568C30.3766 18.2568 30.3435 18.2568 30.3187 18.2568C30.3021 18.2568 30.2938 18.2568 30.2856 18.2568C30.2773 18.2568 30.269 18.2568 30.2607 18.2651C30.2525 18.2651 30.2442 18.2651 30.2442 18.2651H30.2359C30.2276 18.2651 30.2194 18.2734 30.2111 18.2734C30.2028 18.2734 30.1945 18.2734 30.1945 18.2817C30.1863 18.2817 30.1697 18.2899 30.1614 18.2899C30.1366 18.2982 30.1201 18.3065 30.0952 18.3148C30.087 18.3148 30.0787 18.3231 30.0621 18.3313C30.0456 18.3396 30.0208 18.3562 30.0042 18.3644C29.9959 18.3727 29.9877 18.3727 29.9794 18.381C29.9628 18.3893 29.938 18.4058 29.9215 18.4224C29.9132 18.4307 29.9049 18.4389 29.8966 18.4472C29.8801 18.4638 29.8635 18.4803 29.847 18.4969C29.8304 18.5134 29.8139 18.53 29.8056 18.5465C29.7891 18.5631 29.7808 18.5797 29.7642 18.6045C29.7477 18.621 29.7394 18.6459 29.7311 18.6624C29.7229 18.679 29.7063 18.7038 29.698 18.7287C29.6898 18.7535 29.6815 18.77 29.6732 18.7949C29.6649 18.8197 29.6567 18.8445 29.6567 18.8611C29.6484 18.8859 29.6484 18.9108 29.6401 18.9356C29.6318 18.9687 29.6318 19.0018 29.6318 19.0349C29.6318 19.0515 29.6318 19.068 29.6318 19.0763C29.6318 19.0846 29.6318 19.1011 29.6318 19.1094C29.6318 19.1177 29.6318 19.126 29.6318 19.1425C29.6318 19.1508 29.6318 19.1674 29.6401 19.1756C29.6401 19.1922 29.6484 19.2087 29.6484 19.2253C29.6484 19.2336 29.6484 19.2419 29.6567 19.2501V19.2584C29.6567 19.2667 29.6649 19.2832 29.6649 19.2915C29.6649 19.2998 29.6732 19.3081 29.6732 19.3164C29.6732 19.3246 29.6815 19.3329 29.6815 19.3495C29.6815 19.3577 29.6898 19.3577 29.6898 19.366C29.698 19.3826 29.7063 19.3991 29.7146 19.4074C29.7229 19.4157 29.7229 19.424 29.7311 19.4405C29.7394 19.4571 29.756 19.4819 29.7725 19.4985C29.7808 19.5067 29.7891 19.5233 29.7973 19.5316C29.7973 19.5316 29.7973 19.5316 29.8056 19.5399C29.8139 19.5481 29.8139 19.5564 29.8222 19.5647C29.8387 19.5812 29.8553 19.6061 29.8801 19.6226C29.8884 19.6309 29.9049 19.6475 29.9215 19.6557L29.9297 19.664C29.9297 19.664 29.9297 19.664 29.938 19.6723C29.9463 19.6806 29.9546 19.6806 29.9628 19.6888C29.9794 19.6971 29.9877 19.7054 30.0042 19.7137C30.0125 19.722 30.0208 19.722 30.0373 19.7302C30.0456 19.7385 30.0539 19.7385 30.0704 19.7468C30.0952 19.7633 30.1201 19.7716 30.1532 19.7799C30.1697 19.7882 30.178 19.7882 30.1945 19.7965C30.2028 19.7965 30.2111 19.8047 30.2194 19.8047C30.2276 19.8047 30.2359 19.8047 30.2442 19.813C30.2525 19.813 30.269 19.8213 30.2773 19.8213C30.2856 19.8213 30.3021 19.8296 30.3104 19.8296C30.3269 19.8296 30.3435 19.8378 30.36 19.8378C30.3766 19.8378 30.3849 19.8378 30.4014 19.8378H30.4262H30.4345C30.4428 19.8378 30.4593 19.8378 30.4676 19.8378H30.4759C30.4842 19.8378 30.4924 19.8378 30.5007 19.8378C30.5173 19.8378 30.5255 19.8378 30.5421 19.8296C30.5421 19.8296 30.5421 19.8296 30.5504 19.8296C30.5752 19.8213 30.5917 19.8213 30.6166 19.813C30.6166 19.813 30.6166 19.813 30.6248 19.813H30.6331H30.6414C30.6414 19.813 30.6414 19.813 30.6497 19.813C30.7076 19.7965 30.7572 19.7716 30.8069 19.7385C30.8152 19.7302 30.8234 19.7302 30.8317 19.722C30.84 19.7137 30.8483 19.7137 30.8565 19.7054C30.8648 19.6971 30.8731 19.6888 30.8814 19.6888C30.8896 19.6806 30.8979 19.6723 30.9062 19.664C30.9145 19.6557 30.931 19.6475 30.9393 19.6309C30.9476 19.6226 30.9558 19.6143 30.9724 19.5978C30.9807 19.5895 30.9807 19.5812 30.9889 19.5812C30.9972 19.573 30.9972 19.5647 31.0055 19.5647C31.0221 19.5481 31.0303 19.5316 31.0469 19.5067C31.0552 19.4902 31.0634 19.4819 31.0717 19.4654C31.08 19.4488 31.0882 19.4322 31.0965 19.4157C31.1048 19.3991 31.1131 19.3826 31.1214 19.366C31.1296 19.3495 31.1296 19.3329 31.1379 19.3164C31.1462 19.2915 31.1545 19.2667 31.1545 19.2501C31.1627 19.2253 31.1627 19.2005 31.171 19.1756C31.1793 19.1425 31.1793 19.1094 31.1793 19.068C31.1462 19.0184 31.1462 19.0018 31.1462 18.977ZM29.8718 18.9687C29.8801 18.9025 29.8966 18.8528 29.9297 18.7949C30.0125 18.6376 30.178 18.5383 30.3683 18.5383C30.3931 18.5383 30.4097 18.5383 30.4345 18.5465C30.7076 18.5797 30.8979 18.8363 30.8648 19.1094C30.8317 19.3577 30.6166 19.5399 30.3683 19.5399C30.3435 19.5399 30.3269 19.5398 30.3021 19.5316C30.1201 19.5067 29.9711 19.3826 29.9049 19.2253C29.8718 19.1508 29.8553 19.0598 29.8718 18.9687Z" fill="white"/>
<path d="M31.147 18.977C31.147 18.9604 31.147 18.9439 31.1388 18.9273C31.1305 18.8859 31.1222 18.8445 31.1139 18.8032C31.1139 18.7866 31.1057 18.77 31.0974 18.7535C31.0891 18.7287 31.0808 18.7121 31.0726 18.6873C31.0643 18.6707 31.056 18.6624 31.056 18.6459C31.0395 18.621 31.0229 18.5879 31.0064 18.5631C30.9981 18.5548 30.9898 18.5465 30.9898 18.5383C30.9733 18.5217 30.965 18.5052 30.9484 18.4969C30.9319 18.4803 30.9236 18.4638 30.9071 18.4555C30.8988 18.4472 30.8822 18.4389 30.874 18.4224C30.874 18.4224 30.874 18.4224 30.8657 18.4224C30.8574 18.4141 30.8491 18.4141 30.8409 18.4058L30.8326 18.3976C30.8243 18.3893 30.816 18.3893 30.8078 18.381C30.7995 18.3727 30.7912 18.3727 30.7829 18.3644C30.7581 18.3479 30.7333 18.3396 30.7085 18.3231C30.7085 18.3231 30.7002 18.3231 30.7002 18.3148H30.6919C30.6754 18.3065 30.6671 18.3065 30.6505 18.2982C30.6423 18.2982 30.634 18.2899 30.6257 18.2899C30.6009 18.2817 30.5843 18.2734 30.5595 18.2734C30.5512 18.2734 30.543 18.2651 30.5347 18.2651H30.5264H30.5181C30.5099 18.2651 30.5016 18.2651 30.4933 18.2651C30.4768 18.2651 30.4602 18.2568 30.4437 18.2568C30.4271 18.2568 30.4188 18.2568 30.4023 18.2568H30.394C30.3692 18.2568 30.3444 18.2568 30.3195 18.2651H30.2864C30.2782 18.2651 30.2699 18.2651 30.2533 18.2651C30.2451 18.2651 30.2368 18.2651 30.2285 18.2734C30.2202 18.2734 30.212 18.2734 30.212 18.2734H30.2037C30.1954 18.2734 30.1871 18.2817 30.1789 18.2817C30.1706 18.2817 30.1623 18.2817 30.1623 18.2899C30.154 18.2899 30.1375 18.2982 30.1292 18.2982C30.1044 18.3065 30.0878 18.3148 30.063 18.3231C30.0547 18.3231 30.0465 18.3313 30.0299 18.3396C30.0134 18.3479 29.9885 18.3644 29.972 18.3727C29.9637 18.381 29.9554 18.381 29.9472 18.3893C29.9306 18.3976 29.9058 18.4141 29.8892 18.4307C29.881 18.4389 29.8727 18.4472 29.8644 18.4555C29.8479 18.4721 29.8313 18.4886 29.8148 18.5052C29.7982 18.5217 29.7817 18.5383 29.7734 18.5548C29.7568 18.5714 29.7486 18.5879 29.732 18.6128C29.7155 18.6293 29.7072 18.6542 29.6989 18.6707C29.6906 18.6873 29.6741 18.7121 29.6658 18.7369C29.6575 18.7618 29.6493 18.7783 29.641 18.8032C29.6327 18.828 29.6244 18.8528 29.6244 18.8694C29.6162 18.8942 29.6162 18.919 29.6079 18.9439C29.5996 18.977 29.5996 19.0101 29.5996 19.0432C29.5996 19.0598 29.5996 19.0763 29.5996 19.0846C29.5996 19.0929 29.5996 19.1094 29.5996 19.1177C29.5996 19.126 29.5996 19.1343 29.5996 19.1508C29.5996 19.1591 29.5996 19.1756 29.6079 19.1839C29.6079 19.2005 29.6162 19.217 29.6162 19.2336C29.6162 19.2419 29.6162 19.2501 29.6244 19.2584V19.2667C29.6244 19.275 29.6327 19.2915 29.6327 19.2998C29.6327 19.3081 29.641 19.3164 29.641 19.3246C29.641 19.3329 29.6493 19.3412 29.6493 19.3577C29.6493 19.366 29.6575 19.366 29.6575 19.3743C29.6658 19.3909 29.6741 19.4074 29.6824 19.4157C29.6906 19.424 29.6906 19.4322 29.6989 19.4488C29.7072 19.4654 29.7237 19.4902 29.7403 19.5067C29.7486 19.515 29.7568 19.5316 29.7651 19.5399C29.7651 19.5399 29.7651 19.5398 29.7734 19.5481C29.7817 19.5564 29.7817 19.5647 29.7899 19.573C29.8065 19.5895 29.823 19.6143 29.8479 19.6309C29.8561 19.6392 29.8727 19.6557 29.8892 19.664L29.8975 19.6723C29.8975 19.6723 29.8975 19.6723 29.9058 19.6806C29.9141 19.6888 29.9223 19.6888 29.9306 19.6971C29.9472 19.7054 29.9554 19.7137 29.972 19.722C29.9803 19.7302 29.9885 19.7302 30.0051 19.7385C30.0134 19.7468 30.0216 19.7468 30.0382 19.7551C30.063 19.7716 30.0878 19.7799 30.1209 19.7882C30.1375 19.7965 30.1458 19.7965 30.1623 19.8047C30.1706 19.8047 30.1789 19.813 30.1871 19.813C30.1954 19.813 30.2037 19.813 30.212 19.8213C30.2202 19.8213 30.2368 19.8296 30.2451 19.8296C30.2533 19.8296 30.2699 19.8378 30.2782 19.8378C30.2947 19.8378 30.3113 19.8461 30.3278 19.8461C30.3444 19.8461 30.3526 19.8461 30.3692 19.8461H30.3775C30.3775 19.8461 30.3857 19.8461 30.394 19.8461H30.4023C30.4106 19.8461 30.4271 19.8461 30.4354 19.8461H30.4437C30.4519 19.8461 30.4602 19.8461 30.4685 19.8461C30.485 19.8461 30.4933 19.8461 30.5099 19.8378C30.5099 19.8378 30.5099 19.8378 30.5181 19.8378C30.5347 19.8378 30.5512 19.8296 30.5678 19.8296C30.5761 19.8296 30.5761 19.8296 30.5843 19.8213C30.5843 19.8213 30.5843 19.8213 30.5926 19.8213H30.6009C30.6009 19.8213 30.6009 19.8213 30.6092 19.8213C30.6671 19.8047 30.7167 19.7799 30.7664 19.7468C30.7747 19.7385 30.7829 19.7385 30.7912 19.7302C30.7995 19.722 30.8078 19.722 30.816 19.7137C30.8243 19.7054 30.8326 19.6971 30.8409 19.6971C30.8491 19.6888 30.8574 19.6806 30.8657 19.6723C30.874 19.664 30.8905 19.6557 30.8988 19.6392C30.9071 19.6226 30.9153 19.6226 30.9319 19.6061C30.9402 19.5978 30.9402 19.5895 30.9484 19.5895C30.9567 19.5812 30.9567 19.573 30.965 19.573C30.9815 19.5564 30.9898 19.5399 31.0064 19.515C31.0146 19.4985 31.0229 19.4902 31.0312 19.4736C31.0395 19.4571 31.0477 19.4405 31.056 19.424C31.0643 19.4074 31.0726 19.3909 31.0808 19.3743C31.0891 19.3577 31.0891 19.3412 31.0974 19.3246C31.1057 19.2998 31.1139 19.275 31.1139 19.2584C31.1222 19.2336 31.1222 19.2087 31.1305 19.1839C31.1388 19.1508 31.1388 19.1177 31.1388 19.0763C31.147 19.0184 31.147 19.0018 31.147 18.977ZM29.8727 18.9687C29.881 18.9025 29.8975 18.8528 29.9306 18.7949C30.0134 18.6376 30.1789 18.5383 30.3692 18.5383C30.394 18.5383 30.4106 18.5383 30.4354 18.5465C30.7085 18.5797 30.8988 18.8363 30.8657 19.1094C30.8326 19.3577 30.6174 19.5399 30.3692 19.5399C30.3444 19.5399 30.3278 19.5398 30.303 19.5316C30.1209 19.5067 29.972 19.3826 29.9058 19.2253C29.8727 19.1508 29.8561 19.0598 29.8727 18.9687Z" fill="white"/>
</svg>
