<svg width="52" height="52" fill="none" xmlns="http://www.w3.org/2000/svg"><path d="M10.446 25.51H8.732v1.61h1.714v-1.61Z" fill="#010202"/><path d="M9.584 26.275c.476 0 .86-.352.86-.787 0-.434-.385-.786-.86-.786s-.86.352-.86.786c0 .435.385.787.86.787Zm4.809-.765h-1.714v1.61h1.713v-1.61Z" fill="#010202"/><path d="M13.54 26.275c.475 0 .86-.352.86-.787 0-.434-.385-.786-.86-.786-.476 0-.861.352-.861.786 0 .435.385.787.86.787Z" fill="#010202"/><path d="M12.687 24.642h-2.24v2.479h2.24v-2.479Z" fill="#010202"/><path d="M11.567 25.822c.618 0 1.12-.541 1.12-1.21 0-.668-.502-1.21-1.12-1.21-.62 0-1.12.542-1.12 1.21 0 .669.5 1.21 1.12 1.21Z" fill="#010202"/><path d="M11.634 22.49h-.163v1.195h.163V22.49Z" fill="#010202"/><path d="M11.912 22.921v-.185h-.727v.185h.727Zm-2.245 1.091h-.163v1.002h.163v-1.002Z" fill="#010202"/><path d="M9.954 24.382v-.156h-.727v.156h.727Zm3.772-.37h-.164v1.002h.164v-1.002Z" fill="#010202"/><path d="M14.01 24.382v-.155h-.726v.155h.727Zm24.33-.69s-.407.505-.34.787c.066.274.252.148.17.341-.089.193-.163.23-.178.356-.007.134.297.03.178.178-.119.149-.497.216-.378.342.111.133.408.03.378.133-.03.097-.6-.052-.556.327.044.378.378.274.638.23.26-.052.571-.097.6.052.03.148.246.26.38.096.133-.163.377-.638.096-.682-.275-.052-.379-.112-.216-.245.164-.134-.03-.193-.148-.357-.111-.163.082-.133.052-.311-.03-.178-.341-.112-.274-.312.066-.193.274-.111.133-.393-.163-.282-.386-.757-.534-.542Z" fill="#010202"/><path d="M37.2 26.535a2.623 2.623 0 0 1-.275-.045c-.245-.044 0-.104.133-.274.038-.052.015-.082-.03-.097-.118-.044-.407-.03-.444-.133-.052-.141.133-.127.037-.2-.097-.075-.038-.134 0-.246v-.022c0-.037-.045-.06-.104-.067a.808.808 0 0 0-.386.052c-.223.097.126.149.267.208.148.06-.022.134-.089.275-.03.074.015.11.097.155.081.045.185.09.281.179.193.185-.207.17-.437.148-.23-.022-.267-.09-.334-.03-.008.008-.015.015-.022.015-.082.037-.267-.015-.356-.074-.052-.045-.097-.022-.127-.022-.007 0-.014-.008-.022-.008-.015-.007-.03-.037-.037-.089-.037-.17.119-.148.237-.274.12-.127-.415.014-.274-.156.14-.171.237-.193.26-.394.022-.192-.149-.074-.245-.17-.082-.082.14-.06.23-.304a.666.666 0 0 0 .03-.142c.036-.393.192-.6.222-.49.022.112.223.758.223.758.059.193.222.074.408.052.185-.023.052-.26-.075-.602-.118-.34.149-.155.379.156.23.32.23.156.297.342.059.185.207.022.26.193.051.17-.023.155.125.2.149.045.09.2.015.334-.067.126-.007.015.245.163.015.008.037.023.06.037a.49.49 0 0 1 .133.112c.03.066-.141.044-.208.104-.074.066.126.081.32.222a.515.515 0 0 1 .073.06c.149.185-.467.133-.868.074Zm4.962-1.722s.14-.705.155-.831c.015-.119.127.104.156.534.023.43.252.371.178.483-.067.104-.185-.03-.17.185.014.215.089.238.185.43.097.186-.282.023-.193.164.09.14.482.245.453.438-.03.193-.349-.082-.423 0-.074.081-.223.133-.267.066-.045-.066-.067.008-.23.03s-.445.037-.312-.163c.141-.2.312-.215.267-.371-.044-.156-.163-.23-.06-.297.105-.067.342-.119.186-.23-.155-.104-.37-.082-.34.037.021.119.066.186 0 .267-.068.082.059.067.021.223-.037.156-.43.06-.334.245.097.185.268.245.097.297-.17.052-.935.215-.786 0 .148-.216.333-.23.274-.312-.06-.082-.267-.015-.052-.238.215-.222.267-.074.215-.222-.052-.149-.096-.32.008-.371.104-.045.052-.03.089-.223s.14-.015.178-.215c.044-.2.044-.03.207-.371.164-.349.35-.55.268-.17-.09.37-.178.63-.052.652.133.045.244.178.282-.037Z" fill="#010202"/><path d="M40.166 24.056c-.038.118-.052.712-.32.92-.267.208-.712.23-.408.326.305.104.653-.103.475 0-.17.104-.564.372-.341.468.222.096.586-.111.393.148-.193.268-.853.186-.623.409.23.222 1.313.14 1.528 0 .215-.141-.126-.156-.148-.409-.022-.252.467-.163.222-.4-.244-.238-.734-.371-.511-.394.222-.022.615.216.49 0-.12-.207-.683-1.313-.758-1.068Z" fill="#010202"/><path d="M42.904 26.267c-.007.008-.015.008-.03.015-.252.111-.882.267-1.179.364-.482.155.23.03.408.215.186.185-1.172.067-1.64.2-.474.126.364.104 1.061.156.698.052-.185.416-1.06.312-.609-.067-2.1.044-2.975.044-.371 0-.639-.022-.668-.089-.037-.089.237-.119.6-.126.572-.022 1.344 0 1.44-.111.082-.097-.742-.075-1.499-.104-.63-.023-1.216-.09-1.187-.282.149.06.26.119.349.17 0 0 .594.2.096-.148a2.001 2.001 0 0 0-.319-.163c.186-.104.557-.052.95.015.445.074.905.17 1.165.104.252-.075-.423-.134-1.195-.2-.474-.045-.979-.09-1.328-.15-.319-.051-.504-.118-.4-.192.089-.06.423-.104.912-.126.186-.008.393-.023.616-.023h.052c.163-.007.341-.007.527-.014.089 0 .178 0 .267-.008.504-.007 1.039-.007 1.565-.007h.208c.416 0 .816.007 1.194.015h.127c.193 0 .37.007.541.007.074 0 .141 0 .208.007.497.008.868.015 1.016.023.09 0 .156.007.2.014.097 0 .075.038-.022.082Zm-.349.994c.168 0 .304-.036.304-.081 0-.045-.136-.082-.304-.082-.168 0-.304.037-.304.082 0 .045.136.081.304.081Zm-.185 3.866c.102 0 .186-.036.186-.081 0-.046-.084-.082-.186-.082s-.185.036-.185.082c0 .045.083.081.185.081Zm.638 0c.102 0 .185-.036.185-.081 0-.046-.083-.082-.185-.082-.103 0-.186.036-.186.082 0 .045.083.081.186.081ZM15.164 28.79c.397 0 .72-.073.72-.163 0-.09-.323-.164-.72-.164-.397 0-.72.073-.72.164 0 .09.322.163.72.163Zm-1.194.282c.204 0 .37-.037.37-.082 0-.045-.165-.081-.37-.081s-.371.036-.371.081c0 .045.166.082.37.082Zm1.254.104c.127 0 .23-.02.23-.045 0-.024-.103-.044-.23-.044s-.23.02-.23.044c0 .025.103.045.23.045Zm21.144-1.729c.102 0 .186-.023.186-.052 0-.029-.084-.052-.186-.052s-.185.023-.185.052c0 .029.083.052.185.052Z" fill="#010202"/><path d="M42.675 26.742c.102 0 .185-.023.185-.052 0-.029-.083-.052-.185-.052-.103 0-.186.023-.186.052 0 .029.083.052.186.052Zm-3.525 1.543c.262 0 .474-.04.474-.088 0-.05-.212-.09-.474-.09-.263 0-.475.04-.475.09 0 .049.212.088.475.088ZM8.732 27.031s-.92.112-.601.379c.311.26 1.669.089 1.676.17.008.082-.26.097-.096.208.163.111.794-.074 1.261 0 .468.074 1.224.067 1.24-.089.014-.156.711-.089.697-.022-.015.067.155.156.615.096.46-.059.282-.237.683-.163.4.074.549-.03.527-.178-.023-.148.816-.4-.134-.4H8.732Zm11.35 5.929c-.267-.014-2.262-.208-2.737.2-.512.438.408.617 2.21 1.077 1.796.46 3.042.749 2.842 1.343-.193.586-1.602.23-1.996.519-.393.29-.096.742.683.653.786-.096 1.469.015.95.223-.52.207-1.017.43-.587.534.423.096 2.256-.238 1.93.178-.327.415-2.842.119-3.005.475-.164.356 2.255.185 2.418.452.163.268-1.565.134-1.44.594.127.46.587.408 1.633.43 1.862.052 3.25.023 2.641-.37-.615-.394-.089-.513.43-.438.52.074 2.939.512 2.775 0-.163-.512-1.076-.149-1.765-.609-.683-.46.393-.304 1.112-.541.72-.238-.393-.327-.163-.705.23-.386.846.319 1.113 0 .26-.32-.193-.386.98-.401 1.179-.015 2.054-.208.949-.534-1.105-.327-1.862-.624-1.076-.683.787-.06 1.729-.067 2.122-.46.393-.393.653-.297 1.602-.49.95-.193.587-.556 1.158-.52.571.038 1.365-.897.779-.764-.586.134-6.67.78-8.027.78-1.47 0-2.834.17-3.814 0-.92-.186-3.235-.92-3.717-.943Zm4.052 7.643c1.258 0 2.278-.1 2.278-.223s-1.02-.222-2.278-.222-2.278.1-2.278.222c0 .123 1.02.223 2.278.223Zm.43 2.522c2.176 0 3.94-.133 3.94-.296 0-.164-1.764-.297-3.94-.297-2.175 0-3.939.133-3.939.297 0 .163 1.764.296 3.94.296Zm3.576-3.19c.856 0 1.55-.113 1.55-.253 0-.139-.694-.252-1.55-.252-.857 0-1.551.113-1.551.252 0 .14.694.253 1.55.253Zm-.022 4.17c.705 0 1.276-.056 1.276-.126s-.571-.126-1.276-.126c-.705 0-1.276.056-1.276.126s.571.126 1.276.126ZM17.152 30.6c.015.023.03.053.037.075-.03.008-.06.008-.089.008a1.22 1.22 0 0 1-.23-.008c-.052-.007-.104-.007-.148-.007-.312-.015-.342.03-.394.074-.044.037-.096.074-.356.067-.586-.015-.734-.327-1.439-.06-.705.275.022.208-.438.223-.46.015-.304-.349-.86-.252-.55.096.015.207.163.378.156.17-.846-.126-1.358-.326-.512-.193-1.498-.127-1.461-.327.037-.208.571-.09.252-.238-.319-.14-.682-.081-.415-.23.267-.148.882-.014 1.008-.215.12-.2-1.424.023-1.602-.089-.185-.111.557-.052.371-.245-.185-.2-1.276-.237-1.929-.237-.653.007-.83-.193-.304-.223.527-.03.668-.156 1.261-.2.594-.045 1.358.208 1.929-.03.571-.237 1.41-.111 1.892.104s-.497.141-.89.178c-.394.037-.052.304.437.416.483.111.408-.245 1.254-.141.846.111.475.252 1.031.267.557.007.883.044.883.044h.008c.875.052.823.275.883.49.037.149-.268.045-.631.008a1.356 1.356 0 0 0-.49.03c-.363.096-.015.148.586.163.23.007.49 0 .772-.008h.119c.148 0 .26.015.348.037-.089.112-.148.2-.2.275Zm27.347-1.528c-.653-.03-1.766-.238-1.959-.097-.193.141.55.127.356.2-.193.082-1.721-.155-1.61 0 .111.156.735.082.994.201.26.119-.096.06-.422.156-.327.096.207.03.237.185.022.156-.957.06-1.477.186-.519.126-1.535.312-1.372.186.163-.127.734-.186.185-.282-.548-.097-.415.185-.875.155s.26.045-.423-.185c-.044-.015-.081-.03-.119-.037-.393-.112-.608-.06-.867-.015.007-.112 0-.23-.008-.349.223-.007.274-.045.052-.096-.022-.008-.037-.008-.06-.015a6.263 6.263 0 0 0-.059-.394c.126-.007.386-.007.757 0h.044c.557.015.193-.11 1.047-.155.845-.045.749.222 1.239.155.49-.066.853-.252.46-.296-.394-.045-1.373-.03-.883-.171.49-.141 1.343-.2 1.892 0 .556.2.675.119 1.268.178.594.06.557.185 1.083.23.52.052 1.172.29.52.26ZM10.49 28.048c-.038.007-.008.052-.557.044-.55-.007-.75-.178-1.254-.067-.504.112-.734.193-1.002.186-.267 0-.215.326.06.26.274-.067.512-.134.987-.09.474.045.482.023.882-.03.401-.051.794.06 1.15.038.364-.022.935-.119.69-.193-.237-.074-.437-.23-.957-.148Zm3.844.037c.081-.074.378-.008.356-.104-.008-.03-.215-.09-.512-.037-.445.074-.082.082-.772.104-.69.03-.72.119-.964.156-.245.037-.505.185-.282.17.222-.014.623-.133.527-.037-.097.097-.305.238-.134.23.17-.007.304-.119.504-.06.208.06.438.03.55.06.11.03.252.119.311.082.06-.037.156-.2-.03-.245-.185-.044-.244-.178-.052-.163.193.022.32.06.646.03.319-.03.52.081.564 0 .052-.082.252-.245-.149-.194-.4.06-.652.09-.563.008Zm26.219 3.027c-.757-.03-.371.09-.905.067-.386-.022-.98-.081-1.573-.067a4.552 4.552 0 0 0-.713.067 6.3 6.3 0 0 1-1.543.082s.186-.141.468-.275c.46-.015.734-.037.757-.067.066-.103-.134-.081-.134-.081-.074.007-.141.007-.215.007a3.197 3.197 0 0 1 1.098-.015c.111.015.2.03.29.03.296.008.474-.081.748-.2.357-.163.527.015.846.14.32.134.542.067 1.158.06.615-.015.608-.119.927 0 .312.119-.453.275-1.21.252Z" fill="#010202"/><path d="m13.05 15.923-.26.334-2.53-1.944-1.58 2.055 1.47 1.136c.46.356.749.712.853 1.068l-.23.304 1.187.913.475-.616-.594-.46 1.32-1.721.594.46.475-.616-1.18-.913Zm-1.528 1.989c-.133-.334-.43-.668-.883-1.017l-.905-.697.638-.831 1.951 1.498-.8 1.047Zm4.696-3.718-2.537-2.997-.452.378.267 2.924-1.55-1.84-.594.497 2.537 2.997.452-.378-.26-2.916 1.551 1.833.586-.498Zm2.441-2.693a.97.97 0 0 0-.883-.534.971.971 0 0 0-.052-.868 1.014 1.014 0 0 0-.683-.527 1.247 1.247 0 0 0-.897.14l-1.358.75 1.9 3.443 1.46-.801c.305-.163.505-.4.61-.698a1.109 1.109 0 0 0-.097-.905Zm-2.849-.787.675-.37a.393.393 0 0 1 .326-.038.423.423 0 0 1 .253.216.42.42 0 0 1 .044.326.4.4 0 0 1-.2.252l-.675.379-.423-.764Zm2.203 1.47a.428.428 0 0 1-.222.274l-.78.43-.444-.808.779-.43a.444.444 0 0 1 .348-.045.478.478 0 0 1 .32.579Zm4.66-2.82a1.982 1.982 0 0 0-.98-1.224 1.996 1.996 0 0 0-1.558-.164c-.549.164-.95.49-1.216.98a1.964 1.964 0 0 0-.156 1.558c.163.55.49.957.98 1.224.489.268 1.008.32 1.55.164.549-.164.95-.49 1.224-.98.26-.49.319-1.009.156-1.558Zm-.831 1.21a1.204 1.204 0 0 1-.764.6 1.257 1.257 0 0 1-.972-.089c-.305-.163-.505-.423-.609-.786a1.277 1.277 0 0 1 .09-.994c.163-.305.422-.505.764-.609a1.23 1.23 0 0 1 .971.097c.305.163.505.43.609.786.104.364.074.69-.09.994Zm3.532-3.384-.044 2.323c-.008.37-.075.616-.186.742-.119.126-.297.17-.527.133l-.015.72c.2.023.379.015.542-.014.163-.038.32-.104.468-.216.148-.111.26-.282.348-.512.09-.23.134-.512.141-.853l.03-1.559 1.135.023-.067 3.19.772.015.081-3.925-2.678-.067Zm6.395 4.682-.445-4.014-.935-.215-2.226 3.517.816.193.386-.639 1.528.357.067.742.757.178.067.015-.015-.134Zm-1.996-1.81.89-1.44.163 1.684-1.053-.244Z" fill="#009FE3"/><path d="m36.391 9.846-2.344-1.113-.802 1.677c-.252.527-.541.883-.868 1.061l-.34-.163-.275.572-.052.11-.32.669.698.333.326-.682 1.96.935-.327.675.697.334.638-1.35-.378-.179 1.387-2.879Zm-2.07 2.546-1.187-.564c.297-.2.564-.564.809-1.076l.49-1.032.942.445-1.054 2.227Zm5.69.704a1.987 1.987 0 0 0-.764-1.365 1.94 1.94 0 0 0-1.498-.438c-.557.06-1.01.319-1.365.764-.356.445-.505.95-.446 1.506.06.557.312 1.01.757 1.366.445.356.942.504 1.499.438a1.948 1.948 0 0 0 1.372-.765c.364-.445.505-.95.445-1.506Zm-1.046 1.024c-.23.29-.519.46-.86.49a1.245 1.245 0 0 1-.935-.282 1.242 1.242 0 0 1-.482-.846c-.037-.341.06-.653.29-.95.23-.29.518-.46.86-.497.341-.037.653.052.935.282.281.223.437.505.482.846.037.348-.06.668-.29.957Zm2.567-.185-2.997 2.538.497.593 2.434-2.055.942 1.113.564-.475-1.44-1.714Zm2.255 2.931-4.065.875.437.713.727-.17.816 1.335-.482.571.438.72 2.634-3.228-.505-.816Zm-1.602 2.174-.564-.92 1.647-.379-1.083 1.3ZM13.102 37.167a.925.925 0 0 0-.252-.667.856.856 0 0 0-.646-.268.902.902 0 0 0-.935.943c0 .267.09.497.268.675.178.178.415.267.704.267.342 0 .601-.126.78-.378l-.372-.215c-.089.118-.222.178-.4.178-.275 0-.438-.111-.505-.334h1.343c.015-.082.015-.141.015-.2Zm-1.365-.17a.456.456 0 0 1 .163-.267.513.513 0 0 1 .586-.008c.082.06.134.149.163.267h-.912v.008Zm2.864.237a.47.47 0 0 0-.23-.17 1.668 1.668 0 0 0-.274-.082.93.93 0 0 1-.23-.082c-.067-.03-.097-.066-.097-.11 0-.045.022-.082.06-.112a.291.291 0 0 1 .148-.037c.133 0 .23.06.282.178l.393-.215a.735.735 0 0 0-.282-.282.792.792 0 0 0-.393-.097.777.777 0 0 0-.482.148.508.508 0 0 0-.193.416c0 .119.03.215.096.29.06.074.141.133.23.17.09.037.178.067.267.09.09.022.163.051.23.08.06.03.097.068.097.12 0 .103-.082.155-.245.155-.178 0-.297-.074-.349-.23l-.4.223c.133.282.385.423.749.423a.87.87 0 0 0 .512-.148.494.494 0 0 0 .207-.423.454.454 0 0 0-.096-.305Zm1.359-.519v-.438h-.401v-.497l-.46.14v.364h-.312v.438h.312v.742c0 .245.066.416.193.512.126.097.348.127.667.09v-.416a1.108 1.108 0 0 1-.222 0 .281.281 0 0 1-.134-.045c-.03-.03-.044-.074-.044-.133v-.742h.4v-.015Zm.83.868a.297.297 0 0 0-.215-.09.297.297 0 0 0-.215.09.298.298 0 0 0-.09.215c0 .082.03.156.09.215.059.06.133.09.215.09.081 0 .155-.03.215-.09s.089-.133.089-.215a.297.297 0 0 0-.09-.215Zm18.25.237.49-.49c.274-.274.408-.541.408-.8a.72.72 0 0 0-.245-.572.853.853 0 0 0-.578-.208.888.888 0 0 0-.824.527l.416.245c.088-.193.23-.29.415-.29.096 0 .17.03.23.09a.32.32 0 0 1 .089.237c0 .134-.097.297-.282.497l-.853.876v.363h1.67v-.474h-.936Zm2.888-1.714a.868.868 0 0 0-.735-.356.867.867 0 0 0-.734.356c-.179.238-.268.55-.268.943 0 .393.09.705.267.942a.867.867 0 0 0 .735.356.868.868 0 0 0 .735-.356c.178-.237.26-.549.26-.942 0-.394-.083-.705-.26-.943Zm-.357 1.551a.42.42 0 0 1-.378.208.42.42 0 0 1-.378-.208c-.09-.14-.127-.341-.127-.608 0-.267.045-.468.127-.609a.404.404 0 0 1 .378-.208c.17 0 .297.067.378.208.09.141.134.342.134.609 0 .26-.045.467-.134.608Zm1.363-1.855-.653.23.119.423.467-.133v1.974h.49v-2.494h-.423Zm2.539.304a.868.868 0 0 0-.734-.356.867.867 0 0 0-.735.356c-.178.238-.267.55-.267.943 0 .393.09.705.267.942a.867.867 0 0 0 .735.356.868.868 0 0 0 .734-.356c.178-.237.267-.549.267-.942 0-.394-.089-.705-.267-.943Zm-.348 1.551a.42.42 0 0 1-.379.208.42.42 0 0 1-.378-.208c-.09-.14-.126-.341-.126-.608 0-.267.044-.468.126-.609a.412.412 0 0 1 .378-.208.42.42 0 0 1 .379.208c.089.141.133.342.133.609-.007.26-.052.467-.133.608Z" fill="#009FE3"/><path d="M23.889 41.077c.296-.126 4.199-.46 5.045 0 .853.46-.52.23-.653.423-.134.193 1.372.067 2.418.164 1.046.096.913.423-.215.393-1.128-.03-7.938-.015-8.146 0-.564.052-1.039-.297 2.092-.393.853-.023-.92-.423-.541-.587Z" fill="#000"/><path d="M45.026 6.967 32.963 0H19.03L6.966 6.967 0 19.033v13.934l6.966 12.066L19.03 52h13.933l12.063-6.967 6.966-12.066V19.034L45.026 6.967Zm6.224 25.8-6.766 11.724-11.722 6.767H19.23L7.508 44.491.742 32.767V19.233L7.508 7.509 19.23.742h13.532l11.722 6.767 6.766 11.724v13.534Z" fill="#D88532"/><path d="M42.248 9.635 31.906 3.662H19.97L9.634 9.627 3.662 19.971V31.91l5.972 10.336L19.97 48.22h11.937l10.335-5.973 5.972-10.336v-11.94L42.248 9.635Zm5.223 22.075L41.7 41.705l-9.993 5.772H20.169l-9.993-5.772-5.772-9.995V20.17l5.772-9.994 9.993-5.773h11.537l9.993 5.773 5.772 9.994v11.54Z" fill="#D88532"/><path d="M24.454.372h-.742V4.09h.742V.372ZM28.46.371h-.741V4.09h.742V.371ZM52 27.461h-4.103v.78h4.102v-.78Zm0-4.006h-4.103v.779h4.102v-.78ZM28.386 47.904h-.741v3.718h.741v-3.718Zm-4.006 0h-.742v3.718h.742v-3.718ZM4.088 23.477H.371v.742h3.717v-.742Zm0 4.007H.371v.742h3.717v-.742Z" fill="#D88532"/><path d="m33.822 23.322-.474-3.043-.55-.86-2.27-.268c0 .015-.037.141-.096.342-.23.823-.823 2.916-1.009 3.65-.044.164-.067.26-.06.267.038.015 3.584.572 3.584.572l.89-.564-.015-.096Zm-3.019-3.325s2.062.497 2.13.527c.073.03.303 2.508.303 2.508l-.37-.03-.334.364-2.567-.482.838-2.887Zm-4.762-1.083-1.454 4.066.608.082 1.566-4.334-.72.186Zm-6.856.965-1.476 3.859.341-.075 1.395-3.873-.26.089Z" fill="#000"/><path d="M33.356 20.28s-3.584-.965-3.702-.98c-.119-.015-3.51.045-3.51.045l-8.502.735s-.096-.757.104-1.002c.193-.238.55-.475.55-.475s-.067-.312.259-.312 10.535-.86 10.535-.86l3.695.734.741.831-.17 1.284Zm1.564 4.874-6.996-1.157-4.132.475c-1.172.037-2.582.104-2.878.163-.23.045-.631.126-.928.208l-1.395-.008h-.289l-1.743-.007-1.343-.46s.267-.17.356-.2c.089-.03.63-.164.63-.164l.498-.274.185-.104s.045-.008.126-.015l.09-.008a.464.464 0 0 0 .096-.014l.155-.015.09-.008.096-.014.104-.015.096-.008c.015 0 .023 0 .037-.007a3.25 3.25 0 0 0 .245-.03c.023 0 .052-.007.074-.007 1.58-.178 4.392-.468 6.507-.587.222-.014.438-.022.645-.03.43-.014.824-.021 1.143-.014.905.022 1.988.141 3.02.29a61.75 61.75 0 0 1 3.635.653l.408-.602.356.112.875.274.156 1.12.082.453Z" fill="#000"/><path d="m22.687 33.62-.853-2.262a6.329 6.329 0 0 1-1.18-1.462c-.119-.215.09-.282.534-.252l-.393-1.054c-.081-.03-.14-.044-.17-.067-.438-.222-.253-.304-.075-.252 0 0 .052.015.141.037l-.319-.846c-.148-.193-.26-.46-.341-.742l-1.424-1.877-.43-.572-2.946.097c-.497.237-.653 1.402-.653 1.402h-.007c-.008 0-.023.008-.045.023-.007.007-.022.007-.03.014-.007 0-.007.008-.014.008-.008.007-.015.007-.023.015-.014.007-.022.015-.037.022l-.007.007a.111.111 0 0 1-.03.023c-.007.007-.022.014-.03.022a.448.448 0 0 0-.066.06l-.037.036-.038.038c-.007.007-.014.022-.022.03-.007.007-.015.021-.022.029a.128.128 0 0 1-.03.037c-.007.015-.014.022-.022.037-.007.015-.015.022-.022.037l-.022.045a.165.165 0 0 1-.023.037c-.03.06-.059.126-.089.2-.007.03-.022.067-.022.097 0 .014-.007.03-.007.044v.022a.458.458 0 0 0 .03.178c0 .008.007.015.007.023 0 .007.007.015.014.022 0 .007.008.015.015.022.008.008.015.023.023.03v.007a.1.1 0 0 1 .022.03c.007.015.022.022.037.037.015.008.022.022.037.03l.03.022c.015.007.022.015.037.022.007.008.022.015.03.023.007.007.014.007.022.014l.007.008c.015.007.037.022.06.03h.007c.015.007.03.014.044.014.008.008.015.008.023.008.015.007.03.007.044.015.008 0 .015.007.022.007.008 0 .015.007.023.007.007 0 .015.008.022.008a.07.07 0 0 0 .037.007c.03.008.045.008.045.008s0 .007.007.014c0 .008.008.015.008.023a2.4 2.4 0 0 0 .088.163c.015.037.038.067.06.111.015.023.022.052.037.074 0 .008.007.008.007.015a.716.716 0 0 0 .067.119l.067.134c.022.044.044.096.074.148.007.015.015.022.015.037l.089.178c.037.067.074.141.111.215l.045.09c.022.051.052.103.074.155.015.023.03.052.037.082.141.274.282.564.43.846.09.17.171.334.253.497.014.03.03.052.044.082l.045.089c0 .007.007.014.007.022.074.156.148.297.223.43.022.052.052.097.074.141.037.067.067.134.104.2 0 .008 0 .008.007.008.008.022.022.044.03.06.015.022.022.051.037.073.007.023.022.038.03.06.014.037.037.074.052.104.044.081.081.156.103.207a.056.056 0 0 1 .015.03.103.103 0 0 1 .022.03 2.086 2.086 0 0 1 .075.074c.014.008.022.022.037.03a.103.103 0 0 0 .03.022c.014.015.03.022.044.037.007.008.022.015.03.022.022.015.044.03.074.045.015.007.022.015.037.022.067.037.14.082.215.119.022.007.037.022.06.03.059.03.126.059.192.089.045.022.09.044.134.059.015.007.022.015.037.015.022.007.052.022.074.03.06.022.119.051.186.074.007 0 .014.007.022.007h.007s.008 0 .015.008h.015c.037.014.074.03.119.044l.11.045c.075.03.157.059.23.089.045.014.09.03.134.052.067.022.134.044.193.066.06.023.134.045.193.067.06.022.119.037.178.06.037.014.075.022.112.037.037.014.081.03.118.037.037.014.074.022.112.037.037.015.074.022.11.037.053.015.097.03.142.044l.156.045c.037.015.081.022.118.037.045.015.09.03.126.037.03.008.052.015.082.022.022.008.052.015.074.023.097.03.193.059.275.081.022.008.037.015.06.015a.612.612 0 0 0 .11.03c.015.007.03.007.045.015.03.007.06.014.081.022.045.015.075.022.097.03.007 0 .015.007.022.007h.015l1.625.371-.067-.074ZM21.3 32.583c-.126-.037-.935-.26-1.81-.556-1.507-.505-1.944-.78-2.056-.861a21.4 21.4 0 0 1-.252-.49c-.015-.022-.022-.052-.037-.074a2.48 2.48 0 0 1 .2-.26c.32-.378.89-.868 1.915-1.558 0 0 .289-.46-.238-.282-.096.037-1.469.705-2.077 1.7a883.215 883.215 0 0 0-1.7-3.332l-.177-.35-.163-.029.385-.133.067-.49a2.77 2.77 0 0 1 .208-.72l2.226-.074.897 1.187c.23.853.482 1.707.616 1.944.178.32.95 2.152 1.884 3.658l.282.75-.17-.03Z" fill="#fff"/><path d="m22.687 33.62-.853-2.262a6.329 6.329 0 0 1-1.18-1.462c-.119-.215.09-.282.534-.252l-.393-1.054c-.081-.03-.14-.044-.17-.067-.438-.222-.253-.304-.075-.252 0 0 .052.015.141.037l-.319-.846c-.148-.193-.26-.46-.341-.742l-1.424-1.877-.43-.572-2.946.097c-.497.237-.653 1.402-.653 1.402h-.007c-.008 0-.023.008-.045.023-.007.007-.022.007-.03.014-.007 0-.007.008-.014.008-.008.007-.015.007-.023.015-.014.007-.022.015-.037.022l-.007.007a.111.111 0 0 1-.03.023c-.007.007-.022.014-.03.022a.448.448 0 0 0-.066.06l-.037.036-.038.038c-.007.007-.014.022-.022.03-.007.007-.015.021-.022.029a.128.128 0 0 1-.03.037c-.007.015-.014.022-.022.037-.007.015-.015.022-.022.037l-.022.045a.165.165 0 0 1-.023.037c-.03.06-.059.126-.089.2-.007.03-.022.067-.022.097 0 .014-.007.03-.007.044v.022a.458.458 0 0 0 .03.178c0 .008.007.015.007.023 0 .007.007.015.014.022 0 .007.008.015.015.022.008.008.015.023.023.03v.007a.1.1 0 0 1 .022.03c.007.015.022.022.037.037.015.008.022.022.037.03l.03.022c.015.007.022.015.037.022.007.008.022.015.03.023.007.007.014.007.022.014l.007.008c.015.007.037.022.06.03h.007c.015.007.03.014.044.014.008.008.015.008.023.008.015.007.03.007.044.015.008 0 .015.007.022.007.008 0 .015.007.023.007.007 0 .015.008.022.008a.07.07 0 0 0 .037.007c.03.008.045.008.045.008s0 .007.007.014c0 .008.008.015.008.023a2.4 2.4 0 0 0 .088.163c.015.037.038.067.06.111.015.023.022.052.037.074 0 .008.007.008.007.015a.716.716 0 0 0 .067.119l.067.134c.022.044.044.096.074.148.007.015.015.022.015.037l.089.178c.037.067.074.141.111.215l.045.09c.022.051.052.103.074.155.015.023.03.052.037.082.141.274.282.564.43.846.09.17.171.334.253.497.014.03.03.052.044.082l.045.089c0 .007.007.014.007.022.074.156.148.297.223.43.022.052.052.097.074.141.037.067.067.134.104.2 0 .008 0 .008.007.008.008.022.022.044.03.06.015.022.022.051.037.073.007.023.022.038.03.06.014.037.037.067.052.104.044.081.081.156.103.207a.056.056 0 0 1 .015.03.103.103 0 0 1 .022.03 2.086 2.086 0 0 1 .075.074c.014.008.022.022.037.03a.103.103 0 0 0 .03.022c.014.015.03.022.044.037.007.008.022.015.03.022.022.015.044.03.074.045.015.007.022.015.037.022.067.037.14.082.215.119.022.007.037.022.06.03.059.03.126.059.192.089.045.022.09.044.134.059.015.007.022.015.037.015.022.007.052.022.074.03.06.022.119.051.186.074.007 0 .014.007.022.007h.007s.008 0 .015.008h.015c.037.014.074.03.119.044l.11.045c.075.03.157.059.23.089.045.014.09.03.134.052.067.022.134.044.193.066.06.023.134.045.193.067.06.022.119.037.178.06.037.014.075.022.112.037.037.014.081.03.118.037.037.014.074.022.112.037.037.015.074.022.11.037.053.015.097.03.142.044l.156.045c.037.015.081.022.118.037.045.015.09.03.126.037.03.008.052.015.082.022.022.008.052.015.074.023.097.03.193.059.275.081.022.008.037.015.06.015a.612.612 0 0 0 .11.03c.015.007.03.007.045.015.03.007.06.014.081.022.045.015.075.022.097.03.007 0 .015.007.022.007h.015l1.625.371-.067-.074ZM21.3 32.583c-.126-.037-.935-.26-1.81-.556-1.507-.505-1.944-.78-2.056-.861a21.4 21.4 0 0 1-.252-.49c-.015-.022-.022-.052-.037-.074-.044-.09-.096-.186-.148-.29-.015-.037-.037-.066-.052-.103a878.19 878.19 0 0 0-1.7-3.332l-.177-.349-.163-.03.385-.133.067-.49a2.77 2.77 0 0 1 .208-.72l2.226-.074.897 1.188.764 1.009 1.736 4.6.282.75-.17-.045Z" fill="#000"/><path d="m19.155 19.945-.838.075-1.306 3.599.089-.008a.4.4 0 0 0 .096-.015l.156-.014.089-.008.097-.015.103-.014.097-.008 1.35-3.443.008-.015.059-.134Zm-1.58 3.355-.186.022 1.113-3.065.282-.022-1.21 3.065Z" fill="#fff"/><path d="m18.14 19.782-.097.26-1.336 3.688-.066.178 1.29-.148.03-.082.074-.186.913-2.322v-.015l.482-1.239.104-.26-1.395.126Zm.637.446-1.202 3.071-.185.023 1.113-3.065.274-.03Zm18.444 6.396c-.474-.045-.979-.09-1.328-.149-.081.037-.267-.015-.356-.074-.052-.044-.096-.022-.126-.022.364.126.668.245.89.334.186-.104.557-.052.95.015a.427.427 0 0 0-.03-.104Zm.787 3.131a15.732 15.732 0 0 0-.186-.868c-.096-.423-.222-.883-.334-1.314-.022-.074-.037-.148-.059-.222-.022-.074-.037-.149-.06-.215-.036-.141-.08-.282-.118-.408-.007-.038-.022-.067-.03-.104a1.146 1.146 0 0 0-.022-.082c-.044-.156-.089-.297-.119-.416-.059-.207-.096-.326-.096-.326-.111-.089-.23-.186-.356-.267-.037-.022-.067-.045-.104-.067a6.822 6.822 0 0 0-.957-.482 12.572 12.572 0 0 0-.697-.26c-2.88-.965-7.241-1.276-9.081-1.15-2.404.17-6.677.579-6.677.579l-.935.119s.052.222.14.57c.097.38.23.899.372 1.425.23.854.482 1.707.615 1.945.179.319.95 2.151 1.885 3.658.43.697.898 1.328 1.35 1.706l.193.149c.134.089.267.155.393.193 1.365.393 9.504-.29 12.672-.609.527-.052.92-.096 1.113-.126 1.053-.14 1.142-1.202 1.157-2.07v-.252c0-.164 0-.32.008-.453.014-.149-.015-.379-.067-.653Zm-17.086-5.12c.29-.06 1.699-.126 2.878-.163a36.914 36.914 0 0 1 1.55-.03c.706.015 1.544-.007 3.992.334 1.744.245 4.467 1.032 6.054 1.588.008 0 .015.007.023.007.363.127.667.245.89.334.156.067.26.119.319.164.504.356-.097.148-.097.148-.081-.052-.2-.104-.348-.17-1.514-.639-6.084-1.789-8.295-2.086-2.426-.326-8.183.275-8.183.275-.2-.037-.007-.119.29-.2.296-.075.697-.156.927-.2Zm15.194 7.917c-.594.364-10 .564-12.175-.007-.875-.23-1.58-.705-2.107-1.187a6.329 6.329 0 0 1-1.18-1.462c-.118-.215.09-.282.535-.252 1.484.104 5.609 1.335 8.784 1.736 4.103.52 6.736.809 6.143 1.172Zm.912-1.64c-.014.03-.296.06-.756.067-1.187.03-3.576-.03-5.795-.363-2.863-.438-8.554-1.677-9.689-2.026-.081-.03-.14-.044-.17-.067-.438-.222-.253-.304-.075-.252 0 0 .052.015.141.037 1.262.326 10.817 2.723 15.996 2.53.074 0 .148-.007.215-.007.007 0 .2-.022.133.082Zm.112-1.172c-.015.334-.112.579-.356.594-.816.052-15.706-2.278-16.278-2.724a.846.846 0 0 1-.14-.14c-.149-.193-.26-.46-.342-.742-.156-.55-.2-1.128-.2-1.128 7.493-1.054 12.634 1.372 16.114 1.973.534.09.957.505 1.068 1.04.022.088.037.185.052.274.022.133.045.267.06.393 0 .037.007.074.007.111.022.12.022.238.015.35Zm.081-3.116c-.474-.045-.979-.09-1.328-.149-.081.037-.267-.015-.356-.074-.052-.044-.096-.022-.126-.022.364.126.668.245.89.334.186-.104.557-.052.95.015a.427.427 0 0 0-.03-.104ZM19.267 28.79c-1.024.69-1.595 1.18-1.914 1.559-.082.089-.14.178-.2.26-.015.03-.037.059-.052.081a1.54 1.54 0 0 0-.17.416c-.12.46-.275.118-.275.118a1.536 1.536 0 0 1 .074-.549 1.7 1.7 0 0 1 .156-.363l.066-.112c.616-.987 1.981-1.662 2.078-1.7.52-.177.237.29.237.29Zm2.122-11.13a.63.63 0 0 1-.253.43.661.661 0 0 1-.304.134.716.716 0 0 1-.178 0 .715.715 0 0 1-.223-.074.674.674 0 0 1-.319-.408.445.445 0 0 0 .364.296c.022 0 .037.008.06.008a.448.448 0 0 0 .444-.386.451.451 0 0 0-.385-.505c-.022 0-.037-.007-.06-.007-.215 0-.4.156-.437.371v-.03a.647.647 0 0 1 .734-.556.638.638 0 0 1 .557.727Zm2.33-.178a.677.677 0 0 1-.223.416.644.644 0 0 1-.482.156h-.03a.73.73 0 0 1-.252-.09.663.663 0 0 1-.267-.318.43.43 0 0 0 .304.178h.06a.454.454 0 0 0 .444-.386.45.45 0 0 0-.385-.505c-.023 0-.037-.007-.06-.007a.437.437 0 0 0-.311.126.651.651 0 0 1 .608-.304h.03a.652.652 0 0 1 .564.734Zm2.211-.185a.666.666 0 0 1-.23.415.632.632 0 0 1-.505.141.684.684 0 0 1-.245-.081.707.707 0 0 1-.252-.26c.066.082.17.141.282.156.022 0 .037.007.059.007a.448.448 0 0 0 .06-.89c-.023 0-.038-.008-.06-.008a.453.453 0 0 0-.371.193.656.656 0 0 1 .579-.415.659.659 0 0 1 .683.742Zm2.166-.127a.62.62 0 0 1-.17.356.623.623 0 0 1-.49.208c-.023 0-.052 0-.075-.007a.59.59 0 0 1-.311-.134.668.668 0 0 1-.238-.363c.06.148.193.252.357.274.022 0 .037.008.059.008a.455.455 0 0 0 .445-.386.451.451 0 0 0-.386-.505c-.022 0-.037-.007-.059-.007a.461.461 0 0 0-.393.23.658.658 0 0 1 .682-.423h.015c.356.06.608.386.564.75Z" fill="#000"/><path d="M20.728 16.918c-.037-.008-.066-.015-.104-.022-.03-.008-.059-.008-.096-.008a.696.696 0 0 0-.438.156c-.022.022-.044.037-.067.06l-.022.022c-.015.014-.022.03-.037.044a.865.865 0 0 0-.081.141c-.008.015-.015.037-.023.052a.24.24 0 0 0-.014.06c-.008.022-.008.044-.015.066a.695.695 0 0 0 .6.787c.03 0 .06.007.097.007a.67.67 0 0 0 .297-.066c.03-.015.06-.03.081-.045.015-.015.038-.022.052-.037l.023-.022c.007-.008.014-.008.014-.015a4.013 4.013 0 0 0 .075-.074c.014-.015.022-.03.037-.052.015-.015.022-.037.03-.052.007-.015.022-.037.03-.06.006-.022.014-.037.021-.059.008-.022.015-.037.015-.06.008-.022.008-.044.015-.066a.686.686 0 0 0-.49-.757Zm-.638.594a.445.445 0 0 1 .438-.372c.022 0 .037 0 .06.008.244.03.415.26.385.505a.448.448 0 0 1-.445.386c-.022 0-.044 0-.06-.008a.445.445 0 0 1-.363-.297c-.015-.067-.022-.14-.015-.222Z" fill="#fff"/><path d="M20.728 16.918c-.037-.008-.066-.015-.104-.022-.03-.008-.059-.008-.096-.008a.696.696 0 0 0-.438.156c-.022.022-.044.037-.067.06l-.022.022c-.015.014-.022.03-.037.044a.865.865 0 0 0-.081.141c-.008.015-.015.037-.023.052a.24.24 0 0 0-.014.06c-.008.022-.008.044-.015.066a.695.695 0 0 0 .6.787c.03 0 .06.007.097.007a.67.67 0 0 0 .297-.066c.03-.015.06-.03.081-.045.015-.015.038-.022.052-.037l.023-.022c.007-.008.014-.008.014-.015.008-.008.023-.015.03-.03l.045-.044c.014-.015.022-.03.037-.052.015-.015.022-.037.03-.052.007-.015.022-.037.03-.06.006-.022.014-.037.021-.059.008-.022.015-.037.015-.06.008-.022.008-.044.015-.066a.686.686 0 0 0-.49-.757Zm-.645.608v-.014a.445.445 0 0 1 .438-.372.15.15 0 0 1 .059.008c.245.03.415.26.386.505a.448.448 0 0 1-.445.386c-.023 0-.045 0-.06-.008a.445.445 0 0 1-.363-.297.633.633 0 0 1-.015-.208Z" fill="#000"/><path d="M23.503 17.215c0-.008-.007-.023-.007-.03 0-.007-.007-.015-.007-.022l-.023-.067c0-.007-.007-.015-.015-.03-.007-.014-.014-.037-.03-.052-.007-.007-.007-.014-.014-.03-.007-.007-.007-.014-.015-.022-.007-.007-.015-.014-.015-.022l-.044-.052a.373.373 0 0 0-.06-.052.226.226 0 0 0-.052-.037c-.022-.015-.051-.03-.074-.044h-.007a.507.507 0 0 0-.096-.037c-.015-.008-.03-.008-.045-.008h-.015c-.015 0-.03-.007-.052-.007-.015 0-.03-.008-.044-.008h-.037c-.037 0-.075 0-.104.008-.008 0-.023 0-.03.007h-.022c-.008 0-.015.008-.03.008-.015.007-.03.007-.044.014a.495.495 0 0 0-.141.067c-.008.008-.015.008-.03.015a.223.223 0 0 0-.052.037l-.022.022-.045.045-.022.022c-.015.015-.022.03-.037.045a.606.606 0 0 0-.074.133l-.023.06a.227.227 0 0 0-.014.06c-.008.021-.008.044-.015.066a.634.634 0 0 0 .007.237c0 .008.008.023.008.037.007.015.007.038.014.052.008.015.008.03.015.045v.007a.345.345 0 0 0 .037.075s0 .007.008.007l.044.067c.008.015.023.022.03.037.03.03.06.06.089.082.022.022.052.037.082.059l.007.007c.052.03.111.06.178.075.008 0 .015.007.022.007.023.007.045.007.067.015.015 0 .03 0 .037.007h.119c.015 0 .03 0 .037-.007.015 0 .03-.008.044-.008.008 0 .008 0 .015-.007h.015c.023-.008.037-.015.06-.022.014-.008.037-.015.059-.023.007-.007.015-.007.03-.015.014-.007.037-.022.051-.03a.333.333 0 0 0 .06-.044c.007-.007.007-.007.015-.007l.044-.045.023-.022.022-.022c.015-.015.022-.03.037-.052.015-.015.022-.037.03-.052.007-.015.022-.037.03-.06l.021-.059a.23.23 0 0 0 .015-.06c.008-.021.008-.044.015-.066v-.067a1.355 1.355 0 0 0-.03-.237Zm-.237.222a.448.448 0 0 1-.445.386h-.06a.446.446 0 0 1-.385-.504.483.483 0 0 1 .133-.267.47.47 0 0 1 .312-.127c.022 0 .037 0 .06.008.244.03.422.26.385.504Z" fill="#fff"/><path d="M23.503 17.215c0-.008-.007-.023-.007-.03 0-.007-.007-.015-.007-.022l-.023-.067c0-.007-.007-.015-.015-.03-.007-.014-.014-.037-.03-.052-.007-.007-.007-.014-.014-.03-.007-.007-.007-.014-.015-.022-.007-.007-.015-.014-.015-.022l-.044-.052a.373.373 0 0 0-.06-.052.226.226 0 0 0-.052-.037c-.022-.015-.051-.03-.074-.044h-.007a.507.507 0 0 0-.096-.037c-.015-.008-.03-.008-.045-.008h-.015c-.015 0-.03-.007-.052-.007-.015 0-.03-.008-.044-.008h-.045c-.03 0-.067 0-.096.008-.008 0-.023 0-.03.007h-.022c-.008 0-.015.008-.03.008-.015.007-.03.007-.044.014a.495.495 0 0 0-.141.067c-.008.008-.015.008-.03.015a.223.223 0 0 0-.052.037l-.022.022-.045.045-.022.022c-.015.015-.022.03-.037.045a.606.606 0 0 0-.074.133l-.023.06a.227.227 0 0 0-.014.06c-.008.021-.008.044-.015.066a.634.634 0 0 0 .007.237c0 .008.008.023.008.037.007.015.007.038.014.052.008.015.008.03.015.045v.007a.345.345 0 0 0 .037.075s0 .007.008.007l.044.067c.008.015.023.022.03.037.03.03.06.06.089.082.022.022.052.037.082.059l.007.007c.052.03.111.06.178.075.008 0 .015.007.022.007.023.007.045.007.067.015.015 0 .03 0 .037.007h.126c.015 0 .03 0 .037-.007.015 0 .03-.008.045-.008.007 0 .007 0 .015-.007h.015c.022-.008.037-.015.059-.022.015-.008.037-.015.06-.023.007-.007.014-.007.029-.015.015-.007.037-.022.052-.03a.424.424 0 0 0 .06-.044c.007-.007.007-.007.014-.007l.045-.045.022-.022.022-.022c.015-.015.022-.03.037-.052.015-.015.023-.037.03-.052.007-.015.022-.037.03-.06.007-.022.014-.037.022-.059a.23.23 0 0 0 .015-.06c.007-.021.007-.044.015-.066v-.067c-.015-.111-.023-.178-.038-.237Zm-.237.222a.448.448 0 0 1-.445.386h-.06a.446.446 0 0 1-.385-.504.483.483 0 0 1 .133-.267.47.47 0 0 1 .312-.127c.022 0 .037 0 .06.008.244.03.422.26.385.504Z" fill="#000"/><path d="M25.737 17.193v-.06c0-.007 0-.022-.008-.03 0-.007 0-.022-.007-.029 0-.007-.008-.022-.008-.03 0-.007 0-.015-.007-.022a.056.056 0 0 0-.015-.037.057.057 0 0 0-.015-.03c0-.007-.007-.015-.007-.022-.008-.022-.022-.045-.03-.06-.007-.007-.007-.014-.015-.022a.293.293 0 0 0-.059-.074c-.007-.015-.022-.022-.03-.037a6.488 6.488 0 0 1-.037-.037c-.015-.008-.022-.022-.037-.03l-.007-.007h-.008a.13.13 0 0 1-.037-.03l-.044-.022c-.015-.008-.037-.015-.052-.022-.008-.008-.023-.008-.03-.015-.007 0-.015-.008-.022-.008-.008 0-.015-.007-.022-.007-.008 0-.023-.008-.03-.008-.008 0-.015-.007-.022-.007-.015-.007-.03-.007-.045-.007-.03-.008-.06-.008-.096-.008h-.052c-.015 0-.03 0-.037.008h-.008c-.007 0-.022 0-.03.007-.03.008-.051.008-.081.022-.015.008-.03.008-.037.015h-.008l-.044.022c-.008 0-.015.008-.022.008-.008.007-.015.007-.023.015-.014.007-.03.014-.044.03a.223.223 0 0 0-.052.037c-.022.022-.045.037-.067.059l-.022.022c-.015.015-.022.03-.037.045-.03.044-.06.089-.082.133-.007.023-.015.037-.022.06-.007.022-.015.037-.015.059-.007.022-.007.044-.015.067a.603.603 0 0 0 0 .163v.022c0 .015.008.037.008.052l.022.067c.007.015.007.03.015.045 0 .007.007.014.007.014.008.015.015.03.015.037.015.023.022.045.037.067.015.03.037.052.06.075.007.014.022.022.03.03.007.014.021.021.029.029.007.007.022.015.03.03a.119.119 0 0 1 .037.03c.022.014.044.029.074.044.007.007.015.007.03.015.014.007.03.014.044.014.008 0 .015.008.015.008.015.007.03.007.044.015.008 0 .023.007.03.007.022.008.045.008.067.015.03.007.06.007.096.007.03 0 .067 0 .097-.007.007 0 .022 0 .03-.007.007 0 .014 0 .022-.008.007 0 .015-.007.03-.007.036-.008.066-.023.103-.037h.008a.33.33 0 0 1 .052-.023l.052-.03c.014-.014.037-.022.051-.036l.023-.023.022-.022.015-.015c.007-.007.015-.022.03-.03.007-.007.014-.022.022-.03a.13.13 0 0 1 .03-.036c.014-.015.022-.037.03-.052l.021-.045v-.015c0-.007.008-.014.008-.022.007-.007.007-.022.015-.03.007-.022.014-.044.014-.059.008-.022.008-.044.015-.067 0-.015 0-.03.008-.044v-.089Zm-1.143-.03a.444.444 0 0 1 .445-.386c.023 0 .037 0 .06.008a.45.45 0 0 1 .386.505.448.448 0 0 1-.446.385c-.022 0-.037 0-.06-.007a.447.447 0 0 1-.281-.156.44.44 0 0 1-.104-.349Z" fill="#fff"/><path d="M25.737 17.193v-.06c0-.007 0-.022-.008-.03 0-.007 0-.022-.007-.029 0-.007-.008-.022-.008-.03 0-.007 0-.015-.007-.022a.056.056 0 0 0-.015-.037.057.057 0 0 0-.015-.03c0-.007-.007-.015-.007-.022-.008-.022-.022-.045-.03-.06-.007-.007-.007-.014-.015-.022a.293.293 0 0 0-.059-.074c-.007-.015-.022-.022-.03-.037a6.488 6.488 0 0 1-.037-.037c-.015-.008-.022-.022-.037-.03l-.007-.007h-.008a.13.13 0 0 1-.037-.03l-.044-.022c-.015-.008-.037-.015-.052-.022-.008-.008-.023-.008-.03-.015-.007 0-.015-.008-.022-.008-.008 0-.015-.007-.022-.007-.008 0-.023-.008-.03-.008-.008 0-.015-.007-.022-.007-.015-.007-.03-.007-.045-.007-.03-.008-.06-.008-.096-.008h-.052c-.015 0-.03 0-.037.008h-.008c-.007 0-.022 0-.03.007-.03.008-.051.008-.081.022-.015.008-.03.008-.037.015h-.008l-.044.022c-.008 0-.015.008-.022.008-.008.007-.015.007-.023.015-.014.007-.03.014-.044.03a.223.223 0 0 0-.052.037c-.022.022-.045.037-.067.059l-.022.022c-.015.015-.022.03-.037.045-.03.044-.06.089-.082.133-.007.023-.015.037-.022.06-.007.022-.015.037-.015.059-.007.022-.007.044-.015.067a.603.603 0 0 0 0 .163v.022c0 .015.008.037.008.052l.022.067c.007.015.007.03.015.045 0 .007.007.014.007.014.008.015.015.03.015.037.015.023.022.045.037.067.015.03.037.052.06.075.007.014.022.022.03.03.007.014.021.021.029.029.007.007.022.015.03.03a.119.119 0 0 1 .037.03c.022.014.044.029.074.044.007.007.015.007.03.015.014.007.03.014.044.014.008 0 .015.008.015.008.015.007.03.007.044.015.008 0 .023.007.03.007.022.008.045.008.067.015.03.007.06.007.096.007.03 0 .067 0 .097-.007.007 0 .022 0 .03-.007.007 0 .014 0 .022-.008.007 0 .015-.007.03-.007.036-.008.066-.023.103-.037h.008a.33.33 0 0 1 .052-.023l.052-.03c.014-.014.037-.022.051-.036l.023-.023.022-.022.015-.015c.007-.007.015-.022.03-.03.007-.007.014-.022.022-.03a.13.13 0 0 1 .03-.036c.014-.015.022-.037.03-.052l.021-.045v-.015c0-.007.008-.014.008-.022.007-.007.007-.022.015-.03.007-.022.014-.044.014-.059.008-.022.008-.044.015-.067 0-.015 0-.03.008-.044v-.09Zm-1.143-.03a.444.444 0 0 1 .445-.386c.023 0 .037 0 .06.008a.45.45 0 0 1 .386.505.448.448 0 0 1-.446.385c-.022 0-.037 0-.06-.007a.447.447 0 0 1-.281-.156.44.44 0 0 1-.104-.349Z" fill="#000"/><path d="M27.924 17.014c0-.014 0-.03-.007-.044a36.56 36.56 0 0 1-.023-.112.108.108 0 0 0-.014-.044l-.023-.06c-.007-.014-.014-.022-.014-.037-.015-.022-.03-.051-.045-.074-.007-.007-.015-.015-.015-.022-.015-.015-.022-.03-.037-.037-.015-.015-.022-.03-.037-.037-.008-.008-.022-.015-.03-.03h-.007c-.008-.007-.015-.007-.022-.015l-.008-.007c-.007-.008-.015-.008-.022-.015-.008-.008-.015-.008-.022-.015-.023-.015-.045-.022-.067-.037 0 0-.008 0-.008-.007h-.007c-.015-.008-.022-.008-.037-.015-.008 0-.015-.008-.022-.008-.023-.007-.037-.014-.06-.014-.007 0-.014-.008-.022-.008h-.037c-.015 0-.03-.007-.044-.007h-.142c-.007 0-.014 0-.022.007h-.022c-.007 0-.015.008-.022.008-.008 0-.015 0-.015.007-.008 0-.022.007-.03.007l-.06.023c-.007 0-.014.007-.029.014-.015.008-.037.023-.052.03-.007.008-.015.008-.022.015a.223.223 0 0 0-.052.037l-.022.022-.045.045a.197.197 0 0 0-.037.044c-.015.015-.022.03-.037.052-.015.015-.022.037-.03.052-.007.015-.022.037-.03.06l-.021.059a.21.21 0 0 0-.015.06c-.008.022-.008.044-.015.066-.008.03-.008.06-.008.09v.096c0 .007 0 .022.008.03 0 .014.007.03.007.044 0 .007 0 .015.008.022v.008c0 .007.007.022.007.03 0 .007.008.014.008.022 0 .007.007.014.007.03 0 .007.007.007.007.014.008.015.015.03.023.037.007.008.007.015.014.03a.229.229 0 0 0 .037.052c.008.007.015.022.023.03l.007.007c.008.007.008.015.015.022.015.015.03.037.052.052a.158.158 0 0 0 .037.03l.008.007.007.008c.007.007.015.007.022.014.015.008.022.015.037.023.008.007.015.007.03.015.007.007.015.007.03.014a.223.223 0 0 0 .074.03c.015.008.022.008.037.015.007 0 .015.007.022.007.008 0 .015 0 .022.008.008 0 .023.007.03.007.008 0 .022.008.03.008.015 0 .03.007.044.007h.126c.015 0 .023 0 .038-.007h.007c.022-.008.037-.008.06-.015h.028a.49.49 0 0 0 .14-.067c.008-.007.016-.007.023-.015.008-.007.015-.007.022-.015.008-.007.015-.015.023-.015l.022-.022c.007-.007.022-.015.03-.03l.03-.03c.007-.006.007-.014.014-.014.008-.007.008-.015.015-.015.015-.015.022-.03.037-.052.008-.015.015-.022.022-.037l.023-.044.022-.045c.007-.015.007-.03.015-.044.007-.023.014-.045.014-.06.008-.022.008-.044.015-.067.008-.03.008-.059.008-.096-.03-.045-.03-.06-.03-.082Zm-1.142-.007a.387.387 0 0 1 .052-.156.438.438 0 0 1 .393-.23.17.17 0 0 1 .059.007.45.45 0 0 1 .386.505.448.448 0 0 1-.445.386c-.023 0-.037 0-.06-.007a.458.458 0 0 1-.356-.275c-.03-.067-.044-.148-.03-.23Z" fill="#fff"/><path d="M27.924 17.014c0-.014 0-.03-.007-.044l-.022-.112a.105.105 0 0 0-.015-.044c-.008-.022-.015-.037-.022-.06-.008-.014-.015-.022-.015-.037-.015-.022-.03-.051-.045-.074-.007-.007-.014-.015-.014-.022-.015-.015-.023-.03-.038-.037-.014-.015-.022-.03-.037-.037-.007-.008-.022-.015-.03-.03h-.007c-.007-.007-.015-.007-.022-.015l-.008-.007c-.007-.008-.014-.008-.022-.015-.007-.008-.015-.008-.022-.015-.022-.015-.044-.022-.067-.037 0 0-.007 0-.007-.007h-.008c-.014-.008-.022-.008-.037-.015-.007 0-.014-.008-.022-.008-.022-.007-.037-.014-.06-.014-.007 0-.014-.008-.021-.008h-.038c-.015 0-.03-.007-.044-.007h-.045c-.022 0-.044 0-.066.007h-.06c-.007 0-.015 0-.022.008h-.022c-.008 0-.015.007-.023.007-.007 0-.014 0-.014.007-.008 0-.023.008-.03.008-.022.007-.037.015-.06.022-.007 0-.014.007-.03.015-.014.007-.036.022-.051.03-.008.007-.015.007-.022.014a.226.226 0 0 0-.052.038l-.023.022-.044.044c-.015.015-.03.03-.037.045-.015.015-.022.03-.037.052-.015.015-.022.037-.03.052-.007.015-.022.037-.03.06l-.022.058c-.007.023-.015.045-.015.06-.007.022-.007.044-.015.067-.007.03-.007.059-.007.089v.097c0 .007 0 .021.008.029 0 .015.007.03.007.044 0 .008 0 .015.007.023v.007c0 .008.008.022.008.03 0 .007.007.015.007.022 0 .007.008.015.008.03 0 .007.007.007.007.014.008.015.015.03.022.038.008.007.008.014.015.03a.229.229 0 0 0 .037.051c.008.008.015.023.023.03l.007.007c.007.008.007.015.015.023.015.015.03.037.052.052a.163.163 0 0 0 .037.03l.007.007.008.007c.007.008.014.008.022.015.015.007.022.015.037.022.007.008.015.008.03.015.007.008.015.008.03.015a.225.225 0 0 0 .073.03c.015.007.023.007.038.014.007 0 .014.008.022.008.007 0 .015 0 .022.007.008 0 .022.008.03.008.007 0 .022.007.03.007.014 0 .03.008.044.008h.126c.015 0 .022 0 .037-.008h.008c.014 0 .03-.007.044-.007.008 0 .008 0 .015-.008h.022a.495.495 0 0 0 .141-.067c.008-.007.015-.007.022-.014.008-.008.015-.008.023-.015.007-.008.014-.015.022-.015l.022-.022c.008-.008.023-.015.03-.03.007-.015.015-.015.03-.03.007-.007.007-.014.014-.014.008-.008.008-.015.015-.015.015-.015.023-.03.037-.052.008-.015.015-.023.023-.037l.022-.045.022-.044c.008-.015.008-.03.015-.045a.227.227 0 0 0 .015-.06c.007-.022.007-.044.015-.066a.422.422 0 0 0 .007-.097c.007-.052.007-.066.007-.089Zm-1.142-.007a.39.39 0 0 1 .052-.156.438.438 0 0 1 .393-.23.18.18 0 0 1 .06.007.45.45 0 0 1 .385.505.448.448 0 0 1-.445.386c-.022 0-.037 0-.06-.007a.458.458 0 0 1-.355-.275.398.398 0 0 1-.03-.23Z" fill="#000"/></svg>