<svg width="26" height="26" viewBox="0 0 26 26" fill="none" xmlns="http://www.w3.org/2000/svg">
<path fill-rule="evenodd" clip-rule="evenodd" d="M3.25033 5.146C3.10075 5.146 2.97949 5.26725 2.97949 5.41683V20.5835C2.97949 20.7331 3.10075 20.8543 3.25033 20.8543H22.7503C22.8999 20.8543 23.0212 20.7331 23.0212 20.5835V5.41683C23.0212 5.26725 22.8999 5.146 22.7503 5.146H3.25033ZM1.35449 5.41683C1.35449 4.36979 2.20329 3.521 3.25033 3.521H22.7503C23.7974 3.521 24.6462 4.36979 24.6462 5.41683V20.5835C24.6462 21.6305 23.7974 22.4793 22.7503 22.4793H3.25033C2.20329 22.4793 1.35449 21.6305 1.35449 20.5835V5.41683Z" fill="#D88532"/>
<path fill-rule="evenodd" clip-rule="evenodd" d="M1.35449 8.6665C1.35449 8.21777 1.71826 7.854 2.16699 7.854H23.8337C24.2824 7.854 24.6462 8.21777 24.6462 8.6665C24.6462 9.11524 24.2824 9.479 23.8337 9.479H2.16699C1.71826 9.479 1.35449 9.11524 1.35449 8.6665Z" fill="#D88532"/>
<path fill-rule="evenodd" clip-rule="evenodd" d="M1.35449 13C1.35449 12.5513 1.71826 12.1875 2.16699 12.1875H23.8337C24.2824 12.1875 24.6462 12.5513 24.6462 13C24.6462 13.4487 24.2824 13.8125 23.8337 13.8125H2.16699C1.71826 13.8125 1.35449 13.4487 1.35449 13Z" fill="#D88532"/>
<path fill-rule="evenodd" clip-rule="evenodd" d="M1.35449 17.3335C1.35449 16.8848 1.71826 16.521 2.16699 16.521H23.8337C24.2824 16.521 24.6462 16.8848 24.6462 17.3335C24.6462 17.7822 24.2824 18.146 23.8337 18.146H2.16699C1.71826 18.146 1.35449 17.7822 1.35449 17.3335Z" fill="#D88532"/>
</svg>
