<svg width="26" height="26" viewBox="0 0 26 26" fill="none" xmlns="http://www.w3.org/2000/svg">
<path d="M10.295 11.8638C10.7403 11.8081 11.1464 12.124 11.202 12.5692L12.4582 22.6184C12.6591 24.2262 11.4055 25.6463 9.78529 25.6463C8.4268 25.6463 7.28091 24.6347 7.11238 23.2867L7.11237 23.2867L5.82667 13.001C5.77101 12.5558 6.08685 12.1497 6.53212 12.094C6.97739 12.0384 7.38347 12.3542 7.43912 12.7995L8.72482 23.0851C8.72482 23.0851 8.72482 23.0851 8.72482 23.0851C8.7917 23.62 9.24633 24.0213 9.78529 24.0213C10.428 24.0213 10.9254 23.4579 10.8457 22.82L9.58958 12.7708C9.53392 12.3255 9.84976 11.9194 10.295 11.8638Z" fill="#D88532"/>
<path d="M1.35449 8.04199C1.35449 4.90087 3.90087 2.35449 7.04199 2.35449C7.08105 2.35449 7.12006 2.35731 7.15871 2.36292L23.9504 4.80042C24.3498 4.85841 24.6462 5.20085 24.6462 5.60449V10.4795C24.6462 10.8778 24.3575 11.2173 23.9644 11.2814L10.5273 13.4718C10.5146 13.4739 10.5018 13.4756 10.489 13.4771C9.15234 13.6302 7.94438 13.7295 7.04199 13.7295C6.88205 13.7295 6.72349 13.7229 6.56653 13.7099C3.64751 13.4678 1.35449 11.0231 1.35449 8.04199ZM6.98594 3.97987C4.76812 4.00986 2.97949 5.81705 2.97949 8.04199C2.97949 10.1706 4.61718 11.9176 6.70073 12.0904M6.70073 12.0904C6.81307 12.0997 6.9269 12.1045 7.04199 12.1045C7.84521 12.1045 8.97183 12.0149 10.2849 11.8649L23.0212 9.78871V6.30756L6.98594 3.97987" fill="#D88532"/>
<path d="M20.042 4.62988C20.4907 4.62988 20.8545 4.99365 20.8545 5.44238V10.6418C20.8545 11.0905 20.4907 11.4543 20.042 11.4543C19.5933 11.4543 19.2295 11.0905 19.2295 10.6418V5.44238C19.2295 4.99365 19.5933 4.62988 20.042 4.62988Z" fill="#D88532"/>
<path d="M24.6349 10.3489C24.7071 10.7918 24.4066 11.2093 23.9637 11.2815L17.2451 12.3767C16.8022 12.4489 16.3847 12.1484 16.3125 11.7055C16.2403 11.2626 16.5408 10.8451 16.9837 10.7729L23.7022 9.6777C24.1451 9.60551 24.5627 9.90601 24.6349 10.3489Z" fill="#D88532"/>
<path d="M14.6335 4.26913C14.698 3.82505 15.1102 3.51731 15.5543 3.58178L23.9502 4.80053C24.3942 4.86499 24.702 5.27724 24.6375 5.72132C24.573 6.1654 24.1608 6.47313 23.7167 6.40867L15.3209 5.18992C14.8768 5.12546 14.5691 4.71321 14.6335 4.26913Z" fill="#D88532"/>
<path d="M7.04199 6.229C6.59324 6.229 6.22949 6.59275 6.22949 7.0415C6.22949 7.49026 6.59324 7.854 7.04199 7.854C7.49075 7.854 7.85449 7.49026 7.85449 7.0415C7.85449 6.59275 7.49075 6.229 7.04199 6.229ZM4.60449 7.0415C4.60449 5.69529 5.69577 4.604 7.04199 4.604C8.38821 4.604 9.47949 5.69529 9.47949 7.0415C9.47949 8.38772 8.38821 9.479 7.04199 9.479C5.69577 9.479 4.60449 8.38772 4.60449 7.0415Z" fill="#D88532"/>
</svg>
