<svg width="26" height="26" viewBox="0 0 26 26" fill="none" xmlns="http://www.w3.org/2000/svg">
<path fill-rule="evenodd" clip-rule="evenodd" d="M23.2748 10.8628C17.8207 5.69403 9.4232 5.42197 3.66001 10.0475C3.34033 10.3041 3.02863 10.5758 2.72589 10.8628C2.40018 11.1714 1.88592 11.1576 1.57725 10.8319C1.26858 10.5062 1.2824 9.99194 1.6081 9.68327C1.94322 9.36568 2.28848 9.06466 2.64283 8.78025L2.64285 8.78023C9.03432 3.6504 18.3439 3.9511 24.3925 9.68327C24.7183 9.99194 24.7321 10.5062 24.4234 10.8319C24.1147 11.1576 23.6005 11.1714 23.2748 10.8628Z" fill="#D88532"/>
<path fill-rule="evenodd" clip-rule="evenodd" d="M4.84247 13.4001C9.34794 8.89463 16.6527 8.89463 21.1582 13.4001C21.4755 13.7174 21.4755 14.2318 21.1582 14.5491C20.8409 14.8664 20.3264 14.8664 20.0091 14.5491C16.1383 10.6783 9.86238 10.6783 5.99152 14.5491C5.67422 14.8664 5.15977 14.8664 4.84247 14.5491C4.52517 14.2318 4.52517 13.7174 4.84247 13.4001Z" fill="#D88532"/>
<path fill-rule="evenodd" clip-rule="evenodd" d="M8.09247 16.9289C10.803 14.2184 15.1976 14.2184 17.9082 16.9289C18.2255 17.2462 18.2255 17.7607 17.9082 18.078C17.5909 18.3953 17.0764 18.3953 16.7591 18.078C14.6832 16.002 11.3175 16.002 9.24152 18.078C8.92422 18.3953 8.40977 18.3953 8.09247 18.078C7.77517 17.7607 7.77517 17.2462 8.09247 16.9289Z" fill="#D88532"/>
<path fill-rule="evenodd" clip-rule="evenodd" d="M12.9997 21.6668C13.7476 21.6668 14.3538 21.0605 14.3538 20.3127C14.3538 19.5648 13.7476 18.9585 12.9997 18.9585C12.2518 18.9585 11.6455 19.5648 11.6455 20.3127C11.6455 21.0605 12.2518 21.6668 12.9997 21.6668Z" fill="#D88532"/>
</svg>
