<svg width="26" height="26" viewBox="0 0 26 26" fill="none" xmlns="http://www.w3.org/2000/svg">
<path fill-rule="evenodd" clip-rule="evenodd" d="M3.25033 5.146C3.10075 5.146 2.97949 5.26725 2.97949 5.41683V18.4168C2.97949 18.5664 3.10075 18.6877 3.25033 18.6877H22.7503C22.8999 18.6877 23.0212 18.5664 23.0212 18.4168V5.41683C23.0212 5.26725 22.8999 5.146 22.7503 5.146H3.25033ZM1.35449 5.41683C1.35449 4.36979 2.20329 3.521 3.25033 3.521H22.7503C23.7974 3.521 24.6462 4.36979 24.6462 5.41683V18.4168C24.6462 19.4639 23.7974 20.3127 22.7503 20.3127H3.25033C2.20329 20.3127 1.35449 19.4639 1.35449 18.4168V5.41683Z" fill="#D88532"/>
<path fill-rule="evenodd" clip-rule="evenodd" d="M7.3125 9.479V14.354H14.3542V9.479H7.3125ZM5.6875 9.20817C5.6875 8.46028 6.29378 7.854 7.04167 7.854H14.625C15.3729 7.854 15.9792 8.46028 15.9792 9.20817V14.6248C15.9792 15.3727 15.3729 15.979 14.625 15.979H7.04167C6.29378 15.979 5.6875 15.3727 5.6875 14.6248V9.20817Z" fill="#D88532"/>
<path d="M20.0413 9.20817C20.6396 9.20817 21.1247 8.72315 21.1247 8.12484C21.1247 7.52653 20.6396 7.0415 20.0413 7.0415C19.443 7.0415 18.958 7.52653 18.958 8.12484C18.958 8.72315 19.443 9.20817 20.0413 9.20817Z" fill="#D88532"/>
<path fill-rule="evenodd" clip-rule="evenodd" d="M18.6875 11.9165C18.6875 11.4678 19.0513 11.104 19.5 11.104H20.5833C21.0321 11.104 21.3958 11.4678 21.3958 11.9165C21.3958 12.3652 21.0321 12.729 20.5833 12.729H19.5C19.0513 12.729 18.6875 12.3652 18.6875 11.9165Z" fill="#D88532"/>
<path fill-rule="evenodd" clip-rule="evenodd" d="M18.6875 15.7085C18.6875 15.2598 19.0513 14.896 19.5 14.896H20.5833C21.0321 14.896 21.3958 15.2598 21.3958 15.7085C21.3958 16.1572 21.0321 16.521 20.5833 16.521H19.5C19.0513 16.521 18.6875 16.1572 18.6875 15.7085Z" fill="#D88532"/>
<path fill-rule="evenodd" clip-rule="evenodd" d="M6.5 18.6875C6.94873 18.6875 7.3125 19.0513 7.3125 19.5V22.75C7.3125 23.1987 6.94873 23.5625 6.5 23.5625C6.05127 23.5625 5.6875 23.1987 5.6875 22.75V19.5C5.6875 19.0513 6.05127 18.6875 6.5 18.6875Z" fill="#D88532"/>
<path fill-rule="evenodd" clip-rule="evenodd" d="M19.5 18.6875C19.9487 18.6875 20.3125 19.0513 20.3125 19.5V22.75C20.3125 23.1987 19.9487 23.5625 19.5 23.5625C19.0513 23.5625 18.6875 23.1987 18.6875 22.75V19.5C18.6875 19.0513 19.0513 18.6875 19.5 18.6875Z" fill="#D88532"/>
</svg>
