<svg width="26" height="26" viewBox="0 0 26 26" fill="none" xmlns="http://www.w3.org/2000/svg">
<path fill-rule="evenodd" clip-rule="evenodd" d="M1.35449 7.58333C1.35449 6.53627 2.20329 5.6875 3.25033 5.6875H22.7503C23.7974 5.6875 24.6462 6.53628 24.6462 7.58333V21.6667C24.6462 22.7137 23.7974 23.5625 22.7503 23.5625H3.25033C2.20329 23.5625 1.35449 22.7137 1.35449 21.6667V7.58333ZM3.25033 7.3125C3.10074 7.3125 2.97949 7.43375 2.97949 7.58333V21.6667C2.97949 21.8163 3.10074 21.9375 3.25033 21.9375H22.7503C22.8999 21.9375 23.0212 21.8163 23.0212 21.6667V7.58333C23.0212 7.43374 22.8999 7.3125 22.7503 7.3125H3.25033Z" fill="#D88532"/>
<path fill-rule="evenodd" clip-rule="evenodd" d="M5.14551 10.2915C5.14551 9.84277 5.50928 9.479 5.95801 9.479H16.7913C17.2401 9.479 17.6038 9.84277 17.6038 10.2915V18.9582C17.6038 19.4069 17.2401 19.7707 16.7913 19.7707H5.95801C5.50928 19.7707 5.14551 19.4069 5.14551 18.9582V10.2915ZM6.77051 11.104V18.1457H15.9788V11.104H6.77051Z" fill="#D88532"/>
<path fill-rule="evenodd" clip-rule="evenodd" d="M19.0153 0.534475C19.3185 0.865259 19.2962 1.37922 18.9654 1.68244L13.0563 7.0991C12.7576 7.37292 12.3028 7.38478 11.9902 7.12691L7.06597 3.06441C6.71983 2.77884 6.67072 2.26675 6.95629 1.92061C7.24185 1.57447 7.75395 1.52536 8.10009 1.81093L12.4792 5.42369L17.8673 0.484563C18.1981 0.181344 18.7121 0.203691 19.0153 0.534475Z" fill="#D88532"/>
<path fill-rule="evenodd" clip-rule="evenodd" d="M20.583 8.9375C21.0317 8.9375 21.3955 9.30127 21.3955 9.75V10.2917C21.3955 10.7404 21.0317 11.1042 20.583 11.1042C20.1343 11.1042 19.7705 10.7404 19.7705 10.2917V9.75C19.7705 9.30127 20.1343 8.9375 20.583 8.9375Z" fill="#D88532"/>
<path fill-rule="evenodd" clip-rule="evenodd" d="M20.583 12.729C21.0317 12.729 21.3955 13.0928 21.3955 13.5415V14.0832C21.3955 14.5319 21.0317 14.8957 20.583 14.8957C20.1343 14.8957 19.7705 14.5319 19.7705 14.0832V13.5415C19.7705 13.0928 20.1343 12.729 20.583 12.729Z" fill="#D88532"/>
</svg>
