<svg width="24" height="24" viewBox="0 0 24 24" fill="none" xmlns="http://www.w3.org/2000/svg">
<path fill-rule="evenodd" clip-rule="evenodd" d="M0 11.6061C0 5.19622 5.19622 0 11.6061 0C18.016 0 23.2122 5.19622 23.2122 11.6061C23.2122 18.016 18.016 23.2122 11.6061 23.2122C5.19622 23.2122 0 18.016 0 11.6061ZM11.6061 1.61945C6.09062 1.61945 1.61945 6.09062 1.61945 11.6061C1.61945 17.1216 6.09062 21.5927 11.6061 21.5927C17.1216 21.5927 21.5927 17.1216 21.5927 11.6061C21.5927 6.09062 17.1216 1.61945 11.6061 1.61945Z" fill="#D88532"/>
<path fill-rule="evenodd" clip-rule="evenodd" d="M6.96875 18.9549L16.2424 18.9922L11.6282 5.15576L6.96875 18.9549ZM11.6185 10.314L9.25186 17.323L13.9622 17.3419L11.6185 10.314Z" fill="#D88532"/>
<path d="M13.2726 5.31208C13.2726 6.23277 12.5262 6.97914 11.6055 6.97914C10.6848 6.97914 9.93848 6.23277 9.93848 5.31208C9.93848 4.39139 10.6848 3.64502 11.6055 3.64502C12.5262 3.64502 13.2726 4.39139 13.2726 5.31208Z" fill="#D88532"/>
<path fill-rule="evenodd" clip-rule="evenodd" d="M14.6182 17.9409L8.68652 15.2827L9.35763 13.7852L15.2893 16.4433L14.6182 17.9409Z" fill="#D88532"/>
<path fill-rule="evenodd" clip-rule="evenodd" d="M13.6899 13.8753L9.7002 12.0873L10.1516 11.0801L14.1413 12.868L13.6899 13.8753Z" fill="#D88532"/>
<path fill-rule="evenodd" clip-rule="evenodd" d="M19.8466 4.84656L3.86188 19.7163L2.74414 18.5148L18.7289 3.64502L19.8466 4.84656Z" fill="#D88532"/>
</svg>
