<svg width="26" height="26" viewBox="0 0 26 26" fill="none" xmlns="http://www.w3.org/2000/svg">
<path d="M11.368 18.7156L11.7622 18.0776L11.7621 18.0776L11.368 18.7156ZM6.49995 15.7082V14.9582C6.16464 14.9582 5.87007 15.1807 5.77847 15.5033C5.68687 15.8258 5.8205 16.17 6.10576 16.3462L6.49995 15.7082ZM17.9667 16.7332C17.6353 16.9817 17.5681 17.4518 17.8167 17.7832C18.0652 18.1145 18.5353 18.1817 18.8667 17.9332L17.9667 16.7332ZM17.6309 8.6665L18.228 8.21266C18.0861 8.02607 17.8652 7.9165 17.6309 7.9165V8.6665ZM9.85127 10.7237C9.49163 10.5181 9.03349 10.6431 8.82798 11.0027C8.62248 11.3624 8.74742 11.8205 9.10706 12.026L9.85127 10.7237ZM10.2479 8.59337C10.5067 8.91681 10.9786 8.96924 11.3021 8.71048C11.6255 8.45172 11.678 7.97975 11.4192 7.65631L10.2479 8.59337ZM4.33355 4.36676L4.284 5.11512L4.284 5.11512L4.33355 4.36676ZM2.5 15.1665C2.5 15.5807 2.83579 15.9165 3.25 15.9165C3.66421 15.9165 4 15.5807 4 15.1665H2.5ZM3.79161 22.5415C3.3774 22.5415 3.04161 22.8773 3.04161 23.2915C3.04161 23.7057 3.3774 24.0415 3.79161 24.0415V22.5415ZM22.7499 24.0415C23.1642 24.0415 23.4999 23.7057 23.4999 23.2915C23.4999 22.8773 23.1642 22.5415 22.7499 22.5415V24.0415ZM11.7621 18.0776L6.89413 15.0701L6.10576 16.3462L10.9738 19.3537L11.7621 18.0776ZM6.49995 16.4582H21.1249V14.9582H6.49995V16.4582ZM21.1249 16.4582C21.6082 16.4582 21.9999 16.8499 21.9999 17.3332H23.4999C23.4999 16.0215 22.4366 14.9582 21.1249 14.9582V16.4582ZM21.9999 17.3332C21.9999 17.8164 21.6082 18.2082 21.1249 18.2082V19.7082C22.4366 19.7082 23.4999 18.6449 23.4999 17.3332H21.9999ZM21.1249 18.2082H12.2221V19.7082H21.1249V18.2082ZM12.2221 18.2082C12.0596 18.2082 11.9004 18.163 11.7622 18.0776L10.9737 19.3537C11.3489 19.5855 11.7811 19.7082 12.2221 19.7082V18.2082ZM16.2499 6.70817C17.2625 6.70817 18.0833 5.88738 18.0833 4.87484H16.5833C16.5833 5.05895 16.4341 5.20817 16.2499 5.20817V6.70817ZM18.0833 4.87484C18.0833 3.86232 17.2625 3.0415 16.2499 3.0415V4.5415C16.4341 4.5415 16.5833 4.69073 16.5833 4.87484H18.0833ZM16.2499 3.0415C15.2374 3.0415 14.4166 3.86232 14.4166 4.87484H15.9166C15.9166 4.69073 16.0658 4.5415 16.2499 4.5415V3.0415ZM14.4166 4.87484C14.4166 5.88738 15.2374 6.70817 16.2499 6.70817V5.20817C16.0658 5.20817 15.9166 5.05895 15.9166 4.87484H14.4166ZM18.8667 17.9332C20.2192 16.9187 20.5885 15.3384 20.5885 14.002C20.5885 12.6679 20.2253 11.3974 19.8953 10.7595L18.563 11.4485C18.7747 11.8579 19.0885 12.8895 19.0885 14.002C19.0885 15.112 18.7807 16.1226 17.9667 16.7332L18.8667 17.9332ZM19.8953 10.7595C19.6015 10.1913 19.1793 9.54972 18.8432 9.06504C18.6727 8.81933 18.5198 8.60741 18.4093 8.45669C18.354 8.38125 18.3092 8.32094 18.278 8.27917C18.2624 8.25828 18.2501 8.24201 18.2417 8.23079C18.2374 8.22517 18.2342 8.22082 18.2319 8.21778C18.2307 8.21626 18.2298 8.21507 18.2292 8.21422C18.2288 8.21379 18.2286 8.21344 18.2284 8.21318C18.2283 8.21305 18.2282 8.21294 18.2281 8.21286C18.2281 8.21281 18.228 8.21276 18.228 8.21274C18.228 8.2127 18.228 8.21266 17.6309 8.6665C17.0338 9.12035 17.0338 9.12032 17.0337 9.1203C17.0337 9.1203 17.0337 9.12028 17.0337 9.12028C17.0337 9.12028 17.0337 9.12029 17.0338 9.12033C17.0338 9.12041 17.0339 9.12057 17.0341 9.12082C17.0345 9.1213 17.0351 9.12212 17.036 9.12326C17.0377 9.12555 17.0404 9.12913 17.0441 9.13396C17.0513 9.14361 17.0623 9.15823 17.0767 9.17739C17.1053 9.21573 17.1473 9.27221 17.1995 9.34347C17.3041 9.48613 17.4492 9.6872 17.6106 9.91995C17.9382 10.3922 18.3151 10.9693 18.563 11.4485L19.8953 10.7595ZM17.6309 8.6665C17.6309 7.9165 17.6305 7.9165 17.6302 7.9165C17.63 7.9165 17.6297 7.9165 17.6294 7.91651C17.629 7.91651 17.6285 7.91651 17.628 7.91651C17.627 7.91651 17.6259 7.91652 17.6248 7.91653C17.6227 7.91654 17.6203 7.91657 17.6179 7.91661C17.6129 7.91668 17.6074 7.9168 17.6013 7.91699C17.589 7.91737 17.5745 7.91801 17.5577 7.91908C17.5242 7.92122 17.4818 7.92506 17.4318 7.93191C17.3319 7.94559 17.2004 7.97147 17.0486 8.02046C16.7429 8.11913 16.3573 8.31107 15.9905 8.67784L17.0512 9.7385C17.2261 9.5636 17.3955 9.48471 17.5093 9.44796C17.5673 9.42925 17.6118 9.42127 17.6354 9.41802C17.6472 9.41641 17.6534 9.41602 17.6531 9.41604C17.6529 9.41605 17.6511 9.41617 17.6474 9.41628C17.6456 9.41634 17.6433 9.41639 17.6406 9.41643C17.6392 9.41646 17.6377 9.41647 17.6361 9.41648C17.6353 9.41649 17.6344 9.4165 17.6336 9.4165C17.6331 9.4165 17.6327 9.4165 17.6322 9.4165C17.632 9.4165 17.6317 9.4165 17.6316 9.4165C17.6312 9.4165 17.6309 9.4165 17.6309 8.6665ZM15.9905 8.67784C15.6051 9.06328 15.2549 9.46739 14.9359 9.84156C14.6101 10.2238 14.3255 10.5643 14.044 10.8617C13.4541 11.4851 13.0638 11.7082 12.7292 11.7082V13.2082C13.7487 13.2082 14.5288 12.5317 15.1335 11.8928C15.4493 11.5591 15.7679 11.1778 16.0775 10.8146C16.3939 10.4434 16.7111 10.0785 17.0512 9.7385L15.9905 8.67784ZM12.7292 11.7082C12.211 11.7082 11.5155 11.4898 10.8874 11.2253C10.5867 11.0986 10.3244 10.9715 10.1376 10.8762C10.0445 10.8286 9.97093 10.7893 9.92151 10.7625C9.89683 10.7491 9.87823 10.7388 9.86631 10.7321C9.86036 10.7288 9.85607 10.7264 9.85354 10.7249C9.85228 10.7242 9.85145 10.7238 9.85107 10.7235C9.85087 10.7234 9.8508 10.7234 9.85083 10.7234C9.85085 10.7234 9.85089 10.7234 9.85096 10.7235C9.851 10.7235 9.85108 10.7235 9.8511 10.7236C9.85118 10.7236 9.85127 10.7237 9.47917 11.3748C9.10706 12.026 9.10717 12.0261 9.10728 12.0261C9.10733 12.0262 9.10745 12.0262 9.10754 12.0263C9.10773 12.0264 9.10795 12.0265 9.1082 12.0267C9.10869 12.0269 9.1093 12.0273 9.11003 12.0277C9.11148 12.0285 9.11339 12.0296 9.11575 12.031C9.12047 12.0336 9.127 12.0373 9.13526 12.0419C9.15178 12.0511 9.17524 12.0641 9.20503 12.0803C9.26458 12.1127 9.34967 12.158 9.45547 12.2121C9.66647 12.3198 9.96282 12.4635 10.3053 12.6077C10.9636 12.8849 11.8932 13.2082 12.7292 13.2082V11.7082ZM11.4192 7.65631C10.4269 6.41593 9.49697 5.44576 8.38361 4.76756C7.25583 4.08059 5.99382 3.72505 4.3831 3.6184L4.284 5.11512C5.71458 5.20984 6.72843 5.51571 7.60327 6.04861C8.49251 6.59028 9.29196 7.39846 10.2479 8.59337L11.4192 7.65631ZM4.3831 3.6184C3.31925 3.54795 2.5 4.4194 2.5 5.4165H4C4 5.21698 4.15385 5.1065 4.284 5.11512L4.3831 3.6184ZM2.5 5.4165V15.1665H4V5.4165H2.5ZM3.79161 24.0415C4.39423 24.0415 4.85704 23.9664 5.23868 23.8263C5.62883 23.6831 5.88688 23.4884 6.07915 23.3326C6.27963 23.1702 6.34858 23.1082 6.46124 23.0545C6.5528 23.0109 6.71284 22.9582 7.04161 22.9582V21.4582C6.54096 21.4582 6.15087 21.5409 5.81608 21.7004C5.50239 21.8498 5.26876 22.0587 5.13493 22.1671C4.9929 22.2821 4.8849 22.3583 4.72174 22.4182C4.55008 22.4812 4.27233 22.5415 3.79161 22.5415V24.0415ZM7.04161 22.9582C7.37207 22.9582 7.52914 23.0115 7.61246 23.052C7.70847 23.0986 7.77218 23.1555 7.94017 23.3069C8.10199 23.4528 8.33611 23.6595 8.69498 23.8123C9.05065 23.9637 9.476 24.0415 10.0208 24.0415V22.5415C9.61764 22.5415 9.40399 22.4839 9.28253 22.4322C9.16427 22.3818 9.08312 22.3177 8.94449 22.1928C8.81202 22.0733 8.59009 21.8594 8.26821 21.7029C7.93364 21.5403 7.54059 21.4582 7.04161 21.4582V22.9582ZM10.0208 24.0415C10.5672 24.0415 10.991 23.9632 11.3486 23.8152C11.7033 23.6685 11.9467 23.4696 12.1143 23.3355C12.2852 23.1988 12.3804 23.1268 12.5165 23.0705C12.6498 23.0153 12.8693 22.9582 13.2708 22.9582V21.4582C12.7243 21.4582 12.3006 21.5365 11.943 21.6844C11.5883 21.8312 11.3449 22.0301 11.1773 22.1642C11.0063 22.3009 10.9112 22.3729 10.775 22.4292C10.6417 22.4844 10.4223 22.5415 10.0208 22.5415V24.0415ZM13.2708 22.9582C13.671 22.9582 13.9134 23.0149 14.0758 23.0774C14.2404 23.1408 14.3643 23.2246 14.5402 23.354C14.7078 23.4772 14.9546 23.6687 15.2815 23.8104C15.6232 23.9585 16.0189 24.0415 16.5208 24.0415V22.5415C16.1932 22.5415 16.005 22.4891 15.878 22.4341C15.7362 22.3726 15.6297 22.2933 15.4291 22.1457C15.2368 22.0043 14.9777 21.8172 14.6144 21.6775C14.249 21.5368 13.8185 21.4582 13.2708 21.4582V22.9582ZM16.5208 24.0415C17.0142 24.0415 17.4098 23.9613 17.7403 23.7785C18.0628 23.6 18.2573 23.3522 18.3549 23.2387C18.4565 23.1204 18.4962 23.0858 18.562 23.0545C18.64 23.0174 18.821 22.9582 19.2291 22.9582V21.4582C18.6893 21.4582 18.2652 21.5344 17.9168 21.7004C17.5562 21.8722 17.3484 22.1084 17.2173 22.261C17.0821 22.4183 17.0587 22.4413 17.0141 22.466C16.9774 22.4863 16.8568 22.5415 16.5208 22.5415V24.0415ZM19.2291 22.9582C19.6291 22.9582 19.8541 23.0149 19.9991 23.0732C20.1528 23.1351 20.2608 23.2135 20.4628 23.3587C20.6615 23.5017 20.9274 23.6891 21.3125 23.8278C21.695 23.9657 22.153 24.0415 22.7499 24.0415V22.5415C22.2805 22.5415 22.0021 22.4819 21.8208 22.4166C21.642 22.3522 21.5164 22.2688 21.3385 22.1409C21.1639 22.0154 20.9101 21.8229 20.5592 21.6817C20.1995 21.5369 19.777 21.4582 19.2291 21.4582V22.9582Z" fill="#D88532"/>
</svg>
