<svg width="26" height="26" viewBox="0 0 26 26" fill="none" xmlns="http://www.w3.org/2000/svg">
<path fill-rule="evenodd" clip-rule="evenodd" d="M2.58316 9.53404C3.97674 5.20806 8.0572 1.35449 12.9997 1.35449C17.9395 1.35449 22.0181 5.20452 23.4138 9.52666C23.418 9.53975 23.4449 9.60672 23.6339 9.75616C23.7247 9.82793 23.8295 9.90129 23.9626 9.99348L23.9837 10.0081C24.1057 10.0925 24.2485 10.1914 24.3903 10.2996C24.6929 10.5306 25.0363 10.837 25.2995 11.2696C25.5692 11.713 25.7288 12.2459 25.7288 12.892C25.7288 13.5363 25.5711 14.0661 25.2979 14.5036C25.0311 14.9308 24.6833 15.2227 24.3805 15.4373C24.2376 15.5386 24.0944 15.6296 23.9741 15.706L23.9565 15.7173C23.8253 15.8006 23.7256 15.8647 23.6402 15.9274C23.5077 16.0247 23.474 16.074 23.4682 16.0839C22.1244 20.4968 18.0024 24.4295 12.9997 24.4295C8.01557 24.4295 3.90648 20.5213 2.54699 16.1355C2.54277 16.1269 2.51174 16.0747 2.36566 15.9667C2.27899 15.9026 2.17816 15.8373 2.04595 15.7524L2.03089 15.7427C1.90905 15.6645 1.7639 15.5714 1.61912 15.4675C1.31438 15.2489 0.966318 14.9526 0.69986 14.5201C0.427369 14.0778 0.270508 13.5429 0.270508 12.892C0.270508 12.24 0.428647 11.703 0.698915 11.2568C0.96305 10.8207 1.30826 10.5149 1.61283 10.2857C1.75698 10.1772 1.90186 10.0789 2.02487 9.99536L2.04203 9.98371C2.17549 9.89307 2.27968 9.82166 2.36991 9.75161C2.55728 9.60616 2.58028 9.54295 2.58316 9.53404ZM12.9997 2.97949C8.92286 2.97949 5.36065 6.21173 4.12988 10.0323C3.97497 10.5132 3.63489 10.8268 3.36639 11.0352C3.22869 11.1421 3.08175 11.2419 2.95495 11.328L2.94906 11.332C2.81781 11.4212 2.70191 11.4999 2.59002 11.5841C2.36566 11.7529 2.20166 11.9124 2.08882 12.0987C1.98211 12.2748 1.89551 12.5174 1.89551 12.892C1.89551 13.2679 1.98187 13.503 2.0834 13.6678C2.19097 13.8424 2.34773 13.9903 2.56618 14.147C2.67642 14.2261 2.79081 14.2995 2.92187 14.3837L2.92617 14.3864C3.05019 14.466 3.19567 14.5594 3.3319 14.6602C3.59886 14.8576 3.94752 15.1651 4.09884 15.6534C5.2983 19.5243 8.88613 22.8045 12.9997 22.8045C17.1303 22.8045 20.7301 19.5017 21.9147 15.6075C22.0634 15.1183 22.4136 14.812 22.6785 14.6175C22.815 14.5173 22.9608 14.4247 23.0847 14.3459L23.0909 14.342C23.2197 14.2601 23.3322 14.1886 23.4408 14.1116C23.6586 13.9572 23.8137 13.8124 23.9196 13.6428C24.019 13.4836 24.1038 13.2567 24.1038 12.892C24.1038 12.5291 24.0186 12.2908 23.9112 12.1142C23.7972 11.9267 23.6311 11.7644 23.4044 11.5914C23.2933 11.5066 23.1786 11.4272 23.0494 11.3377L23.0374 11.3294C22.91 11.2412 22.7634 11.1395 22.626 11.0308C22.3586 10.8194 22.0217 10.5037 21.8675 10.026C20.6347 6.20865 17.0742 2.97949 12.9997 2.97949Z" fill="#D88532"/>
<path fill-rule="evenodd" clip-rule="evenodd" d="M12.1875 2.16699C12.1875 1.71826 12.5513 1.35449 13 1.35449C17.9398 1.35449 22.0184 5.20452 23.4141 9.52666C23.552 9.95368 23.3177 10.4116 22.8906 10.5495C22.4636 10.6874 22.0057 10.453 21.8678 10.026C20.635 6.20865 17.0745 2.97949 13 2.97949C12.5513 2.97949 12.1875 2.61572 12.1875 2.16699Z" fill="#D88532"/>
<path d="M10.3456 11.7003C10.3456 12.1478 10.2241 12.5408 10.042 12.814C9.85867 13.089 9.63507 13.2169 9.42474 13.2169C9.21441 13.2169 8.99081 13.089 8.80746 12.814C8.62535 12.5408 8.50391 12.1478 8.50391 11.7003C8.50391 11.2526 8.62535 10.8597 8.80746 10.5865C8.99081 10.3115 9.21441 10.1836 9.42474 10.1836C9.63507 10.1836 9.85867 10.3115 10.042 10.5865C10.2241 10.8597 10.3456 11.2526 10.3456 11.7003Z" fill="#D88532"/>
<path fill-rule="evenodd" clip-rule="evenodd" d="M9.42507 10.4538C9.33266 10.4538 9.18362 10.5104 9.03314 10.7361L9.03313 10.7361C8.88454 10.959 8.77507 11.298 8.77507 11.6996C8.77507 12.1011 8.88455 12.4402 9.03313 12.6631L9.03314 12.6631C9.18362 12.8889 9.33266 12.9454 9.42507 12.9454C9.51747 12.9454 9.66651 12.8889 9.817 12.6631L9.817 12.6631C9.96558 12.4402 10.0751 12.1011 10.0751 11.6996C10.0751 11.298 9.96559 10.959 9.817 10.7361L9.817 10.7361C9.66651 10.5104 9.51747 10.4538 9.42507 10.4538ZM8.58243 10.4357C8.79866 10.1113 9.09681 9.91211 9.42507 9.91211C9.75332 9.91211 10.0515 10.1113 10.2677 10.4357M8.58243 10.4357C8.3668 10.7591 8.2334 11.2059 8.2334 11.6996C8.2334 12.1932 8.3668 12.6401 8.58243 12.9636M10.2677 12.9636C10.2677 12.9636 10.2677 12.9636 10.2677 12.9636L10.0423 12.8133L10.2677 12.9636ZM10.2677 12.9636C10.4833 12.6401 10.6167 12.1932 10.6167 11.6996C10.6167 11.2059 10.4833 10.7591 10.2677 10.4357" fill="#D88532"/>
<path d="M17.496 11.7003C17.496 12.1478 17.3745 12.5408 17.1924 12.814C17.0091 13.089 16.7855 13.2169 16.5751 13.2169C16.3648 13.2169 16.1412 13.089 15.9578 12.814C15.7757 12.5408 15.6543 12.1478 15.6543 11.7003C15.6543 11.2526 15.7757 10.8597 15.9578 10.5865C16.1412 10.3115 16.3648 10.1836 16.5751 10.1836C16.7855 10.1836 17.0091 10.3115 17.1924 10.5865C17.3745 10.8597 17.496 11.2526 17.496 11.7003Z" fill="#D88532"/>
<path fill-rule="evenodd" clip-rule="evenodd" d="M16.5745 10.4538C16.4821 10.4538 16.333 10.5104 16.1825 10.7361L16.1825 10.7361C16.034 10.959 15.9245 11.298 15.9245 11.6996C15.9245 12.1011 16.034 12.4402 16.1825 12.6631L16.1825 12.6631C16.333 12.8889 16.4821 12.9454 16.5745 12.9454C16.6669 12.9454 16.8159 12.8889 16.9664 12.6631L16.9664 12.6631C17.115 12.4402 17.2245 12.1011 17.2245 11.6996C17.2245 11.298 17.115 10.959 16.9664 10.7361L16.9664 10.7361C16.8159 10.5104 16.6669 10.4538 16.5745 10.4538ZM15.7318 10.4357C15.9481 10.1113 16.2462 9.91211 16.5745 9.91211C16.9027 9.91211 17.2009 10.1113 17.4171 10.4357M15.7318 10.4357C15.5162 10.7591 15.3828 11.2059 15.3828 11.6996C15.3828 12.1932 15.5162 12.6401 15.7318 12.9636M17.4171 12.9636C17.4171 12.9636 17.4171 12.9636 17.4171 12.9636L17.1918 12.8133L17.4171 12.9636ZM17.4171 12.9636C17.6327 12.6401 17.7661 12.1932 17.7661 11.6996C17.7661 11.2059 17.6327 10.7591 17.4171 10.4357" fill="#D88532"/>
<path fill-rule="evenodd" clip-rule="evenodd" d="M10.0195 17.1982C11.0654 17.9022 12.0605 18.2542 13.0049 18.2542C13.9482 18.2542 14.8835 17.903 15.8107 17.2005" fill="#D88532"/>
<path fill-rule="evenodd" clip-rule="evenodd" d="M9.34558 16.7446C9.59615 16.3724 10.1011 16.2737 10.4733 16.5243C11.4292 17.1677 12.2682 17.4418 13.005 17.4418C13.7331 17.4418 14.5005 17.1739 15.3201 16.553C15.6778 16.282 16.1874 16.3523 16.4584 16.7099C16.7294 17.0676 16.6591 17.5772 16.3014 17.8482C15.2666 18.6322 14.1634 19.0668 13.005 19.0668C11.853 19.0668 10.7019 18.637 9.56592 17.8724C9.19366 17.6218 9.09501 17.1169 9.34558 16.7446Z" fill="#D88532"/>
<path fill-rule="evenodd" clip-rule="evenodd" d="M17.0743 2.5537C17.5188 2.49207 17.9291 2.80242 17.9907 3.2469C18.0779 3.87553 18.0342 4.48207 17.8051 5.03089C17.5727 5.58778 17.1741 6.02546 16.6541 6.34603L16.654 6.34605C15.6636 6.95647 14.1917 7.17707 12.3923 7.14612C11.9436 7.1384 11.5862 6.76843 11.5939 6.31976C11.6016 5.8711 11.9716 5.51364 12.4202 5.52136C14.148 5.55107 15.2237 5.31874 15.8014 4.96273M17.0743 2.5537C16.6298 2.61533 16.3195 3.02561 16.3811 3.47009L17.0743 2.5537ZM16.3811 3.47009C16.4392 3.88877 16.3958 4.18853 16.3055 4.405L16.3811 3.47009ZM16.3055 4.405C16.2185 4.61339 16.0654 4.79998 15.8014 4.9627L16.3055 4.405Z" fill="#D88532"/>
</svg>
