<svg width="26" height="26" viewBox="0 0 26 26" fill="none" xmlns="http://www.w3.org/2000/svg">
<path fill-rule="evenodd" clip-rule="evenodd" d="M12.4255 1.59198C12.7428 1.27468 13.2572 1.27468 13.5745 1.59198L17.9079 5.92531C18.0925 6.10999 18.1772 6.37219 18.1353 6.62999C18.0935 6.88779 17.9303 7.10976 17.6967 7.22656L16.5383 7.80576L20.0745 11.342C20.2736 11.5411 20.3555 11.8291 20.2908 12.1032C20.2261 12.3772 20.0241 12.5983 19.7569 12.6873L17.6838 13.3784L21.7289 17.873C21.9436 18.1115 21.9978 18.4539 21.8672 18.7471C21.7367 19.0402 21.4459 19.229 21.125 19.229H4.87501C4.56268 19.229 4.278 19.05 4.1427 18.7685C4.0074 18.487 4.04544 18.1528 4.24055 17.9089L7.88972 13.3475L6.19825 12.6709C5.94467 12.5695 5.75902 12.3474 5.7041 12.0799C5.64919 11.8123 5.73236 11.5351 5.92548 11.342L9.46171 7.80576L8.30331 7.22656C8.06971 7.10976 7.9065 6.88779 7.86467 6.62999C7.82283 6.37219 7.90747 6.10999 8.09215 5.92531L12.4255 1.59198ZM10.0383 6.27725L11.1967 6.85645C11.4303 6.97325 11.5935 7.19522 11.6353 7.45302C11.6772 7.71082 11.5925 7.97302 11.4079 8.1577L7.94582 11.6197L9.5101 12.2455C9.74893 12.341 9.92842 12.544 9.994 12.7927C10.0596 13.0414 10.0035 13.3065 9.8428 13.5074L6.56552 17.604H19.3007L15.6461 13.5434C15.4628 13.3397 15.3945 13.0574 15.4644 12.7924C15.5344 12.5275 15.7331 12.3157 15.9931 12.229L17.9959 11.5614L14.5922 8.1577C14.4075 7.97302 14.3228 7.71082 14.3647 7.45302C14.4065 7.19522 14.5697 6.97325 14.8033 6.85645L15.9617 6.27725L13 3.31555L10.0383 6.27725Z" fill="#D88532"/>
<path fill-rule="evenodd" clip-rule="evenodd" d="M8.39551 23.8335C8.39551 23.3848 8.75928 23.021 9.20801 23.021H16.7913C17.2401 23.021 17.6038 23.3848 17.6038 23.8335C17.6038 24.2822 17.2401 24.646 16.7913 24.646H9.20801C8.75928 24.646 8.39551 24.2822 8.39551 23.8335Z" fill="#D88532"/>
<path fill-rule="evenodd" clip-rule="evenodd" d="M11.4556 17.6081C11.9021 17.6527 12.2279 18.0509 12.1832 18.4974L11.6415 23.9141C11.5969 24.3606 11.1987 24.6863 10.7522 24.6417C10.3057 24.597 9.97995 24.1989 10.0246 23.7524L10.5663 18.3357C10.6109 17.8892 11.0091 17.5634 11.4556 17.6081Z" fill="#D88532"/>
<path fill-rule="evenodd" clip-rule="evenodd" d="M14.5442 17.6081C14.9907 17.5634 15.3889 17.8892 15.4335 18.3357L15.9752 23.7524C16.0198 24.1989 15.6941 24.597 15.2476 24.6417C14.8011 24.6863 14.4029 24.3606 14.3583 23.9141L13.8166 18.4974C13.7719 18.0509 14.0977 17.6527 14.5442 17.6081Z" fill="#D88532"/>
</svg>
