<svg width="26" height="26" viewBox="0 0 26 26" fill="none" xmlns="http://www.w3.org/2000/svg">
<path fill-rule="evenodd" clip-rule="evenodd" d="M1.35449 12.9998C1.35449 6.56802 6.56851 1.354 13.0003 1.354C19.4321 1.354 24.6462 6.56802 24.6462 12.9998C24.6462 19.4317 19.4321 24.6457 13.0003 24.6457C6.56851 24.6457 1.35449 19.4317 1.35449 12.9998ZM13.0003 2.979C7.46597 2.979 2.97949 7.46548 2.97949 12.9998C2.97949 18.5342 7.46597 23.0207 13.0003 23.0207C18.5347 23.0207 23.0212 18.5342 23.0212 12.9998C23.0212 7.46548 18.5347 2.979 13.0003 2.979Z" fill="#D88532"/>
<path fill-rule="evenodd" clip-rule="evenodd" d="M17.2194 18.2611C17.2462 18.2285 17.312 18.1448 17.312 17.8752C17.312 17.1456 16.8385 15.722 15.8885 14.4346C14.9278 13.1326 13.8663 12.4802 13.0003 12.4802C12.1343 12.4802 11.0728 13.1326 10.1121 14.4346C9.16215 15.722 8.68866 17.1456 8.68866 17.8752C8.68866 18.1448 8.75445 18.2285 8.7813 18.2611C8.83047 18.3208 8.96969 18.4459 9.33182 18.5728C10.1123 18.8464 11.337 18.9368 13.0003 18.9368C14.6637 18.9368 15.8883 18.8464 16.6688 18.5728C17.031 18.4459 17.1702 18.3208 17.2194 18.2611ZM13.0003 20.5835C16.291 20.5835 18.9587 20.2684 18.9587 17.8752C18.9587 15.4819 16.291 10.8335 13.0003 10.8335C9.70963 10.8335 7.04199 15.4819 7.04199 17.8752C7.04199 20.2684 9.70963 20.5835 13.0003 20.5835Z" fill="#D88532"/>
<path fill-rule="evenodd" clip-rule="evenodd" d="M6.47052 12.6973C6.61316 12.519 6.74428 12.2111 6.74428 11.8109C6.74428 11.4107 6.61316 11.1028 6.47052 10.9245C6.33032 10.7492 6.23279 10.7492 6.22429 10.7492C6.21579 10.7492 6.11825 10.7492 5.97805 10.9245C5.83541 11.1028 5.70428 11.4107 5.70428 11.8109C5.70428 12.2111 5.83541 12.519 5.97805 12.6973C6.11825 12.8725 6.21578 12.8725 6.22428 12.8725C6.23278 12.8725 6.33032 12.8725 6.47052 12.6973ZM6.22428 14.5192C7.4209 14.5192 8.39095 13.3066 8.39095 11.8109C8.39095 10.3151 7.4209 9.10254 6.22428 9.10254C5.02767 9.10254 4.05762 10.3151 4.05762 11.8109C4.05762 13.3066 5.02767 14.5192 6.22428 14.5192Z" fill="#D88532"/>
<path fill-rule="evenodd" clip-rule="evenodd" d="M10.7625 8.46975C10.9052 8.29145 11.0363 7.98352 11.0363 7.58333C11.0363 7.18314 10.9052 6.87522 10.7625 6.69692C10.6223 6.52167 10.5248 6.52167 10.5163 6.52167C10.5078 6.52167 10.4102 6.52167 10.27 6.69692C10.1274 6.87522 9.99628 7.18314 9.99628 7.58333C9.99628 7.98352 10.1274 8.29145 10.27 8.46975C10.4102 8.645 10.5078 8.645 10.5163 8.645C10.5248 8.645 10.6223 8.645 10.7625 8.46975ZM10.5163 10.2917C11.7129 10.2917 12.6829 9.0791 12.6829 7.58333C12.6829 6.08756 11.7129 4.875 10.5163 4.875C9.31966 4.875 8.34961 6.08756 8.34961 7.58333C8.34961 9.0791 9.31966 10.2917 10.5163 10.2917Z" fill="#D88532"/>
<path fill-rule="evenodd" clip-rule="evenodd" d="M15.7303 8.46975C15.8729 8.29145 16.004 7.98352 16.004 7.58333C16.004 7.18314 15.8729 6.87522 15.7303 6.69692C15.5901 6.52167 15.4926 6.52167 15.4841 6.52167C15.4756 6.52167 15.378 6.52167 15.2378 6.69692C15.0952 6.87522 14.964 7.18314 14.964 7.58333C14.964 7.98352 15.0952 8.29145 15.2378 8.46975C15.378 8.645 15.4755 8.645 15.484 8.645C15.4925 8.645 15.5901 8.645 15.7303 8.46975ZM15.484 10.2917C16.6807 10.2917 17.6507 9.0791 17.6507 7.58333C17.6507 6.08756 16.6807 4.875 15.484 4.875C14.2874 4.875 13.3174 6.08756 13.3174 7.58333C13.3174 9.0791 14.2874 10.2917 15.484 10.2917Z" fill="#D88532"/>
<path fill-rule="evenodd" clip-rule="evenodd" d="M19.952 12.6973C20.0946 12.519 20.2257 12.2111 20.2257 11.8109C20.2257 11.4107 20.0946 11.1028 19.952 10.9245C19.8118 10.7492 19.7142 10.7492 19.7057 10.7492C19.6972 10.7492 19.5997 10.7492 19.4595 10.9245C19.3169 11.1028 19.1857 11.4107 19.1857 11.8109C19.1857 12.2111 19.3169 12.519 19.4595 12.6973C19.5997 12.8725 19.6972 12.8725 19.7057 12.8725C19.7142 12.8725 19.8118 12.8725 19.952 12.6973ZM19.7057 14.5192C20.9023 14.5192 21.8724 13.3066 21.8724 11.8109C21.8724 10.3151 20.9023 9.10254 19.7057 9.10254C18.5091 9.10254 17.5391 10.3151 17.5391 11.8109C17.5391 13.3066 18.5091 14.5192 19.7057 14.5192Z" fill="#D88532"/>
</svg>
