<svg width="15" height="14" viewBox="0 0 15 14" fill="none" xmlns="http://www.w3.org/2000/svg">
<path d="M7.71655 1.3457C6.60717 1.3457 5.5227 1.67467 4.60029 2.29101C3.67787 2.90735 2.95894 3.78338 2.53439 4.80831C2.10985 5.83324 1.99877 6.96105 2.2152 8.04912C2.43163 9.13718 2.96585 10.1366 3.7503 10.9211C4.53475 11.7055 5.5342 12.2397 6.62226 12.4562C7.71033 12.6726 8.83814 12.5615 9.86307 12.137C10.888 11.7124 11.764 10.9935 12.3804 10.0711C12.9967 9.14868 13.3257 8.06421 13.3257 6.95483C13.3257 6.21821 13.1807 5.4888 12.8988 4.80824C12.617 4.12768 12.2038 3.50931 11.6829 2.98844C11.1621 2.46757 10.5437 2.05441 9.86314 1.77255C9.18259 1.49068 8.45317 1.34564 7.71655 1.3457ZM9.49998 9.84492C9.47898 9.89727 9.44704 9.94452 9.40629 9.98352C9.36554 10.0225 9.31692 10.0523 9.2637 10.071C9.21047 10.0897 9.15387 10.0968 9.09769 10.0918C9.04151 10.0868 8.98704 10.0698 8.93794 10.0421L7.41525 8.8589L6.43796 9.76052C6.41529 9.77727 6.38876 9.78805 6.36082 9.79187C6.33289 9.79569 6.30444 9.79241 6.2781 9.78236L6.46545 8.10609L6.47144 8.11085L6.47527 8.07775C6.47527 8.07775 9.21533 5.58309 9.32695 5.4768C9.43996 5.37079 9.40268 5.34779 9.40268 5.34779C9.40911 5.21849 9.1999 5.34779 9.1999 5.34779L5.56938 7.68346L4.05744 7.16854C4.05744 7.16854 3.82523 7.08524 3.80335 6.9021C3.78035 6.72037 4.06501 6.62165 4.06501 6.62165L10.0763 4.23356C10.0763 4.23356 10.5705 4.01339 10.5705 4.378L9.49998 9.84492Z" fill="#009FE4"/>
</svg>
