<svg width="36" height="35" viewBox="0 0 36 35" fill="none" xmlns="http://www.w3.org/2000/svg">
<path d="M22.971 2.91699H14.0234C5.85066 2.91699 3.90625 4.8614 3.90625 13.019V21.9665C3.90625 30.1392 5.83554 32.0837 14.0082 32.0837H22.9557C31.1285 32.0837 33.0729 30.1544 33.0729 21.9816V13.0342C33.0729 4.8614 31.1436 2.91699 22.971 2.91699ZM27.4522 23.7286H25.3255C24.5204 23.7286 24.2773 23.0754 22.8342 21.6322C21.5733 20.417 21.0417 20.265 20.7227 20.265C20.2822 20.265 20.1606 20.3866 20.1606 20.9942V22.9083C20.1606 23.4248 19.9935 23.7286 18.6415 23.7286C17.3296 23.6404 16.0574 23.2419 14.9296 22.5658C13.8019 21.8897 12.8509 20.9553 12.1549 19.8397C10.5028 17.7833 9.35328 15.3698 8.79778 12.7911C8.79778 12.4721 8.91927 12.1834 9.52694 12.1834H11.6536C12.2005 12.1834 12.398 12.4265 12.6107 12.9886C13.6436 16.0268 15.4058 18.67 16.1198 18.67C16.3932 18.67 16.5147 18.5485 16.5147 17.8649V14.7355C16.4236 13.3076 15.6641 13.186 15.6641 12.6696C15.6741 12.5333 15.7368 12.4063 15.8389 12.3156C15.941 12.2248 16.0744 12.1774 16.2109 12.1834H19.553C20.0087 12.1834 20.1606 12.4113 20.1606 12.9582V17.1813C20.1606 17.637 20.3581 17.7889 20.4948 17.7889C20.7682 17.7889 20.9809 17.637 21.4822 17.1357C22.5594 15.822 23.4396 14.3585 24.0951 12.7911C24.1619 12.6025 24.2888 12.441 24.4561 12.3313C24.6234 12.2215 24.8221 12.1696 25.0217 12.1834H27.1484C27.7865 12.1834 27.9232 12.5024 27.7865 12.9582C27.0126 14.6911 26.0552 16.3361 24.9306 17.8649C24.7027 18.2143 24.6116 18.3966 24.9306 18.8067C25.1432 19.1257 25.8876 19.7485 26.3889 20.341C27.1181 21.0683 27.7235 21.9098 28.1814 22.8324C28.3637 23.4248 28.0599 23.7286 27.4522 23.7286V23.7286Z" fill="#D88532"/>
</svg>
