<svg width="24" height="25" viewBox="0 0 24 25" fill="none" xmlns="http://www.w3.org/2000/svg">
<ellipse cx="12" cy="12.7568" rx="12" ry="12" fill="#009FE4"/>
<path d="M8 12.2568C7.72386 12.2568 7.5 12.4807 7.5 12.7568C7.5 13.033 7.72386 13.2568 8 13.2568L8 12.2568ZM16.3535 13.1104C16.5488 12.9151 16.5488 12.5985 16.3535 12.4033L13.1716 9.2213C12.9763 9.02604 12.6597 9.02604 12.4645 9.2213C12.2692 9.41657 12.2692 9.73315 12.4645 9.92841L15.2929 12.7568L12.4645 15.5853C12.2692 15.7805 12.2692 16.0971 12.4645 16.2924C12.6597 16.4876 12.9763 16.4876 13.1716 16.2924L16.3535 13.1104ZM8 13.2568L16 13.2568L16 12.2568L8 12.2568L8 13.2568Z" fill="white"/>
</svg>
