<svg width="24" height="24" viewBox="0 0 24 24" fill="none" xmlns="http://www.w3.org/2000/svg">
<ellipse cx="12" cy="12" rx="12" ry="12" transform="rotate(-180 12 12)" fill="#CACACA"/>
<path d="M16 12.5C16.2761 12.5 16.5 12.2761 16.5 12C16.5 11.7239 16.2761 11.5 16 11.5L16 12.5ZM7.64645 11.6464C7.45118 11.8417 7.45118 12.1583 7.64645 12.3536L10.8284 15.5355C11.0237 15.7308 11.3403 15.7308 11.5355 15.5355C11.7308 15.3403 11.7308 15.0237 11.5355 14.8284L8.70711 12L11.5355 9.17157C11.7308 8.97631 11.7308 8.65973 11.5355 8.46446C11.3403 8.2692 11.0237 8.2692 10.8284 8.46446L7.64645 11.6464ZM16 11.5L8 11.5L8 12.5L16 12.5L16 11.5Z" fill="white"/>
</svg>
