<svg width="159" height="62" viewBox="0 0 159 62" fill="none" xmlns="http://www.w3.org/2000/svg">
<mask id="mask0_268_951" style="mask-type:alpha" maskUnits="userSpaceOnUse" x="0" y="0" width="159" height="62">
<rect width="159" height="62" fill="#D9D9D9"/>
</mask>
<g mask="url(#mask0_268_951)">
<path fill-rule="evenodd" clip-rule="evenodd" d="M-496.731 13.1882C-473.286 -4.39604 -440.158 -4.39607 -416.712 13.1882L-410.602 17.7709C-392.739 31.1684 -367.499 31.1684 -349.635 17.7709L-343.525 13.1882C-320.08 -4.39604 -286.952 -4.39607 -263.506 13.1882L-257.396 17.7709C-239.533 31.1684 -214.292 31.1684 -196.429 17.7709L-190.319 13.1882C-166.873 -4.39604 -133.745 -4.39607 -110.3 13.1882L-104.19 17.7709C-86.3265 31.1684 -61.086 31.1684 -43.2228 17.7709L-37.1126 13.1882C-13.6672 -4.39604 19.4609 -4.39607 42.9064 13.1882L49.0166 17.7709C66.8798 31.1684 92.1202 31.1684 109.983 17.7709L116.094 13.1882C139.539 -4.39604 172.667 -4.39607 196.113 13.1882L202.223 17.7709C220.086 31.1684 245.326 31.1684 263.19 17.7709L269.3 13.1882C292.745 -4.39604 325.873 -4.39607 349.319 13.1882L355.429 17.7709C373.292 31.1684 398.533 31.1684 416.396 17.7709L422.506 13.1882C445.952 -4.39604 479.08 -4.39607 502.525 13.1882L508.635 17.7709C526.499 31.1684 551.739 31.1684 569.602 17.7709L575.712 13.1882C599.158 -4.39604 632.286 -4.39607 655.731 13.1882L697.088 44.2059C700.412 46.6986 700.973 51.2724 698.343 54.4218C695.712 57.5712 690.886 58.1035 687.562 55.6109L646.205 24.5931C628.342 11.1956 603.102 11.1956 585.238 24.5931L579.128 29.1758C555.683 46.7601 522.555 46.76 499.109 29.1758L492.999 24.5931C475.136 11.1956 449.895 11.1956 432.032 24.5931L425.922 29.1758C402.477 46.7601 369.348 46.76 345.903 29.1758L339.793 24.5931C321.93 11.1956 296.689 11.1956 278.826 24.5931L272.716 29.1758C249.27 46.7601 216.142 46.76 192.697 29.1758L186.587 24.5931C168.723 11.1956 143.483 11.1956 125.62 24.5931L119.51 29.1758C96.064 46.7601 62.936 46.76 39.4905 29.1758L33.3803 24.5931C15.5171 11.1956 -9.72333 11.1956 -27.5865 24.5931L-33.6967 29.1758C-57.1423 46.7601 -90.2703 46.76 -113.716 29.1758L-119.826 24.5931C-137.689 11.1956 -162.93 11.1956 -180.793 24.5931L-186.903 29.1758C-210.349 46.7601 -243.477 46.76 -266.922 29.1758L-273.032 24.5931C-290.895 11.1956 -316.136 11.1956 -333.999 24.5931L-340.109 29.1758C-363.555 46.7601 -396.683 46.76 -420.128 29.1758L-426.238 24.5931C-444.102 11.1956 -469.342 11.1956 -487.205 24.5931L-528.562 55.6109C-531.886 58.1035 -536.712 57.5712 -539.343 54.4218C-541.973 51.2724 -541.412 46.6986 -538.088 44.2059L-496.731 13.1882Z" fill="#E6F6FD"/>
<path fill-rule="evenodd" clip-rule="evenodd" d="M-496.731 44.1882C-473.286 26.604 -440.158 26.6039 -416.712 44.1882L-410.602 48.7709C-392.739 62.1684 -367.499 62.1684 -349.635 48.7709L-343.525 44.1882C-320.08 26.604 -286.952 26.6039 -263.506 44.1882L-257.396 48.7709C-239.533 62.1684 -214.292 62.1684 -196.429 48.7709L-190.319 44.1882C-166.873 26.604 -133.745 26.6039 -110.3 44.1882L-104.19 48.7709C-86.3264 62.1684 -61.086 62.1684 -43.2228 48.7709L-37.1126 44.1882C-13.6671 26.604 19.4609 26.6039 42.9064 44.1882L49.0166 48.7709C66.8798 62.1684 92.1202 62.1684 109.983 48.7709L116.094 44.1882C139.539 26.604 172.667 26.6039 196.113 44.1882L202.223 48.7709C220.086 62.1684 245.326 62.1684 263.19 48.7709L269.3 44.1882C292.745 26.604 325.873 26.6039 349.319 44.1882L355.429 48.7709C373.292 62.1684 398.533 62.1684 416.396 48.7709L422.506 44.1882C445.952 26.604 479.08 26.6039 502.525 44.1882L508.635 48.7709C526.499 62.1684 551.739 62.1684 569.602 48.7709L575.712 44.1882C599.158 26.604 632.286 26.6039 655.731 44.1882L697.088 75.2059C700.412 77.6986 700.973 82.2724 698.343 85.4218C695.712 88.5712 690.886 89.1035 687.562 86.6109L646.205 55.5931C628.342 42.1956 603.102 42.1956 585.238 55.5931L579.128 60.1758C555.683 77.7601 522.555 77.76 499.109 60.1758L492.999 55.5931C475.136 42.1956 449.895 42.1956 432.032 55.5931L425.922 60.1758C402.476 77.7601 369.348 77.76 345.903 60.1758L339.793 55.5931C321.93 42.1956 296.689 42.1956 278.826 55.5931L272.716 60.1758C249.27 77.7601 216.142 77.76 192.697 60.1758L186.587 55.5931C168.723 42.1956 143.483 42.1956 125.62 55.5931L119.51 60.1758C96.064 77.7601 62.936 77.76 39.4905 60.1758L33.3803 55.5931C15.5171 42.1956 -9.72332 42.1956 -27.5865 55.5931L-33.6967 60.1758C-57.1422 77.7601 -90.2703 77.76 -113.716 60.1758L-119.826 55.5931C-137.689 42.1956 -162.93 42.1956 -180.793 55.5931L-186.903 60.1758C-210.348 77.7601 -243.477 77.76 -266.922 60.1758L-273.032 55.5931C-290.895 42.1956 -316.136 42.1956 -333.999 55.5931L-340.109 60.1758C-363.555 77.7601 -396.683 77.76 -420.128 60.1758L-426.238 55.5931C-444.102 42.1956 -469.342 42.1956 -487.205 55.5931L-528.562 86.6109C-531.886 89.1035 -536.712 88.5712 -539.343 85.4218C-541.973 82.2724 -541.412 77.6986 -538.088 75.2059L-496.731 44.1882Z" fill="#E6F6FD"/>
<path fill-rule="evenodd" clip-rule="evenodd" d="M-495.731 -17.8118C-472.286 -35.396 -439.158 -35.3961 -415.712 -17.8118L-409.602 -13.2291C-391.739 0.168373 -366.499 0.168387 -348.635 -13.2291L-342.525 -17.8118C-319.08 -35.396 -285.952 -35.3961 -262.506 -17.8118L-256.396 -13.2291C-238.533 0.168373 -213.292 0.168387 -195.429 -13.2291L-189.319 -17.8118C-165.873 -35.396 -132.745 -35.3961 -109.3 -17.8118L-103.19 -13.2291C-85.3264 0.168373 -60.086 0.168387 -42.2228 -13.2291L-36.1126 -17.8118C-12.6671 -35.396 20.4609 -35.3961 43.9064 -17.8118L50.0166 -13.2291C67.8798 0.168373 93.1202 0.168387 110.983 -13.2291L117.094 -17.8118C140.539 -35.396 173.667 -35.3961 197.113 -17.8118L203.223 -13.2291C221.086 0.168373 246.326 0.168387 264.19 -13.2291L270.3 -17.8118C293.745 -35.396 326.873 -35.3961 350.319 -17.8118L356.429 -13.2291C374.292 0.168373 399.533 0.168387 417.396 -13.2291L423.506 -17.8118C446.952 -35.396 480.08 -35.3961 503.525 -17.8118L509.635 -13.2291C527.499 0.168373 552.739 0.168387 570.602 -13.2291L576.712 -17.8118C600.158 -35.396 633.286 -35.3961 656.731 -17.8118L698.088 13.2059C701.412 15.6986 701.973 20.2724 699.343 23.4218C696.712 26.5712 691.886 27.1035 688.562 24.6109L647.205 -6.40689C629.342 -19.8044 604.102 -19.8044 586.238 -6.40686L580.128 -1.82415C556.683 15.7601 523.555 15.76 500.109 -1.82417L493.999 -6.40689C476.136 -19.8044 450.895 -19.8044 433.032 -6.40686L426.922 -1.82415C403.476 15.7601 370.348 15.76 346.903 -1.82417L340.793 -6.40689C322.93 -19.8044 297.689 -19.8044 279.826 -6.40686L273.716 -1.82415C250.27 15.7601 217.142 15.76 193.697 -1.82417L187.587 -6.40689C169.723 -19.8044 144.483 -19.8044 126.62 -6.40686L120.51 -1.82415C97.064 15.7601 63.936 15.76 40.4905 -1.82417L34.3803 -6.40689C16.5171 -19.8044 -8.72332 -19.8044 -26.5865 -6.40686L-32.6967 -1.82415C-56.1422 15.7601 -89.2703 15.76 -112.716 -1.82417L-118.826 -6.40689C-136.689 -19.8044 -161.93 -19.8044 -179.793 -6.40686L-185.903 -1.82415C-209.348 15.7601 -242.477 15.76 -265.922 -1.82417L-272.032 -6.40689C-289.895 -19.8044 -315.136 -19.8044 -332.999 -6.40686L-339.109 -1.82415C-362.555 15.7601 -395.683 15.76 -419.128 -1.82417L-425.238 -6.40689C-443.102 -19.8044 -468.342 -19.8044 -486.205 -6.40686L-527.562 24.6109C-530.886 27.1035 -535.712 26.5712 -538.343 23.4218C-540.973 20.2724 -540.412 15.6986 -537.088 13.2059L-495.731 -17.8118Z" fill="#E6F6FD"/>
</g>
</svg>
