<svg width="706" height="805" fill="none" xmlns="http://www.w3.org/2000/svg"><path d="M125.547 17.477h542.675v768.082H11.649V416.081l19.972-47.434v-85.296l-2.496-76.974-13.315-19.14 24.008-36.354 85.729-133.406Z" fill="#E6F6FD"/><path fill-rule="evenodd" clip-rule="evenodd" d="M93.987 10.485c-3.328 6.658-8.987 23.218-4.992 36.2 2.947 9.58 4.3 13.069 3.115 15.005-.822 1.343-2.865 1.938-6.444 3.302-4.258 1.622-4.663 4.726-5.066 7.82-.424 3.255-.846 6.498-5.752 7.99-2.355.717-5.717.98-9.54 1.28-11.72.918-27.779 2.175-32.484 17.86-3.013 10.043-1.275 16.305.44 22.482 1.838 6.62 3.649 13.143-.44 24.119-3.813 10.235-6.658 13.307-9.095 15.939-2.616 2.825-4.763 5.143-7.132 15.267-2.447 10.454 1.646 17.579 5.287 23.916 3.17 5.519 5.997 10.44 3.866 16.444-2.095 5.906-5.325 5.531-8.291 5.186-3.511-.408-6.652-.773-7.103 9.377-.217 4.874-.997 9.86-1.747 14.652-2.131 13.614-4.015 25.651 7.988 29.036 9.01 2.541 6.09 9.188 1.71 19.156-3.507 7.984-7.951 18.099-7.951 29.941 0 12.232 4.916 17.09 9.103 21.227 4.928 4.869 8.846 8.739 2.547 22.462-6.158 13.414-7.085 17.065-8.372 22.134-1.148 4.521-2.582 10.17-8.271 24.883-7.949 20.556-5.425 28.293-2.777 36.413 1.371 4.207 2.777 8.517 2.777 14.764 0 18.308 25.797 47.85 36.615 38.28 5.426-4.8 6.874-14.101 7.862-20.448.983-6.307 1.51-9.697 5.036-2.853 7.074 13.731 28.294 22.052 26.213 5.825-2.08-16.227-21.636-35.782-34.95-33.702-13.315 2.08-34.951 1.664-29.542-12.066 2.698-6.849 9.433-8.625 14.164-9.873 4.754-1.254 7.485-1.974 2.063-6.77-10.818-9.57-14.563-12.899-10.818-19.972 1.73-3.267 3.814-.232 6.623 3.858 3.272 4.764 7.527 10.96 13.349 10.288 6.102-.704 11.675-1.805 19.258-3.304 5.86-1.158 12.919-2.553 22.35-4.185 12.506-2.165 13.89-2.244 14.68-2.97.577-.53.837-1.405 4.875-3.687 1.413-.799 2.239-2.147 2.722-3.453.793 1.102 1.723 1.329 2.687.123 3.329-4.161 5.409-6.241 4.577 0-.4 3.001-1.57 3.886-2.815 4.828-1.345 1.018-2.778 2.102-3.426 5.99-.33 1.977-.456 3.606-.564 4.986-.299 3.85-.448 5.769-4.429 7.913-.871.469-1.645.84-2.325 1.167-3.545 1.704-4.548 2.186-3.5 8.819.68 4.31.619 4.538.422 5.271-.164.611-.422 1.573-.422 5.547 0 5.204 3.247 4.652 6.225 4.145 2.022-.344 3.92-.667 4.593.848.536 1.207.208 2.803-.149 4.538-.75 3.646-1.625 7.903 5.142 10.441 4.175 1.565 7.768 2.185 10.992 2.742 4.487.774 8.26 1.425 11.892 4.331 4.22 3.376 7.489 2.186 10.579 1.062 1.479-.539 2.918-1.062 4.4-1.062 1.825 0 3.981 1.257 6.257 2.584 3.431 2.001 7.134 4.16 10.386 2.409 1.97-1.061 3.278-2.287 4.526-3.458 2.18-2.044 4.179-3.919 9.205-4.448 3.807-.4 4.623-2.152 5.375-3.768.809-1.739 1.545-3.32 5.859-2.889 8.321.832 13.73-.416 8.737-9.57-2.793-5.121-1.419-6.466.043-7.895 1.15-1.125 2.355-2.303 1.622-5.419-.818-3.477-.832-4.843-1.425-5.876-.614-1.069-1.847-1.783-5.233-4.11-3.361-2.311-3.646-4.092-4.069-6.735-.414-2.592-.961-6.012-4.668-11.573-4.438-6.656-6.976-5.57-9.606-4.446-1.809.773-3.662 1.565-6.205-.13-2.859-1.906-3.012-3.987-3.177-6.242-.196-2.668-.409-5.58-5.145-8.737-5.294-3.53-8.297-3.546-12.064-3.566-2.449-.013-5.221-.027-9.156-1.011-3.903-.976-6.599-1.253-8.534-1.451-3.015-.309-4.183-.429-5.196-2.71a13.05 13.05 0 0 1-.713-2.088c-.479-1.782-.505-1.881-5.945-1.241-1.944.229-3.952.175-5.875.123-3.78-.102-7.235-.196-9.25 1.885-.661-.138-1.739 1.9-2.881 4.06-1.298 2.455-2.68 5.069-3.63 4.825a12.7 12.7 0 0 0-7.489.342c-5.228 1.882-6.567 4.71-7.504 6.688-.927 1.958-1.46 3.083-4.978 1.634-3.616-1.489-1.687-3.63.73-6.312 2.31-2.565 5.067-5.625 3.847-9.083-1.096-3.105-3.154-4.205-5.083-5.237-2.465-1.319-4.72-2.526-4.487-7.662.217-4.774-3.075-6.379-5.92-7.766-2.61-1.273-4.845-2.363-3.65-5.548 1.424-3.797 4.878-2.451 9.05-.824 3.143 1.225 6.693 2.608 10.09 2.072 7.905-1.248 11.234-7.489 7.905-11.234-2.161-2.431-8.357-3.81-13.917-5.048-3.004-.668-5.822-1.296-7.719-2.025-5.409-2.081-24.549-29.958-5.409-32.038 8.858-.963 17.893-.233 26.447.458 9.93.803 19.211 1.553 26.811-.458 14.147-3.745 27.461-14.147 16.643-20.804-3.274-2.015-5.138-3.878-6.653-5.392-3.491-3.488-5.129-5.125-17.895-2.514-18.308 3.745-19.14-2.496-9.57-9.154 9.57-6.657 6.657-15.395-14.563-17.475-21.22-2.08-21.22-11.65-11.65-13.315 1.548-.269 3.194-.473 4.91-.685 8.891-1.102 19.657-2.435 28.376-14.293 4.708-6.404 5.751-8.8 6.177-8.695.514.127.126 3.912 4.225 8.695 7.49 8.737 19.556 2.912 19.972-8.738.287-8.035 1.168-11.122 2.779-16.769.724-2.541 1.597-5.599 2.63-9.86 2.09-8.62-.576-16.584-2.85-23.378-1.349-4.027-2.559-7.643-2.559-10.741 0-3.328.532-4.527.959-5.485.639-1.438 1.038-2.337-.959-9.077-2.106-7.107-.215-8.885 2.616-11.55 1.645-1.548 3.608-3.395 5.289-6.758 2.416-4.83.428-6.069-1.682-7.384-1.889-1.177-3.877-2.416-2.894-6.347 1.054-4.217-.777-6.297-3.111-8.948-2.271-2.58-5.017-5.7-6.043-11.855-.993-5.955-6.814-10.016-11.864-13.538-5.535-3.862-10.143-7.075-6.444-11.427 6.686-7.865 8.911-5.323 16.863 3.762l1.445 1.647c9.154 10.402 21.636 17.475 32.038 10.402 5.897-4.01 6.846-3.875 9.216-3.536 1.81.259 4.449.636 10.756-.625l1.126-.224c13.85-2.752 21.603-4.291 31.328-33.062 9.986-29.542 38.279-28.71 38.279-19.972 0 8.737-12.898 25.38-21.636 28.71-1.738.661-3.229 1.11-4.509 1.494-5.156 1.55-6.891 2.07-7.557 11.404-.216 3.02-.068 5.202.044 6.863.322 4.747.356 5.25-9.198 8.948-2.712 1.05-5.239 1.86-7.456 2.57-8.326 2.67-12.256 3.931-5.026 11.16 5.621 5.622 5.593 6.065 5.41 9.039-.116 1.869-.293 4.737.831 10.517 1.417 7.289 2.933 8.47 4.116 9.39 1.248.972 2.125 1.655 2.125 8.918 0 5.019 1.205 8.31 2.165 10.932 1.745 4.767 2.68 7.321-5.91 14.032-7.33 5.728-5.454 7.166-2.286 9.594 2.585 1.982 6.031 4.624 6.031 10.794 0 6.573.667 9.141-.325 10.444-1.082 1.418-4.132 1.335-12.157 3.287-4.699 1.143-8.351 1.472-11.241 1.732-6.578.593-9.204.829-11.228 9.502-1.462 6.267-4.708 6.031-7.577 5.822-2.846-.207-5.321-.387-5.321 5.828 0 11.055-.653 13.625-3.114 23.316-.318 1.252-.666 2.622-1.047 4.145-1.606 6.424-.694 7.037.681 7.96 1.474.99 3.48 2.337 3.48 11.596 0 5.386-.641 13.373-1.344 22.134-1.633 20.345-3.6 44.863 1.344 50.68 3.619 4.257 4.079 3.941 5.114 3.229.989-.68 2.501-1.72 7.784.516 5.21 2.204 6.367.452 7.375-1.075 1.084-1.643 1.996-3.024 7.604 1.075 10.818 7.905 27.878 9.57 26.213 2.912-1.056-4.225-.772-4.26 2.663-4.679 1.977-.242 4.996-.61 9.404-1.978 5.31-1.648 5.866-2.893 6.384-4.055.659-1.477 1.257-2.819 11.507-4.683 6.33-1.151 12.163-2.749 16.931-4.056 9.02-2.472 14.228-3.9 11.778.728-2.5 4.723-2.774 4.808-9.245 6.821a247.552 247.552 0 0 0-15.303 5.245c-10.683 4.031-13.164 7.77-15.011 10.553-1.966 2.962-3.213 4.842-12.867 4.842-1.853 0-3.53.004-5.059.008-13.923.034-15.526.037-24.898-3.337-10.402-3.744-17.476-1.248-17.476 6.658 0 7.905 13.315 22.468 20.388 19.971 7.074-2.496 15.811-2.08 14.979 4.161-.447 3.351 3.783 2.385 8.312 1.35 3.907-.893 8.038-1.836 9.58-.102 1.46 1.644.757 3.768-.104 6.373-1.103 3.331-2.465 7.448.104 12.351 2.467 4.711 6.024 4.947 9.951 5.207 3.357.223 6.985.463 10.436 3.531 4.053 3.602 4.938 2.21 6.149.305 1.028-1.615 2.29-3.6 5.918-3.218 1.909.201 3.6.621 5.061.983 4.587 1.138 6.904 1.713 6.589-6.808-.127-3.42-.292-5.992-.425-8.068-.305-4.741-.443-6.893.425-10.656.671-2.909-3.592-4.855-8.583-7.133-4.288-1.958-9.113-4.16-11.805-7.429-3.018-3.665-1.904-3.867.218-4.253 1.974-.359 4.82-.876 6.023-4.485 2.497-7.489 4.161-6.657 6.657-2.08 2.497 4.577 6.658 8.737 14.979 5.409 1.684-.674 3.06-1.313 4.186-1.835 4.439-2.061 4.968-2.307 4.968 4.331 0 8.322.416 20.388 9.154 16.227 1.722-.82 3.783-1.608 5.91-2.42 8.665-3.311 18.417-7.037 10.733-15.055-5.021-5.24-7.752-8.99-10.054-12.153-2.086-2.865-3.821-5.248-6.589-7.819-2.913-2.704-6.241-2.704-9.154-2.704-2.912 0-5.409 0-6.657-2.705-2.497-5.409-2.081-23.716 3.745-17.891 2.249 2.249 4.498 3.878 6.652 5.437 3.423 2.48 6.604 4.783 9.159 9.125 2.435 4.14 9.431 4.86 17.234 5.662 5.53.568 11.464 1.178 16.468 3.076 6.219 2.359 8.79 2.065 11.645 1.739 2.684-.306 5.619-.641 12.071 1.174 8.068 2.269 9.72 6.371 10.88 9.252.754 1.873 1.3 3.23 3.267 3.23 2.28 0 4.559-2.602 7.037-5.43 2.949-3.366 6.179-7.052 10.022-7.052 7.074 0 22.053-25.381 24.133-42.44 2.062-16.91-4.87-14.197-14.311-10.501l-.252.099c-8.56 3.349-7.799 1.705-4.863-4.635.347-.748.723-1.561 1.119-2.439l.161-.358c3.642-8.087 5.579-12.389-.161-30.432-1.68-5.277-4.051-10.417-6.206-15.089-5.321-11.535-9.328-20.221 1.629-21.11 8.002-.648 13.643 3.649 17.8 6.816 3.841 2.926 6.415 4.886 8.413 1.09 2.031-3.86.889-8.216-.232-12.487-1.174-4.476-2.323-8.858.232-12.478 4.523-6.407-2.222-11.108-10.955-17.194a473.32 473.32 0 0 1-2.776-1.945c-9.986-7.074-10.402-15.395 0-22.053 10.069-6.444 8.052-7.82.743-12.807l-.743-.507c-4.171-2.854-5.909-3.739-7.11-5.099-1.075-1.218-1.719-2.816-3.292-6.551-1.506-3.577-4.714-2.896-8.201-2.156-4.22.896-8.848 1.878-11.355-4.502-.64-1.631-1.363-3.352-2.114-5.142-4.616-10.995-10.326-24.6-4.959-36.05l.088-.188c6.188-13.201 9.884-21.085 6.985-32.266l-.209-.81c-3.097-12.011-11.703-45.394-40.566-46.207-11.286-.318-17.896.033-23.102.308-8.419.446-13.163.697-28.076-2.388-12.795-2.647-17.753-.733-23.123 1.34-4.758 1.837-9.839 3.798-20.982 2.82-10.058-.882-12.782-2.512-14.901-3.78-2.877-1.722-4.637-2.776-22.13-.38-30.373 4.16-61.163 7.073-75.31 0-14.147-7.074-30.53-.416-33.703 7.49Z" fill="#FFF2C5"/><path d="M172.209 143.629c-.608 1.826-.54 3.367-.139 4.665 1.338 4.334 4.285 7.64.139 9.482-3.744 1.664-7.489-.416-6.241-7.489 1.249-7.074-2.912-6.658 1.665-14.563 4.577-7.906 6.657 1.664 4.576 7.905Zm23.717 10.402c-2.913 3.744-10.818 0-7.905-3.744 4.176-5.37 11.96-3.546 8.743 2.447a9.156 9.156 0 0 1-.838 1.297Zm-28.293 8.738c1.407-.059 2.624-.018 3.681.098 6.512.718 9.273 9.832 4.64 14.465-4.161 4.161-14.146 1.664-19.556-2.913-5.409-4.577-7.489-13.73-2.912-16.643 4.577-2.913 4.161 5.409 14.147 4.993Zm-18.724 31.622c.416-7.073 4.577-7.906 7.489-6.241 5.315 3.037 14.378 3.55 10.427 8.225-.255.302-.54.612-.857.929-6.241 6.241-9.57 6.657-12.482 6.657-2.913 0-4.993-2.497-4.577-9.57Zm-11.65 64.908c-.416 4.577 4.16 5.825 5.409 6.242 1.664.606 1.248 0 2.08-2.497.833-2.496-2.08-2.496 0-6.657 2.081-4.161-.416-14.147-3.744-16.227-3.329-2.081-5.826 7.905-3.745 12.898 2.08 4.993.416 1.664 0 6.241Zm14.563-34.534c0-.42.037-.802.107-1.15 1.05-5.259 9.429-2.12 9.047 3.23-.416 5.825-7.49 6.241-9.154 5.825-1.664-.416 0-2.496 0-7.905Zm-32.454 22.884c.823 1.646 4.19 1.868 6.276 1.269 4.248-1.22-8.253-5.222-6.276-1.269ZM74.847 528.506c-.832-7.49-7.073-7.906-12.482-5.826-6.265 2.41 9.08 6.04 7.673 12.603-.445 2.074-.604 4.093.233 5.289 2.912 4.16 5.409-4.577 4.576-12.066Zm-12.896-21.637c-.423.084-.738.229-.963.421-4.107 3.502 8.12 11.479 10.533 6.652 1.664-3.328-5.409-7.905-9.57-7.073Zm-8.321-77.807.158.033c5.922 1.232 9.619 2.462 12.324 7.872 2.08 4.161-3.329 4.161-10.402 1.248-7.074-2.912-11.65-1.248-12.482-6.657-.833-5.409 4.576-3.744 10.402-2.496Zm22.882 18.306c-1.136 3.408 3.063 6.196 7.719 8.431 6.425 3.084 20.621 7.426 15.581 2.387-3.744-3.745-14.562-10.818-15.81-19.14-1.249-8.321-4.994-5.825-6.242 0-1.248 5.825.832 2.081-1.248 8.322ZM411.04 328.786a39.562 39.562 0 0 1 3.297-4.367c5.821-6.686 9.534-5.516 15.01 1.454 4.577 5.825 2.081 14.979-11.234 14.979-13.314 0-12.898 11.65-14.979 3.745-2.08-7.906 1.665-6.242 7.906-15.811Z" fill="#C0CF63"/><path d="M381.914 46.684c-12.316-24.965 9.847-32.87 22.469-33.703 42.717 0 131.231 2.58 143.547 12.899 15.395 12.898 7.905 37.031 3.745 52.842-4.161 15.811-10.819 27.045 0 44.52 10.818 17.476 0 23.301 0 47.85 0 24.548 4.16 7.905 15.394-5.826 11.235-13.73 30.374-10.402 39.944 5.826 9.57 16.227 19.14 23.716 31.622 42.856 12.482 19.139 24.133 18.723 42.856 29.541 18.724 10.818 7.906 60.748 0 60.748-7.905 0-14.979-17.059-31.206-17.059s-19.971-24.549-28.709-47.433c-8.738-22.885-8.738 9.569-29.126 3.744-20.388-5.825-16.227-6.241-28.709 5.825-12.483 12.067 0 14.563 17.891 19.14 17.892 4.577 14.563 4.993 15.811 18.724 1.248 13.73-9.57 6.241-4.993 17.059 4.577 10.818 20.388-3.329 37.864 6.657 17.475 9.986 3.744 19.14-13.315 23.301-17.059 4.16-4.161 13.314 9.154 36.198 13.314 22.885 10.402 12.067 0 23.301-10.402 11.234-10.402 29.542-13.315 21.636-2.912-7.905-9.986-29.958-20.388-51.594-10.402-21.636-11.234 2.913-16.227-10.818-4.993-13.73-9.986-12.898-20.388-22.884-10.402-9.986-2.912-19.972-7.905-36.615s-14.147-6.241-25.797-6.241-5.825-5.825-13.731 0c-7.905 5.825-10.402-5.825-29.125-13.731-18.724-7.905-27.462-15.811-32.454-40.776-4.993-24.964 17.059-4.161 27.045-24.132 9.986-19.972 2.496-17.476-22.053-37.447-24.548-19.972-2.912-13.731-12.066-44.521s-14.979-16.643-29.958-30.374c-14.978-13.73-12.482-18.307-27.877-49.513Zm243.88 3.071a69.326 69.326 0 0 0 3.273-13.058c3.039-20.138 20.608-32.627 39.849-25.954 8.08 2.803 15.478 6.782 19.234 11.391 9.154 11.234 2.08 66.157 0 91.122-2.08 24.964-18.724 18.723-33.703 7.489-14.978-11.234-15.811-9.57-32.87-32.454-8.54-11.456-.604-25.085 4.217-38.536Z" fill="#FFF2C5"/><path d="M583.297 376.634c11.65 8.987 8.737 22.884 5.825 28.71-1.456 3.744 7.073 3.744 11.65 11.65 4.577 7.905-2.497 7.073 12.066 13.73 14.563 6.658 11.234 42.024-1.248 52.426-12.482 10.402-29.958 2.497-39.944-10.402-9.985-12.898-15.811-5.825-22.884-2.496-7.073 3.328-4.993-4.577-5.825-16.643-.832-12.067-6.657-3.745-21.636-13.315s-9.986-15.811-4.993-34.95c4.993-19.14 0-7.074-8.322-9.154-8.321-2.081 0-14.563 8.322-22.469 8.321-7.905 0-12.066-8.322-20.804-8.321-8.737-8.321-3.744 0-17.059 8.322-13.314-3.328-14.146 8.322-16.643 11.65-2.496 9.986 8.738 19.972 21.22 9.986 12.483 17.891-2.08 19.971 4.577 2.081 6.657.833 4.161 9.154 16.643 8.322 12.483 3.329 3.745 17.892 14.979Z" fill="#C0CF63"/><path d="M569.15 485.231c2.33 5.991 6.796 8.599 8.738 9.153 6.241 2.081-2.497 7.074-8.738 7.906-6.241.832-3.745-3.329-9.986-5.825-6.241-2.497.832-3.745 0-11.234-.832-7.49-10.402-6.242-8.322-9.57 2.081-3.329 15.395 2.08 18.308 9.57Zm-38.279-31.622c7.073 2.496 7.073 13.73 9.986 16.643 5.825 4.993-2.081 14.979-7.906 9.57-5.825-5.409-7.073-4.161-7.905-9.57-.833-5.409.832-2.081-1.249-9.154-2.08-7.073 0-9.986 7.074-7.489Zm-7.074 26.213c5.992-.999 7.212 6.518 7.074 10.402.098 2.589-7.074 1.248-10.818-1.665-3.745-2.912-3.745-7.489 3.744-8.737Zm22.053 22.468c2.33-2.663 9.847 6.102 13.314 10.818 1.926 2.496 0 2.496-3.329 4.161-3.328 1.664-3.328-4.161-7.073-8.322-3.745-4.161-5.825-3.328-2.912-6.657Z" fill="#C0CF63"/><path d="M606.181 674.547c19.972-3.329 9.986-8.322 34.534 0 20.471 6.939 47.021 3.182 26.764 10.724-4.16 1.549-8.786 2.59-13.449 2.59-22.053 0-2.081 5.826-16.227 12.067-14.147 6.241-9.986 0-10.402 21.22-.417 21.22-7.074 12.482-14.979 0-7.906-12.483-3.329 6.657-10.402 18.723-7.074 12.067-9.154 17.06 0 32.038 9.153 14.979 4.161-4.992 18.307 4.993 14.147 9.986 20.388-.416 42.024-4.993 21.636-4.576 9.986 19.14-3.328 28.294-13.315 9.154-76.975 2.912-108.597-3.745s-39.944 16.227-49.93 0c-9.986-16.227-9.569-11.234-14.562-29.541-4.993-18.308 6.241 2.912 9.986-9.986 3.744-12.899 5.409.832 14.562 0 9.154-.833-3.328-5.825-3.328-13.731 0-7.905 8.738-14.563 0-15.395-8.738-.832-4.161-7.905 0-14.979 4.161-7.073 8.737 10.818 13.73 0s-6.657 0-4.993-12.898c1.665-12.899 6.658 4.577 11.235-6.241 4.576-10.818 3.744-2.081 14.146 10.818 10.402 12.898 11.651 21.636 15.811 8.321 4.161-13.314-11.65-11.65 4.161-15.811s9.57 1.248 20.804-9.154c11.234-10.402 4.161-9.986 24.133-13.314ZM244.608 533.496c17.974 5.659 2.774 12.898-7.074 15.811-43.688 9.154-47.017 13.315-54.09 33.702-7.073 20.388 8.738 29.958 25.797 33.703 17.059 3.745 22.468-16.227 45.769-13.315 23.3 2.913 7.905-14.146 11.65-38.279 3.745-24.133 9.57-10.818 14.563 4.577s7.905 0 13.314 16.227.832 12.066 32.038 24.133c31.206 12.066 29.126 29.125 0 64.492-29.125 35.367-78.639 34.534-139.802 29.958-61.164-4.577-103.188-66.573-111.51-91.538-8.321-24.965 1.665-12.482 4.993-23.716 3.329-11.234-15.395-7.906-11.65-24.133 3.745-16.227 6.657-5.825 14.979-15.811s3.329-7.905 19.556-26.629 17.059.416 31.622 4.993c14.562 4.577 15.811-3.329 24.548-13.731 8.738-10.402 9.57-12.066 32.871-6.657 23.3 5.409 29.957 19.14 52.426 26.213Zm195.973-109.845c3.291.897 6.088 3.34 8.31 6.174 4.712 6.009 7.42 13.375 10.025 20.553 1.173 3.23 2.053 6.416 2.053 8.64 0 6.241-3.745 1.248-3.745 7.905 0 6.658 3.745 6.241 0 9.57-3.744 3.329 3.745 4.577 6.242 15.811 2.496 11.234 5.825 10.818 0 12.482-5.826 1.665-2.497 10.402 0 20.804 2.496 10.402.832 6.658-2.497 11.235-3.329 4.576-6.657-6.658-10.818-6.242-4.161.416 4.161 3.745 4.161 12.483 0 8.737-4.161 1.248-10.818-6.241-6.657-7.49-20.804-25.381-27.461-42.441-6.658-17.059 1.664-42.024 0-52.009-1.665-9.986-5.409-.833-13.731-10.818-8.322-9.986-5.825-11.235 2.08-19.556 7.905-8.322 2.497-11.65 0-19.14s-9.57 3.329-7.905-4.993c1.664-8.321-5.825-4.577-5.825-11.234s-7.074-9.154-7.906-14.979c-.832-5.825 1.248-7.073 7.906-9.154 6.657-2.08 8.737 7.906 13.73 17.06 4.993 9.153 4.577 3.328 6.242-5.409 1.664-8.738-6.242-7.074 2.08-14.147 8.321-7.073 8.738-.832 25.381 4.577s16.227 9.986 16.227 20.388c0 10.402 0 4.993-4.161 10.818-4.161 5.825 0 7.905-6.657 7.073-6.657-.832-5.409 5.825 3.744 13.731 9.154 7.905 7.074 10.402 0 12.066-7.073 1.664-15.811 2.496-6.657 4.993Zm-99.858-40.359c-.998 12.316 12.899 18.724 19.972 20.388 4.577 1.452 7.49 9.57 12.067 7.073 4.576-2.496-2.913-3.329-2.913-12.482 0-9.154 1.664-10.402 0-19.972-1.664-9.57 2.08-7.073 0-11.65s1.248-6.657-3.329-14.563c-4.576-7.906-2.08 2.496-7.073 4.161-4.993 1.664-2.08 2.912-9.986 3.745-7.905.832-14.147-3.329-14.147 2.912s6.658 4.993 5.409 20.388Zm-36.614 50.761c2.496-5.825-5.409-2.496-2.497-8.321 2.064-4.128 6.072 1.002 10.242-.977a28.197 28.197 0 0 1 2.657-1.103c5.825-2.081.832-4.577 11.234-6.242 10.402-1.664 8.321 0 12.066-4.993 3.745-4.993-1.664-7.489-3.745-14.978-2.08-7.49 4.993-3.329 1.248-8.322-3.744-4.993-4.992 1.664-9.569 0-4.577-1.664 5.409-5.825 3.328-14.979-2.08-9.154-7.489 0-12.066 6.657-4.577 6.658 0 7.49-8.321 9.986-8.322 2.497-4.577-3.328-12.483 0-7.905 3.329-2.496 7.49-8.321 11.234-5.826 3.745-5.41 5.409-1.665 10.402 3.745 4.993 0 10.402 0 15.395s9.57 4.577 9.986 9.57c.416 4.993 5.409 2.497 7.906-3.329Z" fill="#FFF2C5"/><path d="M358.198 514.773c7.701-.285 12.693 3.89 14.924 6.923.635.863 1.832 1.893 2.874 1.646 2.686-.638 4.827-3.36 7.338-4.506 1.431-.653 2.48-1.886 2.325-4.063-.416-5.825-7.906 0-7.49-9.57.416-9.57-2.496-4.993-9.153-5.409-6.658-.416-18.308 0-18.308-6.241s4.161-1.664 7.49-11.234c3.328-9.57 2.08-9.986 10.818-18.308 8.737-8.321 4.992-7.905 4.993-14.562 0-6.658-8.738-4.161-9.986-10.819-1.249-6.657-5.825-6.241-7.49-7.905-1.664-1.664 3.745-8.322 0-11.234-3.745-2.913-9.986 1.664-15.811-1.665-5.825-3.328-4.577 3.329-15.811 7.906s-7.905 2.08-11.65 8.738c-3.745 6.657 2.496 3.744 3.745 9.153 1.248 5.409-7.906 3.745-9.57 10.818-1.665 7.074 5.409 8.738 20.388 12.067 14.979 3.328 9.569 4.993 10.402 13.73.832 8.738 2.912 5.409 2.496 13.315-.416 7.905-7.905.416-12.898 6.241-4.993 5.825 14.979.832 22.884 5.409 7.906 4.577-3.745 9.986 7.49 9.57ZM655.694 12.15c7.298-2.885 14.69 1.463 20.918 7.98 11.168 11.689 13.617 28.696 13.617 44.863 0 7.073-1.664 12.066-4.577 21.636-2.913 9.57-1.248 18.307-1.664 29.958-.416 11.65-4.577 9.569-11.651 9.153-7.073-.416-7.489-4.576-21.636-13.314-14.146-8.738-6.241-7.49-18.723-19.14-12.43-11.601-11.657-14.95-9.185-25.661l.031-.136c2.496-10.818 9.986-22.468 14.147-37.447 4.16-14.979.832-10.818 18.723-17.892ZM346.547 336.276c12.062 1.04 19.663 4.408 24.041 7.668 3.444 2.565 7.885 4.563 9.662.654 2.08-4.577 7.073-4.161 14.979-8.322 7.905-4.16 14.562-23.3 16.227-34.534 1.664-11.234-2.913-7.489-11.651-6.241-8.737 1.248-11.234-3.745-4.576-21.22 6.657-17.476-10.402-33.703-12.483-49.098-2.08-15.395 4.161-17.475 18.308-12.898 14.146 4.577 13.73 7.489 15.811 4.161 2.08-3.329-2.913-13.731 0-22.053 2.912-8.321-19.972-13.314-21.636-23.716-1.665-10.402 7.489-18.308 10.818-19.556 3.328-1.248-.416-5.409-9.154-9.57-8.738-4.16-9.57-6.657-16.643-4.576-7.074 2.08-9.154 23.716-14.147 44.104-4.973 20.308-31.002 16.259-49.71 13.349l-.219-.035c-18.724-2.912-35.367 11.235-29.126 25.381 6.241 14.147 4.993 47.017 0 59.084-4.993 12.066 1.248 8.737 0 15.395-1.248 6.657-8.322-12.483-2.496-31.206 5.757-18.506.133-34.167-5.622-50.196l-.204-.566c-5.825-16.227-59.499-19.14-71.565-17.892-12.067 1.249-24.133 6.658-28.294 13.315-4.16 6.657-10.402 6.657-9.569 12.066.832 5.409-4.993 27.462-2.913 33.287 2.08 5.825 0 48.265-2.08 54.922-2.081 6.657-.416 21.22 2.08 25.797 2.497 4.577 0-2.913 5.825 0s6.657 4.161 10.818 0 17.476 4.993 21.22 7.489c3.745 2.497 8.738 2.081 10.402-3.328 1.664-5.409 11.234-4.161 17.892-7.074 6.657-2.912 8.737-7.489 17.891-8.321 9.154-.832 25.797-10.402 28.293-2.913 2.497 7.49-9.986 12.067-18.723 14.147-8.738 2.08-17.475 9.57-20.804 13.731-3.329 4.16-19.14 10.818-38.695 4.16-19.556-6.657-18.724-1.248-21.637 1.665-2.912 2.912 12.899 15.811 18.724 16.643 5.825.832 13.314-2.08 17.059 3.745 3.745 5.825 3.329 2.08 6.657 1.664 3.329-.416 14.563-3.329 11.235 8.322-3.329 11.65 1.248 13.73 7.905 15.811 6.657 2.08 8.738 2.912 11.65 4.576 2.913 1.665.833 1.665 5.409-2.912 4.577-4.577 11.234.832 13.731 0s0-20.804 0-23.717c0-2.912-6.241-3.744-11.234-7.489-4.993-3.745-11.234-5.409-10.818-9.57.416-4.161 4.577-1.664 8.321-7.073l.07-.101c3.696-5.339 5.376-7.766 11.164-1.564 5.826 6.242 6.242 6.242 14.979 3.745 8.738-2.496 8.322-2.912 9.57 7.49 1.248 10.402 1.248 8.321 5.825 10.818 4.577 2.496 12.483-4.993 15.811-9.154 3.329-4.161-13.314-20.804-17.891-24.133-4.577-3.328-6.657-.832-12.482-2.496-5.826-1.665-4.161-14.147-3.745-18.308.416-4.16 4.161-12.066 11.234-6.657 7.073 5.409 16.227 14.979 24.133 16.227 7.905 1.248 6.241 4.993 30.373 7.073Z" fill="#C0CF63"/><path d="M337.809 20.056c14.646-4.993 25.797 9.847 29.542 17.892 3.375 5.825-2.081 8.737 4.16 16.642 6.242 7.906 0 12.483-9.985 26.63-9.986 14.146 2.912 37.031 9.985 53.258 7.074 16.227-4.16 17.891-9.985 27.461-5.826 9.57-2.913 18.307-10.402 28.293-7.49 9.986-32.039-2.912-54.091 2.081s-14.146 12.482-27.461 4.16c-13.315-8.321-41.192-3.328-46.601-9.153-5.409-5.825 2.913-6.242-4.577-15.811-7.489-9.57-4.993-8.322 4.577-15.811 9.57-7.49-4.993-12.899-4.577-26.629.416-13.731-7.905-10.818-4.993-21.637 2.913-10.818-2.08-7.905-2.912-19.14-.832-11.233 10.402.833 22.884-7.073 12.483-7.905-2.912-12.898 0-19.14 2.913-6.24 8.738-.831 19.14-20.803 10.402-19.972 12.482-17.476 24.549-21.22 12.066-3.744 2.08 12.482 5.825 21.22 3.744 8.737 42.024 11.234 40.359-3.328-1.664-14.563-3.744-11.65 14.563-17.892Zm-237.165-7.074c2.663-5.658 10.818-9.015 14.563-9.985.971 0 2.912 1.165 2.912 5.825 0 5.825 11.234 7.49 15.395 13.73 4.161 6.242-4.993 12.483-15.395 13.315-10.402.832-12.898 2.08-20.388 5.409-7.49 3.328-5.825-7.906-2.496-15.395 3.329-7.49 2.08-5.825 5.409-12.899ZM61.532 155.698c6.658-8.655 5.826-19.695 4.577-24.133 4.577-30.374-28.293-24.133-26.212-6.657 2.08 17.475.416 17.475-4.994 37.031-5.409 19.556-12.898 16.643-11.65 30.374 1.248 13.73 9.986 16.643 11.65 23.3 1.665 6.657 16.227 4.161 13.315-9.57-2.913-13.73 4.16-13.73 6.657-24.132 2.497-10.402-1.664-15.395 6.657-26.213Zm65.325 66.572c7.323 4.327 9.154-9.848 9.154-17.476 6.241-20.388 0-21.636 0-32.038 0-10.402-3.744-17.891-3.744-32.454 0-14.563 3.744-14.979 5.409-19.972 1.664-4.993-4.993-12.066-5.409-19.972-.416-7.905-14.147 2.913-14.147 12.483s-2.913 16.643-14.147 32.454-9.986 24.133-19.14 31.622c-9.153 7.489-6.657 14.563-4.992 32.87 1.664 18.308-6.658 24.965-1.665 27.045 4.993 2.081 17.06-6.241 28.71-18.723 11.65-12.483 10.818-1.248 19.971 4.161ZM88.58 275.944c-6.658 4.66-1.11 8.876 2.496 10.402 4.398 8.737-16.228-4.577-10.402-12.899 5.825-8.322-2.913-4.577-1.665-11.65 1.248-7.073 12.067-2.497 19.14 1.248s-1.248 7.074-9.57 12.899Zm7.073 14.978c-1.998 4.993-5.548 10.402-7.074 12.483-5.825 6.657 7.074 3.328 19.14 4.577 12.066 1.248 14.563-4.577 23.3-7.49 8.638-2.879 1.418-8.198-6.386-13.947l-.271-.199c-7.906-5.825-26.213-1.665-28.71 4.576Zm-18.724-4.576c11.65 8.321 6.241 14.84 2.08 17.059-9.57-3.966-11.65 2.08-28.71 4.577-17.058 2.496-11.233-2.497-12.065-17.06-.833-14.562 4.576 0 12.066-7.905 7.49-7.906 12.066-7.073 26.629 3.329Z" fill="#C0CF63"/><path d="M88.58 351.67c0-4.161-11.235 0-24.966-10.402-3.41-2.583-7.49-9.306-8.737-14.563-1.249-5.257-4.41-9.933-2.497-12.898 1.711-3.745.832-3.329-9.57-2.497-10.402.832-9.153-5.825-7.489-14.146 1.664-8.322.832-10.818-2.913-12.899-3.744-2.08-7.905 3.329-10.818 9.986-2.912 6.657.833 7.489-4.992 15.395-5.826 7.905-4.161 17.891-3.745 23.716.416 5.826 12.898 15.812 15.395 23.717 2.496 7.906-6.658 20.388-9.986 30.79-3.329 10.402 5.409 9.986 9.986 14.147 4.576 4.16 9.986 13.314 14.562 14.562 4.577 1.249 21.22-4.16 30.79-4.577 9.57-.416 9.57-4.576 9.57-7.905 0-3.329-6.241 1.248-9.57-3.745-3.328-4.993 3.329-6.241 7.074-12.482 3.744-6.241 0-2.913-5.826-4.993-5.825-2.08-3.328-7.073-3.744-12.066-.416-4.993-6.241-3.329-9.57-8.738-3.329-5.409 3.745-10.402 15.395-6.241 11.65 4.161 11.65 0 11.65-4.161Zm-59.918 79.472c-9.986.666-14.701 9.154-15.81 13.315 0 10.818 5.824 13.73 25.796 13.73s12.482.416 22.468 4.993 11.65 12.483 15.811 18.308c4.161 5.825 1.249 10.818-1.664 12.898-2.913 2.08-8.738-2.912-15.81-9.986-7.074-7.073-5.826-7.489-8.323-7.489-2.496 0-5.409 14.146-7.489 19.555-2.08 5.41 2.497 8.322-10.402 6.658-12.898-1.665-17.06-16.227-22.468-26.213-5.41-9.986.832-12.899-2.913-21.636-3.744-8.738-5.409-13.315-5.409-21.636 0-8.322 3.745-11.235 5.41-18.724 1.664-7.489 6.24-14.979 7.489-16.643 1.248-1.664 4.576 3.745 3.328 7.073-1.248 3.329-1.664 8.322 2.913 15.395 4.577 7.074 19.556 9.57 7.073 10.402Zm116.502-37.863c17.476.416 15.811 6.241 19.14 7.073 2.08 7.074 0 2.497-.832 7.073-.832 4.577 9.986 1.665 19.556 6.658 9.569 4.993 0 4.993 5.409 14.562 5.409 9.57 8.737 7.906 9.986 13.315 1.248 5.409-5.826 3.745-2.497 9.986 3.329 6.241 4.993 11.234-2.08 9.986-7.074-1.249-9.154 4.577-13.731 5.825-4.577 1.248-10.402 4.993-13.731 7.073-3.328 2.081-5.825.832-13.314-2.912-7.49-3.745-10.402 4.993-14.979.832-4.577-4.161-24.965-8.322-27.877-9.57-2.913-1.248-.416-4.993 0-11.234s-7.49-1.664-10.402-3.745c-2.913-2.08-1.248-9.57-1.665-14.563-.416-4.993 1.665-4.16 7.074-6.241 5.409-2.08 2.496-5.409 3.328-12.066.833-6.657 2.913-1.248 5.826-8.322 2.912-7.073-.417-4.576 6.657-11.234 7.073-6.657 6.657-2.912 24.132-2.496Zm57.419 160.606c-23.3 9.986-24.548 33.702-25.797 38.279-1.501 7.49 5.409 14.979 14.563 22.052 9.154 7.074 26.213 4.993 32.454 4.161 6.241-.832 17.476-13.314 23.301-13.314 5.825 0 15.395 2.08 20.388 0 4.992-2.081 3.328-6.658 1.664-22.053-1.664-15.394-.416-13.73 1.664-22.884 2.081-9.154 2.913-2.08 4.993 3.745 2.081 5.825 4.577 14.979 11.234 17.475 6.658 2.497 3.745 2.913 4.577 7.906.832 4.993 4.993 13.73 18.308 17.891 13.314 4.161 18.723 7.489 29.125 13.315 10.402 5.825 7.074 11.65 7.074 17.891 0 6.241-10.402 18.307-13.315 24.133-2.913 5.825-9.986 12.066-18.307 20.387-8.322 8.322-12.483 7.074-27.462 12.067s-13.73 5.825-58.667 8.321c-44.936 2.497-71.566-7.905-91.953-20.388-20.388-12.482-50.762-54.922-54.923-62.411-4.16-7.49-8.738-19.14-6.241-22.053 2.496-2.912 6.657-3.744 8.322-9.153 1.664-5.409-1.249-7.074-8.322-13.315-7.073-6.241-4.577-9.986-2.497-15.811 2.08-5.825 7.906-.832 15.811-11.234 7.906-10.402 12.483-21.636 20.388-26.213 7.906-4.577 10.818-2.08 14.147 2.913 3.329 4.992 13.315 6.241 20.388 7.073 7.073.832 9.986-5.409 17.059-13.315 7.074-7.905 7.49-9.153 14.147-10.818 6.657-1.664 12.898 3.745 21.22 4.161 8.287.415 20.289 9.083 27.785 14.496l.092.067c7.49 5.409 18.308 8.322 23.301 10.402 4.993 2.08 0 6.241-11.234 8.738-11.235 2.496-9.986-2.497-33.287 7.489Zm398.605 180.162c-1.997 8.321-5.548 13.73-7.074 15.395-3.745 5.975 2.497 24.548 9.571 28.292 7.073 3.745 5.408 0 10.402-.832 4.993-.832 3.744 2.081 9.985 4.993 6.241 2.913 19.972 0 25.797-3.745 5.825-3.744 6.242-2.496 15.395-4.16 9.154-1.665 5.409.832 6.658 3.744 1.248 2.913-2.913 7.074-3.329 9.57-.416 2.497-7.906 10.402-13.731 13.315-5.825 2.912-15.811 1.248-23.3 2.496-7.49 1.248-55.755-3.744-64.076-5.409-8.322-1.664-16.644-2.912-27.462-4.161-10.818-1.248-25.38 4.993-29.541 7.074-4.161 2.08-7.49-2.913-8.322-4.993-.832-2.081-6.241-10.402-8.737-13.731-1.998-2.663-3.606-7.767-4.161-9.986-1.526-4.161-4.161-12.149-2.497-10.818 2.081 1.665 5.826 1.665 7.49 1.248 1.664-.416 3.328-4.993 4.161-7.905.832-2.913.832-1.248 5.409 2.08 4.576 3.329 8.737 1.249 10.402.832 1.664-.416 1.664-2.496-.416-5.409-2.081-2.912-4.577-6.241-4.993-9.153-.416-2.913 2.496-8.738 3.744-10.402 1.249-1.665.416-3.329-2.08-5.409-2.497-2.081-4.993-.416-6.657-2.081-1.665-1.664 3.328-9.153 5.409-10.818 2.08-1.664 1.248 0 4.16 2.497 2.913 2.496 4.993 1.248 7.074 0 2.08-1.249 6.241-9.154.832-11.234-5.409-2.081-4.577-9.154-1.249-6.658 3.329 2.497 9.154-2.08 10.818-4.993 1.665-2.912 2.497 2.497 5.41 7.49 2.912 4.993 9.569 17.059 13.73 19.972 4.161 2.912 5.409-.416 9.57-4.993 4.161-4.577-.416-11.651 0-14.979.416-3.329 3.745-2.913 10.818-2.913 7.073 0 9.986-6.241 17.059-12.066 7.074-5.824 6.657-7.906 12.899-8.322 6.241-.416 17.891-4.16 20.804-5.408 2.912-1.249 11.65 1.248 19.971 4.16 8.322 2.913 28.294 3.745 27.462 5.41-.833 1.664-5.409 3.328-13.731 4.16-8.322.832-13.315-.416-13.731 4.577-.416 4.993-2.08 6.241-8.321 9.154-6.241 2.912-8.738 2.08-8.738 11.65s.416 18.308-1.664 18.724c-2.081.416-11.234-12.899-13.315-15.811-2.08-2.913-5.409 9.154-7.905 19.556ZM550.842 45.022c6.324 12.982-1.248 32.316-5.825 40.36-8.322 17.059 1.248 34.118 5.409 41.192 4.161 7.073 4.993 10.818 2.912 18.307-2.08 7.49-4.577 20.804-4.16 25.797.416 4.993-.833 12.482 3.744 15.395 4.577 2.913 6.657-7.906 11.65-13.315s4.161-11.234 19.972-13.314c15.811-2.08 24.133 20.388 28.294 23.716 4.16 3.329 17.059 21.22 27.877 36.615 10.818 15.395 31.206 22.053 40.776 29.126 9.57 7.073 7.489 22.468 7.073 33.702-.416 11.235-4.993 15.395-7.073 17.476-2.081 2.08-7.49-.832-14.979-9.57-7.49-8.738-15.811-7.073-21.22-7.906-5.409-.832-23.301-44.936-24.133-49.513-.832-4.577-7.489-6.241-11.234 0s-6.657 7.489-11.65 8.738c-4.993 1.248-17.059-4.161-21.636-5.409-4.577-1.249-14.979 7.489-19.556 19.971-4.577 12.483 25.797 12.483 32.87 19.14 7.074 6.657 4.993 13.315 0 18.724-4.993 5.409-1.664 13.314 8.322 17.059 9.986 3.745 11.65-3.329 27.461 1.664 15.811 4.993 7.073 8.738 4.161 12.899-2.913 4.16-17.475 7.073-24.133 11.65-6.657 4.577 21.636 42.024 25.381 46.185 3.745 4.16 0 2.08-5.409 4.993-5.409 2.912-11.234 19.555-12.066 20.804-.832 1.248-2.081-3.329-3.745-9.986-1.664-6.658-11.65-37.447-21.636-46.185-9.986-8.738-7.073 2.496-8.738-1.248-1.664-3.745-8.321-17.476-19.139-23.717s-7.49-18.723-7.49-32.454c0-13.731-10.818-14.979-19.139-14.979-8.322 0-12.483 3.745-19.14 0s-7.073 7.073-12.066 3.745c-4.993-3.329-34.951-21.636-44.521-30.79s-6.657-22.052-5.825-27.877c.832-5.826 12.066-5.826 19.556-7.49 7.489-1.664 5.409-12.482 9.154-19.139 3.744-6.658-8.322-20.804-20.388-28.294-12.067-7.489-17.476-9.986-14.979-17.891 2.496-7.906.416-28.294-2.497-41.192-2.912-12.899-27.877-18.308-35.366-26.63-7.49-8.32-24.133-42.44-23.717-54.506.416-12.066 6.657-9.57 23.717-12.898 17.059-3.329 96.946 2.496 123.991 8.738 27.045 6.24 11.234 2.08 19.14 18.307ZM333.233 392.03c-1.665 1.248-.417 6.657.416 7.905.416.88 3.328 7.49 3.328 9.986 0 2.497-2.912 5.409-7.073 4.993-4.161-.416-14.147 2.913-13.731 4.993.416 2.081-4.993 4.993-8.321 3.329-3.329-1.664-7.074 0-8.738 2.913-1.664 2.912 2.497 4.576 3.329 6.241.832 1.664-4.161 7.489-4.577 4.993-.416-2.497-2.497-4.993-6.241-6.658-3.745-1.664-4.161-4.993-2.913-9.153 1.248-4.161 0-7.906-2.08-11.651-2.081-3.744-.416-4.992 2.08-6.657 2.497-1.664 3.329-4.577 4.161-7.489.832-2.913 4.161-4.577 7.489-3.745 3.329.831 4.577.832 9.986 0 5.409-.833 5.825-5.409 7.49-8.738 1.664-3.328 2.08-2.496 4.577-7.489 2.496-4.993 3.744-3.329 5.409 0 1.664 3.328-2.497 6.241-4.577 11.65-2.081 5.409 7.073 2.496 8.737 1.664 1.665-.832 2.913 1.664 1.249 2.913Zm32.038-37.863c1.997-.999 1.941 5.131 1.664 8.321 0 .555.166 2.247.832 4.578.832 2.912.832 3.328-.832 4.992-1.664 1.665 1.664 13.731 1.664 17.059 0 3.328-2.496 7.49 0 12.899 2.497 5.409 3.329 6.657 2.081 7.49-1.249.832-3.745-5.409-10.818-7.49-7.074-2.08-11.651-7.489-14.563-9.986-2.913-2.498-2.913-7.489-2.913-12.898s0-7.074-2.912-13.731c-2.913-6.657-.416-2.913 2.912-2.913 3.329 0 12.067-2.08 15.811-2.496 3.745-.416 4.577-4.577 7.074-5.825Zm84.88 60.747c0 2.497-11.65 3.745-12.899 4.993-1.248.585-5.409 3.329 0 4.994 5.409 1.665 11.235 11.234 13.731 12.898 2.497 1.665 8.322 17.892 5.825 22.469-2.496 4.576-1.664 8.737-1.664 13.73s-3.329 6.241 1.664 9.986c4.993 3.745 6.657 14.563 7.073 17.475.417 2.913-1.248-.832-5.825 4.577-4.576 5.409 2.081 21.22 3.745 24.965 1.664 3.745-2.912 6.657-4.993 2.08-2.08-4.576-13.73-9.569-10.402-2.08 3.329 7.489 5.409 12.898 3.745 11.65-1.664-1.248-19.556-27.045-26.629-36.615-7.074-9.57-4.993-15.395-7.074-22.052-2.08-6.657 1.249-31.622 2.081-39.527.832-7.906-2.081-7.49-10.818-12.067-8.738-4.578 0-5.825-5.825-9.154-5.825-3.329 8.737-13.315 9.57-16.643.832-3.328-3.745-12.482-5.41-17.476-1.664-4.994-6.657 0-7.073-1.664-.416-1.664 0-1.664-1.248-5.408-1.248-3.745-5.409-2.913-4.577-8.322.832-5.409-7.489-9.154-7.489-13.731s6.657-6.657 10.402-2.496c3.744 4.161 8.737 16.227 11.65 17.891 2.912 1.665 2.08-2.08 3.745-6.657 1.664-4.577.832-9.154 0-12.898-.833-3.745 1.248-1.665 4.992-5.826 3.745-4.161 28.71 8.738 33.703 13.315 4.993 4.577 2.496 12.482 1.664 17.891-.832 5.41-3.745 2.08-5.409 7.905-1.664 5.825-2.496 0-9.154 2.913-6.657 2.912 12.899 20.388 12.899 22.884Z" fill="#C0CF63"/><path fill-rule="evenodd" clip-rule="evenodd" d="M161.493 55.094c-11.775 9.964-38.218 32.235-49.666 41.501-6.737 5.455-9.119 9.75-10.568 14.783-.654 2.273-1.117 4.693-1.666 7.564-.092.481-.186.975-.285 1.482-.675 3.493-1.501 7.502-2.898 12.216-1.464 4.941-3.53 8.594-5.895 12.11a167.068 167.068 0 0 1-2.771 3.956c-1.546 2.163-3.142 4.395-4.888 7.2-5.395 8.665-11.583 21.933-16.973 49.22-8.988 45.501-41.879 58.129-58.099 58.613l-.073-.925v-2.179l.032-.605.04-.733.05-.813.027-.265c14.14-.422 44.275-11.555 52.688-54.147 5.486-27.772 11.872-41.693 17.692-51.041 1.805-2.898 3.63-5.456 5.261-7.745.905-1.27 1.751-2.456 2.502-3.572 2.18-3.24 3.938-6.384 5.193-10.619 1.323-4.463 2.11-8.27 2.773-11.703.094-.482.185-.96.275-1.434.545-2.853 1.06-5.551 1.79-8.084 1.78-6.183 4.835-11.404 12.372-17.505 11.392-9.222 37.787-31.451 49.575-41.426l3.512 4.151Z" fill="#CE9D1D"/><circle cx="161.407" cy="50.942" r="9.147" fill="#EA3327"/><circle cx="119.093" cy="295.372" r="9.147" fill="#EA3327"/><circle cx="166.845" cy="420.443" r="9.147" fill="#EA3327"/><circle cx="574.684" cy="710.63" r="9.147" fill="#EA3327"/><circle cx="433.299" cy="513.415" r="9.147" fill="#EA3327"/><circle cx="575.696" cy="455.996" r="9.147" fill="#EA3327"/><path d="M165.838 15.407v3.18h-3.86v6.82h-3.32v-10h7.18Zm1.303 10.28a2.08 2.08 0 0 1-1.5-.6c-.4-.413-.6-.906-.6-1.48 0-.573.207-1.06.62-1.46.414-.413.907-.62 1.48-.62.574 0 1.06.207 1.46.62.414.4.62.887.62 1.46 0 .574-.206 1.067-.62 1.48-.4.4-.886.6-1.46.6Zm15.273.02c-2.107 0-3.854-.693-5.24-2.08-1.374-1.4-2.06-3.14-2.06-5.22 0-2.08.686-3.813 2.06-5.2 1.386-1.4 3.133-2.1 5.24-2.1 1.266 0 2.44.3 3.52.9 1.08.6 1.926 1.407 2.54 2.42l-3.1 1.78a2.808 2.808 0 0 0-1.2-1.16 3.52 3.52 0 0 0-1.76-.44c-1.12 0-2.027.354-2.72 1.06-.68.694-1.02 1.607-1.02 2.74 0 1.134.34 2.054 1.02 2.76.693.694 1.6 1.04 2.72 1.04.653 0 1.24-.14 1.76-.42a2.895 2.895 0 0 0 1.2-1.2l3.1 1.8a6.676 6.676 0 0 1-2.54 2.44c-1.067.587-2.24.88-3.52.88Zm12.237-.02c-1.48 0-2.74-.506-3.78-1.52-1.04-1.026-1.56-2.28-1.56-3.76s.52-2.726 1.56-3.74c1.04-1.026 2.3-1.54 3.78-1.54 1.493 0 2.753.514 3.78 1.54 1.04 1.014 1.56 2.26 1.56 3.74 0 1.48-.52 2.734-1.56 3.76-1.027 1.014-2.287 1.52-3.78 1.52Zm0-3.2c.587 0 1.067-.193 1.44-.58.387-.386.58-.886.58-1.5 0-.613-.193-1.113-.58-1.5-.373-.386-.853-.58-1.44-.58-.573 0-1.053.194-1.44.58-.373.387-.56.887-.56 1.5 0 .614.187 1.114.56 1.5.387.387.867.58 1.44.58Zm12.96-7.36c1.334 0 2.447.507 3.34 1.52.907 1 1.36 2.254 1.36 3.76 0 1.507-.453 2.767-1.36 3.78-.893 1-2.006 1.5-3.34 1.5-1.213 0-2.16-.4-2.84-1.2v4.92h-3.32v-14h3.32v.92c.68-.8 1.627-1.2 2.84-1.2Zm-2.26 6.86c.387.4.894.6 1.52.6.627 0 1.134-.2 1.52-.6.387-.4.58-.926.58-1.58 0-.653-.193-1.18-.58-1.58-.386-.4-.893-.6-1.52-.6-.626 0-1.133.2-1.52.6-.386.4-.58.927-.58 1.58 0 .654.194 1.18.58 1.58Zm16.372-6.58v3.18h-2.86v6.82h-3.32v-6.82h-2.9v-3.18h9.08Zm7.862 0h3.32v10h-3.32v-.92c-.68.8-1.626 1.2-2.84 1.2-1.333 0-2.453-.5-3.36-1.5-.893-1.013-1.34-2.273-1.34-3.78 0-1.506.447-2.76 1.34-3.76.907-1.013 2.027-1.52 3.36-1.52 1.214 0 2.16.4 2.84 1.2v-.92Zm-3.62 6.58c.387.4.894.6 1.52.6.627 0 1.134-.2 1.52-.6.387-.4.58-.926.58-1.58 0-.653-.193-1.18-.58-1.58-.386-.4-.893-.6-1.52-.6-.626 0-1.133.2-1.52.6-.386.4-.58.927-.58 1.58 0 .654.194 1.18.58 1.58Zm16.545-1.68c.933.44 1.4 1.18 1.4 2.22 0 .88-.3 1.58-.9 2.1-.6.52-1.467.78-2.6.78h-5.58v-10h5.24c1.12 0 1.98.26 2.58.78.6.52.9 1.22.9 2.1 0 .88-.347 1.554-1.04 2.02Zm-2.94-2.42h-1.56v1.32h1.56c.533 0 .8-.213.8-.64 0-.453-.267-.68-.8-.68Zm.26 5c.52 0 .78-.233.78-.7 0-.44-.26-.66-.78-.66h-1.82v1.36h1.82Zm12.451-7.48h3.32v10h-3.32v-.92c-.68.8-1.627 1.2-2.84 1.2-1.334 0-2.454-.5-3.36-1.5-.894-1.013-1.34-2.273-1.34-3.78 0-1.506.446-2.76 1.34-3.76.906-1.013 2.026-1.52 3.36-1.52 1.213 0 2.16.4 2.84 1.2v-.92Zm-3.62 6.58c.386.4.893.6 1.52.6.626 0 1.133-.2 1.52-.6.386-.4.58-.926.58-1.58 0-.653-.194-1.18-.58-1.58-.387-.4-.894-.6-1.52-.6-.627 0-1.134.2-1.52.6-.387.4-.58.927-.58 1.58 0 .654.193 1.18.58 1.58Zm18.184-6.58v10h-3.32v-6.82h-2v2.68c0 1.574-.393 2.7-1.18 3.38-.773.68-1.966.934-3.58.76v-3.08c.48.134.84.074 1.08-.18.24-.266.36-.72.36-1.36v-5.38h8.64Zm8.951 0h3.32v10h-3.32v-.92c-.68.8-1.626 1.2-2.84 1.2-1.333 0-2.453-.5-3.36-1.5-.893-1.013-1.34-2.273-1.34-3.78 0-1.506.447-2.76 1.34-3.76.907-1.013 2.027-1.52 3.36-1.52 1.214 0 2.16.4 2.84 1.2v-.92Zm-3.62 6.58c.387.4.894.6 1.52.6.627 0 1.134-.2 1.52-.6.387-.4.58-.926.58-1.58 0-.653-.193-1.18-.58-1.58-.386-.4-.893-.6-1.52-.6-.626 0-1.133.2-1.52.6-.386.4-.58.927-.58 1.58 0 .654.194 1.18.58 1.58ZM17.817 294.639h1.5v6.14h-3.56v-2.68h-6.54v2.68h-3.58v-6.14h1.48c.64-1.027.96-2.507.96-4.44v-6.1h9.74v10.54Zm-6.98 0h3.42v-7.22h-2.62v2.82c0 1.866-.266 3.333-.8 4.4Zm16.546-6.54h3.32v10h-3.32v-.92c-.68.8-1.626 1.2-2.84 1.2-1.333 0-2.453-.5-3.36-1.5-.893-1.014-1.34-2.274-1.34-3.78 0-1.507.447-2.76 1.34-3.76.907-1.014 2.027-1.52 3.36-1.52 1.214 0 2.16.4 2.84 1.2v-.92Zm-3.62 6.58c.387.4.894.6 1.52.6.627 0 1.134-.2 1.52-.6.387-.4.58-.927.58-1.58 0-.654-.193-1.18-.58-1.58-.386-.4-.893-.6-1.52-.6-.626 0-1.133.2-1.52.6-.386.4-.58.926-.58 1.58 0 .653.194 1.18.58 1.58Zm14.465-6.58h3.34v10h-3.34v-2.8c-.693.173-1.36.26-2 .26-1.2 0-2.18-.32-2.94-.96-.747-.654-1.12-1.574-1.12-2.76v-3.74h3.34v3.16c0 .813.487 1.22 1.46 1.22.44 0 .86-.067 1.26-.2v-4.18Zm12.3 0h3.32v10h-3.32v-.92c-.68.8-1.627 1.2-2.84 1.2-1.334 0-2.454-.5-3.36-1.5-.894-1.014-1.34-2.274-1.34-3.78 0-1.507.447-2.76 1.34-3.76.906-1.014 2.026-1.52 3.36-1.52 1.213 0 2.16.4 2.84 1.2v-.92Zm-3.62 6.58c.386.4.893.6 1.52.6s1.133-.2 1.52-.6c.386-.4.58-.927.58-1.58 0-.654-.194-1.18-.58-1.58-.387-.4-.894-.6-1.52-.6-.627 0-1.133.2-1.52.6-.387.4-.58.926-.58 1.58 0 .653.193 1.18.58 1.58Zm-31.53 16.18c1.173.693 1.76 1.74 1.76 3.14 0 1.24-.427 2.233-1.28 2.98-.854.746-1.994 1.12-3.42 1.12h-5.9v-14h5.52c1.4 0 2.52.36 3.36 1.08.84.706 1.26 1.673 1.26 2.9 0 1.173-.434 2.1-1.3 2.78Zm-3.42-3.56h-1.84v2.2h1.84c.32 0 .586-.094.8-.28.226-.2.34-.474.34-.82 0-.334-.107-.6-.32-.8-.214-.2-.487-.3-.82-.3Zm.38 7.6c.36 0 .653-.107.88-.32a1.17 1.17 0 0 0 .34-.86c0-.36-.114-.647-.34-.86-.227-.214-.52-.32-.88-.32h-2.22v2.36h2.22Zm13.21-6.8h2.56v10h-3.24v-4.68l-3.88 4.68h-2.56v-10h3.24v4.68l3.88-4.68Zm10.742 0h3.32v10h-3.32v-3.44h-2.94v3.44h-3.32v-10h3.32v3.44h2.94v-3.44Zm13.524 0v3.18h-2.86v6.82h-3.32v-6.82h-2.9v-3.18h9.08Zm3.762 6.22c.334.813 1.08 1.22 2.24 1.22.72 0 1.327-.234 1.82-.7l2.4 1.68c-.986 1.24-2.42 1.86-4.3 1.86-1.693 0-3.053-.494-4.08-1.48-1.013-1-1.52-2.26-1.52-3.78 0-1.507.5-2.767 1.5-3.78 1-1.014 2.274-1.52 3.82-1.52 1.494 0 2.727.5 3.7 1.5.974 1 1.46 2.253 1.46 3.76 0 .44-.046.853-.14 1.24h-6.9Zm-.04-2.3h3.84c-.266-.934-.893-1.4-1.88-1.4-1.026 0-1.68.466-1.96 1.4Zm14.666-4.2c1.333 0 2.447.506 3.34 1.52.907 1 1.36 2.253 1.36 3.76 0 1.506-.453 2.766-1.36 3.78-.893 1-2.007 1.5-3.34 1.5-1.213 0-2.16-.4-2.84-1.2v4.92h-3.32v-14h3.32v.92c.68-.8 1.627-1.2 2.84-1.2Zm-2.26 6.86c.387.4.893.6 1.52.6s1.133-.2 1.52-.6c.387-.4.58-.927.58-1.58 0-.654-.193-1.18-.58-1.58-.387-.4-.893-.6-1.52-.6s-1.133.2-1.52.6c-.387.4-.58.926-.58 1.58 0 .653.193 1.18.58 1.58Zm15.465-6.58h3.32v10h-3.32v-.92c-.68.8-1.627 1.2-2.84 1.2-1.334 0-2.454-.5-3.36-1.5-.894-1.014-1.34-2.274-1.34-3.78 0-1.507.446-2.76 1.34-3.76.906-1.014 2.026-1.52 3.36-1.52 1.213 0 2.16.4 2.84 1.2v-.92Zm-3.62 6.58c.386.4.893.6 1.52.6.626 0 1.133-.2 1.52-.6.386-.4.58-.927.58-1.58 0-.654-.194-1.18-.58-1.58-.387-.4-.894-.6-1.52-.6-.627 0-1.134.2-1.52.6-.387.4-.58.926-.58 1.58 0 .653.193 1.18.58 1.58ZM92.947 449.9c-1.48 0-2.74-.507-3.78-1.52-1.04-1.027-1.56-2.28-1.56-3.76s.52-2.727 1.56-3.74c1.04-1.027 2.3-1.54 3.78-1.54 1.493 0 2.753.513 3.78 1.54 1.04 1.013 1.56 2.26 1.56 3.74 0 1.48-.52 2.733-1.56 3.76-1.027 1.013-2.287 1.52-3.78 1.52Zm0-3.2c.587 0 1.067-.193 1.44-.58.387-.387.58-.887.58-1.5s-.193-1.113-.58-1.5c-.373-.387-.853-.58-1.44-.58-.573 0-1.053.193-1.44.58-.373.387-.56.887-.56 1.5s.187 1.113.56 1.5c.387.387.867.58 1.44.58Zm7.939 3.2a2.08 2.08 0 0 1-1.5-.6c-.4-.413-.6-.907-.6-1.48s.207-1.06.62-1.46c.414-.413.907-.62 1.48-.62.574 0 1.06.207 1.46.62.414.4.62.887.62 1.46s-.206 1.067-.62 1.48c-.4.4-.886.6-1.46.6Zm19.933-.28h-4l-2.2-3.72-2.2 3.72h-4.02l4.22-7.14-4.06-6.86h4.02l2.04 3.46 2.04-3.46h4.02l-4.06 6.88 4.2 7.12Zm7.433-10h3.32v10h-3.32v-.92c-.68.8-1.626 1.2-2.84 1.2-1.333 0-2.453-.5-3.36-1.5-.893-1.013-1.34-2.273-1.34-3.78 0-1.507.447-2.76 1.34-3.76.907-1.013 2.027-1.52 3.36-1.52 1.214 0 2.16.4 2.84 1.2v-.92Zm-3.62 6.58c.387.4.894.6 1.52.6.627 0 1.134-.2 1.52-.6.387-.4.58-.927.58-1.58s-.193-1.18-.58-1.58c-.386-.4-.893-.6-1.52-.6-.626 0-1.133.2-1.52.6-.386.4-.58.927-.58 1.58s.194 1.18.58 1.58Zm16.545-1.68c.933.44 1.4 1.18 1.4 2.22 0 .88-.3 1.58-.9 2.1-.6.52-1.467.78-2.6.78h-5.58v-10h5.24c1.12 0 1.98.26 2.58.78.6.52.9 1.22.9 2.1 0 .88-.347 1.553-1.04 2.02Zm-2.94-2.42h-1.56v1.32h1.56c.533 0 .8-.213.8-.64 0-.453-.267-.68-.8-.68Zm.26 5c.52 0 .78-.233.78-.7 0-.44-.26-.66-.78-.66h-1.82v1.36h1.82Zm11.34-7.48h3.68l-3.38 9.7c-1.04 3.013-3.067 4.447-6.08 4.3v-3.12c.693 0 1.22-.073 1.58-.22.36-.147.647-.42.86-.82l-3.96-9.84h3.66l2.06 5.8 1.58-5.8Zm9.008 10.28c-1.52 0-2.787-.507-3.8-1.52s-1.52-2.267-1.52-3.76c0-1.493.507-2.747 1.52-3.76s2.28-1.52 3.8-1.52c.987 0 1.88.233 2.68.7a4.9 4.9 0 0 1 1.88 1.88l-2.84 1.64c-.36-.653-.94-.98-1.74-.98-.56 0-1.027.193-1.4.58-.373.373-.56.86-.56 1.46s.187 1.093.56 1.48c.373.373.84.56 1.4.56.827 0 1.407-.333 1.74-1l2.84 1.64a4.862 4.862 0 0 1-1.88 1.9c-.8.467-1.693.7-2.68.7Zm300.393 291.023c-1.48 0-2.74-.507-3.78-1.52-1.04-1.027-1.56-2.28-1.56-3.76s.52-2.727 1.56-3.74c1.04-1.027 2.3-1.54 3.78-1.54 1.493 0 2.753.513 3.78 1.54 1.04 1.013 1.56 2.26 1.56 3.74 0 1.48-.52 2.733-1.56 3.76-1.027 1.013-2.287 1.52-3.78 1.52Zm0-3.2c.587 0 1.067-.194 1.44-.58.387-.387.58-.887.58-1.5 0-.614-.193-1.114-.58-1.5-.373-.387-.853-.58-1.44-.58-.573 0-1.053.193-1.44.58-.373.386-.56.886-.56 1.5 0 .613.187 1.113.56 1.5.387.386.867.58 1.44.58Zm7.939 3.2a2.08 2.08 0 0 1-1.5-.6c-.4-.414-.6-.907-.6-1.48 0-.574.207-1.06.62-1.46a2.02 2.02 0 0 1 1.48-.62c.574 0 1.06.206 1.46.62.414.4.62.886.62 1.46a2.02 2.02 0 0 1-.62 1.48c-.4.4-.886.6-1.46.6Zm17.353-7.52c1.173.693 1.76 1.74 1.76 3.14 0 1.24-.427 2.233-1.28 2.98-.853.746-1.993 1.12-3.42 1.12h-5.9v-14h5.52c1.4 0 2.52.36 3.36 1.08.84.706 1.26 1.673 1.26 2.9 0 1.173-.433 2.1-1.3 2.78Zm-3.42-3.56h-1.84v2.2h1.84c.32 0 .587-.094.8-.28.227-.2.34-.474.34-.82 0-.334-.107-.6-.32-.8-.213-.2-.487-.3-.82-.3Zm.38 7.6c.36 0 .653-.107.88-.32.227-.227.34-.514.34-.86 0-.36-.113-.647-.34-.86-.227-.214-.52-.32-.88-.32h-2.22v2.36h2.22Zm13.346-6.8h3.32v10h-3.32v-.92c-.68.8-1.626 1.2-2.84 1.2-1.333 0-2.453-.5-3.36-1.5-.893-1.014-1.34-2.274-1.34-3.78 0-1.507.447-2.76 1.34-3.76.907-1.014 2.027-1.52 3.36-1.52 1.214 0 2.16.4 2.84 1.2v-.92Zm-3.62 6.58c.387.4.894.6 1.52.6.627 0 1.134-.2 1.52-.6.387-.4.58-.927.58-1.58 0-.654-.193-1.18-.58-1.58-.386-.4-.893-.6-1.52-.6-.626 0-1.133.2-1.52.6-.386.4-.58.926-.58 1.58 0 .653.194 1.18.58 1.58Zm18.185-6.58v10h-3.32v-6.82h-2v2.68c0 1.573-.393 2.7-1.18 3.38-.773.68-1.967.933-3.58.76v-3.08c.48.133.84.073 1.08-.18.24-.267.36-.72.36-1.36v-5.38h8.64Zm8.951 0h3.32v10h-3.32v-.92c-.68.8-1.627 1.2-2.84 1.2-1.333 0-2.453-.5-3.36-1.5-.893-1.014-1.34-2.274-1.34-3.78 0-1.507.447-2.76 1.34-3.76.907-1.014 2.027-1.52 3.36-1.52 1.213 0 2.16.4 2.84 1.2v-.92Zm-3.62 6.58c.387.4.893.6 1.52.6s1.133-.2 1.52-.6c.387-.4.58-.927.58-1.58 0-.654-.193-1.18-.58-1.58-.387-.4-.893-.6-1.52-.6s-1.133.2-1.52.6c-.387.4-.58.926-.58 1.58 0 .653.193 1.18.58 1.58Zm15.905-6.58h3.32v10h-3.32v-.92c-.68.8-1.626 1.2-2.84 1.2-1.333 0-2.453-.5-3.36-1.5-.893-1.014-1.34-2.274-1.34-3.78 0-1.507.447-2.76 1.34-3.76.907-1.014 2.027-1.52 3.36-1.52 1.214 0 2.16.4 2.84 1.2v-.92Zm-3.62 6.58c.387.4.894.6 1.52.6.627 0 1.134-.2 1.52-.6.387-.4.58-.927.58-1.58 0-.654-.193-1.18-.58-1.58-.386-.4-.893-.6-1.52-.6-.626 0-1.133.2-1.52.6-.386.4-.58.926-.58 1.58 0 .653.194 1.18.58 1.58Zm19.905-6.58v10h-3.2v-4.82l-2.14 3.32h-.36l-2.12-3.3v4.8h-3.22v-10h3.22l2.3 3.6 2.32-3.6h3.2ZM352.458 467.541c-1.48 0-2.74-.506-3.78-1.52-1.04-1.026-1.56-2.28-1.56-3.76s.52-2.726 1.56-3.74c1.04-1.026 2.3-1.54 3.78-1.54 1.493 0 2.753.514 3.78 1.54 1.04 1.014 1.56 2.26 1.56 3.74 0 1.48-.52 2.734-1.56 3.76-1.027 1.014-2.287 1.52-3.78 1.52Zm0-3.2c.586 0 1.066-.193 1.44-.58.386-.386.58-.886.58-1.5 0-.613-.194-1.113-.58-1.5-.374-.386-.854-.58-1.44-.58-.574 0-1.054.194-1.44.58-.374.387-.56.887-.56 1.5 0 .614.186 1.114.56 1.5.386.387.866.58 1.44.58Zm7.939 3.2c-.587 0-1.087-.2-1.5-.6-.4-.413-.6-.906-.6-1.48 0-.573.207-1.06.62-1.46.413-.413.907-.62 1.48-.62s1.06.207 1.46.62c.413.4.62.887.62 1.46a2.02 2.02 0 0 1-.62 1.48c-.4.4-.887.6-1.46.6Zm19.933-.28h-4l-2.2-3.72-2.2 3.72h-4.02l4.22-7.14-4.06-6.86h4.02l2.04 3.46 2.04-3.46h4.02l-4.06 6.88 4.2 7.12Zm5.233.28c-1.48 0-2.74-.506-3.78-1.52-1.04-1.026-1.56-2.28-1.56-3.76s.52-2.726 1.56-3.74c1.04-1.026 2.3-1.54 3.78-1.54 1.493 0 2.753.514 3.78 1.54 1.04 1.014 1.56 2.26 1.56 3.74 0 1.48-.52 2.734-1.56 3.76-1.027 1.014-2.287 1.52-3.78 1.52Zm0-3.2c.587 0 1.067-.193 1.44-.58.387-.386.58-.886.58-1.5 0-.613-.193-1.113-.58-1.5-.373-.386-.853-.58-1.44-.58-.573 0-1.053.194-1.44.58-.373.387-.56.887-.56 1.5 0 .614.187 1.114.56 1.5.387.387.867.58 1.44.58Zm13.06-7.08h3.32v10h-3.32v-3.44h-2.94v3.44h-3.32v-10h3.32v3.44h2.94v-3.44Zm15.124 10h-3.72l-2.84-4.26v4.26h-3.32v-10h3.32v4.18l2.58-4.18h3.84l-3.36 5 3.5 5Zm7.376-10h3.32v10h-3.32v-.92c-.68.8-1.627 1.2-2.84 1.2-1.334 0-2.454-.5-3.36-1.5-.894-1.013-1.34-2.273-1.34-3.78 0-1.506.446-2.76 1.34-3.76.906-1.013 2.026-1.52 3.36-1.52 1.213 0 2.16.4 2.84 1.2v-.92Zm-3.62 6.58c.386.4.893.6 1.52.6.626 0 1.133-.2 1.52-.6.386-.4.58-.926.58-1.58 0-.653-.194-1.18-.58-1.58-.387-.4-.894-.6-1.52-.6-.627 0-1.134.2-1.52.6-.387.4-.58.927-.58 1.58 0 .654.193 1.18.58 1.58Zm13.685 3.7c-1.52 0-2.787-.506-3.8-1.52-1.014-1.013-1.52-2.266-1.52-3.76 0-1.493.506-2.746 1.52-3.76 1.013-1.013 2.28-1.52 3.8-1.52.986 0 1.88.234 2.68.7a4.907 4.907 0 0 1 1.88 1.88l-2.84 1.64c-.36-.653-.94-.98-1.74-.98-.56 0-1.027.194-1.4.58-.374.374-.56.86-.56 1.46s.186 1.094.56 1.48c.373.374.84.56 1.4.56.826 0 1.406-.333 1.74-1l2.84 1.64a4.856 4.856 0 0 1-1.88 1.9c-.8.467-1.694.7-2.68.7Zm12.493-10.28h3.32v10h-3.32v-.92c-.68.8-1.627 1.2-2.84 1.2-1.333 0-2.453-.5-3.36-1.5-.893-1.013-1.34-2.273-1.34-3.78 0-1.506.447-2.76 1.34-3.76.907-1.013 2.027-1.52 3.36-1.52 1.213 0 2.16.4 2.84 1.2v-.92Zm-3.62 6.58c.387.4.893.6 1.52.6s1.133-.2 1.52-.6c.387-.4.58-.926.58-1.58 0-.653-.193-1.18-.58-1.58-.387-.4-.893-.6-1.52-.6s-1.133.2-1.52.6c-.387.4-.58.927-.58 1.58 0 .654.193 1.18.58 1.58Zm18.185-6.58v10h-3.32v-6.82h-2v2.68c0 1.574-.394 2.7-1.18 3.38-.774.68-1.967.934-3.58.76v-3.08c.48.134.84.074 1.08-.18.24-.266.36-.72.36-1.36v-5.38h8.64Zm6.751 10.28c-1.48 0-2.74-.506-3.78-1.52-1.04-1.026-1.56-2.28-1.56-3.76s.52-2.726 1.56-3.74c1.04-1.026 2.3-1.54 3.78-1.54 1.493 0 2.753.514 3.78 1.54 1.04 1.014 1.56 2.26 1.56 3.74 0 1.48-.52 2.734-1.56 3.76-1.027 1.014-2.287 1.52-3.78 1.52Zm0-3.2c.586 0 1.066-.193 1.44-.58.386-.386.58-.886.58-1.5 0-.613-.194-1.113-.58-1.5-.374-.386-.854-.58-1.44-.58-.574 0-1.054.194-1.44.58-.374.387-.56.887-.56 1.5 0 .614.186 1.114.56 1.5.386.387.866.58 1.44.58Zm12.033-35.144c-1.48 0-2.74-.506-3.78-1.52-1.04-1.026-1.56-2.28-1.56-3.76s.52-2.726 1.56-3.74c1.04-1.026 2.3-1.54 3.78-1.54 1.493 0 2.753.514 3.78 1.54 1.04 1.014 1.56 2.26 1.56 3.74 0 1.48-.52 2.734-1.56 3.76-1.027 1.014-2.287 1.52-3.78 1.52Zm0-3.2c.587 0 1.067-.193 1.44-.58.387-.386.58-.886.58-1.5 0-.613-.193-1.113-.58-1.5-.373-.386-.853-.58-1.44-.58-.573 0-1.053.194-1.44.58-.373.387-.56.887-.56 1.5 0 .614.187 1.114.56 1.5.387.387.867.58 1.44.58Zm7.939 3.2a2.08 2.08 0 0 1-1.5-.6c-.4-.413-.6-.906-.6-1.48 0-.573.207-1.06.62-1.46.414-.413.907-.62 1.48-.62.574 0 1.06.207 1.46.62.414.4.62.887.62 1.46 0 .574-.206 1.067-.62 1.48-.4.4-.886.6-1.46.6Zm20.113-.28h-4l-4.02-6.26v6.26h-3.58v-14h3.58v5.88l3.82-5.88h4l-4.44 6.8 4.64 7.2Zm7.039-10h3.32v10h-3.32v-.92c-.68.8-1.627 1.2-2.84 1.2-1.334 0-2.454-.5-3.36-1.5-.894-1.013-1.34-2.273-1.34-3.78 0-1.506.446-2.76 1.34-3.76.906-1.013 2.026-1.52 3.36-1.52 1.213 0 2.16.4 2.84 1.2v-.92Zm-3.62 6.58c.386.4.893.6 1.52.6.626 0 1.133-.2 1.52-.6.386-.4.58-.926.58-1.58 0-.653-.194-1.18-.58-1.58-.387-.4-.894-.6-1.52-.6-.627 0-1.134.2-1.52.6-.387.4-.58.927-.58 1.58 0 .654.193 1.18.58 1.58Zm15.905-6.58h3.32v10h-3.32v-.92c-.68.8-1.627 1.2-2.84 1.2-1.334 0-2.454-.5-3.36-1.5-.894-1.013-1.34-2.273-1.34-3.78 0-1.506.446-2.76 1.34-3.76.906-1.013 2.026-1.52 3.36-1.52 1.213 0 2.16.4 2.84 1.2v-.92Zm-3.62 6.58c.386.4.893.6 1.52.6.626 0 1.133-.2 1.52-.6.386-.4.58-.926.58-1.58 0-.653-.194-1.18-.58-1.58-.387-.4-.894-.6-1.52-.6-.627 0-1.134.2-1.52.6-.387.4-.58.927-.58 1.58 0 .654.193 1.18.58 1.58Zm15.024-6.86c1.334 0 2.447.507 3.34 1.52.907 1 1.36 2.254 1.36 3.76 0 1.507-.453 2.767-1.36 3.78-.893 1-2.006 1.5-3.34 1.5-1.213 0-2.16-.4-2.84-1.2v4.92h-3.32v-14h3.32v.92c.68-.8 1.627-1.2 2.84-1.2Zm-2.26 6.86c.387.4.894.6 1.52.6.627 0 1.134-.2 1.52-.6.387-.4.58-.926.58-1.58 0-.653-.193-1.18-.58-1.58-.386-.4-.893-.6-1.52-.6-.626 0-1.133.2-1.52.6-.386.4-.58.927-.58 1.58 0 .654.194 1.18.58 1.58Zm14.665-6.58h3.32v10h-3.32v-3.44h-2.94v3.44h-3.32v-10h3.32v3.44h2.94v-3.44Zm8.184 6.22c.334.814 1.08 1.22 2.24 1.22.72 0 1.327-.233 1.82-.7l2.4 1.68c-.986 1.24-2.42 1.86-4.3 1.86-1.693 0-3.053-.493-4.08-1.48-1.013-1-1.52-2.26-1.52-3.78 0-1.506.5-2.766 1.5-3.78 1-1.013 2.274-1.52 3.82-1.52 1.494 0 2.727.5 3.7 1.5.974 1 1.46 2.254 1.46 3.76 0 .44-.046.854-.14 1.24h-6.9Zm-.04-2.3h3.84c-.266-.933-.893-1.4-1.88-1.4-1.026 0-1.68.467-1.96 1.4Zm16.474-3.92v3.18h-2.86v6.82h-3.32v-6.82h-2.9v-3.18h9.08Zm5.642 10.28c-1.52 0-2.787-.506-3.8-1.52-1.014-1.013-1.52-2.266-1.52-3.76 0-1.493.506-2.746 1.52-3.76 1.013-1.013 2.28-1.52 3.8-1.52.986 0 1.88.234 2.68.7a4.907 4.907 0 0 1 1.88 1.88l-2.84 1.64c-.36-.653-.94-.98-1.74-.98-.56 0-1.027.194-1.4.58-.374.374-.56.86-.56 1.46s.186 1.094.56 1.48c.373.374.84.56 1.4.56.826 0 1.406-.333 1.74-1l2.84 1.64a4.856 4.856 0 0 1-1.88 1.9c-.8.467-1.694.7-2.68.7Zm12.493-10.28h3.32v10h-3.32v-.92c-.68.8-1.626 1.2-2.84 1.2-1.333 0-2.453-.5-3.36-1.5-.893-1.013-1.34-2.273-1.34-3.78 0-1.506.447-2.76 1.34-3.76.907-1.013 2.027-1.52 3.36-1.52 1.214 0 2.16.4 2.84 1.2v-.92Zm-3.62 6.58c.387.4.894.6 1.52.6.627 0 1.134-.2 1.52-.6.387-.4.58-.926.58-1.58 0-.653-.193-1.18-.58-1.58-.386-.4-.893-.6-1.52-.6-.626 0-1.133.2-1.52.6-.386.4-.58.927-.58 1.58 0 .654.194 1.18.58 1.58Zm15.905-6.58h3.32v10h-3.32v-.92c-.68.8-1.626 1.2-2.84 1.2-1.333 0-2.453-.5-3.36-1.5-.893-1.013-1.34-2.273-1.34-3.78 0-1.506.447-2.76 1.34-3.76.907-1.013 2.027-1.52 3.36-1.52 1.214 0 2.16.4 2.84 1.2v-.92Zm-3.62 6.58c.387.4.894.6 1.52.6.627 0 1.134-.2 1.52-.6.387-.4.58-.926.58-1.58 0-.653-.193-1.18-.58-1.58-.386-.4-.893-.6-1.52-.6-.626 0-1.133.2-1.52.6-.386.4-.58.927-.58 1.58 0 .654.194 1.18.58 1.58Zm15.025-6.86c1.333 0 2.447.507 3.34 1.52.907 1 1.36 2.254 1.36 3.76 0 1.507-.453 2.767-1.36 3.78-.893 1-2.007 1.5-3.34 1.5-1.213 0-2.16-.4-2.84-1.2v4.92h-3.32v-14h3.32v.92c.68-.8 1.627-1.2 2.84-1.2Zm-2.26 6.86c.387.4.893.6 1.52.6s1.133-.2 1.52-.6c.387-.4.58-.926.58-1.58 0-.653-.193-1.18-.58-1.58-.387-.4-.893-.6-1.52-.6s-1.133.2-1.52.6c-.387.4-.58.927-.58 1.58 0 .654.193 1.18.58 1.58Zm15.525-6.58h2.56v10h-3.24v-4.68l-3.88 4.68h-2.56v-10h3.24v4.68l3.88-4.68Z" fill="#EA2727"/><path d="m146.615 174.133-.144-1.177" stroke="#EA3327" stroke-width="1.14" stroke-miterlimit="10"/><path d="M353.075 488.806c-1.055 0-1.937-.355-2.646-1.064-.7-.709-1.05-1.587-1.05-2.632 0-1.045.35-1.923 1.05-2.632.709-.709 1.591-1.064 2.646-1.064.681 0 1.302.163 1.862.49.56.327.985.765 1.274 1.316l-1.554.91a1.577 1.577 0 0 0-.644-.686 1.813 1.813 0 0 0-.952-.252c-.541 0-.989.182-1.344.546-.355.355-.532.812-.532 1.372 0 .551.177 1.008.532 1.372.355.355.803.532 1.344.532.364 0 .686-.079.966-.238.289-.168.504-.397.644-.686l1.568.896a3.556 3.556 0 0 1-1.302 1.33c-.56.327-1.181.49-1.862.49Zm9.594-7.196v1.736h-2.184v5.264h-1.806v-5.264h-2.212v-1.736h6.202Zm6.655 6.132c-.718.709-1.596 1.064-2.632 1.064s-1.913-.355-2.632-1.064c-.709-.719-1.064-1.596-1.064-2.632s.355-1.909 1.064-2.618c.719-.719 1.596-1.078 2.632-1.078s1.914.359 2.632 1.078c.719.709 1.078 1.582 1.078 2.618 0 1.036-.359 1.913-1.078 2.632Zm-3.99-1.246c.364.364.817.546 1.358.546.542 0 .994-.182 1.358-.546.364-.364.546-.826.546-1.386 0-.56-.182-1.022-.546-1.386-.364-.364-.816-.546-1.358-.546-.541 0-.994.182-1.358.546-.354.364-.532.826-.532 1.386 0 .56.178 1.022.532 1.386Zm11.679-4.886v7h-1.764v-2.184h-.63l-1.61 2.184h-2.086l1.75-2.394a2.38 2.38 0 0 1-1.078-.882 2.411 2.411 0 0 1-.392-1.316c0-.653.234-1.218.7-1.694.467-.476 1.078-.714 1.834-.714h3.276Zm-3.136 1.61a.95.95 0 0 0-.658.238c-.168.149-.252.355-.252.616 0 .252.084.453.252.602a.99.99 0 0 0 .658.224h1.372v-1.68h-1.372Zm9.374-1.61h1.806v7h-1.806v-2.66h-2.786v2.66h-1.806v-7h1.806v2.646h2.786v-2.646Zm9.915 7h-2.1l-2.548-3.178v3.178h-1.806v-7h1.806v3.08l2.408-3.08h2.156l-2.814 3.458 2.898 3.542Zm5.715-7h1.806v7h-1.806v-.826c-.541.681-1.302 1.022-2.282 1.022-.933 0-1.736-.355-2.408-1.064-.662-.719-.994-1.596-.994-2.632s.332-1.909.994-2.618c.672-.719 1.475-1.078 2.408-1.078.98 0 1.741.341 2.282 1.022v-.826Zm-3.332 4.928c.364.364.826.546 1.386.546.56 0 1.022-.182 1.386-.546.374-.373.56-.849.56-1.428s-.186-1.05-.56-1.414c-.364-.373-.826-.56-1.386-.56-.56 0-1.022.187-1.386.56-.364.364-.546.835-.546 1.414s.182 1.055.546 1.428Zm14.392-3.752c.663.196 1.199.541 1.61 1.036.42.485.63 1.073.63 1.764 0 1.008-.341 1.797-1.022 2.366-.672.569-1.498.854-2.478.854-.765 0-1.451-.173-2.058-.518-.597-.355-1.031-.873-1.302-1.554l1.652-.952c.243.756.812 1.134 1.708 1.134.495 0 .877-.117 1.148-.35.28-.243.42-.569.42-.98 0-.401-.14-.723-.42-.966-.271-.243-.653-.364-1.148-.364h-.42l-.742-1.12 1.932-2.52h-3.836v-1.806h6.16v1.596l-1.834 2.38Zm7.097 6.02c-1.223 0-2.184-.462-2.884-1.386-.691-.933-1.036-2.17-1.036-3.71s.345-2.772 1.036-3.696c.7-.933 1.661-1.4 2.884-1.4 1.232 0 2.193.467 2.884 1.4.691.924 1.036 2.156 1.036 3.696s-.345 2.777-1.036 3.71c-.691.924-1.652 1.386-2.884 1.386Zm-1.484-2.702c.336.541.831.812 1.484.812s1.148-.275 1.484-.826c.345-.551.518-1.344.518-2.38 0-1.045-.173-1.843-.518-2.394-.336-.551-.831-.826-1.484-.826s-1.148.275-1.484.826c-.336.551-.504 1.349-.504 2.394 0 1.045.168 1.843.504 2.394Zm17.498-4.494v7h-1.75v-4.088l-1.778 2.8h-.224l-1.792-2.828v4.116h-1.736v-7h1.778l1.862 2.94 1.862-2.94h1.778Zm6.702 0h1.344v7h-1.764v-3.976l-3.29 3.976H434.7v-7h1.764v3.976l3.29-3.976Zm7.591 0h1.806v7h-1.806v-2.66h-2.786v2.66h-1.806v-7h1.806v2.646h2.786v-2.646Zm8.024 0h1.932l-2.548 7c-.709 1.969-1.941 2.903-3.696 2.8v-1.68c.476.009.85-.079 1.12-.266.28-.187.504-.499.672-.938l-2.828-6.916h1.918l1.876 4.704 1.554-4.704Zm8.417 0v1.736h-2.184v5.264h-1.806v-5.264h-2.212v-1.736h6.202Z" fill="#009FE3"/><path d="m163 51.5.86-.51-1.859.472.999.038Zm-6.92 87.858.906.423-.906-.423Zm-11.149 78.04.999.048-.999-.048Zm-16.722 108.118-.611-.792.611.792ZM178.5 401.5l.735-.678-.735.678Zm36 73 .992-.129-.992.129Zm58.641 60.635.266-.964-.266.964Zm83.615 78.041.436-.9-.436.9Zm150.507 55.743.716-.698-.716.698Zm-5.574-89.189.34-.941-.34.941ZM400 507.5l-.988-.152.988.152ZM364 414l.215-.977L364 414Zm-29.5-39 .812-.584-.812.584Zm-16-3.5-.863-.505.863.505Zm-73.23 52.149.308-.952-.308.952Zm-33.447-33.446.38-.926-.38.926Zm-41.062-24.687-.897.441.897-.441Zm-11.536-50.761.987.163-.987-.163Zm8.004-94.235 1-.017-1 .017Zm39.02-64.439.916.402-.916-.402Zm363.865 554.536a1 1 0 1 0-.717 1.867l.717-1.867Zm-8.21-1.123a1 1 0 1 0 .779-1.842l-.779 1.842Zm-6.476-5.151a1 1 0 1 0-.884 1.795l.884-1.795Zm-8.03-1.999a1 1 0 1 0 .991-1.737l-.991 1.737Zm-5.826-5.892a1 1 0 1 0-1.089 1.677l1.089-1.677Zm-7.747-2.899a1 1 0 1 0 1.174-1.619l-1.174 1.619Zm-5.174-6.456a1 1 0 0 0-1.248 1.564l1.248-1.564Zm-7.456-3.608a1 1 0 1 0 1.31-1.511l-1.31 1.511Zm-4.64-6.868a1 1 0 1 0-1.364 1.462l1.364-1.462Zm-7.17-4.136a1.001 1.001 0 0 0 1.411-1.418l-1.411 1.418Zm-4.343-7.147a.999.999 0 1 0-1.37 1.457l1.37-1.457Zm-7.457-3.793a1 1 0 0 0 1.24-1.569l-1.24 1.569Zm-5.4-6.385a1 1 0 1 0-1.107 1.666l1.107-1.666Zm-7.98-2.527a1 1 0 1 0 .977-1.745l-.977 1.745Zm-6.31-5.492a1 1 0 0 0-.854 1.809l.854-1.809Zm-8.251-1.408a1 1 0 1 0 .744-1.856l-.744 1.856Zm-6.925-4.694a1 1 0 0 0-.647 1.892l.647-1.892Zm-8.354-.558a1.001 1.001 0 0 0 .567-1.918l-.567 1.918Zm-7.295-4.096a1 1 0 1 0-.503 1.935l.503-1.935Zm-8.372 0a1 1 0 0 0 .455-1.948l-.455 1.948Zm-7.493-3.728a1 1 0 0 0-.422 1.955l.422-1.955Zm-8.367.282a1 1 0 0 0 .405-1.958l-.405 1.958Zm-7.559-3.591a1 1 0 1 0-.401 1.96l.401-1.96Zm-8.367.308a1 1 0 0 0 .414-1.957l-.414 1.957Zm-7.514-3.683a.999.999 0 1 0-.44 1.95l.44-1.95Zm-8.371.075a1 1 0 1 0 .482-1.941l-.482 1.941Zm-7.347-4.009a1 1 0 0 0-.541 1.926l.541-1.926Zm-8.358-.431a1 1 0 1 0 .616-1.902l-.616 1.902Zm-7.011-4.57a1 1 0 1 0-.707 1.871l.707-1.871Zm-8.277-1.236a1 1 0 1 0 .814-1.827l-.814 1.827Zm-6.531-5.412a1 1 0 1 0-.948 1.761l.948-1.761Zm-8.193-2.573a1 1 0 1 0 1.105-1.667l-1.105 1.667Zm-5.54-6.546a1 1 0 1 0-1.26 1.552l1.26-1.552Zm-7.544-4.075a1 1 0 1 0 1.404-1.424l-1.404 1.424Zm-4.206-7.474a.999.999 0 1 0-1.523 1.296l1.523-1.296Zm-6.732-5.313a1 1 0 1 0 1.611-1.185l-1.611 1.185Zm-3.129-7.999a1 1 0 1 0-1.665 1.107l1.665-1.107Zm-6.216-5.903a1 1 0 0 0 1.683-1.081l-1.683 1.081Zm-2.889-8.092a1 1 0 0 0-1.66 1.116l1.66-1.116Zm-6.47-5.621a1 1 0 1 0 1.585-1.219l-1.585 1.219Zm-3.906-7.644a1 1 0 1 0-1.441 1.386l1.441-1.386Zm-7.524-4.097a1 1 0 0 0 1.222-1.583l-1.222 1.583Zm-5.907-6.203a1 1 0 0 0-.945 1.763l.945-1.763Zm-8.448-1.527a.999.999 0 1 0 .662-1.887l-.662 1.887Zm-6.92-4.195a1 1 0 0 0-.603 1.907l.603-1.907Zm-7.665-.633a.999.999 0 1 0 .751-1.853l-.751 1.853Zm-5.928-4.891a1 1 0 1 0-.904 1.784l.904-1.784Zm-7.447-1.903a1 1 0 0 0 1.058-1.697l-1.058 1.697Zm-4.984-5.859a1 1 0 1 0-1.209 1.593l1.209-1.593Zm-6.978-3.225a1 1 0 1 0 1.353-1.473l-1.353 1.473Zm-3.802-6.679a1 1 0 0 0-1.486 1.339l1.486-1.339Zm-6.245-4.481a1 1 0 1 0 1.607-1.191l-1.607 1.191Zm-2.468-7.283a1 1 0 0 0-1.714 1.031l1.714-1.031Zm-5.271-5.597a1 1 0 0 0 1.808-.857l-1.808.857Zm-.979-7.615a1 1 0 0 0-1.887.662l1.887-.662Zm-3.954-6.603a1 1 0 0 0 1.955-.42l-1.955.42Zm.843-7.735a1.001 1.001 0 0 0-1.983.261l1.983-.261Zm-2.96-7.212a1 1 0 1 0 1.984-.252l-1.984.252Zm1.162-7.699a1 1 0 1 0-1.993.167l1.993-.167Zm-2.352-7.428a1 1 0 1 0 1.999-.032l-1.999.032Zm1.403-7.85a1.001 1.001 0 0 0-1.922.554l1.922-.554Zm-5.426-5.79a1 1 0 0 0 1.581-1.225l-1.581 1.225Zm-3.367-7.13a1 1 0 0 0-1.539 1.276l1.539-1.276Zm-6.095-5.088a1 1 0 1 0 1.728-1.007l-1.728 1.007Zm-1.389-7.251a1 1 0 0 0-1.742.982l1.742-.982Zm-5.402-3.752a1 1 0 0 0 1.367-1.46l-1.367 1.46Zm-3.949-5.236a1 1 0 1 0-1.01 1.726l1.01-1.726Zm-6.433-1.762a1 1 0 0 0 1.243-1.567l-1.243 1.567Zm-3.571-6.25a.999.999 0 1 0-1.387 1.441l1.387-1.441Zm-6.782-3.456a1 1 0 0 0 1.308-1.513l-1.308 1.513Zm-4.358-6.227a1 1 0 1 0-1.251 1.56l1.251-1.56Zm-7.025-2.905a1 1 0 1 0 1.195-1.603l-1.195 1.603Zm-4.803-5.897a1 1 0 0 0-1.131 1.65l1.131-1.65Zm-7.236-2.332a1.001 1.001 0 0 0 1.05-1.702l-1.05 1.702Zm-5.363-5.389a1 1 0 0 0-.935 1.768l.935-1.768Zm-7.48-1.306a1 1 0 1 0 .746-1.855l-.746 1.855Zm-6.314-4.785a1 1 0 0 0-1.104 1.668l1.104-1.668Zm-6.839-5.035a1 1 0 1 0 1.796-.88l-1.796.88Zm-.335-8.607a1 1 0 1 0-1.988.22l1.988-.22Zm-1.858-8.403a1.001 1.001 0 0 0 1.983.263l-1.983-.263Zm3.948-7.656a1 1 0 0 0-1.872-.702l1.872.702Zm2.292-8.31a1 1 0 0 0 1.571 1.238l-1.571-1.238Zm7.535-3.877a1 1 0 0 0-1.134-1.648l1.134 1.648Zm5.48-6.06a1 1 0 1 0 1.174 1.619l-1.174-1.619Zm6.636-4.754a1 1 0 0 0-1.834-.798l1.834.798Zm-.308-8.235a.999.999 0 1 0 1.995.133l-1.995-.133Zm1.615-7.873a1 1 0 1 0-1.936.504l1.936-.504Zm-5.159-5.702a1 1 0 0 0 1.571-1.238l-1.571 1.238Zm-3.867-6.638a1 1 0 0 0-1.268 1.547l1.268-1.547Zm-7.21-2.81a1 1 0 0 0 1.123-1.655l-1.123 1.655Zm-5.045-5.823a.999.999 0 1 0-1.153 1.634l1.153-1.634Zm-6.949-3.534a1 1 0 0 0 1.63-1.159l-1.63 1.159Zm.233-10.239a1 1 0 0 0-1.878.687l1.878-.687Zm-7.435-9.721a1 1 0 1 0 1.86-.734l-1.86.734Zm.906-9.417a1 1 0 0 0-1.828-.813l1.828.813Zm4.464-5.996a1 1 0 1 0 .745 1.856l-.745-1.856Zm7.888-.189a1 1 0 1 0-.445-1.95l.445 1.95Zm6.817-3.788a1 1 0 0 0 .641 1.895l-.641-1.895Zm8.36-2.689a1 1 0 1 0-1.092-1.676l1.092 1.676Zm4.79-8.5a1 1 0 0 0 1.917.571l-1.917-.571Zm2.923-7.998a1 1 0 0 0-1.995-.145l1.995.145Zm-1.422-7.055a1 1 0 0 0 1.993.175l-1.993-.175Zm2.589-6.719a1.001 1.001 0 0 0-1.993-.164l1.993.164Zm-1.482-7.042a1 1 0 0 0 1.996.127l-1.996-.127Zm2.33-6.813a1 1 0 1 0-1.999-.06l1.999.06Zm-1.978-6.916a1 1 0 0 0 1.999-.059l-1.999.059Zm1.448-8.348a1 1 0 0 0-1.995.134l1.995-.134Zm-1.483-9.712a1 1 0 0 0 1.953.431l-1.953-.431Zm4.964-8.501a1 1 0 0 0-1.85-.76l1.85.76Zm2.038-9.605a1 1 0 0 0 1.819.833l-1.819-.833Zm5.321-6.992a.999.999 0 1 0-1.861-.731l1.861.731Zm.45-7.664a1 1 0 1 0 1.925.54l-1.925-.54Zm3.653-6.749a1 1 0 0 0-1.962-.389l1.962.389Zm-.767-7.638a1 1 0 0 0 1.983.267l-1.983-.267Zm2.79-7.151a1.001 1.001 0 0 0-1.993-.169l1.993.169Zm-1.523-7.526a1.001 1.001 0 0 0 1.998.09l-1.998-.09Zm2.204-7.353a1 1 0 0 0-2-.024l2 .024Zm-2.015-7.413a1 1 0 1 0 2-.03l-2 .03Zm1.808-7.451a1 1 0 0 0-1.999.071l1.999-.071Zm-2.322-7.33a1 1 0 0 0 1.998-.1l-1.998.1Zm1.602-7.508a1 1 0 1 0-1.997.108l1.997-.108Zm-2.337-7.328a.999.999 0 1 0 1.999-.056l-1.999.056Zm2.214.33a1 1 0 0 0 1.725-1.012l-1.725 1.012Zm5.835 6.073a1 1 0 0 0-1.736.995l1.736-.995Zm2.292 8.117a1 1 0 1 0 1.746-.974l-1.746.974Zm5.694 6.203a1 1 0 0 0-1.759.953l1.759-.953Zm2.092 8.168a1 1 0 1 0 1.77-.93l-1.77.93Zm5.532 6.36a1 1 0 0 0-1.784.905l1.784-.904Zm1.845 8.215a1 1 0 0 0 1.799-.875l-1.799.874Zm5.315 6.53a1.001 1.001 0 0 0-1.815.84l1.815-.84Zm1.536 8.286a1 1 0 1 0 1.833-.8l-1.833.8Zm5.018 6.776a1 1 0 1 0-1.854.749l1.854-.749Zm1.07 8.369a1 1 0 1 0 1.881-.68l-1.881.68Zm4.492 7.123a1 1 0 1 0-1.914.581l1.914-.581Zm.128 8.422a1 1 0 1 0 1.958-.407l-1.958.407Zm2.904 7.933a1 1 0 1 0-1.999-.048l1.999.048Zm-4.316 9.514a1 1 0 1 0 1.984.25l-1.984-.25Zm1.206 12.197a1 1 0 0 0-1.887-.665l1.887.665Zm-7.507 6.595a1 1 0 0 0 1.481 1.344l-1.481-1.344Zm-3.328 7.005a1 1 0 1 0-1.551-1.263l1.551 1.263Zm-6.295 4.49a1 1 0 0 0 1.519 1.302l-1.519-1.302Zm-3.593 6.86a1 1 0 1 0-1.419-1.409l1.419 1.409Zm-6.432 3.237a1 1 0 0 0 1.282 1.535l-1.282-1.535Zm-3.778 5.474a1 1 0 1 0-1.22-1.584l1.22 1.584Zm-5.886 3.241a1.001 1.001 0 0 0 1.734.997l-1.734-.997Zm.251 6.678a1 1 0 1 0-1.995-.143l1.995.143Zm-2.054 8.057a1 1 0 0 0 2 .033l-2-.033Zm.167 10.089a1 1 0 0 0-1.837-.792l1.837.792Zm-4.996 6.703a1 1 0 1 0 1.885.668l-1.885-.668Zm.415 6.486a1 1 0 0 0-1.981-.275l1.981.275Zm-2.085 6.161a1 1 0 0 0 1.99-.202l-1.99.202Zm3.167 5.712a1 1 0 1 0-1.922.55l1.922-.55Zm.018 7.545a1 1 0 0 0 1.976-.31l-1.976.31Zm2.433 8.417a1 1 0 1 0-1.999-.051l1.999.051Zm-2.596 8.42a1 1 0 1 0 1.988.211l-1.988-.211Zm.889 8.751a1 1 0 0 0-1.979-.29l1.979.29Zm-3.305 8.16a.999.999 0 1 0 1.973.325l-1.973-.325Zm.561 8.784a1.001 1.001 0 0 0-1.973-.33l1.973.33Zm-3.275 8.355a1 1 0 1 0 1.99.205l-1.99-.205Zm1.693 8.908a1 1 0 0 0-1.999.078l1.999-.078Zm-.939 9.021a1 1 0 0 0 1.962-.391l-1.962.391Zm4.272 8.011a1 1 0 0 0-1.89.654l1.89-.654Zm1.44 8.954a1 1 0 0 0 1.826-.816l-1.826.816Zm5.599 7.157a1 1 0 1 0-1.796.88l1.796-.88Zm2.128 8.59a1.001 1.001 0 0 0 1.736-.994l-1.736.994Zm6.499 5.385a.999.999 0 1 0-1.381 1.446l1.381-1.446Zm5.856 6.066a1 1 0 0 0 .801-1.833l-.801 1.833Zm8.49 1a1 1 0 1 0-.64 1.895l.64-1.895Zm7.194 4.575a1 1 0 0 0 .667-1.886l-.667 1.886Zm8.453 1.009a1 1 0 0 0-.728 1.863l.728-1.863Zm6.921 5.136a1 1 0 1 0 .908-1.782l-.908 1.782Zm8.046 3.274a1.001 1.001 0 0 0-1.461 1.366l1.461-1.366Zm1.762 8.385a.999.999 0 1 0 1.976-.309l-1.976.309Zm3.684 7.618a1 1 0 0 0-1.793.887l1.793-.887Zm4.398 7.276a1.001 1.001 0 0 0 1.073-1.688l-1.073 1.688Zm8.469 1.887a1 1 0 0 0-.717 1.868l.717-1.868Zm7.001 4.358a1 1 0 1 0 .492-1.939l-.492 1.939Zm7.598-.787a1 1 0 0 0-.109 1.997l.109-1.997Zm7.589 1.2a1 1 0 0 0-.571-1.917l.571 1.917Zm5.419-5.331a1 1 0 1 0 1.357 1.47l-1.357-1.47Zm6.004-4.68a1 1 0 0 0-1.753-.963l1.753.963Zm1.211-7.609a1 1 0 1 0 1.87.708l-1.87-.708Zm4.407-6.273a1 1 0 0 0-1.875-.698l1.875.698Zm1.198-7.623a1 1 0 1 0 1.741.985l-1.741-.985Zm5.997-4.163a1.001 1.001 0 0 0-1.292-1.527l1.292 1.527Zm4.68-5.153a1 1 0 0 0 .788 1.838l-.788-1.838Zm7.035-.249a1 1 0 0 0-.544-1.925l.544 1.925Zm5.797-3.879a1.001 1.001 0 0 0 .7 1.874l-.7-1.874Zm6.884-1.325a1 1 0 0 0-1.16-1.63l1.16 1.63Zm3.415-6.095a1 1 0 0 0 1.59 1.212l-1.59-1.212Zm5.292-4.67a1 1 0 0 0-1.713-1.032l1.713 1.032Zm2.451-6.914a1 1 0 0 0 1.343 1.482l-1.343-1.482Zm4.538 4.559a1 1 0 1 0 1.737-.99l-1.737.99Zm5.258 4.919a1 1 0 0 0-1.678 1.088l1.678-1.088Zm1.68 7.72a1 1 0 0 0 1.937-.498l-1.937.498Zm4.02 7.942a1 1 0 1 0-1.927.538l1.927-.538Zm1.076 8.887a1 1 0 1 0 1.814-.841l-1.814.841Zm6.235 6.356a1 1 0 0 0-1.554 1.259l1.554-1.259Zm5.046 7.336a.999.999 0 1 0 1.124-1.654l-1.124 1.654Zm8.678 2.061a.999.999 0 1 0-.643 1.893l.643-1.893Zm7.133 4.226a1 1 0 0 0 .791-1.837l-.791 1.837Zm7.557 2.24a1.001 1.001 0 0 0-1.223 1.583l1.223-1.583Zm4.294 6.673a1 1 0 1 0 1.467-1.36l-1.467 1.36Zm6.387 4.688a1 1 0 1 0-1.624 1.166l1.624-1.166Zm2.466 7.55a1 1 0 0 0 1.736-.993l-1.736.993Zm5.274 5.913a1 1 0 0 0-1.819.832l1.819-.832Zm1.049 7.861a1 1 0 0 0 1.881-.68l-1.881.68Zm4.231 6.708a1 1 0 1 0-1.927.534l1.927-.534Zm-.168 7.931a.999.999 0 1 0 1.961-.392l-1.961.392Zm3.215 7.252a1 1 0 1 0-1.984.256l1.984-.256Zm-1.264 7.835a1 1 0 1 0 1.996-.123l-1.996.123Zm2.223 7.618a1 1 0 0 0-2-.005l2 .005Zm-2.256 7.597a1 1 0 0 0 1.996.129l-1.996-.129Zm1.269 7.834a1 1 0 0 0-1.985-.247l1.985.247Zm-3.024 7.515a1 1 0 0 0 1.99.204l-1.99-.204Zm1.646 7.887a1 1 0 0 0-1.999.036l1.999-.036Zm-1.262 7.974a1.001 1.001 0 0 0 1.971-.344l-1.971.344Zm3.973 7.024a1 1 0 0 0-1.87.71l1.87-.71Zm1.74 7.872a1.001 1.001 0 0 0 1.682-1.083l-1.682 1.083Zm6.438 4.862a1 1 0 1 0-1.431 1.397l1.431-1.397Zm4.629 6.603a1 1 0 0 0 1.176-1.619l-1.176 1.619Zm7.697 2.465a1.001 1.001 0 0 0-.954 1.758l.954-1.758Zm6.197 5.178a1 1 0 1 0 .779-1.842l-.779 1.842Zm8.038.913a1 1 0 1 0-.647 1.893l.647-1.893Zm6.883 4.245a1 1 0 1 0 .551-1.922l-.551 1.922Zm8.082.089a1 1 0 1 0-.485 1.94l.485-1.94Zm7.157 3.759a1 1 0 1 0 .445-1.95l-.445 1.95Zm8.084-.252a1 1 0 1 0-.427 1.954l.427-1.954Zm7.224 3.63a1.001 1.001 0 0 0 .432-1.953l-.432 1.953Zm8.088-.206a1.001 1.001 0 0 0-.462 1.946l.462-1.946Zm7.104 3.852a1 1 0 1 0 .52-1.931l-.52 1.931Zm8.076.291a1 1 0 0 0-.615 1.903l.615-1.903Zm6.519 4.671a1 1 0 1 0 .912-1.78l-.912 1.78Zm7.633 2.57a1 1 0 1 0-1.231 1.576l1.231-1.576Zm4.5 6.721a1 1 0 1 0 1.423-1.405l-1.423 1.405Zm6.721 4.497a1 1 0 0 0-1.545 1.271l1.545-1.271Zm3.185 7.442a1 1 0 1 0 1.625-1.166l-1.625 1.166Zm6.044 5.352a1 1 0 1 0-1.682 1.082l1.682-1.082Zm2.405 7.735a1 1 0 0 0 1.724-1.014l-1.724 1.014Zm5.594 5.827a1 1 0 0 0-1.756.957l1.756-.957Zm1.891 7.874a1 1 0 1 0 1.781-.91l-1.781.91Zm5.273 6.123a1 1 0 1 0-1.801.869l1.801-.869Zm1.531 7.944a1 1 0 1 0 1.817-.835l-1.817.835Zm5.037 6.328a1 1 0 1 0-1.83.805l1.83-.805Zm1.27 7.988a1 1 0 1 0 1.841-.78l-1.841.78Zm4.857 6.464a1 1 0 1 0-1.851.758l1.851-.758Zm1.079 8.021a1 1 0 1 0 1.858-.739l-1.858.739Zm4.723 6.559a1 1 0 0 0-1.865.723l1.865-.723Zm.942 8.04a1 1 0 1 0 1.87-.71l-1.87.71Zm4.632 6.622a1 1 0 0 0-1.873.701l1.873-.701Zm.862 8.054a1 1 0 0 0 1.875-.695l-1.875.695Zm4.59 6.644a1 1 0 0 0-1.876.694l1.876-.694Zm-3.713 3.081c-1.179-.467-2.434-.946-3.754-1.453l-.717 1.867c1.326.509 2.568.984 3.735 1.446l.736-1.86Zm-11.185-4.418a137.097 137.097 0 0 1-7.255-3.309l-.884 1.795a140.223 140.223 0 0 0 7.36 3.356l.779-1.842Zm-14.294-7.045a139.057 139.057 0 0 1-6.817-4.155l-1.089 1.677a141.21 141.21 0 0 0 6.915 4.215l.991-1.737Zm-13.39-8.673a172.144 172.144 0 0 1-6.348-4.837l-1.248 1.564a175.237 175.237 0 0 0 6.422 4.892l1.174-1.619Zm-12.494-9.956a222.514 222.514 0 0 1-5.95-5.357l-1.364 1.462a220.294 220.294 0 0 0 6.004 5.406l1.31-1.511Zm-11.709-10.911c-.93-.926-1.869-1.874-2.817-2.846l-1.432 1.396c.955.979 1.901 1.935 2.838 2.868l1.411-1.418Zm-2.817-2.846a94.774 94.774 0 0 0-2.937-2.883l-1.37 1.457c.972.913 1.93 1.854 2.875 2.822l1.432-1.396Zm-9.154-8.245a99.773 99.773 0 0 0-6.64-4.816l-1.107 1.666a97.305 97.305 0 0 1 6.507 4.719l1.24-1.569Zm-13.643-9.088a119.226 119.226 0 0 0-7.287-3.747l-.854 1.809a116.854 116.854 0 0 1 7.164 3.683l.977-1.745Zm-14.794-7.011a159.711 159.711 0 0 0-7.669-2.838l-.647 1.892c2.555.874 5.081 1.805 7.572 2.802l.744-1.856Zm-15.456-5.314a244.265 244.265 0 0 0-7.862-2.178l-.503 1.935c2.62.681 5.221 1.398 7.798 2.161l.567-1.918Zm-15.779-4.126a484.139 484.139 0 0 0-7.948-1.78l-.422 1.955c2.649.571 5.289 1.159 7.915 1.773l.455-1.948Zm-15.91-3.456c-2.654-.548-5.312-1.089-7.964-1.633l-.401 1.96c2.655.543 5.308 1.084 7.96 1.631l.405-1.958Zm-15.917-3.282a601.227 601.227 0 0 1-7.928-1.726l-.44 1.95c2.643.597 5.296 1.171 7.954 1.733l.414-1.957Zm-15.817-3.592c-2.629-.654-5.24-1.34-7.829-2.068l-.541 1.926c2.61.734 5.241 1.425 7.888 2.083l.482-1.941Zm-15.571-4.401a167.052 167.052 0 0 1-7.627-2.668l-.707 1.871c2.543.961 5.117 1.858 7.718 2.699l.616-1.902Zm-15.09-5.731a123.71 123.71 0 0 1-3.656-1.699l-.872 1.8c1.228.595 2.466 1.17 3.714 1.726l.814-1.827Zm-3.656-1.699a99.124 99.124 0 0 1-3.689-1.886l-.948 1.761a98.652 98.652 0 0 0 3.765 1.925l.872-1.8Zm-10.777-6.126a85.273 85.273 0 0 1-6.645-4.879l-1.26 1.552a87.086 87.086 0 0 0 6.8 4.994l1.105-1.667Zm-12.785-10.378a93.896 93.896 0 0 1-5.61-6.05l-1.523 1.296a95.514 95.514 0 0 0 5.729 6.178l1.404-1.424Zm-10.731-12.548a177.129 177.129 0 0 1-4.74-6.814l-1.665 1.107a177.96 177.96 0 0 0 4.794 6.892l1.611-1.185Zm-9.273-13.798c-1.523-2.373-3.033-4.721-4.572-7.011l-1.66 1.116c1.525 2.269 3.024 4.6 4.549 6.976l1.683-1.081Zm-9.457-13.851c-1.723-2.239-3.535-4.391-5.491-6.425l-1.441 1.386c1.895 1.971 3.66 4.066 5.347 6.258l1.585-1.219Zm-11.793-12.105a51.519 51.519 0 0 0-7.129-4.62l-.945 1.763a49.457 49.457 0 0 1 6.852 4.44l1.222-1.583Zm-14.915-8.034a61.626 61.626 0 0 0-4.054-1.265l-.531 1.928c1.358.375 2.665.783 3.923 1.224l.662-1.887Zm-4.054-1.265a96.807 96.807 0 0 1-3.528-1.043l-.603 1.907c1.177.373 2.377.728 3.6 1.064l.531-1.928Zm-10.442-3.529a87.306 87.306 0 0 1-6.679-3.038l-.904 1.784a89.407 89.407 0 0 0 6.832 3.107l.751-1.853Zm-13.068-6.638a79.912 79.912 0 0 1-6.042-4.162l-1.209 1.593a81.726 81.726 0 0 0 6.193 4.266l1.058-1.697Zm-11.667-8.86a77.439 77.439 0 0 1-5.155-5.206l-1.486 1.339a79.296 79.296 0 0 0 5.288 5.34l1.353-1.473Zm-9.793-10.878a76.058 76.058 0 0 1-4.075-6.092l-1.714 1.031a78.354 78.354 0 0 0 4.182 6.252l1.607-1.191Zm-7.538-12.546a69.488 69.488 0 0 1-2.787-6.758l-1.887.662a71.768 71.768 0 0 0 2.866 6.953l1.808-.857Zm-4.786-13.781a44.313 44.313 0 0 1-.621-3.568l-1.984.258c.153 1.171.368 2.419.65 3.73l1.955-.42Zm-.621-3.568-.491-3.747-1.983.261.49 3.744 1.984-.258Zm-1.467-11.211c-.372-2.927-.637-5.237-.822-7.447l-1.993.167c.188 2.252.458 4.595.831 7.532l1.984-.252Zm-1.175-14.907a239.035 239.035 0 0 1-.027-3.753h-2c0 1.378.009 2.625.028 3.785l1.999-.032Zm-.027-3.753c0-1.449-.203-2.794-.569-4.065l-1.922.554c.315 1.095.491 2.254.491 3.511h2Zm-4.414-11.08c-1.49-1.924-3.278-3.891-4.948-5.905l-1.539 1.276c1.765 2.129 3.431 3.949 4.906 5.854l1.581-1.225Zm-9.315-12a30.47 30.47 0 0 1-1.675-3.315l-1.838.79a32.552 32.552 0 0 0 1.785 3.532l1.728-1.007Zm-1.675-3.315a30.317 30.317 0 0 0-1.442-2.929l-1.742.982c.462.819.911 1.726 1.346 2.737l1.838-.79Zm-5.477-8.141c-1.736-1.624-3.553-2.744-5.316-3.776l-1.01 1.726c1.742 1.02 3.395 2.047 4.959 3.51l1.367-1.46Zm-10.506-7.105a19.215 19.215 0 0 1-2.201-2.037l-1.47 1.356a21.257 21.257 0 0 0 2.428 2.248l1.243-1.567Zm-2.201-2.037a64.618 64.618 0 0 0-2.613-2.646l-1.387 1.441a62.283 62.283 0 0 1 2.53 2.561l1.47-1.356Zm-8.087-7.615a197.882 197.882 0 0 0-5.666-4.714l-1.251 1.56a197.217 197.217 0 0 1 5.609 4.667l1.308-1.513Zm-11.496-9.222a188.586 188.586 0 0 0-5.998-4.294l-1.131 1.65a185.917 185.917 0 0 1 5.934 4.247l1.195-1.603Zm-12.184-8.328a112.417 112.417 0 0 0-6.413-3.687l-.935 1.768a110.215 110.215 0 0 1 6.298 3.621l1.05-1.702Zm-13.147-6.848a46.396 46.396 0 0 0-3.524-1.264l-.594 1.91c1.089.338 2.215.744 3.372 1.209l.746-1.855Zm-3.524-1.264a13.766 13.766 0 0 1-3.536-1.666l-1.104 1.668c1.208.8 2.555 1.444 4.046 1.908l.594-1.91Zm-8.579-7.581c-1.123-2.291-1.822-4.928-2.131-7.727l-1.988.22c.33 2.982 1.08 5.851 2.323 8.387l1.796-.88Zm-2.006-15.867a36.258 36.258 0 0 1 1.965-7.919l-1.872-.702a38.29 38.29 0 0 0-2.076 8.358l1.983.263Zm5.828-14.991c.864-1.096 1.795-2.038 2.779-2.798l-1.221-1.584c-1.134.875-2.179 1.939-3.129 3.144l1.571 1.238Zm2.779-2.798a71.566 71.566 0 0 1 3.185-2.317l-1.134-1.648a74.356 74.356 0 0 0-3.272 2.381l1.221 1.584Zm9.839-6.758c2.357-1.709 4.221-3.52 5.462-6.373l-1.834-.798c-1.046 2.404-2.604 3.958-4.802 5.552l1.174 1.619Zm7.149-14.475c.083-1.236.124-2.584.124-4.062h-2c0 1.441-.04 2.745-.119 3.929l1.995.133Zm.124-4.062a15.59 15.59 0 0 0-.504-3.944l-1.936.504c.285 1.095.44 2.24.44 3.44h2Zm-4.092-10.884c-1.553-1.971-3.434-3.758-5.438-5.4l-1.268 1.547c1.934 1.585 3.7 3.27 5.135 5.091l1.571-1.238Zm-11.525-9.865c-2.198-1.492-4.293-2.846-6.168-4.168l-1.153 1.634c1.889 1.332 4.057 2.736 6.198 4.189l1.123-1.655Zm-11.487-8.861c-.723-1.016-.977-1.903-.84-2.742l-1.974-.322c-.25 1.531.275 2.944 1.184 4.223l1.63-1.159Zm-.84-2.742c.404-2.474.116-4.497-.557-6.338l-1.878.687c.561 1.535.807 3.211.461 5.329l1.974.322Zm-6.132-16.793a21.625 21.625 0 0 1-1.362-5.485l-1.986.234a23.615 23.615 0 0 0 1.488 5.985l1.86-.734Zm-1.362-5.485c-.151-1.283.02-2.326.408-3.198l-1.828-.813c-.549 1.237-.754 2.647-.566 4.245l1.986-.234Zm5.617-7.338c2.125-.854 4.614-1.468 7.143-2.045l-.445-1.95c-2.525.576-5.155 1.22-7.443 2.139l.745 1.856Zm14.601-3.938c1.404-.475 2.695-1.051 3.684-1.816l-1.225-1.582c-.731.566-1.778 1.056-3.1 1.503l.641 1.895Zm3.684-1.816c1.401-1.085 2.743-1.926 4.035-2.768l-1.092-1.676c-1.257.819-2.685 1.715-4.168 2.862l1.225 1.582Zm10.742-10.697c.427-1.435.695-3.121.793-5.148l-1.998-.095c-.091 1.907-.341 3.427-.712 4.672l1.917.571Zm.793-5.148c.05-1.051.123-2.196.213-3.421l-1.995-.145c-.09 1.235-.165 2.398-.216 3.471l1.998.095Zm.784-10.301c.194-2.202.4-4.521.596-6.894l-1.993-.164c-.196 2.365-.402 4.678-.596 6.883l1.993.175Zm1.11-13.809c.148-2.33.267-4.662.334-6.94l-1.999-.06a205.3 205.3 0 0 1-.331 6.873l1.996.127Zm.355-13.915a74.513 74.513 0 0 0-.182-3.498l-1.994.154c.084 1.09.142 2.228.177 3.403l1.999-.059Zm-.182-3.498c-.14-1.819-.273-3.371-.369-4.791l-1.995.134c.096 1.433.231 3.016.37 4.811l1.994-.154Zm.101-14.072c.528-2.387 1.456-5.151 3.011-8.932l-1.85-.76c-1.574 3.828-2.551 6.713-3.114 9.261l1.953.431Zm6.868-17.704a697.732 697.732 0 0 1 2.02-4.366l-1.812-.846a737.248 737.248 0 0 0-2.027 4.379l1.819.833Zm2.02-4.366a60.637 60.637 0 0 0 1.482-3.459l-1.861-.731a59.273 59.273 0 0 1-1.433 3.344l1.812.846Zm3.857-10.583a95.886 95.886 0 0 0 1.728-7.289l-1.962-.389a94.124 94.124 0 0 1-1.691 7.138l1.925.54Zm2.944-14.66c.33-2.456.596-4.935.807-7.418l-1.993-.169c-.208 2.454-.471 4.9-.797 7.32l1.983.267Zm1.282-14.855c.112-2.501.177-4.989.206-7.442l-2-.024c-.029 2.434-.093 4.9-.204 7.377l1.998.09Zm.191-14.884a354.198 354.198 0 0 0-.192-7.422l-1.999.071c.085 2.384.153 4.852.191 7.38l2-.03Zm-.516-14.853c-.133-2.653-.273-5.139-.396-7.407l-1.997.108c.123 2.273.262 4.752.395 7.4l1.998-.1Zm-.734-14.791a56.426 56.426 0 0 1-.011-3.617l-1.998-.076c-.04 1.046-.031 2.308.01 3.75l1.999-.057Zm-1.87-3.144c.703 1.183 1.398 2.36 2.085 3.53l1.725-1.012a900.312 900.312 0 0 0-2.09-3.54l-1.72 1.022Zm6.184 10.597a719.453 719.453 0 0 1 4.028 7.123l1.746-.974a719.663 719.663 0 0 0-4.038-7.143l-1.736.995Zm7.963 14.279a616.861 616.861 0 0 1 3.851 7.215l1.77-.93a617.239 617.239 0 0 0-3.862-7.238l-1.759.953Zm7.599 14.48a491.331 491.331 0 0 1 3.629 7.31l1.799-.875a511.646 511.646 0 0 0-3.644-7.34l-1.784.905Zm7.129 14.68a372.852 372.852 0 0 1 3.351 7.446l1.833-.8a371.751 371.751 0 0 0-3.369-7.486l-1.815.84Zm6.515 14.971a227.03 227.03 0 0 1 2.924 7.62l1.881-.68a227.06 227.06 0 0 0-2.951-7.689l-1.854.749Zm5.502 15.324c.874 2.878 1.555 5.497 2.042 7.841l1.958-.407c-.501-2.414-1.199-5.092-2.086-8.015l-1.914.581Zm2.947 15.726c-.038 1.56-.268 2.753-.645 3.61l1.831.805c.52-1.183.772-2.661.813-4.367l-1.999-.048Zm-.645 3.61c-.962 2.188-1.444 4.149-1.672 5.952l1.984.25c.205-1.622.639-3.396 1.519-5.397l-1.831-.805Zm-2.353 17.484c-.49 1.39-1.38 2.862-3.016 4.512l1.42 1.408c1.808-1.823 2.878-3.54 3.483-5.255l-1.887-.665Zm-3.016 4.512a84.031 84.031 0 0 0-2.604 2.748l1.481 1.344a82.416 82.416 0 0 1 2.543-2.684l-1.42-1.408Zm-7.483 8.49c-1.548 1.902-3.065 3.794-4.744 5.753l1.519 1.302c1.7-1.985 3.24-3.905 4.776-5.792l-1.551-1.263Zm-9.756 11.204a94.386 94.386 0 0 1-2.662 2.575l1.362 1.465a95.676 95.676 0 0 0 2.719-2.631l-1.419-1.409Zm-2.662 2.575a58.412 58.412 0 0 1-2.351 2.071l1.282 1.535a61.211 61.211 0 0 0 2.431-2.141l-1.362-1.465Zm-7.349 5.961c-1.923 1.481-3.539 2.866-4.666 4.825l1.734.997c.915-1.591 2.251-2.774 4.152-4.238l-1.22-1.584Zm-6.41 11.36a37.218 37.218 0 0 0-.076 3.273l2-.034c-.02-1.151.005-2.176.071-3.096l-1.995-.143Zm-.076 3.273c.033 1.942.04 3.556.017 4.927l2 .033c.023-1.402.016-3.04-.017-4.994l-2 .034Zm-1.653 14.224c-.49 1.136-1.202 2.647-2.005 4.545l1.841.78c.834-1.969 1.441-3.236 2.001-4.533l-1.837-.792Zm-2.005 4.545a52.254 52.254 0 0 0-1.154 2.95l1.885.668c.33-.932.702-1.873 1.11-2.838l-1.841-.78Zm-2.72 9.161a26.75 26.75 0 0 0-.104 6.436l1.99-.202a24.748 24.748 0 0 1 .095-5.959l-1.981-.275Zm1.141 12.698c.277.972.6 1.976.969 3.018l1.885-.667a49.79 49.79 0 0 1-.932-2.901l-1.922.55Zm.969 3.018c.42 1.188.741 2.516.971 3.977l1.976-.31c-.245-1.557-.593-3.008-1.062-4.334l-1.885.667Zm1.405 12.343c-.066 2.632-.278 5.467-.597 8.471l1.988.211c.324-3.04.541-5.931.608-8.631l-1.999-.051Zm-1.687 16.932a499.98 499.98 0 0 1-1.326 8.45l1.973.325a488.71 488.71 0 0 0 1.332-8.485l-1.979-.29Zm-2.738 16.904c-.235 1.401-.47 2.812-.703 4.231l1.974.325c.232-1.417.467-2.826.702-4.226l-1.973-.33Zm-.703 4.231a75.162 75.162 0 0 0-.599 4.454l1.99.205a72.4 72.4 0 0 1 .583-4.334l-1.974-.325Zm-.905 13.44a57.122 57.122 0 0 0 1.06 8.943l1.962-.391a54.942 54.942 0 0 1-1.023-8.63l-1.999.078Zm3.442 17.608c.964 2.784 2.09 5.529 3.33 8.3l1.826-.816c-1.224-2.736-2.327-5.425-3.266-8.138l-1.89.654Zm7.133 16.337c.638 1.303 1.293 2.63 1.956 3.979l1.795-.882c-.665-1.353-1.317-2.675-1.955-3.977l-1.796.88Zm1.956 3.979a67 67 0 0 0 1.968 3.731l1.736-.994a65.379 65.379 0 0 1-1.909-3.619l-1.795.882Zm7.086 10.562c2.097 2.002 4.412 3.385 7.237 4.62l.801-1.833c-2.681-1.171-4.777-2.438-6.657-4.233l-1.381 1.446Zm15.087 7.515c2.305.778 4.887 1.637 7.834 2.68l.667-1.886c-2.964-1.048-5.566-1.914-7.861-2.689l-.64 1.895Zm15.559 5.552c1.231.482 2.513.994 3.848 1.542l.759-1.851a253.37 253.37 0 0 0-3.879-1.554l-.728 1.863Zm3.848 1.542a51.33 51.33 0 0 1 3.801 1.731l.908-1.782a53.11 53.11 0 0 0-3.95-1.8l-.759 1.851Zm10.386 6.371c2.176 2.327 2.849 4.626 3.223 7.019l1.976-.309c-.409-2.616-1.189-5.35-3.738-8.076l-1.461 1.366Zm5.114 15.524c1.089 2.2 2.942 4.325 6.191 6.389l1.073-1.688c-3.002-1.906-4.574-3.774-5.471-5.588l-1.793.887Zm13.943 10.144a82.62 82.62 0 0 0 4.074 1.433l.617-1.903a79.129 79.129 0 0 1-3.974-1.398l-.717 1.868Zm4.074 1.433c1.263.409 2.477.761 3.644 1.057l.492-1.939a56.04 56.04 0 0 1-3.519-1.021l-.617 1.903Zm11.133 2.267c2.917.158 5.462-.132 7.698-.797l-.571-1.917c-1.986.591-4.298.865-7.018.717l-.109 1.997Zm14.474-4.658c1.893-1.748 3.392-3.865 4.647-6.15l-1.753-.963c-1.186 2.159-2.562 4.084-4.251 5.643l1.357 1.47Zm7.728-13.051c.872-2.301 1.72-4.786 2.537-6.981l-1.875-.698c-.871 2.342-1.635 4.603-2.532 6.971l1.87.708Zm5.476-13.619c.609-1.075 1.264-2.045 1.987-2.888l-1.518-1.302c-.826.963-1.553 2.045-2.21 3.205l1.741.985Zm1.987-2.888a19.974 19.974 0 0 1 2.269-2.26l-1.292-1.527a21.894 21.894 0 0 0-2.495 2.485l1.518 1.302Zm7.737-5.575c2.006-.86 4.093-1.478 6.247-2.087l-.544-1.925c-2.156.61-4.354 1.257-6.491 2.174l.788 1.838Zm12.744-4.092c2.102-.785 4.187-1.778 6.184-3.199l-1.16-1.63c-1.816 1.293-3.735 2.213-5.724 2.955l.7 1.874Zm11.189-8.082a28.696 28.696 0 0 0 1.934-2.897l-1.726-1.01c-.58.99-1.181 1.885-1.798 2.695l1.59 1.212Zm1.934-2.897a295.24 295.24 0 0 1 1.768-2.985l-1.713-1.032a274.5 274.5 0 0 0-1.781 3.007l1.726 1.01Zm5.562-8.417c.374-.339.573-.389.636-.395.024-.002.119-.014.345.176.244.205.543.566.926 1.144.376.569.793 1.284 1.288 2.152l1.737-.99c-.493-.865-.939-1.634-1.357-2.265-.412-.622-.838-1.178-1.308-1.573-.488-.409-1.095-.703-1.817-.635-.683.064-1.275.435-1.793.904l1.343 1.482Zm6.775 9.084a74.258 74.258 0 0 0 1.988 2.912l1.624-1.168a70.894 70.894 0 0 1-1.934-2.832l-1.678 1.088Zm1.988 2.912c.473.657.898 1.886 1.37 3.72l1.937-.498c-.46-1.786-.958-3.382-1.683-4.39l-1.624 1.168Zm3.463 12.2c.741 2.654 1.687 5.51 3.003 8.349l1.814-.841c-1.255-2.71-2.168-5.456-2.89-8.046l-1.927.538Zm7.684 15.964a30.512 30.512 0 0 0 6.6 6.077l1.124-1.654a28.48 28.48 0 0 1-6.17-5.682l-1.554 1.259Zm14.635 10.031c1.357.461 2.794.863 4.315 1.198l.43-1.954a38.392 38.392 0 0 1-4.102-1.137l-.643 1.893Zm4.315 1.198c1.12.246 2.277.625 3.461 1.135l.791-1.837a21.22 21.22 0 0 0-3.822-1.252l-.43 1.954Zm9.795 4.958c1.845 1.425 3.696 3.126 5.517 5.09l1.467-1.36c-1.888-2.036-3.82-3.814-5.761-5.313l-1.223 1.583Zm10.28 10.944a73.64 73.64 0 0 1 4.09 6.384l1.736-.993a75.344 75.344 0 0 0-4.202-6.557l-1.624 1.166Zm7.545 13.129a92.18 92.18 0 0 1 2.868 7.029l1.881-.68a94.53 94.53 0 0 0-2.93-7.181l-1.819.832Zm5.172 14.271a105.19 105.19 0 0 1 1.759 7.397l1.961-.392a106.312 106.312 0 0 0-1.793-7.539l-1.927.534Zm2.99 14.905c.318 2.466.561 4.994.72 7.579l1.996-.123a116.034 116.034 0 0 0-.732-7.712l-1.984.256Zm.943 15.192c-.006 2.489-.09 5.024-.256 7.602l1.996.129c.169-2.62.254-5.196.26-7.726l-2-.005Zm-.972 15.189a134.517 134.517 0 0 1-.526 3.783l1.976.304c.199-1.289.376-2.569.535-3.84l-1.985-.247Zm-.526 3.783a79.095 79.095 0 0 0-.513 3.979l1.99.204c.129-1.262.295-2.554.499-3.879l-1.976-.304Zm-.866 11.902a51.51 51.51 0 0 0 .737 7.938l1.971-.344a49.495 49.495 0 0 1-.709-7.63l-1.999.036Zm2.84 15.672a38.275 38.275 0 0 0 3.61 7.162l1.682-1.083a36.178 36.178 0 0 1-3.422-6.789l-1.87.71Zm8.617 13.421a47.25 47.25 0 0 0 6.06 5.206l1.176-1.619a45.148 45.148 0 0 1-5.805-4.984l-1.431 1.397Zm12.803 9.429a81.727 81.727 0 0 0 7.151 3.42l.779-1.842a79.673 79.673 0 0 1-6.976-3.336l-.954 1.758Zm14.542 6.226a156.88 156.88 0 0 0 7.53 2.352l.551-1.922a155.003 155.003 0 0 1-7.434-2.323l-.647 1.893Zm15.127 4.381a376.64 376.64 0 0 0 7.642 1.819l.445-1.95a381.776 381.776 0 0 1-7.602-1.809l-.485 1.94Zm15.299 3.521c2.565.561 5.119 1.115 7.651 1.676l.432-1.953c-2.535-.562-5.095-1.117-7.656-1.677l-.427 1.954Zm15.277 3.416c2.573.611 5.1 1.242 7.566 1.906l.52-1.931a263.334 263.334 0 0 0-7.624-1.921l-.462 1.946Zm15.027 4.1c1.248.404 2.473.821 3.671 1.254l.68-1.881a117.534 117.534 0 0 0-3.736-1.276l-.615 1.903Zm3.671 1.254c1.158.419 2.312.925 3.463 1.514l.912-1.78a32.147 32.147 0 0 0-3.695-1.615l-.68 1.881Zm9.865 5.66c1.927 1.506 3.838 3.228 5.731 5.145l1.423-1.405c-1.944-1.969-3.919-3.75-5.923-5.316l-1.231 1.576Zm10.907 10.913a117.191 117.191 0 0 1 4.73 6.171l1.625-1.166a120.306 120.306 0 0 0-4.81-6.276l-1.545 1.271Zm9.092 12.605a194.395 194.395 0 0 1 4.087 6.653l1.724-1.014a195.929 195.929 0 0 0-4.129-6.721l-1.682 1.082Zm7.925 13.437a288.288 288.288 0 0 1 3.647 6.917l1.781-.91a292.42 292.42 0 0 0-3.672-6.964l-1.756.957Zm7.119 13.909a408.706 408.706 0 0 1 3.332 7.075l1.817-.835a408.722 408.722 0 0 0-3.348-7.109l-1.801.869Zm6.539 14.208a554.942 554.942 0 0 1 3.1 7.183l1.841-.78a543.397 543.397 0 0 0-3.111-7.208l-1.83.805Zm6.106 14.405c.995 2.43 1.972 4.854 2.93 7.263l1.858-.739a760.797 760.797 0 0 0-2.937-7.282l-1.851.758Zm5.788 14.545c.957 2.468 1.893 4.91 2.807 7.317l1.87-.71c-.916-2.411-1.853-4.857-2.812-7.33l-1.865.723Zm5.566 14.64c.938 2.508 1.85 4.963 2.735 7.353l1.875-.695c-.885-2.391-1.798-4.848-2.737-7.359l-1.873.701Zm5.449 14.691c.461 1.246.913 2.469 1.357 3.665l1.875-.696-1.356-3.663-1.876.694Z" fill="#EA3327"/><path d="M457.158 762.196c-1.055 0-1.937-.355-2.646-1.064-.7-.709-1.05-1.587-1.05-2.632 0-1.045.35-1.923 1.05-2.632.709-.709 1.591-1.064 2.646-1.064.681 0 1.302.163 1.862.49.56.327.985.765 1.274 1.316l-1.554.91a1.577 1.577 0 0 0-.644-.686 1.813 1.813 0 0 0-.952-.252c-.541 0-.989.182-1.344.546-.355.355-.532.812-.532 1.372 0 .551.177 1.008.532 1.372.355.355.803.532 1.344.532.364 0 .686-.079.966-.238.289-.168.504-.397.644-.686l1.568.896a3.556 3.556 0 0 1-1.302 1.33c-.56.327-1.181.49-1.862.49Zm9.594-7.196v1.736h-2.184V762h-1.806v-5.264h-2.212V755h6.202Zm6.655 6.132c-.718.709-1.596 1.064-2.632 1.064s-1.913-.355-2.632-1.064c-.709-.719-1.064-1.596-1.064-2.632s.355-1.909 1.064-2.618c.719-.719 1.596-1.078 2.632-1.078s1.914.359 2.632 1.078c.719.709 1.078 1.582 1.078 2.618 0 1.036-.359 1.913-1.078 2.632Zm-3.99-1.246c.364.364.817.546 1.358.546.542 0 .994-.182 1.358-.546.364-.364.546-.826.546-1.386 0-.56-.182-1.022-.546-1.386-.364-.364-.816-.546-1.358-.546-.541 0-.994.182-1.358.546-.354.364-.532.826-.532 1.386 0 .56.178 1.022.532 1.386ZM481.096 755v7h-1.764v-2.184h-.63l-1.61 2.184h-2.086l1.75-2.394a2.38 2.38 0 0 1-1.078-.882 2.411 2.411 0 0 1-.392-1.316c0-.653.234-1.218.7-1.694.467-.476 1.078-.714 1.834-.714h3.276Zm-3.136 1.61a.95.95 0 0 0-.658.238c-.168.149-.252.355-.252.616 0 .252.084.453.252.602a.99.99 0 0 0 .658.224h1.372v-1.68h-1.372Zm9.374-1.61h1.806v7h-1.806v-2.66h-2.786V762h-1.806v-7h1.806v2.646h2.786V755Zm9.915 7h-2.1l-2.548-3.178V762h-1.806v-7h1.806v3.08l2.408-3.08h2.156l-2.814 3.458 2.898 3.542Zm5.715-7h1.806v7h-1.806v-.826c-.541.681-1.302 1.022-2.282 1.022-.933 0-1.736-.355-2.408-1.064-.662-.719-.994-1.596-.994-2.632s.332-1.909.994-2.618c.672-.719 1.475-1.078 2.408-1.078.98 0 1.741.341 2.282 1.022V755Zm-3.332 4.928c.364.364.826.546 1.386.546.56 0 1.022-.182 1.386-.546.374-.373.56-.849.56-1.428s-.186-1.05-.56-1.414c-.364-.373-.826-.56-1.386-.56-.56 0-1.022.187-1.386.56-.364.364-.546.835-.546 1.414s.182 1.055.546 1.428ZM509.46 762v-1.442l3.346-3.444c.747-.784 1.12-1.437 1.12-1.96 0-.383-.121-.691-.364-.924-.233-.233-.537-.35-.91-.35-.737 0-1.283.383-1.638 1.148l-1.624-.952c.308-.672.751-1.185 1.33-1.54a3.571 3.571 0 0 1 1.904-.532c.887 0 1.647.28 2.282.84.635.551.952 1.297.952 2.24 0 1.017-.537 2.063-1.61 3.136l-1.918 1.918h3.682V762h-6.552Zm10.266-1.932-1.05 3.892h-1.47l.56-3.892h1.96Zm4.61-4.298c.943 0 1.736.285 2.38.854.644.56.966 1.344.966 2.352 0 1.008-.341 1.797-1.022 2.366-.672.569-1.498.854-2.478.854-.793 0-1.493-.177-2.1-.532-.607-.355-1.045-.877-1.316-1.568l1.652-.966c.243.784.831 1.176 1.764 1.176.495 0 .877-.117 1.148-.35.28-.243.42-.569.42-.98 0-.401-.135-.723-.406-.966s-.639-.364-1.106-.364h-2.968l.392-5.446h5.558v1.806h-3.766l-.126 1.764h1.008Zm12.206-.77h1.806v7h-1.806v-2.226a5.414 5.414 0 0 1-1.666.252c-.849 0-1.531-.215-2.044-.644-.504-.429-.756-1.055-.756-1.876V755h1.806v2.296c0 .7.434 1.05 1.302 1.05a3.33 3.33 0 0 0 1.358-.266V755Zm8.764 0h1.806v7h-1.806v-.826c-.541.681-1.302 1.022-2.282 1.022-.933 0-1.736-.355-2.408-1.064-.663-.719-.994-1.596-.994-2.632s.331-1.909.994-2.618c.672-.719 1.475-1.078 2.408-1.078.98 0 1.741.341 2.282 1.022V755Zm-3.332 4.928c.364.364.826.546 1.386.546.56 0 1.022-.182 1.386-.546.373-.373.56-.849.56-1.428s-.187-1.05-.56-1.414c-.364-.373-.826-.56-1.386-.56-.56 0-1.022.187-1.386.56-.364.364-.546.835-.546 1.414s.182 1.055.546 1.428Zm10.108 2.268c-1.055 0-1.937-.355-2.646-1.064-.7-.709-1.05-1.587-1.05-2.632 0-1.045.35-1.923 1.05-2.632.709-.709 1.591-1.064 2.646-1.064.681 0 1.302.163 1.862.49.56.327.984.765 1.274 1.316l-1.554.91a1.577 1.577 0 0 0-.644-.686 1.816 1.816 0 0 0-.952-.252c-.542 0-.99.182-1.344.546-.355.355-.532.812-.532 1.372 0 .551.177 1.008.532 1.372.354.355.802.532 1.344.532.364 0 .686-.079.966-.238.289-.168.504-.397.644-.686l1.568.896a3.556 3.556 0 0 1-1.302 1.33c-.56.327-1.181.49-1.862.49Zm9.33-7.196h1.806v7h-1.806v-.826c-.542.681-1.302 1.022-2.282 1.022-.934 0-1.736-.355-2.408-1.064-.663-.719-.994-1.596-.994-2.632s.331-1.909.994-2.618c.672-.719 1.474-1.078 2.408-1.078.98 0 1.74.341 2.282 1.022V755Zm-3.332 4.928c.364.364.826.546 1.386.546.56 0 1.022-.182 1.386-.546.373-.373.56-.849.56-1.428s-.187-1.05-.56-1.414c-.364-.373-.826-.56-1.386-.56-.56 0-1.022.187-1.386.56-.364.364-.546.835-.546 1.414s.182 1.055.546 1.428Z" fill="#009FE3"/><path d="M150.682 148.968c3.79-3.331 9.128-7.138 13.69-8.886l-8.319-.944-5.524-5.918c1.011 4.455.912 10.878.153 15.748Zm-16.947 134.505c-2.781-4.211-5.823-10.019-6.931-14.777l-2.072 8.113-6.617 4.663c4.551-.393 10.9.583 15.62 2.001Zm-9.986 81.735c-.333-5.035-.101-11.587 1.291-16.27l-5.816 6.023-8.058.777c4.15 1.911 9.183 5.902 12.583 9.47Zm106.395 144.066c-1.19-4.903-2.083-11.399-1.512-16.251l-4.699 6.93-7.807 2.144c4.415 1.172 10.057 4.243 14.018 7.177Zm105.7 90.323c-1.632-4.775-3.112-11.162-2.986-16.046l-4.048 7.329-7.579 2.846c4.504.766 10.402 3.31 14.613 5.871Zm139.177 47.057c-3.965-3.121-8.679-7.678-11.228-11.846l.586 8.353-4.814 6.508c4.196-1.805 10.53-2.876 15.456-3.015ZM160.271 340c-.211 5.042-1.147 11.531-3.035 16.037l6.43-5.363 8.095.095c-3.92-2.346-8.494-6.855-11.49-10.769Zm37.18-223c.051 5.046-.548 11.575-2.2 16.172l6.144-5.688 8.089-.324c-4.036-2.14-8.838-6.407-12.033-10.16Zm77.506 296.136c3.714-3.416 8.964-7.343 13.485-9.194l-8.338-.755-5.657-5.791c1.113 4.43 1.159 10.854.51 15.74ZM382.06 426c1.101 4.924 1.877 11.435 1.219 16.276l4.823-6.844 7.844-2.004c-4.394-1.252-9.979-4.423-13.886-7.428ZM463 566.957c3.416 3.714 7.343 8.964 9.194 13.485l.755-8.339 5.791-5.656c-4.431 1.112-10.854 1.158-15.74.51Z" fill="#EA3327"/></svg>