<svg width="706" height="805" fill="none" xmlns="http://www.w3.org/2000/svg"><path d="M125.547 17.477h542.675v768.082H11.649V416.081l19.972-47.434v-85.296l-2.496-76.974-13.315-19.14 24.008-36.354 85.729-133.406Z" fill="#E6F6FD"/><path fill-rule="evenodd" clip-rule="evenodd" d="M93.987 10.485c-3.328 6.658-8.987 23.218-4.992 36.2 2.947 9.58 4.3 13.069 3.115 15.005-.822 1.343-2.865 1.938-6.444 3.302-4.258 1.622-4.663 4.726-5.066 7.82-.424 3.255-.846 6.498-5.752 7.99-2.355.717-5.717.98-9.54 1.28-11.72.918-27.779 2.175-32.484 17.86-3.013 10.043-1.275 16.305.44 22.482 1.838 6.62 3.649 13.143-.44 24.119-3.813 10.235-6.658 13.307-9.095 15.939-2.616 2.825-4.763 5.143-7.132 15.267-2.447 10.454 1.646 17.579 5.287 23.916 3.17 5.519 5.997 10.44 3.866 16.444-2.095 5.906-5.325 5.531-8.291 5.186-3.511-.408-6.652-.773-7.103 9.377-.217 4.874-.997 9.86-1.747 14.652-2.131 13.614-4.015 25.651 7.988 29.036 9.01 2.541 6.09 9.188 1.71 19.156-3.507 7.984-7.951 18.099-7.951 29.941 0 12.232 4.916 17.09 9.103 21.227 4.928 4.869 8.846 8.739 2.547 22.462-6.158 13.414-7.085 17.065-8.372 22.134-1.148 4.521-2.582 10.17-8.271 24.883-7.949 20.556-5.425 28.293-2.777 36.413 1.371 4.207 2.777 8.517 2.777 14.764 0 18.308 25.797 47.85 36.615 38.28 5.426-4.8 6.874-14.101 7.862-20.448.983-6.307 1.51-9.697 5.036-2.853 7.074 13.731 28.294 22.052 26.213 5.825-2.08-16.227-21.636-35.782-34.95-33.702-13.315 2.08-34.951 1.664-29.542-12.066 2.698-6.849 9.433-8.625 14.164-9.873 4.754-1.254 7.485-1.974 2.063-6.77-10.818-9.57-14.563-12.899-10.818-19.972 1.73-3.267 3.814-.232 6.623 3.858 3.272 4.764 7.527 10.96 13.349 10.288 6.102-.704 11.675-1.805 19.258-3.304 5.86-1.158 12.919-2.553 22.35-4.185 12.506-2.165 13.89-2.244 14.68-2.97.577-.53.837-1.405 4.875-3.687 1.413-.799 2.239-2.147 2.722-3.453.793 1.102 1.723 1.329 2.687.123 3.329-4.161 5.409-6.241 4.577 0-.4 3.001-1.57 3.886-2.815 4.828-1.345 1.018-2.778 2.102-3.426 5.99-.33 1.977-.456 3.606-.564 4.986-.299 3.85-.448 5.769-4.429 7.913-.871.469-1.645.84-2.325 1.167-3.545 1.704-4.548 2.186-3.5 8.819.68 4.31.619 4.538.422 5.271-.164.611-.422 1.573-.422 5.547 0 5.204 3.247 4.652 6.225 4.145 2.022-.344 3.92-.667 4.593.848.536 1.207.208 2.803-.149 4.538-.75 3.646-1.625 7.903 5.142 10.441 4.175 1.565 7.768 2.185 10.992 2.742 4.487.774 8.26 1.425 11.892 4.331 4.22 3.376 7.489 2.186 10.579 1.062 1.479-.539 2.918-1.062 4.4-1.062 1.825 0 3.981 1.257 6.257 2.584 3.431 2.001 7.134 4.16 10.386 2.409 1.97-1.061 3.278-2.287 4.526-3.458 2.18-2.044 4.179-3.919 9.205-4.448 3.807-.4 4.623-2.152 5.375-3.768.809-1.739 1.545-3.32 5.859-2.889 8.321.832 13.73-.416 8.737-9.57-2.793-5.121-1.419-6.466.043-7.895 1.15-1.125 2.355-2.303 1.622-5.419-.818-3.477-.832-4.843-1.425-5.876-.614-1.069-1.847-1.783-5.233-4.11-3.361-2.311-3.646-4.092-4.069-6.735-.414-2.592-.961-6.012-4.668-11.573-4.438-6.656-6.976-5.57-9.606-4.446-1.809.773-3.662 1.565-6.205-.13-2.859-1.906-3.012-3.987-3.177-6.242-.196-2.668-.409-5.58-5.145-8.737-5.294-3.53-8.297-3.546-12.064-3.566-2.449-.013-5.221-.027-9.156-1.011-3.903-.976-6.599-1.253-8.534-1.451-3.015-.309-4.183-.429-5.196-2.71a13.05 13.05 0 0 1-.713-2.088c-.479-1.782-.505-1.881-5.945-1.241-1.944.229-3.952.175-5.875.123-3.78-.102-7.235-.196-9.25 1.885-.661-.138-1.739 1.9-2.881 4.06-1.298 2.455-2.68 5.069-3.63 4.825a12.7 12.7 0 0 0-7.489.342c-5.228 1.882-6.567 4.71-7.504 6.688-.927 1.958-1.46 3.083-4.978 1.634-3.616-1.489-1.687-3.63.73-6.312 2.31-2.565 5.067-5.625 3.847-9.083-1.096-3.105-3.154-4.205-5.083-5.237-2.465-1.319-4.72-2.526-4.487-7.662.217-4.774-3.075-6.379-5.92-7.766-2.61-1.273-4.845-2.363-3.65-5.548 1.424-3.797 4.878-2.451 9.05-.824 3.143 1.225 6.693 2.608 10.09 2.072 7.905-1.248 11.234-7.489 7.905-11.234-2.161-2.431-8.357-3.81-13.917-5.048-3.004-.668-5.822-1.296-7.719-2.025-5.409-2.081-24.549-29.958-5.409-32.038 8.858-.963 17.893-.233 26.447.459 9.93.802 19.211 1.552 26.811-.459 14.147-3.745 27.461-14.147 16.643-20.804-3.274-2.015-5.138-3.878-6.653-5.392-3.491-3.488-5.129-5.125-17.895-2.514-18.308 3.745-19.14-2.496-9.57-9.154 9.57-6.657 6.657-15.395-14.563-17.475-21.22-2.08-21.22-11.65-11.65-13.315 1.548-.269 3.194-.473 4.91-.685 8.891-1.102 19.657-2.435 28.376-14.293 4.708-6.404 5.751-8.8 6.177-8.695.514.127.126 3.912 4.225 8.695 7.49 8.737 19.556 2.912 19.972-8.738.287-8.035 1.168-11.122 2.779-16.769.724-2.541 1.597-5.599 2.63-9.86 2.09-8.62-.576-16.584-2.85-23.378-1.349-4.027-2.559-7.643-2.559-10.741 0-3.328.532-4.527.959-5.485.639-1.438 1.038-2.337-.959-9.077-2.106-7.107-.215-8.885 2.616-11.55 1.645-1.548 3.608-3.395 5.289-6.758 2.416-4.83.428-6.069-1.682-7.384-1.889-1.177-3.877-2.416-2.894-6.347 1.054-4.217-.777-6.297-3.111-8.948-2.271-2.58-5.017-5.7-6.043-11.855-.993-5.955-6.814-10.016-11.864-13.538-5.535-3.862-10.143-7.075-6.444-11.427 6.686-7.865 8.911-5.323 16.863 3.762l1.445 1.647c9.154 10.402 21.636 17.475 32.038 10.402 5.897-4.01 6.846-3.875 9.216-3.536 1.81.259 4.449.636 10.756-.625l1.126-.224c13.85-2.752 21.603-4.291 31.328-33.062 9.986-29.542 38.279-28.71 38.279-19.972 0 8.737-12.898 25.38-21.636 28.71-1.738.661-3.229 1.11-4.509 1.494-5.156 1.55-6.891 2.07-7.557 11.404-.216 3.02-.068 5.202.044 6.863.322 4.747.356 5.25-9.198 8.948-2.712 1.05-5.239 1.86-7.456 2.57-8.326 2.67-12.256 3.931-5.026 11.16 5.621 5.622 5.593 6.065 5.41 9.039-.116 1.869-.293 4.737.831 10.517 1.417 7.289 2.933 8.47 4.116 9.39 1.248.972 2.125 1.655 2.125 8.918 0 5.019 1.205 8.31 2.165 10.932 1.745 4.767 2.68 7.321-5.91 14.032-7.33 5.728-5.454 7.166-2.286 9.594 2.585 1.982 6.031 4.624 6.031 10.794 0 6.573.667 9.141-.325 10.444-1.082 1.418-4.132 1.335-12.157 3.287-4.699 1.143-8.351 1.472-11.241 1.732-6.578.593-9.204.829-11.228 9.502-1.462 6.267-4.708 6.031-7.577 5.822-2.846-.207-5.321-.387-5.321 5.828 0 11.055-.653 13.625-3.114 23.316-.318 1.252-.666 2.622-1.047 4.145-1.606 6.424-.694 7.037.681 7.96 1.474.99 3.48 2.337 3.48 11.596 0 5.386-.641 13.373-1.344 22.134-1.633 20.345-3.6 44.863 1.344 50.68 3.619 4.257 4.079 3.941 5.114 3.229.989-.68 2.501-1.72 7.784.516 5.21 2.204 6.367.452 7.375-1.075 1.084-1.643 1.996-3.024 7.604 1.075 10.818 7.905 27.878 9.57 26.213 2.912-1.056-4.225-.772-4.26 2.663-4.679 1.977-.242 4.996-.61 9.404-1.978 5.31-1.648 5.866-2.893 6.384-4.055.659-1.477 1.257-2.819 11.507-4.683 6.33-1.151 12.163-2.749 16.931-4.056 9.02-2.472 14.228-3.9 11.778.728-2.5 4.723-2.774 4.808-9.245 6.821a247.552 247.552 0 0 0-15.303 5.245c-10.683 4.031-13.164 7.77-15.011 10.553-1.966 2.962-3.213 4.842-12.867 4.842-1.853 0-3.53.004-5.059.008-13.923.034-15.526.037-24.898-3.337-10.402-3.744-17.476-1.248-17.476 6.658 0 7.905 13.315 22.468 20.388 19.971 7.074-2.496 15.811-2.08 14.979 4.161-.447 3.351 3.783 2.385 8.312 1.35 3.907-.893 8.038-1.836 9.58-.102 1.46 1.644.757 3.768-.104 6.373-1.103 3.331-2.465 7.448.104 12.351 2.467 4.711 6.024 4.947 9.951 5.207 3.357.223 6.985.463 10.436 3.531 4.053 3.602 4.938 2.21 6.149.305 1.028-1.615 2.29-3.6 5.918-3.218 1.909.201 3.6.621 5.061.983 4.587 1.138 6.904 1.713 6.589-6.808-.127-3.42-.292-5.992-.425-8.068-.305-4.741-.443-6.893.425-10.656.671-2.909-3.592-4.855-8.583-7.133-4.288-1.958-9.113-4.16-11.805-7.429-3.018-3.665-1.904-3.867.218-4.253 1.974-.359 4.82-.876 6.023-4.485 2.497-7.489 4.161-6.657 6.657-2.08 2.497 4.577 6.658 8.737 14.979 5.409 1.684-.674 3.06-1.313 4.186-1.835 4.439-2.061 4.968-2.307 4.968 4.331 0 8.322.416 20.388 9.154 16.227 1.722-.82 3.783-1.608 5.91-2.42 8.665-3.311 18.417-7.037 10.733-15.055-5.021-5.24-7.752-8.99-10.054-12.153-2.086-2.865-3.821-5.248-6.589-7.819-2.913-2.704-6.241-2.704-9.154-2.704-2.912 0-5.409 0-6.657-2.705-2.497-5.409-2.081-23.716 3.745-17.891 2.249 2.249 4.498 3.878 6.652 5.437 3.423 2.48 6.604 4.783 9.159 9.125 2.435 4.14 9.431 4.86 17.234 5.662 5.53.568 11.464 1.178 16.468 3.076 6.219 2.359 8.79 2.065 11.645 1.739 2.684-.306 5.619-.641 12.071 1.174 8.068 2.269 9.72 6.371 10.88 9.252.754 1.873 1.3 3.23 3.267 3.23 2.28 0 4.559-2.602 7.037-5.43 2.949-3.366 6.179-7.052 10.022-7.052 7.074 0 22.053-25.381 24.133-42.44 2.062-16.91-4.87-14.197-14.311-10.501l-.252.099c-8.56 3.349-7.799 1.705-4.863-4.635.347-.748.723-1.561 1.119-2.439l.161-.358c3.642-8.087 5.579-12.389-.161-30.432-1.68-5.277-4.051-10.417-6.206-15.089-5.321-11.535-9.328-20.221 1.629-21.11 8.002-.648 13.643 3.649 17.8 6.816 3.841 2.926 6.415 4.886 8.413 1.09 2.031-3.86.889-8.216-.232-12.487-1.174-4.476-2.323-8.858.232-12.478 4.523-6.407-2.222-11.108-10.955-17.194a473.32 473.32 0 0 1-2.776-1.945c-9.986-7.074-10.402-15.395 0-22.053 10.069-6.444 8.052-7.82.743-12.807l-.743-.507c-4.171-2.854-5.909-3.739-7.11-5.099-1.075-1.218-1.719-2.816-3.292-6.551-1.506-3.577-4.714-2.896-8.201-2.156-4.22.896-8.848 1.878-11.355-4.502-.64-1.631-1.363-3.352-2.114-5.142-4.616-10.995-10.326-24.6-4.959-36.05l.088-.188c6.188-13.201 9.884-21.085 6.985-32.266l-.209-.81c-3.097-12.011-11.703-45.394-40.566-46.207-11.286-.318-17.896.033-23.102.308-8.419.446-13.163.697-28.076-2.388-12.795-2.647-17.753-.733-23.123 1.34-4.758 1.837-9.839 3.798-20.982 2.82-10.058-.882-12.782-2.512-14.901-3.78-2.877-1.722-4.637-2.776-22.13-.38-30.373 4.16-61.163 7.073-75.31 0-14.147-7.074-30.53-.416-33.703 7.49Z" fill="#FFF2C5"/><path d="M172.209 143.629c-.608 1.826-.54 3.367-.139 4.665 1.338 4.334 4.285 7.64.139 9.482-3.744 1.664-7.489-.416-6.241-7.489 1.249-7.074-2.912-6.658 1.665-14.563 4.577-7.906 6.657 1.664 4.576 7.905Zm23.717 10.402c-2.913 3.744-10.818 0-7.905-3.744 4.176-5.37 11.96-3.546 8.743 2.447a9.156 9.156 0 0 1-.838 1.297Zm-28.293 8.738c1.407-.059 2.624-.018 3.681.098 6.512.718 9.273 9.832 4.64 14.465-4.161 4.161-14.146 1.664-19.556-2.913-5.409-4.577-7.489-13.73-2.912-16.643 4.577-2.913 4.161 5.409 14.147 4.993Zm-18.724 31.622c.416-7.073 4.577-7.906 7.489-6.241 5.315 3.037 14.378 3.55 10.427 8.225-.255.302-.54.612-.857.929-6.241 6.241-9.57 6.657-12.482 6.657-2.913 0-4.993-2.497-4.577-9.57Zm-11.65 64.908c-.416 4.577 4.16 5.825 5.409 6.242 1.664.606 1.248 0 2.08-2.497.833-2.496-2.08-2.496 0-6.657 2.081-4.161-.416-14.147-3.744-16.227-3.329-2.081-5.826 7.905-3.745 12.898 2.08 4.993.416 1.664 0 6.241Zm14.563-34.534c0-.42.037-.802.107-1.15 1.05-5.259 9.429-2.12 9.047 3.23-.416 5.825-7.49 6.241-9.154 5.825-1.664-.416 0-2.496 0-7.905Zm-32.454 22.884c.823 1.646 4.19 1.868 6.276 1.269 4.248-1.22-8.253-5.222-6.276-1.269ZM74.847 528.506c-.832-7.49-7.073-7.906-12.482-5.826-6.265 2.41 9.08 6.04 7.673 12.603-.445 2.074-.604 4.093.233 5.289 2.912 4.16 5.409-4.577 4.576-12.066Zm-12.896-21.637c-.423.084-.738.229-.963.421-4.107 3.502 8.12 11.479 10.533 6.652 1.664-3.328-5.409-7.905-9.57-7.073Zm-8.321-77.807.158.033c5.922 1.232 9.619 2.462 12.324 7.872 2.08 4.161-3.329 4.161-10.402 1.248-7.074-2.912-11.65-1.248-12.482-6.657-.833-5.409 4.576-3.744 10.402-2.496Zm22.882 18.306c-1.136 3.408 3.063 6.196 7.719 8.431 6.425 3.084 20.621 7.426 15.581 2.387-3.744-3.745-14.562-10.818-15.81-19.14-1.249-8.321-4.994-5.825-6.242 0-1.248 5.825.832 2.081-1.248 8.322ZM411.04 328.786a39.562 39.562 0 0 1 3.297-4.367c5.821-6.686 9.534-5.516 15.01 1.454 4.577 5.825 2.081 14.979-11.234 14.979-13.314 0-12.898 11.65-14.979 3.745-2.08-7.906 1.665-6.242 7.906-15.811Z" fill="#C0CF63"/><path d="M381.914 46.684c-12.316-24.965 9.847-32.87 22.469-33.703 42.717 0 131.231 2.58 143.547 12.899 15.395 12.898 7.905 37.031 3.745 52.842-4.161 15.811-10.819 27.045 0 44.52 10.818 17.476 0 23.301 0 47.85 0 24.548 4.16 7.905 15.394-5.826 11.235-13.73 30.374-10.402 39.944 5.826 9.57 16.227 19.14 23.716 31.622 42.856 12.482 19.139 24.133 18.723 42.856 29.541 18.724 10.818 7.906 60.748 0 60.748-7.905 0-14.979-17.059-31.206-17.059s-19.971-24.549-28.709-47.433c-8.738-22.885-8.738 9.569-29.126 3.744-20.388-5.825-16.227-6.241-28.709 5.825-12.483 12.067 0 14.563 17.891 19.14 17.892 4.577 14.563 4.993 15.811 18.724 1.248 13.73-9.57 6.241-4.993 17.059 4.577 10.818 20.388-3.329 37.864 6.657 17.475 9.986 3.744 19.14-13.315 23.301-17.059 4.16-4.161 13.314 9.154 36.198 13.314 22.885 10.402 12.067 0 23.301-10.402 11.234-10.402 29.542-13.315 21.636-2.912-7.905-9.986-29.958-20.388-51.594-10.402-21.636-11.234 2.913-16.227-10.818-4.993-13.73-9.986-12.898-20.388-22.884-10.402-9.986-2.912-19.972-7.905-36.615s-14.147-6.241-25.797-6.241-5.825-5.825-13.731 0c-7.905 5.825-10.402-5.825-29.125-13.731-18.724-7.905-27.462-15.811-32.454-40.776-4.993-24.964 17.059-4.161 27.045-24.132 9.986-19.972 2.496-17.476-22.053-37.447-24.548-19.972-2.912-13.731-12.066-44.521s-14.979-16.643-29.958-30.374c-14.978-13.73-12.482-18.307-27.877-49.513Zm243.88 3.071a69.326 69.326 0 0 0 3.273-13.058c3.039-20.138 20.608-32.627 39.849-25.954 8.08 2.803 15.478 6.782 19.234 11.391 9.154 11.234 2.08 66.157 0 91.122-2.08 24.964-18.724 18.723-33.703 7.489-14.978-11.234-15.811-9.57-32.87-32.454-8.54-11.456-.604-25.085 4.217-38.536Z" fill="#FFF2C5"/><path d="M583.297 376.634c11.65 8.987 8.737 22.884 5.825 28.71-1.456 3.744 7.073 3.744 11.65 11.65 4.577 7.905-2.497 7.073 12.066 13.73 14.563 6.658 11.234 42.024-1.248 52.426-12.482 10.402-29.958 2.497-39.944-10.402-9.985-12.898-15.811-5.825-22.884-2.496-7.073 3.328-4.993-4.577-5.825-16.643-.832-12.067-6.657-3.745-21.636-13.315s-9.986-15.811-4.993-34.95c4.993-19.14 0-7.074-8.322-9.154-8.321-2.081 0-14.563 8.322-22.469 8.321-7.905 0-12.066-8.322-20.804-8.321-8.737-8.321-3.744 0-17.059 8.322-13.314-3.328-14.146 8.322-16.643 11.65-2.496 9.986 8.738 19.972 21.22 9.986 12.483 17.891-2.08 19.971 4.577 2.081 6.657.833 4.161 9.154 16.643 8.322 12.483 3.329 3.745 17.892 14.979Z" fill="#C0CF63"/><path d="M569.15 485.231c2.33 5.991 6.796 8.599 8.738 9.153 6.241 2.081-2.497 7.074-8.738 7.906-6.241.832-3.745-3.329-9.986-5.825-6.241-2.497.832-3.745 0-11.234-.832-7.49-10.402-6.242-8.322-9.57 2.081-3.329 15.395 2.08 18.308 9.57Zm-38.279-31.622c7.073 2.496 7.073 13.73 9.986 16.643 5.825 4.993-2.081 14.979-7.906 9.57-5.825-5.409-7.073-4.161-7.905-9.57-.833-5.409.832-2.081-1.249-9.154-2.08-7.073 0-9.986 7.074-7.489Zm-7.074 26.213c5.992-.999 7.212 6.518 7.074 10.402.098 2.589-7.074 1.248-10.818-1.665-3.745-2.912-3.745-7.489 3.744-8.737Zm22.053 22.468c2.33-2.663 9.847 6.102 13.314 10.818 1.926 2.496 0 2.496-3.329 4.161-3.328 1.664-3.328-4.161-7.073-8.322-3.745-4.161-5.825-3.328-2.912-6.657Z" fill="#C0CF63"/><path d="M606.181 674.547c19.972-3.329 9.986-8.322 34.534 0 20.471 6.939 47.021 3.182 26.764 10.724-4.16 1.549-8.786 2.59-13.449 2.59-22.053 0-2.081 5.826-16.227 12.067-14.147 6.241-9.986 0-10.402 21.22-.417 21.22-7.074 12.482-14.979 0-7.906-12.483-3.329 6.657-10.402 18.723-7.074 12.067-9.154 17.06 0 32.038 9.153 14.979 4.161-4.992 18.307 4.993 14.147 9.986 20.388-.416 42.024-4.993 21.636-4.576 9.986 19.14-3.328 28.294-13.315 9.154-76.975 2.912-108.597-3.745s-39.944 16.227-49.93 0c-9.986-16.227-9.569-11.234-14.562-29.541-4.993-18.308 6.241 2.912 9.986-9.986 3.744-12.899 5.409.832 14.562 0 9.154-.833-3.328-5.825-3.328-13.731 0-7.905 8.738-14.563 0-15.395-8.738-.832-4.161-7.905 0-14.979 4.161-7.073 8.737 10.818 13.73 0s-6.657 0-4.993-12.898c1.665-12.899 6.658 4.577 11.235-6.241 4.576-10.818 3.744-2.081 14.146 10.818 10.402 12.898 11.651 21.636 15.811 8.321 4.161-13.314-11.65-11.65 4.161-15.811s9.57 1.248 20.804-9.154c11.234-10.402 4.161-9.986 24.133-13.314ZM244.608 533.496c17.974 5.659 2.774 12.898-7.074 15.811-43.688 9.154-47.017 13.315-54.09 33.702-7.073 20.388 8.738 29.958 25.797 33.703 17.059 3.745 22.468-16.227 45.769-13.315 23.3 2.913 7.905-14.146 11.65-38.279 3.745-24.133 9.57-10.818 14.563 4.577s7.905 0 13.314 16.227.832 12.066 32.038 24.133c31.206 12.066 29.126 29.125 0 64.492-29.125 35.367-78.639 34.534-139.802 29.958-61.164-4.577-103.188-66.573-111.51-91.538-8.321-24.965 1.665-12.482 4.993-23.716 3.329-11.234-15.395-7.906-11.65-24.133 3.745-16.227 6.657-5.825 14.979-15.811s3.329-7.905 19.556-26.629 17.059.416 31.622 4.993c14.562 4.577 15.811-3.329 24.548-13.731 8.738-10.402 9.57-12.066 32.871-6.657 23.3 5.409 29.957 19.14 52.426 26.213Zm195.973-109.845c3.291.897 6.088 3.34 8.31 6.174 4.712 6.009 7.42 13.375 10.025 20.553 1.173 3.23 2.053 6.416 2.053 8.64 0 6.241-3.745 1.248-3.745 7.905 0 6.658 3.745 6.241 0 9.57-3.744 3.329 3.745 4.577 6.242 15.811 2.496 11.234 5.825 10.818 0 12.482-5.826 1.665-2.497 10.402 0 20.804 2.496 10.402.832 6.658-2.497 11.235-3.329 4.576-6.657-6.658-10.818-6.242-4.161.416 4.161 3.745 4.161 12.483 0 8.737-4.161 1.248-10.818-6.241-6.657-7.49-20.804-25.381-27.461-42.441-6.658-17.059 1.664-42.024 0-52.009-1.665-9.986-5.409-.833-13.731-10.818-8.322-9.986-5.825-11.235 2.08-19.556 7.905-8.322 2.497-11.65 0-19.14s-9.57 3.329-7.905-4.993c1.664-8.321-5.825-4.577-5.825-11.234s-7.074-9.154-7.906-14.979c-.832-5.825 1.248-7.073 7.906-9.154 6.657-2.08 8.737 7.906 13.73 17.06 4.993 9.153 4.577 3.328 6.242-5.409 1.664-8.738-6.242-7.074 2.08-14.147 8.321-7.073 8.738-.832 25.381 4.577s16.227 9.986 16.227 20.388c0 10.402 0 4.993-4.161 10.818-4.161 5.825 0 7.905-6.657 7.073-6.657-.832-5.409 5.825 3.744 13.731 9.154 7.905 7.074 10.402 0 12.066-7.073 1.664-15.811 2.496-6.657 4.993Zm-99.858-40.359c-.998 12.316 12.899 18.724 19.972 20.388 4.577 1.452 7.49 9.57 12.067 7.073 4.576-2.496-2.913-3.329-2.913-12.482 0-9.154 1.664-10.402 0-19.972-1.664-9.57 2.08-7.073 0-11.65s1.248-6.657-3.329-14.563c-4.576-7.906-2.08 2.496-7.073 4.161-4.993 1.664-2.08 2.912-9.986 3.745-7.905.832-14.147-3.329-14.147 2.912s6.658 4.993 5.409 20.388Zm-36.614 50.761c2.496-5.825-5.409-2.496-2.497-8.321 2.064-4.128 6.072 1.002 10.242-.977a28.197 28.197 0 0 1 2.657-1.103c5.825-2.081.832-4.577 11.234-6.242 10.402-1.664 8.321 0 12.066-4.993 3.745-4.993-1.664-7.489-3.745-14.978-2.08-7.49 4.993-3.329 1.248-8.322-3.744-4.993-4.992 1.664-9.569 0-4.577-1.664 5.409-5.825 3.328-14.979-2.08-9.154-7.489 0-12.066 6.657-4.577 6.658 0 7.49-8.321 9.986-8.322 2.497-4.577-3.328-12.483 0-7.905 3.329-2.496 7.49-8.321 11.234-5.826 3.745-5.41 5.409-1.665 10.402 3.745 4.993 0 10.402 0 15.395s9.57 4.577 9.986 9.57c.416 4.993 5.409 2.497 7.906-3.329Z" fill="#FFF2C5"/><path d="M358.198 514.773c7.701-.285 12.693 3.89 14.924 6.923.635.863 1.832 1.893 2.874 1.646 2.686-.638 4.827-3.36 7.338-4.506 1.431-.653 2.48-1.886 2.325-4.063-.416-5.825-7.906 0-7.49-9.57.416-9.57-2.496-4.993-9.153-5.409-6.658-.416-18.308 0-18.308-6.241s4.161-1.664 7.49-11.234c3.328-9.57 2.08-9.986 10.818-18.308 8.737-8.321 4.992-7.905 4.993-14.562 0-6.658-8.738-4.161-9.986-10.819-1.249-6.657-5.825-6.241-7.49-7.905-1.664-1.664 3.745-8.322 0-11.234-3.745-2.913-9.986 1.664-15.811-1.665-5.825-3.328-4.577 3.329-15.811 7.906s-7.905 2.08-11.65 8.738c-3.745 6.657 2.496 3.744 3.745 9.153 1.248 5.409-7.906 3.745-9.57 10.818-1.665 7.074 5.409 8.738 20.388 12.067 14.979 3.328 9.569 4.993 10.402 13.73.832 8.738 2.912 5.409 2.496 13.315-.416 7.905-7.905.416-12.898 6.241-4.993 5.825 14.979.832 22.884 5.409 7.906 4.577-3.745 9.986 7.49 9.57ZM655.694 12.15c7.298-2.885 14.69 1.463 20.918 7.98 11.168 11.689 13.617 28.696 13.617 44.863 0 7.073-1.664 12.066-4.577 21.636-2.913 9.57-1.248 18.307-1.664 29.958-.416 11.65-4.577 9.569-11.651 9.153-7.073-.416-7.489-4.576-21.636-13.314-14.146-8.738-6.241-7.49-18.723-19.14-12.43-11.601-11.657-14.95-9.185-25.661l.031-.136c2.496-10.818 9.986-22.468 14.147-37.447 4.16-14.979.832-10.818 18.723-17.892ZM346.547 336.276c12.062 1.04 19.663 4.408 24.041 7.668 3.444 2.565 7.885 4.563 9.662.654 2.08-4.577 7.073-4.161 14.979-8.322 7.905-4.16 14.562-23.3 16.227-34.534 1.664-11.234-2.913-7.489-11.651-6.241-8.737 1.248-11.234-3.745-4.576-21.22 6.657-17.476-10.402-33.703-12.483-49.098-2.08-15.395 4.161-17.475 18.308-12.898 14.146 4.577 13.73 7.489 15.811 4.161 2.08-3.329-2.913-13.731 0-22.053 2.912-8.321-19.972-13.314-21.636-23.716-1.665-10.402 7.489-18.308 10.818-19.556 3.328-1.248-.416-5.409-9.154-9.57-8.738-4.16-9.57-6.657-16.643-4.576-7.074 2.08-9.154 23.716-14.147 44.104-4.973 20.308-31.002 16.259-49.71 13.349l-.219-.035c-18.724-2.912-35.367 11.235-29.126 25.381 6.241 14.147 4.993 47.017 0 59.084-4.993 12.066 1.248 8.737 0 15.395-1.248 6.657-8.322-12.483-2.496-31.206 5.757-18.506.133-34.167-5.622-50.196l-.204-.566c-5.825-16.227-59.499-19.14-71.565-17.892-12.067 1.249-24.133 6.658-28.294 13.315-4.16 6.657-10.402 6.657-9.569 12.066.832 5.409-4.993 27.462-2.913 33.287 2.08 5.825 0 48.265-2.08 54.922-2.081 6.657-.416 21.22 2.08 25.797 2.497 4.577 0-2.913 5.825 0s6.657 4.161 10.818 0 17.476 4.993 21.22 7.489c3.745 2.497 8.738 2.081 10.402-3.328 1.664-5.409 11.234-4.161 17.892-7.074 6.657-2.912 8.737-7.489 17.891-8.321 9.154-.832 25.797-10.402 28.293-2.913 2.497 7.49-9.986 12.067-18.723 14.147-8.738 2.08-17.475 9.57-20.804 13.731-3.329 4.16-19.14 10.818-38.695 4.16-19.556-6.657-18.724-1.248-21.637 1.665-2.912 2.912 12.899 15.811 18.724 16.643 5.825.832 13.314-2.08 17.059 3.745 3.745 5.825 3.329 2.08 6.657 1.664 3.329-.416 14.563-3.329 11.235 8.322-3.329 11.65 1.248 13.73 7.905 15.811 6.657 2.08 8.738 2.912 11.65 4.576 2.913 1.665.833 1.665 5.409-2.912 4.577-4.577 11.234.832 13.731 0s0-20.804 0-23.717c0-2.912-6.241-3.744-11.234-7.489-4.993-3.745-11.234-5.409-10.818-9.57.416-4.161 4.577-1.664 8.321-7.073l.07-.101c3.696-5.339 5.376-7.766 11.164-1.564 5.826 6.242 6.242 6.242 14.979 3.745 8.738-2.496 8.322-2.912 9.57 7.49 1.248 10.402 1.248 8.321 5.825 10.818 4.577 2.496 12.483-4.993 15.811-9.154 3.329-4.161-13.314-20.804-17.891-24.133-4.577-3.328-6.657-.832-12.482-2.496-5.826-1.665-4.161-14.147-3.745-18.308.416-4.16 4.161-12.066 11.234-6.657 7.073 5.409 16.227 14.979 24.133 16.227 7.905 1.248 6.241 4.993 30.373 7.073Z" fill="#C0CF63"/><path d="M337.809 20.056c14.646-4.993 25.797 9.847 29.542 17.892 3.375 5.825-2.081 8.737 4.16 16.642 6.242 7.906 0 12.483-9.985 26.63-9.986 14.146 2.912 37.031 9.985 53.258 7.074 16.227-4.16 17.891-9.985 27.461-5.826 9.57-2.913 18.307-10.402 28.293-7.49 9.986-32.039-2.912-54.091 2.081s-14.146 12.482-27.461 4.16c-13.315-8.321-41.192-3.328-46.601-9.153-5.409-5.825 2.913-6.242-4.577-15.811-7.489-9.57-4.993-8.322 4.577-15.811 9.57-7.49-4.993-12.899-4.577-26.629.416-13.731-7.905-10.818-4.993-21.637 2.913-10.818-2.08-7.905-2.912-19.14-.832-11.233 10.402.833 22.884-7.073 12.483-7.905-2.912-12.898 0-19.14 2.913-6.24 8.738-.831 19.14-20.803 10.402-19.972 12.482-17.476 24.549-21.22 12.066-3.744 2.08 12.482 5.825 21.22 3.744 8.737 42.024 11.234 40.359-3.328-1.664-14.563-3.744-11.65 14.563-17.892Zm-237.165-7.074c2.663-5.658 10.818-9.015 14.563-9.985.971 0 2.912 1.165 2.912 5.825 0 5.825 11.234 7.49 15.395 13.73 4.161 6.242-4.993 12.483-15.395 13.315-10.402.832-12.898 2.08-20.388 5.409-7.49 3.328-5.825-7.906-2.496-15.395 3.329-7.49 2.08-5.825 5.409-12.899ZM61.532 155.698c6.658-8.655 5.826-19.695 4.577-24.133 4.577-30.374-28.293-24.133-26.212-6.657 2.08 17.475.416 17.475-4.994 37.031-5.409 19.556-12.898 16.643-11.65 30.374 1.248 13.73 9.986 16.643 11.65 23.3 1.665 6.657 16.227 4.161 13.315-9.57-2.913-13.73 4.16-13.73 6.657-24.132 2.497-10.402-1.664-15.395 6.657-26.213Zm65.325 66.572c7.323 4.327 9.154-9.848 9.154-17.476 6.241-20.388 0-21.636 0-32.038 0-10.402-3.744-17.891-3.744-32.454 0-14.563 3.744-14.979 5.409-19.972 1.664-4.993-4.993-12.066-5.409-19.972-.416-7.905-14.147 2.913-14.147 12.483s-2.913 16.643-14.147 32.454-9.986 24.133-19.14 31.622c-9.153 7.489-6.657 14.563-4.992 32.87 1.664 18.308-6.658 24.965-1.665 27.045 4.993 2.081 17.06-6.241 28.71-18.723 11.65-12.483 10.818-1.248 19.971 4.161ZM88.58 275.944c-6.658 4.66-1.11 8.876 2.496 10.402 4.398 8.737-16.228-4.577-10.402-12.899 5.825-8.322-2.913-4.577-1.665-11.65 1.248-7.073 12.067-2.497 19.14 1.248s-1.248 7.074-9.57 12.899Zm7.073 14.978c-1.998 4.993-5.548 10.402-7.074 12.483-5.825 6.657 7.074 3.328 19.14 4.577 12.066 1.248 14.563-4.577 23.3-7.49 8.638-2.879 1.418-8.198-6.386-13.947l-.271-.199c-7.906-5.825-26.213-1.665-28.71 4.576Zm-18.724-4.576c11.65 8.321 6.241 14.84 2.08 17.059-9.57-3.966-11.65 2.08-28.71 4.577-17.058 2.496-11.233-2.497-12.065-17.06-.833-14.562 4.576 0 12.066-7.905 7.49-7.906 12.066-7.073 26.629 3.329Z" fill="#C0CF63"/><path d="M88.58 351.67c0-4.161-11.235 0-24.966-10.402-3.41-2.583-7.49-9.306-8.737-14.563-1.249-5.257-4.41-9.933-2.497-12.898 1.711-3.745.832-3.329-9.57-2.497-10.402.832-9.153-5.825-7.489-14.146 1.664-8.322.832-10.818-2.913-12.899-3.744-2.08-7.905 3.329-10.818 9.986-2.912 6.657.833 7.489-4.992 15.395-5.826 7.905-4.161 17.891-3.745 23.716.416 5.826 12.898 15.812 15.395 23.717 2.496 7.906-6.658 20.388-9.986 30.79-3.329 10.402 5.409 9.986 9.986 14.147 4.576 4.16 9.986 13.314 14.562 14.562 4.577 1.249 21.22-4.16 30.79-4.577 9.57-.416 9.57-4.576 9.57-7.905 0-3.329-6.241 1.248-9.57-3.745-3.328-4.993 3.329-6.241 7.074-12.482 3.744-6.241 0-2.913-5.826-4.993-5.825-2.08-3.328-7.073-3.744-12.066-.416-4.993-6.241-3.329-9.57-8.738-3.329-5.409 3.745-10.402 15.395-6.241 11.65 4.161 11.65 0 11.65-4.161Zm-59.918 79.472c-9.986.666-14.701 9.154-15.81 13.315 0 10.818 5.824 13.73 25.796 13.73s12.482.416 22.468 4.993 11.65 12.483 15.811 18.308c4.161 5.825 1.249 10.818-1.664 12.898-2.913 2.08-8.738-2.912-15.81-9.986-7.074-7.073-5.826-7.489-8.323-7.489-2.496 0-5.409 14.146-7.489 19.555-2.08 5.41 2.497 8.322-10.402 6.658-12.898-1.665-17.06-16.227-22.468-26.213-5.41-9.986.832-12.899-2.913-21.636-3.744-8.738-5.409-13.315-5.409-21.636 0-8.322 3.745-11.235 5.41-18.724 1.664-7.489 6.24-14.979 7.489-16.643 1.248-1.664 4.576 3.745 3.328 7.073-1.248 3.329-1.664 8.322 2.913 15.395 4.577 7.074 19.556 9.57 7.073 10.402Zm116.502-37.863c17.476.416 15.811 6.241 19.14 7.073 2.08 7.074 0 2.497-.832 7.073-.832 4.577 9.986 1.665 19.556 6.658 9.569 4.993 0 4.993 5.409 14.562 5.409 9.57 8.737 7.906 9.986 13.315 1.248 5.409-5.826 3.745-2.497 9.986 3.329 6.241 4.993 11.234-2.08 9.986-7.074-1.249-9.154 4.577-13.731 5.825-4.577 1.248-10.402 4.993-13.731 7.073-3.328 2.081-5.825.832-13.314-2.912-7.49-3.745-10.402 4.993-14.979.832-4.577-4.161-24.965-8.322-27.877-9.57-2.913-1.248-.416-4.993 0-11.234s-7.49-1.664-10.402-3.745c-2.913-2.08-1.248-9.57-1.665-14.563-.416-4.993 1.665-4.16 7.074-6.241 5.409-2.08 2.496-5.409 3.328-12.066.833-6.657 2.913-1.248 5.826-8.322 2.912-7.073-.417-4.576 6.657-11.234 7.073-6.657 6.657-2.912 24.132-2.496Zm57.419 160.606c-23.3 9.986-24.548 33.702-25.797 38.279-1.501 7.49 5.409 14.979 14.563 22.052 9.154 7.074 26.213 4.993 32.454 4.161 6.241-.832 17.476-13.314 23.301-13.314 5.825 0 15.395 2.08 20.388 0 4.992-2.081 3.328-6.658 1.664-22.053-1.664-15.394-.416-13.73 1.664-22.884 2.081-9.154 2.913-2.08 4.993 3.745 2.081 5.825 4.577 14.979 11.234 17.475 6.658 2.497 3.745 2.913 4.577 7.906.832 4.993 4.993 13.73 18.308 17.891 13.314 4.161 18.723 7.489 29.125 13.315 10.402 5.825 7.074 11.65 7.074 17.891 0 6.241-10.402 18.307-13.315 24.133-2.913 5.825-9.986 12.066-18.307 20.387-8.322 8.322-12.483 7.074-27.462 12.067s-13.73 5.825-58.667 8.321c-44.936 2.497-71.566-7.905-91.953-20.388-20.388-12.482-50.762-54.922-54.923-62.411-4.16-7.49-8.738-19.14-6.241-22.053 2.496-2.912 6.657-3.744 8.322-9.153 1.664-5.409-1.249-7.074-8.322-13.315-7.073-6.241-4.577-9.986-2.497-15.811 2.08-5.825 7.906-.832 15.811-11.234 7.906-10.402 12.483-21.636 20.388-26.213 7.906-4.577 10.818-2.08 14.147 2.913 3.329 4.992 13.315 6.241 20.388 7.073 7.073.832 9.986-5.409 17.059-13.315 7.074-7.905 7.49-9.153 14.147-10.818 6.657-1.664 12.898 3.745 21.22 4.161 8.287.415 20.289 9.083 27.785 14.496l.092.067c7.49 5.409 18.308 8.322 23.301 10.402 4.993 2.08 0 6.241-11.234 8.738-11.235 2.496-9.986-2.497-33.287 7.489Zm398.605 180.162c-1.997 8.321-5.548 13.73-7.074 15.395-3.745 5.975 2.497 24.548 9.571 28.292 7.073 3.745 5.408 0 10.402-.832 4.993-.832 3.744 2.081 9.985 4.993 6.241 2.913 19.972 0 25.797-3.745 5.825-3.744 6.242-2.496 15.395-4.16 9.154-1.665 5.409.832 6.658 3.744 1.248 2.913-2.913 7.074-3.329 9.57-.416 2.497-7.906 10.402-13.731 13.315-5.825 2.912-15.811 1.248-23.3 2.496-7.49 1.248-55.755-3.744-64.076-5.409-8.322-1.664-16.644-2.912-27.462-4.161-10.818-1.248-25.38 4.993-29.541 7.074-4.161 2.08-7.49-2.913-8.322-4.993-.832-2.081-6.241-10.402-8.737-13.731-1.998-2.663-3.606-7.767-4.161-9.986-1.526-4.161-4.161-12.149-2.497-10.818 2.081 1.665 5.826 1.665 7.49 1.248 1.664-.416 3.328-4.993 4.161-7.905.832-2.913.832-1.248 5.409 2.08 4.576 3.329 8.737 1.249 10.402.832 1.664-.416 1.664-2.496-.416-5.409-2.081-2.912-4.577-6.241-4.993-9.153-.416-2.913 2.496-8.738 3.744-10.402 1.249-1.665.416-3.329-2.08-5.409-2.497-2.081-4.993-.416-6.657-2.081-1.665-1.664 3.328-9.153 5.409-10.818 2.08-1.664 1.248 0 4.16 2.497 2.913 2.496 4.993 1.248 7.074 0 2.08-1.249 6.241-9.154.832-11.234-5.409-2.081-4.577-9.154-1.249-6.658 3.329 2.497 9.154-2.08 10.818-4.993 1.665-2.912 2.497 2.497 5.41 7.49 2.912 4.993 9.569 17.059 13.73 19.972 4.161 2.912 5.409-.416 9.57-4.993 4.161-4.577-.416-11.651 0-14.979.416-3.329 3.745-2.913 10.818-2.913 7.073 0 9.986-6.241 17.059-12.066 7.074-5.824 6.657-7.906 12.899-8.322 6.241-.416 17.891-4.16 20.804-5.408 2.912-1.249 11.65 1.248 19.971 4.16 8.322 2.913 28.294 3.745 27.462 5.41-.833 1.664-5.409 3.328-13.731 4.16-8.322.832-13.315-.416-13.731 4.577-.416 4.993-2.08 6.241-8.321 9.154-6.241 2.912-8.738 2.08-8.738 11.65s.416 18.308-1.664 18.724c-2.081.416-11.234-12.899-13.315-15.811-2.08-2.913-5.409 9.154-7.905 19.556ZM550.842 45.022c6.324 12.982-1.248 32.316-5.825 40.36-8.322 17.059 1.248 34.118 5.409 41.192 4.161 7.073 4.993 10.818 2.912 18.307-2.08 7.49-4.577 20.804-4.16 25.797.416 4.993-.833 12.482 3.744 15.395 4.577 2.913 6.657-7.906 11.65-13.315s4.161-11.234 19.972-13.314c15.811-2.08 24.133 20.388 28.294 23.716 4.16 3.329 17.059 21.22 27.877 36.615 10.818 15.395 31.206 22.053 40.776 29.126 9.57 7.073 7.489 22.468 7.073 33.702-.416 11.235-4.993 15.395-7.073 17.476-2.081 2.08-7.49-.832-14.979-9.57-7.49-8.738-15.811-7.073-21.22-7.906-5.409-.832-23.301-44.936-24.133-49.513-.832-4.577-7.489-6.241-11.234 0s-6.657 7.489-11.65 8.738c-4.993 1.248-17.059-4.161-21.636-5.409-4.577-1.249-14.979 7.489-19.556 19.971-4.577 12.483 25.797 12.483 32.87 19.14 7.074 6.657 4.993 13.315 0 18.724-4.993 5.409-1.664 13.314 8.322 17.059 9.986 3.745 11.65-3.329 27.461 1.664 15.811 4.993 7.073 8.738 4.161 12.899-2.913 4.16-17.475 7.073-24.133 11.65-6.657 4.577 21.636 42.024 25.381 46.185 3.745 4.16 0 2.08-5.409 4.993-5.409 2.912-11.234 19.555-12.066 20.804-.832 1.248-2.081-3.329-3.745-9.986-1.664-6.658-11.65-37.447-21.636-46.185-9.986-8.738-7.073 2.496-8.738-1.248-1.664-3.745-8.321-17.476-19.139-23.717s-7.49-18.723-7.49-32.454c0-13.731-10.818-14.979-19.139-14.979-8.322 0-12.483 3.745-19.14 0s-7.073 7.073-12.066 3.745c-4.993-3.329-34.951-21.636-44.521-30.79s-6.657-22.052-5.825-27.877c.832-5.826 12.066-5.826 19.556-7.49 7.489-1.664 5.409-12.482 9.154-19.139 3.744-6.658-8.322-20.804-20.388-28.294-12.067-7.489-17.476-9.986-14.979-17.891 2.496-7.906.416-28.294-2.497-41.192-2.912-12.899-27.877-18.308-35.366-26.63-7.49-8.32-24.133-42.44-23.717-54.506.416-12.066 6.657-9.57 23.717-12.898 17.059-3.329 96.946 2.496 123.991 8.738 27.045 6.24 11.234 2.08 19.14 18.307ZM333.233 392.03c-1.665 1.248-.417 6.657.416 7.905.416.88 3.328 7.49 3.328 9.986 0 2.497-2.912 5.409-7.073 4.993-4.161-.416-14.147 2.913-13.731 4.993.416 2.081-4.993 4.993-8.321 3.329-3.329-1.664-7.074 0-8.738 2.913-1.664 2.912 2.497 4.576 3.329 6.241.832 1.664-4.161 7.489-4.577 4.993-.416-2.497-2.497-4.993-6.241-6.658-3.745-1.664-4.161-4.993-2.913-9.153 1.248-4.161 0-7.906-2.08-11.651-2.081-3.744-.416-4.992 2.08-6.657 2.497-1.664 3.329-4.577 4.161-7.489.832-2.913 4.161-4.577 7.489-3.745 3.329.831 4.577.832 9.986 0 5.409-.833 5.825-5.409 7.49-8.738 1.664-3.328 2.08-2.496 4.577-7.489 2.496-4.993 3.744-3.329 5.409 0 1.664 3.328-2.497 6.241-4.577 11.65-2.081 5.409 7.073 2.496 8.737 1.664 1.665-.832 2.913 1.664 1.249 2.913Zm32.038-37.863c1.997-.999 1.941 5.131 1.664 8.321 0 .555.166 2.247.832 4.578.832 2.912.832 3.328-.832 4.992-1.664 1.665 1.664 13.731 1.664 17.059 0 3.328-2.496 7.49 0 12.899 2.497 5.409 3.329 6.657 2.081 7.49-1.249.832-3.745-5.409-10.818-7.49-7.074-2.08-11.651-7.489-14.563-9.986-2.913-2.498-2.913-7.489-2.913-12.898s0-7.074-2.912-13.731c-2.913-6.657-.416-2.913 2.912-2.913 3.329 0 12.067-2.08 15.811-2.496 3.745-.416 4.577-4.577 7.074-5.825Zm84.88 60.747c0 2.497-11.65 3.745-12.899 4.993-1.248.585-5.409 3.329 0 4.994 5.409 1.665 11.235 11.234 13.731 12.898 2.497 1.665 8.322 17.892 5.825 22.469-2.496 4.576-1.664 8.737-1.664 13.73s-3.329 6.241 1.664 9.986c4.993 3.745 6.657 14.563 7.073 17.475.417 2.913-1.248-.832-5.825 4.577-4.576 5.409 2.081 21.22 3.745 24.965 1.664 3.745-2.912 6.657-4.993 2.08-2.08-4.576-13.73-9.569-10.402-2.08 3.329 7.489 5.409 12.898 3.745 11.65-1.664-1.248-19.556-27.045-26.629-36.615-7.074-9.57-4.993-15.395-7.074-22.052-2.08-6.657 1.249-31.622 2.081-39.527.832-7.906-2.081-7.49-10.818-12.067-8.738-4.578 0-5.825-5.825-9.154-5.825-3.329 8.737-13.315 9.57-16.643.832-3.328-3.745-12.482-5.41-17.476-1.664-4.994-6.657 0-7.073-1.664-.416-1.664 0-1.664-1.248-5.408-1.248-3.745-5.409-2.913-4.577-8.322.832-5.409-7.489-9.154-7.489-13.731s6.657-6.657 10.402-2.496c3.744 4.161 8.737 16.227 11.65 17.891 2.912 1.665 2.08-2.08 3.745-6.657 1.664-4.577.832-9.154 0-12.898-.833-3.745 1.248-1.665 4.992-5.826 3.745-4.161 28.71 8.738 33.703 13.315 4.993 4.577 2.496 12.482 1.664 17.891-.832 5.41-3.745 2.08-5.409 7.905-1.664 5.825-2.496 0-9.154 2.913-6.657 2.912 12.899 20.388 12.899 22.884Z" fill="#C0CF63"/><path fill-rule="evenodd" clip-rule="evenodd" d="M161.493 55.094c-11.775 9.964-38.218 32.235-49.666 41.501-6.737 5.455-9.119 9.75-10.568 14.783-.654 2.273-1.117 4.693-1.666 7.564-.092.481-.186.975-.285 1.482-.675 3.493-1.501 7.502-2.898 12.216-1.464 4.941-3.53 8.594-5.895 12.11a167.068 167.068 0 0 1-2.771 3.956c-1.546 2.163-3.142 4.395-4.888 7.2-5.395 8.665-11.583 21.933-16.973 49.22-8.988 45.501-41.879 58.129-58.099 58.613l-.073-.925v-2.179l.032-.605.04-.733.05-.813.027-.265c14.14-.422 44.275-11.555 52.688-54.147 5.486-27.772 11.872-41.693 17.692-51.041 1.805-2.898 3.63-5.456 5.261-7.745.905-1.27 1.751-2.456 2.502-3.572 2.18-3.24 3.938-6.384 5.193-10.619 1.323-4.463 2.11-8.27 2.773-11.703.094-.482.185-.96.275-1.434.545-2.853 1.06-5.551 1.79-8.084 1.78-6.183 4.835-11.404 12.372-17.505 11.392-9.222 37.787-31.451 49.575-41.426l3.512 4.151Z" fill="#CE9D1D"/><circle cx="161.407" cy="50.942" r="9.147" fill="#EA3327"/><circle cx="119.093" cy="295.372" r="9.147" fill="#EA3327"/><circle cx="166.845" cy="420.443" r="9.147" fill="#EA3327"/><circle cx="574.684" cy="710.63" r="9.147" fill="#EA3327"/><circle cx="433.299" cy="513.415" r="9.147" fill="#EA3327"/><circle cx="575.696" cy="455.996" r="9.147" fill="#EA3327"/><path d="M165.838 15.407v3.18h-3.86v6.82h-3.32v-10h7.18Zm1.303 10.28a2.08 2.08 0 0 1-1.5-.6c-.4-.413-.6-.906-.6-1.48 0-.573.207-1.06.62-1.46.414-.413.907-.62 1.48-.62.574 0 1.06.207 1.46.62.414.4.62.887.62 1.46 0 .574-.206 1.067-.62 1.48-.4.4-.886.6-1.46.6Zm15.273.02c-2.107 0-3.854-.693-5.24-2.08-1.374-1.4-2.06-3.14-2.06-5.22 0-2.08.686-3.813 2.06-5.2 1.386-1.4 3.133-2.1 5.24-2.1 1.266 0 2.44.3 3.52.9 1.08.6 1.926 1.407 2.54 2.42l-3.1 1.78a2.808 2.808 0 0 0-1.2-1.16 3.52 3.52 0 0 0-1.76-.44c-1.12 0-2.027.354-2.72 1.06-.68.694-1.02 1.607-1.02 2.74 0 1.134.34 2.054 1.02 2.76.693.694 1.6 1.04 2.72 1.04.653 0 1.24-.14 1.76-.42a2.895 2.895 0 0 0 1.2-1.2l3.1 1.8a6.676 6.676 0 0 1-2.54 2.44c-1.067.587-2.24.88-3.52.88Zm12.237-.02c-1.48 0-2.74-.506-3.78-1.52-1.04-1.026-1.56-2.28-1.56-3.76s.52-2.726 1.56-3.74c1.04-1.026 2.3-1.54 3.78-1.54 1.493 0 2.753.514 3.78 1.54 1.04 1.014 1.56 2.26 1.56 3.74 0 1.48-.52 2.734-1.56 3.76-1.027 1.014-2.287 1.52-3.78 1.52Zm0-3.2c.587 0 1.067-.193 1.44-.58.387-.386.58-.886.58-1.5 0-.613-.193-1.113-.58-1.5-.373-.386-.853-.58-1.44-.58-.573 0-1.053.194-1.44.58-.373.387-.56.887-.56 1.5 0 .614.187 1.114.56 1.5.387.387.867.58 1.44.58Zm12.96-7.36c1.334 0 2.447.507 3.34 1.52.907 1 1.36 2.254 1.36 3.76 0 1.507-.453 2.767-1.36 3.78-.893 1-2.006 1.5-3.34 1.5-1.213 0-2.16-.4-2.84-1.2v4.92h-3.32v-14h3.32v.92c.68-.8 1.627-1.2 2.84-1.2Zm-2.26 6.86c.387.4.894.6 1.52.6.627 0 1.134-.2 1.52-.6.387-.4.58-.926.58-1.58 0-.653-.193-1.18-.58-1.58-.386-.4-.893-.6-1.52-.6-.626 0-1.133.2-1.52.6-.386.4-.58.927-.58 1.58 0 .654.194 1.18.58 1.58Zm16.372-6.58v3.18h-2.86v6.82h-3.32v-6.82h-2.9v-3.18h9.08Zm7.862 0h3.32v10h-3.32v-.92c-.68.8-1.626 1.2-2.84 1.2-1.333 0-2.453-.5-3.36-1.5-.893-1.013-1.34-2.273-1.34-3.78 0-1.506.447-2.76 1.34-3.76.907-1.013 2.027-1.52 3.36-1.52 1.214 0 2.16.4 2.84 1.2v-.92Zm-3.62 6.58c.387.4.894.6 1.52.6.627 0 1.134-.2 1.52-.6.387-.4.58-.926.58-1.58 0-.653-.193-1.18-.58-1.58-.386-.4-.893-.6-1.52-.6-.626 0-1.133.2-1.52.6-.386.4-.58.927-.58 1.58 0 .654.194 1.18.58 1.58Zm16.545-1.68c.933.44 1.4 1.18 1.4 2.22 0 .88-.3 1.58-.9 2.1-.6.52-1.467.78-2.6.78h-5.58v-10h5.24c1.12 0 1.98.26 2.58.78.6.52.9 1.22.9 2.1 0 .88-.347 1.554-1.04 2.02Zm-2.94-2.42h-1.56v1.32h1.56c.533 0 .8-.213.8-.64 0-.453-.267-.68-.8-.68Zm.26 5c.52 0 .78-.233.78-.7 0-.44-.26-.66-.78-.66h-1.82v1.36h1.82Zm12.451-7.48h3.32v10h-3.32v-.92c-.68.8-1.627 1.2-2.84 1.2-1.334 0-2.454-.5-3.36-1.5-.894-1.013-1.34-2.273-1.34-3.78 0-1.506.446-2.76 1.34-3.76.906-1.013 2.026-1.52 3.36-1.52 1.213 0 2.16.4 2.84 1.2v-.92Zm-3.62 6.58c.386.4.893.6 1.52.6.626 0 1.133-.2 1.52-.6.386-.4.58-.926.58-1.58 0-.653-.194-1.18-.58-1.58-.387-.4-.894-.6-1.52-.6-.627 0-1.134.2-1.52.6-.387.4-.58.927-.58 1.58 0 .654.193 1.18.58 1.58Zm18.184-6.58v10h-3.32v-6.82h-2v2.68c0 1.574-.393 2.7-1.18 3.38-.773.68-1.966.934-3.58.76v-3.08c.48.134.84.074 1.08-.18.24-.266.36-.72.36-1.36v-5.38h8.64Zm8.951 0h3.32v10h-3.32v-.92c-.68.8-1.626 1.2-2.84 1.2-1.333 0-2.453-.5-3.36-1.5-.893-1.013-1.34-2.273-1.34-3.78 0-1.506.447-2.76 1.34-3.76.907-1.013 2.027-1.52 3.36-1.52 1.214 0 2.16.4 2.84 1.2v-.92Zm-3.62 6.58c.387.4.894.6 1.52.6.627 0 1.134-.2 1.52-.6.387-.4.58-.926.58-1.58 0-.653-.193-1.18-.58-1.58-.386-.4-.893-.6-1.52-.6-.626 0-1.133.2-1.52.6-.386.4-.58.927-.58 1.58 0 .654.194 1.18.58 1.58ZM17.817 294.639h1.5v6.14h-3.56v-2.68h-6.54v2.68h-3.58v-6.14h1.48c.64-1.027.96-2.507.96-4.44v-6.1h9.74v10.54Zm-6.98 0h3.42v-7.22h-2.62v2.82c0 1.866-.266 3.333-.8 4.4Zm16.546-6.54h3.32v10h-3.32v-.92c-.68.8-1.626 1.2-2.84 1.2-1.333 0-2.453-.5-3.36-1.5-.893-1.014-1.34-2.274-1.34-3.78 0-1.507.447-2.76 1.34-3.76.907-1.014 2.027-1.52 3.36-1.52 1.214 0 2.16.4 2.84 1.2v-.92Zm-3.62 6.58c.387.4.894.6 1.52.6.627 0 1.134-.2 1.52-.6.387-.4.58-.927.58-1.58 0-.654-.193-1.18-.58-1.58-.386-.4-.893-.6-1.52-.6-.626 0-1.133.2-1.52.6-.386.4-.58.926-.58 1.58 0 .653.194 1.18.58 1.58Zm14.465-6.58h3.34v10h-3.34v-2.8c-.693.173-1.36.26-2 .26-1.2 0-2.18-.32-2.94-.96-.747-.654-1.12-1.574-1.12-2.76v-3.74h3.34v3.16c0 .813.487 1.22 1.46 1.22.44 0 .86-.067 1.26-.2v-4.18Zm12.3 0h3.32v10h-3.32v-.92c-.68.8-1.627 1.2-2.84 1.2-1.334 0-2.454-.5-3.36-1.5-.894-1.014-1.34-2.274-1.34-3.78 0-1.507.447-2.76 1.34-3.76.906-1.014 2.026-1.52 3.36-1.52 1.213 0 2.16.4 2.84 1.2v-.92Zm-3.62 6.58c.386.4.893.6 1.52.6s1.133-.2 1.52-.6c.386-.4.58-.927.58-1.58 0-.654-.194-1.18-.58-1.58-.387-.4-.894-.6-1.52-.6-.627 0-1.133.2-1.52.6-.387.4-.58.926-.58 1.58 0 .653.193 1.18.58 1.58Zm-31.53 16.18c1.173.693 1.76 1.74 1.76 3.14 0 1.24-.427 2.233-1.28 2.98-.854.746-1.994 1.12-3.42 1.12h-5.9v-14h5.52c1.4 0 2.52.36 3.36 1.08.84.706 1.26 1.673 1.26 2.9 0 1.173-.434 2.1-1.3 2.78Zm-3.42-3.56h-1.84v2.2h1.84c.32 0 .586-.094.8-.28.226-.2.34-.474.34-.82 0-.334-.107-.6-.32-.8-.214-.2-.487-.3-.82-.3Zm.38 7.6c.36 0 .653-.107.88-.32a1.17 1.17 0 0 0 .34-.86c0-.36-.114-.647-.34-.86-.227-.214-.52-.32-.88-.32h-2.22v2.36h2.22Zm13.21-6.8h2.56v10h-3.24v-4.68l-3.88 4.68h-2.56v-10h3.24v4.68l3.88-4.68Zm10.742 0h3.32v10h-3.32v-3.44h-2.94v3.44h-3.32v-10h3.32v3.44h2.94v-3.44Zm13.524 0v3.18h-2.86v6.82h-3.32v-6.82h-2.9v-3.18h9.08Zm3.762 6.22c.334.813 1.08 1.22 2.24 1.22.72 0 1.327-.234 1.82-.7l2.4 1.68c-.986 1.24-2.42 1.86-4.3 1.86-1.693 0-3.053-.494-4.08-1.48-1.013-1-1.52-2.26-1.52-3.78 0-1.507.5-2.767 1.5-3.78 1-1.014 2.274-1.52 3.82-1.52 1.494 0 2.727.5 3.7 1.5.974 1 1.46 2.253 1.46 3.76 0 .44-.046.853-.14 1.24h-6.9Zm-.04-2.3h3.84c-.266-.934-.893-1.4-1.88-1.4-1.026 0-1.68.466-1.96 1.4Zm14.666-4.2c1.333 0 2.447.506 3.34 1.52.907 1 1.36 2.253 1.36 3.76 0 1.506-.453 2.766-1.36 3.78-.893 1-2.007 1.5-3.34 1.5-1.213 0-2.16-.4-2.84-1.2v4.92h-3.32v-14h3.32v.92c.68-.8 1.627-1.2 2.84-1.2Zm-2.26 6.86c.387.4.893.6 1.52.6s1.133-.2 1.52-.6c.387-.4.58-.927.58-1.58 0-.654-.193-1.18-.58-1.58-.387-.4-.893-.6-1.52-.6s-1.133.2-1.52.6c-.387.4-.58.926-.58 1.58 0 .653.193 1.18.58 1.58Zm15.465-6.58h3.32v10h-3.32v-.92c-.68.8-1.627 1.2-2.84 1.2-1.334 0-2.454-.5-3.36-1.5-.894-1.014-1.34-2.274-1.34-3.78 0-1.507.446-2.76 1.34-3.76.906-1.014 2.026-1.52 3.36-1.52 1.213 0 2.16.4 2.84 1.2v-.92Zm-3.62 6.58c.386.4.893.6 1.52.6.626 0 1.133-.2 1.52-.6.386-.4.58-.927.58-1.58 0-.654-.194-1.18-.58-1.58-.387-.4-.894-.6-1.52-.6-.627 0-1.134.2-1.52.6-.387.4-.58.926-.58 1.58 0 .653.193 1.18.58 1.58ZM92.947 449.9c-1.48 0-2.74-.507-3.78-1.52-1.04-1.027-1.56-2.28-1.56-3.76s.52-2.727 1.56-3.74c1.04-1.027 2.3-1.54 3.78-1.54 1.493 0 2.753.513 3.78 1.54 1.04 1.013 1.56 2.26 1.56 3.74 0 1.48-.52 2.733-1.56 3.76-1.027 1.013-2.287 1.52-3.78 1.52Zm0-3.2c.587 0 1.067-.193 1.44-.58.387-.387.58-.887.58-1.5s-.193-1.113-.58-1.5c-.373-.387-.853-.58-1.44-.58-.573 0-1.053.193-1.44.58-.373.387-.56.887-.56 1.5s.187 1.113.56 1.5c.387.387.867.58 1.44.58Zm7.939 3.2a2.08 2.08 0 0 1-1.5-.6c-.4-.413-.6-.907-.6-1.48s.207-1.06.62-1.46c.414-.413.907-.62 1.48-.62.574 0 1.06.207 1.46.62.414.4.62.887.62 1.46s-.206 1.067-.62 1.48c-.4.4-.886.6-1.46.6Zm19.933-.28h-4l-2.2-3.72-2.2 3.72h-4.02l4.22-7.14-4.06-6.86h4.02l2.04 3.46 2.04-3.46h4.02l-4.06 6.88 4.2 7.12Zm7.433-10h3.32v10h-3.32v-.92c-.68.8-1.626 1.2-2.84 1.2-1.333 0-2.453-.5-3.36-1.5-.893-1.013-1.34-2.273-1.34-3.78 0-1.507.447-2.76 1.34-3.76.907-1.013 2.027-1.52 3.36-1.52 1.214 0 2.16.4 2.84 1.2v-.92Zm-3.62 6.58c.387.4.894.6 1.52.6.627 0 1.134-.2 1.52-.6.387-.4.58-.927.58-1.58s-.193-1.18-.58-1.58c-.386-.4-.893-.6-1.52-.6-.626 0-1.133.2-1.52.6-.386.4-.58.927-.58 1.58s.194 1.18.58 1.58Zm16.545-1.68c.933.44 1.4 1.18 1.4 2.22 0 .88-.3 1.58-.9 2.1-.6.52-1.467.78-2.6.78h-5.58v-10h5.24c1.12 0 1.98.26 2.58.78.6.52.9 1.22.9 2.1 0 .88-.347 1.553-1.04 2.02Zm-2.94-2.42h-1.56v1.32h1.56c.533 0 .8-.213.8-.64 0-.453-.267-.68-.8-.68Zm.26 5c.52 0 .78-.233.78-.7 0-.44-.26-.66-.78-.66h-1.82v1.36h1.82Zm11.34-7.48h3.68l-3.38 9.7c-1.04 3.013-3.067 4.447-6.08 4.3v-3.12c.693 0 1.22-.073 1.58-.22.36-.147.647-.42.86-.82l-3.96-9.84h3.66l2.06 5.8 1.58-5.8Zm9.008 10.28c-1.52 0-2.787-.507-3.8-1.52s-1.52-2.267-1.52-3.76c0-1.493.507-2.747 1.52-3.76s2.28-1.52 3.8-1.52c.987 0 1.88.233 2.68.7a4.9 4.9 0 0 1 1.88 1.88l-2.84 1.64c-.36-.653-.94-.98-1.74-.98-.56 0-1.027.193-1.4.58-.373.373-.56.86-.56 1.46s.187 1.093.56 1.48c.373.373.84.56 1.4.56.827 0 1.407-.333 1.74-1l2.84 1.64a4.862 4.862 0 0 1-1.88 1.9c-.8.467-1.693.7-2.68.7Zm300.393 291.023c-1.48 0-2.74-.507-3.78-1.52-1.04-1.027-1.56-2.28-1.56-3.76s.52-2.727 1.56-3.74c1.04-1.027 2.3-1.54 3.78-1.54 1.493 0 2.753.513 3.78 1.54 1.04 1.013 1.56 2.26 1.56 3.74 0 1.48-.52 2.733-1.56 3.76-1.027 1.013-2.287 1.52-3.78 1.52Zm0-3.2c.587 0 1.067-.194 1.44-.58.387-.387.58-.887.58-1.5 0-.614-.193-1.114-.58-1.5-.373-.387-.853-.58-1.44-.58-.573 0-1.053.193-1.44.58-.373.386-.56.886-.56 1.5 0 .613.187 1.113.56 1.5.387.386.867.58 1.44.58Zm7.939 3.2a2.08 2.08 0 0 1-1.5-.6c-.4-.414-.6-.907-.6-1.48 0-.574.207-1.06.62-1.46a2.02 2.02 0 0 1 1.48-.62c.574 0 1.06.206 1.46.62.414.4.62.886.62 1.46a2.02 2.02 0 0 1-.62 1.48c-.4.4-.886.6-1.46.6Zm17.353-7.52c1.173.693 1.76 1.74 1.76 3.14 0 1.24-.427 2.233-1.28 2.98-.853.746-1.993 1.12-3.42 1.12h-5.9v-14h5.52c1.4 0 2.52.36 3.36 1.08.84.706 1.26 1.673 1.26 2.9 0 1.173-.433 2.1-1.3 2.78Zm-3.42-3.56h-1.84v2.2h1.84c.32 0 .587-.094.8-.28.227-.2.34-.474.34-.82 0-.334-.107-.6-.32-.8-.213-.2-.487-.3-.82-.3Zm.38 7.6c.36 0 .653-.107.88-.32.227-.227.34-.514.34-.86 0-.36-.113-.647-.34-.86-.227-.214-.52-.32-.88-.32h-2.22v2.36h2.22Zm13.346-6.8h3.32v10h-3.32v-.92c-.68.8-1.626 1.2-2.84 1.2-1.333 0-2.453-.5-3.36-1.5-.893-1.014-1.34-2.274-1.34-3.78 0-1.507.447-2.76 1.34-3.76.907-1.014 2.027-1.52 3.36-1.52 1.214 0 2.16.4 2.84 1.2v-.92Zm-3.62 6.58c.387.4.894.6 1.52.6.627 0 1.134-.2 1.52-.6.387-.4.58-.927.58-1.58 0-.654-.193-1.18-.58-1.58-.386-.4-.893-.6-1.52-.6-.626 0-1.133.2-1.52.6-.386.4-.58.926-.58 1.58 0 .653.194 1.18.58 1.58Zm18.185-6.58v10h-3.32v-6.82h-2v2.68c0 1.573-.393 2.7-1.18 3.38-.773.68-1.967.933-3.58.76v-3.08c.48.133.84.073 1.08-.18.24-.267.36-.72.36-1.36v-5.38h8.64Zm8.951 0h3.32v10h-3.32v-.92c-.68.8-1.627 1.2-2.84 1.2-1.333 0-2.453-.5-3.36-1.5-.893-1.014-1.34-2.274-1.34-3.78 0-1.507.447-2.76 1.34-3.76.907-1.014 2.027-1.52 3.36-1.52 1.213 0 2.16.4 2.84 1.2v-.92Zm-3.62 6.58c.387.4.893.6 1.52.6s1.133-.2 1.52-.6c.387-.4.58-.927.58-1.58 0-.654-.193-1.18-.58-1.58-.387-.4-.893-.6-1.52-.6s-1.133.2-1.52.6c-.387.4-.58.926-.58 1.58 0 .653.193 1.18.58 1.58Zm15.905-6.58h3.32v10h-3.32v-.92c-.68.8-1.626 1.2-2.84 1.2-1.333 0-2.453-.5-3.36-1.5-.893-1.014-1.34-2.274-1.34-3.78 0-1.507.447-2.76 1.34-3.76.907-1.014 2.027-1.52 3.36-1.52 1.214 0 2.16.4 2.84 1.2v-.92Zm-3.62 6.58c.387.4.894.6 1.52.6.627 0 1.134-.2 1.52-.6.387-.4.58-.927.58-1.58 0-.654-.193-1.18-.58-1.58-.386-.4-.893-.6-1.52-.6-.626 0-1.133.2-1.52.6-.386.4-.58.926-.58 1.58 0 .653.194 1.18.58 1.58Zm19.905-6.58v10h-3.2v-4.82l-2.14 3.32h-.36l-2.12-3.3v4.8h-3.22v-10h3.22l2.3 3.6 2.32-3.6h3.2ZM352.458 467.541c-1.48 0-2.74-.506-3.78-1.52-1.04-1.026-1.56-2.28-1.56-3.76s.52-2.726 1.56-3.74c1.04-1.026 2.3-1.54 3.78-1.54 1.493 0 2.753.514 3.78 1.54 1.04 1.014 1.56 2.26 1.56 3.74 0 1.48-.52 2.734-1.56 3.76-1.027 1.014-2.287 1.52-3.78 1.52Zm0-3.2c.586 0 1.066-.193 1.44-.58.386-.386.58-.886.58-1.5 0-.613-.194-1.113-.58-1.5-.374-.386-.854-.58-1.44-.58-.574 0-1.054.194-1.44.58-.374.387-.56.887-.56 1.5 0 .614.186 1.114.56 1.5.386.387.866.58 1.44.58Zm7.939 3.2c-.587 0-1.087-.2-1.5-.6-.4-.413-.6-.906-.6-1.48 0-.573.207-1.06.62-1.46.413-.413.907-.62 1.48-.62s1.06.207 1.46.62c.413.4.62.887.62 1.46a2.02 2.02 0 0 1-.62 1.48c-.4.4-.887.6-1.46.6Zm19.933-.28h-4l-2.2-3.72-2.2 3.72h-4.02l4.22-7.14-4.06-6.86h4.02l2.04 3.46 2.04-3.46h4.02l-4.06 6.88 4.2 7.12Zm5.233.28c-1.48 0-2.74-.506-3.78-1.52-1.04-1.026-1.56-2.28-1.56-3.76s.52-2.726 1.56-3.74c1.04-1.026 2.3-1.54 3.78-1.54 1.493 0 2.753.514 3.78 1.54 1.04 1.014 1.56 2.26 1.56 3.74 0 1.48-.52 2.734-1.56 3.76-1.027 1.014-2.287 1.52-3.78 1.52Zm0-3.2c.587 0 1.067-.193 1.44-.58.387-.386.58-.886.58-1.5 0-.613-.193-1.113-.58-1.5-.373-.386-.853-.58-1.44-.58-.573 0-1.053.194-1.44.58-.373.387-.56.887-.56 1.5 0 .614.187 1.114.56 1.5.387.387.867.58 1.44.58Zm13.06-7.08h3.32v10h-3.32v-3.44h-2.94v3.44h-3.32v-10h3.32v3.44h2.94v-3.44Zm15.124 10h-3.72l-2.84-4.26v4.26h-3.32v-10h3.32v4.18l2.58-4.18h3.84l-3.36 5 3.5 5Zm7.376-10h3.32v10h-3.32v-.92c-.68.8-1.627 1.2-2.84 1.2-1.334 0-2.454-.5-3.36-1.5-.894-1.013-1.34-2.273-1.34-3.78 0-1.506.446-2.76 1.34-3.76.906-1.013 2.026-1.52 3.36-1.52 1.213 0 2.16.4 2.84 1.2v-.92Zm-3.62 6.58c.386.4.893.6 1.52.6.626 0 1.133-.2 1.52-.6.386-.4.58-.926.58-1.58 0-.653-.194-1.18-.58-1.58-.387-.4-.894-.6-1.52-.6-.627 0-1.134.2-1.52.6-.387.4-.58.927-.58 1.58 0 .654.193 1.18.58 1.58Zm13.685 3.7c-1.52 0-2.787-.506-3.8-1.52-1.014-1.013-1.52-2.266-1.52-3.76 0-1.493.506-2.746 1.52-3.76 1.013-1.013 2.28-1.52 3.8-1.52.986 0 1.88.234 2.68.7a4.907 4.907 0 0 1 1.88 1.88l-2.84 1.64c-.36-.653-.94-.98-1.74-.98-.56 0-1.027.194-1.4.58-.374.374-.56.86-.56 1.46s.186 1.094.56 1.48c.373.374.84.56 1.4.56.826 0 1.406-.333 1.74-1l2.84 1.64a4.856 4.856 0 0 1-1.88 1.9c-.8.467-1.694.7-2.68.7Zm12.493-10.28h3.32v10h-3.32v-.92c-.68.8-1.627 1.2-2.84 1.2-1.333 0-2.453-.5-3.36-1.5-.893-1.013-1.34-2.273-1.34-3.78 0-1.506.447-2.76 1.34-3.76.907-1.013 2.027-1.52 3.36-1.52 1.213 0 2.16.4 2.84 1.2v-.92Zm-3.62 6.58c.387.4.893.6 1.52.6s1.133-.2 1.52-.6c.387-.4.58-.926.58-1.58 0-.653-.193-1.18-.58-1.58-.387-.4-.893-.6-1.52-.6s-1.133.2-1.52.6c-.387.4-.58.927-.58 1.58 0 .654.193 1.18.58 1.58Zm18.185-6.58v10h-3.32v-6.82h-2v2.68c0 1.574-.394 2.7-1.18 3.38-.774.68-1.967.934-3.58.76v-3.08c.48.134.84.074 1.08-.18.24-.266.36-.72.36-1.36v-5.38h8.64Zm6.751 10.28c-1.48 0-2.74-.506-3.78-1.52-1.04-1.026-1.56-2.28-1.56-3.76s.52-2.726 1.56-3.74c1.04-1.026 2.3-1.54 3.78-1.54 1.493 0 2.753.514 3.78 1.54 1.04 1.014 1.56 2.26 1.56 3.74 0 1.48-.52 2.734-1.56 3.76-1.027 1.014-2.287 1.52-3.78 1.52Zm0-3.2c.586 0 1.066-.193 1.44-.58.386-.386.58-.886.58-1.5 0-.613-.194-1.113-.58-1.5-.374-.386-.854-.58-1.44-.58-.574 0-1.054.194-1.44.58-.374.387-.56.887-.56 1.5 0 .614.186 1.114.56 1.5.386.387.866.58 1.44.58Zm12.033-35.144c-1.48 0-2.74-.506-3.78-1.52-1.04-1.026-1.56-2.28-1.56-3.76s.52-2.726 1.56-3.74c1.04-1.026 2.3-1.54 3.78-1.54 1.493 0 2.753.514 3.78 1.54 1.04 1.014 1.56 2.26 1.56 3.74 0 1.48-.52 2.734-1.56 3.76-1.027 1.014-2.287 1.52-3.78 1.52Zm0-3.2c.587 0 1.067-.193 1.44-.58.387-.386.58-.886.58-1.5 0-.613-.193-1.113-.58-1.5-.373-.386-.853-.58-1.44-.58-.573 0-1.053.194-1.44.58-.373.387-.56.887-.56 1.5 0 .614.187 1.114.56 1.5.387.387.867.58 1.44.58Zm7.939 3.2a2.08 2.08 0 0 1-1.5-.6c-.4-.413-.6-.906-.6-1.48 0-.573.207-1.06.62-1.46.414-.413.907-.62 1.48-.62.574 0 1.06.207 1.46.62.414.4.62.887.62 1.46 0 .574-.206 1.067-.62 1.48-.4.4-.886.6-1.46.6Zm20.113-.28h-4l-4.02-6.26v6.26h-3.58v-14h3.58v5.88l3.82-5.88h4l-4.44 6.8 4.64 7.2Zm7.039-10h3.32v10h-3.32v-.92c-.68.8-1.627 1.2-2.84 1.2-1.334 0-2.454-.5-3.36-1.5-.894-1.013-1.34-2.273-1.34-3.78 0-1.506.446-2.76 1.34-3.76.906-1.013 2.026-1.52 3.36-1.52 1.213 0 2.16.4 2.84 1.2v-.92Zm-3.62 6.58c.386.4.893.6 1.52.6.626 0 1.133-.2 1.52-.6.386-.4.58-.926.58-1.58 0-.653-.194-1.18-.58-1.58-.387-.4-.894-.6-1.52-.6-.627 0-1.134.2-1.52.6-.387.4-.58.927-.58 1.58 0 .654.193 1.18.58 1.58Zm15.905-6.58h3.32v10h-3.32v-.92c-.68.8-1.627 1.2-2.84 1.2-1.334 0-2.454-.5-3.36-1.5-.894-1.013-1.34-2.273-1.34-3.78 0-1.506.446-2.76 1.34-3.76.906-1.013 2.026-1.52 3.36-1.52 1.213 0 2.16.4 2.84 1.2v-.92Zm-3.62 6.58c.386.4.893.6 1.52.6.626 0 1.133-.2 1.52-.6.386-.4.58-.926.58-1.58 0-.653-.194-1.18-.58-1.58-.387-.4-.894-.6-1.52-.6-.627 0-1.134.2-1.52.6-.387.4-.58.927-.58 1.58 0 .654.193 1.18.58 1.58Zm15.024-6.86c1.334 0 2.447.507 3.34 1.52.907 1 1.36 2.254 1.36 3.76 0 1.507-.453 2.767-1.36 3.78-.893 1-2.006 1.5-3.34 1.5-1.213 0-2.16-.4-2.84-1.2v4.92h-3.32v-14h3.32v.92c.68-.8 1.627-1.2 2.84-1.2Zm-2.26 6.86c.387.4.894.6 1.52.6.627 0 1.134-.2 1.52-.6.387-.4.58-.926.58-1.58 0-.653-.193-1.18-.58-1.58-.386-.4-.893-.6-1.52-.6-.626 0-1.133.2-1.52.6-.386.4-.58.927-.58 1.58 0 .654.194 1.18.58 1.58Zm14.665-6.58h3.32v10h-3.32v-3.44h-2.94v3.44h-3.32v-10h3.32v3.44h2.94v-3.44Zm8.184 6.22c.334.814 1.08 1.22 2.24 1.22.72 0 1.327-.233 1.82-.7l2.4 1.68c-.986 1.24-2.42 1.86-4.3 1.86-1.693 0-3.053-.493-4.08-1.48-1.013-1-1.52-2.26-1.52-3.78 0-1.506.5-2.766 1.5-3.78 1-1.013 2.274-1.52 3.82-1.52 1.494 0 2.727.5 3.7 1.5.974 1 1.46 2.254 1.46 3.76 0 .44-.046.854-.14 1.24h-6.9Zm-.04-2.3h3.84c-.266-.933-.893-1.4-1.88-1.4-1.026 0-1.68.467-1.96 1.4Zm16.474-3.92v3.18h-2.86v6.82h-3.32v-6.82h-2.9v-3.18h9.08Zm5.642 10.28c-1.52 0-2.787-.506-3.8-1.52-1.014-1.013-1.52-2.266-1.52-3.76 0-1.493.506-2.746 1.52-3.76 1.013-1.013 2.28-1.52 3.8-1.52.986 0 1.88.234 2.68.7a4.907 4.907 0 0 1 1.88 1.88l-2.84 1.64c-.36-.653-.94-.98-1.74-.98-.56 0-1.027.194-1.4.58-.374.374-.56.86-.56 1.46s.186 1.094.56 1.48c.373.374.84.56 1.4.56.826 0 1.406-.333 1.74-1l2.84 1.64a4.856 4.856 0 0 1-1.88 1.9c-.8.467-1.694.7-2.68.7Zm12.493-10.28h3.32v10h-3.32v-.92c-.68.8-1.626 1.2-2.84 1.2-1.333 0-2.453-.5-3.36-1.5-.893-1.013-1.34-2.273-1.34-3.78 0-1.506.447-2.76 1.34-3.76.907-1.013 2.027-1.52 3.36-1.52 1.214 0 2.16.4 2.84 1.2v-.92Zm-3.62 6.58c.387.4.894.6 1.52.6.627 0 1.134-.2 1.52-.6.387-.4.58-.926.58-1.58 0-.653-.193-1.18-.58-1.58-.386-.4-.893-.6-1.52-.6-.626 0-1.133.2-1.52.6-.386.4-.58.927-.58 1.58 0 .654.194 1.18.58 1.58Zm15.905-6.58h3.32v10h-3.32v-.92c-.68.8-1.626 1.2-2.84 1.2-1.333 0-2.453-.5-3.36-1.5-.893-1.013-1.34-2.273-1.34-3.78 0-1.506.447-2.76 1.34-3.76.907-1.013 2.027-1.52 3.36-1.52 1.214 0 2.16.4 2.84 1.2v-.92Zm-3.62 6.58c.387.4.894.6 1.52.6.627 0 1.134-.2 1.52-.6.387-.4.58-.926.58-1.58 0-.653-.193-1.18-.58-1.58-.386-.4-.893-.6-1.52-.6-.626 0-1.133.2-1.52.6-.386.4-.58.927-.58 1.58 0 .654.194 1.18.58 1.58Zm15.025-6.86c1.333 0 2.447.507 3.34 1.52.907 1 1.36 2.254 1.36 3.76 0 1.507-.453 2.767-1.36 3.78-.893 1-2.007 1.5-3.34 1.5-1.213 0-2.16-.4-2.84-1.2v4.92h-3.32v-14h3.32v.92c.68-.8 1.627-1.2 2.84-1.2Zm-2.26 6.86c.387.4.893.6 1.52.6s1.133-.2 1.52-.6c.387-.4.58-.926.58-1.58 0-.653-.193-1.18-.58-1.58-.387-.4-.893-.6-1.52-.6s-1.133.2-1.52.6c-.387.4-.58.927-.58 1.58 0 .654.193 1.18.58 1.58Zm15.525-6.58h2.56v10h-3.24v-4.68l-3.88 4.68h-2.56v-10h3.24v4.68l3.88-4.68Z" fill="#EA2727"/><path d="m163.135 50.639.86-.511-1.859.473.999.038Zm-10.875 85.307.906.423-.906-.423Zm-5.438 38.065.997-.077-.997.077Zm-5.439 38.065.999.048-.999-.048Zm-5.438 21.752.613.79-.613-.79Zm-21.75 35.766-.987-.161.987.161Zm10.875 47.953-.61-.792.61.792Zm46.497 79.416.97-.24-.97.24Zm18.758 10.876-.919.395.919-.395Zm10.875 21.752-.581.813.581-.813Zm5.438 21.751.992-.129-.992.129Zm59.817 70.692-.266.964.266-.964Zm135.409 46.037.23-.973-.23.973Zm81.226-3.445-.483-.875.483.875Zm53.374-113.27.952-.306-.446-.557-.506.863Zm-78.345 102.938.34-.941-.34.941Zm-44.842-54.011.975-.222-.975.222Zm-78.731-125.071-.934.358.934-.358Zm-19.151 0-.862-.505.862.505Zm-29.005 13.304.759.651-.759-.651Zm-47.125 24.761-.308.951.308-.951Zm-32.627-32.627-.379.925.379-.925Zm-40.057-24.083.898-.441-.898.441Zm-11.254-49.517.987.162-.987-.162Zm3.589-49.66.942-.333-.942.333Zm.574-23.562-.921-.39.921.39Zm3.645-18.706-.999.017.999-.017Zm13.185-19.359-.681-.732.681.732Zm19.443-21.752-.71-.704.71.704Zm5.437-21.751.916.402-.916-.402Zm306.31 339.181-.948-.32.948.32Zm37.032-9.197.765.644-.765-.644ZM162.065 54.963a1 1 0 0 0 2 .009l-2-.01Zm1.987 8.66a1 1 0 0 0-2-.008l2 .008Zm-2.096 8.642a1 1 0 0 0 2 .04l-2-.04Zm1.732 8.725a1 1 0 0 0-1.998-.086l1.998.086Zm-2.489 8.534a1 1 0 1 0 1.995.144l-1.995-.144Zm1.222 8.81a1 1 0 0 0-1.989-.215l1.989.215Zm-3.093 8.335a1 1 0 1 0 1.978.301l-1.978-.301Zm.437 8.882a1 1 0 0 0-1.958-.41l1.958.41Zm-4.006 7.935a1 1 0 1 0 1.923.549l-1.923-.549Zm-.866 8.852a1 1 0 1 0-1.861-.732l1.861.732Zm-5.571 7.717a1.001 1.001 0 0 0 1.839.787l-1.839-.787Zm-1.523 9.894a1 1 0 1 0-1.919-.564l1.919.564Zm-3.569 9.388a1 1 0 0 0 2 .025l-2-.025Zm3.021 9.638a1 1 0 0 0-1.98.288l1.98-.288Zm-1.37 9.809a1 1 0 0 0 1.998.088l-1.998-.088Zm.838 9.783a1 1 0 0 0-1.97-.349l1.97.349Zm-3.89 9.058a1 1 0 1 0 1.954.425l-1.954-.425Zm.076 9.823a.999.999 0 1 0-1.975-.314l1.975.314Zm-2.732 10.391a1 1 0 1 0 1.999.07l-1.999-.07Zm.182 11.831a1 1 0 0 0-1.839-.787l1.839.787Zm-8.408 4.886a1 1 0 1 0 .58 1.914l-.58-1.914Zm-7.495 3.747a1 1 0 0 0-.399-1.96l.399 1.96Zm-8.462.056a1 1 0 0 0 .641 1.895l-.641-1.895Zm-5.573 5.851a1 1 0 0 0-1.699-1.056l1.699 1.056Zm-1.437 9.306a1 1 0 1 0 1.91-.592l-1.91.592Zm6.043 10.159a1 1 0 1 0-1.948.452l1.948-.452Zm.777 10.772a1 1 0 1 0 1.158-1.631l-1.158 1.631Zm9.784 2.296a1 1 0 1 0-.732 1.861l.732-1.861Zm7.894 5.938a1 1 0 1 0 1.064-1.693l-1.064 1.693Zm7.933 5.826a1 1 0 1 0-1.851.756l1.851-.756Zm-1.144 8.968a.999.999 0 1 0 1.996.133l-1.996-.133Zm.347 8.045a1.001 1.001 0 0 0-1.834-.798l1.834.798Zm-6.509 4.608a.999.999 0 1 0 1.173 1.619l-1.173-1.619Zm-5.318 5.951a1 1 0 1 0-1.134-1.647l1.134 1.647Zm-7.175 3.927a1 1 0 1 0 1.691 1.069l-1.691-1.069Zm-1.234 8.164a1 1 0 0 0-1.93-.526l1.93.526Zm-3.431 7.483a1.001 1.001 0 0 0 1.987.23l-1.987-.23Zm1.544 8.096a1 1 0 0 0-2 0h2Zm-1.55 8.098a1 1 0 1 0 1.987-.226l-1.987.226Zm3.387 7.503a1 1 0 1 0-1.936.501l1.936-.501Zm.89 8.196a1 1 0 1 0 1.782-.908l-1.782.908Zm6.389 5.017a1 1 0 1 0-1.225 1.58l1.225-1.58Zm6.397 4.788a1 1 0 0 0 .599-1.908l-.599 1.908Zm8.193.548a1 1 0 0 0-.637 1.896l.637-1.896Zm6.825 4.551a1 1 0 1 0 .711-1.87l-.711 1.87Zm8.123 1.211a1 1 0 1 0-.836 1.817l.836-1.817Zm6.068 5.494a1.001 1.001 0 0 0 1.07-1.69l-1.07 1.69Zm7.352 3.674a1 1 0 0 0-1.581 1.225l1.581-1.225Zm4.28 9.418a1 1 0 1 0 .635-1.897l-.635 1.897Zm12.37.197a1 1 0 0 0-1.053 1.701l1.053-1.701Zm3.315 8.636a1 1 0 0 0 1.882-.678l-1.882.678Zm3.694 5.388a1 1 0 1 0-1.938.494l1.938-.494Zm-.058 6.61a1 1 0 1 0 1.825-.817l-1.825.817Zm5.27 3.822a1 1 0 0 0-1.347 1.478l1.347-1.478Zm5.314 7.233a1 1 0 1 0 1.69-1.07l-1.69 1.07Zm2.385 11.213a1 1 0 0 0-1.999.066l1.999-.066Zm-.761 10.186a1 1 0 1 0 1.953-.431l-1.953.431Zm4.122 7.284a1 1 0 1 0-1.896.636l1.896-.636Zm1.024 8.286a.999.999 0 1 0 1.838-.786l-1.838.786Zm5.276 6.484a1 1 0 1 0-1.775.922l1.775-.922Zm2.266 8.038a1 1 0 0 0 1.7-1.053l-1.7 1.053Zm6.192 5.608a1 1 0 1 0-1.612 1.183l1.612-1.183Zm3.511 7.58a1 1 0 0 0 1.506-1.316l-1.506 1.316Zm7.054 4.478a1 1 0 1 0-1.379 1.449l1.379-1.449Zm4.838 6.805a1 1 0 0 0 1.228-1.579l-1.228 1.579Zm7.797 2.99a1 1 0 1 0-1.052 1.701l1.052-1.701Zm6.173 5.627a1 1 0 0 0 .854-1.808l-.854 1.808Zm8.269 1.186a1 1 0 1 0-.641 1.894l.641-1.894Zm7.104 4.18a1 1 0 1 0 .559-1.92l-.559 1.92Zm8.187.41a1 1 0 0 0-.607 1.906l.607-1.906Zm6.923 4.392a1 1 0 1 0 .645-1.893l-.645 1.893Zm8.163.738a1 1 0 1 0-.674 1.883l.674-1.883Zm6.784 4.604a1 1 0 0 0 .695-1.876l-.695 1.876Zm8.146.922a1 1 0 0 0-.71 1.87l.71-1.87Zm6.714 4.707a1 1 0 1 0 .717-1.867l-.717 1.867Zm8.14.993a1 1 0 1 0-.72 1.866l.72-1.866Zm6.703 4.723a1 1 0 0 0 .716-1.868l-.716 1.868Zm8.139.964a1 1 0 1 0-.708 1.87l.708-1.87Zm6.744 4.664a1 1 0 1 0 .695-1.875l-.695 1.875Zm8.155.853a1 1 0 1 0-.677 1.882l.677-1.882Zm6.829 4.538a1 1 0 0 0 .656-1.889l-.656 1.889Zm8.17.663a1 1 0 1 0-.629 1.898l.629-1.898Zm6.953 4.348a1.001 1.001 0 0 0 .599-1.908l-.599 1.908Zm8.189.401a1 1 0 1 0-.565 1.919l.565-1.919Zm7.103 4.093a1 1 0 0 0 .526-1.93l-.526 1.93Zm8.199.072a1 1 0 1 0-.483 1.94l.483-1.94Zm7.422 3.884a1 1 0 0 0 .496-1.938l-.496 1.938Zm8.598.093a.999.999 0 1 0-.461 1.946l.461-1.946Zm7.765 3.7a1 1 0 1 0 .366-1.966l-.366 1.966Zm8.572-.707a1.001 1.001 0 0 0-.235 1.986l.235-1.986Zm8.179 2.66a1 1 0 0 0 .08-1.999l-.08 1.999Zm8.353-2.032a1 1 0 0 0 .098 1.998l-.098-1.998Zm8.518 1.178a1 1 0 0 0-.291-1.979l.291 1.979Zm7.804-3.593a.999.999 0 1 0 .491 1.938l-.491-1.938Zm8.576-.564a1 1 0 1 0-.69-1.877l.69 1.877Zm6.907-5.122a1 1 0 1 0 .878 1.797l-.878-1.797Zm8.227-2.286a1 1 0 0 0-1.077-1.685l1.077 1.685Zm5.281-6.515a1 1 0 1 0 1.352 1.473l-1.352-1.473Zm6.837-4.898a1 1 0 1 0-1.67-1.101l1.67 1.101Zm1.724-8.215a1 1 0 1 0 1.903.613l-1.903-.613Zm3.576-7.584a1 1 0 1 0-1.988-.215l1.988.215Zm-1.587-8.284a1 1 0 0 0 2 .015l-2-.015Zm1.953-8.176a1 1 0 1 0-2 .014l2-.014Zm-1.897-8.213a1 1 0 1 0 1.998.082l-1.998-.082Zm2.685-7.971a1 1 0 1 0-1.982-.27l1.982.27Zm-.371-8.408a1 1 0 0 0 1.934.512l-1.934-.512Zm4.454-6.933a1 1 0 1 0-1.838-.788l1.838.788Zm2.35-7.649a1 1 0 1 0 1.458 1.368l-1.458-1.368Zm7.546-1.217a1 1 0 1 0 .139-1.995l-.139 1.995Zm7.816.594a1 1 0 0 0-.909 1.782l.909-1.782Zm6.116 5.276a1 1 0 1 0 .74-1.857l-.74 1.857Zm7.465-1.443a1 1 0 0 0 .838 1.816l-.838-1.816Zm6.979-4.392a1.002 1.002 0 0 0-1.649-1.133l1.649 1.133Zm-2.698-7.747a.998.998 0 0 0 1.399.202.998.998 0 0 0 .202-1.399l-1.601 1.197Zm-3.041-8.478a1 1 0 1 0-1.771.93l1.771-.93Zm-5.376-7.241a1 1 0 0 0 1.873-.699l-1.873.699Zm-3.725-7.463a.999.999 0 1 0-.936 1.767l.936-1.767Zm-8.204-1.621a1 1 0 1 0 .738-1.859l-.738 1.859Zm-7.136-4.317a1 1 0 0 0-.427 1.954l.427-1.954Zm-8.26 1.185a1 1 0 1 0-.077-1.998l.077 1.998Zm-8.316-.249a1 1 0 0 0 .764 1.849l-.764-1.849Zm-5.736 6.077a1 1 0 1 0-1.362-1.464l1.362 1.464Zm-6.649 5.017a1 1 0 1 0 1.689 1.071l-1.689-1.071Zm-1.98 8.164a1 1 0 0 0-1.841-.783l1.841.783Zm-4.641 6.978a1 1 0 1 0 1.912.587l-1.912-.587Zm-.173 8.41a1 1 0 1 0-1.948-.451l1.948.451Zm-3.595 7.571a1 1 0 1 0 1.968.359l-1.968-.359Zm.649 8.376a1 1 0 0 0-1.978-.295l1.978.295Zm-3.095 7.802a.998.998 0 1 0 1.983.255l-1.983-.255Zm.987 8.348a1 1 0 0 0-1.986-.237l1.986.237Zm-2.952 7.862a1 1 0 0 0 1.985.241l-1.985-.241Zm.949 8.321a1 1 0 0 0-1.982-.273l1.982.273Zm-3.238 7.78a1.001 1.001 0 0 0 1.969.353l-1.969-.353Zm.205 8.401a1 1 0 0 0-1.93-.527l1.93.527Zm-4.745 6.853a.998.998 0 1 0 1.743.979l-1.743-.979Zm-5.013 6.431a1 1 0 1 0-.286-1.979l.286 1.979Zm-7.652-3.778a1 1 0 1 0-.634 1.897l.634-1.897Zm-8.253-.434a1 1 0 0 0 .534-1.928l-.534 1.928Zm-7.259-3.874a1.001 1.001 0 0 0-.443 1.951l.443-1.951Zm-8.264.081a1 1 0 0 0 .572-1.916l-.572 1.916Zm-5.499-5.749a1 1 0 0 0-1.62 1.173l1.62-1.173Zm-4.952-6.403a1 1 0 1 0 1.915-.576l-1.915.576Zm-.073-8.243a1 1 0 1 0-1.947.456l1.947-.456Zm-3.711-7.364a1 1 0 0 0 1.953-.431l-1.953.431Zm.239-8.225a1 1 0 1 0-1.953.431l1.953-.431Zm-3.688-7.372a1 1 0 1 0 1.951-.438l-1.951.438Zm.074-8.442a1 1 0 0 0-1.937.498l1.937-.498Zm-4.203-7.385a1 1 0 1 0 1.905-.608l-1.905.608Zm-.853-8.453a1 1 0 0 0-1.867.72l1.867-.72Zm-5.049-6.846a1 1 0 0 0 1.819-.831l-1.819.831Zm-1.87-8.286a1 1 0 1 0-1.764.942l1.764-.942Zm-5.844-6.162a1 1 0 1 0 1.703-1.049l-1.703 1.049Zm-2.879-7.996a1 1 0 1 0-1.635 1.152l1.635-1.152Zm-6.557-5.409a1 1 0 1 0 1.564-1.247l-1.564 1.247Zm-3.808-7.601a1 1 0 0 0-1.49 1.334l1.49-1.334Zm-7.133-4.64a1 1 0 1 0 1.418-1.41l-1.418 1.41Zm-4.582-7.156a1 1 0 0 0-1.35 1.475l1.35-1.475Zm-7.529-3.961a1 1 0 0 0 1.295-1.525l-1.295 1.525Zm-5.075-6.817a1 1 0 0 0-1.269 1.546l1.269-1.546Zm-7.621-3.812a1 1 0 0 0 1.339-1.485l-1.339 1.485Zm-4.107-7.74a1 1 0 1 0-1.66 1.115l1.66-1.115Zm-5.96-6.881a1 1 0 0 0 1.837-.791l-1.837.791Zm-1.115-9.067a1.001 1.001 0 0 0-1.917.571l1.917-.571Zm-4.231-8.062a1 1 0 1 0 1.935-.505l-1.935.505Zm-.957-8.009a1 1 0 1 0-1.69 1.07l1.69-1.07Zm-5.995-3.141a1 1 0 1 0 .887-1.792l-.887 1.792Zm-6.397-1.568a1 1 0 0 0 .963 1.754l-.963-1.754Zm-3.485 6.004a1 1 0 1 0-1.614-1.181l1.614 1.181Zm-5.809 4.986a1 1 0 0 0 1.51 1.312l-1.51-1.312Zm-6.093 5.95a1 1 0 1 0-.422-1.955l.422 1.955Zm-8.651-1.54a1 1 0 0 0 .07 1.999l-.07-1.999Zm-7.397 4.107a1 1 0 1 0-1.116-1.66l1.116 1.66Zm-6.762 4.387a1 1 0 0 0 1.642 1.143l-1.642-1.143Zm-2.363 7.384a1 1 0 1 0-1.696-1.061l1.696 1.061Zm-5.804 5.073a1 1 0 0 0 1.603 1.196l-1.603-1.196Zm-3.5 6.893a1 1 0 1 0-1.336-1.488l1.336 1.488Zm-7.275 2.471a1.002 1.002 0 0 0 .84 1.816l-.84-1.816Zm-6.602 3.924a1 1 0 1 0-.254-1.983l.254 1.983Zm-7.481-1.947a1 1 0 0 0-.204 1.99l.204-1.99Zm-7.673.598a1 1 0 1 0 .507-1.935l-.507 1.935Zm-6.91-4.339a1 1 0 1 0-.716 1.868l.716-1.868Zm-8.283-1.797a1.001 1.001 0 0 0 1.072-1.689l-1.072 1.689Zm-4.256-7.129a1 1 0 1 0-1.792.887l1.792-.887Zm-3.64-7.418a1 1 0 0 0 1.976-.308l-1.976.308Zm-1.676-8.199a1 1 0 1 0-1.461 1.366l1.461-1.366Zm-7.878-3.156a1 1 0 1 0 .908-1.782l-.908 1.782Zm-6.732-5.054a1 1 0 0 0-.728 1.862l.728-1.862Zm-8.263-.94a1 1 0 1 0 .667-1.885l-.667 1.885Zm-7.002-4.509a1 1 0 1 0-.64 1.895l.64-1.895Zm-8.299-.93a1 1 0 1 0 .8-1.833l-.8 1.833Zm-5.686-5.957a1 1 0 1 0-1.381 1.446l1.381-1.446Zm-6.378-5.224a.999.999 0 1 0 1.736-.993l-1.736.993Zm-2.033-8.402a1 1 0 1 0-1.796.88l1.796-.88Zm-5.506-6.961a1 1 0 0 0 1.321.505 1 1 0 0 0 .504-1.321l-1.825.816Zm-1.36-8.753a1 1 0 1 0-1.89.655l1.89-.655Zm-4.214-7.802a1 1 0 0 0 1.962-.391l-1.962.391Zm.964-8.806a1 1 0 0 0-1.999.079l1.999-.079Zm-1.7-8.691a1 1 0 0 0 1.99.205l-1.99-.205Zm3.243-8.144a1 1 0 0 0-1.973-.331l1.973.331Zm-.596-8.577a1 1 0 0 0 1.974.325l-1.974-.325Zm3.273-7.953a1 1 0 0 0-1.979-.29l1.979.29Zm-.916-8.543a1 1 0 1 0 1.989.211l-1.989-.211Zm2.582-8.211a1 1 0 1 0-1.999-.05l1.999.05Zm-2.422-8.207a.999.999 0 1 0 1.975-.311l-1.975.311Zm.03-7.371a1 1 0 0 0-1.923.55l1.923-.55Zm-3.137-5.563a.999.999 0 1 0 1.989-.202l-1.989.202Zm2.082-6.009a1 1 0 0 0-1.981-.275l1.981.275Zm-.452-6.339a1 1 0 1 0 1.885.668l-1.885-.668Zm4.919-6.521a1 1 0 0 0-1.837-.792l1.837.792Zm-.209-9.852a1 1 0 0 0 1.999.033l-1.999-.033Zm2.052-7.858a1.001 1.001 0 0 0-1.995-.143l1.995.143Zm-.291-6.528a1.001 1.001 0 0 0 1.734.997l-1.734-.997Zm5.779-3.13a1 1 0 0 0-1.22-1.584l1.22 1.584Zm3.654-5.378a1.001 1.001 0 0 0 1.283 1.535l-1.283-1.535Zm6.308-3.122a1 1 0 1 0-1.419-1.409l1.419 1.409Zm3.469-6.725a1 1 0 1 0 1.519 1.301l-1.519-1.301Zm6.178-4.349a1 1 0 1 0-1.551-1.263l1.551 1.263Zm3.21-6.865a1 1 0 1 0 1.481 1.343l-1.481-1.343Zm7.364-6.409a1.001 1.001 0 0 0-1.886-.665l1.886.665Zm-1.224-11.91a1 1 0 1 0 1.985.25l-1.985-.25Zm4.372-9.15a1.002 1.002 0 0 0-1.995-.151l1.995.151Zm-2.402-7.769a1 1 0 1 0 1.98-.281l-1.98.281Zm.459-8.098a1 1 0 1 0-1.945.464l1.945-.464Zm-3.989-7.063a1 1 0 1 0 1.915-.576l-1.915.576Zm-.534-8.109a1 1 0 0 0-1.889.657l1.889-.657Zm-4.588-6.696a1 1 0 0 0 1.867-.72l-1.867.72Zm-1.079-8.044a1 1 0 1 0-1.845.772l1.845-.772Zm-4.959-6.424a1 1 0 0 0 1.826-.816l-1.826.816Zm-1.467-7.97a1 1 0 0 0-1.808.855l1.808-.856Zm-5.236-6.203a1 1 0 0 0 1.791-.891l-1.791.89Zm-1.792-7.925a1 1 0 0 0-1.774.924l1.774-.924Zm-5.454-5.996a1 1 0 0 0 1.758-.954l-1.758.954Zm-2.062-7.86a1 1 0 1 0-1.742.983l1.742-.982Zm-5.646-5.82a1 1 0 1 0 1.727-1.008l-1.727 1.009Zm-2.139-3.942c-.045 1.178-.063 2.65-.071 4.362l2 .009c.008-1.71.026-3.153.07-4.295l-1.999-.076Zm-.084 13.014c-.01 2.658-.035 5.562-.096 8.65l2 .04c.061-3.103.086-6.018.096-8.682l-2-.008Zm-.362 17.289a303.17 303.17 0 0 1-.491 8.62l1.995.144c.213-2.959.373-5.864.494-8.678l-1.998-.086Zm-1.258 17.216a195.992 195.992 0 0 1-1.104 8.549l1.978.301c.437-2.875.806-5.764 1.115-8.636l-1.989-.215Zm-2.625 17.021a120.208 120.208 0 0 1-2.048 8.345l1.923.549a122.194 122.194 0 0 0 2.083-8.484l-1.958-.41Zm-4.775 16.465a68.55 68.55 0 0 1-1.679 3.918l1.813.845a70.875 70.875 0 0 0 1.727-4.031l-1.861-.732Zm-1.679 3.918a158.203 158.203 0 0 0-2.031 4.531l1.839.787c.599-1.4 1.265-2.887 2.005-4.473l-1.813-.845Zm-5.473 13.861c-1.176 3.997-1.615 7.132-1.65 9.952l2 .025c.032-2.614.438-5.567 1.569-9.413l-1.919-.564Zm-.609 19.878c.216 1.483.417 3.06.554 4.825l1.994-.154a72.994 72.994 0 0 0-.568-4.959l-1.98.288Zm.554 4.825c.116 1.51.128 3.081.056 4.696l1.998.088a40.7 40.7 0 0 0-.06-4.938l-1.994.154Zm-1.076 14.13c-.56 3.163-1.25 6.332-1.92 9.407l1.954.425c.668-3.067 1.368-6.275 1.936-9.483l-1.97-.349Zm-3.819 18.916c-.275 1.727-.473 3.371-.546 4.894l1.998.096c.068-1.425.255-2.992.523-4.676l-1.975-.314Zm-.546 4.894c-.098 2.045-.147 3.998-.211 5.811l1.999.07c.065-1.84.113-3.756.21-5.785l-1.998-.096Zm-1.868 16.855c-.694 1.623-1.697 3.004-3.183 4.154l1.225 1.581c1.777-1.376 2.981-3.04 3.797-4.948l-1.839-.787Zm-3.183 4.154c-.727.563-1.871 1.06-3.386 1.519l.58 1.914c1.576-.477 3.007-1.059 4.031-1.852l-1.225-1.581Zm-11.28 3.306c-2.716.553-5.552 1.167-8.063 2.016l.641 1.895c2.378-.805 5.102-1.397 7.821-1.951l-.399-1.96Zm-15.335 6.811c-.808 1.299-1.162 2.823-.955 4.579l1.986-.234c-.156-1.329.111-2.394.668-3.289l-1.699-1.056Zm-.955 4.579a31.933 31.933 0 0 0 1.217 5.783l1.91-.592a29.986 29.986 0 0 1-1.141-5.425l-1.986.234Zm5.312 16.394c.36 1.552.471 3.236.133 5.306l1.974.322c.38-2.331.259-4.279-.159-6.08l-1.948.452Zm.133 5.306c-.358 2.191.88 3.799 2.592 5.014l1.158-1.631c-1.445-1.026-1.954-1.974-1.776-3.061l-1.974-.322Zm11.644 9.171c2.96 1.165 6.007 2.432 8.626 4.077l1.064-1.693c-2.794-1.755-5.998-3.08-8.958-4.245l-.732 1.861Zm14.708 10.659c.524 1.283.823 2.73.823 4.381h2c0-1.901-.346-3.605-.972-5.137l-1.851.756Zm.823 4.381c0 1.405-.039 2.676-.116 3.831l1.996.133c.08-1.206.12-2.522.12-3.964h-2Zm-1.603 11.078c-1.017 2.339-2.533 3.852-4.675 5.406l1.173 1.619c2.302-1.669 4.123-3.438 5.336-6.227l-1.834-.798Zm-11.127 9.71a71.64 71.64 0 0 0-3.193 2.323l1.221 1.584a70.307 70.307 0 0 1 3.106-2.26l-1.134-1.647Zm-3.193 2.323c-1.072.827-2.018 1.939-2.848 3.251l1.691 1.069c.739-1.17 1.538-2.088 2.378-2.736l-1.221-1.584Zm-6.012 10.889c-.671 2.462-1.173 5.172-1.501 8.009l1.987.23c.318-2.753.803-5.362 1.444-7.713l-1.93-.526Zm-1.957 16.105a71.823 71.823 0 0 0 .45 8.098l1.987-.226a69.835 69.835 0 0 1-.437-7.872h-2Zm1.901 16.102c.721 2.79 1.657 5.401 2.826 7.695l1.782-.908c-1.089-2.137-1.978-4.605-2.672-7.288l-1.936.501Zm7.99 14.292c1.16.9 2.436 1.59 3.829 2.024l.594-1.91c-1.144-.356-2.209-.928-3.198-1.694l-1.225 1.58Zm3.829 2.024c1.235.384 2.502.778 3.793 1.184l.599-1.908c-1.293-.407-2.564-.802-3.798-1.186l-.594 1.91Zm11.349 3.628c2.509.844 5.021 1.728 7.462 2.655l.711-1.87a210.452 210.452 0 0 0-7.536-2.681l-.637 1.896Zm14.749 5.683c2.545 1.171 4.881 2.396 6.904 3.677l1.07-1.69c-2.119-1.342-4.539-2.608-7.138-3.804l-.836 1.817Zm12.675 8.576c.812 1.048 1.352 2.097 1.612 3.149l1.941-.48c-.341-1.38-1.03-2.677-1.972-3.894l-1.581 1.225Zm1.612 3.149c.351 1.419.899 2.522 1.642 3.359.748.843 1.646 1.363 2.607 1.685l.635-1.897c-.691-.231-1.27-.579-1.746-1.115-.481-.542-.904-1.33-1.197-2.512l-1.941.48Zm15.566 6.942c1.201.743 2.333 1.971 3.244 4.089l1.837-.79c-1.046-2.435-2.427-4.008-4.028-5l-1.053 1.701Zm3.244 4.089c.431 1.003.801 1.95 1.124 2.846l1.882-.678a52.862 52.862 0 0 0-1.169-2.958l-1.837.79Zm2.88 8.728c.568 2.226 1.039 4.238 1.88 6.116l1.825-.817c-.754-1.684-1.18-3.493-1.767-5.793l-1.938.494Zm5.803 11.416c.73.666 1.567 1.338 2.53 2.026l1.163-1.627a25.462 25.462 0 0 1-2.346-1.877l-1.347 1.478Zm2.53 2.026c2.337 1.671 3.517 2.76 4.131 3.729l1.69-1.07c-.841-1.328-2.313-2.609-4.658-4.286l-1.163 1.627Zm4.517 15.008c.057 1.724.206 3.721.511 6.059l1.983-.258a60.69 60.69 0 0 1-.495-5.867l-1.999.066Zm.511 6.059c.158 1.217.4 2.579.727 4.061l1.953-.431a45.38 45.38 0 0 1-.697-3.888l-1.983.258Zm2.953 11.981c.809 2.415 1.78 4.984 2.92 7.65l1.838-.786a100.13 100.13 0 0 1-2.862-7.5l-1.896.636Zm6.421 15.056a108.472 108.472 0 0 0 4.041 7.116l1.7-1.053a106.894 106.894 0 0 1-3.966-6.985l-1.775.922Zm8.621 13.907a96.594 96.594 0 0 0 5.123 6.397l1.506-1.316a94.602 94.602 0 0 1-5.017-6.264l-1.612 1.183Zm10.798 12.324a82.35 82.35 0 0 0 6.217 5.356l1.228-1.579a80.19 80.19 0 0 1-6.066-5.226l-1.379 1.449Zm12.962 10.047a73.055 73.055 0 0 0 7.225 3.926l.854-1.808a71.207 71.207 0 0 1-7.027-3.819l-1.052 1.701Zm14.853 7.006c1.287.436 2.598.838 3.934 1.206l.531-1.928a69.71 69.71 0 0 1-3.824-1.172l-.641 1.894Zm3.934 1.206c1.266.349 2.536.709 3.811 1.08l.559-1.92a262.479 262.479 0 0 0-3.839-1.088l-.531 1.928Zm11.391 3.396c2.493.795 5.003 1.625 7.53 2.486l.645-1.893a412.205 412.205 0 0 0-7.568-2.499l-.607 1.906Zm15.019 5.107c2.47.884 4.956 1.793 7.458 2.721l.695-1.876c-2.507-.93-5-1.841-7.479-2.728l-.674 1.883Zm14.894 5.513c2.459.933 4.934 1.88 7.424 2.837l.717-1.867c-2.491-.957-4.969-1.906-7.431-2.84l-.71 1.87Zm14.844 5.696c2.459.948 4.933 1.902 7.423 2.857l.716-1.868c-2.488-.954-4.96-1.907-7.419-2.855l-.72 1.866Zm14.854 5.691c2.469.935 4.953 1.868 7.452 2.794l.695-1.875a1214.7 1214.7 0 0 1-7.439-2.789l-.708 1.87Zm14.93 5.529c2.486.896 4.988 1.782 7.506 2.656l.656-1.889a670.151 670.151 0 0 1-7.485-2.649l-.677 1.882Zm15.047 5.217c2.512.834 5.039 1.651 7.582 2.45l.599-1.908a497.285 497.285 0 0 1-7.552-2.44l-.629 1.898Zm15.206 4.77c2.541.748 5.097 1.473 7.668 2.174l.526-1.93a392.513 392.513 0 0 1-7.629-2.163l-.565 1.919Zm15.384 4.186c1.288.321 2.58.635 3.876.941l.46-1.946a366.84 366.84 0 0 1-3.853-.935l-.483 1.94Zm3.876.941c1.239.293 2.583.633 4.029 1.003l.496-1.938c-1.447-.37-2.806-.714-4.065-1.011l-.46 1.946Zm12.166 3.042c2.569.609 5.319 1.213 8.226 1.754l.366-1.966a171.553 171.553 0 0 1-8.131-1.734l-.461 1.946Zm16.563 3.033c2.711.322 5.521.559 8.414.674l.08-1.999a104.992 104.992 0 0 1-8.259-.661l-.235 1.986Zm16.865.64c2.754-.136 5.564-.4 8.42-.82l-.291-1.979c-2.789.41-5.535.669-8.227.801l.098 1.998Zm16.715-2.475a81.332 81.332 0 0 0 8.085-2.502l-.69-1.877a79.368 79.368 0 0 1-7.886 2.441l.491 1.938Zm15.87-5.827a84.436 84.436 0 0 0 3.76-1.955l-.966-1.751a84.232 84.232 0 0 1-3.672 1.909l.878 1.797Zm3.76-1.955a65.366 65.366 0 0 0 3.589-2.128l-1.077-1.685a62.986 62.986 0 0 1-3.478 2.062l.966 1.751Zm10.222-7.17c2.236-2.052 4.038-4.176 5.485-6.371l-1.67-1.101c-1.352 2.051-3.045 4.051-5.167 5.999l1.352 1.473Zm9.112-13.973c.857-2.664 1.37-5.398 1.673-8.197l-1.988-.215c-.292 2.698-.783 5.294-1.588 7.799l1.903.613Zm2.086-16.466c.021-2.665-.027-5.41-.047-8.191l-2 .014c.02 2.81.068 5.515.047 8.162l2 .015Zm.054-16.322c.109-2.634.314-5.317.687-8.053l-1.982-.27a87.412 87.412 0 0 0-.703 8.241l1.998.082Zm2.25-15.949a60.326 60.326 0 0 1 1.16-3.861l-1.895-.64a62.6 62.6 0 0 0-1.199 3.989l1.934.512Zm1.16-3.861a48.45 48.45 0 0 1 1.36-3.584l-1.838-.788a50.292 50.292 0 0 0-1.417 3.732l1.895.64Zm5.168-9.865c1.985-2.116 4.009-2.729 6.088-2.585l.139-1.995c-2.683-.186-5.293.661-7.685 3.212l1.458 1.368Zm12.995-.209c2.262 1.154 4.695 2.565 7.025 3.494l.74-1.857c-2.216-.884-4.449-2.19-6.856-3.419l-.909 1.782Zm15.328 3.867c1.192-.55 2.313-1.424 3.359-2.666l-1.529-1.289c-.889 1.056-1.783 1.731-2.668 2.139l.838 1.816Zm3.359-2.666c1.184-1.406 2.106-2.559 2.782-3.542l-1.649-1.133c-.617.899-1.487 1.991-2.662 3.386l1.529 1.289Zm1.685-12.486c-1.243-1.662-2.858-3.883-4.642-7.281l-1.771.93c1.854 3.532 3.541 5.849 4.812 7.548l1.601-1.197Zm-8.145-15.221a96.687 96.687 0 0 1-1.431-4.131l-1.904.613a98.852 98.852 0 0 0 1.462 4.217l1.873-.699Zm-1.877-4.688a99.796 99.796 0 0 0-3.721-2.076l-.936 1.767a99.04 99.04 0 0 1 3.646 2.035l1.011-1.726Zm-11.187-5.556c-2.774-1.103-5.396-1.916-7.874-2.458l-.427 1.954c2.358.516 4.875 1.295 7.563 2.363l.738-1.859Zm-16.211-3.271c-3.003.116-5.742.718-8.239 1.749l.764 1.849c2.268-.937 4.773-1.493 7.552-1.6l-.077-1.998Zm-15.337 6.362c-1.981 1.843-3.731 4.028-5.287 6.481l1.689 1.071c1.481-2.335 3.126-4.381 4.96-6.088l-1.362-1.464Zm-9.108 13.862c-1.04 2.446-1.968 5.046-2.8 7.761l1.912.587c.816-2.661 1.72-5.194 2.729-7.565l-1.841-.783Zm-4.921 15.72a172.945 172.945 0 0 0-1.647 8.022l1.968.359a169.96 169.96 0 0 1 1.627-7.93l-1.948-.451Zm-2.976 16.103c-.402 2.694-.77 5.401-1.117 8.097l1.983.255c.346-2.686.713-5.38 1.112-8.057l-1.978-.295Zm-2.116 16.208c-.328 2.75-.645 5.456-.966 8.099l1.985.241c.322-2.646.64-5.359.967-8.103l-1.986-.237Zm-1.999 16.147c-.39 2.827-.802 5.524-1.256 8.053l1.969.353c.459-2.563.876-5.289 1.269-8.133l-1.982-.273Zm-2.981 15.927c-.809 2.964-1.733 5.453-2.815 7.38l1.743.979c1.194-2.125 2.171-4.787 3.002-7.832l-1.93-.527Zm-8.114 11.832c-1.022.147-2.196.02-3.561-.474l-.68 1.881c1.607.581 3.116.776 4.527.572l-.286-1.979Zm-3.561-.474a169.302 169.302 0 0 0-3.805-1.325l-.634 1.897c1.202.402 2.455.838 3.759 1.309l.68-1.881Zm-11.524-3.687a168.709 168.709 0 0 0-7.793-1.946l-.443 1.951a166.07 166.07 0 0 1 7.702 1.923l.534-1.928Zm-15.485-3.781c-2.865-.856-4.641-1.859-6.071-3.833l-1.62 1.173c1.785 2.464 4.024 3.652 7.119 4.576l.572-1.916Zm-9.108-10.812c-.631-2.095-1.272-4.613-1.988-7.667l-1.947.456c.719 3.069 1.371 5.634 2.02 7.787l1.915-.576Zm-3.746-15.462c-.525-2.38-1.086-4.948-1.714-7.794l-1.953.431c.622 2.821 1.194 5.434 1.714 7.794l1.953-.431Zm-3.451-15.604c-.287-1.275-.584-2.59-.893-3.946l-1.95.444c.308 1.354.605 2.667.892 3.94l1.951-.438Zm-.893-3.946a151.568 151.568 0 0 0-.984-4.058l-1.937.498c.339 1.315.662 2.65.971 4.004l1.95-.444Zm-3.282-12.051c-.861-2.7-1.783-5.314-2.758-7.845l-1.867.72a137.989 137.989 0 0 1 2.72 7.733l1.905-.608Zm-5.988-15.522a135.061 135.061 0 0 0-3.689-7.455l-1.764.942a132.452 132.452 0 0 1 3.634 7.344l1.819-.831Zm-7.83-14.666a136.099 136.099 0 0 0-4.582-6.947l-1.635 1.152a134.058 134.058 0 0 1 4.514 6.844l1.703-1.049Zm-9.575-13.603a146.045 146.045 0 0 0-5.372-6.354l-1.49 1.334a144.32 144.32 0 0 1 5.298 6.267l1.564-1.247Zm-11.087-12.404a177.385 177.385 0 0 0-6-5.746l-1.35 1.475c1.934 1.77 3.92 3.66 5.932 5.681l1.418-1.41Zm-12.234-11.232c-2.28-1.936-4.424-3.694-6.37-5.292l-1.269 1.546c1.948 1.599 4.079 3.347 6.344 5.271l1.295-1.525Zm-12.652-10.589c-1.153-1.039-2.1-1.969-2.824-2.808l-1.515 1.306c.803.93 1.819 1.923 3 2.987l1.339-1.485Zm-2.824-2.808a35.984 35.984 0 0 1-2.622-3.447l-1.66 1.115a37.874 37.874 0 0 0 2.767 3.638l1.515-1.306Zm-6.745-11.119c-1.204-2.795-2.159-5.609-2.952-8.276l-1.917.571c.808 2.716 1.788 5.609 3.032 8.496l1.837-.791Zm-5.248-16.843c-.446-1.708-.865-3.214-1.307-4.37l-1.868.716c.398 1.039.792 2.444 1.24 4.159l1.935-.505Zm-1.307-4.37a18.037 18.037 0 0 0-1.585-3.134l-1.69 1.07a15.91 15.91 0 0 1 1.407 2.78l1.868-.716Zm-6.693-8.067c-2.137-1.057-4.641-1.226-7.284.224l.963 1.754c2.029-1.114 3.841-.974 5.434-.186l.887-1.792Zm-12.383 5.047a33.614 33.614 0 0 0-1.871 2.873l1.725 1.01a31.966 31.966 0 0 1 1.76-2.702l-1.614-1.181Zm-1.871 2.873c-.772 1.317-1.548 2.401-2.324 3.294l1.51 1.312c.868-1 1.714-2.187 2.539-3.596l-1.725-1.01Zm-8.839 7.289c-1.286.278-2.606.361-3.984.383-1.324.021-2.842-.017-4.245.032l.07 1.999c1.42-.049 2.723-.008 4.207-.032 1.428-.023 2.899-.109 4.374-.427l-.422-1.955Zm-16.742 2.862c-1.13.76-2.238 1.743-3.321 3.007l1.518 1.302c.977-1.14 1.952-1.999 2.919-2.649l-1.116-1.66Zm-3.321 3.007a38.444 38.444 0 0 0-2.325 3.04l1.642 1.143a36.098 36.098 0 0 1 2.201-2.881l-1.518-1.302Zm-6.384 9.363c-1.295 2.07-2.631 4.153-4.108 6.134l1.603 1.196c1.53-2.051 2.902-4.192 4.201-6.269l-1.696-1.061Zm-8.944 11.539c-1.75 1.571-3.703 2.926-5.939 3.959l.84 1.816c2.441-1.129 4.558-2.602 6.435-4.287l-1.336-1.488Zm-12.795 5.9c-2.17.278-4.566.31-7.227.036l-.204 1.99c2.798.287 5.349.257 7.685-.043l-.254-1.983Zm-14.393-1.301a65.248 65.248 0 0 1-3.541-1.04l-.617 1.902c1.255.407 2.472.764 3.651 1.073l.507-1.935Zm-3.541-1.04a78.335 78.335 0 0 1-3.876-1.364l-.716 1.868c1.22.468 2.542.934 3.975 1.398l.617-1.902Zm-11.087-4.85c-2.924-1.857-4.455-3.676-5.328-5.44l-1.792.887c1.064 2.151 2.875 4.227 6.048 6.242l1.072-1.689Zm-6.992-13.166c-.398-2.555-1.161-5.228-3.652-7.891l-1.461 1.366c2.118 2.265 2.774 4.502 3.137 6.833l1.976-.308Zm-10.622-12.829a51.465 51.465 0 0 0-3.855-1.756l-.759 1.85a49.855 49.855 0 0 1 3.706 1.688l.908-1.782Zm-3.855-1.756a233.563 233.563 0 0 0-3.785-1.516l-.728 1.862c1.202.47 2.452.97 3.754 1.504l.759-1.85Zm-11.381-4.341c-2.892-1.023-5.43-1.868-7.669-2.624l-.64 1.895c2.249.759 4.768 1.597 7.642 2.614l.667-1.885Zm-15.168-5.387c-2.612-1.141-4.655-2.376-6.486-4.124l-1.381 1.446c2.048 1.956 4.309 3.306 7.067 4.511l.8-1.833Zm-11.128-10.341a62.618 62.618 0 0 1-1.862-3.53l-1.795.882a64.514 64.514 0 0 0 1.921 3.641l1.736-.993Zm-1.862-3.53c-.649-1.32-1.285-2.609-1.907-3.879l-1.796.88c.623 1.272 1.261 2.565 1.908 3.881l1.795-.882Zm-5.588-11.656c-1.193-2.669-2.269-5.291-3.185-7.937l-1.89.655c.941 2.716 2.04 5.394 3.25 8.098l1.825-.816Zm-5.437-16.13a53.716 53.716 0 0 1-.998-8.415l-1.999.079c.12 3.047.479 5.935 1.035 8.727l1.962-.391Zm-.708-16.901a71.04 71.04 0 0 1 .568-4.227l-1.973-.325a73.111 73.111 0 0 0-.585 4.347l1.99.205Zm.568-4.227c.227-1.382.456-2.756.685-4.122l-1.973-.331c-.228 1.367-.458 2.744-.685 4.128l1.973.325Zm2.063-12.374c.465-2.827.906-5.594 1.299-8.278l-1.979-.29a479.5 479.5 0 0 1-1.294 8.243l1.974.325Zm2.372-16.61c.315-2.966.527-5.787.593-8.422l-1.999-.05c-.065 2.566-.272 5.331-.583 8.261l1.989.211Zm.146-16.94c-.239-1.519-.578-2.936-1.037-4.231l-1.885.667c.41 1.157.722 2.451.947 3.875l1.975-.311Zm-1.037-4.231a48.567 48.567 0 0 1-.908-2.829l-1.923.55c.272.948.586 1.929.946 2.946l1.885-.667Zm-2.056-8.594a24.057 24.057 0 0 1 .093-5.807l-1.981-.275a26.062 26.062 0 0 0-.101 6.284l1.989-.202Zm1.526-11.478c.322-.908.684-1.826 1.082-2.768l-1.841-.779c-.411.97-.788 1.926-1.126 2.879l1.885.668Zm1.082-2.768c.814-1.921 1.405-3.154 1.952-4.421l-1.837-.792c-.477 1.106-1.173 2.583-1.956 4.434l1.841.779Zm3.742-14.24c.023-1.368.015-2.966-.017-4.872l-1.999.034c.032 1.894.039 3.468.017 4.805l1.999.033Zm-.017-4.872a33.983 33.983 0 0 1 .07-3.019l-1.995-.143a35.91 35.91 0 0 0-.074 3.196l1.999-.034Zm1.513-8.55c.89-1.547 2.19-2.699 4.045-4.127l-1.22-1.584c-1.877 1.444-3.457 2.798-4.559 4.714l1.734.997Zm8.982-7.97a59.205 59.205 0 0 0 2.372-2.09l-1.363-1.464a57.234 57.234 0 0 1-2.292 2.019l1.283 1.535Zm2.372-2.09a92.333 92.333 0 0 0 2.653-2.567l-1.419-1.409a91.097 91.097 0 0 1-2.597 2.512l1.363 1.464Zm7.641-7.991c1.658-1.935 3.161-3.809 4.659-5.65l-1.551-1.263c-1.51 1.856-2.99 3.701-4.627 5.612l1.519 1.301Zm9.35-11.172a80.492 80.492 0 0 1 2.48-2.617l-1.42-1.408c-.9.907-1.741 1.799-2.541 2.682l1.481 1.343Zm2.48-2.617c1.765-1.78 2.811-3.458 3.403-5.135l-1.886-.665c-.477 1.352-1.344 2.785-2.937 4.392l1.42 1.408Zm4.164-16.795c.199-1.58.622-3.308 1.479-5.258l-1.831-.804c-.939 2.136-1.41 4.052-1.633 5.812l1.985.25Zm1.479-5.258c.493-1.121.785-2.519.908-4.142l-1.995-.151c-.112 1.49-.374 2.646-.744 3.489l1.831.804Zm.486-12.192c-.334-2.352-.84-4.964-1.521-7.817l-1.945.464c.669 2.805 1.162 5.354 1.486 7.634l1.98-.281Zm-3.595-15.456a186.765 186.765 0 0 0-2.449-7.533l-1.889.657a186.433 186.433 0 0 1 2.423 7.452l1.915-.576Zm-5.17-14.949a283.147 283.147 0 0 0-2.946-7.324l-1.845.772a275.53 275.53 0 0 1 2.924 7.272l1.867-.72Zm-6.079-14.564a364.035 364.035 0 0 0-3.293-7.155l-1.808.856a356.193 356.193 0 0 1 3.275 7.115l1.826-.816Zm-6.738-14.248a432.49 432.49 0 0 0-3.583-7.034l-1.774.924a422.187 422.187 0 0 1 3.566 7l1.791-.89Zm-7.279-13.984a490.43 490.43 0 0 0-3.82-6.906l-1.742.983a497.789 497.789 0 0 1 3.804 6.877l1.758-.954Zm-7.739-13.734a527.83 527.83 0 0 0-2.007-3.407l-1.719 1.021c.676 1.138 1.342 2.27 1.999 3.395l1.727-1.01Z" fill="#EA3327"/><path d="m198.412 128.118.478 1.12" stroke="#EA3327" stroke-width="1.14" stroke-miterlimit="10"/><path d="M194.179 114c-.212 5.54-1.316 12.505-3.63 17.034l7.982-4.354 10.118 2.112c-4.922-3.574-10.686-9.709-14.47-14.792Z" fill="#EA3327"/><path d="m146.615 174.133-.144-1.177" stroke="#EA3327" stroke-width="1.14" stroke-miterlimit="10"/><path d="M147.906 184.074c1.177-4.608 3.366-10.321 6.145-13.879l-7.557 2.855-8.206-2.758c3.535 3.47 7.321 9.163 9.618 13.782Z" fill="#EA3327"/><path d="m141.18 297.854.082-1.174" stroke="#EA3327" stroke-width="1.14" stroke-miterlimit="10"/><path d="M140.547 307.781c2.049-4.416 5.311-9.802 8.741-12.99l-8.017 1.928-7.58-3.697c2.826 3.848 5.474 9.922 6.856 14.759Z" fill="#EA3327"/><path d="m155.912 383.993-1.057-.458" stroke="#EA3327" stroke-width="1.14" stroke-miterlimit="10"/><path d="M164.862 387.747c-3.263-3.358-6.943-8.177-8.529-12.45l-1.386 8.217-6.399 5.998c4.662-1.444 11.308-2.006 16.314-1.765Z" fill="#EA3327"/><path d="m246.63 513.147-1.057-.458" stroke="#EA3327" stroke-width="1.14" stroke-miterlimit="10"/><path d="M255.58 516.901c-3.263-3.357-6.943-8.176-8.529-12.449l-1.386 8.217-6.4 5.998c4.663-1.444 11.309-2.007 16.315-1.766Z" fill="#EA3327"/><path d="m474.872 519.024.238-1.155" stroke="#EA3327" stroke-width="1.14" stroke-miterlimit="10"/><path d="M472.901 528.795c2.63-4.215 6.596-9.294 10.432-12.175l-8.222 1.248-7.031-4.301c2.289 4.056 4.1 10.309 4.821 15.228Z" fill="#EA3327"/><path d="m164.181 353.315.615 1.043" stroke="#EA3327" stroke-width="1.14" stroke-miterlimit="10"/><path d="M158.837 344.542c.915 4.71 1.4 10.823.447 15.162l5.491-5.482 8.452-.527c-4.61-1.887-10.389-5.737-14.39-9.153Z" fill="#EA3327"/><path d="m379.101 436.397.8.783" stroke="#EA3327" stroke-width="1.14" stroke-miterlimit="10"/><path d="M372.311 430.218c1.692 4.148 3.2 9.797 2.996 14.298l4.467-7.312 8.211-3.707c-4.846-.052-11.169-1.536-15.674-3.279Z" fill="#EA3327"/><path d="m423.235 573.508-1.173-.153" stroke="#EA3327" stroke-width="1.14" stroke-miterlimit="10"/><path d="M433.145 574.76c-4.488-2.307-9.986-5.879-13.284-9.483l2.17 8.086-3.483 7.308c3.774-2.573 9.787-4.833 14.597-5.911Z" fill="#EA3327"/><path d="M353.075 488.806c-1.055 0-1.937-.355-2.646-1.064-.7-.709-1.05-1.587-1.05-2.632 0-1.045.35-1.923 1.05-2.632.709-.709 1.591-1.064 2.646-1.064.681 0 1.302.163 1.862.49.56.327.985.765 1.274 1.316l-1.554.91a1.577 1.577 0 0 0-.644-.686 1.813 1.813 0 0 0-.952-.252c-.541 0-.989.182-1.344.546-.355.355-.532.812-.532 1.372 0 .551.177 1.008.532 1.372.355.355.803.532 1.344.532.364 0 .686-.079.966-.238.289-.168.504-.397.644-.686l1.568.896a3.556 3.556 0 0 1-1.302 1.33c-.56.327-1.181.49-1.862.49Zm9.594-7.196v1.736h-2.184v5.264h-1.806v-5.264h-2.212v-1.736h6.202Zm6.655 6.132c-.718.709-1.596 1.064-2.632 1.064s-1.913-.355-2.632-1.064c-.709-.719-1.064-1.596-1.064-2.632s.355-1.909 1.064-2.618c.719-.719 1.596-1.078 2.632-1.078s1.914.359 2.632 1.078c.719.709 1.078 1.582 1.078 2.618 0 1.036-.359 1.913-1.078 2.632Zm-3.99-1.246c.364.364.817.546 1.358.546.542 0 .994-.182 1.358-.546.364-.364.546-.826.546-1.386 0-.56-.182-1.022-.546-1.386-.364-.364-.816-.546-1.358-.546-.541 0-.994.182-1.358.546-.354.364-.532.826-.532 1.386 0 .56.178 1.022.532 1.386Zm11.679-4.886v7h-1.764v-2.184h-.63l-1.61 2.184h-2.086l1.75-2.394a2.38 2.38 0 0 1-1.078-.882 2.411 2.411 0 0 1-.392-1.316c0-.653.234-1.218.7-1.694.467-.476 1.078-.714 1.834-.714h3.276Zm-3.136 1.61a.95.95 0 0 0-.658.238c-.168.149-.252.355-.252.616 0 .252.084.453.252.602a.99.99 0 0 0 .658.224h1.372v-1.68h-1.372Zm9.374-1.61h1.806v7h-1.806v-2.66h-2.786v2.66h-1.806v-7h1.806v2.646h2.786v-2.646Zm9.915 7h-2.1l-2.548-3.178v3.178h-1.806v-7h1.806v3.08l2.408-3.08h2.156l-2.814 3.458 2.898 3.542Zm5.715-7h1.806v7h-1.806v-.826c-.541.681-1.302 1.022-2.282 1.022-.933 0-1.736-.355-2.408-1.064-.662-.719-.994-1.596-.994-2.632s.332-1.909.994-2.618c.672-.719 1.475-1.078 2.408-1.078.98 0 1.741.341 2.282 1.022v-.826Zm-3.332 4.928c.364.364.826.546 1.386.546.56 0 1.022-.182 1.386-.546.374-.373.56-.849.56-1.428s-.186-1.05-.56-1.414c-.364-.373-.826-.56-1.386-.56-.56 0-1.022.187-1.386.56-.364.364-.546.835-.546 1.414s.182 1.055.546 1.428Zm14.392-3.752c.663.196 1.199.541 1.61 1.036.42.485.63 1.073.63 1.764 0 1.008-.341 1.797-1.022 2.366-.672.569-1.498.854-2.478.854-.765 0-1.451-.173-2.058-.518-.597-.355-1.031-.873-1.302-1.554l1.652-.952c.243.756.812 1.134 1.708 1.134.495 0 .877-.117 1.148-.35.28-.243.42-.569.42-.98 0-.401-.14-.723-.42-.966-.271-.243-.653-.364-1.148-.364h-.42l-.742-1.12 1.932-2.52h-3.836v-1.806h6.16v1.596l-1.834 2.38Zm7.097 6.02c-1.223 0-2.184-.462-2.884-1.386-.691-.933-1.036-2.17-1.036-3.71s.345-2.772 1.036-3.696c.7-.933 1.661-1.4 2.884-1.4 1.232 0 2.193.467 2.884 1.4.691.924 1.036 2.156 1.036 3.696s-.345 2.777-1.036 3.71c-.691.924-1.652 1.386-2.884 1.386Zm-1.484-2.702c.336.541.831.812 1.484.812s1.148-.275 1.484-.826c.345-.551.518-1.344.518-2.38 0-1.045-.173-1.843-.518-2.394-.336-.551-.831-.826-1.484-.826s-1.148.275-1.484.826c-.336.551-.504 1.349-.504 2.394 0 1.045.168 1.843.504 2.394Zm17.498-4.494v7h-1.75v-4.088l-1.778 2.8h-.224l-1.792-2.828v4.116h-1.736v-7h1.778l1.862 2.94 1.862-2.94h1.778Zm6.702 0h1.344v7h-1.764v-3.976l-3.29 3.976H434.7v-7h1.764v3.976l3.29-3.976Zm7.591 0h1.806v7h-1.806v-2.66h-2.786v2.66h-1.806v-7h1.806v2.646h2.786v-2.646Zm8.024 0h1.932l-2.548 7c-.709 1.969-1.941 2.903-3.696 2.8v-1.68c.476.009.85-.079 1.12-.266.28-.187.504-.499.672-.938l-2.828-6.916h1.918l1.876 4.704 1.554-4.704Zm8.417 0v1.736h-2.184v5.264h-1.806v-5.264h-2.212v-1.736h6.202Z" fill="#009FE3"/></svg>