<svg width="1280" height="1227" viewBox="0 0 1280 1227" fill="none" xmlns="http://www.w3.org/2000/svg">
<mask id="mask0_418_903" style="mask-type:alpha" maskUnits="userSpaceOnUse" x="-652" y="0" width="2737" height="1033">
<path d="M-652 0H2085V1033H-652V0Z" fill="#C4C4C4"/>
</mask>
<g mask="url(#mask0_418_903)">
<path fill-rule="evenodd" clip-rule="evenodd" d="M645.5 975.217C820.418 975.217 962.217 833.418 962.217 658.5C962.217 483.582 820.418 341.783 645.5 341.783C470.582 341.783 328.783 483.582 328.783 658.5C328.783 833.418 470.582 975.217 645.5 975.217ZM645.5 1023C846.808 1023 1010 859.808 1010 658.5C1010 457.192 846.808 294 645.5 294C444.192 294 281 457.192 281 658.5C281 859.808 444.192 1023 645.5 1023Z" fill="#D88532" fill-opacity="0.1"/>
<path fill-rule="evenodd" clip-rule="evenodd" d="M645.5 855.203C754.136 855.203 842.203 767.136 842.203 658.5C842.203 549.864 754.136 461.797 645.5 461.797C536.864 461.797 448.797 549.864 448.797 658.5C448.797 767.136 536.864 855.203 645.5 855.203ZM645.5 903C780.534 903 890 793.534 890 658.5C890 523.466 780.534 414 645.5 414C510.466 414 401 523.466 401 658.5C401 793.534 510.466 903 645.5 903Z" fill="#D88532" fill-opacity="0.1"/>
<path fill-rule="evenodd" clip-rule="evenodd" d="M645.5 1094.25C881.742 1094.25 1074.29 899.958 1074.29 659C1074.29 418.042 881.742 223.749 645.5 223.749C409.258 223.749 216.711 418.042 216.711 659C216.711 899.958 409.258 1094.25 645.5 1094.25ZM645.5 1142C908.664 1142 1122 925.754 1122 659C1122 392.246 908.664 176 645.5 176C382.336 176 169 392.246 169 659C169 925.754 382.336 1142 645.5 1142Z" fill="#D88532" fill-opacity="0.1"/>
<path fill-rule="evenodd" clip-rule="evenodd" d="M645.5 1213.23C951.34 1213.23 1199.27 965.094 1199.27 659C1199.27 352.906 951.34 104.768 645.5 104.768C339.66 104.768 91.7284 352.906 91.7284 659C91.7284 965.094 339.66 1213.23 645.5 1213.23ZM645.5 1261C977.699 1261 1247 991.475 1247 659C1247 326.525 977.699 57 645.5 57C313.301 57 44 326.525 44 659C44 991.475 313.301 1261 645.5 1261Z" fill="#D88532" fill-opacity="0.1"/>
</g>
<path d="M499.361 1011.56H273.377L277.526 997.267L286.861 965.345L291.658 949.323L296.325 933.3L300.993 917.278L305.79 901.256L310.458 885.356L315.125 869.334L319.793 853.312L324.59 837.289L329.257 821.39L333.925 805.368L338.592 789.345L343.389 773.323L348.057 757.423L352.724 741.401L357.392 725.379L362.189 709.356L366.857 693.334L371.524 677.435L376.192 661.412L386.304 626.902L396.547 661.412L401.214 677.435L405.882 693.334L410.549 709.356L415.347 725.379L420.014 741.401L424.682 757.423L429.349 773.323L434.146 789.345L438.814 805.368L443.481 821.39L448.149 837.289L452.946 853.312L457.613 869.334L462.281 885.356L466.948 901.256L471.745 917.278L476.413 933.3L481.08 949.323L485.748 965.345L495.213 997.267L499.361 1011.56Z" fill="#A4B635" stroke="black" stroke-width="2" stroke-miterlimit="10"/>
<path d="M386.303 1011.56V626.902" stroke="black" stroke-width="2" stroke-miterlimit="10"/>
<path d="M286.861 965.346L386.305 1011.19L485.748 965.346" stroke="black" stroke-width="2" stroke-miterlimit="10"/>
<path d="M490.026 981.86L425.848 1011.56" stroke="black" stroke-width="2" stroke-miterlimit="10"/>
<path d="M346.891 1011.56L282.713 981.86" stroke="black" stroke-width="2" stroke-miterlimit="10"/>
<path d="M495.214 997.268L464.227 1011.56" stroke="black" stroke-width="2" stroke-miterlimit="10"/>
<path d="M308.514 1011.56L277.527 997.268" stroke="black" stroke-width="2" stroke-miterlimit="10"/>
<path d="M291.658 949.322L386.305 993.076L481.081 949.322" stroke="black" stroke-width="2" stroke-miterlimit="10"/>
<path d="M296.324 933.301L386.303 974.959L476.412 933.301" stroke="black" stroke-width="2" stroke-miterlimit="10"/>
<path d="M300.992 917.277L386.304 956.718L471.745 917.277" stroke="black" stroke-width="2" stroke-miterlimit="10"/>
<path d="M305.791 901.256L386.305 938.601L466.949 901.256" stroke="black" stroke-width="2" stroke-miterlimit="10"/>
<path d="M310.457 885.36L386.304 920.363L462.28 885.36" stroke="black" stroke-width="2" stroke-miterlimit="10"/>
<path d="M315.125 869.336L386.304 902.244L457.613 869.336" stroke="black" stroke-width="2" stroke-miterlimit="10"/>
<path d="M319.793 853.315L386.305 884.128L452.946 853.315" stroke="black" stroke-width="2" stroke-miterlimit="10"/>
<path d="M324.59 837.291L386.305 865.884L448.149 837.291" stroke="black" stroke-width="2" stroke-miterlimit="10"/>
<path d="M329.256 821.391L386.303 847.766L443.48 821.391" stroke="black" stroke-width="2" stroke-miterlimit="10"/>
<path d="M333.926 805.368L386.305 829.525L438.815 805.368" stroke="black" stroke-width="2" stroke-miterlimit="10"/>
<path d="M338.594 789.346L386.306 811.408L434.148 789.346" stroke="black" stroke-width="2" stroke-miterlimit="10"/>
<path d="M343.389 773.324L386.304 793.29L429.348 773.324" stroke="black" stroke-width="2" stroke-miterlimit="10"/>
<path d="M348.055 757.424L386.302 775.049L424.679 757.424" stroke="black" stroke-width="2" stroke-miterlimit="10"/>
<path d="M352.725 741.402L386.305 756.932L420.014 741.402" stroke="black" stroke-width="2" stroke-miterlimit="10"/>
<path d="M357.393 725.379L386.305 738.69L415.347 725.379" stroke="black" stroke-width="2" stroke-miterlimit="10"/>
<path d="M362.189 709.357L386.305 720.573L410.55 709.357" stroke="black" stroke-width="2" stroke-miterlimit="10"/>
<path d="M366.855 693.334L386.303 702.455L405.881 693.334" stroke="black" stroke-width="2" stroke-miterlimit="10"/>
<path d="M371.523 677.436L386.304 684.214L401.214 677.436" stroke="black" stroke-width="2" stroke-miterlimit="10"/>
<path d="M376.191 661.414L386.304 666.097L396.547 661.414" stroke="black" stroke-width="2" stroke-miterlimit="10"/>
<path d="M924.366 1011.56H698.252L702.401 997.267L711.865 965.345L716.533 949.323L721.2 933.3L725.998 917.278L730.665 901.256L735.333 885.356L740 869.334L744.797 853.312L749.465 837.289L754.132 821.39L758.8 805.368L763.597 789.345L768.264 773.323L772.932 757.423L777.599 741.401L782.397 725.379L787.064 709.356L791.731 693.334L796.399 677.435L801.196 661.412L811.309 626.902L821.422 661.412L826.089 677.435L830.757 693.334L835.554 709.356L840.222 725.379L844.889 741.401L849.557 757.423L854.354 773.323L859.021 789.345L863.689 805.368L868.356 821.39L873.153 837.289L877.821 853.312L882.488 869.334L887.156 885.356L891.953 901.256L896.62 917.278L901.288 933.3L905.956 949.323L910.753 965.345L920.088 997.267L924.366 1011.56Z" fill="#A4B635" stroke="black" stroke-width="2" stroke-miterlimit="10"/>
<path d="M811.309 1011.56V626.902" stroke="black" stroke-width="2" stroke-miterlimit="10"/>
<path d="M711.866 965.346L811.31 1011.19L910.753 965.346" stroke="black" stroke-width="2" stroke-miterlimit="10"/>
<path d="M915.03 981.86L850.723 1011.56" stroke="black" stroke-width="2" stroke-miterlimit="10"/>
<path d="M771.766 1011.56L707.588 981.86" stroke="black" stroke-width="2" stroke-miterlimit="10"/>
<path d="M920.088 997.268L889.102 1011.56" stroke="black" stroke-width="2" stroke-miterlimit="10"/>
<path d="M733.389 1011.56L702.402 997.268" stroke="black" stroke-width="2" stroke-miterlimit="10"/>
<path d="M716.532 949.322L811.308 993.076L905.955 949.322" stroke="black" stroke-width="2" stroke-miterlimit="10"/>
<path d="M721.199 933.301L811.308 974.959L901.287 933.301" stroke="black" stroke-width="2" stroke-miterlimit="10"/>
<path d="M725.999 917.277L811.31 956.718L896.622 917.277" stroke="black" stroke-width="2" stroke-miterlimit="10"/>
<path d="M730.666 901.256L811.31 938.601L891.954 901.256" stroke="black" stroke-width="2" stroke-miterlimit="10"/>
<path d="M735.331 885.36L811.308 920.363L887.154 885.36" stroke="black" stroke-width="2" stroke-miterlimit="10"/>
<path d="M740 869.336L811.309 902.244L882.488 869.336" stroke="black" stroke-width="2" stroke-miterlimit="10"/>
<path d="M744.797 853.315L811.309 884.128L877.82 853.315" stroke="black" stroke-width="2" stroke-miterlimit="10"/>
<path d="M749.465 837.291L811.309 865.884L873.153 837.291" stroke="black" stroke-width="2" stroke-miterlimit="10"/>
<path d="M754.131 821.391L811.308 847.766L868.355 821.391" stroke="black" stroke-width="2" stroke-miterlimit="10"/>
<path d="M758.801 805.368L811.31 829.525L863.69 805.368" stroke="black" stroke-width="2" stroke-miterlimit="10"/>
<path d="M763.598 789.346L811.31 811.408L859.022 789.346" stroke="black" stroke-width="2" stroke-miterlimit="10"/>
<path d="M768.264 773.324L811.308 793.29L854.353 773.324" stroke="black" stroke-width="2" stroke-miterlimit="10"/>
<path d="M772.93 757.424L811.307 775.049L849.554 757.424" stroke="black" stroke-width="2" stroke-miterlimit="10"/>
<path d="M777.6 741.402L811.309 756.932L844.889 741.402" stroke="black" stroke-width="2" stroke-miterlimit="10"/>
<path d="M782.396 725.379L811.309 738.69L840.222 725.379" stroke="black" stroke-width="2" stroke-miterlimit="10"/>
<path d="M787.063 709.357L811.309 720.573L835.554 709.357" stroke="black" stroke-width="2" stroke-miterlimit="10"/>
<path d="M791.731 693.334L811.309 702.455L830.757 693.334" stroke="black" stroke-width="2" stroke-miterlimit="10"/>
<path d="M796.397 677.436L811.308 684.214L826.088 677.436" stroke="black" stroke-width="2" stroke-miterlimit="10"/>
<path d="M801.197 661.414L811.31 666.097L821.423 661.414" stroke="black" stroke-width="2" stroke-miterlimit="10"/>
<path d="M547.852 641.815C547.852 641.815 545.518 625.546 553.816 625.793C562.114 626.039 613.715 625.793 613.715 625.793C613.715 625.793 620.717 624.314 618.642 641.815C618.642 641.815 668.688 639.597 694.878 658.084C721.068 676.572 728.458 681.748 742.849 706.768C757.241 731.787 780.708 807.833 780.708 807.833C780.708 807.833 787.32 834.208 751.536 840.371V834.455L730.792 748.18L547.463 752.493L533.46 840.371H435.573C435.573 840.371 425.849 729.199 452.946 695.059C480.043 660.919 512.716 641.938 547.852 641.815Z" fill="white" stroke="black" stroke-width="2" stroke-miterlimit="10"/>
<path d="M547.852 641.814C547.852 641.814 596.471 645.387 618.772 641.814H547.852Z" fill="white"/>
<path d="M547.852 641.814C547.852 641.814 596.471 645.387 618.772 641.814" stroke="black" stroke-width="2" stroke-miterlimit="10"/>
<path d="M554.594 625.67V642.555" stroke="black" stroke-width="2" stroke-miterlimit="10"/>
<path d="M561.594 625.67V642.555" stroke="black" stroke-width="2" stroke-miterlimit="10"/>
<path d="M568.598 625.67V642.555" stroke="black" stroke-width="2" stroke-miterlimit="10"/>
<path d="M575.598 625.67V642.555" stroke="black" stroke-width="2" stroke-miterlimit="10"/>
<path d="M582.598 625.67V642.555" stroke="black" stroke-width="2" stroke-miterlimit="10"/>
<path d="M589.602 625.67V642.555" stroke="black" stroke-width="2" stroke-miterlimit="10"/>
<path d="M596.602 625.67V642.555" stroke="black" stroke-width="2" stroke-miterlimit="10"/>
<path d="M603.475 625.67V642.555" stroke="black" stroke-width="2" stroke-miterlimit="10"/>
<path d="M610.473 625.67V642.555" stroke="black" stroke-width="2" stroke-miterlimit="10"/>
<path d="M510.9 822.13L584.672 772.584C584.672 772.584 596.47 714.657 613.844 695.06C631.217 675.463 655.722 669.547 674.91 669.301C693.062 669.054 750.627 683.968 750.627 734.746V969.783L704.86 989.503L621.364 982.971L496.768 911.363L510.9 822.13Z" fill="#009FE3" stroke="black" stroke-width="2" stroke-miterlimit="10"/>
<path d="M634.071 767.16C633.682 767.16 644.184 732.157 644.184 732.157C644.184 732.157 652.352 707.014 677.245 710.096C702.139 713.177 708.751 727.104 709.14 743.743C709.399 760.381 709.14 970.892 709.14 970.892" stroke="black" stroke-width="2" stroke-miterlimit="10"/>
<path d="M434.277 822.13L508.049 772.584C508.049 772.584 519.847 714.657 537.221 695.06C554.594 675.34 579.099 669.547 598.287 669.301C616.439 669.054 674.004 683.968 674.004 734.746V969.783L628.237 989.503L544.741 982.971L420.145 911.363L434.277 822.13Z" fill="#009FE3" stroke="black" stroke-width="2" stroke-miterlimit="10"/>
<path d="M591.949 740.213L591.949 984.155" stroke="black" stroke-width="2" stroke-miterlimit="10"/>
<path d="M557.446 767.16C557.057 767.16 567.559 732.157 567.559 732.157C567.559 732.157 575.727 707.014 600.62 710.096C625.514 713.177 632.126 727.104 632.515 743.743C632.774 760.381 632.515 970.892 632.515 970.892" stroke="black" stroke-width="2" stroke-miterlimit="10"/>
<path d="M599.453 780.472V825.705L650.796 825.335L655.982 824.842L658.834 822.007C658.834 822.007 659.353 819.173 659.353 819.049C659.223 818.803 657.149 814.119 657.149 814.119H660.908L664.539 812.271C664.539 812.271 665.706 809.313 665.706 809.189C665.706 809.066 663.372 803.15 663.372 803.15C663.372 803.15 668.688 802.904 668.947 802.78C669.206 802.657 672.448 799.822 672.448 799.822C672.448 799.822 673.225 796.618 673.096 796.371C672.966 796.125 671.54 792.797 671.41 792.551C671.151 792.304 665.187 791.441 665.187 791.441C665.187 791.441 661.557 791.195 661.297 791.072C661.038 790.948 663.113 787.497 663.113 787.497L662.594 782.937L658.964 780.226L630.44 779.609L643.924 774.433L645.48 772.461C645.48 772.461 645.998 770.612 645.998 770.366C645.998 770.119 645.35 767.777 645.35 767.777L643.924 765.805L640.423 764.203C640.423 764.203 637.312 764.45 637.182 764.573C636.923 764.696 599.453 780.472 599.453 780.472Z" fill="#FEBE9A"/>
<path d="M628.106 813.503L653.389 813.872C656.63 813.872 659.353 816.337 659.353 819.542C659.353 822.623 656.76 825.211 653.389 825.211H599.453V780.472L637.182 764.696C640.164 763.463 643.665 764.819 644.961 767.654C646.776 771.105 645.22 773.939 641.85 775.049L630.829 780.225" stroke="black" stroke-width="2" stroke-miterlimit="10"/>
<path d="M634.591 802.779H659.614C662.855 802.779 665.578 805.244 665.578 808.449C665.578 811.53 662.984 814.118 659.614 814.118L625.645 813.625" stroke="black" stroke-width="2" stroke-miterlimit="10"/>
<path d="M642.238 791.441H667.261C670.502 791.441 673.225 793.906 673.225 797.111C673.225 800.192 670.632 802.78 667.261 802.78H625.383" stroke="black" stroke-width="2" stroke-miterlimit="10"/>
<path d="M624.994 780.227H657.537C660.778 780.227 663.501 782.692 663.501 785.896C663.501 788.977 660.908 791.565 657.537 791.565H624.994" stroke="black" stroke-width="2" stroke-miterlimit="10"/>
<path d="M748.038 780.472V825.705L696.696 825.335L691.51 824.842L688.657 822.007C688.657 822.007 688.139 819.173 688.139 819.049C688.268 818.803 690.343 814.119 690.343 814.119H686.583L682.953 812.271C682.953 812.271 681.786 809.313 681.786 809.189C681.786 809.066 684.119 803.15 684.119 803.15C684.119 803.15 678.804 802.904 678.544 802.78C678.285 802.657 675.044 799.822 675.044 799.822C675.044 799.822 674.266 796.618 674.395 796.371C674.525 796.248 675.951 792.797 676.081 792.551C676.34 792.304 682.304 791.441 682.304 791.441C682.304 791.441 685.935 791.195 686.194 791.072C686.453 790.948 684.379 787.497 684.379 787.497L684.897 782.937L688.528 780.226L717.051 779.609L703.567 774.433L702.011 772.461C702.011 772.461 701.493 770.612 701.493 770.366C701.493 770.119 702.141 767.777 702.141 767.777L703.567 765.805L707.068 764.203C707.068 764.203 710.18 764.45 710.309 764.573C710.569 764.696 748.038 780.472 748.038 780.472Z" fill="#FEBE9A"/>
<path d="M719.386 813.503L694.104 813.872C690.862 813.872 688.14 816.337 688.14 819.542C688.14 822.623 690.733 825.211 694.104 825.211H748.039V780.472L710.31 764.696C707.328 763.463 703.828 764.819 702.531 767.654C700.716 771.105 702.272 773.939 705.643 775.049L716.663 780.225" stroke="black" stroke-width="2" stroke-miterlimit="10"/>
<path d="M712.903 802.779H687.88C684.639 802.779 681.916 805.244 681.916 808.449C681.916 811.53 684.509 814.118 687.88 814.118L721.849 813.625" stroke="black" stroke-width="2" stroke-miterlimit="10"/>
<path d="M705.253 791.441H680.23C676.988 791.441 674.266 793.906 674.266 797.111C674.266 800.192 676.859 802.78 680.23 802.78H722.107" stroke="black" stroke-width="2" stroke-miterlimit="10"/>
<path d="M722.495 780.227H689.952C686.711 780.227 683.988 782.692 683.988 785.896C683.988 788.977 686.581 791.565 689.952 791.565H722.495" stroke="black" stroke-width="2" stroke-miterlimit="10"/>
<path d="M582.859 763.587H602.307C602.307 763.587 611.772 763.71 612.42 771.228C613.068 778.747 613.587 814.736 613.587 814.736C613.587 814.736 614.106 834.332 605.549 834.455C596.992 834.579 583.637 833.963 583.637 833.963L582.859 763.587Z" fill="white" stroke="black" stroke-width="2" stroke-miterlimit="10"/>
<path d="M734.813 773.449C734.813 768.149 737.925 764.082 744.537 763.712H751.798C751.798 763.712 761.263 763.835 761.911 771.353C762.559 778.872 763.078 814.861 763.078 814.861C763.078 814.861 764.504 834.704 754.521 834.704C750.89 834.704 748.297 834.704 744.278 834.704C738.833 834.581 735.202 830.39 735.073 825.214L734.813 773.449Z" fill="white" stroke="black" stroke-width="2" stroke-miterlimit="10"/>
<path d="M612.42 772.584H589.73" stroke="black" stroke-width="2" stroke-miterlimit="10"/>
<path d="M612.42 783.184H589.73" stroke="black" stroke-width="2" stroke-miterlimit="10"/>
<path d="M612.42 793.906H589.73" stroke="black" stroke-width="2" stroke-miterlimit="10"/>
<path d="M612.42 804.509H589.73" stroke="black" stroke-width="2" stroke-miterlimit="10"/>
<path d="M612.42 815.229H589.73" stroke="black" stroke-width="2" stroke-miterlimit="10"/>
<path d="M612.42 825.828H589.73" stroke="black" stroke-width="2" stroke-miterlimit="10"/>
<path d="M761.911 772.584H734.813" stroke="black" stroke-width="2" stroke-miterlimit="10"/>
<path d="M761.911 783.184H734.813" stroke="black" stroke-width="2" stroke-miterlimit="10"/>
<path d="M761.911 793.906H734.813" stroke="black" stroke-width="2" stroke-miterlimit="10"/>
<path d="M761.911 804.509H734.813" stroke="black" stroke-width="2" stroke-miterlimit="10"/>
<path d="M761.911 815.229H734.813" stroke="black" stroke-width="2" stroke-miterlimit="10"/>
<path d="M761.911 825.828H734.813" stroke="black" stroke-width="2" stroke-miterlimit="10"/>
<path d="M434.145 778.993C434.145 778.993 438.293 840.495 501.953 840.371L574.947 840.248C574.947 840.248 591.543 841.604 594.914 822.5C598.285 803.396 594.914 773.323 594.914 773.323C594.914 773.323 593.747 760.012 571.317 758.41C548.887 756.808 481.857 753.604 481.857 753.604" fill="white"/>
<path d="M434.145 778.993C434.145 778.993 438.293 840.495 501.953 840.371L574.947 840.248C574.947 840.248 591.543 841.604 594.914 822.5C598.285 803.396 594.914 773.323 594.914 773.323C594.914 773.323 593.747 760.012 571.317 758.41C548.887 756.808 481.857 753.604 481.857 753.604" stroke="black" stroke-width="2" stroke-miterlimit="10"/>
<path d="M592.066 604.962C590.64 606.811 583.509 628.01 594.789 638.733C606.198 649.579 619.812 643.047 619.812 643.047L655.855 629.982L627.591 553.69C575.73 557.511 570.414 589.433 570.414 589.433C553.948 605.702 554.467 625.175 554.467 625.175L588.176 625.422" fill="#FEBE9A"/>
<path d="M592.066 604.962C590.64 606.811 583.509 628.01 594.789 638.733C606.198 649.579 619.812 643.047 619.812 643.047L655.855 629.982L627.591 553.69C575.73 557.511 570.414 589.433 570.414 589.433C553.948 605.702 554.467 625.175 554.467 625.175L588.176 625.422" stroke="black" stroke-width="2" stroke-miterlimit="10"/>
<path d="M627.59 553.692L566.912 532L571.969 599.294L609.957 579.081L610.475 585.86L635.628 575.137L627.59 553.692Z" fill="#CE9D1D" stroke="black" stroke-width="2" stroke-miterlimit="10"/>
<path d="M629.274 558.253L568.078 547.037" stroke="black" stroke-width="2" stroke-miterlimit="10"/>
<path d="M630.832 561.58L569.377 564.537" stroke="black" stroke-width="2" stroke-miterlimit="10"/>
<path d="M570.672 581.916L631.609 564.538" stroke="black" stroke-width="2" stroke-miterlimit="10"/>
<path d="M609.957 579.081L632.905 567.988" stroke="black" stroke-width="2" stroke-miterlimit="10"/>
<path d="M615.145 615.686C615.404 616.302 620.071 632.448 625.387 631.462C630.703 630.476 623.572 608.538 623.572 608.538L649.502 601.143" stroke="black" stroke-width="2" stroke-miterlimit="10"/>
<path d="M630.833 586.6C630.833 586.6 617.867 590.297 620.331 596.213C622.405 601.143 634.593 595.597 634.593 595.597" stroke="black" stroke-width="2" stroke-miterlimit="10"/>
<path d="M644.962 614.454C644.962 614.454 631.996 618.152 634.46 624.067C636.534 628.997 648.722 623.451 648.722 623.451" stroke="black" stroke-width="2" stroke-miterlimit="10"/>
<path d="M605.159 608.167C610.888 608.167 615.532 603.753 615.532 598.307C615.532 592.862 610.888 588.447 605.159 588.447C599.431 588.447 594.787 592.862 594.787 598.307C594.787 603.753 599.431 608.167 605.159 608.167Z" fill="#D88532" stroke="black" stroke-width="2" stroke-miterlimit="10"/>
<path d="M653 545.928C653 545.928 700.064 538.286 709.529 574.029C718.993 609.771 679.449 623.698 679.449 623.698" fill="#D88532"/>
<path d="M653 545.928C653 545.928 700.064 538.286 709.529 574.029C718.993 609.771 679.449 623.698 679.449 623.698" stroke="black" stroke-width="2" stroke-miterlimit="10"/>
<path d="M681.397 627.15L662.727 633.189C660.393 633.928 657.93 632.819 657.022 630.724C646.002 605.581 636.667 580.191 629.536 554.556C628.887 552.337 630.184 549.995 632.518 549.256L651.188 543.217C653.392 542.477 655.985 543.586 656.892 545.682C668.691 571.317 677.766 596.707 684.379 621.973C685.027 624.192 683.73 626.41 681.397 627.15Z" fill="#D88532" stroke="black" stroke-width="2" stroke-miterlimit="10"/>
<path d="M630.83 559.36L659.224 551.226" stroke="black" stroke-width="2" stroke-miterlimit="10"/>
<path d="M634.592 568.604L662.986 560.469" stroke="black" stroke-width="2" stroke-miterlimit="10"/>
<path d="M636.797 578.342L666.876 569.592" stroke="black" stroke-width="2" stroke-miterlimit="10"/>
<path d="M640.035 588.078L670.633 578.834" stroke="black" stroke-width="2" stroke-miterlimit="10"/>
<path d="M644.316 596.705L673.488 588.324" stroke="black" stroke-width="2" stroke-miterlimit="10"/>
<path d="M647.814 606.566L676.208 598.309" stroke="black" stroke-width="2" stroke-miterlimit="10"/>
<path d="M651.057 615.565L679.451 607.431" stroke="black" stroke-width="2" stroke-miterlimit="10"/>
<path d="M654.816 624.807L683.21 616.673" stroke="black" stroke-width="2" stroke-miterlimit="10"/>
<path d="M607.364 601.021C607.364 601.021 597.899 619.508 610.087 633.435" stroke="black" stroke-width="2" stroke-miterlimit="10"/>
<path d="M697.471 1103.51H553.168L553.687 1101.79L557.187 1089.83L560.688 1077.75L561.206 1076.15V1076.03L565.226 1062.47L569.893 1046.82V1046.69L574.431 1031.04L579.098 1015.27L583.766 999.49L587.656 986.302L588.433 983.714L592.971 967.938L593.231 967.075L593.36 966.829L625.384 857.876L632.645 882.526V882.649L649.111 938.851L649.241 939.098L653.908 954.874L658.446 970.649L660.002 975.703L663.113 986.179V986.425L667.781 1002.2L672.448 1017.98L674.393 1024.51L676.338 1031.53L679.839 1043.49L683.469 1055.57L686.84 1067.03L686.969 1067.52L687.618 1069.99L690.47 1079.48L692.674 1087.12L693.971 1091.56L697.471 1103.51Z" fill="#A4B635" stroke="black" stroke-width="2" stroke-miterlimit="10"/>
<path d="M625.385 857.876V983.221V989.26V1019.95V1023.4V1037.08V1050.76V1064.32V1076.15V1078V1089.22V1091.56V1102.9V1103.51" stroke="black" stroke-width="2" stroke-miterlimit="10"/>
<path d="M368.022 1096.98L369.838 1103.51H216.199L218.922 1093.9L222.423 1081.94L226.053 1069.86L229.553 1057.91L233.054 1045.95L236.555 1033.87L239.796 1023.15L240.185 1021.55L244.852 1005.77L249.52 989.998L254.187 974.222L263.393 942.67L268.06 926.894L268.32 926.031L292.954 841.852L308.123 893.247L311.235 903.846L317.458 924.922L320.31 934.782L323.552 945.874L323.681 946.121L324.459 948.832L328.738 963.252L329.775 966.95L333.016 977.796L335.869 987.902L337.165 992.339L341.444 1006.88L342.222 1009.47L342.87 1011.57L343.648 1014.15L345.204 1019.58L348.445 1030.67L348.964 1032.27L350.39 1037.33L351.686 1041.76L354.928 1052.73L355.965 1056.18V1056.31L358.169 1063.82L361.281 1074.3L361.41 1074.79V1074.92L362.058 1076.77L364.781 1085.89L368.022 1096.98Z" fill="#A4B635" stroke="black" stroke-width="2" stroke-miterlimit="10"/>
<path d="M292.955 841.852V944.518V949.941V968.059V986.67V1004.42V1010.09V1010.7V1011.57V1024.38V1027.59V1034.61V1037.94V1047.19V1050.27V1051.62V1059.76V1065.3V1072.21V1078.86V1084.78V1092.54V1097.35V1103.51" stroke="black" stroke-width="2" stroke-miterlimit="10"/>
<path d="M405.886 1103.51H380.993H371.528H369.843H353.766H343.653H333.41H320.445H306.313H299.441H292.959H278.567H277.4L277.53 1103.02L278.697 1099.2L280.771 1091.68L283.235 1083.42L284.142 1080.71L287.384 1069.62L287.902 1067.64L290.625 1058.52L292.57 1051.87L292.959 1050.27L293.866 1047.55L297.108 1036.46L297.237 1036.09L298.923 1030.18L300.349 1025.49L303.59 1014.4L304.368 1011.57L304.887 1009.96L306.832 1003.31L309.425 994.31L310.073 992.338L313.314 981.246L314.222 977.918L316.555 970.277L319.019 961.896L319.797 959.184L323.038 948.092L323.686 946.12V945.997L326.279 937.123L328.354 929.974L329.521 926.03L332.762 914.938L333.021 913.952L336.003 903.968L337.819 897.929L339.245 892.876L342.486 881.907L343.653 878.086L347.024 866.747L347.154 866.008L351.821 849.985L356.618 833.963L361.286 817.94L365.953 802.041L370.621 786.019L371.528 783.061L372.695 786.881L378.789 807.957L385.012 828.909L386.309 833.593L390.069 846.041L394.736 862.064L396.81 869.212L399.404 878.086L401.608 885.234L404.201 893.985L407.053 903.722L408.868 910.008L412.369 922.209L413.536 926.03L417.814 940.697L418.203 942.053L423 957.952L423.26 959.184L427.668 973.974L428.705 977.672L432.335 989.997L434.15 996.159L435.188 999.857L435.836 1001.83L437.132 1006.39L438.559 1011.07L438.688 1011.57L442.708 1025.12L446.856 1039.17L451.005 1053.35L455.024 1067.4L457.877 1076.76L465.656 1103.51H416.518H408.738" fill="#A4B635"/>
<path d="M405.886 1103.51H380.993H371.528H369.843H353.766H343.653H333.41H320.445H306.313H299.441H292.959H278.567H277.4L277.53 1103.02L278.697 1099.2L280.771 1091.68L283.235 1083.42L284.142 1080.71L287.384 1069.62L287.902 1067.64L290.625 1058.52L292.57 1051.87L292.959 1050.27L293.866 1047.55L297.108 1036.46L297.237 1036.09L298.923 1030.18L300.349 1025.49L303.59 1014.4L304.368 1011.57L304.887 1009.96L306.832 1003.31L309.425 994.31L310.073 992.338L313.314 981.246L314.222 977.918L316.555 970.277L319.019 961.896L319.797 959.184L323.038 948.092L323.686 946.12V945.997L326.279 937.123L328.354 929.974L329.521 926.03L332.762 914.938L333.021 913.952L336.003 903.968L337.819 897.929L339.245 892.876L342.486 881.907L343.653 878.086L347.024 866.747L347.154 866.008L351.821 849.985L356.618 833.963L361.286 817.94L365.953 802.041L370.621 786.019L371.528 783.061L372.695 786.881L378.789 807.957L385.012 828.909L386.309 833.593L390.069 846.041L394.736 862.064L396.81 869.212L399.404 878.086L401.608 885.234L404.201 893.985L407.053 903.722L408.868 910.008L412.369 922.209L413.536 926.03L417.814 940.697L418.203 942.053L423 957.952L423.26 959.184L427.668 973.974L428.705 977.672L432.335 989.997L434.15 996.159L435.188 999.857L435.836 1001.83L437.132 1006.39L438.559 1011.07L438.688 1011.57L442.708 1025.12L446.856 1039.17L451.005 1053.35L455.024 1067.4L457.877 1076.76L465.656 1103.51H416.518H408.739" stroke="black" stroke-width="2" stroke-miterlimit="10"/>
<path d="M371.529 1103.51V1095.25V1082.8V1076.76V1070.23V1063.45V1057.66V1047.06V1045.09V1032.52V1031.16V1020.07V1015.14V1011.57V1007.5V1004.42V999.117V994.927V986.176V983.218V982.355V969.907V968.058V967.195V957.336V955.487V950.31V949.941V931.7V913.582V895.341V877.223V859.106V840.865V822.747V804.506V786.388V783.061" stroke="black" stroke-width="2" stroke-miterlimit="10"/>
<path d="M168.191 1103.51H143.298H133.833H132.148H116.071H105.958H95.7152H82.7499H68.6178H61.7462H55.2635H40.8721L40.0957 1102.19L40.4183 1101.11L41.0017 1099.2L43.0762 1091.68L45.5396 1083.42L46.4472 1080.71L49.6885 1069.62L50.2071 1067.64L52.9298 1058.52L54.8746 1051.87L55.2635 1050.27L56.1711 1047.55L59.4124 1036.46L59.5421 1036.09L61.2276 1030.18L62.6537 1025.49L65.8951 1014.4L66.673 1011.57L67.1916 1009.96L69.1364 1003.31L71.7294 994.31L72.3777 992.338L75.619 981.246L76.5266 977.918L78.8603 970.277L81.3237 961.896L82.1017 959.184L85.343 948.092L85.9912 946.12V945.997L88.5843 937.123L90.6587 929.974L91.8256 926.03L95.0669 914.938L95.3262 913.952L98.3082 903.968L100.123 897.929L101.55 892.876L104.791 881.907L105.958 878.086L109.329 866.747L109.458 866.008L114.126 849.985L118.923 833.963L123.591 817.94L128.258 802.041L132.925 786.019L133.833 783.061L135 786.881L141.094 807.957L147.317 828.909L148.613 833.593L152.373 846.041L157.041 862.064L159.115 869.212L161.708 878.086L163.912 885.234L166.506 893.985L169.358 903.722L171.173 910.008L174.674 922.209L175.841 926.03L180.119 940.697L180.508 942.053L185.305 957.952L185.564 959.184L189.973 973.974L191.01 977.672L194.64 989.997L196.455 996.159L197.493 999.857L198.141 1001.83L199.437 1006.39L200.863 1011.07L200.993 1011.57L205.012 1025.12L209.161 1039.17L213.31 1053.35L217.329 1067.4L220.182 1076.76L227.961 1103.51H178.823H171.043" fill="#A4B635"/>
<path d="M168.191 1103.51H143.298H133.833H132.148H116.071H105.958H95.7152H82.7499H68.6178H61.7462H55.2635H40.8721L40.0957 1102.19L40.4183 1101.11L41.0017 1099.2L43.0762 1091.68L45.5396 1083.42L46.4472 1080.71L49.6885 1069.62L50.2071 1067.64L52.9298 1058.52L54.8746 1051.87L55.2635 1050.27L56.1711 1047.55L59.4124 1036.46L59.5421 1036.09L61.2276 1030.18L62.6537 1025.49L65.8951 1014.4L66.673 1011.57L67.1916 1009.96L69.1364 1003.31L71.7294 994.31L72.3777 992.338L75.619 981.246L76.5266 977.918L78.8603 970.277L81.3237 961.896L82.1016 959.184L85.343 948.092L85.9912 946.12V945.997L88.5843 937.123L90.6587 929.974L91.8256 926.03L95.0669 914.938L95.3262 913.952L98.3082 903.968L100.123 897.929L101.55 892.876L104.791 881.907L105.958 878.086L109.329 866.747L109.458 866.008L114.126 849.985L118.923 833.963L123.591 817.94L128.258 802.041L132.925 786.019L133.833 783.061L135 786.881L141.094 807.957L147.317 828.909L148.613 833.593L152.373 846.041L157.041 862.064L159.115 869.212L161.708 878.086L163.912 885.234L166.506 893.985L169.358 903.722L171.173 910.008L174.674 922.209L175.841 926.03L180.119 940.697L180.508 942.053L185.305 957.952L185.564 959.184L189.973 973.974L191.01 977.672L194.64 989.997L196.455 996.159L197.493 999.857L198.141 1001.83L199.437 1006.39L200.863 1011.07L200.993 1011.57L205.012 1025.12L209.161 1039.17L213.31 1053.35L217.329 1067.4L220.182 1076.76L227.961 1103.51H178.823H171.043" stroke="black" stroke-width="2" stroke-miterlimit="10"/>
<path d="M133.834 1103.51V1095.25V1082.8V1076.76V1070.23V1063.45V1057.66V1047.06V1045.09V1032.52V1031.16V1020.07V1015.14V1011.57V1007.5V1004.42V999.117V994.927V986.176V983.218V982.355V969.907V968.058V967.195V957.336V955.487V950.31V949.941V931.7V913.582V895.341V877.223V859.106V840.865V822.747V804.506V786.388V783.061" stroke="black" stroke-width="2" stroke-miterlimit="10"/>
<path d="M280.084 1103.38H81.3262L84.9564 1090.81H85.0861L93.2542 1062.71L97.4031 1048.66L101.552 1034.61L105.701 1020.56L109.85 1006.51L113.999 992.46L118.148 978.41L122.167 964.36L126.316 950.309L130.465 936.259L134.613 922.085L138.762 908.034L142.911 893.984L147.06 879.934L151.079 865.883L155.228 851.833L159.377 837.782L163.526 823.732L167.675 809.681L171.824 795.631L180.64 765.312L189.586 795.631L193.735 809.681L197.884 823.732L202.033 837.782L206.182 851.833L210.331 865.883L214.35 879.934L218.499 893.984L222.648 908.034L226.796 922.085L230.945 936.259L235.094 950.309L239.243 964.36L243.262 978.41L247.411 992.46L251.56 1006.51L255.709 1020.56L259.858 1034.61L264.007 1048.66L268.156 1062.71L276.324 1090.81H276.453L280.084 1103.38Z" fill="#A4B635" stroke="black" stroke-width="2" stroke-miterlimit="10"/>
<path d="M180.641 1103.51V765.312" stroke="black" stroke-width="2" stroke-miterlimit="10"/>
<path d="M93.2539 1062.71L180.64 1103.14L268.155 1062.71" stroke="black" stroke-width="2" stroke-miterlimit="10"/>
<path d="M271.917 1077.38L215.389 1103.39" stroke="black" stroke-width="2" stroke-miterlimit="10"/>
<path d="M146.025 1103.39L89.4961 1077.38" stroke="black" stroke-width="2" stroke-miterlimit="10"/>
<path d="M276.454 1090.81H276.325L249.098 1103.38" stroke="black" stroke-width="2" stroke-miterlimit="10"/>
<path d="M112.312 1103.38L85.0847 1090.81H84.9551" stroke="black" stroke-width="2" stroke-miterlimit="10"/>
<path d="M97.4043 1048.66L180.641 1087.12L264.008 1048.66" stroke="black" stroke-width="2" stroke-miterlimit="10"/>
<path d="M101.551 1034.61L180.639 1071.22L259.857 1034.61" stroke="black" stroke-width="2" stroke-miterlimit="10"/>
<path d="M105.699 1020.56L180.638 1055.19L255.707 1020.56" stroke="black" stroke-width="2" stroke-miterlimit="10"/>
<path d="M109.85 1006.51L180.64 1039.29L251.56 1006.51" stroke="black" stroke-width="2" stroke-miterlimit="10"/>
<path d="M114 992.46L180.641 1023.27L247.413 992.46" stroke="black" stroke-width="2" stroke-miterlimit="10"/>
<path d="M118.148 978.41L180.641 1007.37L243.263 978.41" stroke="black" stroke-width="2" stroke-miterlimit="10"/>
<path d="M122.168 964.358L180.641 991.35L239.244 964.358" stroke="black" stroke-width="2" stroke-miterlimit="10"/>
<path d="M126.318 950.31L180.643 975.33L235.097 950.31" stroke="black" stroke-width="2" stroke-miterlimit="10"/>
<path d="M130.465 936.258L180.64 959.429L230.946 936.258" stroke="black" stroke-width="2" stroke-miterlimit="10"/>
<path d="M134.613 922.086L180.64 943.409L226.796 922.086" stroke="black" stroke-width="2" stroke-miterlimit="10"/>
<path d="M138.762 908.034L180.64 927.508L222.647 908.034" stroke="black" stroke-width="2" stroke-miterlimit="10"/>
<path d="M142.91 893.985L180.639 911.486L218.498 893.985" stroke="black" stroke-width="2" stroke-miterlimit="10"/>
<path d="M147.061 879.935L180.641 895.587L214.35 879.935" stroke="black" stroke-width="2" stroke-miterlimit="10"/>
<path d="M151.08 865.881L180.641 879.561L210.331 865.881" stroke="black" stroke-width="2" stroke-miterlimit="10"/>
<path d="M155.229 851.833L180.64 863.542L206.182 851.833" stroke="black" stroke-width="2" stroke-miterlimit="10"/>
<path d="M159.379 837.782L180.642 847.643L202.035 837.782" stroke="black" stroke-width="2" stroke-miterlimit="10"/>
<path d="M163.527 823.731L180.641 831.619L197.885 823.731" stroke="black" stroke-width="2" stroke-miterlimit="10"/>
<path d="M167.676 809.683L180.641 815.72L193.736 809.683" stroke="black" stroke-width="2" stroke-miterlimit="10"/>
<path d="M171.824 795.629L180.641 799.695L189.587 795.629" stroke="black" stroke-width="2" stroke-miterlimit="10"/>
<path d="M879.373 661.408L765.538 1048.78H879.373H993.208L879.373 661.408Z" fill="#A4B635" stroke="black" stroke-width="2" stroke-miterlimit="10"/>
<path d="M879.373 661.408V1048.78" stroke="black" stroke-width="2" stroke-miterlimit="10"/>
<path d="M534.629 1076.76H335.871L339.501 1064.19H339.631L347.799 1036.09L351.948 1022.04L356.097 1007.99L360.246 993.941L364.395 979.891L368.544 965.84L372.692 951.79L376.712 937.739L380.861 923.689L385.009 909.638L389.158 895.465L393.307 881.414L397.456 867.364L401.605 853.313L405.624 839.263L409.773 825.213L413.922 811.162L418.071 797.112L422.22 783.061L426.369 769.011L435.185 738.691L444.131 769.011L448.28 783.061L452.429 797.112L456.578 811.162L460.727 825.213L464.875 839.263L468.895 853.313L473.044 867.364L477.192 881.414L481.341 895.465L485.49 909.638L489.639 923.689L493.788 937.739L497.807 951.79L501.956 965.84L506.105 979.891L510.254 993.941L514.403 1007.99L518.552 1022.04L522.701 1036.09L530.869 1064.19H530.998L534.629 1076.76Z" fill="#A4B635" stroke="black" stroke-width="2" stroke-miterlimit="10"/>
<path d="M435.186 1076.89V738.691" stroke="black" stroke-width="2" stroke-miterlimit="10"/>
<path d="M347.801 1036.09L435.187 1076.52L522.702 1036.09" stroke="black" stroke-width="2" stroke-miterlimit="10"/>
<path d="M526.462 1050.76L469.934 1076.77" stroke="black" stroke-width="2" stroke-miterlimit="10"/>
<path d="M400.568 1076.77L344.039 1050.76" stroke="black" stroke-width="2" stroke-miterlimit="10"/>
<path d="M530.999 1064.19H530.87L503.643 1076.77" stroke="black" stroke-width="2" stroke-miterlimit="10"/>
<path d="M366.857 1076.77L339.63 1064.19H339.5" stroke="black" stroke-width="2" stroke-miterlimit="10"/>
<path d="M351.947 1022.04L435.184 1060.5L518.551 1022.04" stroke="black" stroke-width="2" stroke-miterlimit="10"/>
<path d="M356.096 1007.99L435.184 1044.6L514.402 1007.99" stroke="black" stroke-width="2" stroke-miterlimit="10"/>
<path d="M360.244 993.941L435.183 1028.57L510.252 993.941" stroke="black" stroke-width="2" stroke-miterlimit="10"/>
<path d="M364.395 979.894L435.185 1012.68L506.105 979.894" stroke="black" stroke-width="2" stroke-miterlimit="10"/>
<path d="M368.545 965.84L435.186 996.652L501.957 965.84" stroke="black" stroke-width="2" stroke-miterlimit="10"/>
<path d="M372.691 951.792L435.184 980.756L497.806 951.792" stroke="black" stroke-width="2" stroke-miterlimit="10"/>
<path d="M376.711 937.74L435.184 964.732L493.787 937.74" stroke="black" stroke-width="2" stroke-miterlimit="10"/>
<path d="M380.861 923.689L435.186 948.709L489.64 923.689" stroke="black" stroke-width="2" stroke-miterlimit="10"/>
<path d="M385.008 909.641L435.183 932.812L485.489 909.641" stroke="black" stroke-width="2" stroke-miterlimit="10"/>
<path d="M389.156 895.468L435.183 916.79L481.339 895.468" stroke="black" stroke-width="2" stroke-miterlimit="10"/>
<path d="M393.307 881.414L435.184 900.887L477.192 881.414" stroke="black" stroke-width="2" stroke-miterlimit="10"/>
<path d="M397.455 867.365L435.184 884.867L473.043 867.365" stroke="black" stroke-width="2" stroke-miterlimit="10"/>
<path d="M401.604 853.313L435.184 868.966L468.893 853.313" stroke="black" stroke-width="2" stroke-miterlimit="10"/>
<path d="M405.625 839.263L435.186 852.943L464.876 839.263" stroke="black" stroke-width="2" stroke-miterlimit="10"/>
<path d="M409.773 825.213L435.185 836.921L460.727 825.213" stroke="black" stroke-width="2" stroke-miterlimit="10"/>
<path d="M413.922 811.162L435.185 821.021L456.578 811.162" stroke="black" stroke-width="2" stroke-miterlimit="10"/>
<path d="M418.072 797.111L435.186 805L452.43 797.111" stroke="black" stroke-width="2" stroke-miterlimit="10"/>
<path d="M422.221 783.062L435.186 789.101L448.281 783.062" stroke="black" stroke-width="2" stroke-miterlimit="10"/>
<path d="M426.369 769.011L435.186 773.077L444.132 769.011" stroke="black" stroke-width="2" stroke-miterlimit="10"/>
<path d="M633.421 1103.51H488.988L490.155 1099.69L493.656 1087.61L496.897 1076.77L497.156 1075.66L500.657 1063.7L501.046 1062.47L504.287 1051.75L506.621 1043.49L507.788 1039.67L511.289 1027.71L512.066 1025L514.789 1015.76L515.697 1012.55L518.29 1003.68L521.92 991.724L525.421 979.769L527.365 972.99L528.921 967.691L529.181 966.951L532.422 955.735L535.923 943.78L538.386 935.276L539.423 931.702L543.053 919.746L546.554 907.791L550.055 895.713L553.555 883.757L561.205 857.875L568.854 883.757L572.355 895.713L575.856 907.791L579.356 919.746L582.857 931.702L586.357 943.78L589.988 955.735L593.229 966.828V967.074L593.488 967.691L596.989 979.769L599.193 987.164L600.49 991.724L603.99 1003.68L607.62 1015.76L611.121 1027.71L614.622 1039.67L617.085 1048.05L618.122 1051.75L621.364 1062.47L621.623 1063.7L625.253 1075.66L625.383 1076.15L625.901 1078.25L628.754 1087.61L630.569 1094.02L632.254 1099.69L633.421 1103.51Z" fill="#A4B635" stroke="black" stroke-width="2" stroke-miterlimit="10"/>
<path d="M561.205 1103.51V1091.68V1078V1076.15V1075.9V1064.32V1050.76V1037.08V1023.52V1009.84V996.284V984.206V982.604V969.046V955.366V948.34V941.808V928.127V914.447V900.889V887.208V857.875" stroke="black" stroke-width="2" stroke-miterlimit="10"/>
<path d="M632.255 1099.69L625.383 1102.89L623.957 1103.51" stroke="black" stroke-width="2" stroke-miterlimit="10"/>
<path d="M498.454 1103.51L490.156 1099.69" stroke="black" stroke-width="2" stroke-miterlimit="10"/>
<path d="M527.885 1103.51L493.656 1087.61" stroke="black" stroke-width="2" stroke-miterlimit="10"/>
<path d="M594.527 1103.51L601.788 1100.06L608.011 1097.22L622.792 1090.44L625.385 1089.21L628.756 1087.61" stroke="black" stroke-width="2" stroke-miterlimit="10"/>
<path d="M497.156 1075.66L499.62 1076.77L553.685 1101.79L557.315 1103.51" stroke="black" stroke-width="2" stroke-miterlimit="10"/>
<path d="M625.253 1075.66L622.79 1076.77L608.01 1083.54L606.454 1084.41L568.725 1101.79L564.965 1103.51" stroke="black" stroke-width="2" stroke-miterlimit="10"/>
<path d="M500.658 1063.7L561.206 1091.68L621.624 1063.7" stroke="black" stroke-width="2" stroke-miterlimit="10"/>
<path d="M504.287 1051.74L561.205 1078L618.122 1051.74" stroke="black" stroke-width="2" stroke-miterlimit="10"/>
<path d="M507.789 1039.67L561.206 1064.32L614.623 1039.67" stroke="black" stroke-width="2" stroke-miterlimit="10"/>
<path d="M511.289 1027.71L561.205 1050.76L611.122 1027.71" stroke="black" stroke-width="2" stroke-miterlimit="10"/>
<path d="M514.789 1015.75L561.205 1037.08L607.62 1015.75" stroke="black" stroke-width="2" stroke-miterlimit="10"/>
<path d="M518.289 1003.68L561.204 1023.52L603.989 1003.68" stroke="black" stroke-width="2" stroke-miterlimit="10"/>
<path d="M521.922 991.725L561.207 1009.84L600.491 991.725" stroke="black" stroke-width="2" stroke-miterlimit="10"/>
<path d="M525.422 979.77L561.206 996.285L596.99 979.77" stroke="black" stroke-width="2" stroke-miterlimit="10"/>
<path d="M528.922 967.689L561.205 982.603L593.489 967.689" stroke="black" stroke-width="2" stroke-miterlimit="10"/>
<path d="M532.422 955.734L561.205 969.045L589.988 955.734" stroke="black" stroke-width="2" stroke-miterlimit="10"/>
<path d="M535.924 943.778L561.206 955.364L586.359 943.778" stroke="black" stroke-width="2" stroke-miterlimit="10"/>
<path d="M539.555 931.7L561.207 941.806L582.859 931.7" stroke="black" stroke-width="2" stroke-miterlimit="10"/>
<path d="M543.053 919.745L561.204 928.126L579.355 919.745" stroke="black" stroke-width="2" stroke-miterlimit="10"/>
<path d="M546.555 907.789L561.205 914.568L575.856 907.789" stroke="black" stroke-width="2" stroke-miterlimit="10"/>
<path d="M550.053 895.712L561.203 900.887L572.353 895.712" stroke="black" stroke-width="2" stroke-miterlimit="10"/>
<path d="M553.555 883.758L561.204 887.208L568.854 883.758" stroke="black" stroke-width="2" stroke-miterlimit="10"/>
<path d="M747.908 1103.51H600.752L601.789 1100.06L603.345 1095L606.457 1084.4L606.846 1083.05L610.346 1070.97L610.995 1068.63L613.847 1059.01L615.662 1052.85L617.088 1048.05L617.347 1047.06L620.978 1034.98L624.478 1023.03L625.386 1019.94L627.979 1011.07L631.48 998.992L634.98 987.037L635.24 986.42L635.888 984.079L638.481 975.081L642.111 963.003L645.612 951.048L649.112 939.092V938.846L652.613 927.014L656.114 915.059L659.744 903.104L663.245 891.025L666.745 879.07L673.876 854.666L674.395 853.188L681.914 879.07L685.415 891.025L689.045 903.104L692.546 915.059L696.047 927.014L699.547 939.092L703.048 951.048L706.548 963.003L709.53 972.986V973.109L710.179 975.081L711.994 981.367L712.901 984.325L713.29 985.804L713.679 987.037L715.624 993.692L717.18 998.992L718.865 1004.91L720.681 1010.95V1011.07L720.94 1011.56L724.181 1023.03L725.737 1028.08L727.811 1034.98L730.793 1045.33L731.312 1047.06L734.813 1059.01L735.85 1062.47L738.313 1070.97L740.906 1079.72L741.814 1083.05L745.444 1095L745.963 1096.85L747.908 1103.51Z" fill="#A4B635" stroke="black" stroke-width="2" stroke-miterlimit="10"/>
<path d="M674.395 853.188V882.644V896.202V909.882V923.44V937.121V950.678V964.359V977.916V987.037V991.597V1005.28V1018.84V1024.5V1032.52V1046.07V1059.75V1073.31V1086.99V1100.55V1103.51" stroke="black" stroke-width="2" stroke-miterlimit="10"/>
<path d="M727.034 1103.51L727.553 1103.26L743.63 1095.74L745.445 1095" stroke="black" stroke-width="2" stroke-miterlimit="10"/>
<path d="M621.627 1103.51L608.013 1097.22L603.346 1095" stroke="black" stroke-width="2" stroke-miterlimit="10"/>
<path d="M606.846 1083.05L608.013 1083.54L622.793 1090.44L625.386 1091.55L630.572 1094.02L651.187 1103.51" stroke="black" stroke-width="2" stroke-miterlimit="10"/>
<path d="M741.814 1083.05L728.978 1088.96L712.772 1096.48L697.602 1103.51H697.473" stroke="black" stroke-width="2" stroke-miterlimit="10"/>
<path d="M610.348 1070.97L674.396 1100.55L738.315 1070.97" stroke="black" stroke-width="2" stroke-miterlimit="10"/>
<path d="M613.848 1059.02L674.395 1087L734.814 1059.02" stroke="black" stroke-width="2" stroke-miterlimit="10"/>
<path d="M617.346 1047.06L674.393 1073.31L731.31 1047.06" stroke="black" stroke-width="2" stroke-miterlimit="10"/>
<path d="M620.977 1034.98L674.393 1059.75L727.81 1034.98" stroke="black" stroke-width="2" stroke-miterlimit="10"/>
<path d="M624.479 1023.03L674.395 1046.07L724.181 1023.03" stroke="black" stroke-width="2" stroke-miterlimit="10"/>
<path d="M627.98 1011.07L674.396 1032.51L720.682 1011.07" stroke="black" stroke-width="2" stroke-miterlimit="10"/>
<path d="M631.48 998.992L674.395 1018.83L717.181 998.992" stroke="black" stroke-width="2" stroke-miterlimit="10"/>
<path d="M634.98 987.039L674.395 1005.28L713.68 987.039" stroke="black" stroke-width="2" stroke-miterlimit="10"/>
<path d="M638.479 975.082L674.392 991.597L710.176 975.082" stroke="black" stroke-width="2" stroke-miterlimit="10"/>
<path d="M642.111 963.004L674.395 977.917L706.678 963.004" stroke="black" stroke-width="2" stroke-miterlimit="10"/>
<path d="M645.609 951.049L674.392 964.361L703.045 951.049" stroke="black" stroke-width="2" stroke-miterlimit="10"/>
<path d="M649.111 939.094L674.394 950.68L699.546 939.094" stroke="black" stroke-width="2" stroke-miterlimit="10"/>
<path d="M652.613 927.016L674.395 937.122L696.047 927.016" stroke="black" stroke-width="2" stroke-miterlimit="10"/>
<path d="M656.113 915.058L674.394 923.439L692.546 915.058" stroke="black" stroke-width="2" stroke-miterlimit="10"/>
<path d="M659.744 903.104L674.395 909.883L689.046 903.104" stroke="black" stroke-width="2" stroke-miterlimit="10"/>
<path d="M663.246 891.026L674.396 896.203L685.417 891.026" stroke="black" stroke-width="2" stroke-miterlimit="10"/>
<path d="M666.746 879.073L674.396 882.646L681.915 879.073" stroke="black" stroke-width="2" stroke-miterlimit="10"/>
<path d="M318.368 1096.61L320.443 1103.51H159.025L165.119 1082.68L168.749 1070.6L172.25 1058.65L175.751 1046.69L179.251 1034.61L182.752 1022.66L186.382 1010.7L189.883 998.626L193.383 986.671L196.884 974.715L200.385 962.637L203.885 950.682L207.515 938.727L211.016 926.771L214.517 914.693L218.017 902.738L221.518 890.659L225.148 878.704L228.649 866.749L232.149 854.794L239.799 828.911L247.319 854.794L250.819 866.749L254.45 878.704L257.95 890.659L261.451 902.738L264.952 914.693L268.323 926.032L268.452 926.771L272.082 938.727L275.583 950.682L279.084 962.637L282.584 974.715L283.362 977.304L285.048 982.973L286.085 986.671L289.715 998.626L291.012 1003.56L292.957 1010.09L293.216 1010.7L293.475 1011.57L295.55 1018.84L296.716 1022.66L297.105 1024.02L298.921 1030.18L300.217 1034.61L301.384 1038.44L303.718 1046.69L305.663 1052.98L307.348 1058.65L309.941 1067.52L310.849 1070.6L314.09 1082.07L314.349 1082.68L318.368 1096.61Z" fill="#A4B635" stroke="black" stroke-width="2" stroke-miterlimit="10"/>
<path d="M239.799 828.911V858.245V871.925V885.483V899.163V912.721V926.402V939.959V953.64V967.197V980.878V994.435V1008.12V1021.8V1023.15V1035.35V1049.03V1062.59V1076.27V1089.83V1103.51" stroke="black" stroke-width="2" stroke-miterlimit="10"/>
<path d="M314.352 1082.68L301.386 1088.6L292.959 1092.54L287.773 1094.89L278.697 1099.2L273.9 1101.29L270.918 1102.65L269.232 1103.51" stroke="black" stroke-width="2" stroke-miterlimit="10"/>
<path d="M210.238 1103.51L165.119 1082.68" stroke="black" stroke-width="2" stroke-miterlimit="10"/>
<path d="M299.439 1103.51L302.81 1101.91L316.424 1095.62L317.591 1095.13" stroke="black" stroke-width="2" stroke-miterlimit="10"/>
<path d="M180.159 1103.51L162.008 1095.13" stroke="black" stroke-width="2" stroke-miterlimit="10"/>
<path d="M168.748 1070.6L239.798 1103.51L310.847 1070.6" stroke="black" stroke-width="2" stroke-miterlimit="10"/>
<path d="M172.25 1058.65L239.799 1089.83L307.348 1058.65" stroke="black" stroke-width="2" stroke-miterlimit="10"/>
<path d="M175.75 1046.69L239.798 1076.27L303.717 1046.69" stroke="black" stroke-width="2" stroke-miterlimit="10"/>
<path d="M179.25 1034.61L239.798 1062.59L300.216 1034.61" stroke="black" stroke-width="2" stroke-miterlimit="10"/>
<path d="M182.752 1022.66L239.799 1049.04L296.717 1022.66" stroke="black" stroke-width="2" stroke-miterlimit="10"/>
<path d="M186.383 1010.7L239.8 1035.35L293.217 1010.7" stroke="black" stroke-width="2" stroke-miterlimit="10"/>
<path d="M189.883 998.625L239.799 1021.8L289.715 998.625" stroke="black" stroke-width="2" stroke-miterlimit="10"/>
<path d="M193.383 986.669L239.798 1008.11L286.084 986.669" stroke="black" stroke-width="2" stroke-miterlimit="10"/>
<path d="M196.885 974.714L239.8 994.434L282.585 974.714" stroke="black" stroke-width="2" stroke-miterlimit="10"/>
<path d="M200.385 962.638L239.799 980.878L279.084 962.638" stroke="black" stroke-width="2" stroke-miterlimit="10"/>
<path d="M204.016 950.683L239.8 967.198L275.584 950.683" stroke="black" stroke-width="2" stroke-miterlimit="10"/>
<path d="M207.516 938.727L239.799 953.64L272.083 938.727" stroke="black" stroke-width="2" stroke-miterlimit="10"/>
<path d="M211.016 926.772L239.799 939.96L268.452 926.772" stroke="black" stroke-width="2" stroke-miterlimit="10"/>
<path d="M214.518 914.691L239.8 926.4L264.952 914.691" stroke="black" stroke-width="2" stroke-miterlimit="10"/>
<path d="M218.018 902.737L239.799 912.72L261.451 902.737" stroke="black" stroke-width="2" stroke-miterlimit="10"/>
<path d="M221.518 890.781L239.799 899.162L257.95 890.781" stroke="black" stroke-width="2" stroke-miterlimit="10"/>
<path d="M225.15 878.706L239.801 885.485L254.452 878.706" stroke="black" stroke-width="2" stroke-miterlimit="10"/>
<path d="M228.648 866.748L239.799 871.923L250.819 866.748" stroke="black" stroke-width="2" stroke-miterlimit="10"/>
<path d="M232.15 854.793L239.8 858.244L247.32 854.793" stroke="black" stroke-width="2" stroke-miterlimit="10"/>
<path d="M804.696 1103.51H790.953L793.287 1095.62L797.825 1080.09L798.343 1078.37L802.881 1062.71L803.4 1061.23L807.03 1048.79L808.067 1045.33L808.456 1043.98L809.493 1040.16L813.124 1027.83L817.921 1011.56L818.31 1010.46L819.088 1007.62L823.366 993.077L825.311 986.545L828.552 975.699L831.405 965.592L833.609 958.197L837.628 944.517L838.795 940.819L843.851 923.564V923.441L848.908 906.063L849.945 902.488L854.094 888.684L856.168 881.536L859.15 871.183L862.392 860.46L864.336 853.805L868.485 839.508L869.393 836.427L871.078 830.634L874.579 819.048L879.376 802.41L879.635 801.67L884.692 784.292L889.878 766.79L894.935 749.412L900.121 731.911L905.955 711.944L917.105 749.412L922.162 766.79L927.218 784.292L932.404 801.67L937.461 819.048L942.647 836.427L947.703 853.805L952.889 871.183L957.946 888.684L963.002 906.063L967.281 920.36L968.188 923.441L973.245 940.819L978.431 958.197L983.487 975.699L988.673 993.077L992.952 1007.74L993.211 1008.85L993.73 1010.46L998.916 1027.83L1003.97 1045.33L1009.16 1062.71L1014.21 1080.09L1021.09 1103.51H1007.34H993.211H964.817H963.521H920.735H913.475H905.955H891.175H848.519H828.163H808.327" fill="#A4B635"/>
<path d="M804.696 1103.51H790.953L793.287 1095.62L797.825 1080.09L798.343 1078.37L802.881 1062.71L803.4 1061.23L807.03 1048.79L808.067 1045.33L808.456 1043.98L809.493 1040.16L813.124 1027.83L817.921 1011.56L818.31 1010.46L819.088 1007.62L823.366 993.077L825.311 986.545L828.552 975.699L831.405 965.592L833.609 958.197L837.628 944.517L838.795 940.819L843.851 923.564V923.441L848.908 906.063L849.945 902.488L854.094 888.684L856.168 881.536L859.15 871.183L862.392 860.46L864.336 853.805L868.485 839.508L869.393 836.427L871.078 830.634L874.579 819.048L879.376 802.41L879.635 801.67L884.692 784.292L889.878 766.79L894.935 749.412L900.121 731.911L905.955 711.944L917.105 749.412L922.162 766.79L927.218 784.292L932.404 801.67L937.461 819.048L942.647 836.427L947.703 853.805L952.889 871.183L957.946 888.684L963.002 906.063L967.281 920.36L968.188 923.441L973.245 940.819L978.431 958.197L983.487 975.699L988.673 993.077L992.952 1007.74L993.211 1008.85L993.73 1010.46L998.916 1027.83L1003.97 1045.33L1009.16 1062.71L1014.21 1080.09L1021.09 1103.51H1007.34H993.211H964.817H963.521H920.735H913.475H905.955H891.175H848.519H828.163H808.327" stroke="black" stroke-width="2" stroke-miterlimit="10"/>
<path d="M905.956 1103.51V1090.57V1070.72V1051V1048.79V1031.28V1011.56V1011.44V1003.8V991.721V986.052V972.001V967.441V952.158V949.323V932.438V912.595V892.875V873.155V853.312V833.592V813.872V794.029V774.309V754.465V751.877V711.944" stroke="black" stroke-width="2" stroke-miterlimit="10"/>
<path d="M797.823 1080.09L812.344 1086.75L824.921 1092.66L848.517 1103.51" stroke="black" stroke-width="2" stroke-miterlimit="10"/>
<path d="M963.52 1103.51L964.946 1102.89L993.21 1089.83L1014.21 1080.09" stroke="black" stroke-width="2" stroke-miterlimit="10"/>
<path d="M1018.88 1098.21L1007.34 1103.51" stroke="black" stroke-width="2" stroke-miterlimit="10"/>
<path d="M804.696 1103.51L793.157 1098.21" stroke="black" stroke-width="2" stroke-miterlimit="10"/>
<path d="M1009.16 1062.71L993.211 1069.98L971.689 1079.97L920.735 1103.51" stroke="black" stroke-width="2" stroke-miterlimit="10"/>
<path d="M891.175 1103.51L818.181 1069.74L817.662 1069.49L802.882 1062.71" stroke="black" stroke-width="2" stroke-miterlimit="10"/>
<path d="M808.068 1045.33L905.956 1090.57L1003.97 1045.33" stroke="black" stroke-width="2" stroke-miterlimit="10"/>
<path d="M813.123 1027.83L905.954 1070.85L998.915 1027.83" stroke="black" stroke-width="2" stroke-miterlimit="10"/>
<path d="M818.309 1010.45L905.954 1051L993.729 1010.45" stroke="black" stroke-width="2" stroke-miterlimit="10"/>
<path d="M823.367 993.076L905.956 1031.28L988.674 993.076" stroke="black" stroke-width="2" stroke-miterlimit="10"/>
<path d="M828.553 975.698L905.955 1011.44L983.488 975.698" stroke="black" stroke-width="2" stroke-miterlimit="10"/>
<path d="M833.609 958.196L905.956 991.72L978.431 958.196" stroke="black" stroke-width="2" stroke-miterlimit="10"/>
<path d="M838.796 940.821L905.956 972.003L973.246 940.821" stroke="black" stroke-width="2" stroke-miterlimit="10"/>
<path d="M843.852 923.442L905.955 952.159L968.188 923.442" stroke="black" stroke-width="2" stroke-miterlimit="10"/>
<path d="M848.908 906.062L905.955 932.438L963.132 906.062" stroke="black" stroke-width="2" stroke-miterlimit="10"/>
<path d="M854.095 888.686L905.956 912.719L957.946 888.686" stroke="black" stroke-width="2" stroke-miterlimit="10"/>
<path d="M859.151 871.185L905.956 892.876L952.89 871.185" stroke="black" stroke-width="2" stroke-miterlimit="10"/>
<path d="M864.337 853.804L905.955 873.154L947.704 853.804" stroke="black" stroke-width="2" stroke-miterlimit="10"/>
<path d="M869.395 836.427L905.957 853.312L942.648 836.427" stroke="black" stroke-width="2" stroke-miterlimit="10"/>
<path d="M874.578 819.05L905.954 833.593L937.46 819.05" stroke="black" stroke-width="2" stroke-miterlimit="10"/>
<path d="M879.636 801.671L905.955 813.873L932.404 801.671" stroke="black" stroke-width="2" stroke-miterlimit="10"/>
<path d="M884.691 784.293L905.954 794.03L927.217 784.293" stroke="black" stroke-width="2" stroke-miterlimit="10"/>
<path d="M889.879 766.791L905.956 774.309L922.162 766.791" stroke="black" stroke-width="2" stroke-miterlimit="10"/>
<path d="M894.935 749.413L905.955 754.466L917.105 749.413" stroke="black" stroke-width="2" stroke-miterlimit="10"/>
<path d="M697.471 1103.51H695.915H676.078L677.375 1099.2L678.542 1095.38L682.042 1083.42L682.301 1082.31L686.191 1069.25L686.71 1067.64L686.839 1067.03L690.081 1056.18L691.247 1051.87L693.841 1043.12L695.915 1036.09L697.73 1030.05L700.582 1020.32L701.62 1016.87L703.176 1011.57L705.12 1004.54L705.38 1003.8L706.806 999.241L709.269 990.737L709.788 988.765L710.306 987.04L711.344 983.589L711.992 981.37L713.029 977.673L716.141 967.32L716.919 964.608L720.808 951.544V951.297L724.568 938.479L725.605 935.275L728.458 925.415L730.273 919.252L732.347 912.227L734.94 903.353L736.107 899.163L739.608 887.331L739.997 886.098L743.886 873.034L744.405 871.308L749.073 855.286L750.628 850.109L752.184 844.81L756.203 858.614L760.482 873.034L762.297 879.689L764.242 886.098L768.132 899.163L768.52 900.642L771.891 912.227L774.744 921.717L775.781 925.415L779.671 938.479L780.837 942.67L783.43 951.544L787.061 963.745L787.32 964.608L788.876 969.661L791.21 977.673L793.284 984.698L794.97 990.737L798.859 1003.8L799.378 1005.77L801.193 1011.57L802.749 1016.87L806.509 1030.05L809.491 1040.16L810.398 1043.12L811.565 1046.94L812.084 1048.79L814.288 1056.18L818.048 1069.25L818.177 1069.74L821.937 1082.31L824.919 1092.66L825.827 1095.38L828.161 1103.51H808.324" fill="#A4B635"/>
<path d="M697.471 1103.51H695.915H676.078L677.375 1099.2L678.542 1095.38L682.042 1083.42L682.301 1082.31L686.191 1069.25L686.71 1067.64L686.839 1067.03L690.081 1056.18L691.247 1051.87L693.841 1043.12L695.915 1036.09L697.73 1030.05L700.582 1020.32L701.62 1016.87L703.176 1011.57L705.12 1004.54L705.38 1003.8L706.806 999.241L709.269 990.737L709.788 988.765L710.306 987.04L711.344 983.589L711.992 981.37L713.029 977.673L716.141 967.32L716.919 964.608L720.808 951.544V951.297L724.568 938.479L725.605 935.275L728.458 925.415L730.273 919.252L732.347 912.227L734.94 903.353L736.107 899.163L739.608 887.331L739.997 886.098L743.886 873.034L744.405 871.308L749.073 855.286L750.628 850.109L752.184 844.81L756.203 858.614L760.482 873.034L762.297 879.689L764.242 886.098L768.132 899.163L768.52 900.642L771.891 912.227L774.744 921.717L775.781 925.415L779.671 938.479L780.837 942.67L783.43 951.544L787.061 963.745L787.32 964.608L788.876 969.661L791.21 977.673L793.284 984.698L794.97 990.737L798.859 1003.8L799.378 1005.77L801.193 1011.57L802.749 1016.87L806.509 1030.05L809.491 1040.16L810.398 1043.12L811.565 1046.94L812.084 1048.79L814.288 1056.18L818.048 1069.25L818.177 1069.74L821.937 1082.31L824.919 1092.66L825.827 1095.38L828.161 1103.51H808.324" stroke="black" stroke-width="2" stroke-miterlimit="10"/>
<path d="M804.694 1103.51H790.951H776.171H752.185H747.907H728.07H727.032H697.601H697.472" stroke="black" stroke-width="2" stroke-miterlimit="10"/>
<path d="M752.186 1103.51V1099.69V1084.9V1069.99V1055.2V1040.28V1025.49V1011.57V1010.58V1002.45V995.667V983.958V980.877V965.964V965.717V951.174V947.6V936.261V929.359V921.471V911.241V906.558V893.123V891.768V876.854V874.882V856.765V844.81" stroke="black" stroke-width="2" stroke-miterlimit="10"/>
<path d="M825.826 1095.38L808.323 1103.51" stroke="black" stroke-width="2" stroke-miterlimit="10"/>
<path d="M695.914 1103.51L682.042 1096.98L678.541 1095.38" stroke="black" stroke-width="2" stroke-miterlimit="10"/>
<path d="M682.301 1082.31L683.338 1082.81L692.673 1087.12L698.118 1089.58L712.769 1096.49L727.55 1103.26L728.068 1103.51" stroke="black" stroke-width="2" stroke-miterlimit="10"/>
<path d="M776.172 1103.51L793.286 1095.62L812.345 1086.75L821.939 1082.31" stroke="black" stroke-width="2" stroke-miterlimit="10"/>
<path d="M686.191 1069.25L752.185 1099.69L818.048 1069.25" stroke="black" stroke-width="2" stroke-miterlimit="10"/>
<path d="M690.08 1056.18L752.184 1084.9L814.287 1056.18" stroke="black" stroke-width="2" stroke-miterlimit="10"/>
<path d="M693.841 1043.12L752.185 1069.99L810.399 1043.12" stroke="black" stroke-width="2" stroke-miterlimit="10"/>
<path d="M697.73 1030.05L752.185 1055.2L806.509 1030.05" stroke="black" stroke-width="2" stroke-miterlimit="10"/>
<path d="M701.619 1016.99L752.184 1040.29L802.748 1016.99" stroke="black" stroke-width="2" stroke-miterlimit="10"/>
<path d="M705.379 1003.8L752.183 1025.5L798.858 1003.8" stroke="black" stroke-width="2" stroke-miterlimit="10"/>
<path d="M709.269 990.738L752.184 1010.58L794.969 990.738" stroke="black" stroke-width="2" stroke-miterlimit="10"/>
<path d="M713.029 977.674L752.184 995.791L791.21 977.674" stroke="black" stroke-width="2" stroke-miterlimit="10"/>
<path d="M716.918 964.61L752.183 980.879L787.319 964.61" stroke="black" stroke-width="2" stroke-miterlimit="10"/>
<path d="M720.809 951.544L752.184 965.964L783.431 951.544" stroke="black" stroke-width="2" stroke-miterlimit="10"/>
<path d="M724.568 938.479L752.184 951.174L779.671 938.479" stroke="black" stroke-width="2" stroke-miterlimit="10"/>
<path d="M728.458 925.416L752.184 936.262L775.781 925.416" stroke="black" stroke-width="2" stroke-miterlimit="10"/>
<path d="M732.35 912.229L752.186 921.473L771.894 912.229" stroke="black" stroke-width="2" stroke-miterlimit="10"/>
<path d="M736.107 899.164L752.184 906.559L768.132 899.164" stroke="black" stroke-width="2" stroke-miterlimit="10"/>
<path d="M739.996 886.097L752.183 891.766L764.241 886.097" stroke="black" stroke-width="2" stroke-miterlimit="10"/>
<path d="M743.888 873.035L752.185 876.855L760.483 873.035" stroke="black" stroke-width="2" stroke-miterlimit="10"/>
<path d="M1096.09 1103.51H1094.37H1072.48L1073.91 1098.75L1075.19 1094.53L1079.06 1081.33L1079.35 1080.11L1083.64 1065.69L1084.21 1063.92L1084.35 1063.24L1087.93 1051.26L1089.22 1046.5L1092.08 1036.84L1094.37 1029.09L1096.38 1022.42L1099.53 1011.67L1100.67 1007.86L1102.39 1002.01L1104.54 994.257L1104.82 993.44L1106.4 988.406L1109.12 979.019L1109.69 976.842L1110.26 974.937L1111.41 971.127L1112.12 968.678L1113.27 964.597L1116.7 953.168L1117.56 950.175L1121.85 935.753V935.481L1126 921.331L1127.15 917.794L1130.3 906.91L1132.3 900.107L1134.59 892.352L1137.45 882.556L1138.74 877.93L1142.61 864.869L1143.04 863.508L1147.33 849.086L1147.9 847.181L1153.05 829.494L1154.77 823.78L1156.49 817.93L1160.93 833.168L1165.65 849.086L1167.65 856.433L1169.8 863.508L1174.09 877.93L1174.52 879.563L1178.24 892.352L1181.39 902.828L1182.54 906.91L1186.83 921.331L1188.12 925.957L1190.98 935.753L1194.99 949.223L1195.28 950.175L1196.99 955.753L1199.57 964.597L1201.86 972.352L1203.72 979.019L1208.01 993.44L1208.59 995.617L1210.59 1002.01L1212.31 1007.86L1216.46 1022.42L1219.75 1033.58L1220.75 1036.84L1222.04 1041.06L1222.61 1043.1L1225.04 1051.26L1229.2 1065.69L1229.34 1066.23L1233.49 1080.11L1236.78 1091.54L1237.78 1094.53L1239.68 1101.37L1218.46 1103.51" fill="#A4B635"/>
<path d="M1096.09 1103.51H1094.37H1072.48L1073.91 1098.75L1075.19 1094.53L1079.06 1081.33L1079.35 1080.11L1083.64 1065.69L1084.21 1063.92L1084.35 1063.24L1087.93 1051.26L1089.22 1046.5L1092.08 1036.84L1094.37 1029.09L1096.38 1022.42L1099.53 1011.67L1100.67 1007.86L1102.39 1002.01L1104.54 994.257L1104.82 993.44L1106.4 988.406L1109.12 979.019L1109.69 976.842L1110.26 974.937L1111.41 971.127L1112.12 968.678L1113.27 964.597L1116.7 953.168L1117.56 950.175L1121.85 935.753V935.481L1126 921.331L1127.15 917.794L1130.3 906.91L1132.3 900.107L1134.59 892.352L1137.45 882.556L1138.74 877.93L1142.61 864.869L1143.04 863.508L1147.33 849.086L1147.9 847.181L1153.05 829.494L1154.77 823.78L1156.49 817.93L1160.93 833.168L1165.65 849.086L1167.65 856.433L1169.8 863.508L1174.09 877.93L1174.52 879.563L1178.24 892.352L1181.39 902.828L1182.54 906.91L1186.83 921.331L1188.12 925.957L1190.98 935.753L1194.99 949.223L1195.28 950.175L1196.99 955.753L1199.57 964.597L1201.86 972.352L1203.72 979.019L1208.01 993.44L1208.59 995.617L1210.59 1002.01L1212.31 1007.86L1216.46 1022.42L1219.75 1033.58L1220.75 1036.84L1222.04 1041.06L1222.61 1043.1L1225.04 1051.26L1229.2 1065.69L1229.34 1066.23L1233.49 1080.11L1236.78 1091.54L1237.78 1094.53L1239.68 1101.37L1218.46 1103.51" stroke="black" stroke-width="2" stroke-miterlimit="10"/>
<path d="M1220.06 1103.51H1204.17H1187.08H1159.35H1154.4H1131.47H1130.27H1096.24H1096.09" stroke="black" stroke-width="2" stroke-miterlimit="10"/>
<path d="M1156.49 1103.51V1099.29V1082.96V1066.5V1050.18V1033.71V1017.39V1002.01V1000.92V991.944V984.461V971.536V968.134V951.672V951.399V935.345V931.399V918.882V911.263V902.556V891.263V886.093V871.263V869.767V853.304V851.127V831.127V817.93" stroke="black" stroke-width="2" stroke-miterlimit="10"/>
<path d="M1237.78 1094.53L1218.46 1103.51" stroke="black" stroke-width="2" stroke-miterlimit="10"/>
<path d="M1094.37 1103.51L1079.06 1096.3L1075.2 1094.53" stroke="black" stroke-width="2" stroke-miterlimit="10"/>
<path d="M1079.34 1080.11L1080.49 1080.65L1090.79 1085.41L1096.81 1088.13L1112.98 1095.75L1129.29 1103.24L1129.87 1103.51" stroke="black" stroke-width="2" stroke-miterlimit="10"/>
<path d="M1182.97 1103.51L1201.86 1094.8L1222.9 1085.01L1233.49 1080.11" stroke="black" stroke-width="2" stroke-miterlimit="10"/>
<path d="M1083.64 1065.69L1156.49 1099.29L1229.2 1065.69" stroke="black" stroke-width="2" stroke-miterlimit="10"/>
<path d="M1087.93 1051.27L1156.49 1082.97L1225.04 1051.27" stroke="black" stroke-width="2" stroke-miterlimit="10"/>
<path d="M1092.08 1036.84L1156.49 1066.5L1220.75 1036.84" stroke="black" stroke-width="2" stroke-miterlimit="10"/>
<path d="M1096.38 1022.42L1156.49 1050.18L1216.46 1022.42" stroke="black" stroke-width="2" stroke-miterlimit="10"/>
<path d="M1100.67 1008L1156.49 1033.71L1212.31 1008" stroke="black" stroke-width="2" stroke-miterlimit="10"/>
<path d="M1104.82 993.442L1156.49 1017.39L1208.01 993.442" stroke="black" stroke-width="2" stroke-miterlimit="10"/>
<path d="M1109.12 979.021L1156.49 1000.92L1203.72 979.021" stroke="black" stroke-width="2" stroke-miterlimit="10"/>
<path d="M1113.27 964.597L1156.49 984.597L1199.57 964.597" stroke="black" stroke-width="2" stroke-miterlimit="10"/>
<path d="M1117.56 950.179L1156.49 968.138L1195.27 950.179" stroke="black" stroke-width="2" stroke-miterlimit="10"/>
<path d="M1121.85 935.755L1156.49 951.673L1190.98 935.755" stroke="black" stroke-width="2" stroke-miterlimit="10"/>
<path d="M1126 921.332L1156.49 935.345L1186.83 921.332" stroke="black" stroke-width="2" stroke-miterlimit="10"/>
<path d="M1130.3 906.912L1156.49 918.885L1182.54 906.912" stroke="black" stroke-width="2" stroke-miterlimit="10"/>
<path d="M1134.59 892.353L1156.49 902.557L1178.25 892.353" stroke="black" stroke-width="2" stroke-miterlimit="10"/>
<path d="M1138.74 877.931L1156.49 886.094L1174.09 877.931" stroke="black" stroke-width="2" stroke-miterlimit="10"/>
<path d="M1143.03 863.508L1156.49 869.765L1169.8 863.508" stroke="black" stroke-width="2" stroke-miterlimit="10"/>
<path d="M1147.33 849.09L1156.49 853.308L1165.65 849.09" stroke="black" stroke-width="2" stroke-miterlimit="10"/>
<path d="M405.884 1103.51H380.991H371.526H369.841H353.764H343.651H333.408H320.443H306.311H299.439H292.957H278.565H277.398H270.656L270.916 1102.65L274.935 1088.97L275.583 1087L278.176 1078L280.251 1071.22L281.417 1066.91L284.659 1055.81L284.788 1055.44L287.9 1044.84L289.456 1039.67L291.141 1033.75L292.957 1027.59L294.123 1023.89L294.383 1022.78L295.55 1018.84L297.624 1011.69L297.754 1011.57L299.05 1007.13L300.865 1000.6L303.588 991.6L304.107 989.628L307.348 978.536L308.385 975.208L310.589 967.567L313.053 959.186L313.96 956.474L317.202 945.382L317.85 943.163L320.313 934.782L320.443 934.412L322.517 927.264L323.684 923.32L326.925 912.228L327.185 911.242L330.167 901.258L331.852 895.219L333.408 890.166L336.649 879.197L341.317 863.297L343.651 855.286L346.633 865.762L347.022 866.748L350.652 879.197L352.856 886.715L353.893 890.166L357.135 901.258L359.079 907.791L360.376 912.228L363.617 923.32L365.173 928.743L366.859 934.412L370.1 945.382L371.396 949.819L371.526 950.312L372.304 952.9L373.341 956.474L376.582 967.567L377.231 969.908L377.62 970.894L379.824 978.536L382.676 988.396L383.065 989.628L383.713 991.847L386.306 1000.6V1000.84L388.122 1006.88L389.029 1009.96L389.548 1011.57V1011.69L392.789 1022.78L393.567 1025.37L396.03 1033.75L399.012 1043.86L399.272 1044.84L402.513 1055.81L404.458 1062.35L405.754 1066.91L408.736 1076.77L408.996 1078L411.2 1085.39L412.237 1088.97L416.515 1103.51H408.736" fill="#A4B635"/>
<path d="M405.884 1103.51H380.991H371.526H369.841H353.764H343.651H333.408H320.443H306.311H299.439H292.957H278.565H277.398H270.656L270.916 1102.65L274.935 1088.97L275.583 1087L278.176 1078L280.251 1071.22L281.417 1066.91L284.659 1055.81L284.788 1055.44L287.9 1044.84L289.456 1039.67L291.141 1033.75L292.957 1027.59L294.123 1023.89L294.383 1022.78L295.55 1018.84L297.624 1011.69L297.754 1011.57L299.05 1007.13L300.865 1000.6L303.588 991.6L304.107 989.628L307.348 978.536L308.385 975.208L310.589 967.567L313.053 959.186L313.96 956.474L317.202 945.382L317.85 943.163L320.313 934.782L320.443 934.412L322.517 927.264L323.684 923.32L326.925 912.228L327.185 911.242L330.167 901.258L331.852 895.219L333.408 890.166L336.649 879.197L341.317 863.297L343.651 855.286L346.633 865.762L347.022 866.748L350.652 879.197L352.856 886.715L353.893 890.166L357.135 901.258L359.079 907.791L360.376 912.228L363.617 923.32L365.173 928.743L366.859 934.412L370.1 945.382L371.396 949.819L371.526 950.312L372.304 952.9L373.341 956.474L376.582 967.567L377.231 969.908L377.62 970.894L379.824 978.536L382.676 988.396L383.065 989.628L383.713 991.847L386.306 1000.6V1000.84L388.122 1006.88L389.029 1009.96L389.548 1011.57V1011.69L392.789 1022.78L393.567 1025.37L396.03 1033.75L399.012 1043.86L399.272 1044.84L402.513 1055.81L404.458 1062.35L405.754 1066.91L408.736 1076.77L408.996 1078L411.2 1085.39L412.237 1088.97L416.515 1103.51H408.736" stroke="black" stroke-width="2" stroke-miterlimit="10"/>
<path d="M343.65 855.286V864.283V878.087V882.401V882.524V894.973V900.642V907.421V918.76V919.992V932.564V937.001V945.135V955.118V957.707V970.155V973.359V982.726V991.477V995.298V1007.87V1010.09V1011.57V1014.16V1020.32V1032.89V1045.46V1050.39V1058.03V1066.17V1070.6V1076.77V1083.05V1095.62V1103.51" stroke="black" stroke-width="2" stroke-miterlimit="10"/>
<path d="M380.99 1103.51L409.773 1090.2L412.237 1088.97" stroke="black" stroke-width="2" stroke-miterlimit="10"/>
<path d="M306.31 1103.51L302.809 1101.91L292.955 1097.35L287.769 1094.88L280.768 1091.68L274.934 1088.97" stroke="black" stroke-width="2" stroke-miterlimit="10"/>
<path d="M415.219 1100.43L408.736 1103.51" stroke="black" stroke-width="2" stroke-miterlimit="10"/>
<path d="M271.953 1100.43L273.898 1101.29L277.528 1103.02L278.565 1103.51" stroke="black" stroke-width="2" stroke-miterlimit="10"/>
<path d="M408.996 1078L371.526 1095.25L368.025 1096.98L353.764 1103.51" stroke="black" stroke-width="2" stroke-miterlimit="10"/>
<path d="M333.408 1103.51L318.368 1096.61L316.423 1095.62L301.384 1088.6L292.956 1084.78L286.603 1081.82L284.14 1080.71L278.176 1078" stroke="black" stroke-width="2" stroke-miterlimit="10"/>
<path d="M281.418 1066.91L343.651 1095.62L405.755 1066.91" stroke="black" stroke-width="2" stroke-miterlimit="10"/>
<path d="M284.656 1055.81L343.648 1083.05L402.511 1055.81" stroke="black" stroke-width="2" stroke-miterlimit="10"/>
<path d="M287.9 1044.84L343.651 1070.6L399.272 1044.84" stroke="black" stroke-width="2" stroke-miterlimit="10"/>
<path d="M291.141 1033.75L343.65 1058.03L396.03 1033.75" stroke="black" stroke-width="2" stroke-miterlimit="10"/>
<path d="M294.383 1022.78L343.651 1045.46L392.789 1022.78" stroke="black" stroke-width="2" stroke-miterlimit="10"/>
<path d="M297.623 1011.69L343.65 1032.89L389.547 1011.69" stroke="black" stroke-width="2" stroke-miterlimit="10"/>
<path d="M300.865 1000.6L343.651 1020.32L386.306 1000.6" stroke="black" stroke-width="2" stroke-miterlimit="10"/>
<path d="M304.107 989.629L343.651 1007.87L383.066 989.629" stroke="black" stroke-width="2" stroke-miterlimit="10"/>
<path d="M307.348 978.535L343.65 995.297L379.823 978.535" stroke="black" stroke-width="2" stroke-miterlimit="10"/>
<path d="M310.59 967.565L343.651 982.726L376.583 967.565" stroke="black" stroke-width="2" stroke-miterlimit="10"/>
<path d="M313.961 956.474L343.651 970.155L373.342 956.474" stroke="black" stroke-width="2" stroke-miterlimit="10"/>
<path d="M317.201 945.381L343.65 957.705L370.099 945.381" stroke="black" stroke-width="2" stroke-miterlimit="10"/>
<path d="M320.443 934.409L343.651 945.132L366.859 934.409" stroke="black" stroke-width="2" stroke-miterlimit="10"/>
<path d="M323.684 923.32L343.65 932.564L363.617 923.32" stroke="black" stroke-width="2" stroke-miterlimit="10"/>
<path d="M326.926 912.227L343.651 919.991L360.376 912.227" stroke="black" stroke-width="2" stroke-miterlimit="10"/>
<path d="M330.168 901.257L343.652 907.419L357.136 901.257" stroke="black" stroke-width="2" stroke-miterlimit="10"/>
<path d="M333.408 890.165L343.651 894.97L353.893 890.165" stroke="black" stroke-width="2" stroke-miterlimit="10"/>
<path d="M336.65 879.198L343.652 882.403L350.653 879.198" stroke="black" stroke-width="2" stroke-miterlimit="10"/>
<path d="M569.245 1103.51H405.883L409.772 1090.2L411.199 1085.39L413.792 1076.76L416.385 1067.77L424.682 1039.66L428.831 1025.61L432.98 1011.56L434.017 1007.87L435.184 1003.68L435.833 1001.83L437.648 995.542L440.37 986.298L443.093 977.054L446.594 965.222L448.539 958.567L452.687 944.27L453.984 940.079L456.318 932.068L458.911 923.194L459.3 921.592L464.745 903.104L465.004 902.241L466.171 898.421L470.191 884.74L474.21 871.183L483.285 840.247L483.804 838.521L487.564 825.58L491.842 839.877L491.972 840.247L502.344 875.743L516.088 922.454L529.182 966.948L529.442 967.934L531.646 975.452L534.109 983.71L538.777 999.486L543.315 1015.26L547.982 1031.04L552.65 1046.81L557.187 1062.59L561.207 1075.9V1076.02L561.725 1077.75L565.226 1089.7L568.726 1101.78L569.245 1103.51Z" fill="#A4B635" stroke="black" stroke-width="2" stroke-miterlimit="10"/>
<path d="M487.564 825.58V839.261V840.247V916.785V924.55V940.572V950.186V956.471V971.385V972.494V983.093V988.393V1000.72V1004.42V1011.56V1020.44V1036.34V1052.36V1068.63V1076.76V1103.51" stroke="black" stroke-width="2" stroke-miterlimit="10"/>
<path d="M1113.26 1103.51H913.473L920.452 1079.75L928.891 1051.21V1051.05L933.598 1035.01L937.169 1022.51L945.608 993.811L954.048 965.269L962.487 936.572L970.927 908.029L973.524 899.235L979.367 879.332L980.827 874.241L1013.29 763.464L1045.42 872.852L1074.64 972.057L1113.26 1103.51Z" fill="#A4B635" stroke="black" stroke-width="2" stroke-miterlimit="10"/>
<path d="M1013.29 763.464V982.24V985.017V987.331V1012.02V1035.01V1036.86V1061.54V1086.38V1103.51" stroke="black" stroke-width="2" stroke-miterlimit="10"/>
<path d="M1162.46 1103.51H988.675L988.82 1102.82L996.389 1077.08L1003.96 1051.35L1006.72 1042.08L1011.53 1025.75L1013.71 1018.42L1019.1 1000.01L1020.26 996.002L1020.55 994.756L1049.37 896.657L1075.57 807.827L1162.46 1103.51Z" fill="#A4B635" stroke="black" stroke-width="2" stroke-miterlimit="10"/>
<path d="M1075.57 1103.51V985.625V807.827" stroke="black" stroke-width="2" stroke-miterlimit="10"/>
<path d="M803.941 1103.51H809.044" stroke="black" stroke-width="2" stroke-miterlimit="10"/>
<path d="M1098.2 776.033C1098.2 776.033 1096.39 774.22 1093.27 769.193C1090.15 764.166 1094.74 753.288 1094.74 753.288L1120.11 776.116" fill="#7ACADA"/>
<path d="M1098.2 776.033C1098.2 776.033 1096.39 774.22 1093.27 769.193C1090.15 764.166 1094.74 753.288 1094.74 753.288L1120.11 776.116" stroke="black" stroke-width="2" stroke-miterlimit="10"/>
<path d="M1092.32 766.146H1109.11" stroke="black" stroke-width="2" stroke-miterlimit="10" stroke-linecap="round" stroke-linejoin="round"/>
<path d="M1105.04 766.146C1104.87 766.146 1093.62 756.504 1093.62 756.504L1105.04 766.146Z" fill="#D0A021"/>
<path d="M1105.04 766.146C1104.87 766.146 1093.62 756.504 1093.62 756.504" stroke="black" stroke-width="2" stroke-miterlimit="10" stroke-linecap="round" stroke-linejoin="round"/>
<path d="M1099.5 766.145C1099.33 766.145 1092.75 760.46 1092.75 760.46L1099.5 766.145Z" fill="#D0A021"/>
<path d="M1099.5 766.145C1099.33 766.145 1092.75 760.46 1092.75 760.46" stroke="black" stroke-width="2" stroke-miterlimit="10" stroke-linecap="round" stroke-linejoin="round"/>
<path d="M1086.08 776.117C1085.91 776.529 1110.24 798.698 1125.65 783.452C1125.65 783.452 1131.19 782.38 1131.1 778.837C1131.01 775.293 1124.26 776.117 1114.13 776.117C1104 776.117 1086.08 776.117 1086.08 776.117Z" fill="#EA5727" stroke="black" stroke-width="2" stroke-miterlimit="10"/>
<path d="M1139.24 779.084L1131.1 778.837" stroke="black" stroke-width="2" stroke-miterlimit="10"/>
<path d="M1125.56 780.318C1125.04 780.318 1124.61 779.912 1124.61 779.412C1124.61 778.911 1125.04 778.506 1125.56 778.506C1126.09 778.506 1126.51 778.911 1126.51 779.412C1126.51 779.912 1126.09 780.318 1125.56 780.318Z" fill="black"/>
<path d="M252.704 773.725C252.704 773.725 254.522 771.912 257.639 766.885C260.755 761.858 256.167 750.979 256.167 750.979L230.801 773.807" fill="#FEBE9A"/>
<path d="M252.704 773.725C252.704 773.725 254.522 771.912 257.639 766.885C260.755 761.858 256.167 750.979 256.167 750.979L230.801 773.807" stroke="black" stroke-width="2" stroke-miterlimit="10"/>
<path d="M258.59 763.836H241.795" stroke="black" stroke-width="2" stroke-miterlimit="10" stroke-linecap="round" stroke-linejoin="round"/>
<path d="M245.863 763.836C246.036 763.836 257.291 754.194 257.291 754.194L245.863 763.836Z" fill="#D0A021"/>
<path d="M245.863 763.836C246.036 763.836 257.291 754.194 257.291 754.194" stroke="black" stroke-width="2" stroke-miterlimit="10" stroke-linecap="round" stroke-linejoin="round"/>
<path d="M251.406 763.836C251.579 763.836 258.159 758.15 258.159 758.15L251.406 763.836Z" fill="#D0A021"/>
<path d="M251.406 763.836C251.579 763.836 258.159 758.15 258.159 758.15" stroke="black" stroke-width="2" stroke-miterlimit="10" stroke-linecap="round" stroke-linejoin="round"/>
<path d="M264.824 773.807C264.997 774.219 240.67 796.387 225.26 781.141C225.26 781.141 219.719 780.07 219.806 776.526C219.892 772.983 226.645 773.807 236.774 773.807C246.903 773.807 264.824 773.807 264.824 773.807Z" fill="#D8D031" stroke="black" stroke-width="2" stroke-miterlimit="10"/>
<path d="M211.668 776.774L219.806 776.527" stroke="black" stroke-width="2" stroke-miterlimit="10"/>
<path d="M225.346 778.009C225.872 778.009 226.298 777.604 226.298 777.103C226.298 776.603 225.872 776.197 225.346 776.197C224.821 776.197 224.395 776.603 224.395 777.103C224.395 777.604 224.821 778.009 225.346 778.009Z" fill="black"/>
<path d="M1007.97 720.797C1007.97 720.797 1006.15 718.984 1003.04 713.957C999.919 708.93 1004.51 698.052 1004.51 698.052L1029.87 720.879" fill="#39B29C"/>
<path d="M1007.97 720.797C1007.97 720.797 1006.15 718.984 1003.04 713.957C999.919 708.93 1004.51 698.052 1004.51 698.052L1029.87 720.879" stroke="black" stroke-width="2" stroke-miterlimit="10"/>
<path d="M1002.08 710.906H1018.97" stroke="black" stroke-width="2" stroke-miterlimit="10" stroke-linecap="round" stroke-linejoin="round"/>
<path d="M1014.9 710.909C1014.72 710.909 1003.47 701.267 1003.47 701.267L1014.9 710.909Z" fill="#D0A021"/>
<path d="M1014.9 710.909C1014.72 710.909 1003.47 701.267 1003.47 701.267" stroke="black" stroke-width="2" stroke-miterlimit="10" stroke-linecap="round" stroke-linejoin="round"/>
<path d="M1009.36 710.906C1009.18 710.906 1002.6 705.22 1002.6 705.22L1009.36 710.906Z" fill="#D0A021"/>
<path d="M1009.36 710.906C1009.18 710.906 1002.6 705.22 1002.6 705.22" stroke="black" stroke-width="2" stroke-miterlimit="10" stroke-linecap="round" stroke-linejoin="round"/>
<path d="M995.936 720.879C995.763 721.291 1020.09 743.459 1035.5 728.213C1035.5 728.213 1041.04 727.142 1040.96 723.598C1040.87 720.055 1034.12 720.879 1023.99 720.879C1013.94 720.879 995.936 720.879 995.936 720.879Z" fill="#F9B233" stroke="black" stroke-width="2" stroke-miterlimit="10"/>
<path d="M1049.09 723.847L1040.96 723.601" stroke="black" stroke-width="2" stroke-miterlimit="10"/>
<path d="M1035.33 725.082C1035.85 725.082 1036.28 724.676 1036.28 724.176C1036.28 723.675 1035.85 723.27 1035.33 723.27C1034.8 723.27 1034.38 723.675 1034.38 724.176C1034.38 724.676 1034.8 725.082 1035.33 725.082Z" fill="black"/>
<g clip-path="url(#clip0_418_903)">
<path d="M738.541 647.097C738.541 647.097 730.903 650.054 733.983 659.541C737.063 669.027 753.449 667.672 753.449 667.672C753.449 667.672 748.028 643.278 738.541 647.097Z" fill="#EA5727" stroke="black" stroke-width="2" stroke-miterlimit="10"/>
<path d="M757.268 646.728C757.268 646.728 761.088 670.752 741.375 658.309L757.268 646.728Z" fill="#D88532" stroke="black" stroke-width="2" stroke-miterlimit="10"/>
<path d="M738.418 653.874C739.031 653.874 739.527 653.377 739.527 652.765C739.527 652.153 739.031 651.656 738.418 651.656C737.806 651.656 737.31 652.153 737.31 652.765C737.31 653.377 737.806 653.874 738.418 653.874Z" fill="black"/>
<path d="M726.591 655.229H733.737" stroke="black" stroke-width="2" stroke-miterlimit="10"/>
</g>
<g clip-path="url(#clip1_418_903)">
<path d="M870.457 602.199C870.457 602.199 890.786 568.441 927.007 590.618C927.007 590.618 951.771 554.519 983.927 557.106C1016.08 559.694 1039.12 590.741 1039.12 590.741C1039.12 590.741 1065.98 573.616 1085.94 602.199" fill="#ECECEC"/>
<path d="M870.457 602.199C870.457 602.199 890.786 568.441 927.007 590.618C927.007 590.618 951.771 554.519 983.927 557.106C1016.08 559.694 1039.12 590.741 1039.12 590.741C1039.12 590.741 1065.98 573.616 1085.94 602.199" stroke="black" stroke-width="2" stroke-miterlimit="10"/>
<path d="M846.433 602.198H1099.37" stroke="black" stroke-width="2" stroke-miterlimit="10"/>
</g>
<g clip-path="url(#clip2_418_903)">
<path d="M86.8848 674.265C86.8848 674.265 107.213 640.507 143.435 662.684C143.435 662.684 168.199 626.585 200.355 629.173C232.511 631.76 255.55 662.807 255.55 662.807C255.55 662.807 282.408 645.682 302.367 674.265" fill="#ECECEC"/>
<path d="M86.8848 674.265C86.8848 674.265 107.213 640.507 143.435 662.684C143.435 662.684 168.199 626.585 200.355 629.173C232.511 631.76 255.55 662.807 255.55 662.807C255.55 662.807 282.408 645.682 302.367 674.265" stroke="black" stroke-width="2" stroke-miterlimit="10"/>
<path d="M62.8594 674.265H315.796" stroke="black" stroke-width="2" stroke-miterlimit="10"/>
</g>
<g clip-path="url(#clip3_418_903)">
<path d="M351.531 595.206C351.531 595.206 387.999 551.469 432.106 590.155C432.106 590.155 450.833 582.393 458.595 595.206H342.414" fill="#DADADA"/>
<path d="M351.531 595.206C351.531 595.206 387.999 551.469 432.106 590.155C432.106 590.155 450.833 582.393 458.595 595.206H342.414" stroke="black" stroke-width="2" stroke-miterlimit="10"/>
<path d="M468.943 595.206H458.594" stroke="black" stroke-width="2" stroke-miterlimit="10"/>
</g>
<g clip-path="url(#clip4_418_903)">
<path d="M1068.47 710.352C1068.47 710.352 1118.18 650.814 1178.31 703.476C1178.31 703.476 1203.84 692.91 1214.42 710.352H1056.04" fill="#DADADA"/>
<path d="M1068.47 710.352C1068.47 710.352 1118.18 650.814 1178.31 703.476C1178.31 703.476 1203.84 692.91 1214.42 710.352H1056.04" stroke="black" stroke-width="2" stroke-miterlimit="10"/>
<path d="M1228.53 710.352H1214.42" stroke="black" stroke-width="2" stroke-miterlimit="10"/>
</g>
<path d="M40 1103.66V1162.66L55.2497 1152.61L79.1981 1178.66L109.053 1146.19L133.753 1173.05L164.897 1139.18L193.571 1170.37L232.984 1127.49L246.622 1142.21L264.664 1122.59L291.405 1151.68L315.676 1125.28L346.819 1159.15L374.097 1129.48L417.698 1176.91L440.358 1152.26L466.239 1180.41L488.899 1155.65L505.652 1137.42H534.219L544.636 1126.09L568.477 1152.03L585.122 1134.04L608.641 1159.62L650.632 1128.66L681.775 1147.82L696.703 1131.7L723.229 1160.55L742.13 1139.88L763.393 1163.01L781.328 1143.5L817.734 1183.1L854.784 1142.8L878.303 1168.38L910.95 1132.75L951.866 1177.26L978.822 1147.94L1011.04 1182.98L1048.2 1142.56L1078.59 1175.62L1104.47 1147.47L1149.15 1196.07L1160.85 1183.33L1171.16 1194.55L1197.9 1165.46L1212.94 1181.81L1229.15 1164.18L1240 1175.97V1103.66H40Z" fill="#604513" stroke="black" stroke-width="2" stroke-miterlimit="10"/>
<circle cx="1198.11" cy="1208.39" r="11.3203" fill="#8E6C2B" stroke="black" stroke-width="2"/>
<circle cx="1106.94" cy="1187.44" r="11.3203" fill="#8E6C2B" stroke="black" stroke-width="2"/>
<circle cx="978.81" cy="1186.21" r="11.3203" fill="#8E6C2B" stroke="black" stroke-width="2"/>
<circle cx="912.28" cy="1193.6" r="11.3203" fill="#8E6C2B" stroke="black" stroke-width="2"/>
<circle cx="615.332" cy="1182.55" r="11.3203" fill="#8E6C2B" stroke="black" stroke-width="2"/>
<circle cx="723.779" cy="1188.67" r="11.3203" fill="#8E6C2B" stroke="black" stroke-width="2"/>
<circle cx="775.524" cy="1200.99" r="11.3203" fill="#8E6C2B" stroke="black" stroke-width="2"/>
<circle cx="479.836" cy="1200.99" r="11.3203" fill="#8E6C2B" stroke="black" stroke-width="2"/>
<circle cx="313.512" cy="1166.5" r="11.3203" fill="#8E6C2B" stroke="black" stroke-width="2"/>
<circle cx="387.434" cy="1191.14" r="11.3203" fill="#8E6C2B" stroke="black" stroke-width="2"/>
<circle cx="210.021" cy="1199.76" r="11.3203" fill="#8E6C2B" stroke="black" stroke-width="2"/>
<circle cx="139.795" cy="1191.14" r="11.3203" fill="#8E6C2B" stroke="black" stroke-width="2"/>
<circle cx="75.7305" cy="1205.92" r="11.3203" fill="#8E6C2B" stroke="black" stroke-width="2"/>
<circle cx="48.9058" cy="1181.56" r="5.441" fill="#8E6C2B" stroke="black" stroke-width="2"/>
<circle cx="169.644" cy="1164.32" r="5.441" fill="#8E6C2B" stroke="black" stroke-width="2"/>
<circle cx="247.947" cy="1168.35" r="5.441" fill="#8E6C2B" stroke="black" stroke-width="2"/>
<circle cx="372.929" cy="1161.85" r="5.441" fill="#8E6C2B" stroke="black" stroke-width="2"/>
<circle cx="260.816" cy="1193.88" r="5.441" fill="#8E6C2B" stroke="black" stroke-width="2"/>
<circle cx="507.222" cy="1166.78" r="5.441" fill="#8E6C2B" stroke="black" stroke-width="2"/>
<circle cx="526.348" cy="1188.37" r="3.62323" fill="#8E6C2B" stroke="black" stroke-width="2"/>
<circle cx="347.154" cy="1187.48" r="3.62323" fill="#8E6C2B" stroke="black" stroke-width="2"/>
<circle cx="303.35" cy="1193.3" r="3.62323" fill="#8E6C2B" stroke="black" stroke-width="2"/>
<circle cx="329.223" cy="1213.01" r="3.62323" fill="#8E6C2B" stroke="black" stroke-width="2"/>
<circle cx="440.106" cy="1184.67" r="3.62323" fill="#8E6C2B" stroke="black" stroke-width="2"/>
<circle cx="214.42" cy="1165.95" r="3.62323" fill="#8E6C2B" stroke="black" stroke-width="2"/>
<circle cx="279.393" cy="1159.14" r="3.62323" fill="#8E6C2B" stroke="black" stroke-width="2"/>
<circle cx="118.545" cy="1220.4" r="3.62323" fill="#8E6C2B" stroke="black" stroke-width="2"/>
<circle cx="173.987" cy="1198.23" r="3.62323" fill="#8E6C2B" stroke="black" stroke-width="2"/>
<circle cx="101.297" cy="1184.67" r="3.62323" fill="#8E6C2B" stroke="black" stroke-width="2"/>
<circle cx="696.369" cy="1164.96" r="3.62323" fill="#8E6C2B" stroke="black" stroke-width="2"/>
<circle cx="718.546" cy="1214.24" r="3.62323" fill="#8E6C2B" stroke="black" stroke-width="2"/>
<circle cx="565.774" cy="1179.75" r="3.62323" fill="#8E6C2B" stroke="black" stroke-width="2"/>
<circle cx="611.36" cy="1211.78" r="3.62323" fill="#8E6C2B" stroke="black" stroke-width="2"/>
<circle cx="672.961" cy="1183.44" r="3.62323" fill="#8E6C2B" stroke="black" stroke-width="2"/>
<circle cx="950.168" cy="1200.69" r="3.62323" fill="#8E6C2B" stroke="black" stroke-width="2"/>
<circle cx="878.71" cy="1185.91" r="3.62323" fill="#8E6C2B" stroke="black" stroke-width="2"/>
<circle cx="900.886" cy="1166.19" r="3.62323" fill="#8E6C2B" stroke="black" stroke-width="2"/>
<circle cx="851.606" cy="1194.53" r="3.62323" fill="#8E6C2B" stroke="black" stroke-width="2"/>
<circle cx="797.396" cy="1184.67" r="3.62323" fill="#8E6C2B" stroke="black" stroke-width="2"/>
<circle cx="1036.41" cy="1198.23" r="3.62323" fill="#8E6C2B" stroke="black" stroke-width="2"/>
<circle cx="1067.21" cy="1187.14" r="3.62323" fill="#8E6C2B" stroke="black" stroke-width="2"/>
<circle cx="1079.53" cy="1208.08" r="3.62323" fill="#8E6C2B" stroke="black" stroke-width="2"/>
<circle cx="1114.03" cy="1215.47" r="3.62323" fill="#8E6C2B" stroke="black" stroke-width="2"/>
<circle cx="1052.43" cy="1210.55" r="3.62323" fill="#8E6C2B" stroke="black" stroke-width="2"/>
<circle cx="1229.84" cy="1220.4" r="3.62323" fill="#8E6C2B" stroke="black" stroke-width="2"/>
<circle cx="648.906" cy="1164.32" r="5.441" fill="#8E6C2B" stroke="black" stroke-width="2"/>
<circle cx="661.226" cy="1207.44" r="5.441" fill="#8E6C2B" stroke="black" stroke-width="2"/>
<circle cx="584.666" cy="1167.21" r="5.441" fill="#8E6C2B" stroke="black" stroke-width="2"/>
<circle cx="542.951" cy="1160.62" r="5.441" fill="#8E6C2B" stroke="black" stroke-width="2"/>
<circle cx="555.271" cy="1204.97" r="5.441" fill="#8E6C2B" stroke="black" stroke-width="2"/>
<circle cx="757.325" cy="1176.64" r="5.441" fill="#8E6C2B" stroke="black" stroke-width="2"/>
<circle cx="854.656" cy="1169.24" r="5.441" fill="#8E6C2B" stroke="black" stroke-width="2"/>
<circle cx="875.6" cy="1211.13" r="5.441" fill="#8E6C2B" stroke="black" stroke-width="2"/>
<circle cx="820.158" cy="1202.51" r="5.441" fill="#8E6C2B" stroke="black" stroke-width="2"/>
<circle cx="1008.62" cy="1210.55" r="5.441" fill="#8E6C2B" stroke="black" stroke-width="2"/>
<circle cx="932.957" cy="1170.82" r="5.441" fill="#8E6C2B" stroke="black" stroke-width="2"/>
<circle cx="1172.52" cy="1219.76" r="5.441" fill="#8E6C2B" stroke="black" stroke-width="2"/>
<circle cx="1226.73" cy="1193.88" r="5.441" fill="#8E6C2B" stroke="black" stroke-width="2"/>
<circle cx="1146.66" cy="1211.47" r="5.441" fill="#8E6C2B" stroke="black" stroke-width="2"/>
<circle cx="1047.54" cy="1173.28" r="5.441" fill="#8E6C2B" stroke="black" stroke-width="2"/>
<circle cx="417.966" cy="1201.62" r="5.441" fill="#8E6C2B" stroke="black" stroke-width="2"/>
<defs>
<clipPath id="clip0_418_903">
<rect width="32.156" height="24.3942" fill="white" transform="translate(726.591 644.51)"/>
</clipPath>
<clipPath id="clip1_418_903">
<rect width="252.936" height="47.6797" fill="white" transform="translate(846.433 555.751)"/>
</clipPath>
<clipPath id="clip2_418_903">
<rect width="252.936" height="47.6797" fill="white" transform="translate(62.8594 627.817)"/>
</clipPath>
<clipPath id="clip3_418_903">
<rect width="126.53" height="23.5318" fill="white" transform="translate(342.414 572.906)"/>
</clipPath>
<clipPath id="clip4_418_903">
<rect width="172.485" height="32.0328" fill="white" transform="translate(1056.04 679.996)"/>
</clipPath>
</defs>
</svg>
