<svg width="1280" height="1227" fill="none" xmlns="http://www.w3.org/2000/svg"><mask id="a" style="mask-type:alpha" maskUnits="userSpaceOnUse" x="-652" y="0" width="2737" height="1033"><path d="M-652 0h2737v1033H-652V0Z" fill="#C4C4C4"/></mask><g mask="url(#a)" fill-rule="evenodd" clip-rule="evenodd" fill="#D88532" fill-opacity=".1"><path d="M645.5 975.217c174.918 0 316.717-141.799 316.717-316.717 0-174.918-141.799-316.717-316.717-316.717-174.918 0-316.717 141.799-316.717 316.717 0 174.918 141.799 316.717 316.717 316.717Zm0 47.783c201.308 0 364.5-163.192 364.5-364.5S846.808 294 645.5 294 281 457.192 281 658.5 444.192 1023 645.5 1023Z"/><path d="M645.5 855.203c108.636 0 196.703-88.067 196.703-196.703 0-108.636-88.067-196.703-196.703-196.703-108.636 0-196.703 88.067-196.703 196.703 0 108.636 88.067 196.703 196.703 196.703Zm0 47.797C780.534 903 890 793.534 890 658.5S780.534 414 645.5 414 401 523.466 401 658.5 510.466 903 645.5 903Z"/><path d="M645.5 1094.25c236.242 0 428.79-194.292 428.79-435.25S881.742 223.749 645.5 223.749c-236.242 0-428.789 194.293-428.789 435.251 0 240.958 192.547 435.25 428.789 435.25Zm0 47.75c263.164 0 476.5-216.246 476.5-483S908.664 176 645.5 176 169 392.246 169 659s213.336 483 476.5 483Z"/><path d="M645.5 1213.23c305.84 0 553.77-248.136 553.77-554.23 0-306.094-247.93-554.232-553.77-554.232S91.728 352.906 91.728 659c0 306.094 247.932 554.23 553.772 554.23Zm0 47.77c332.199 0 601.5-269.525 601.5-602S977.699 57 645.5 57 44 326.525 44 659s269.301 602 601.5 602Z"/></g><path d="M499.361 1011.56H273.377l4.149-14.293 9.335-31.922 4.797-16.022 4.667-16.023 4.668-16.022 4.797-16.022 4.668-15.9 4.667-16.022 4.668-16.022 4.797-16.023 4.667-15.899 4.668-16.022 4.667-16.023 4.797-16.022 4.668-15.9 4.667-16.022 4.668-16.022 4.797-16.023 4.668-16.022 4.667-15.899 4.668-16.023 10.112-34.51 10.243 34.51 4.667 16.023 4.668 15.899 4.667 16.022 4.798 16.023 4.667 16.022 4.668 16.022 4.667 15.9 4.797 16.022 4.668 16.023 4.667 16.022 4.668 15.899 4.797 16.023 4.667 16.022 4.668 16.022 4.667 15.9 4.797 16.022 4.668 16.022 4.667 16.023 4.668 16.022 9.465 31.922 4.148 14.293Z" fill="#A4B635" stroke="#000" stroke-width="2" stroke-miterlimit="10"/><path d="M386.303 1011.56V626.902m-99.442 338.444 99.444 45.844 99.443-45.844m4.278 16.514-64.178 29.7m-78.957 0-64.178-29.7m212.501 15.408-30.987 14.292m-155.713 0-30.987-14.292" stroke="#000" stroke-width="2" stroke-miterlimit="10"/><path d="m291.658 949.322 94.647 43.754 94.776-43.754" stroke="#000" stroke-width="2" stroke-miterlimit="10"/><path d="m296.324 933.301 89.979 41.658 90.109-41.658" stroke="#000" stroke-width="2" stroke-miterlimit="10"/><path d="m300.992 917.277 85.312 39.441 85.441-39.441" stroke="#000" stroke-width="2" stroke-miterlimit="10"/><path d="m305.791 901.256 80.514 37.345 80.644-37.345" stroke="#000" stroke-width="2" stroke-miterlimit="10"/><path d="m310.457 885.36 75.847 35.003 75.976-35.003" stroke="#000" stroke-width="2" stroke-miterlimit="10"/><path d="m315.125 869.336 71.179 32.908 71.309-32.908" stroke="#000" stroke-width="2" stroke-miterlimit="10"/><path d="m319.793 853.315 66.512 30.813 66.641-30.813" stroke="#000" stroke-width="2" stroke-miterlimit="10"/><path d="m324.59 837.291 61.715 28.593 61.844-28.593" stroke="#000" stroke-width="2" stroke-miterlimit="10"/><path d="m329.256 821.391 57.047 26.375 57.177-26.375" stroke="#000" stroke-width="2" stroke-miterlimit="10"/><path d="m333.926 805.368 52.379 24.157 52.51-24.157" stroke="#000" stroke-width="2" stroke-miterlimit="10"/><path d="m338.594 789.346 47.712 22.062 47.842-22.062" stroke="#000" stroke-width="2" stroke-miterlimit="10"/><path d="m343.389 773.324 42.915 19.966 43.044-19.966" stroke="#000" stroke-width="2" stroke-miterlimit="10"/><path d="m348.055 757.424 38.247 17.625 38.377-17.625m-71.954-16.022 33.58 15.53 33.709-15.53m-62.621-16.023 28.912 13.311 29.042-13.311m-53.158-16.022 24.116 11.216 24.245-11.216m-43.695-16.023 19.448 9.121 19.578-9.121m-34.358-15.898 14.781 6.778 14.91-6.778m-25.023-16.022 10.113 4.683 10.243-4.683" stroke="#000" stroke-width="2" stroke-miterlimit="10"/><path d="M924.366 1011.56H698.252l4.149-14.293 9.464-31.922 4.668-16.022L721.2 933.3l4.798-16.022 4.667-16.022 4.668-15.9L740 869.334l4.797-16.022 4.668-16.023 4.667-15.899 4.668-16.022 4.797-16.023 4.667-16.022 4.668-15.9 4.667-16.022 4.798-16.022 4.667-16.023 4.667-16.022 4.668-15.899 4.797-16.023 10.113-34.51 10.113 34.51 4.667 16.023 4.668 15.899 4.797 16.022 4.668 16.023 4.667 16.022 4.668 16.022 4.797 15.9 4.667 16.022 4.668 16.023 4.667 16.022 4.797 15.899 4.668 16.023 4.667 16.022 4.668 16.022 4.797 15.9 4.667 16.022 4.668 16.022 4.668 16.023 4.797 16.022 9.335 31.922 4.278 14.293Z" fill="#A4B635" stroke="#000" stroke-width="2" stroke-miterlimit="10"/><path d="M811.309 1011.56V626.902m-99.443 338.444 99.444 45.844 99.443-45.844m4.277 16.514-64.307 29.7m-78.957 0-64.178-29.7m212.5 15.408-30.986 14.292m-155.713 0-30.987-14.292" stroke="#000" stroke-width="2" stroke-miterlimit="10"/><path d="m716.532 949.322 94.776 43.754 94.647-43.754" stroke="#000" stroke-width="2" stroke-miterlimit="10"/><path d="m721.199 933.301 90.109 41.658 89.979-41.658" stroke="#000" stroke-width="2" stroke-miterlimit="10"/><path d="m725.999 917.277 85.311 39.441 85.312-39.441" stroke="#000" stroke-width="2" stroke-miterlimit="10"/><path d="m730.666 901.256 80.644 37.345 80.644-37.345" stroke="#000" stroke-width="2" stroke-miterlimit="10"/><path d="m735.331 885.36 75.977 35.003 75.846-35.003" stroke="#000" stroke-width="2" stroke-miterlimit="10"/><path d="m740 869.336 71.309 32.908 71.179-32.908" stroke="#000" stroke-width="2" stroke-miterlimit="10"/><path d="m744.797 853.315 66.512 30.813 66.511-30.813" stroke="#000" stroke-width="2" stroke-miterlimit="10"/><path d="m749.465 837.291 61.844 28.593 61.844-28.593" stroke="#000" stroke-width="2" stroke-miterlimit="10"/><path d="m754.131 821.391 57.177 26.375 57.047-26.375" stroke="#000" stroke-width="2" stroke-miterlimit="10"/><path d="m758.801 805.368 52.509 24.157 52.38-24.157" stroke="#000" stroke-width="2" stroke-miterlimit="10"/><path d="m763.598 789.346 47.712 22.062 47.712-22.062" stroke="#000" stroke-width="2" stroke-miterlimit="10"/><path d="m768.264 773.324 43.044 19.966 43.045-19.966" stroke="#000" stroke-width="2" stroke-miterlimit="10"/><path d="m772.93 757.424 38.377 17.625 38.247-17.625M777.6 741.402l33.709 15.53 33.58-15.53m-62.493-16.023 28.913 13.311 28.913-13.311m-53.159-16.022 24.246 11.216 24.245-11.216m-43.823-16.023 19.578 9.121 19.448-9.121m-34.36-15.898 14.911 6.778 14.78-6.778m-24.891-16.022 10.113 4.683 10.113-4.683" stroke="#000" stroke-width="2" stroke-miterlimit="10"/><path d="M547.852 641.815s-2.334-16.269 5.964-16.022c8.298.246 59.899 0 59.899 0s7.002-1.479 4.927 16.022c0 0 50.046-2.218 76.236 16.269 26.19 18.488 33.58 23.664 47.971 48.684 14.392 25.019 37.859 101.065 37.859 101.065s6.612 26.375-29.172 32.538v-5.916l-20.744-86.275-183.329 4.313-14.003 87.878h-97.887s-9.724-111.172 17.373-145.312c27.097-34.14 59.77-53.121 94.906-53.244Z" fill="#fff" stroke="#000" stroke-width="2" stroke-miterlimit="10"/><path d="M547.852 641.814s48.619 3.573 70.92 0h-70.92Z" fill="#fff"/><path d="M547.852 641.814s48.619 3.573 70.92 0m-64.178-16.144v16.885m7-16.885v16.885m7.004-16.885v16.885m7-16.885v16.885m7-16.885v16.885m7.004-16.885v16.885m7-16.885v16.885m6.873-16.885v16.885m6.998-16.885v16.885" stroke="#000" stroke-width="2" stroke-miterlimit="10"/><path d="m510.9 822.13 73.772-49.546s11.798-57.927 29.172-77.524c17.373-19.597 41.878-25.513 61.066-25.759 18.152-.247 75.717 14.667 75.717 65.445v235.037l-45.767 19.72-83.496-6.532-124.596-71.608L510.9 822.13Z" fill="#009FE3" stroke="#000" stroke-width="2" stroke-miterlimit="10"/><path d="M634.071 767.16c-.389 0 10.113-35.003 10.113-35.003s8.168-25.143 33.061-22.061c24.894 3.081 31.506 17.008 31.895 33.647.259 16.638 0 227.149 0 227.149" stroke="#000" stroke-width="2" stroke-miterlimit="10"/><path d="m434.277 822.13 73.772-49.546s11.798-57.927 29.172-77.524c17.373-19.72 41.878-25.513 61.066-25.759 18.152-.247 75.717 14.667 75.717 65.445v235.037l-45.767 19.72-83.496-6.532-124.596-71.608 14.132-89.233Z" fill="#009FE3" stroke="#000" stroke-width="2" stroke-miterlimit="10"/><path d="M591.949 740.213v243.942M557.446 767.16c-.389 0 10.113-35.003 10.113-35.003s8.168-25.143 33.061-22.061c24.894 3.081 31.506 17.008 31.895 33.647.259 16.638 0 227.149 0 227.149" stroke="#000" stroke-width="2" stroke-miterlimit="10"/><path d="M599.453 780.472v45.233l51.343-.37 5.186-.493 2.852-2.835s.519-2.834.519-2.958c-.13-.246-2.204-4.93-2.204-4.93h3.759l3.631-1.848s1.167-2.958 1.167-3.082c0-.123-2.334-6.039-2.334-6.039s5.316-.246 5.575-.37c.259-.123 3.501-2.958 3.501-2.958s.777-3.204.648-3.451c-.13-.246-1.556-3.574-1.686-3.82-.259-.247-6.223-1.11-6.223-1.11s-3.63-.246-3.89-.369c-.259-.124 1.816-3.575 1.816-3.575l-.519-4.56-3.63-2.711-28.524-.617 13.484-5.176 1.556-1.972s.518-1.849.518-2.095c0-.247-.648-2.589-.648-2.589l-1.426-1.972-3.501-1.602s-3.111.247-3.241.37c-.259.123-37.729 15.899-37.729 15.899Z" fill="#FEBE9A"/><path d="m628.106 813.503 25.283.369c3.241 0 5.964 2.465 5.964 5.67 0 3.081-2.593 5.669-5.964 5.669h-53.936v-44.739l37.729-15.776c2.982-1.233 6.483.123 7.779 2.958 1.815 3.451.259 6.285-3.111 7.395l-11.021 5.176" stroke="#000" stroke-width="2" stroke-miterlimit="10"/><path d="M634.591 802.779h25.023c3.241 0 5.964 2.465 5.964 5.67 0 3.081-2.594 5.669-5.964 5.669l-33.969-.493" stroke="#000" stroke-width="2" stroke-miterlimit="10"/><path d="M642.238 791.441h25.023c3.241 0 5.964 2.465 5.964 5.67 0 3.081-2.593 5.669-5.964 5.669h-41.878" stroke="#000" stroke-width="2" stroke-miterlimit="10"/><path d="M624.994 780.227h32.543c3.241 0 5.964 2.465 5.964 5.669 0 3.081-2.593 5.669-5.964 5.669h-32.543" stroke="#000" stroke-width="2" stroke-miterlimit="10"/><path d="M748.038 780.472v45.233l-51.342-.37-5.186-.493-2.853-2.835s-.518-2.834-.518-2.958c.129-.246 2.204-4.93 2.204-4.93h-3.76l-3.63-1.848s-1.167-2.958-1.167-3.082c0-.123 2.333-6.039 2.333-6.039s-5.315-.246-5.575-.37c-.259-.123-3.5-2.958-3.5-2.958s-.778-3.204-.649-3.451c.13-.123 1.556-3.574 1.686-3.82.259-.247 6.223-1.11 6.223-1.11s3.631-.246 3.89-.369c.259-.124-1.815-3.575-1.815-3.575l.518-4.56 3.631-2.711 28.523-.617-13.484-5.176-1.556-1.972s-.518-1.849-.518-2.095c0-.247.648-2.589.648-2.589l1.426-1.972 3.501-1.602s3.112.247 3.241.37c.26.123 37.729 15.899 37.729 15.899Z" fill="#FEBE9A"/><path d="m719.386 813.503-25.282.369c-3.242 0-5.964 2.465-5.964 5.67 0 3.081 2.593 5.669 5.964 5.669h53.935v-44.739l-37.729-15.776c-2.982-1.233-6.482.123-7.779 2.958-1.815 3.451-.259 6.285 3.112 7.395l11.02 5.176" stroke="#000" stroke-width="2" stroke-miterlimit="10"/><path d="M712.903 802.779H687.88c-3.241 0-5.964 2.465-5.964 5.67 0 3.081 2.593 5.669 5.964 5.669l33.969-.493" stroke="#000" stroke-width="2" stroke-miterlimit="10"/><path d="M705.253 791.441H680.23c-3.242 0-5.964 2.465-5.964 5.67 0 3.081 2.593 5.669 5.964 5.669h41.877" stroke="#000" stroke-width="2" stroke-miterlimit="10"/><path d="M722.495 780.227h-32.543c-3.241 0-5.964 2.465-5.964 5.669 0 3.081 2.593 5.669 5.964 5.669h32.543" stroke="#000" stroke-width="2" stroke-miterlimit="10"/><path d="M582.859 763.587h19.448s9.465.123 10.113 7.641c.648 7.519 1.167 43.508 1.167 43.508s.519 19.596-8.038 19.719c-8.557.124-21.912-.492-21.912-.492l-.778-70.376Zm151.954 9.862c0-5.3 3.112-9.367 9.724-9.737h7.261s9.465.123 10.113 7.641c.648 7.519 1.167 43.508 1.167 43.508s1.426 19.843-8.557 19.843h-10.243c-5.445-.123-9.076-4.314-9.205-9.49l-.26-51.765Z" fill="#fff" stroke="#000" stroke-width="2" stroke-miterlimit="10"/><path d="M612.42 772.584h-22.69m22.69 10.6h-22.69m22.69 10.722h-22.69m22.69 10.603h-22.69m22.69 10.72h-22.69m22.69 10.599h-22.69m172.181-53.244h-27.098m27.098 10.6h-27.098m27.098 10.722h-27.098m27.098 10.603h-27.098m27.098 10.72h-27.098m27.098 10.599h-27.098" stroke="#000" stroke-width="2" stroke-miterlimit="10"/><path d="M434.145 778.993s4.148 61.502 67.808 61.378l72.994-.123s16.596 1.356 19.967-17.748c3.371-19.104 0-49.177 0-49.177s-1.167-13.311-23.597-14.913c-22.43-1.602-89.46-4.806-89.46-4.806" fill="#fff"/><path d="M434.145 778.993s4.148 61.502 67.808 61.378l72.994-.123s16.596 1.356 19.967-17.748c3.371-19.104 0-49.177 0-49.177s-1.167-13.311-23.597-14.913c-22.43-1.602-89.46-4.806-89.46-4.806" stroke="#000" stroke-width="2" stroke-miterlimit="10"/><path d="M592.066 604.962c-1.426 1.849-8.557 23.048 2.723 33.771 11.409 10.846 25.023 4.314 25.023 4.314l36.043-13.065-28.264-76.292c-51.861 3.821-57.177 35.743-57.177 35.743-16.466 16.269-15.947 35.742-15.947 35.742l33.709.247" fill="#FEBE9A"/><path d="M592.066 604.962c-1.426 1.849-8.557 23.048 2.723 33.771 11.409 10.846 25.023 4.314 25.023 4.314l36.043-13.065-28.264-76.292c-51.861 3.821-57.177 35.743-57.177 35.743-16.466 16.269-15.947 35.742-15.947 35.742l33.709.247" stroke="#000" stroke-width="2" stroke-miterlimit="10"/><path d="M627.59 553.692 566.912 532l5.057 67.294 37.988-20.213.518 6.779 25.153-10.723-8.038-21.445Z" fill="#CE9D1D" stroke="#000" stroke-width="2" stroke-miterlimit="10"/><path d="m629.274 558.253-61.196-11.216m62.754 14.543-61.455 2.957m1.295 17.379 60.937-17.378m-21.652 14.543 22.948-11.093m-17.76 47.698c.259.616 4.926 16.762 10.242 15.776 5.316-.986-1.815-22.924-1.815-22.924l25.93-7.395M630.833 586.6s-12.966 3.697-10.502 9.613c2.074 4.93 14.262-.616 14.262-.616" stroke="#000" stroke-width="2" stroke-miterlimit="10"/><path d="M644.962 614.454s-12.966 3.698-10.502 9.613c2.074 4.93 14.262-.616 14.262-.616" stroke="#000" stroke-width="2" stroke-miterlimit="10"/><path d="M605.159 608.167c5.729 0 10.373-4.414 10.373-9.86 0-5.445-4.644-9.86-10.373-9.86-5.728 0-10.372 4.415-10.372 9.86 0 5.446 4.644 9.86 10.372 9.86Z" fill="#D88532" stroke="#000" stroke-width="2" stroke-miterlimit="10"/><path d="M653 545.928s47.064-7.642 56.529 28.101c9.464 35.742-30.08 49.669-30.08 49.669" fill="#D88532"/><path d="M653 545.928s47.064-7.642 56.529 28.101c9.464 35.742-30.08 49.669-30.08 49.669" stroke="#000" stroke-width="2" stroke-miterlimit="10"/><path d="m681.397 627.15-18.67 6.039c-2.334.739-4.797-.37-5.705-2.465-11.02-25.143-20.355-50.533-27.486-76.168-.649-2.219.648-4.561 2.982-5.3l18.67-6.039c2.204-.74 4.797.369 5.704 2.465 11.799 25.635 20.874 51.025 27.487 76.291.648 2.219-.649 4.437-2.982 5.177Z" fill="#D88532" stroke="#000" stroke-width="2" stroke-miterlimit="10"/><path d="m630.83 559.36 28.394-8.134m-24.632 17.378 28.394-8.135m-26.189 17.873 30.079-8.75m-26.841 18.486 30.598-9.244m-26.317 17.871 29.172-8.381m-25.674 18.242 28.394-8.257m-25.151 17.256 28.394-8.134m-24.635 17.376 28.394-8.134m-75.846-15.652s-9.465 18.487 2.723 32.414" stroke="#000" stroke-width="2" stroke-miterlimit="10"/><path d="M697.471 1103.51H553.168l.519-1.72 3.5-11.96 3.501-12.08.518-1.6v-.12l4.02-13.56 4.667-15.65v-.13l4.538-15.65 4.667-15.77 4.668-15.78 3.89-13.188.777-2.588 4.538-15.776.26-.863.129-.246 32.024-108.953 7.261 24.65v.123l16.466 56.202.13.247 4.667 15.776 4.538 15.775 1.556 5.054 3.111 10.476v.246l4.668 15.775 4.667 15.78 1.945 6.53 1.945 7.02 3.501 11.96 3.63 12.08 3.371 11.46.129.49.649 2.47 2.852 9.49 2.204 7.64 1.297 4.44 3.5 11.95Z" fill="#A4B635" stroke="#000" stroke-width="2" stroke-miterlimit="10"/><path d="M625.385 857.876v245.634" stroke="#000" stroke-width="2" stroke-miterlimit="10"/><path d="m368.022 1096.98 1.816 6.53H216.199l2.723-9.61 3.501-11.96 3.63-12.08 3.5-11.95 3.501-11.96 3.501-12.08 3.241-10.72.389-1.6 4.667-15.78 4.668-15.772 4.667-15.776 9.206-31.552 4.667-15.776.26-.863 24.634-84.179 15.169 51.395 3.112 10.599 6.223 21.076 2.852 9.86 3.242 11.092.129.247.778 2.711 4.279 14.42 1.037 3.698 3.241 10.846 2.853 10.106 1.296 4.437 4.279 14.541.778 2.59.648 2.1.778 2.58 1.556 5.43 3.241 11.09.519 1.6 1.426 5.06 1.296 4.43 3.242 10.97 1.037 3.45v.13l2.204 7.51 3.112 10.48.129.49v.13l.648 1.85 2.723 9.12 3.241 11.09Z" fill="#A4B635" stroke="#000" stroke-width="2" stroke-miterlimit="10"/><path d="M292.955 841.852v261.658" stroke="#000" stroke-width="2" stroke-miterlimit="10"/><path d="M405.886 1103.51H277.4l.13-.49 1.167-3.82 2.074-7.52 2.464-8.26.907-2.71 3.242-11.09.518-1.98 2.723-9.12 1.945-6.65.389-1.6.907-2.72 3.242-11.09.129-.37 1.686-5.91 1.426-4.69 3.241-11.09.778-2.83.519-1.61 1.945-6.65 2.593-9 .648-1.972 3.241-11.092.908-3.328 2.333-7.641 2.464-8.381.778-2.712 3.241-11.092.648-1.972v-.123l2.593-8.874 2.075-7.149 1.167-3.944 3.241-11.092.259-.986 2.982-9.984 1.816-6.039 1.426-5.053 3.241-10.969 1.167-3.821 3.371-11.339.13-.739 4.667-16.023 4.797-16.022 4.668-16.023 4.667-15.899 4.668-16.022.907-2.958 1.167 3.82 6.094 21.076 6.223 20.952 1.297 4.684 3.76 12.448 4.667 16.023 2.074 7.148 2.594 8.874 2.204 7.148 2.593 8.751 2.852 9.737 1.815 6.286 3.501 12.201 1.167 3.821 4.278 14.667.389 1.356L423 957.952l.26 1.232 4.408 14.79 1.037 3.698 3.63 12.325 1.815 6.162 1.038 3.698.648 1.973 1.296 4.56 1.427 4.68.129.5 4.02 13.55 4.148 14.05 4.149 14.18 4.019 14.05 2.853 9.36 7.779 26.75h-56.918" fill="#A4B635"/><path d="M405.886 1103.51H277.4l.13-.49 1.167-3.82 2.074-7.52 2.464-8.26.907-2.71 3.242-11.09.518-1.98 2.723-9.12 1.945-6.65.389-1.6.907-2.72 3.242-11.09.129-.37 1.686-5.91 1.426-4.69 3.241-11.09.778-2.83.519-1.61 1.945-6.65 2.593-9 .648-1.972 3.241-11.092.908-3.328 2.333-7.641 2.464-8.381.778-2.712 3.241-11.092.648-1.972v-.123l2.593-8.874 2.075-7.149 1.167-3.944 3.241-11.092.259-.986 2.982-9.984 1.816-6.039 1.426-5.053 3.241-10.969 1.167-3.821 3.371-11.339.13-.739 4.667-16.023 4.797-16.022 4.668-16.023 4.667-15.899 4.668-16.022.907-2.958 1.167 3.82 6.094 21.076 6.223 20.952 1.297 4.684 3.76 12.448 4.667 16.023 2.074 7.148 2.594 8.874 2.204 7.148 2.593 8.751 2.852 9.737 1.815 6.286 3.501 12.201 1.167 3.821 4.278 14.667.389 1.356L423 957.952l.26 1.232 4.408 14.79 1.037 3.698 3.63 12.325 1.815 6.162 1.038 3.698.648 1.973 1.296 4.56 1.427 4.68.129.5 4.02 13.55 4.148 14.05 4.149 14.18 4.019 14.05 2.853 9.36 7.779 26.75h-56.917m-37.21 0V783.061" stroke="#000" stroke-width="2" stroke-miterlimit="10"/><path d="M168.191 1103.51H40.873l-.777-1.32.322-1.08.584-1.91 2.074-7.52 2.464-8.26.907-2.71 3.241-11.09.52-1.98 2.722-9.12 1.945-6.65.389-1.6.907-2.72 3.241-11.09.13-.37 1.686-5.91 1.426-4.69 3.241-11.09.778-2.83.519-1.61 1.944-6.65 2.593-9 .649-1.972 3.241-11.092.908-3.328 2.333-7.641 2.464-8.381.778-2.712 3.241-11.092.648-1.972v-.123l2.593-8.874 2.075-7.149 1.167-3.944 3.24-11.092.26-.986 2.982-9.984 1.815-6.039 1.427-5.053 3.241-10.969 1.167-3.821 3.371-11.339.129-.739 4.668-16.023 4.797-16.022 4.668-16.023 4.667-15.899 4.667-16.022.908-2.958 1.167 3.82 6.094 21.076 6.223 20.952 1.296 4.684 3.76 12.448 4.668 16.023 2.074 7.148 2.593 8.874 2.204 7.148 2.594 8.751 2.852 9.737 1.815 6.286 3.501 12.201 1.167 3.821 4.278 14.667.389 1.356 4.797 15.899.259 1.232 4.409 14.79 1.037 3.698 3.63 12.325 1.815 6.162 1.038 3.698.648 1.973 1.296 4.56 1.426 4.68.13.5 4.019 13.55 4.149 14.05 4.149 14.18 4.019 14.05 2.853 9.36 7.779 26.75h-56.918" fill="#A4B635"/><path d="M168.191 1103.51H40.873l-.777-1.32.322-1.08.584-1.91 2.074-7.52 2.464-8.26.907-2.71 3.241-11.09.52-1.98 2.722-9.12 1.945-6.65.389-1.6.907-2.72 3.241-11.09.13-.37 1.686-5.91 1.426-4.69 3.241-11.09.778-2.83.519-1.61 1.944-6.65 2.593-9 .649-1.972 3.241-11.092.908-3.328 2.333-7.641 2.464-8.381.778-2.712 3.241-11.092.648-1.972v-.123l2.593-8.874 2.075-7.149 1.167-3.944 3.24-11.092.26-.986 2.982-9.984 1.815-6.039 1.427-5.053 3.241-10.969 1.167-3.821 3.371-11.339.129-.739 4.668-16.023 4.797-16.022 4.668-16.023 4.667-15.899 4.667-16.022.908-2.958 1.167 3.82 6.094 21.076 6.223 20.952 1.296 4.684 3.76 12.448 4.668 16.023 2.074 7.148 2.593 8.874 2.204 7.148 2.594 8.751 2.852 9.737 1.815 6.286 3.501 12.201 1.167 3.821 4.278 14.667.389 1.356 4.797 15.899.259 1.232 4.409 14.79 1.037 3.698 3.63 12.325 1.815 6.162 1.038 3.698.648 1.973 1.296 4.56 1.426 4.68.13.5 4.019 13.55 4.149 14.05 4.149 14.18 4.019 14.05 2.853 9.36 7.779 26.75h-56.918m-37.209 0V783.061" stroke="#000" stroke-width="2" stroke-miterlimit="10"/><path d="M280.084 1103.38H81.326l3.63-12.57h.13l8.168-28.1 4.15-14.05 4.148-14.05 4.149-14.05 4.149-14.05 4.149-14.05 4.149-14.05 4.019-14.05 4.149-14.051 4.149-14.05 4.148-14.174 4.149-14.051 4.149-14.05 4.149-14.05 4.019-14.051 4.149-14.05 4.149-14.051 4.149-14.05 4.149-14.051 4.149-14.05 8.816-30.319 8.946 30.319 4.149 14.05 4.149 14.051 4.149 14.05 4.149 14.051 4.149 14.05 4.019 14.051 4.149 14.05 4.149 14.05 4.148 14.051 4.149 14.174 4.149 14.05 4.149 14.051 4.019 14.05 4.149 14.05 4.149 14.05 4.149 14.05 4.149 14.05 4.149 14.05 4.149 14.05 8.168 28.1h.129l3.631 12.57Z" fill="#A4B635" stroke="#000" stroke-width="2" stroke-miterlimit="10"/><path d="M180.641 1103.51V765.312M93.254 1062.71l87.386 40.43 87.515-40.43m3.762 14.67-56.528 26.01m-69.364 0-56.529-26.01m186.958 13.43h-.129l-27.227 12.57m-136.786 0-27.227-12.57h-.13" stroke="#000" stroke-width="2" stroke-miterlimit="10"/><path d="m97.404 1048.66 83.237 38.46 83.367-38.46" stroke="#000" stroke-width="2" stroke-miterlimit="10"/><path d="m101.551 1034.61 79.088 36.61 79.218-36.61" stroke="#000" stroke-width="2" stroke-miterlimit="10"/><path d="m105.699 1020.56 74.939 34.63 75.069-34.63" stroke="#000" stroke-width="2" stroke-miterlimit="10"/><path d="m109.85 1006.51 70.79 32.78 70.92-32.78" stroke="#000" stroke-width="2" stroke-miterlimit="10"/><path d="m114 992.46 66.641 30.81 66.772-30.81" stroke="#000" stroke-width="2" stroke-miterlimit="10"/><path d="m118.148 978.41 62.493 28.96 62.622-28.96" stroke="#000" stroke-width="2" stroke-miterlimit="10"/><path d="m122.168 964.358 58.473 26.992 58.603-26.992" stroke="#000" stroke-width="2" stroke-miterlimit="10"/><path d="m126.318 950.31 54.325 25.02 54.454-25.02" stroke="#000" stroke-width="2" stroke-miterlimit="10"/><path d="m130.465 936.258 50.175 23.171 50.306-23.171" stroke="#000" stroke-width="2" stroke-miterlimit="10"/><path d="m134.613 922.086 46.027 21.323 46.156-21.323" stroke="#000" stroke-width="2" stroke-miterlimit="10"/><path d="m138.762 908.034 41.878 19.474 42.007-19.474" stroke="#000" stroke-width="2" stroke-miterlimit="10"/><path d="m142.91 893.985 37.729 17.501 37.859-17.501" stroke="#000" stroke-width="2" stroke-miterlimit="10"/><path d="m147.061 879.935 33.58 15.652 33.709-15.652m-63.27-14.054 29.561 13.68 29.69-13.68m-55.102-14.048 25.411 11.709 25.542-11.709m-46.803-14.051 21.263 9.861 21.393-9.861m-38.508-14.051 17.114 7.888 17.244-7.888m-30.209-14.048 12.965 6.037 13.095-6.037m-21.912-14.054 8.817 4.066 8.946-4.066" stroke="#000" stroke-width="2" stroke-miterlimit="10"/><path d="M879.373 661.408 765.538 1048.78h227.67L879.373 661.408Z" fill="#A4B635" stroke="#000" stroke-width="2" stroke-miterlimit="10"/><path d="M879.373 661.408v387.372" stroke="#000" stroke-width="2" stroke-miterlimit="10"/><path d="M534.629 1076.76H335.871l3.63-12.57h.13l8.168-28.1 4.149-14.05 4.149-14.05 4.149-14.049 4.149-14.05 4.149-14.051 4.148-14.05 4.02-14.051 4.149-14.05 4.148-14.051 4.149-14.173 4.149-14.051 4.149-14.05 4.149-14.051 4.019-14.05 4.149-14.05 4.149-14.051 4.149-14.05 4.149-14.051 4.149-14.05 8.816-30.32 8.946 30.32 4.149 14.05 4.149 14.051 4.149 14.05 4.149 14.051 4.148 14.05 4.02 14.05 4.149 14.051 4.148 14.05 4.149 14.051 4.149 14.173 4.149 14.051 4.149 14.05 4.019 14.051 4.149 14.05 4.149 14.051 4.149 14.05 4.149 14.049 4.149 14.05 4.149 14.05 8.168 28.1h.129l3.631 12.57Z" fill="#A4B635" stroke="#000" stroke-width="2" stroke-miterlimit="10"/><path d="M435.186 1076.89V738.691m-87.385 297.399 87.386 40.43 87.515-40.43m3.76 14.67-56.528 26.01m-69.366 0-56.529-26.01m186.96 13.43h-.129l-27.227 12.58m-136.786 0-27.227-12.58h-.13" stroke="#000" stroke-width="2" stroke-miterlimit="10"/><path d="m351.947 1022.04 83.237 38.46 83.367-38.46" stroke="#000" stroke-width="2" stroke-miterlimit="10"/><path d="m356.096 1007.99 79.088 36.61 79.218-36.61" stroke="#000" stroke-width="2" stroke-miterlimit="10"/><path d="m360.244 993.941 74.939 34.629 75.069-34.629" stroke="#000" stroke-width="2" stroke-miterlimit="10"/><path d="m364.395 979.894 70.79 32.786 70.92-32.786" stroke="#000" stroke-width="2" stroke-miterlimit="10"/><path d="m368.545 965.84 66.641 30.812 66.771-30.812" stroke="#000" stroke-width="2" stroke-miterlimit="10"/><path d="m372.691 951.792 62.493 28.964 62.622-28.964" stroke="#000" stroke-width="2" stroke-miterlimit="10"/><path d="m376.711 937.74 58.473 26.992 58.603-26.992" stroke="#000" stroke-width="2" stroke-miterlimit="10"/><path d="m380.861 923.689 54.325 25.02 54.454-25.02" stroke="#000" stroke-width="2" stroke-miterlimit="10"/><path d="m385.008 909.641 50.175 23.171 50.306-23.171" stroke="#000" stroke-width="2" stroke-miterlimit="10"/><path d="m389.156 895.468 46.027 21.322 46.156-21.322" stroke="#000" stroke-width="2" stroke-miterlimit="10"/><path d="m393.307 881.414 41.877 19.473 42.008-19.473" stroke="#000" stroke-width="2" stroke-miterlimit="10"/><path d="m397.455 867.365 37.729 17.502 37.859-17.502" stroke="#000" stroke-width="2" stroke-miterlimit="10"/><path d="m401.604 853.313 33.58 15.653 33.709-15.653m-63.268-14.05 29.561 13.68 29.69-13.68m-55.103-14.05 25.412 11.708 25.542-11.708m-46.805-14.051 21.263 9.859 21.393-9.859m-38.506-14.051L435.186 805l17.244-7.889m-30.209-14.049 12.965 6.039 13.095-6.039m-21.912-14.051 8.817 4.066 8.946-4.066" stroke="#000" stroke-width="2" stroke-miterlimit="10"/><path d="M633.421 1103.51H488.988l1.167-3.82 3.501-12.08 3.241-10.84.259-1.11 3.501-11.96.389-1.23 3.241-10.72 2.334-8.26 1.167-3.82 3.501-11.96.777-2.71 2.723-9.24.908-3.21 2.593-8.87 3.63-11.956 3.501-11.955 1.944-6.779 1.556-5.299.26-.74 3.241-11.216 3.501-11.955 2.463-8.504 1.037-3.574 3.63-11.956 3.501-11.955 3.501-12.078 3.5-11.956 7.65-25.882 7.649 25.882 3.501 11.956 3.501 12.078 3.5 11.955 3.501 11.956 3.5 12.078 3.631 11.955 3.241 11.093v.246l.259.617 3.501 12.078 2.204 7.395 1.297 4.56 3.5 11.956 3.63 12.08 3.501 11.95 3.501 11.96 2.463 8.38 1.037 3.7 3.242 10.72.259 1.23 3.63 11.96.13.49.518 2.1 2.853 9.36 1.815 6.41 1.685 5.67 1.167 3.82Z" fill="#A4B635" stroke="#000" stroke-width="2" stroke-miterlimit="10"/><path d="M561.205 1103.51V857.875m71.05 241.815-6.872 3.2-1.426.62m-125.503 0-8.298-3.82m37.729 3.82-34.229-15.9m100.871 15.9 7.261-3.45 6.223-2.84 14.781-6.78 2.593-1.23 3.371-1.6m-131.6-11.95 2.464 1.11 54.065 25.02 3.63 1.72m67.938-27.85-2.463 1.11-14.78 6.77-1.556.87-37.729 17.38-3.76 1.72m-64.307-39.81 60.548 27.98 60.418-27.98" stroke="#000" stroke-width="2" stroke-miterlimit="10"/><path d="m504.287 1051.74 56.918 26.26 56.917-26.26" stroke="#000" stroke-width="2" stroke-miterlimit="10"/><path d="m507.789 1039.67 53.417 24.65 53.417-24.65" stroke="#000" stroke-width="2" stroke-miterlimit="10"/><path d="m511.289 1027.71 49.916 23.05 49.917-23.05" stroke="#000" stroke-width="2" stroke-miterlimit="10"/><path d="m514.789 1015.75 46.416 21.33 46.415-21.33" stroke="#000" stroke-width="2" stroke-miterlimit="10"/><path d="m518.289 1003.68 42.915 19.84 42.785-19.84" stroke="#000" stroke-width="2" stroke-miterlimit="10"/><path d="m521.922 991.725 39.285 18.115 39.284-18.115" stroke="#000" stroke-width="2" stroke-miterlimit="10"/><path d="m525.422 979.77 35.784 16.515 35.784-16.515" stroke="#000" stroke-width="2" stroke-miterlimit="10"/><path d="m528.922 967.689 32.283 14.914 32.284-14.914" stroke="#000" stroke-width="2" stroke-miterlimit="10"/><path d="m532.422 955.734 28.783 13.311 28.783-13.311m-54.064-11.956 25.282 11.586 25.153-11.586M539.555 931.7l21.652 10.106 21.652-10.106m-39.806-11.955 18.151 8.381 18.151-8.381m-32.8-11.956 14.65 6.779 14.651-6.779m-25.803-12.077 11.15 5.175 11.15-5.175m-18.798-11.954 7.649 3.45 7.65-3.45" stroke="#000" stroke-width="2" stroke-miterlimit="10"/><path d="M747.908 1103.51H600.752l1.037-3.45 1.556-5.06 3.112-10.6.389-1.35 3.5-12.08.649-2.34 2.852-9.62 1.815-6.16 1.426-4.8.259-.99 3.631-12.08 3.5-11.95.908-3.09 2.593-8.87 3.501-12.078 3.5-11.955.26-.617.648-2.341 2.593-8.998 3.63-12.078 3.501-11.955 3.5-11.956v-.246l3.501-11.832 3.501-11.955 3.63-11.955 3.501-12.079 3.5-11.955 7.131-24.404.519-1.478 7.519 25.882 3.501 11.955 3.63 12.079 3.501 11.955 3.501 11.955 3.5 12.078 3.501 11.956 3.5 11.955 2.982 9.983v.123l.649 1.972 1.815 6.286.907 2.958.389 1.479.389 1.233 1.945 6.655 1.556 5.3 1.685 5.918 1.816 6.04v.12l.259.49 3.241 11.47 1.556 5.05 2.074 6.9 2.982 10.35.519 1.73 3.501 11.95 1.037 3.46 2.463 8.5 2.593 8.75.908 3.33 3.63 11.95.519 1.85 1.945 6.66Z" fill="#A4B635" stroke="#000" stroke-width="2" stroke-miterlimit="10"/><path d="M674.395 853.188v250.322m52.639 0 .519-.25 16.077-7.52 1.815-.74m-123.818 8.51-13.614-6.29-4.667-2.22m3.5-11.95 1.167.49 14.78 6.9 2.593 1.11 5.186 2.47 20.615 9.49m90.627-20.46-12.836 5.91-16.206 7.52-15.17 7.03h-.129m-87.125-32.54 64.048 29.58 63.919-29.58" stroke="#000" stroke-width="2" stroke-miterlimit="10"/><path d="m613.848 1059.02 60.547 27.98 60.419-27.98" stroke="#000" stroke-width="2" stroke-miterlimit="10"/><path d="m617.346 1047.06 57.047 26.25 56.917-26.25" stroke="#000" stroke-width="2" stroke-miterlimit="10"/><path d="m620.977 1034.98 53.416 24.77 53.417-24.77" stroke="#000" stroke-width="2" stroke-miterlimit="10"/><path d="m624.479 1023.03 49.916 23.04 49.786-23.04" stroke="#000" stroke-width="2" stroke-miterlimit="10"/><path d="m627.98 1011.07 46.416 21.44 46.286-21.44" stroke="#000" stroke-width="2" stroke-miterlimit="10"/><path d="m631.48 998.992 42.915 19.838 42.786-19.838" stroke="#000" stroke-width="2" stroke-miterlimit="10"/><path d="m634.98 987.039 39.415 18.241 39.285-18.241" stroke="#000" stroke-width="2" stroke-miterlimit="10"/><path d="m638.479 975.082 35.913 16.515 35.784-16.515" stroke="#000" stroke-width="2" stroke-miterlimit="10"/><path d="m642.111 963.004 32.284 14.913 32.283-14.913" stroke="#000" stroke-width="2" stroke-miterlimit="10"/><path d="m645.609 951.049 28.783 13.312 28.653-13.312m-53.934-11.955 25.283 11.586 25.152-11.586m-46.933-12.078 21.782 10.106 21.652-10.106m-39.934-11.958 18.281 8.381 18.152-8.381m-32.802-11.954 14.651 6.779 14.651-6.779m-25.8-12.078 11.15 5.177 11.021-5.177m-18.671-11.953 7.65 3.573 7.519-3.573" stroke="#000" stroke-width="2" stroke-miterlimit="10"/><path d="m318.368 1096.61 2.075 6.9H159.025l6.094-20.83 3.63-12.08 3.501-11.95 3.501-11.96 3.5-12.08 3.501-11.95 3.63-11.96 3.501-12.074 3.5-11.955 3.501-11.956 3.501-12.078 3.5-11.955 3.63-11.955 3.501-11.956 3.501-12.078 3.5-11.955 3.501-12.079 3.63-11.955 3.501-11.955 3.5-11.955 7.65-25.883 7.52 25.883 3.5 11.955 3.631 11.955 3.5 11.955 3.501 12.079 3.501 11.955 3.371 11.339.129.739 3.63 11.956 3.501 11.955 3.501 11.955 3.5 12.078.778 2.589 1.686 5.669 1.037 3.698 3.63 11.955 1.297 4.934 1.945 6.53.259.61.259.87 2.075 7.27 1.166 3.82.389 1.36 1.816 6.16 1.296 4.43 1.167 3.83 2.334 8.25 1.945 6.29 1.685 5.67 2.593 8.87.908 3.08 3.241 11.47.259.61 4.019 13.93Z" fill="#A4B635" stroke="#000" stroke-width="2" stroke-miterlimit="10"/><path d="M239.799 828.911v274.599m74.553-20.83-12.966 5.92-8.427 3.94-5.186 2.35-9.076 4.31-4.797 2.09-2.982 1.36-1.686.86m-58.994 0-45.119-20.83m134.32 20.83 3.371-1.6 13.614-6.29 1.167-.49m-137.432 8.38-18.151-8.38m6.74-24.53 71.05 32.91 71.049-32.91" stroke="#000" stroke-width="2" stroke-miterlimit="10"/><path d="m172.25 1058.65 67.549 31.18 67.549-31.18" stroke="#000" stroke-width="2" stroke-miterlimit="10"/><path d="m175.75 1046.69 64.048 29.58 63.919-29.58" stroke="#000" stroke-width="2" stroke-miterlimit="10"/><path d="m179.25 1034.61 60.548 27.98 60.418-27.98" stroke="#000" stroke-width="2" stroke-miterlimit="10"/><path d="m182.752 1022.66 57.047 26.38 56.918-26.38" stroke="#000" stroke-width="2" stroke-miterlimit="10"/><path d="m186.383 1010.7 53.417 24.65 53.417-24.65" stroke="#000" stroke-width="2" stroke-miterlimit="10"/><path d="m189.883 998.625 49.916 23.175 49.916-23.175" stroke="#000" stroke-width="2" stroke-miterlimit="10"/><path d="m193.383 986.669 46.415 21.441 46.286-21.441" stroke="#000" stroke-width="2" stroke-miterlimit="10"/><path d="m196.885 974.714 42.915 19.72 42.785-19.72" stroke="#000" stroke-width="2" stroke-miterlimit="10"/><path d="m200.385 962.638 39.414 18.24 39.285-18.24" stroke="#000" stroke-width="2" stroke-miterlimit="10"/><path d="m204.016 950.683 35.784 16.515 35.784-16.515" stroke="#000" stroke-width="2" stroke-miterlimit="10"/><path d="m207.516 938.727 32.283 14.913 32.284-14.913" stroke="#000" stroke-width="2" stroke-miterlimit="10"/><path d="m211.016 926.772 28.783 13.188 28.653-13.188m-53.934-12.081L239.8 926.4l25.152-11.709m-46.934-11.954 21.781 9.983 21.652-9.983m-39.933-11.956 18.281 8.381 18.151-8.381m-32.8-12.075 14.651 6.779 14.651-6.779m-25.804-11.958 11.151 5.175 11.02-5.175m-18.669-11.955 7.65 3.451 7.52-3.451" stroke="#000" stroke-width="2" stroke-miterlimit="10"/><path d="M804.696 1103.51h-13.743l2.334-7.89 4.538-15.53.518-1.72 4.538-15.66.519-1.48 3.63-12.44 1.037-3.46.389-1.35 1.037-3.82 3.631-12.33 4.797-16.27.389-1.1.778-2.84 4.278-14.543 1.945-6.532 3.241-10.846 2.853-10.107 2.204-7.395 4.019-13.68 1.167-3.698 5.056-17.255v-.123l5.057-17.378 1.037-3.575 4.149-13.804 2.074-7.148 2.982-10.353 3.242-10.723 1.944-6.655 4.149-14.297.908-3.081 1.685-5.793 3.501-11.586 4.797-16.638.259-.74 5.057-17.378 5.186-17.502 5.057-17.378 5.186-17.501 5.834-19.967 11.15 37.468 5.057 17.378 5.056 17.502 5.186 17.378 5.057 17.378 5.186 17.379 5.056 17.378 5.186 17.378 5.057 17.501 5.056 17.379 4.279 14.297.907 3.081 5.057 17.378 5.186 17.378 5.056 17.502 5.186 17.378 4.279 14.663.259 1.11.519 1.61 5.186 17.37 5.054 17.5 5.19 17.38 5.05 17.38 6.88 23.42H808.327" fill="#A4B635"/><path d="M804.696 1103.51h-13.743l2.334-7.89 4.538-15.53.518-1.72 4.538-15.66.519-1.48 3.63-12.44 1.037-3.46.389-1.35 1.037-3.82 3.631-12.33 4.797-16.27.389-1.1.778-2.84 4.278-14.543 1.945-6.532 3.241-10.846 2.853-10.107 2.204-7.395 4.019-13.68 1.167-3.698 5.056-17.255v-.123l5.057-17.378 1.037-3.575 4.149-13.804 2.074-7.148 2.982-10.353 3.242-10.723 1.944-6.655 4.149-14.297.908-3.081 1.685-5.793 3.501-11.586 4.797-16.638.259-.74 5.057-17.378 5.186-17.502 5.057-17.378 5.186-17.501 5.834-19.967 11.15 37.468 5.057 17.378 5.056 17.502 5.186 17.378 5.057 17.378 5.186 17.379 5.056 17.378 5.186 17.378 5.057 17.501 5.056 17.379 4.279 14.297.907 3.081 5.057 17.378 5.186 17.378 5.056 17.502 5.186 17.378 4.279 14.663.259 1.11.519 1.61 5.186 17.37 5.054 17.5 5.19 17.38 5.05 17.38 6.88 23.42H808.327m97.629 0V711.944" stroke="#000" stroke-width="2" stroke-miterlimit="10"/><path d="m797.823 1080.09 14.521 6.66 12.577 5.91 23.596 10.85m115.003 0 1.426-.62 28.264-13.06 21-9.74m4.67 18.12-11.54 5.3m-202.644 0-11.539-5.3m216.003-35.5-15.949 7.27-21.522 9.99-50.954 23.54m-29.56 0-72.994-33.77-.519-.25-14.78-6.78m5.186-17.38 97.888 45.24 98.014-45.24" stroke="#000" stroke-width="2" stroke-miterlimit="10"/><path d="m813.123 1027.83 92.831 43.02 92.961-43.02" stroke="#000" stroke-width="2" stroke-miterlimit="10"/><path d="m818.309 1010.45 87.645 40.55 87.775-40.55" stroke="#000" stroke-width="2" stroke-miterlimit="10"/><path d="m823.367 993.076 82.589 38.204 82.718-38.204" stroke="#000" stroke-width="2" stroke-miterlimit="10"/><path d="m828.553 975.698 77.402 35.742 77.533-35.742" stroke="#000" stroke-width="2" stroke-miterlimit="10"/><path d="m833.609 958.196 72.347 33.524 72.475-33.524" stroke="#000" stroke-width="2" stroke-miterlimit="10"/><path d="m838.796 940.821 67.16 31.182 67.29-31.182" stroke="#000" stroke-width="2" stroke-miterlimit="10"/><path d="m843.852 923.442 62.103 28.717 62.233-28.717" stroke="#000" stroke-width="2" stroke-miterlimit="10"/><path d="m848.908 906.062 57.047 26.376 57.177-26.376" stroke="#000" stroke-width="2" stroke-miterlimit="10"/><path d="m854.095 888.686 51.861 24.033 51.99-24.033" stroke="#000" stroke-width="2" stroke-miterlimit="10"/><path d="m859.151 871.185 46.805 21.691 46.934-21.691" stroke="#000" stroke-width="2" stroke-miterlimit="10"/><path d="m864.337 853.804 41.618 19.35 41.749-19.35m-78.309-17.377 36.562 16.885 36.691-16.885m-68.07-17.377 31.376 14.543 31.506-14.543m-57.824-17.379 26.319 12.202 26.449-12.202m-47.713-17.378 21.263 9.737 21.263-9.737m-37.338-17.502 16.077 7.518 16.206-7.518m-27.227-17.378 11.02 5.053 11.15-5.053" stroke="#000" stroke-width="2" stroke-miterlimit="10"/><path d="M697.471 1103.51h-21.393l1.297-4.31 1.167-3.82 3.5-11.96.259-1.11 3.89-13.06.519-1.61.129-.61 3.242-10.85 1.166-4.31 2.594-8.75 2.074-7.03 1.815-6.04 2.852-9.73 1.038-3.45 1.556-5.3 1.944-7.03.26-.74 1.426-4.559 2.463-8.504.519-1.972.518-1.725 1.038-3.451.648-2.219 1.037-3.697 3.112-10.353.778-2.712 3.889-13.064v-.247l3.76-12.818 1.037-3.204 2.853-9.86 1.815-6.163 2.074-7.025 2.593-8.874 1.167-4.19 3.501-11.832.389-1.233 3.889-13.064.519-1.726 4.668-16.022 1.555-5.177 1.556-5.299 4.019 13.804 4.279 14.42 1.815 6.655 1.945 6.409 3.89 13.065.388 1.479 3.371 11.585 2.853 9.49 1.037 3.698 3.89 13.064 1.166 4.191 2.593 8.874 3.631 12.201.259.863 1.556 5.053 2.334 8.012 2.074 7.025 1.686 6.039 3.889 13.063.519 1.97 1.815 5.8 1.556 5.3 3.76 13.18 2.982 10.11.907 2.96 1.167 3.82.519 1.85 2.204 7.39 3.76 13.07.129.49 3.76 12.57 2.982 10.35.908 2.72 2.334 8.13h-19.837" fill="#A4B635"/><path d="M697.471 1103.51h-21.393l1.297-4.31 1.167-3.82 3.5-11.96.259-1.11 3.89-13.06.519-1.61.129-.61 3.242-10.85 1.166-4.31 2.594-8.75 2.074-7.03 1.815-6.04 2.852-9.73 1.038-3.45 1.556-5.3 1.944-7.03.26-.74 1.426-4.559 2.463-8.504.519-1.972.518-1.725 1.038-3.451.648-2.219 1.037-3.697 3.112-10.353.778-2.712 3.889-13.064v-.247l3.76-12.818 1.037-3.204 2.853-9.86 1.815-6.163 2.074-7.025 2.593-8.874 1.167-4.19 3.501-11.832.389-1.233 3.889-13.064.519-1.726 4.668-16.022 1.555-5.177 1.556-5.299 4.019 13.804 4.279 14.42 1.815 6.655 1.945 6.409 3.89 13.065.388 1.479 3.371 11.585 2.853 9.49 1.037 3.698 3.89 13.064 1.166 4.191 2.593 8.874 3.631 12.201.259.863 1.556 5.053 2.334 8.012 2.074 7.025 1.686 6.039 3.889 13.063.519 1.97 1.815 5.8 1.556 5.3 3.76 13.18 2.982 10.11.907 2.96 1.167 3.82.519 1.85 2.204 7.39 3.76 13.07.129.49 3.76 12.57 2.982 10.35.908 2.72 2.334 8.13h-19.837m-3.63 0H697.472m54.714 0v-258.7m73.64 250.57-17.503 8.13" stroke="#000" stroke-width="2" stroke-miterlimit="10"/><path d="m695.914 1103.51-13.872-6.53-3.501-1.6m3.76-13.07 1.037.5 9.335 4.31 5.445 2.46 14.651 6.91 14.781 6.77.518.25m48.104 0 17.114-7.89 19.059-8.87 9.594-4.44m-135.748-13.06 65.994 30.44 65.863-30.44" stroke="#000" stroke-width="2" stroke-miterlimit="10"/><path d="m690.08 1056.18 62.104 28.72 62.103-28.72" stroke="#000" stroke-width="2" stroke-miterlimit="10"/><path d="m693.841 1043.12 58.344 26.87 58.214-26.87" stroke="#000" stroke-width="2" stroke-miterlimit="10"/><path d="m697.73 1030.05 54.455 25.15 54.324-25.15" stroke="#000" stroke-width="2" stroke-miterlimit="10"/><path d="m701.619 1016.99 50.565 23.3 50.564-23.3" stroke="#000" stroke-width="2" stroke-miterlimit="10"/><path d="m705.379 1003.8 46.804 21.7 46.675-21.7" stroke="#000" stroke-width="2" stroke-miterlimit="10"/><path d="m709.269 990.738 42.915 19.842 42.785-19.842" stroke="#000" stroke-width="2" stroke-miterlimit="10"/><path d="m713.029 977.674 39.155 18.117 39.026-18.117" stroke="#000" stroke-width="2" stroke-miterlimit="10"/><path d="m716.918 964.61 35.265 16.269 35.136-16.269" stroke="#000" stroke-width="2" stroke-miterlimit="10"/><path d="m720.809 951.544 31.375 14.42 31.247-14.42m-58.863-13.065 27.616 12.695 27.487-12.695m-51.213-13.063 23.726 10.846 23.597-10.846m-43.431-13.187 19.836 9.244 19.708-9.244m-35.787-13.065 16.077 7.395 15.948-7.395m-28.136-13.067 12.187 5.669 12.058-5.669m-20.353-13.062 8.297 3.82 8.298-3.82" stroke="#000" stroke-width="2" stroke-miterlimit="10"/><path d="M1096.09 1103.51h-23.61l1.43-4.76 1.28-4.22 3.87-13.2.29-1.22 4.29-14.42.57-1.77.14-.68 3.58-11.98 1.29-4.76 2.86-9.66 2.29-7.75 2.01-6.67 3.15-10.75 1.14-3.81 1.72-5.85 2.15-7.753.28-.817 1.58-5.034 2.72-9.387.57-2.177.57-1.905 1.15-3.81.71-2.449 1.15-4.081 3.43-11.429.86-2.993 4.29-14.422v-.272l4.15-14.15 1.15-3.537 3.15-10.884 2-6.803 2.29-7.755 2.86-9.796 1.29-4.626 3.87-13.061.43-1.361 4.29-14.422.57-1.905 5.15-17.687 1.72-5.714 1.72-5.85 4.44 15.238 4.72 15.918 2 7.347 2.15 7.075 4.29 14.422.43 1.633 3.72 12.789 3.15 10.476 1.15 4.082 4.29 14.421 1.29 4.626 2.86 9.796 4.01 13.47.29.952 1.71 5.578 2.58 8.844 2.29 7.755 1.86 6.667 4.29 14.421.58 2.177 2 6.393 1.72 5.85 4.15 14.56 3.29 11.16 1 3.26 1.29 4.22.57 2.04 2.43 8.16 4.16 14.43.14.54 4.15 13.88 3.29 11.43 1 2.99 1.9 6.84-21.22 2.14" fill="#A4B635"/><path d="M1096.09 1103.51h-23.61l1.43-4.76 1.28-4.22 3.87-13.2.29-1.22 4.29-14.42.57-1.77.14-.68 3.58-11.98 1.29-4.76 2.86-9.66 2.29-7.75 2.01-6.67 3.15-10.75 1.14-3.81 1.72-5.85 2.15-7.753.28-.817 1.58-5.034 2.72-9.387.57-2.177.57-1.905 1.15-3.81.71-2.449 1.15-4.081 3.43-11.429.86-2.993 4.29-14.422v-.272l4.15-14.15 1.15-3.537 3.15-10.884 2-6.803 2.29-7.755 2.86-9.796 1.29-4.626 3.87-13.061.43-1.361 4.29-14.422.57-1.905 5.15-17.687 1.72-5.714 1.72-5.85 4.44 15.238 4.72 15.918 2 7.347 2.15 7.075 4.29 14.422.43 1.633 3.72 12.789 3.15 10.476 1.15 4.082 4.29 14.421 1.29 4.626 2.86 9.796 4.01 13.47.29.952 1.71 5.578 2.58 8.844 2.29 7.755 1.86 6.667 4.29 14.421.58 2.177 2 6.393 1.72 5.85 4.15 14.56 3.29 11.16 1 3.26 1.29 4.22.57 2.04 2.43 8.16 4.16 14.43.14.54 4.15 13.88 3.29 11.43 1 2.99 1.9 6.84-21.22 2.14m1.6 0h-123.97m60.4 0V817.93m81.29 276.6-19.32 8.98" stroke="#000" stroke-width="2" stroke-miterlimit="10"/><path d="m1094.37 1103.51-15.31-7.21-3.86-1.77m4.14-14.42 1.15.54 10.3 4.76 6.02 2.72 16.17 7.62 16.31 7.49.58.27m53.1 0 18.89-8.71 21.04-9.79 10.59-4.9m-149.85-14.42 72.85 33.6 72.71-33.6" stroke="#000" stroke-width="2" stroke-miterlimit="10"/><path d="m1087.93 1051.27 68.56 31.7 68.55-31.7" stroke="#000" stroke-width="2" stroke-miterlimit="10"/><path d="m1092.08 1036.84 64.41 29.66 64.26-29.66" stroke="#000" stroke-width="2" stroke-miterlimit="10"/><path d="m1096.38 1022.42 60.11 27.76 59.97-27.76" stroke="#000" stroke-width="2" stroke-miterlimit="10"/><path d="m1100.67 1008 55.82 25.71 55.82-25.71" stroke="#000" stroke-width="2" stroke-miterlimit="10"/><path d="m1104.82 993.442 51.67 23.948 51.52-23.948" stroke="#000" stroke-width="2" stroke-miterlimit="10"/><path d="m1109.12 979.021 47.37 21.899 47.23-21.899" stroke="#000" stroke-width="2" stroke-miterlimit="10"/><path d="m1113.27 964.597 43.22 20 43.08-20" stroke="#000" stroke-width="2" stroke-miterlimit="10"/><path d="m1117.56 950.179 38.93 17.959 38.78-17.959" stroke="#000" stroke-width="2" stroke-miterlimit="10"/><path d="m1121.85 935.755 34.64 15.918 34.49-15.918M1126 921.332l30.49 14.013 30.34-14.013m-56.53-14.42 26.19 11.973 26.05-11.973m-47.95-14.559 21.9 10.204 21.76-10.204m-39.51-14.422 17.75 8.163 17.6-8.163m-31.06-14.423 13.46 6.257 13.31-6.257m-22.47-14.418 9.16 4.218 9.16-4.218" stroke="#000" stroke-width="2" stroke-miterlimit="10"/><path d="M405.884 1103.51H270.656l.26-.86 4.019-13.68.648-1.97 2.593-9 2.075-6.78 1.166-4.31 3.242-11.1.129-.37 3.112-10.6 1.556-5.17 1.685-5.92 1.816-6.16 1.166-3.7.26-1.11 1.167-3.94 2.074-7.15.13-.12 1.296-4.44 1.815-6.53 2.723-9 .519-1.972 3.241-11.092 1.037-3.328 2.204-7.641 2.464-8.381.907-2.712 3.242-11.092.648-2.219 2.463-8.381.13-.37 2.074-7.148 1.167-3.944 3.241-11.092.26-.986 2.982-9.984 1.685-6.039 1.556-5.053 3.241-10.969 4.668-15.9 2.334-8.011 2.982 10.476.389.986 3.63 12.449 2.204 7.518 1.037 3.451 3.242 11.092 1.944 6.533 1.297 4.437 3.241 11.092 1.556 5.423 1.686 5.669 3.241 10.97 1.296 4.437.13.493.778 2.588 1.037 3.574 3.241 11.093.649 2.341.389.986 2.204 7.642 2.852 9.86.389 1.232.648 2.219 2.593 8.753v.24l1.816 6.04.907 3.08.519 1.61v.12l3.241 11.09.778 2.59 2.463 8.38 2.982 10.11.26.98 3.241 10.97 1.945 6.54 1.296 4.56 2.982 9.86.26 1.23 2.204 7.39 1.037 3.58 4.278 14.54h-7.779" fill="#A4B635"/><path d="M405.884 1103.51H270.656l.26-.86 4.019-13.68.648-1.97 2.593-9 2.075-6.78 1.166-4.31 3.242-11.1.129-.37 3.112-10.6 1.556-5.17 1.685-5.92 1.816-6.16 1.166-3.7.26-1.11 1.167-3.94 2.074-7.15.13-.12 1.296-4.44 1.815-6.53 2.723-9 .519-1.972 3.241-11.092 1.037-3.328 2.204-7.641 2.464-8.381.907-2.712 3.242-11.092.648-2.219 2.463-8.381.13-.37 2.074-7.148 1.167-3.944 3.241-11.092.26-.986 2.982-9.984 1.685-6.039 1.556-5.053 3.241-10.969 4.668-15.9 2.334-8.011 2.982 10.476.389.986 3.63 12.449 2.204 7.518 1.037 3.451 3.242 11.092 1.944 6.533 1.297 4.437 3.241 11.092 1.556 5.423 1.686 5.669 3.241 10.97 1.296 4.437.13.493.778 2.588 1.037 3.574 3.241 11.093.649 2.341.389.986 2.204 7.642 2.852 9.86.389 1.232.648 2.219 2.593 8.753v.24l1.816 6.04.907 3.08.519 1.61v.12l3.241 11.09.778 2.59 2.463 8.38 2.982 10.11.26.98 3.241 10.97 1.945 6.54 1.296 4.56 2.982 9.86.26 1.23 2.204 7.39 1.037 3.58 4.278 14.54h-7.779M343.65 855.286v248.224" stroke="#000" stroke-width="2" stroke-miterlimit="10"/><path d="m380.99 1103.51 28.783-13.31 2.464-1.23m-105.927 14.54-3.501-1.6-9.854-4.56-5.186-2.47-7.001-3.2-5.834-2.71m140.285 11.46-6.483 3.08m-136.783-3.08 1.945.86 3.63 1.73 1.037.49M408.996 1078l-37.47 17.25-3.501 1.73-14.261 6.53m-20.356 0-15.04-6.9-1.945-.99-15.039-7.02-8.428-3.82-6.353-2.96-2.463-1.11-5.964-2.71m3.242-11.09 62.233 28.71 62.104-28.71" stroke="#000" stroke-width="2" stroke-miterlimit="10"/><path d="m284.656 1055.81 58.992 27.24 58.863-27.24" stroke="#000" stroke-width="2" stroke-miterlimit="10"/><path d="m287.9 1044.84 55.751 25.76 55.621-25.76" stroke="#000" stroke-width="2" stroke-miterlimit="10"/><path d="m291.141 1033.75 52.509 24.28 52.38-24.28" stroke="#000" stroke-width="2" stroke-miterlimit="10"/><path d="m294.383 1022.78 49.268 22.68 49.138-22.68" stroke="#000" stroke-width="2" stroke-miterlimit="10"/><path d="m297.623 1011.69 46.027 21.2 45.897-21.2" stroke="#000" stroke-width="2" stroke-miterlimit="10"/><path d="m300.865 1000.6 42.786 19.72 42.655-19.72" stroke="#000" stroke-width="2" stroke-miterlimit="10"/><path d="m304.107 989.629 39.544 18.241 39.415-18.241" stroke="#000" stroke-width="2" stroke-miterlimit="10"/><path d="m307.348 978.535 36.302 16.762 36.173-16.762" stroke="#000" stroke-width="2" stroke-miterlimit="10"/><path d="m310.59 967.565 33.061 15.161 32.932-15.161" stroke="#000" stroke-width="2" stroke-miterlimit="10"/><path d="m313.961 956.474 29.69 13.681 29.691-13.681" stroke="#000" stroke-width="2" stroke-miterlimit="10"/><path d="m317.201 945.381 26.449 12.324 26.449-12.324m-49.656-10.972 23.208 10.723 23.208-10.723m-43.175-11.089 19.966 9.244 19.967-9.244m-36.691-11.093 16.725 7.764 16.725-7.764m-30.208-10.97 13.484 6.162 13.484-6.162m-23.728-11.092 10.243 4.805 10.242-4.805m-17.243-10.967 7.002 3.205 7.001-3.205" stroke="#000" stroke-width="2" stroke-miterlimit="10"/><path d="M569.245 1103.51H405.883l3.889-13.31 1.427-4.81 2.593-8.63 2.593-8.99 8.297-28.11 4.149-14.05 4.149-14.05 1.037-3.69 1.167-4.19.649-1.85 1.815-6.288 2.722-9.244 2.723-9.244 3.501-11.832 1.945-6.655 4.148-14.297 1.297-4.191 2.334-8.011 2.593-8.874.389-1.602 5.445-18.488.259-.863 1.167-3.82 4.02-13.681 4.019-13.557 9.075-30.936.519-1.726 3.76-12.941 4.278 14.297.13.37 10.372 35.496 13.744 46.711 13.094 44.494.26.986 2.204 7.518 2.463 8.258 4.668 15.776 4.538 15.774 4.667 15.78 4.668 15.77 4.537 15.78 4.02 13.31v.12l.518 1.73 3.501 11.95 3.5 12.08.519 1.73Z" fill="#A4B635" stroke="#000" stroke-width="2" stroke-miterlimit="10"/><path d="M487.564 825.58v277.93" stroke="#000" stroke-width="2" stroke-miterlimit="10"/><path d="M1113.26 1103.51H913.473l6.979-23.76 8.439-28.54v-.16l4.707-16.04 3.571-12.5 8.439-28.699 8.44-28.542 8.439-28.697 8.44-28.543 2.597-8.794 5.843-19.903 1.46-5.091 32.463-110.777 32.13 109.388 29.22 99.205 38.62 131.453Z" fill="#A4B635" stroke="#000" stroke-width="2" stroke-miterlimit="10"/><path d="M1013.29 763.464v340.046" stroke="#000" stroke-width="2" stroke-miterlimit="10"/><path d="M1162.46 1103.51H988.675l.145-.69 7.569-25.74 7.571-25.73 2.76-9.27 4.81-16.33 2.18-7.33 5.39-18.41 1.16-4.008.29-1.246 28.82-98.099 26.2-88.83 86.89 295.683Z" fill="#A4B635" stroke="#000" stroke-width="2" stroke-miterlimit="10"/><path d="M1075.57 1103.51V807.827M803.941 1103.51h5.103" stroke="#000" stroke-width="2" stroke-miterlimit="10"/><path d="M1098.2 776.033s-1.81-1.813-4.93-6.84c-3.12-5.027 1.47-15.905 1.47-15.905l25.37 22.828" fill="#7ACADA"/><path d="M1098.2 776.033s-1.81-1.813-4.93-6.84c-3.12-5.027 1.47-15.905 1.47-15.905l25.37 22.828" stroke="#000" stroke-width="2" stroke-miterlimit="10"/><path d="M1092.32 766.146h16.79" stroke="#000" stroke-width="2" stroke-miterlimit="10" stroke-linecap="round" stroke-linejoin="round"/><path d="M1105.04 766.146c-.17 0-11.42-9.642-11.42-9.642l11.42 9.642Z" fill="#D0A021"/><path d="M1105.04 766.146c-.17 0-11.42-9.642-11.42-9.642" stroke="#000" stroke-width="2" stroke-miterlimit="10" stroke-linecap="round" stroke-linejoin="round"/><path d="M1099.5 766.145c-.17 0-6.75-5.685-6.75-5.685l6.75 5.685Z" fill="#D0A021"/><path d="M1099.5 766.145c-.17 0-6.75-5.685-6.75-5.685" stroke="#000" stroke-width="2" stroke-miterlimit="10" stroke-linecap="round" stroke-linejoin="round"/><path d="M1086.08 776.117c-.17.412 24.16 22.581 39.57 7.335 0 0 5.54-1.072 5.45-4.615-.09-3.544-6.84-2.72-16.97-2.72h-28.05Z" fill="#EA5727" stroke="#000" stroke-width="2" stroke-miterlimit="10"/><path d="m1139.24 779.084-8.14-.247" stroke="#000" stroke-width="2" stroke-miterlimit="10"/><path d="M1125.56 780.318c-.52 0-.95-.406-.95-.906 0-.501.43-.906.95-.906.53 0 .95.405.95.906 0 .5-.42.906-.95.906Z" fill="#000"/><path d="M252.704 773.725s1.818-1.813 4.935-6.84c3.116-5.027-1.472-15.906-1.472-15.906l-25.366 22.828" fill="#FEBE9A"/><path d="M252.704 773.725s1.818-1.813 4.935-6.84c3.116-5.027-1.472-15.906-1.472-15.906l-25.366 22.828" stroke="#000" stroke-width="2" stroke-miterlimit="10"/><path d="M258.59 763.836h-16.795" stroke="#000" stroke-width="2" stroke-miterlimit="10" stroke-linecap="round" stroke-linejoin="round"/><path d="M245.863 763.836c.173 0 11.428-9.642 11.428-9.642l-11.428 9.642Z" fill="#D0A021"/><path d="M245.863 763.836c.173 0 11.428-9.642 11.428-9.642" stroke="#000" stroke-width="2" stroke-miterlimit="10" stroke-linecap="round" stroke-linejoin="round"/><path d="M251.406 763.836c.173 0 6.753-5.686 6.753-5.686l-6.753 5.686Z" fill="#D0A021"/><path d="M251.406 763.836c.173 0 6.753-5.686 6.753-5.686" stroke="#000" stroke-width="2" stroke-miterlimit="10" stroke-linecap="round" stroke-linejoin="round"/><path d="M264.824 773.807c.173.412-24.154 22.58-39.564 7.334 0 0-5.541-1.071-5.454-4.615.086-3.543 6.839-2.719 16.968-2.719h28.05Z" fill="#D8D031" stroke="#000" stroke-width="2" stroke-miterlimit="10"/><path d="m211.668 776.774 8.138-.247" stroke="#000" stroke-width="2" stroke-miterlimit="10"/><path d="M225.346 778.009c.526 0 .952-.405.952-.906 0-.5-.426-.906-.952-.906-.525 0-.951.406-.951.906 0 .501.426.906.951.906Z" fill="#000"/><path d="M1007.97 720.797s-1.82-1.813-4.93-6.84c-3.121-5.027 1.47-15.905 1.47-15.905l25.36 22.827" fill="#39B29C"/><path d="M1007.97 720.797s-1.82-1.813-4.93-6.84c-3.121-5.027 1.47-15.905 1.47-15.905l25.36 22.827" stroke="#000" stroke-width="2" stroke-miterlimit="10"/><path d="M1002.08 710.906h16.89" stroke="#000" stroke-width="2" stroke-miterlimit="10" stroke-linecap="round" stroke-linejoin="round"/><path d="M1014.9 710.909c-.18 0-11.43-9.642-11.43-9.642l11.43 9.642Z" fill="#D0A021"/><path d="M1014.9 710.909c-.18 0-11.43-9.642-11.43-9.642" stroke="#000" stroke-width="2" stroke-miterlimit="10" stroke-linecap="round" stroke-linejoin="round"/><path d="M1009.36 710.906c-.18 0-6.76-5.686-6.76-5.686l6.76 5.686Z" fill="#D0A021"/><path d="M1009.36 710.906c-.18 0-6.76-5.686-6.76-5.686" stroke="#000" stroke-width="2" stroke-miterlimit="10" stroke-linecap="round" stroke-linejoin="round"/><path d="M995.936 720.879c-.173.412 24.154 22.58 39.564 7.334 0 0 5.54-1.071 5.46-4.615-.09-3.543-6.84-2.719-16.97-2.719h-28.054Z" fill="#F9B233" stroke="#000" stroke-width="2" stroke-miterlimit="10"/><path d="m1049.09 723.847-8.13-.246" stroke="#000" stroke-width="2" stroke-miterlimit="10"/><path d="M1035.33 725.082c.52 0 .95-.406.95-.906 0-.501-.43-.906-.95-.906-.53 0-.95.405-.95.906 0 .5.42.906.95.906Z" fill="#000"/><g clip-path="url(#b)"><path d="M738.541 647.097s-7.638 2.957-4.558 12.444c3.08 9.486 19.466 8.131 19.466 8.131s-5.421-24.394-14.908-20.575Z" fill="#EA5727" stroke="#000" stroke-width="2" stroke-miterlimit="10"/><path d="M757.268 646.728s3.82 24.024-15.893 11.581l15.893-11.581Z" fill="#D88532" stroke="#000" stroke-width="2" stroke-miterlimit="10"/><path d="M738.418 653.874a1.109 1.109 0 1 0 0-2.218 1.109 1.109 0 0 0 0 2.218Z" fill="#000"/><path d="M726.591 655.229h7.146" stroke="#000" stroke-width="2" stroke-miterlimit="10"/></g><g clip-path="url(#c)"><path d="M870.457 602.199s20.329-33.758 56.55-11.581c0 0 24.764-36.099 56.92-33.512 32.153 2.588 55.193 33.635 55.193 33.635s26.86-17.125 46.82 11.458" fill="#ECECEC"/><path d="M870.457 602.199s20.329-33.758 56.55-11.581c0 0 24.764-36.099 56.92-33.512 32.153 2.588 55.193 33.635 55.193 33.635s26.86-17.125 46.82 11.458m-239.507-.001h252.937" stroke="#000" stroke-width="2" stroke-miterlimit="10"/></g><g clip-path="url(#d)"><path d="M86.885 674.265s20.328-33.758 56.55-11.581c0 0 24.764-36.099 56.92-33.511 32.156 2.587 55.195 33.634 55.195 33.634s26.858-17.125 46.817 11.458" fill="#ECECEC"/><path d="M86.885 674.265s20.328-33.758 56.55-11.581c0 0 24.764-36.099 56.92-33.511 32.156 2.587 55.195 33.634 55.195 33.634s26.858-17.125 46.817 11.458m-239.507 0h252.936" stroke="#000" stroke-width="2" stroke-miterlimit="10"/></g><g clip-path="url(#e)"><path d="M351.531 595.206s36.468-43.737 80.575-5.051c0 0 18.727-7.762 26.489 5.051H342.414" fill="#DADADA"/><path d="M351.531 595.206s36.468-43.737 80.575-5.051c0 0 18.727-7.762 26.489 5.051H342.414m126.529 0h-10.349" stroke="#000" stroke-width="2" stroke-miterlimit="10"/></g><g clip-path="url(#f)"><path d="M1068.47 710.352s49.71-59.538 109.84-6.876c0 0 25.53-10.566 36.11 6.876h-158.38" fill="#DADADA"/><path d="M1068.47 710.352s49.71-59.538 109.84-6.876c0 0 25.53-10.566 36.11 6.876h-158.38m172.49 0h-14.11" stroke="#000" stroke-width="2" stroke-miterlimit="10"/></g><path d="M40 1103.66v59l15.25-10.05 23.948 26.05 29.855-32.47 24.7 26.86 31.144-33.87 28.674 31.19 39.413-42.88 13.638 14.72 18.042-19.62 26.741 29.09 24.271-26.4 31.143 33.87 27.278-29.67 43.601 47.43 22.66-24.65 25.881 28.15 22.66-24.76 16.753-18.23h28.567l10.417-11.33 23.841 25.94 16.645-17.99 23.519 25.58 41.991-30.96 31.143 19.16 14.928-16.12 26.526 28.85 18.901-20.67 21.263 23.13 17.935-19.51 36.406 39.6 37.05-40.3 23.519 25.58 32.647-35.63 40.916 44.51 26.956-29.32 32.218 35.04 37.16-40.42 30.39 33.06 25.88-28.15 44.68 48.6 11.7-12.74 10.31 11.22 26.74-29.09 15.04 16.35 16.21-17.63 10.85 11.79v-72.31H40Z" fill="#604513" stroke="#000" stroke-width="2" stroke-miterlimit="10"/><circle cx="1198.11" cy="1208.39" r="11.32" fill="#8E6C2B" stroke="#000" stroke-width="2"/><circle cx="1106.94" cy="1187.44" r="11.32" fill="#8E6C2B" stroke="#000" stroke-width="2"/><circle cx="978.81" cy="1186.21" r="11.32" fill="#8E6C2B" stroke="#000" stroke-width="2"/><circle cx="912.28" cy="1193.6" r="11.32" fill="#8E6C2B" stroke="#000" stroke-width="2"/><circle cx="615.332" cy="1182.55" r="11.32" fill="#8E6C2B" stroke="#000" stroke-width="2"/><circle cx="723.779" cy="1188.67" r="11.32" fill="#8E6C2B" stroke="#000" stroke-width="2"/><circle cx="775.524" cy="1200.99" r="11.32" fill="#8E6C2B" stroke="#000" stroke-width="2"/><circle cx="479.836" cy="1200.99" r="11.32" fill="#8E6C2B" stroke="#000" stroke-width="2"/><circle cx="313.512" cy="1166.5" r="11.32" fill="#8E6C2B" stroke="#000" stroke-width="2"/><circle cx="387.434" cy="1191.14" r="11.32" fill="#8E6C2B" stroke="#000" stroke-width="2"/><circle cx="210.021" cy="1199.76" r="11.32" fill="#8E6C2B" stroke="#000" stroke-width="2"/><circle cx="139.795" cy="1191.14" r="11.32" fill="#8E6C2B" stroke="#000" stroke-width="2"/><circle cx="75.731" cy="1205.92" r="11.32" fill="#8E6C2B" stroke="#000" stroke-width="2"/><circle cx="48.906" cy="1181.56" r="5.441" fill="#8E6C2B" stroke="#000" stroke-width="2"/><circle cx="169.644" cy="1164.32" r="5.441" fill="#8E6C2B" stroke="#000" stroke-width="2"/><circle cx="247.947" cy="1168.35" r="5.441" fill="#8E6C2B" stroke="#000" stroke-width="2"/><circle cx="372.929" cy="1161.85" r="5.441" fill="#8E6C2B" stroke="#000" stroke-width="2"/><circle cx="260.816" cy="1193.88" r="5.441" fill="#8E6C2B" stroke="#000" stroke-width="2"/><circle cx="507.222" cy="1166.78" r="5.441" fill="#8E6C2B" stroke="#000" stroke-width="2"/><circle cx="526.348" cy="1188.37" r="3.623" fill="#8E6C2B" stroke="#000" stroke-width="2"/><circle cx="347.154" cy="1187.48" r="3.623" fill="#8E6C2B" stroke="#000" stroke-width="2"/><circle cx="303.35" cy="1193.3" r="3.623" fill="#8E6C2B" stroke="#000" stroke-width="2"/><circle cx="329.223" cy="1213.01" r="3.623" fill="#8E6C2B" stroke="#000" stroke-width="2"/><circle cx="440.106" cy="1184.67" r="3.623" fill="#8E6C2B" stroke="#000" stroke-width="2"/><circle cx="214.42" cy="1165.95" r="3.623" fill="#8E6C2B" stroke="#000" stroke-width="2"/><circle cx="279.393" cy="1159.14" r="3.623" fill="#8E6C2B" stroke="#000" stroke-width="2"/><circle cx="118.545" cy="1220.4" r="3.623" fill="#8E6C2B" stroke="#000" stroke-width="2"/><circle cx="173.987" cy="1198.23" r="3.623" fill="#8E6C2B" stroke="#000" stroke-width="2"/><circle cx="101.297" cy="1184.67" r="3.623" fill="#8E6C2B" stroke="#000" stroke-width="2"/><circle cx="696.369" cy="1164.96" r="3.623" fill="#8E6C2B" stroke="#000" stroke-width="2"/><circle cx="718.546" cy="1214.24" r="3.623" fill="#8E6C2B" stroke="#000" stroke-width="2"/><circle cx="565.774" cy="1179.75" r="3.623" fill="#8E6C2B" stroke="#000" stroke-width="2"/><circle cx="611.36" cy="1211.78" r="3.623" fill="#8E6C2B" stroke="#000" stroke-width="2"/><circle cx="672.961" cy="1183.44" r="3.623" fill="#8E6C2B" stroke="#000" stroke-width="2"/><circle cx="950.168" cy="1200.69" r="3.623" fill="#8E6C2B" stroke="#000" stroke-width="2"/><circle cx="878.71" cy="1185.91" r="3.623" fill="#8E6C2B" stroke="#000" stroke-width="2"/><circle cx="900.886" cy="1166.19" r="3.623" fill="#8E6C2B" stroke="#000" stroke-width="2"/><circle cx="851.606" cy="1194.53" r="3.623" fill="#8E6C2B" stroke="#000" stroke-width="2"/><circle cx="797.396" cy="1184.67" r="3.623" fill="#8E6C2B" stroke="#000" stroke-width="2"/><circle cx="1036.41" cy="1198.23" r="3.623" fill="#8E6C2B" stroke="#000" stroke-width="2"/><circle cx="1067.21" cy="1187.14" r="3.623" fill="#8E6C2B" stroke="#000" stroke-width="2"/><circle cx="1079.53" cy="1208.08" r="3.623" fill="#8E6C2B" stroke="#000" stroke-width="2"/><circle cx="1114.03" cy="1215.47" r="3.623" fill="#8E6C2B" stroke="#000" stroke-width="2"/><circle cx="1052.43" cy="1210.55" r="3.623" fill="#8E6C2B" stroke="#000" stroke-width="2"/><circle cx="1229.84" cy="1220.4" r="3.623" fill="#8E6C2B" stroke="#000" stroke-width="2"/><circle cx="648.906" cy="1164.32" r="5.441" fill="#8E6C2B" stroke="#000" stroke-width="2"/><circle cx="661.226" cy="1207.44" r="5.441" fill="#8E6C2B" stroke="#000" stroke-width="2"/><circle cx="584.666" cy="1167.21" r="5.441" fill="#8E6C2B" stroke="#000" stroke-width="2"/><circle cx="542.951" cy="1160.62" r="5.441" fill="#8E6C2B" stroke="#000" stroke-width="2"/><circle cx="555.271" cy="1204.97" r="5.441" fill="#8E6C2B" stroke="#000" stroke-width="2"/><circle cx="757.325" cy="1176.64" r="5.441" fill="#8E6C2B" stroke="#000" stroke-width="2"/><circle cx="854.656" cy="1169.24" r="5.441" fill="#8E6C2B" stroke="#000" stroke-width="2"/><circle cx="875.6" cy="1211.13" r="5.441" fill="#8E6C2B" stroke="#000" stroke-width="2"/><circle cx="820.158" cy="1202.51" r="5.441" fill="#8E6C2B" stroke="#000" stroke-width="2"/><circle cx="1008.62" cy="1210.55" r="5.441" fill="#8E6C2B" stroke="#000" stroke-width="2"/><circle cx="932.957" cy="1170.82" r="5.441" fill="#8E6C2B" stroke="#000" stroke-width="2"/><circle cx="1172.52" cy="1219.76" r="5.441" fill="#8E6C2B" stroke="#000" stroke-width="2"/><circle cx="1226.73" cy="1193.88" r="5.441" fill="#8E6C2B" stroke="#000" stroke-width="2"/><circle cx="1146.66" cy="1211.47" r="5.441" fill="#8E6C2B" stroke="#000" stroke-width="2"/><circle cx="1047.54" cy="1173.28" r="5.441" fill="#8E6C2B" stroke="#000" stroke-width="2"/><circle cx="417.966" cy="1201.62" r="5.441" fill="#8E6C2B" stroke="#000" stroke-width="2"/><defs><clipPath id="b"><path fill="#fff" transform="translate(726.591 644.51)" d="M0 0h32.156v24.394H0z"/></clipPath><clipPath id="c"><path fill="#fff" transform="translate(846.433 555.751)" d="M0 0h252.936v47.68H0z"/></clipPath><clipPath id="d"><path fill="#fff" transform="translate(62.86 627.817)" d="M0 0h252.936v47.68H0z"/></clipPath><clipPath id="e"><path fill="#fff" transform="translate(342.414 572.906)" d="M0 0h126.53v23.532H0z"/></clipPath><clipPath id="f"><path fill="#fff" transform="translate(1056.04 679.996)" d="M0 0h172.485v32.033H0z"/></clipPath></defs></svg>