<svg width="76" height="20" viewBox="0 0 76 20" fill="none" xmlns="http://www.w3.org/2000/svg">
<g clip-path="url(#clip0_82_3376)">
<path d="M24.9877 12.2223V19.7223H19.3787V12.7779C19.3787 11.6271 18.5774 10.6747 17.5758 10.6747C16.5742 10.6747 15.813 11.6271 15.813 12.7779V19.7223H10.204V12.7779C10.204 11.6271 9.40272 10.6747 8.40112 10.6747C7.39951 10.6747 6.59823 11.6271 6.59823 12.7779V19.7223H0.989258V5.83344H6.03734L6.15753 6.86519C7.23926 6.03185 8.6415 5.55566 10.1239 5.55566C11.8867 5.55566 13.2889 6.23027 14.2905 7.38106C15.4524 6.1509 17.095 5.55566 18.978 5.55566C22.9043 5.55566 24.9877 8.33344 24.9877 12.2223Z" fill="white"/>
<path d="M26.4697 2.38095C26.4697 1.23016 27.6316 0 29.2742 0C30.9569 0 32.0787 1.19048 32.0787 2.38095C32.0787 3.53175 30.9569 4.7619 29.2742 4.7619C27.6316 4.72222 26.4697 3.53175 26.4697 2.38095ZM26.4697 5.83333H32.0787V19.7222H26.4697V5.83333V5.83333Z" fill="white"/>
<path d="M49.1864 12.7779V19.7223H43.5774V12.7779C43.5774 11.6271 42.6159 10.6747 41.4941 10.6747C40.3322 10.6747 39.3707 11.6271 39.3707 12.7779V19.7223H33.7617V5.83344H38.8098L38.8899 6.66677C39.8915 5.95249 41.0934 5.55566 42.4556 5.55566C46.7425 5.55566 49.1864 8.889 49.1864 12.7779Z" fill="white"/>
<path d="M62.0874 18.2142C60.8053 19.4443 59.0425 20.0396 57.1595 20.0396C53.5136 20.0396 50.4688 17.6983 50.4688 14.3253V1.94434H56.0777V5.83322H59.7636V10.4364H56.0777V13.6904C56.0777 15.1586 57.1194 15.5158 58.0409 15.5158C58.8422 15.5158 59.363 15.3173 59.6434 15.1189L62.0874 18.2142Z" fill="white"/>
<path d="M61.4062 12.7779C61.4062 8.76995 64.6514 5.55566 68.6979 5.55566C72.7444 5.55566 75.9896 8.76995 75.9896 12.7779C75.9896 16.7858 72.7444 20.0001 68.6979 20.0001C64.6514 20.0001 61.4062 16.7858 61.4062 12.7779ZM70.3806 12.7779C70.3806 11.6668 69.6595 10.8334 68.6979 10.8334C67.7364 10.8334 67.0152 11.6668 67.0152 12.7779C67.0152 13.889 67.7364 14.7223 68.6979 14.7223C69.6595 14.7223 70.3806 13.889 70.3806 12.7779Z" fill="white"/>
<path d="M68.2573 15.3966L70.3005 10.1585L70.9416 7.5791H70.5009L67.5762 12.3013V15.1188L68.2573 15.3966Z" fill="white"/>
<path d="M72.2234 10.2779C72.1833 10.1192 72.1833 10.1192 72.1432 10.0398C72.0631 9.92077 72.0631 10.5557 71.983 10.4366C71.9429 10.3573 71.7025 9.52395 71.7426 8.65093C71.7426 8.41284 71.7827 8.25411 71.7827 8.17474C71.7827 8.13506 71.7426 8.09538 71.7025 8.17474C71.6224 8.25411 71.5423 8.41284 71.5022 8.41284C71.382 8.41284 71.382 8.05569 71.382 7.85728C71.382 7.65887 71.4221 7.46046 71.4221 7.38109C71.4621 7.26204 71.4621 7.22236 71.382 7.26204C71.342 7.30173 71.2618 7.38109 71.2218 7.30173C71.2218 7.26204 71.1817 6.98427 71.1817 6.86522C71.1817 6.70649 71.1817 6.42871 71.1416 6.42871C71.0214 6.42871 70.9413 6.58744 70.8612 6.66681C70.5807 7.02395 70.14 7.5795 70.0599 7.69855C69.9798 7.77792 69.9397 7.65887 69.9397 7.5795C69.9397 7.50014 69.8596 7.61919 69.7795 7.65887C69.5791 7.85728 69.0984 8.25411 68.5775 8.4922C68.4974 8.53189 68.4173 8.53189 68.4173 8.45252C68.4173 8.33347 68.4173 8.21443 68.4573 8.17474C68.4974 8.09538 68.4173 8.09538 68.3371 8.17474C68.257 8.21443 67.2955 8.92871 66.6544 9.32554C65.4525 10.0795 64.8516 11.389 64.8516 12.7779C64.8516 14.9208 66.5743 16.6271 68.7378 16.6271C70.9013 16.6271 72.624 14.9208 72.624 12.7779C72.624 11.9843 72.5038 11.0319 72.2234 10.2779ZM69.6593 9.76204C69.2586 10.2779 68.4573 11.1509 68.1368 13.6906C68.0968 14.0874 68.0567 14.9208 67.9766 14.9605C67.9365 14.9605 67.8964 15.0001 67.8564 14.9605C67.7762 14.9208 67.6561 14.1668 67.8964 13.0557C68.3371 10.9128 69.5391 9.643 70.14 8.80966C70.3804 8.45252 70.6208 7.93665 70.7009 7.73823C70.741 7.69855 70.741 7.69855 70.741 7.73823C70.7009 7.85728 70.7009 8.37316 69.6593 9.76204Z" fill="#AAC930"/>
</g>
<defs>
<clipPath id="clip0_82_3376">
<rect width="75" height="20" fill="white" transform="translate(0.989258)"/>
</clipPath>
</defs>
</svg>
