<svg width="154" height="97" viewBox="0 0 154 97" fill="none" xmlns="http://www.w3.org/2000/svg">
<path d="M128.665 57.9495C128.665 57.9495 127.558 56.8375 125.661 53.7545C123.763 50.6715 126.557 44 126.557 44L142 58" fill="#009FE3"/>
<path fill-rule="evenodd" clip-rule="evenodd" d="M125.682 43.0502L126.401 43.3655C125.682 43.0502 125.682 43.05 125.682 43.0502L125.681 43.0527L125.679 43.0578L125.672 43.0757C125.665 43.0911 125.657 43.1131 125.646 43.1415C125.623 43.1984 125.592 43.2807 125.552 43.3859C125.474 43.5962 125.364 43.8982 125.24 44.2702C124.992 45.0128 124.681 46.0417 124.433 47.1817C124.185 48.3177 123.995 49.589 124 50.8096C124.006 52.0198 124.204 53.2591 124.805 54.2662C125.806 55.9441 126.604 57.0942 127.157 57.8311C127.434 58.1996 127.65 58.4648 127.799 58.641C127.874 58.7291 127.932 58.795 127.974 58.8404C127.994 58.8631 128.01 58.8808 128.022 58.8935L128.037 58.9089L128.042 58.9139L128.043 58.9158L128.044 58.9165C128.044 58.9167 128.045 58.9172 128.596 58.3427C129.147 57.7683 129.148 57.7684 129.148 57.7686L129.143 57.7635C129.137 57.7572 129.127 57.7459 129.112 57.7295C129.082 57.6967 129.035 57.6434 128.971 57.5679C128.843 57.4168 128.647 57.1767 128.389 56.8329C127.872 56.1453 127.106 55.0434 126.132 53.4112C125.745 52.7632 125.567 51.8657 125.562 50.8019C125.557 49.7485 125.723 48.6083 125.956 47.5398C126.188 46.4752 126.48 45.5065 126.715 44.8026C126.72 44.7893 126.724 44.7761 126.729 44.7629L141.955 59L143 57.7939L126.108 42L125.682 43.0502Z" fill="#2C2C2C"/>
<path fill-rule="evenodd" clip-rule="evenodd" d="M136 51.5C136 51.2239 135.656 51 135.232 51H124.768C124.344 51 124 51.2239 124 51.5C124 51.7761 124.344 52 124.768 52H135.232C135.656 52 136 51.7761 136 51.5Z" fill="#2C2C2C"/>
<path d="M133 52C132.894 52 126 46 126 46L133 52Z" fill="#D0A021"/>
<path fill-rule="evenodd" clip-rule="evenodd" d="M126.171 45.1714C125.874 44.9154 125.426 44.9501 125.171 45.2489C124.916 45.5477 124.95 45.9974 125.248 46.2534L125.71 45.7124L126.171 45.1714ZM132.649 50.6726C132.644 50.669 132.639 50.6648 132.632 50.66C132.587 50.6253 132.519 50.5704 132.427 50.4953C132.244 50.3462 131.986 50.1311 131.676 49.8703C131.056 49.3494 130.238 48.6539 129.422 47.9573C128.606 47.2609 127.794 46.5644 127.185 46.0419C126.88 45.7807 126.627 45.5631 126.45 45.4107L126.171 45.1714C126.171 45.1714 126.171 45.1714 125.71 45.7124C125.248 46.2534 125.248 46.2534 125.248 46.2534L125.527 46.4932C125.704 46.6458 125.958 46.8637 126.263 47.1251C126.872 47.648 127.686 48.3453 128.503 49.0428C129.32 49.7399 130.141 50.4382 130.765 50.9627C131.076 51.2245 131.341 51.445 131.532 51.6008C131.626 51.6781 131.707 51.743 131.768 51.79C131.797 51.8126 131.829 51.8368 131.859 51.8575C131.873 51.8669 131.897 51.8836 131.927 51.9006C131.94 51.9086 131.968 51.9244 132.005 51.9402C132.005 51.9404 132.006 51.9407 132.007 51.941C132.024 51.9487 132.138 52 132.291 52C132.682 52 133 51.6811 133 51.2876C133 51.0254 132.859 50.7962 132.649 50.6726Z" fill="#2C2C2C"/>
<path d="M129 52C128.897 52 125 48 125 48L129 52Z" fill="#D0A021"/>
<path fill-rule="evenodd" clip-rule="evenodd" d="M125 46.9996C124.71 47.3155 124.368 47.756 124.278 48.3275L124.802 47.7556L125.327 47.1838C124.992 46.9108 125.29 46.6838 125 46.9996ZM128.848 51.9249C128.854 51.928 129.002 51.9998 129.198 51.9998C129.641 51.9998 130 51.6614 130 51.244C130 50.9585 130.251 51.1284 130.003 50.9998C129.979 50.9828 129.524 50.5383 129.475 50.5014C129.355 50.4118 129.184 50.2803 128.977 50.1177C128.563 49.7939 128.02 49.3603 127.479 48.9248C126.937 48.4897 126.399 48.0544 125.997 47.7278C125.795 47.5645 125.628 47.4284 125.511 47.3332L125.327 47.1838L124.802 47.7556L124.278 48.3275L124.463 48.4778C124.58 48.5734 124.748 48.7098 124.95 48.8736C125.354 49.201 125.894 49.6378 126.438 50.0748C126.981 50.5114 127.53 50.9499 127.951 51.2801C128.161 51.4446 128.344 51.5856 128.479 51.6868C128.546 51.7365 128.609 51.7822 128.661 51.8177C128.686 51.8343 128.72 51.8569 128.756 51.8781C128.773 51.888 128.806 51.9065 128.848 51.9249Z" fill="#2C2C2C"/>
<path d="M121.001 58.0521C120.893 58.3103 136.023 72.2055 145.607 62.6493C145.607 62.6493 149.053 61.9778 148.999 59.7567C148.946 57.5355 144.746 58.0521 138.446 58.0521C132.146 58.0521 121.001 58.0521 121.001 58.0521Z" fill="#D88532"/>
<path fill-rule="evenodd" clip-rule="evenodd" d="M148.361 59.3557C148.403 59.4213 148.439 59.5137 148.443 59.6692C148.459 60.3389 147.971 60.8832 147.161 61.3189C146.783 61.5223 146.395 61.666 146.097 61.7591C145.95 61.8053 145.828 61.8379 145.744 61.8586C145.703 61.8689 145.671 61.8762 145.651 61.8807L145.63 61.8854L145.627 61.886L145.626 61.8861L145.396 61.9325L145.228 62.1051C140.717 66.7437 134.867 65.7721 129.911 63.3935C127.454 62.2137 125.287 60.7161 123.74 59.494C123.369 59.2003 123.034 58.9237 122.741 58.6725H138.501C139.627 58.6725 140.672 58.6565 141.632 58.6417C143.456 58.6138 144.977 58.5905 146.178 58.6902C147.095 58.7664 147.7 58.9085 148.061 59.1052C148.23 59.197 148.315 59.285 148.361 59.3557ZM120.779 57.8634V57.0542H120.262L120.061 57.5499C119.958 57.8053 120.013 58.0269 120.029 58.0886C120.052 58.1751 120.084 58.24 120.101 58.2721C120.136 58.3396 120.175 58.394 120.198 58.4244C120.248 58.4917 120.309 58.5628 120.371 58.6297C120.498 58.7684 120.677 58.9483 120.899 59.1579C121.346 59.5795 121.993 60.1462 122.798 60.7824C124.407 62.0534 126.671 63.6204 129.259 64.8627C134.342 67.3028 140.96 68.6028 146.162 63.4185C146.264 63.3922 146.394 63.3561 146.545 63.3088C146.902 63.1973 147.386 63.0197 147.876 62.7563C148.802 62.2584 150.038 61.2872 149.999 59.6297C149.989 59.2033 149.88 58.8036 149.653 58.4532C149.43 58.1081 149.123 57.8566 148.784 57.6718C148.13 57.3155 147.259 57.1565 146.302 57.0771C145.029 56.9713 143.383 56.9962 141.5 57.0247C140.555 57.039 139.549 57.0542 138.501 57.0542H120.779C120.779 57.0542 120.779 57.0542 120.779 57.8634Z" fill="#2C2C2C"/>
<path fill-rule="evenodd" clip-rule="evenodd" d="M149 60.8179L153.955 61L154 59.1821L149.045 59L149 60.8179Z" fill="#2C2C2C"/>
<path d="M145.5 61C145.224 61 145 60.5523 145 60C145 59.4477 145.224 59 145.5 59C145.776 59 146 59.4477 146 60C146 60.5523 145.776 61 145.5 61Z" fill="#2C2C2C"/>
<path d="M85.8805 14.9495C85.8805 14.9495 84.7086 13.8375 82.6995 10.7545C80.6904 7.67148 83.6482 1 83.6482 1L100 15" fill="#D88532"/>
<path fill-rule="evenodd" clip-rule="evenodd" d="M83.1082 0L100 14.8649L98.9554 16L83.7286 2.60042C83.7242 2.61276 83.7198 2.62518 83.7154 2.6377C83.48 3.30027 83.1876 4.21199 82.9557 5.21391C82.723 6.21956 82.557 7.29269 82.5618 8.28418C82.5666 9.28538 82.7454 10.1301 83.1321 10.74C84.1061 12.2762 84.8721 13.3132 85.3885 13.9604C85.6468 14.2839 85.8426 14.51 85.9708 14.6521C86.0349 14.7232 86.0821 14.7733 86.1117 14.8042C86.1265 14.8196 86.137 14.8302 86.1429 14.8363L86.1476 14.841C86.1475 14.8409 86.1474 14.8407 85.596 15.3814C85.0446 15.922 85.0445 15.9219 85.0443 15.9217L85.0433 15.9207L85.0415 15.919L85.0367 15.9143L85.0222 15.8997C85.0103 15.8878 84.9941 15.8712 84.9736 15.8498C84.9325 15.8071 84.8742 15.7451 84.7994 15.6621C84.6499 15.4963 84.4342 15.2467 84.1574 14.8999C83.6039 14.2063 82.8061 13.1239 81.8049 11.5446C81.2039 10.5968 81.0056 9.43045 81.0001 8.29135C80.9946 7.14255 81.1852 5.94611 81.4326 4.8769C81.6809 3.80398 81.9919 2.83555 82.2401 2.1367C82.3645 1.78655 82.4737 1.50231 82.5523 1.30439C82.5917 1.20539 82.6234 1.12787 82.6456 1.07438C82.6567 1.04763 82.6655 1.02688 82.6716 1.01244L82.6787 0.995564L82.6808 0.990748L82.6815 0.989259C82.6815 0.989067 82.6818 0.988387 83.4013 1.28513L82.6818 0.988387L83.1082 0Z" fill="#2C2C2C"/>
<path fill-rule="evenodd" clip-rule="evenodd" d="M81 9C81 8.44772 81.3136 8 81.7005 8H91.2995C91.6864 8 92 8.44772 92 9C92 9.55228 92.8869 10 92.5 10H81.7005C81.3136 10 81 9.55228 81 9Z" fill="#2C2C2C"/>
<path d="M90 9C89.8939 9 83 3 83 3L90 9Z" fill="#D0A021"/>
<path fill-rule="evenodd" clip-rule="evenodd" d="M82.5 2.5C82.7868 2.15853 82.983 1.9032 83.3177 2.19574L82.7984 2.81402L82.2791 3.4323C81.9444 3.13976 82.2132 2.84147 82.5 2.5ZM90.6051 8.4828C90.8415 8.62413 91.0002 8.886 91.0002 9.1857C91.0002 9.63535 90.6429 9.99985 90.202 9.99985C90.0309 9.99985 89.9021 9.94127 89.8826 9.9324L89.8807 9.93156C89.8397 9.91343 89.8082 9.89539 89.7926 9.88625C89.7596 9.86682 89.7321 9.84774 89.7168 9.83698C89.6833 9.81329 89.6472 9.78564 89.6142 9.75981C89.5457 9.70614 89.4548 9.63201 89.3482 9.54365C89.1335 9.36558 88.8358 9.11361 88.4855 8.81433C87.7837 8.21496 86.86 7.4169 85.9412 6.62014C85.022 5.82308 84.1065 5.02614 83.4209 4.42854C83.0781 4.12972 82.7927 3.8807 82.593 3.70637L82.2791 3.4323C82.2791 3.4323 82.2791 3.4323 82.7984 2.81402C83.3177 2.19574 83.3177 2.19574 83.3177 2.19574L83.6309 2.46924C83.8304 2.64336 84.1155 2.89212 84.458 3.19065C85.143 3.78774 86.0574 4.58372 86.9752 5.37958C87.8933 6.17574 88.8134 6.9706 89.5104 7.56593C89.8593 7.86399 90.1497 8.10981 90.3552 8.28018C90.4588 8.36605 90.536 8.42881 90.5866 8.46848C90.5936 8.47397 90.5998 8.47872 90.6051 8.4828Z" fill="#2C2C2C"/>
<path d="M87 9C86.8974 9 83 5 83 5L87 9Z" fill="#D0A021"/>
<path fill-rule="evenodd" clip-rule="evenodd" d="M82.1952 5.26162C82.4849 4.94579 82.9913 4.91103 83.3265 5.18397L82.802 5.75582L82.2776 6.32767C81.9425 6.05472 81.9056 5.57744 82.1952 5.26162ZM87.5841 8.58161C87.832 8.71018 88 8.9587 88 9.24419C88 9.66161 87.6409 10 87.198 10C87.0013 10 86.8536 9.92821 86.8472 9.92512C86.8059 9.90672 86.773 9.88823 86.7559 9.87832C86.7192 9.8571 86.6852 9.83454 86.6606 9.81786C86.6085 9.7824 86.5457 9.73669 86.479 9.68698C86.3433 9.58579 86.1608 9.44483 85.9508 9.28031C85.5294 8.95013 84.9803 8.51157 84.4372 8.07503C83.8936 7.63803 83.3537 7.20123 82.9499 6.87379C82.748 6.71004 82.58 6.57357 82.4624 6.47802L82.2776 6.32767L82.802 5.75582L83.3265 5.18397L83.5102 5.33341C83.6273 5.42862 83.7948 5.56468 83.9962 5.72796C84.399 6.0546 84.937 6.48989 85.4782 6.92498C86.0201 7.36053 86.5629 7.79407 86.9763 8.11796C87.1837 8.28047 87.3543 8.41204 87.4744 8.50162C87.5239 8.5385 87.56 8.56467 87.5841 8.58161Z" fill="#2C2C2C"/>
<path d="M78.0006 15.0521C77.8891 15.3103 93.5595 29.2055 103.486 19.6493C103.486 19.6493 107.055 18.9778 106.999 16.7567C106.944 14.5355 102.594 15.0521 96.069 15.0521C89.6001 15.0521 78.0006 15.0521 78.0006 15.0521Z" fill="#58AD50"/>
<path fill-rule="evenodd" clip-rule="evenodd" d="M106.665 15.4532C106.884 15.8036 106.989 16.2033 106.999 16.6296C107.037 18.2872 105.842 19.2584 104.947 19.7563C104.473 20.0197 104.005 20.1973 103.661 20.3088C103.514 20.3561 103.388 20.3922 103.289 20.4185C98.2612 25.6028 91.8641 24.3028 86.9501 21.8627C84.4484 20.6204 82.26 19.0533 80.7051 17.7824C79.9267 17.1462 79.3013 16.5795 78.8693 16.1579C78.6544 15.9483 78.481 15.7684 78.3583 15.6297C78.2991 15.5628 78.2395 15.4917 78.1911 15.4244C78.1692 15.394 78.1316 15.3396 78.0975 15.2721C78.0813 15.24 78.0505 15.1751 78.0282 15.0886C78.0123 15.0269 77.9595 14.8053 78.0593 14.5499L78.253 14.0542H78.753V14.8633C78.753 14.0542 78.7529 14.0542 78.753 14.0542H95.8838C96.8972 14.0542 97.8694 14.039 98.7838 14.0247C100.604 13.9962 102.194 13.9713 103.425 14.0771C104.35 14.1565 105.192 14.3155 105.825 14.6718C106.152 14.8566 106.449 15.1081 106.665 15.4532ZM80.65 15.6725H95.8838C96.9726 15.6725 97.9825 15.6565 98.9112 15.6417C100.674 15.6138 102.144 15.5905 103.305 15.6902C104.192 15.7663 104.777 15.9084 105.126 16.1052C105.289 16.197 105.371 16.285 105.416 16.3557C105.457 16.4212 105.491 16.5137 105.495 16.6692C105.51 17.3389 105.039 17.8832 104.256 18.3189C103.89 18.5223 103.515 18.666 103.227 18.7591C103.085 18.8053 102.967 18.8379 102.886 18.8586C102.846 18.8689 102.815 18.8762 102.796 18.8807L102.775 18.8854L102.773 18.8859L102.549 18.9325L102.387 19.1051C98.0267 23.7437 92.3711 22.7721 87.581 20.3935C85.2051 19.2137 83.1108 17.7161 81.6157 16.494C81.2564 16.2004 80.933 15.9237 80.65 15.6725Z" fill="#2C2C2C"/>
<path fill-rule="evenodd" clip-rule="evenodd" d="M107.045 16L112 16.1821L111.955 18L107 17.8179L107.045 16Z" fill="#2C2C2C"/>
<path d="M103 18C103.552 18 104 17.7761 104 17.5C104 17.2239 103.552 17 103 17C102.448 17 102 17.2239 102 17.5C102 17.7761 102.448 18 103 18Z" fill="#2C2C2C"/>
<path d="M8.50243 95.8482C8.50243 95.8482 42.5122 54.9582 83.6456 91.1257C83.6456 91.1257 101.11 83.8692 108.349 95.8482H0" fill="#DADADA"/>
<path d="M8.50243 95.8482C8.50243 95.8482 42.5122 54.9582 83.6456 91.1257C83.6456 91.1257 101.11 83.8692 108.349 95.8482H0" stroke="black" stroke-width="2" stroke-miterlimit="10"/>
<path d="M118 95.8481H108.349" stroke="black" stroke-width="2" stroke-miterlimit="10"/>
</svg>
