<svg width="80" height="55" viewBox="0 0 80 55" fill="none" xmlns="http://www.w3.org/2000/svg">
<mask id="mask0_258_844" style="mask-type:alpha" maskUnits="userSpaceOnUse" x="0" y="0" width="80" height="55">
<rect width="80" height="55" fill="#D9D9D9"/>
</mask>
<g mask="url(#mask0_258_844)">
<path fill-rule="evenodd" clip-rule="evenodd" d="M-45.1645 1.54482C-42.2015 -0.514939 -38.2702 -0.514939 -35.3073 1.54482L-0.107124 26.015L35.093 1.54482C38.056 -0.514939 41.9873 -0.514939 44.9503 1.54482L80.1504 26.015L115.351 1.54482C118.313 -0.514939 122.245 -0.514939 125.208 1.54482L160.408 26.015L195.608 1.54482C198.571 -0.514939 202.502 -0.514939 205.465 1.54482L240.665 26.015L275.866 1.54482C278.828 -0.514939 282.76 -0.514939 285.723 1.54482L320.923 26.015L356.123 1.54482C359.086 -0.514939 363.017 -0.514939 365.98 1.54482L401.18 26.015L436.381 1.54482C439.344 -0.514939 443.275 -0.514939 446.238 1.54482L481.438 26.015L516.638 1.54482C519.601 -0.514939 523.532 -0.514939 526.495 1.54482L566.624 29.4412C570.54 32.1632 571.507 37.544 568.785 41.4596C566.063 45.3752 560.682 46.3428 556.767 43.6208L521.567 19.1506L486.367 43.6208C483.404 45.6805 479.472 45.6805 476.509 43.6208L441.309 19.1506L406.109 43.6208C403.146 45.6805 399.215 45.6805 396.252 43.6208L361.052 19.1506L325.852 43.6208C322.889 45.6805 318.957 45.6805 315.994 43.6208L280.794 19.1506L245.594 43.6208C242.631 45.6805 238.7 45.6805 235.737 43.6208L200.537 19.1506L165.337 43.6208C162.374 45.6805 158.442 45.6805 155.479 43.6208L120.279 19.1506L85.079 43.6208C82.1161 45.6805 78.1847 45.6805 75.2218 43.6208L40.0216 19.1506L4.8215 43.6208C1.85856 45.6805 -2.07279 45.6805 -5.03574 43.6208L-40.2359 19.1506L-75.436 43.6208C-79.3516 46.3428 -84.7324 45.3752 -87.4544 41.4596C-90.1764 37.544 -89.2088 32.1632 -85.2933 29.4412L-45.1645 1.54482Z" fill="#58AD50" fill-opacity="0.1"/>
</g>
</svg>
