<svg width="1280" height="1034" fill="none" xmlns="http://www.w3.org/2000/svg"><mask id="a" style="mask-type:alpha" maskUnits="userSpaceOnUse" x="-652" y="0" width="2737" height="1034"><path d="M-652 .197h2737V1033.2H-652V.197Z" fill="#C4C4C4"/></mask><g mask="url(#a)" fill-rule="evenodd" clip-rule="evenodd" fill="#D88532" fill-opacity=".1"><path d="M645.5 975.414c174.918 0 316.717-141.799 316.717-316.717 0-174.918-141.799-316.717-316.717-316.717-174.918 0-316.717 141.799-316.717 316.717 0 174.918 141.799 316.717 316.717 316.717Zm0 47.786c201.308 0 364.5-163.195 364.5-364.503s-163.192-364.5-364.5-364.5S281 457.389 281 658.697 444.192 1023.2 645.5 1023.2Z"/><path d="M645.5 855.4c108.636 0 196.703-88.067 196.703-196.703 0-108.636-88.067-196.703-196.703-196.703-108.636 0-196.703 88.067-196.703 196.703 0 108.636 88.067 196.703 196.703 196.703Zm0 47.797c135.034 0 244.5-109.466 244.5-244.5 0-135.033-109.466-244.5-244.5-244.5S401 523.664 401 658.697c0 135.034 109.466 244.5 244.5 244.5Z"/><path d="M645.5 1094.45c236.242 0 428.79-194.294 428.79-435.253 0-240.958-192.548-435.251-428.79-435.251-236.242 0-428.789 194.293-428.789 435.251 0 240.959 192.547 435.253 428.789 435.253Zm0 47.75c263.164 0 476.5-216.249 476.5-483.003 0-266.753-213.336-483-476.5-483S169 392.444 169 659.197c0 266.754 213.336 483.003 476.5 483.003Z"/><path d="M645.5 1213.43c305.84 0 553.77-248.139 553.77-554.233 0-306.094-247.93-554.232-553.77-554.232S91.728 353.103 91.728 659.197c0 306.094 247.932 554.233 553.772 554.233Zm0 47.77c332.199 0 601.5-269.527 601.5-602.003 0-332.475-269.301-602-601.5-602S44 326.722 44 659.197C44 991.673 313.301 1261.2 645.5 1261.2Z"/></g><path d="M93.358 605.612c109.068-61.284 181.429-75.552 195.059-53.446-1.923-4.151 60.293-.343 102.584-46.682 34.179-37.45 63.432-15.015 79.708-16.872 35.399 10.031 92.437-6.311 111.968 34.705 33.365-17.833 102.048-54.168 109.86-56.843 9.765-3.344 87.888 11.146 123.287 39.01 28.32 22.291 101.316 21.177 134.274 17.833 32.551-2.229 106.202-.892 140.372 22.292 34.18 23.183 72.84 66.874 87.89 85.822l41.5 129.29-167.23 65.76c-94.394 4.087-285.877 12.037-296.619 11.146-10.741-.892-406.481 18.204-603.008 27.864 0 0-99.07 34.443-80.565-10.031 18.505-44.475 16.564-75.781 9.821-128.24-7.046-54.818-15.135-106.867 11.099-121.608Z" fill="#C0CF63"/><path d="M128.925 684.929c74.501-41.861 123.929-51.607 133.239-36.507-1.313-2.836 41.184-.235 70.072-31.887 23.346-25.581 43.328-10.256 54.446-11.525 24.18 6.852 63.141-4.311 76.482 23.706 22.79-12.181 69.705-37.001 75.041-38.828 6.671-2.284 60.034 7.613 84.214 26.647 19.344 15.226 69.206 14.465 91.718 12.181 22.235-1.523 72.54-.609 95.887 15.227 23.346 15.835 49.75 45.679 60.033 58.622l28.349 88.314-114.23 44.918c-64.48 2.792-195.276 8.223-202.613 7.614-7.337-.609-277.655 12.435-411.896 19.033 0 0-67.671 23.527-55.031-6.852 12.64-30.379 11.314-51.764 6.708-87.597-4.813-37.444-10.338-72.997 7.581-83.066Z" fill="#A4B635"/><path d="M933.153 622.347c-74.501-41.861-123.929-51.607-133.239-36.507 1.313-2.836-41.184-.235-70.072-31.887-23.346-25.581-43.328-10.256-54.446-11.525-24.18 6.852-63.141-4.311-76.482 23.706-22.79-12.181-69.705-37.001-75.041-38.828-6.671-2.284-60.034 7.613-84.214 26.647-19.344 15.226-69.205 14.465-91.718 12.181-22.235-1.523-72.54-.609-95.887 15.227-23.346 15.835-49.75 45.679-60.033 58.622l-28.349 88.314 114.23 44.918c64.48 2.792 195.276 8.223 202.613 7.614 7.338-.609 277.655 12.435 411.896 19.033 0 0 67.671 23.527 55.031-6.852-12.64-30.379-11.314-51.764-6.708-87.597 4.813-37.444 10.338-72.997-7.581-83.066Z" fill="#A4B635"/><path d="M419.515 653.177c74.501-41.861 123.929-51.607 133.239-36.507-1.313-2.836 41.184-.235 70.072-31.887 23.346-25.581 43.328-10.256 54.446-11.525 24.18 6.852 63.141-4.311 76.481 23.706 22.791-12.181 69.706-37.001 75.042-38.828 6.671-2.284 60.034 7.614 84.214 26.647 19.344 15.226 102.151-9.241 124.661-11.525 22.24-1.523 25.63 43.568 48.98 59.404 23.34 15.835 63.71 25.208 74 38.151l28.35 88.314-114.23 44.919c-64.48 2.791-195.28 8.222-202.617 7.613-7.338-.609-277.655 12.435-411.896 19.033 0 0-67.671 23.527-55.031-6.852 12.64-30.379 11.314-51.763 6.708-87.597-4.813-37.444-10.338-72.997 7.581-83.066Z" fill="#A4B635"/><path d="M40.344 1033.04H1235.09V926.365l-763.944-51.67-430.802 83.339v75.006Z" fill="gray"/><path d="m78.678 784.689-38.334 60.004 11.93 38.099-11.93 64.873v27.037h50.2c13.69-6.667 42.714-20.002 49.286-20.002 8.214 0 51.112-5 67.541-10 16.429-5.001 80.319.833 101.311 0 16.794-.667 59.935-5.278 79.407-7.501h72.104c28.294 4.167 85.795 12.501 89.446 12.501 4.564 0 41.985-12.501 49.287-12.501h36.509l31.032 25.002c10.04 5.834 31.397 17.501 36.509 17.501h48.374c5.111 0 17.95-11.667 23.73-17.501h41.985l52.025 17.501 40.159 4.167 46.549-13.334h34.683c5.842 0 24.949 8.889 33.769 13.334h32.86l41.07-29.169 26.47 7.501 25.56-12.501 33.77 25.002 51.02-.113 1-46.92-5.56-38.2-12.46-38.2 6.23-49.578 11.79-57.004-22.82-52.504-88.53-22.501-48.37 40.002-99.49 9.168-94.009 45.003-82.145-45.003-76.668-14.168-62.065-44.17-62.977-20.834-112.264-6.667-73.93 6.667-38.334 30.002-30.12 35.002-56.588 14.168-29.207 30.835H159.91l-81.232 35.002Z" fill="#9F9F9F"/><path d="M461.556 663.053c-9.768-10.796-13.208-22.37-13.636-26.673l35.178-3.162c6.928 5.835 19.461 18.58 20.749 27.053 1.611 10.592-3.061 6.473-5.8 11.033-2.738 4.561 6.928 11.622 5.8 18.242-1.127 6.619 10.15 16.77 19.172 12.062 9.023-4.707 7.297-21.919 10.473-31.039 3.176-9.121 14.174-16.329 23.522-21.919 7.477-4.472 8.579-8.883 8.148-11.02 5.478.372 16.584 1.159 17.721 1.159 1.486 0-8.227 12.529-19.151 16.637-10.925 4.107-17.994 7.627-16.066 25.23 1.928 17.603-29.56 14.67-17.35 45.181 12.209 30.512 21.849 21.124 28.275 50.462 6.426 29.338-13.495 20.537 0 68.651 13.495 48.115 32.13 28.165 36.629 49.875 4.498 21.71 35.344 19.363 49.481 42.247 14.138 22.884-19.921 32.859-25.062 32.859-5.141 0-10.282 14.082-7.711 22.297 2.57 8.212 46.911 5.867 53.337 5.867h79.684c10.282 0 46.911 11.145 56.55 13.495 7.712 1.88 28.918 15.26 38.557 21.71H277.768l16.708-8.8 23.134-8.8v-17.605l-28.275-5.867h-59.121c-3.084 0-60.406 7.822-88.681 11.732L40 992.228v-22.297h50.767l62.976-21.711 38.557-7.628h44.983c4.498 0 57.835 2.934 63.619 2.934 5.783 0 16.065-2.347 27.633-29.338 11.567-26.991 38.557-21.71 24.419-62.784-14.138-41.073-28.275-47.527-12.21-59.263 16.066-11.735 26.348 1.174 26.348-24.644 0-25.817 32.131-29.338 68.117-32.858 35.987-3.521 12.853-12.909 26.347-21.124 13.495-8.215 10.282-11.735 13.495-22.884 3.213-11.148-1.285-14.082-13.495-27.578Z" fill="#AEDAE3"/><path d="M426.52 818.778c-19.504-.869-48.522 3.909-50.9 5.212l-6.66 7.384h26.164l37.58-3.474c7.611 1.158 24.071 3.474 29.018 3.474 6.184 0 23.31-3.474 27.115-3.474 3.045 0 24.42 2.316 34.726 3.474L548.3 827.9c-.317-3.041-3.235-9.991-12.368-13.466-9.134-3.474-41.545-1.448-56.609 0-11.1 1.738-37.2 5.039-52.803 4.344Zm62.317 39.527c19.821 2.171 61.176 6.602 68.026 6.949 6.342 4.344 18.457 13.118 16.174 13.465-2.284.348-17.443 1.883-24.737 2.607-9.831-3.62-30.826-10.859-36.153-10.859h-27.591c-4.281 0-17.601 1.303-30.445-5.213-10.275-5.212-17.284-6.805-19.504-6.949-7.611 2.316-23.595 6.949-26.639 6.949H355.64l-2.378-12.596 32.348-5.212c9.038.868 27.59 2.085 29.493 0 2.379-2.607 30.445 2.606 33.299 2.606 2.284 0 27.908 5.502 40.435 8.253Zm-4.281-127.267c11.1-.724 35.487-1.738 44.24 0 2.379 1.592 7.136 5.125 7.136 6.515 0 1.39-13.32-.579-19.98-1.737h-31.396l-11.893 4.778h-39.959l-14.747 6.949-27.59 5.647 17.601-9.556 34.25-7.818h15.698c3.045 0 19.029-3.186 26.64-4.778Zm13.795-59.073c-4.598-.145-14.842-.347-19.028 0h-7.779l7.779-2.675 9.514-1.202 9.514 3.877Zm20.061 38.678c-11.285-1.122-34.903-3.366-39.089-3.366l-13.572 12.983h9.479c2.567 0 7.373.48 11.322 0 3.16-.385 9.183-4.969 11.799-7.213 3.528.481 10.951 1.442 12.425 1.442 1.475 0 9.139.802 12.787 1.203l2.485-6.732-7.636 1.683Zm31.07-54.816c3.335-.08 10.532-.192 12.639 0l-7.899 2.644h-7.9l3.16-2.644Zm-4.739 23.08c-2.937.08-8.811.193-8.811 0l-3.606 1.247 1.232-3.937h6.16l5.025-1.157v3.847Z" fill="#81BFCC"/><path d="M775.088 651.9c3.57-12.986 10.79-39.521 11.112-41.77l47.612-11.811 12.366-5.94c10.162 10.824 30.729 32.748 31.698 33.855.969 1.108.058 2.423-.519 2.942l-31.179 22.055-71.09.669Z" fill="#000" stroke="#000"/><path d="m918.51 723.692 316.58 309.318H269.877l360.11-360.106 163.488-7.981 125.035 58.769Z" fill="#FEBE9A" stroke="#000" stroke-linecap="round" stroke-linejoin="bevel"/><path d="m939.022 895.013-7.877-17.32 3.125-2.806 17.763-4.411 21.954-7.078c-19.545 9.951-32.428 24.283-34.965 31.615Zm-361.725 7.118 16.653-18.621-2.818-4.739-20.532-12.483-24.741-17.465c20.597 20.122 31.129 43.126 31.438 53.308Z" fill="#000" stroke="#000" stroke-linecap="round" stroke-linejoin="bevel"/><path d="m667.572 1032.39 124.551-359.631c3.709-5.402 11.609-16.011 13.544-15.237 2.418.968 8.706 1.935 9.432 1.935.58 0 10.561 2.902 15.478 4.353l20.073-13.301 48.128 42.081c44.419 48.208 135.702 143.653 138.412 146.749 2.71 3.096 1.13 4.192 0 4.353-32.65 9.916-100.442 31.734-103.344 32.702-2.902.967-2.623 1.567-2.419 1.935l70.133 154.061H667.572Z" fill="#FE6F54" stroke="#000"/><path d="M799.483 652.433c-1.048-8.142-3.192-24.62-3.386-25.394l-1.693-10.157c-15.285-4.644-17.332-21.767-16.445-29.748-2.177-1.934-2.661-4.111-1.21-6.529 1.451-2.419 4.595-5.321 7.739-11.609 2.516-5.031 6.853-7.739 8.707-8.465 12.657 4.434 39.421 13.157 45.225 12.576 7.256-.725 11.609 0 14.027 9.916 1.935 7.933-9.835 13.463-15.961 15.236l11.85 49.337c-2.418 3.87-10.883 9.674-25.636 11.851-11.802 1.741-21.878-3.668-23.217-7.014Zm-93.456-65.287-8.548 23.695 40.713 19.112 6.772-23.459c18.38-1.935 23.459-18.381 23.701-26.362 6.578-4.45 2.741-9.27 0-11.125-1.161-13.736-11.77-22.975-16.929-25.877-12.093 6.207-38.164 18.38-45.709 17.413-9.433-1.209-13.786.242-16.446 11.367-2.128 8.9 10.077 13.866 16.446 15.236Z" fill="#FEBE9A" stroke="#000"/><path d="M846.852 709.727c5.03-13.931 8.402-29.21 9.37-35.095l17.475-15.451c20.315 8.948 36.277 38.937 39.179 44.016 2.902 5.079 9.916 32.649 8.707 39.421-.968 5.417-6.208 4.837-8.707 3.869-.483 12.093-.967 29.989-6.53 32.408-4.45 1.935-7.497-2.58-8.464-5.079-.161 2.66-2.177 8.223-8.949 9.19-6.771.968-8.303-9.109-8.222-14.269-.807 3.144-4.305 8.562-11.851 5.079-6.917-3.192-6.775-23.835-5.648-36.257-.905 4.177-3.873 9.261-11.281 9.412-11.851.242-11.367-19.831-5.079-37.244Z" fill="#FEBE9A"/><path d="M863.212 737.559c-.905 4.177-3.873 9.261-11.281 9.412-11.851.242-11.367-19.831-5.079-37.244 5.03-13.931 8.402-29.21 9.37-35.095l17.475-15.451c20.315 8.948 36.277 38.937 39.179 44.016 2.902 5.079 9.916 32.649 8.707 39.421-.968 5.417-6.208 4.837-8.707 3.869-.483 12.093-.967 29.989-6.53 32.408-4.45 1.935-7.497-2.58-8.464-5.079-.161 2.66-2.177 8.223-8.949 9.19-6.771.968-8.303-9.109-8.222-14.269-.807 3.144-4.305 8.562-11.851 5.079-6.917-3.192-6.775-23.835-5.648-36.257Zm0 0c.253-1.168.345-2.265.328-3.164-.115.974-.225 2.035-.328 3.164Z" stroke="#000"/><path d="M667.09 1032.38H520.773l66.508-153.088c-30.473-20.395-94.131-63.119-96.066-64.474-1.935-1.354-.806-2.66 0-3.144 30.472-31.117 99.936-98.579 125.088-125.859 25.152-27.28 59.01-42.807 72.796-47.16l8.383-27.825 42.062 14.458c-.161.726-.819 4.128-2.56 11.674-1.741 7.545 2.338 9.109 4.595 8.948l58.074 6.52-132.563 379.95Zm184.286-371.714-3.386-13.302c9.094 1.355 21.041 8.465 25.878 11.851l-17.655 15.478c.58-4.644-2.983-11.286-4.837-14.027Z" fill="#517CDD" stroke="#000"/><path d="M742.138 616.21c-2.554-4.1-8.265-12.569-8.935-13.6 4.766 4.058 11.769 3.842 11.769 3.842s-1.395 6.345-2.834 9.758Zm53.718 10.845-1.828-10.245c12.16 1.242 15.419-1.876 15.942-1.876.419 0-9.341 8.09-14.114 12.121Z" fill="#000"/><path d="M742.138 616.21c-2.554-4.1-8.265-12.569-8.935-13.6 4.766 4.058 11.769 3.842 11.769 3.842s-1.395 6.345-2.834 9.758Zm53.718 10.845-1.828-10.245c12.16 1.242 15.419-1.876 15.942-1.876.419 0-9.341 8.09-14.114 12.121Z" stroke="#000" stroke-linecap="round"/><path d="M794.281 558.66c5.567-5.868 13.089-5.567 14.217-5.642-2.482-9.253 6.094-15.948 14.595-10.908 6.8 4.032 3.886 11.409 1.579 14.594 6.394 3.084 14.143 12.487 13.691 15.496-.451 3.009-14.744 6.545-23.32 5.642-8.576-.902-26.329-13.315-20.762-19.182Z" fill="#000" stroke="#000"/><path fill-rule="evenodd" clip-rule="evenodd" d="M792.993 673.082 667.79 1032.38h-.909l125.198-359.616.914.318Z" fill="#000" stroke="#000"/><path d="M830.879 679.772c-14.898 2.322-19.068-12.745-19.149-20.645 1.935.483 8.941.951 19.149-1.559 10.246-2.52 15.493-6.846 17.347-10.232 1.209.967 3.694 2.447 4.661 8.493.968 6.047-3.386 21.041-22.008 23.943Z" fill="#F6DDFA" stroke="#000"/><path d="M787.347 663.244c3.289-8.513 8.69-10.854 12.157-10.854 1.354 3.289 8.334 4.947 12.246 6.736-1.048 1.693-2.06 6.531-7.09 11.174-6.288 5.805-21.424 3.585-17.313-7.056Z" fill="#F6DDFA" stroke="#000"/><path fill-rule="evenodd" clip-rule="evenodd" d="m888.538 785.768 44.09 92.856-.874.415-44.09-92.856.874-.415Zm-228.244-58.852-73.435 153.271-.873-.418 73.435-153.271.873.418Zm-136.527 76.748-15.362 22.727-.802-.542 15.363-22.727.801.542Zm20.254 13.632-15.833 22.402-.79-.558 15.833-22.402.79.558Zm17.17 11.495-15.49 22.64-.799-.547 15.491-22.639.798.546Zm17.727 12.105-15.491 22.64-.798-.546 15.491-22.64.798.546Z" fill="#000" stroke="#000"/><path d="M751.112 541.884c3.711 3.358-7.527 11.146-10.437 13.277-18.922 12.925-30.113 10.249-34.416 6.192-4.303-4.057 2.459-19.302 17.581-24.466 15.122-5.164 24.69 2.661 27.272 4.997Z" fill="#020403" stroke="#000"/><path fill-rule="evenodd" clip-rule="evenodd" d="M696.316 569.879a1.29 1.29 0 0 1-.237-.02.483.483 0 0 1 .184-.949s0 0 0 0l.061.002c.052 0 .121-.002.211-.005l.125-.004c.157-.006.349-.012.564-.015.555-.007 1.283.013 2.082.155 1.602.283 3.509 1.058 4.891 3.075a.483.483 0 1 1-.797.547c-1.195-1.741-2.832-2.416-4.263-2.67a10.198 10.198 0 0 0-1.901-.14c-.202.003-.379.009-.535.015l-.135.004a7.76 7.76 0 0 1-.25.005Zm60.099 6.217c.267 0 .484.216.484.484 0 .62.486 2.176 2.728 2.64a.484.484 0 1 1-.196.947c-2.74-.567-3.5-2.561-3.5-3.587 0-.268.217-.484.484-.484Zm83.861 7.091c1.457-.29 2.878-.184 3.757.007a.483.483 0 1 1-.205.945c-.767-.166-2.052-.264-3.363-.003-1.306.26-2.591.867-3.442 2.066a.483.483 0 0 1-.789-.56c1.039-1.464 2.582-2.164 4.042-2.455Zm-49.697.855c.267.01.476.233.467.5a3.78 3.78 0 0 1-.892 2.244c-.651.763-1.692 1.337-3.243 1.337a.483.483 0 1 1 0-.967c1.285 0 2.051-.463 2.508-.998a2.816 2.816 0 0 0 .66-1.649.484.484 0 0 1 .5-.467Z" fill="#000" stroke="#000" stroke-linecap="round"/><path d="M751.54 562.392c-.412 1.033-.957 1.875-1.485 2.404-.265.265-.508.434-.709.519-.199.083-.322.073-.397.043-.074-.03-.171-.107-.257-.304-.088-.2-.148-.49-.157-.865-.019-.747.165-1.733.578-2.766.412-1.034.958-1.876 1.486-2.405.264-.265.507-.433.708-.518.199-.084.322-.073.397-.044.074.03.171.107.257.305.088.2.148.489.157.864.019.747-.165 1.733-.578 2.767Zm40.026 9.111c-.676-.676-1.135-1.406-1.346-2.022-.221-.649-.121-1.007.022-1.15.144-.144.501-.244 1.151-.022.615.21 1.345.67 2.022 1.346.676.676 1.136 1.407 1.346 2.022.221.65.121 1.007-.022 1.15-.143.144-.501.244-1.151.022-.615-.21-1.345-.669-2.022-1.346Zm-33.084-4.371a.951.951 0 1 1-1.903 0 .951.951 0 0 1 1.903 0Zm31.466 8.777a.951.951 0 1 1-1.903 0 .951.951 0 0 1 1.903 0Z" fill="#000" stroke="#000"/><path d="M805.596 583.018a3.417 3.417 0 1 1-6.834 0 3.417 3.417 0 0 1 6.834 0Z" fill="#FD6E53" stroke="#000"/><path fill-rule="evenodd" clip-rule="evenodd" d="M866.262 707.652a.484.484 0 0 1 .43.532l-3.014 28.767a.484.484 0 0 1-.962-.101l3.014-28.767a.484.484 0 0 1 .532-.431Zm44.268 16.497a.485.485 0 0 1 .538.424l2.47 20.88a.483.483 0 1 1-.961.113l-2.47-20.88a.483.483 0 0 1 .423-.537Zm-30.286 4.171a.484.484 0 0 1 .49.478l.516 38.929a.483.483 0 1 1-.967.013l-.517-38.93a.484.484 0 0 1 .478-.49Zm16.067 1.084a.484.484 0 0 1 .503.464l1.654 42.402a.484.484 0 0 1-.967.038l-1.654-42.402a.484.484 0 0 1 .464-.502Zm-48.265 5.86c-.979 2.086-1.48 4.625-1.703 6.38a.482.482 0 1 1-.959-.122c.228-1.796.745-4.45 1.786-6.669 1.031-2.198 2.664-4.14 5.185-4.14 1.71 0 2.967.523 3.861 1.425.882.888 1.362 2.094 1.628 3.375.267 1.284.328 2.688.335 4.015.003.538-.002 1.056-.008 1.551-.008.748-.016 1.443.008 2.069a.484.484 0 0 1-.967.037c-.025-.644-.016-1.386-.008-2.159.005-.491.011-.994.008-1.493-.007-1.311-.068-2.637-.315-3.823-.247-1.188-.671-2.189-1.367-2.891-.684-.689-1.678-1.139-3.175-1.139-1.932 0-3.32 1.475-4.309 3.584Zm67.463 8.167c.054.52.103.985.103 1.283a.484.484 0 0 1-.968 0c0-.244-.039-.627-.091-1.12l-.065-.644c-.075-.777-.144-1.688-.107-2.531.037-.824.176-1.677.59-2.273.216-.312.513-.56.904-.684.386-.122.818-.109 1.287.019 1.504.411 2.39 1.628 2.889 2.875.5 1.25.651 2.614.638 3.498a.484.484 0 0 1-.968-.015c.012-.787-.126-2.018-.568-3.123-.443-1.108-1.155-2.004-2.246-2.302-.342-.093-.578-.081-.74-.029a.757.757 0 0 0-.402.313c-.248.357-.382.971-.417 1.763-.034.772.029 1.626.103 2.396l.058.574Zm-47.018 20.285c-.813 1.949-1.091 4.407-1.091 6.08a.484.484 0 0 1-.968 0c0-1.745.286-4.343 1.166-6.452.441-1.056 1.045-2.025 1.871-2.694.84-.681 1.888-1.033 3.152-.873 2.529.321 3.961 2.335 4.731 4.529.774 2.204.939 4.731.858 6.388a.483.483 0 1 1-.966-.047c.077-1.576-.084-3.969-.804-6.021-.724-2.061-1.955-3.637-3.941-3.889-.994-.126-1.78.144-2.421.664-.656.532-1.181 1.342-1.587 2.315Zm37.646 3.177c-.475-.525-1.057-.824-1.798-.812-.734.012-1.319.341-1.802.913-.493.585-.871 1.418-1.145 2.388-.547 1.94-.643 4.282-.559 5.848a.483.483 0 1 1-.966.052c-.088-1.628.008-4.086.594-6.163.293-1.037.719-2.016 1.336-2.749.628-.744 1.462-1.239 2.526-1.256 1.059-.017 1.896.428 2.532 1.131.622.689 1.051 1.622 1.345 2.612.588 1.981.684 4.342.596 5.91a.483.483 0 1 1-.966-.054c.084-1.504-.012-3.744-.558-5.581-.273-.919-.647-1.699-1.135-2.239Zm-21.389 5.13c-.62 2.211-.663 5.066-.506 7.029a.484.484 0 1 1-.964.077c-.162-2.017-.125-5 .538-7.367.33-1.18.832-2.265 1.595-2.987.791-.749 1.829-1.074 3.105-.773 2.449.578 3.967 2.478 4.87 4.515.903 2.037 1.229 4.291 1.254 5.754a.484.484 0 0 1-.967.017c-.024-1.365-.332-3.485-1.172-5.379-.84-1.896-2.172-3.485-4.207-3.965-.965-.228-1.668.012-2.218.533-.578.547-1.018 1.437-1.328 2.546Z" fill="#000" stroke="#000" stroke-linecap="round"/><path d="M581.553 758.272c-1.845 1.165-3.723 1.844-5.253 2.019-1.568.178-2.592-.184-3.009-.845-.418-.661-.305-1.74.53-3.08.815-1.307 2.235-2.711 4.08-3.876 1.844-1.165 3.722-1.844 5.252-2.018 1.568-.179 2.592.183 3.009.844.418.661.305 1.741-.53 3.08-.815 1.307-2.235 2.711-4.079 3.876Zm146.77 31.404c-1.844 1.165-3.722 1.845-5.252 2.019-1.569.178-2.592-.184-3.01-.845-.417-.661-.304-1.74.531-3.08.814-1.307 2.235-2.71 4.079-3.875 1.845-1.166 3.722-1.845 5.252-2.019 1.569-.179 2.592.183 3.01.844.417.661.305 1.741-.531 3.081-.814 1.306-2.234 2.71-4.079 3.875Zm-117.347-68.558c.005-2.181.438-4.131 1.111-5.516.69-1.419 1.544-2.089 2.326-2.088.782.002 1.633.676 2.316 2.099.667 1.389 1.09 3.34 1.085 5.522-.005 2.181-.438 4.131-1.111 5.516-.69 1.42-1.544 2.09-2.326 2.088-.782-.002-1.633-.676-2.316-2.099-.667-1.388-1.09-3.34-1.085-5.522Zm147.037-32.994c.005-2.181.438-4.131 1.111-5.516.69-1.42 1.545-2.09 2.326-2.088.782.002 1.633.676 2.316 2.099.667 1.388 1.091 3.34 1.085 5.522-.005 2.181-.438 4.131-1.111 5.516-.69 1.419-1.544 2.089-2.326 2.088-.782-.002-1.633-.676-2.316-2.099-.667-1.389-1.09-3.34-1.085-5.522ZM539.648 796.236c.005-2.182.438-4.132 1.111-5.516.69-1.42 1.544-2.09 2.326-2.088.782.001 1.633.676 2.316 2.099.667 1.388 1.09 3.339 1.085 5.521-.005 2.182-.438 4.131-1.111 5.516-.69 1.42-1.544 2.09-2.326 2.088-.782-.002-1.633-.676-2.316-2.099-.667-1.388-1.09-3.34-1.085-5.521Zm165.596-168.607c.006-2.182.439-4.131 1.112-5.516.69-1.42 1.544-2.09 2.326-2.088.782.002 1.633.676 2.316 2.099.666 1.388 1.09 3.34 1.085 5.521-.005 2.182-.438 4.132-1.111 5.516-.691 1.42-1.545 2.09-2.327 2.088-.781-.001-1.632-.675-2.316-2.099-.666-1.388-1.09-3.339-1.085-5.521Zm5.641 44.378c1.795-1.241 3.643-1.997 5.164-2.235 1.56-.243 2.598.076 3.042.719.445.643.377 1.727-.402 3.1-.76 1.339-2.121 2.801-3.915 4.041-1.795 1.241-3.643 1.998-5.165 2.235-1.559.243-2.597-.076-3.041-.719-.445-.643-.377-1.727.402-3.1.759-1.339 2.12-2.801 3.915-4.041Zm10.725 33.313c1.794-1.24 3.642-1.997 5.164-2.234 1.56-.244 2.597.076 3.042.719.444.643.376 1.726-.403 3.099-.759 1.34-2.12 2.801-3.915 4.042-1.794 1.24-3.643 1.997-5.164 2.234-1.56.244-2.597-.075-3.042-.719-.444-.643-.376-1.726.402-3.099.76-1.34 2.121-2.801 3.916-4.042Zm-44.871 121.438c-2.167.259-4.154.065-5.61-.435-1.493-.513-2.262-1.28-2.355-2.056-.093-.777.473-1.703 1.803-2.554 1.297-.829 3.183-1.486 5.35-1.745 2.166-.259 4.153-.066 5.61.435 1.493.513 2.261 1.279 2.354 2.056.093.776-.473 1.702-1.803 2.553-1.297.83-3.183 1.487-5.349 1.746Zm-.93 103.098c-2.166.259-4.154.066-5.61-.435-1.493-.513-2.262-1.279-2.354-2.056-.093-.776.473-1.702 1.803-2.553 1.297-.83 3.183-1.487 5.349-1.746 2.166-.259 4.154-.065 5.61.435 1.493.513 2.261 1.28 2.354 2.056.093.777-.473 1.703-1.803 2.554-1.297.829-3.183 1.486-5.349 1.745ZM610.168 975.7c-2.166.259-4.153.066-5.61-.435-1.493-.513-2.261-1.28-2.354-2.056-.093-.776.473-1.702 1.803-2.553 1.297-.83 3.183-1.487 5.349-1.746 2.166-.259 4.154-.065 5.61.435 1.493.513 2.262 1.28 2.355 2.056.092.776-.474 1.703-1.803 2.553-1.298.83-3.183 1.487-5.35 1.746Zm43.737-204.835c1.794-1.24 3.642-1.997 5.164-2.234 1.56-.244 2.597.075 3.042.719.444.643.376 1.726-.403 3.099-.759 1.34-2.12 2.801-3.915 4.042-1.795 1.24-3.643 1.997-5.164 2.234-1.56.244-2.597-.076-3.042-.719-.444-.643-.376-1.726.402-3.099.76-1.34 2.121-2.801 3.916-4.042Zm-48.779 11.619c-.511-2.121-.552-4.117-.226-5.622.334-1.543 1.005-2.396 1.765-2.58.76-.183 1.747.27 2.748 1.491.976 1.191 1.85 2.987 2.361 5.108.512 2.12.553 4.117.226 5.622-.334 1.543-1.005 2.396-1.765 2.579-.76.184-1.746-.27-2.747-1.491-.977-1.19-1.85-2.986-2.362-5.107Zm73.365-126.902c1.794-1.24 3.642-1.997 5.164-2.235 1.559-.243 2.597.076 3.042.719.444.643.376 1.727-.403 3.1-.759 1.34-2.12 2.801-3.915 4.041-1.795 1.241-3.643 1.998-5.164 2.235-1.56.243-2.597-.076-3.042-.719-.445-.643-.376-1.726.402-3.1.76-1.339 2.121-2.8 3.916-4.041Zm0 51.126c1.794-1.24 3.642-1.997 5.164-2.235 1.559-.243 2.597.076 3.042.719.444.643.376 1.727-.403 3.1-.759 1.339-2.12 2.801-3.915 4.041-1.795 1.241-3.643 1.998-5.164 2.235-1.56.243-2.597-.076-3.042-.719-.445-.643-.376-1.726.402-3.1.76-1.339 2.121-2.8 3.916-4.041Zm23.494 152.354c1.794-1.241 3.642-1.998 5.164-2.235 1.56-.243 2.597.076 3.042.719.444.643.376 1.726-.403 3.1-.759 1.339-2.12 2.8-3.915 4.041-1.794 1.24-3.643 1.997-5.164 2.235-1.56.243-2.597-.076-3.042-.719-.444-.643-.376-1.727.402-3.1.76-1.339 2.121-2.801 3.916-4.041Zm55.421-203.022c2.107.564 3.88 1.483 5.046 2.489 1.196 1.031 1.624 2.028 1.422 2.783-.203.756-1.072 1.405-2.623 1.701-1.513.288-3.508.197-5.615-.368s-3.88-1.483-5.046-2.489c-1.196-1.031-1.624-2.029-1.422-2.784.203-.755 1.072-1.405 2.623-1.7 1.513-.288 3.508-.197 5.615.368Zm-87.94 227.449c2.107.564 3.88 1.483 5.046 2.489 1.195 1.031 1.624 2.028 1.421 2.784-.202.755-1.072 1.404-2.623 1.7-1.512.288-3.507.197-5.614-.368-2.108-.564-3.881-1.483-5.047-2.489-1.195-1.031-1.624-2.029-1.421-2.784.202-.755 1.072-1.404 2.623-1.7 1.512-.288 3.507-.197 5.615.368Zm51.07-58.275c2.107.565 3.88 1.484 5.046 2.489 1.196 1.032 1.624 2.029 1.422 2.784-.203.755-1.072 1.405-2.623 1.7-1.513.289-3.508.197-5.615-.367-2.107-.565-3.881-1.483-5.046-2.489-1.196-1.032-1.624-2.029-1.422-2.784.202-.755 1.072-1.405 2.623-1.7 1.513-.288 3.508-.197 5.615.367Zm14.526-80.432c-.571-2.106-.669-4.1-.385-5.614.29-1.552.937-2.423 1.692-2.628.754-.205 1.753.221 2.788 1.413 1.01 1.162 1.934 2.933 2.505 5.038.571 2.106.669 4.1.385 5.614-.29 1.552-.937 2.423-1.692 2.628-.754.205-1.753-.22-2.788-1.413-1.01-1.162-1.934-2.933-2.505-5.038ZM574.754 1002.27c1.595 1.49 2.728 3.13 3.284 4.57.57 1.47.48 2.55-.054 3.12-.533.57-1.606.74-3.114.27-1.471-.46-3.189-1.48-4.783-2.96-1.595-1.49-2.728-3.14-3.284-4.57-.571-1.48-.48-2.56.054-3.129.533-.571 1.606-.735 3.114-.267 1.47.456 3.188 1.476 4.783 2.966Zm58.575-68.92c1.585-1.499 3.297-2.527 4.765-2.993 1.505-.477 2.579-.319 3.116.25.537.568.634 1.649.072 3.124-.547 1.44-1.671 3.091-3.257 4.589-1.585 1.498-3.297 2.527-4.765 2.992-1.505.477-2.579.319-3.116-.249-.537-.568-.634-1.65-.072-3.125.547-1.439 1.671-3.09 3.257-4.588Zm23.101 48.707c-.571-2.105-.668-4.1-.385-5.613.291-1.552.937-2.424 1.692-2.629.754-.204 1.753.221 2.788 1.413 1.01 1.163 1.934 2.933 2.505 5.039.571 2.105.669 4.1.385 5.613-.29 1.552-.937 2.424-1.692 2.629-.754.204-1.753-.221-2.788-1.413-1.009-1.163-1.934-2.933-2.505-5.039Zm-39.428-97.341c-.571-2.105-.668-4.1-.385-5.613.291-1.552.938-2.424 1.692-2.628.755-.205 1.753.22 2.788 1.412 1.01 1.163 1.934 2.933 2.505 5.039.572 2.105.669 4.1.386 5.613-.291 1.552-.938 2.424-1.692 2.629-.755.204-1.754-.221-2.789-1.413-1.009-1.163-1.933-2.933-2.505-5.039Zm-30.904 45.21c-.571-2.105-.668-4.1-.385-5.613.291-1.552.937-2.424 1.692-2.628.754-.205 1.753.22 2.788 1.412 1.01 1.163 1.934 2.933 2.505 5.039.571 2.105.669 4.1.385 5.613-.29 1.552-.937 2.424-1.692 2.629-.754.204-1.753-.221-2.788-1.413-1.009-1.163-1.934-2.933-2.505-5.039Zm42.029-94.628c-.571-2.105-.668-4.1-.385-5.613.291-1.552.938-2.424 1.692-2.628.755-.205 1.753.22 2.788 1.412 1.01 1.163 1.934 2.933 2.505 5.039.572 2.105.669 4.1.386 5.613-.291 1.552-.938 2.424-1.692 2.629-.755.204-1.754-.221-2.789-1.413-1.009-1.163-1.933-2.933-2.505-5.039Zm65.258-72.997c-.571-2.105-.668-4.1-.385-5.613.291-1.552.937-2.424 1.692-2.628.754-.205 1.753.22 2.788 1.412 1.01 1.163 1.934 2.933 2.505 5.039.571 2.105.669 4.1.385 5.613-.29 1.552-.937 2.424-1.692 2.629-.754.204-1.753-.221-2.788-1.413-1.009-1.163-1.933-2.933-2.505-5.039Zm-53.443-71.955c-.571-2.105-.669-4.1-.385-5.613.29-1.552.937-2.424 1.692-2.629.754-.204 1.753.221 2.788 1.413 1.009 1.163 1.933 2.933 2.505 5.039.571 2.105.668 4.1.385 5.613-.291 1.552-.937 2.424-1.692 2.629-.754.204-1.753-.221-2.788-1.413-1.01-1.163-1.934-2.933-2.505-5.039Zm-57.863 127.422c.503-2.123 1.368-3.923 2.339-5.118.996-1.225 1.98-1.683 2.741-1.503.761.18 1.436 1.03 1.777 2.572.332 1.503.3 3.5-.202 5.623s-1.368 3.923-2.339 5.118c-.995 1.225-1.98 1.683-2.74 1.503-.761-.18-1.436-1.03-1.777-2.572-.333-1.503-.301-3.5.201-5.623Zm53.615 196.752c-.571-2.11-.669-4.1-.385-5.62.29-1.55.937-2.42 1.692-2.62.754-.21 1.753.22 2.788 1.41 1.009 1.16 1.933 2.93 2.505 5.04.571 2.1.668 4.1.385 5.61-.291 1.55-.937 2.42-1.692 2.63-.754.2-1.753-.22-2.788-1.41-1.01-1.17-1.934-2.94-2.505-5.04Z" fill="#AEDAE3" stroke="#000"/><path fill-rule="evenodd" clip-rule="evenodd" d="m701.82 624.65 3.879-10.999.457.161-3.879 10.998-.457-.16Zm12.67 4.399 3.879-10.998.457.161-3.88 10.998-.456-.161Zm11.34 4.007 3.879-10.998.456.16-3.879 10.999-.456-.161Z" fill="#000" stroke="#000"/><path d="m773.485 830.489-.009-.001h-.009c-1.141-.008-2.507-.57-3.887-1.645-1.372-1.069-2.717-2.615-3.812-4.512-1.359-2.357-2.052-4.772-2.095-6.756-.043-2.005.572-3.444 1.665-4.074.956-.552 2.259-.479 3.727.249 1.46.724 3.003 2.063 4.34 3.874l.382.517.407-.497c1.427-1.742 3.035-3.001 4.53-3.651 1.503-.653 2.807-.66 3.734-.061 1.06.685 1.602 2.153 1.458 4.153-.142 1.98-.956 4.356-2.432 6.641-1.189 1.841-2.611 3.317-4.035 4.315-1.432 1.004-2.824 1.497-3.964 1.448Zm62.139-34.001-.008.002-.008.003c-1.077.379-2.552.314-4.215-.229-1.653-.54-3.443-1.537-5.117-2.951-2.078-1.755-3.549-3.791-4.263-5.644-.72-1.871-.63-3.433.184-4.397.712-.843 1.962-1.217 3.59-1.03 1.619.185 3.525.921 5.397 2.171l.535.357.214-.606c.751-2.123 1.837-3.853 3.022-4.971 1.192-1.124 2.417-1.573 3.492-1.325 1.23.285 2.237 1.482 2.781 3.412.538 1.911.579 4.423-.034 7.073-.494 2.134-1.331 4.005-2.331 5.427-1.007 1.431-2.15 2.367-3.239 2.708Z" fill="#F6DDFA" stroke="#000"/><path d="m872.254 851.497-.009-.001h-.008c-1.141-.045-2.488-.65-3.833-1.768-1.338-1.111-2.634-2.699-3.668-4.631-1.283-2.398-1.9-4.833-1.879-6.818.02-2.005.68-3.424 1.793-4.02.973-.52 2.272-.407 3.717.367 1.436.77 2.936 2.157 4.215 4.01l.365.529.423-.484c1.481-1.696 3.129-2.904 4.643-3.506 1.523-.605 2.827-.57 3.734.058 1.038.718 1.533 2.202 1.326 4.197-.205 1.974-1.094 4.324-2.641 6.561-1.247 1.801-2.714 3.232-4.169 4.184-1.464.959-2.871 1.407-4.009 1.322Z" fill="#D9D9D9" stroke="#000"/><path d="m832.099 944.4-.009.001h-.009c-1.137.102-2.55-.326-4.027-1.264-1.468-.932-2.956-2.341-4.228-4.125-1.58-2.215-2.502-4.551-2.735-6.522-.235-1.992.238-3.483 1.266-4.216.898-.641 2.202-.694 3.733-.11 1.523.58 3.188 1.764 4.693 3.439l.429.478.358-.534c1.252-1.871 2.732-3.28 4.157-4.07 1.434-.794 2.732-.927 3.712-.42 1.121.58 1.801 1.989 1.85 3.994.049 1.984-.533 4.428-1.782 6.844-1.007 1.946-2.28 3.552-3.601 4.683-1.329 1.137-2.668 1.761-3.807 1.822Zm17.847 59.07h-.018c-1.135-.12-2.441-.81-3.712-2.01-1.264-1.19-2.456-2.859-3.365-4.852-1.129-2.475-1.589-4.945-1.442-6.924.148-2.001.897-3.374 2.045-3.898 1.004-.458 2.294-.261 3.686.603 1.385.859 2.793 2.339 3.952 4.27l.33.551.453-.456c1.586-1.598 3.307-2.699 4.857-3.203 1.558-.507 2.857-.39 3.723.295.99.782 1.389 2.295 1.056 4.273-.33 1.957-1.367 4.245-3.054 6.379-1.358 1.722-2.914 3.052-4.426 3.912-1.522.86-2.955 1.22-4.085 1.06Zm-103.863-77.456-.009.001-.009.003c-1.103.291-2.568.107-4.182-.569-1.604-.671-3.308-1.81-4.862-3.355-1.929-1.917-3.232-4.065-3.793-5.969-.567-1.924-.351-3.473.538-4.369.778-.782 2.054-1.054 3.662-.737 1.598.316 3.439 1.203 5.204 2.601l.504.399.263-.587c.919-2.055 2.141-3.692 3.413-4.711 1.279-1.024 2.536-1.373 3.588-1.038 1.203.383 2.11 1.657 2.496 3.625.382 1.948.22 4.455-.606 7.047-.664 2.087-1.649 3.885-2.761 5.222-1.119 1.344-2.333 2.185-3.446 2.437Zm40.714-169.744-.008-.003-.008-.004c-1.057-.429-2.119-1.456-3.004-2.965-.88-1.5-1.559-3.434-1.875-5.601-.392-2.692-.144-5.192.55-7.052.701-1.879 1.804-2.989 3.053-3.171 1.092-.159 2.275.39 3.371 1.609 1.089 1.212 2.028 3.026 2.601 5.204l.163.621.563-.311c1.969-1.092 3.929-1.668 5.558-1.719 1.638-.051 2.852.424 3.492 1.323.733 1.028.693 2.592-.18 4.398-.863 1.787-2.498 3.695-4.714 5.272-1.784 1.271-3.651 2.118-5.343 2.519-1.702.404-3.178.347-4.219-.12Zm41.793-43.22h-.009l-.009-.001c-1.139-.053-2.482-.667-3.82-1.795-1.329-1.122-2.613-2.719-3.633-4.657-1.267-2.408-1.866-4.848-1.831-6.832.035-2.005.705-3.419 1.822-4.007.977-.513 2.276-.39 3.714.394 1.431.78 2.921 2.178 4.187 4.04l.361.532.426-.481c1.494-1.686 3.15-2.882 4.668-3.472 1.528-.594 2.831-.551 3.734.084 1.033.725 1.517 2.213 1.296 4.206-.22 1.973-1.125 4.316-2.689 6.542-1.259 1.793-2.737 3.212-4.199 4.155-1.47.947-2.881 1.385-4.018 1.292Zm114.402 70.439-.008-.004-.008-.003c-1.057-.43-2.119-1.456-3.004-2.965-.88-1.5-1.559-3.434-1.874-5.602-.393-2.692-.144-5.191.549-7.051.701-1.879 1.804-2.989 3.053-3.171 1.092-.159 2.276.39 3.371 1.609 1.089 1.212 2.028 3.026 2.601 5.203l.164.622.562-.312c1.969-1.091 3.929-1.667 5.558-1.718 1.638-.052 2.853.424 3.493 1.323.732 1.028.693 2.592-.18 4.398-.864 1.787-2.498 3.694-4.714 5.272-1.785 1.271-3.651 2.117-5.343 2.519-1.702.404-3.178.347-4.22-.12ZM807.471 889.101l-.008-.003-.008-.004c-1.057-.429-2.119-1.456-3.004-2.965-.88-1.5-1.559-3.434-1.875-5.601-.392-2.692-.144-5.192.55-7.052.701-1.879 1.804-2.989 3.053-3.171 1.091-.159 2.275.39 3.37 1.609 1.089 1.212 2.029 3.026 2.602 5.204l.163.621.563-.311c1.969-1.092 3.929-1.668 5.558-1.719 1.637-.051 2.852.424 3.492 1.323.732 1.028.693 2.592-.18 4.398-.863 1.787-2.498 3.695-4.714 5.273-1.784 1.27-3.651 2.117-5.343 2.518-1.702.404-3.178.347-4.219-.12Zm112.661 86.25-.008-.003-.008-.004c-1.057-.429-2.119-1.456-3.004-2.965-.88-1.5-1.559-3.434-1.875-5.601-.392-2.692-.144-5.192.55-7.052.701-1.879 1.804-2.989 3.053-3.171 1.092-.159 2.275.39 3.37 1.609 1.09 1.212 2.029 3.026 2.602 5.204l.163.621.563-.311c1.969-1.092 3.929-1.668 5.558-1.719 1.638-.051 2.852.424 3.492 1.323.732 1.028.693 2.592-.18 4.398-.863 1.787-2.498 3.695-4.714 5.273-1.784 1.27-3.651 2.117-5.343 2.518-1.702.404-3.178.347-4.219-.12Zm40.379-132.3-.007.005-.007.006c-.872.735-2.276 1.196-4.023 1.276-1.737.08-3.765-.22-5.83-.951-2.564-.907-4.661-2.291-5.983-3.772-1.336-1.496-1.804-2.988-1.383-4.178.368-1.04 1.405-1.832 2.994-2.233 1.579-.399 3.622-.385 5.816.123l.626.144-.013-.642c-.049-2.251.355-4.254 1.068-5.719.718-1.473 1.705-2.326 2.798-2.474 1.251-.169 2.617.595 3.808 2.208 1.179 1.597 2.105 3.932 2.469 6.628.293 2.171.172 4.217-.261 5.901-.436 1.695-1.174 2.974-2.072 3.678Z" fill="#F6DDFA" stroke="#000"/><path d="m899.935 905.946-.008.002-.009.003c-1.073.39-2.549.338-4.216-.189-1.659-.524-3.458-1.505-5.145-2.903-2.094-1.736-3.585-3.758-4.315-5.604-.738-1.865-.663-3.427.142-4.399.704-.849 1.951-1.235 3.581-1.064 1.62.171 3.533.889 5.417 2.121l.538.352.208-.608c.731-2.129 1.801-3.87 2.976-4.999 1.181-1.135 2.402-1.596 3.479-1.357 1.233.273 2.251 1.46 2.813 3.385.555 1.906.62 4.417.032 7.073-.474 2.139-1.293 4.018-2.28 5.449-.993 1.44-2.127 2.387-3.213 2.738Z" fill="#D9D9D9" stroke="#000"/><path d="m735.788 989.611-.009-.002-.009-.001c-1.126-.186-2.388-.952-3.585-2.228-1.19-1.268-2.28-3.004-3.067-5.048-.978-2.539-1.289-5.031-1.024-6.998.269-1.988 1.099-3.314 2.276-3.768 1.03-.396 2.306-.123 3.643.823 1.331.941 2.648 2.503 3.688 4.5l.297.57.48-.428c1.679-1.5 3.463-2.496 5.04-2.906 1.586-.412 2.876-.217 3.699.518.941.841 1.249 2.375.797 4.329-.447 1.934-1.619 4.156-3.431 6.185-1.46 1.633-3.093 2.872-4.654 3.637-1.571.771-3.023 1.042-4.141.817Z" fill="#F6DDFA" stroke="#000"/></svg>