<svg width="1280" height="1034" viewBox="0 0 1280 1034" fill="none" xmlns="http://www.w3.org/2000/svg">
<mask id="mask0_449_843" style="mask-type:alpha" maskUnits="userSpaceOnUse" x="-652" y="0" width="2737" height="1034">
<path d="M-652 0.197266H2085V1033.2H-652V0.197266Z" fill="#C4C4C4"/>
</mask>
<g mask="url(#mask0_449_843)">
<path fill-rule="evenodd" clip-rule="evenodd" d="M645.5 975.414C820.418 975.414 962.217 833.615 962.217 658.697C962.217 483.779 820.418 341.98 645.5 341.98C470.582 341.98 328.783 483.779 328.783 658.697C328.783 833.615 470.582 975.414 645.5 975.414ZM645.5 1023.2C846.808 1023.2 1010 860.005 1010 658.697C1010 457.389 846.808 294.197 645.5 294.197C444.192 294.197 281 457.389 281 658.697C281 860.005 444.192 1023.2 645.5 1023.2Z" fill="#D88532" fill-opacity="0.1"/>
<path fill-rule="evenodd" clip-rule="evenodd" d="M645.5 855.4C754.136 855.4 842.203 767.333 842.203 658.697C842.203 550.061 754.136 461.994 645.5 461.994C536.864 461.994 448.797 550.061 448.797 658.697C448.797 767.333 536.864 855.4 645.5 855.4ZM645.5 903.197C780.534 903.197 890 793.731 890 658.697C890 523.664 780.534 414.197 645.5 414.197C510.466 414.197 401 523.664 401 658.697C401 793.731 510.466 903.197 645.5 903.197Z" fill="#D88532" fill-opacity="0.1"/>
<path fill-rule="evenodd" clip-rule="evenodd" d="M645.5 1094.45C881.742 1094.45 1074.29 900.156 1074.29 659.197C1074.29 418.239 881.742 223.946 645.5 223.946C409.258 223.946 216.711 418.239 216.711 659.197C216.711 900.156 409.258 1094.45 645.5 1094.45ZM645.5 1142.2C908.664 1142.2 1122 925.951 1122 659.197C1122 392.444 908.664 176.197 645.5 176.197C382.336 176.197 169 392.444 169 659.197C169 925.951 382.336 1142.2 645.5 1142.2Z" fill="#D88532" fill-opacity="0.1"/>
<path fill-rule="evenodd" clip-rule="evenodd" d="M645.5 1213.43C951.34 1213.43 1199.27 965.291 1199.27 659.197C1199.27 353.103 951.34 104.965 645.5 104.965C339.66 104.965 91.7284 353.103 91.7284 659.197C91.7284 965.291 339.66 1213.43 645.5 1213.43ZM645.5 1261.2C977.699 1261.2 1247 991.673 1247 659.197C1247 326.722 977.699 57.1973 645.5 57.1973C313.301 57.1973 44 326.722 44 659.197C44 991.673 313.301 1261.2 645.5 1261.2Z" fill="#D88532" fill-opacity="0.1"/>
</g>
<path d="M93.3577 605.612C202.426 544.328 274.787 530.06 288.417 552.166C286.494 548.015 348.71 551.823 391.001 505.484C425.18 468.034 454.433 490.469 470.709 488.612C506.108 498.643 563.146 482.301 582.677 523.317C616.042 505.484 684.725 469.149 692.537 466.474C702.302 463.13 780.425 477.62 815.824 505.484C844.144 527.775 917.14 526.661 950.098 523.317C982.649 521.088 1056.3 522.425 1090.47 545.609C1124.65 568.792 1163.31 612.483 1178.36 631.431L1219.86 760.721L1052.63 826.481C958.236 830.568 766.753 838.518 756.011 837.627C745.27 836.735 349.53 855.831 153.003 865.491C153.003 865.491 53.9334 899.934 72.4382 855.46C90.9429 810.985 89.002 779.679 82.2591 727.22C75.2131 672.402 67.1244 620.353 93.3577 605.612Z" fill="#C0CF63"/>
<path d="M128.925 684.929C203.426 643.068 252.854 633.322 262.164 648.422C260.851 645.586 303.348 648.187 332.236 616.535C355.582 590.954 375.564 606.279 386.682 605.01C410.862 611.862 449.823 600.699 463.164 628.716C485.954 616.535 532.869 591.715 538.205 589.888C544.876 587.604 598.239 597.501 622.419 616.535C641.763 631.761 691.625 631 714.137 628.716C736.372 627.193 786.677 628.107 810.024 643.943C833.37 659.778 859.774 689.622 870.057 702.565L898.406 790.879L784.176 835.797C719.696 838.589 588.9 844.02 581.563 843.411C574.226 842.802 303.908 855.846 169.667 862.444C169.667 862.444 101.996 885.971 114.636 855.592C127.276 825.213 125.95 803.828 121.344 767.995C116.531 730.551 111.006 694.998 128.925 684.929Z" fill="#A4B635"/>
<path d="M933.153 622.347C858.652 580.486 809.224 570.74 799.914 585.84C801.227 583.004 758.73 585.605 729.842 553.953C706.496 528.372 686.514 543.697 675.396 542.428C651.216 549.28 612.255 538.117 598.914 566.134C576.124 553.953 529.209 529.133 523.873 527.306C517.202 525.022 463.839 534.919 439.659 553.953C420.315 569.179 370.454 568.418 347.941 566.134C325.706 564.611 275.401 565.525 252.054 581.361C228.708 597.196 202.304 627.04 192.021 639.983L163.672 728.297L277.902 773.215C342.382 776.007 473.178 781.438 480.515 780.829C487.853 780.22 758.17 793.264 892.411 799.862C892.411 799.862 960.082 823.389 947.442 793.01C934.802 762.631 936.128 741.246 940.734 705.413C945.547 667.969 951.072 632.416 933.153 622.347Z" fill="#A4B635"/>
<path d="M419.515 653.177C494.016 611.316 543.444 601.57 552.754 616.67C551.441 613.834 593.938 616.435 622.826 584.783C646.172 559.202 666.154 574.527 677.272 573.258C701.452 580.11 740.413 568.947 753.753 596.964C776.544 584.783 823.459 559.963 828.795 558.136C835.466 555.852 888.829 565.75 913.009 584.783C932.353 600.009 1015.16 575.542 1037.67 573.258C1059.91 571.735 1063.3 616.826 1086.65 632.662C1109.99 648.497 1150.36 657.87 1160.65 670.813L1189 759.127L1074.77 804.046C1010.29 806.837 879.49 812.268 872.153 811.659C864.815 811.05 594.498 824.094 460.257 830.692C460.257 830.692 392.586 854.219 405.226 823.84C417.866 793.461 416.54 772.077 411.934 736.243C407.121 698.799 401.596 663.246 419.515 653.177Z" fill="#A4B635"/>
<path d="M40.3438 1033.04H1225.05H1235.09V926.365L471.146 874.695L40.3438 958.034V1033.04Z" fill="#808080"/>
<path d="M78.6779 784.689L40.3438 844.693L52.2734 882.792L40.3438 947.665V974.702H90.5432C104.234 968.035 133.258 954.7 139.83 954.7C148.044 954.7 190.942 949.7 207.371 944.7C223.8 939.699 287.69 945.533 308.682 944.7C325.476 944.033 368.617 939.422 388.089 937.199H460.193C488.487 941.366 545.988 949.7 549.639 949.7C554.203 949.7 591.624 937.199 598.926 937.199H635.435L666.467 962.201C676.507 968.035 697.864 979.702 702.976 979.702H751.35C756.461 979.702 769.3 968.035 775.08 962.201H817.065L869.09 979.702L909.249 983.869L955.798 970.535H990.481C996.323 970.535 1015.43 979.424 1024.25 983.869H1057.11L1098.18 954.7L1124.65 962.201L1150.21 949.7L1183.98 974.702L1235 974.589L1236 927.669L1230.44 889.469L1217.98 851.269L1224.21 801.691L1236 744.687L1213.18 692.183L1124.65 669.682L1076.28 709.684L976.79 718.852L882.781 763.855L800.636 718.852L723.968 704.684L661.903 660.514L598.926 639.68L486.662 633.013L412.732 639.68L374.398 669.682L344.278 704.684L287.69 718.852L258.483 749.687H159.91L78.6779 784.689Z" fill="#9F9F9F"/>
<path d="M461.556 663.053C451.788 652.257 448.348 640.683 447.92 636.38L483.098 633.218C490.026 639.053 502.559 651.798 503.847 660.271C505.458 670.863 500.786 666.744 498.047 671.304C495.309 675.865 504.975 682.926 503.847 689.546C502.72 696.165 513.997 706.316 523.019 701.608C532.042 696.901 530.316 679.689 533.492 670.569C536.668 661.448 547.666 654.24 557.014 648.65C564.491 644.178 565.593 639.767 565.162 637.63C570.64 638.002 581.746 638.789 582.883 638.789C584.369 638.789 574.656 651.318 563.732 655.426C552.807 659.533 545.738 663.053 547.666 680.656C549.594 698.259 518.106 695.326 530.316 725.837C542.525 756.349 552.165 746.961 558.591 776.299C565.017 805.637 545.096 796.836 558.591 844.95C572.086 893.065 590.721 873.115 595.22 894.825C599.718 916.535 630.564 914.188 644.701 937.072C658.839 959.956 624.78 969.931 619.639 969.931C614.498 969.931 609.357 984.013 611.928 992.228C614.498 1000.44 658.839 998.095 665.265 998.095H744.949C755.231 998.095 791.86 1009.24 801.499 1011.59C809.211 1013.47 830.417 1026.85 840.056 1033.3H277.768L294.476 1024.5L317.61 1015.7V998.095L289.335 992.228H230.214C227.13 992.228 169.808 1000.05 141.533 1003.96L40 992.228V969.931H90.7666L153.743 948.22L192.3 940.592H237.283C241.781 940.592 295.118 943.526 300.902 943.526C306.685 943.526 316.967 941.179 328.535 914.188C340.102 887.197 367.092 892.478 352.954 851.404C338.816 810.331 324.679 803.877 340.744 792.141C356.81 780.406 367.092 793.315 367.092 767.497C367.092 741.68 399.223 738.159 435.209 734.639C471.196 731.118 448.062 721.73 461.556 713.515C475.051 705.3 471.838 701.78 475.051 690.631C478.264 679.483 473.766 676.549 461.556 663.053Z" fill="#AEDAE3"/>
<path d="M426.52 818.778C407.016 817.909 377.998 822.687 375.62 823.99L368.96 831.374H395.124L432.704 827.9C440.315 829.058 456.775 831.374 461.722 831.374C467.906 831.374 485.032 827.9 488.837 827.9C491.882 827.9 513.257 830.216 523.563 831.374L548.3 827.9C547.983 824.859 545.065 817.909 535.932 814.434C526.798 810.96 494.387 812.986 479.323 814.434C468.223 816.172 442.123 819.473 426.52 818.778Z" fill="#81BFCC"/>
<path d="M488.837 858.305C508.658 860.476 550.013 864.907 556.863 865.254C563.205 869.598 575.32 878.372 573.037 878.719C570.753 879.067 555.594 880.602 548.3 881.326C538.469 877.706 517.474 870.467 512.147 870.467H484.556C480.275 870.467 466.955 871.77 454.111 865.254C443.836 860.042 436.827 858.449 434.607 858.305C426.996 860.621 411.012 865.254 407.968 865.254H355.64L353.262 852.658L385.61 847.446C394.648 848.314 413.2 849.531 415.103 847.446C417.482 844.839 445.548 850.052 448.402 850.052C450.686 850.052 476.31 855.554 488.837 858.305Z" fill="#81BFCC"/>
<path d="M484.556 731.038C495.656 730.314 520.043 729.3 528.796 731.038C531.175 732.63 535.932 736.163 535.932 737.553C535.932 738.943 522.612 736.974 515.952 735.816H484.556L472.663 740.594H448.402H432.704L417.957 747.543L390.367 753.19L407.968 743.634L442.218 735.816H457.916C460.961 735.816 476.945 732.63 484.556 731.038Z" fill="#81BFCC"/>
<path d="M498.351 671.965C493.753 671.82 483.509 671.618 479.323 671.965H471.544L479.323 669.29L488.837 668.088L498.351 671.965Z" fill="#81BFCC"/>
<path d="M518.412 710.643C507.127 709.521 483.509 707.277 479.323 707.277L465.751 720.26H475.23C477.797 720.26 482.603 720.74 486.552 720.26C489.712 719.875 495.735 715.291 498.351 713.047C501.879 713.528 509.302 714.489 510.776 714.489C512.251 714.489 519.915 715.291 523.563 715.692L526.048 708.96L518.412 710.643Z" fill="#81BFCC"/>
<path d="M549.482 655.827C552.817 655.747 560.014 655.635 562.121 655.827L554.222 658.471H546.322L549.482 655.827Z" fill="#81BFCC"/>
<path d="M544.743 678.907C541.806 678.987 535.932 679.1 535.932 678.907L532.326 680.154L533.558 676.217H539.718L544.743 675.06V678.907Z" fill="#81BFCC"/>
<path d="M775.088 651.9C778.658 638.914 785.878 612.379 786.2 610.13L833.812 598.319L846.178 592.379C856.34 603.203 876.907 625.127 877.876 626.234C878.845 627.342 877.934 628.657 877.357 629.176L846.178 651.231L775.088 651.9Z" fill="black" stroke="black"/>
<path d="M918.51 723.692L1235.09 1033.01H269.877L629.987 672.904L793.475 664.923L918.51 723.692Z" fill="#FEBE9A" stroke="black" stroke-linecap="round" stroke-linejoin="bevel"/>
<path d="M939.022 895.013L931.145 877.693L934.27 874.887L952.033 870.476L973.987 863.398C954.442 873.349 941.559 887.681 939.022 895.013Z" fill="black" stroke="black" stroke-linecap="round" stroke-linejoin="bevel"/>
<path d="M577.297 902.131L593.95 883.51L591.132 878.771L570.6 866.288L545.859 848.823C566.456 868.945 576.988 891.949 577.297 902.131Z" fill="black" stroke="black" stroke-linecap="round" stroke-linejoin="bevel"/>
<path d="M667.572 1032.39L792.123 672.759C795.832 667.357 803.732 656.748 805.667 657.522C808.085 658.49 814.373 659.457 815.099 659.457C815.679 659.457 825.66 662.359 830.577 663.81L850.65 650.509L898.778 692.59C943.197 740.798 1034.48 836.243 1037.19 839.339C1039.9 842.435 1038.32 843.531 1037.19 843.692C1004.54 853.608 936.748 875.426 933.846 876.394C930.944 877.361 931.223 877.961 931.427 878.329L1001.56 1032.39H667.572Z" fill="#FE6F54" stroke="black"/>
<path d="M799.483 652.433C798.435 644.291 796.291 627.813 796.097 627.039L794.404 616.882C779.119 612.238 777.072 595.115 777.959 587.134C775.782 585.2 775.298 583.023 776.749 580.605C778.2 578.186 781.344 575.284 784.488 568.996C787.004 563.965 791.341 561.257 793.195 560.531C805.852 564.965 832.616 573.688 838.42 573.107C845.676 572.382 850.029 573.107 852.447 583.023C854.382 590.956 842.612 596.486 836.486 598.259L848.336 647.596C845.918 651.466 837.453 657.27 822.7 659.447C810.898 661.188 800.822 655.779 799.483 652.433Z" fill="#FEBE9A" stroke="black"/>
<path d="M706.027 587.146L697.479 610.841L738.192 629.953L744.964 606.494C763.344 604.559 768.423 588.113 768.665 580.132C775.243 575.682 771.406 570.862 768.665 569.007C767.504 555.271 756.895 546.032 751.736 543.13C739.643 549.337 713.572 561.51 706.027 560.543C696.594 559.334 692.241 560.785 689.581 571.91C687.453 580.81 699.658 585.776 706.027 587.146Z" fill="#FEBE9A" stroke="black"/>
<path d="M846.852 709.727C851.882 695.796 855.254 680.517 856.222 674.632L873.697 659.181C894.012 668.129 909.974 698.118 912.876 703.197C915.778 708.276 922.792 735.846 921.583 742.618C920.615 748.035 915.375 747.455 912.876 746.487C912.393 758.58 911.909 776.476 906.346 778.895C901.896 780.83 898.849 776.315 897.882 773.816C897.721 776.476 895.705 782.039 888.933 783.006C882.162 783.974 880.63 773.897 880.711 768.737C879.904 771.881 876.406 777.299 868.86 773.816C861.943 770.624 862.085 749.981 863.212 737.559C862.307 741.736 859.339 746.82 851.931 746.971C840.08 747.213 840.564 727.14 846.852 709.727Z" fill="#FEBE9A"/>
<path d="M863.212 737.559C862.307 741.736 859.339 746.82 851.931 746.971C840.08 747.213 840.564 727.14 846.852 709.727C851.882 695.796 855.254 680.517 856.222 674.632L873.697 659.181C894.012 668.129 909.974 698.118 912.876 703.197C915.778 708.276 922.792 735.846 921.583 742.618C920.615 748.035 915.375 747.455 912.876 746.487C912.393 758.58 911.909 776.476 906.346 778.895C901.896 780.83 898.849 776.315 897.882 773.816C897.721 776.476 895.705 782.039 888.933 783.006C882.162 783.974 880.63 773.897 880.711 768.737C879.904 771.881 876.406 777.299 868.86 773.816C861.943 770.624 862.085 749.981 863.212 737.559ZM863.212 737.559C863.465 736.391 863.557 735.294 863.54 734.395C863.425 735.369 863.315 736.43 863.212 737.559Z" stroke="black"/>
<path d="M667.09 1032.38H520.773L587.281 879.292C556.808 858.897 493.15 816.173 491.215 814.818C489.28 813.464 490.409 812.158 491.215 811.674C521.687 780.557 591.151 713.095 616.303 685.815C641.455 658.535 675.313 643.008 689.099 638.655L697.482 610.83L739.544 625.288C739.383 626.014 738.725 629.416 736.984 636.962C735.243 644.507 739.322 646.071 741.579 645.91L799.653 652.43L667.09 1032.38Z" fill="#517CDD" stroke="black"/>
<path d="M851.376 660.666L847.99 647.364C857.084 648.719 869.031 655.829 873.868 659.215L856.213 674.693C856.793 670.049 853.23 663.407 851.376 660.666Z" fill="#517CDD" stroke="black"/>
<path d="M742.138 616.21C739.584 612.11 733.873 603.641 733.203 602.61C737.969 606.668 744.972 606.452 744.972 606.452C744.972 606.452 743.577 612.797 742.138 616.21Z" fill="black"/>
<path d="M795.856 627.055L794.028 616.81C806.188 618.052 809.447 614.934 809.97 614.934C810.389 614.934 800.629 623.024 795.856 627.055Z" fill="black"/>
<path d="M742.138 616.21C739.584 612.11 733.873 603.641 733.203 602.61C737.969 606.668 744.972 606.452 744.972 606.452C744.972 606.452 743.577 612.797 742.138 616.21Z" stroke="black" stroke-linecap="round"/>
<path d="M795.856 627.055L794.028 616.81C806.188 618.052 809.447 614.934 809.97 614.934C810.389 614.934 800.629 623.024 795.856 627.055Z" stroke="black" stroke-linecap="round"/>
<path d="M794.281 558.66C799.848 552.792 807.37 553.093 808.498 553.018C806.016 543.765 814.592 537.07 823.093 542.11C829.893 546.142 826.979 553.519 824.672 556.704C831.066 559.788 838.815 569.191 838.363 572.2C837.912 575.209 823.619 578.745 815.043 577.842C806.467 576.94 788.714 564.527 794.281 558.66Z" fill="black" stroke="black"/>
<path fill-rule="evenodd" clip-rule="evenodd" d="M792.993 673.082L667.79 1032.38H666.881L792.079 672.764L792.993 673.082Z" fill="black" stroke="black"/>
<path d="M830.879 679.772C815.981 682.094 811.811 667.027 811.73 659.127C813.665 659.61 820.671 660.078 830.879 657.568C841.125 655.048 846.372 650.722 848.226 647.336C849.435 648.303 851.92 649.783 852.887 655.829C853.855 661.876 849.501 676.87 830.879 679.772Z" fill="#F6DDFA" stroke="black"/>
<path d="M787.347 663.244C790.636 654.731 796.037 652.39 799.504 652.39C800.858 655.679 807.838 657.337 811.75 659.126C810.702 660.819 809.69 665.657 804.66 670.3C798.372 676.105 783.236 673.885 787.347 663.244Z" fill="#F6DDFA" stroke="black"/>
<path fill-rule="evenodd" clip-rule="evenodd" d="M888.538 785.768L932.628 878.624L931.754 879.039L887.664 786.183L888.538 785.768Z" fill="black" stroke="black"/>
<path fill-rule="evenodd" clip-rule="evenodd" d="M660.294 726.916L586.859 880.187L585.986 879.769L659.421 726.498L660.294 726.916Z" fill="black" stroke="black"/>
<path fill-rule="evenodd" clip-rule="evenodd" d="M523.767 803.664L508.405 826.391L507.603 825.849L522.966 803.122L523.767 803.664Z" fill="black" stroke="black"/>
<path fill-rule="evenodd" clip-rule="evenodd" d="M544.021 817.296L528.188 839.698L527.398 839.14L543.231 816.738L544.021 817.296Z" fill="black" stroke="black"/>
<path fill-rule="evenodd" clip-rule="evenodd" d="M561.191 828.791L545.701 851.431L544.902 850.884L560.393 828.245L561.191 828.791Z" fill="black" stroke="black"/>
<path fill-rule="evenodd" clip-rule="evenodd" d="M578.918 840.896L563.427 863.536L562.629 862.99L578.12 840.35L578.918 840.896Z" fill="black" stroke="black"/>
<path d="M751.112 541.884C754.823 545.242 743.585 553.03 740.675 555.161C721.753 568.086 710.562 565.41 706.259 561.353C701.956 557.296 708.718 542.051 723.84 536.887C738.962 531.723 748.53 539.548 751.112 541.884Z" fill="#020403" stroke="black"/>
<path fill-rule="evenodd" clip-rule="evenodd" d="M696.316 569.879C696.25 569.878 696.161 569.876 696.079 569.859C695.817 569.807 695.648 569.552 695.7 569.29C695.752 569.03 696.003 568.861 696.263 568.91C696.263 568.91 696.263 568.91 696.263 568.91C696.263 568.909 696.28 568.911 696.324 568.912C696.376 568.912 696.445 568.91 696.535 568.907C696.573 568.906 696.615 568.905 696.66 568.903C696.817 568.897 697.009 568.891 697.224 568.888C697.779 568.881 698.507 568.901 699.306 569.043C700.908 569.326 702.815 570.101 704.197 572.118C704.349 572.338 704.292 572.639 704.072 572.79C703.852 572.942 703.551 572.885 703.4 572.665C702.205 570.924 700.568 570.249 699.137 569.995C698.419 569.868 697.758 569.849 697.236 569.855C697.034 569.858 696.857 569.864 696.701 569.87C696.654 569.871 696.609 569.873 696.566 569.874C696.476 569.877 696.39 569.879 696.316 569.879ZM756.415 576.096C756.682 576.096 756.899 576.312 756.899 576.58C756.899 577.2 757.385 578.756 759.627 579.22C759.889 579.274 760.057 579.53 760.003 579.792C759.949 580.053 759.693 580.221 759.431 580.167C756.691 579.6 755.931 577.606 755.931 576.58C755.931 576.312 756.148 576.096 756.415 576.096ZM840.276 583.187C841.733 582.897 843.154 583.003 844.033 583.194C844.294 583.251 844.46 583.508 844.403 583.769C844.347 584.03 844.089 584.196 843.828 584.139C843.061 583.973 841.776 583.875 840.465 584.136C839.159 584.396 837.874 585.003 837.023 586.202C836.869 586.419 836.567 586.471 836.349 586.316C836.131 586.162 836.08 585.86 836.234 585.642C837.273 584.178 838.816 583.478 840.276 583.187ZM790.579 584.042C790.846 584.052 791.055 584.275 791.046 584.542C791.025 585.153 790.79 586.041 790.154 586.786C789.503 587.549 788.462 588.123 786.911 588.123C786.644 588.123 786.428 587.907 786.428 587.64C786.428 587.373 786.644 587.156 786.911 587.156C788.196 587.156 788.962 586.693 789.419 586.158C789.891 585.605 790.064 584.937 790.079 584.509C790.088 584.242 790.312 584.033 790.579 584.042Z" fill="black" stroke="black" stroke-linecap="round"/>
<path d="M751.54 562.392C751.128 563.425 750.583 564.267 750.055 564.796C749.79 565.061 749.547 565.23 749.346 565.315C749.147 565.398 749.024 565.388 748.949 565.358C748.875 565.328 748.778 565.251 748.692 565.054C748.604 564.854 748.544 564.564 748.535 564.189C748.516 563.442 748.7 562.456 749.113 561.423C749.525 560.389 750.071 559.547 750.599 559.018C750.863 558.753 751.106 558.585 751.307 558.5C751.506 558.416 751.629 558.427 751.704 558.456C751.778 558.486 751.875 558.563 751.961 558.761C752.049 558.961 752.109 559.25 752.118 559.625C752.137 560.372 751.953 561.358 751.54 562.392Z" fill="black" stroke="black"/>
<path d="M791.566 571.503C790.89 570.827 790.431 570.097 790.22 569.481C789.999 568.832 790.099 568.474 790.242 568.331C790.386 568.187 790.743 568.087 791.393 568.309C792.008 568.519 792.738 568.979 793.415 569.655C794.091 570.331 794.551 571.062 794.761 571.677C794.982 572.327 794.882 572.684 794.739 572.827C794.596 572.971 794.238 573.071 793.588 572.849C792.973 572.639 792.243 572.18 791.566 571.503Z" fill="black" stroke="black"/>
<path d="M758.482 567.132C758.482 567.657 758.056 568.083 757.531 568.083C757.006 568.083 756.58 567.657 756.58 567.132C756.58 566.606 757.006 566.181 757.531 566.181C758.056 566.181 758.482 566.606 758.482 567.132Z" fill="black" stroke="black"/>
<path d="M789.948 575.909C789.948 576.434 789.522 576.86 788.997 576.86C788.472 576.86 788.046 576.434 788.046 575.909C788.046 575.384 788.472 574.958 788.997 574.958C789.522 574.958 789.948 575.384 789.948 575.909Z" fill="black" stroke="black"/>
<path d="M805.596 583.018C805.596 584.905 804.066 586.435 802.179 586.435C800.292 586.435 798.762 584.905 798.762 583.018C798.762 581.131 800.292 579.601 802.179 579.601C804.066 579.601 805.596 581.131 805.596 583.018Z" fill="#FD6E53" stroke="black"/>
<path fill-rule="evenodd" clip-rule="evenodd" d="M866.262 707.652C866.527 707.68 866.72 707.918 866.692 708.184L863.678 736.951C863.65 737.216 863.412 737.409 863.146 737.381C862.881 737.353 862.688 737.115 862.716 736.85L865.73 708.083C865.758 707.817 865.996 707.624 866.262 707.652ZM910.53 724.149C910.796 724.118 911.036 724.307 911.068 724.573L913.538 745.453C913.57 745.718 913.38 745.958 913.115 745.99C912.849 746.021 912.609 745.832 912.577 745.566L910.107 724.686C910.075 724.421 910.265 724.18 910.53 724.149ZM880.244 728.32C880.511 728.317 880.73 728.53 880.734 728.798L881.25 767.727C881.254 767.994 881.04 768.214 880.773 768.217C880.506 768.221 880.287 768.007 880.283 767.74L879.766 728.81C879.763 728.543 879.976 728.324 880.244 728.32ZM896.311 729.404C896.578 729.393 896.803 729.601 896.814 729.868L898.468 772.27C898.478 772.537 898.27 772.762 898.003 772.772C897.736 772.782 897.512 772.574 897.501 772.308L895.847 729.906C895.837 729.639 896.045 729.414 896.311 729.404Z" fill="black" stroke="black" stroke-linecap="round"/>
<path fill-rule="evenodd" clip-rule="evenodd" d="M848.046 735.264C847.067 737.35 846.566 739.889 846.343 741.644C846.31 741.909 846.068 742.096 845.803 742.062C845.538 742.029 845.35 741.787 845.384 741.522C845.612 739.726 846.129 737.072 847.17 734.853C848.201 732.655 849.834 730.713 852.355 730.713C854.065 730.713 855.322 731.236 856.216 732.138C857.098 733.026 857.578 734.232 857.844 735.513C858.111 736.797 858.172 738.201 858.179 739.528C858.182 740.066 858.177 740.584 858.171 741.079C858.163 741.827 858.155 742.522 858.179 743.148C858.189 743.415 857.981 743.64 857.714 743.65C857.447 743.66 857.222 743.452 857.212 743.185C857.187 742.541 857.196 741.799 857.204 741.026C857.209 740.535 857.215 740.032 857.212 739.533C857.205 738.222 857.144 736.896 856.897 735.71C856.65 734.522 856.226 733.521 855.53 732.819C854.846 732.13 853.852 731.68 852.355 731.68C850.423 731.68 849.035 733.155 848.046 735.264ZM915.509 743.431C915.563 743.951 915.612 744.416 915.612 744.714C915.612 744.981 915.395 745.197 915.128 745.197C914.861 745.197 914.644 744.981 914.644 744.714C914.644 744.47 914.605 744.087 914.553 743.594C914.533 743.396 914.511 743.181 914.488 742.95C914.413 742.173 914.344 741.262 914.381 740.419C914.418 739.595 914.557 738.742 914.971 738.146C915.187 737.834 915.484 737.586 915.875 737.462C916.261 737.34 916.693 737.353 917.162 737.481C918.666 737.892 919.552 739.109 920.051 740.356C920.551 741.606 920.702 742.97 920.689 743.854C920.685 744.121 920.465 744.334 920.198 744.33C919.931 744.326 919.717 744.106 919.721 743.839C919.733 743.052 919.595 741.821 919.153 740.716C918.71 739.608 917.998 738.712 916.907 738.414C916.565 738.321 916.329 738.333 916.167 738.385C916.01 738.434 915.88 738.533 915.765 738.698C915.517 739.055 915.383 739.669 915.348 740.461C915.314 741.233 915.377 742.087 915.451 742.857C915.47 743.052 915.49 743.245 915.509 743.431ZM868.491 763.716C867.678 765.665 867.4 768.123 867.4 769.796C867.4 770.063 867.183 770.28 866.916 770.28C866.649 770.28 866.432 770.063 866.432 769.796C866.432 768.051 866.718 765.453 867.598 763.344C868.039 762.288 868.643 761.319 869.469 760.65C870.309 759.969 871.357 759.617 872.621 759.777C875.15 760.098 876.582 762.112 877.352 764.306C878.126 766.51 878.291 769.037 878.21 770.694C878.197 770.961 877.97 771.167 877.703 771.153C877.436 771.14 877.23 770.913 877.244 770.647C877.321 769.071 877.16 766.678 876.44 764.626C875.716 762.565 874.485 760.989 872.499 760.737C871.505 760.611 870.719 760.881 870.078 761.401C869.422 761.933 868.897 762.743 868.491 763.716ZM906.137 766.893C905.662 766.368 905.08 766.069 904.339 766.081C903.605 766.093 903.02 766.422 902.537 766.994C902.044 767.579 901.666 768.412 901.392 769.382C900.845 771.322 900.749 773.664 900.833 775.23C900.847 775.497 900.643 775.725 900.376 775.739C900.109 775.754 899.881 775.549 899.867 775.282C899.779 773.654 899.875 771.196 900.461 769.119C900.754 768.082 901.18 767.103 901.797 766.37C902.425 765.626 903.259 765.131 904.323 765.114C905.382 765.097 906.219 765.542 906.855 766.245C907.477 766.934 907.906 767.867 908.2 768.857C908.788 770.838 908.884 773.199 908.796 774.767C908.781 775.034 908.553 775.238 908.286 775.223C908.019 775.208 907.815 774.98 907.83 774.713C907.914 773.209 907.818 770.969 907.272 769.132C906.999 768.213 906.625 767.433 906.137 766.893ZM884.748 772.023C884.128 774.234 884.085 777.089 884.242 779.052C884.264 779.318 884.065 779.551 883.799 779.573C883.532 779.594 883.299 779.395 883.278 779.129C883.116 777.112 883.153 774.129 883.816 771.762C884.146 770.582 884.648 769.497 885.411 768.775C886.202 768.026 887.24 767.701 888.516 768.002C890.965 768.58 892.483 770.48 893.386 772.517C894.289 774.554 894.615 776.808 894.64 778.271C894.645 778.538 894.432 778.758 894.165 778.763C893.898 778.768 893.677 778.555 893.673 778.288C893.649 776.923 893.341 774.803 892.501 772.909C891.661 771.013 890.329 769.424 888.294 768.944C887.329 768.716 886.626 768.956 886.076 769.477C885.498 770.024 885.058 770.914 884.748 772.023Z" fill="black" stroke="black" stroke-linecap="round"/>
<path d="M581.553 758.272C579.708 759.437 577.83 760.116 576.3 760.291C574.732 760.469 573.708 760.107 573.291 759.446C572.873 758.785 572.986 757.706 573.821 756.366C574.636 755.059 576.056 753.655 577.901 752.49C579.745 751.325 581.623 750.646 583.153 750.472C584.721 750.293 585.745 750.655 586.162 751.316C586.58 751.977 586.467 753.057 585.632 754.396C584.817 755.703 583.397 757.107 581.553 758.272Z" fill="#AEDAE3" stroke="black"/>
<path d="M728.323 789.676C726.479 790.841 724.601 791.521 723.071 791.695C721.502 791.873 720.479 791.511 720.061 790.85C719.644 790.189 719.757 789.11 720.592 787.77C721.406 786.463 722.827 785.06 724.671 783.895C726.516 782.729 728.393 782.05 729.923 781.876C731.492 781.697 732.515 782.059 732.933 782.72C733.35 783.381 733.238 784.461 732.402 785.801C731.588 787.107 730.168 788.511 728.323 789.676Z" fill="#AEDAE3" stroke="black"/>
<path d="M610.976 721.118C610.981 718.937 611.414 716.987 612.087 715.602C612.777 714.183 613.631 713.513 614.413 713.514C615.195 713.516 616.046 714.19 616.729 715.613C617.396 717.002 617.819 718.953 617.814 721.135C617.809 723.316 617.376 725.266 616.703 726.651C616.013 728.071 615.159 728.741 614.377 728.739C613.595 728.737 612.744 728.063 612.061 726.64C611.394 725.252 610.971 723.3 610.976 721.118Z" fill="#AEDAE3" stroke="black"/>
<path d="M758.013 688.124C758.018 685.943 758.451 683.993 759.124 682.608C759.814 681.188 760.669 680.518 761.45 680.52C762.232 680.522 763.083 681.196 763.766 682.619C764.433 684.007 764.857 685.959 764.851 688.141C764.846 690.322 764.413 692.272 763.74 693.657C763.05 695.076 762.196 695.746 761.414 695.745C760.632 695.743 759.781 695.069 759.098 693.646C758.431 692.257 758.008 690.306 758.013 688.124Z" fill="#AEDAE3" stroke="black"/>
<path d="M539.648 796.236C539.653 794.054 540.086 792.104 540.759 790.72C541.449 789.3 542.303 788.63 543.085 788.632C543.867 788.633 544.718 789.308 545.401 790.731C546.068 792.119 546.491 794.07 546.486 796.252C546.481 798.434 546.048 800.383 545.375 801.768C544.685 803.188 543.831 803.858 543.049 803.856C542.267 803.854 541.416 803.18 540.733 801.757C540.066 800.369 539.643 798.417 539.648 796.236Z" fill="#AEDAE3" stroke="black"/>
<path d="M705.244 627.629C705.25 625.447 705.683 623.498 706.356 622.113C707.046 620.693 707.9 620.023 708.682 620.025C709.464 620.027 710.315 620.701 710.998 622.124C711.664 623.512 712.088 625.464 712.083 627.645C712.078 629.827 711.645 631.777 710.972 633.161C710.281 634.581 709.427 635.251 708.645 635.249C707.864 635.248 707.013 634.574 706.329 633.15C705.663 631.762 705.239 629.811 705.244 627.629Z" fill="#AEDAE3" stroke="black"/>
<path d="M710.885 672.007C712.68 670.766 714.528 670.01 716.049 669.772C717.609 669.529 718.647 669.848 719.091 670.491C719.536 671.134 719.468 672.218 718.689 673.591C717.929 674.93 716.568 676.392 714.774 677.632C712.979 678.873 711.131 679.63 709.609 679.867C708.05 680.11 707.012 679.791 706.568 679.148C706.123 678.505 706.191 677.421 706.97 676.048C707.729 674.709 709.09 673.247 710.885 672.007Z" fill="#AEDAE3" stroke="black"/>
<path d="M721.61 705.32C723.404 704.08 725.252 703.323 726.774 703.086C728.334 702.842 729.371 703.162 729.816 703.805C730.26 704.448 730.192 705.531 729.413 706.904C728.654 708.244 727.293 709.705 725.498 710.946C723.704 712.186 721.855 712.943 720.334 713.18C718.774 713.424 717.737 713.105 717.292 712.461C716.848 711.818 716.916 710.735 717.694 709.362C718.454 708.022 719.815 706.561 721.61 705.32Z" fill="#AEDAE3" stroke="black"/>
<path d="M676.739 826.758C674.572 827.017 672.585 826.823 671.129 826.323C669.636 825.81 668.867 825.043 668.774 824.267C668.681 823.49 669.247 822.564 670.577 821.713C671.874 820.884 673.76 820.227 675.927 819.968C678.093 819.709 680.08 819.902 681.537 820.403C683.03 820.916 683.798 821.682 683.891 822.459C683.984 823.235 683.418 824.161 682.088 825.012C680.791 825.842 678.905 826.499 676.739 826.758Z" fill="#AEDAE3" stroke="black"/>
<path d="M675.809 929.856C673.643 930.115 671.655 929.922 670.199 929.421C668.706 928.908 667.937 928.142 667.845 927.365C667.752 926.589 668.318 925.663 669.648 924.812C670.945 923.982 672.831 923.325 674.997 923.066C677.163 922.807 679.151 923.001 680.607 923.501C682.1 924.014 682.868 924.781 682.961 925.557C683.054 926.334 682.488 927.26 681.158 928.111C679.861 928.94 677.975 929.597 675.809 929.856Z" fill="#AEDAE3" stroke="black"/>
<path d="M610.168 975.7C608.002 975.959 606.015 975.766 604.558 975.265C603.065 974.752 602.297 973.985 602.204 973.209C602.111 972.433 602.677 971.507 604.007 970.656C605.304 969.826 607.19 969.169 609.356 968.91C611.522 968.651 613.51 968.845 614.966 969.345C616.459 969.858 617.228 970.625 617.321 971.401C617.413 972.177 616.847 973.104 615.518 973.954C614.22 974.784 612.335 975.441 610.168 975.7Z" fill="#AEDAE3" stroke="black"/>
<path d="M653.905 770.865C655.699 769.625 657.547 768.868 659.069 768.631C660.629 768.387 661.666 768.706 662.111 769.35C662.555 769.993 662.487 771.076 661.708 772.449C660.949 773.789 659.588 775.25 657.793 776.491C655.998 777.731 654.15 778.488 652.629 778.725C651.069 778.969 650.032 778.649 649.587 778.006C649.143 777.363 649.211 776.28 649.989 774.907C650.749 773.567 652.11 772.106 653.905 770.865Z" fill="#AEDAE3" stroke="black"/>
<path d="M605.126 782.484C604.615 780.363 604.574 778.367 604.9 776.862C605.234 775.319 605.905 774.466 606.665 774.282C607.425 774.099 608.412 774.552 609.413 775.773C610.389 776.964 611.263 778.76 611.774 780.881C612.286 783.001 612.327 784.998 612 786.503C611.666 788.046 610.995 788.899 610.235 789.082C609.475 789.266 608.489 788.812 607.488 787.591C606.511 786.401 605.638 784.605 605.126 782.484Z" fill="#AEDAE3" stroke="black"/>
<path d="M678.491 655.582C680.285 654.342 682.133 653.585 683.655 653.347C685.214 653.104 686.252 653.423 686.697 654.066C687.141 654.709 687.073 655.793 686.294 657.166C685.535 658.506 684.174 659.967 682.379 661.207C680.584 662.448 678.736 663.205 677.215 663.442C675.655 663.685 674.618 663.366 674.173 662.723C673.728 662.08 673.797 660.997 674.575 659.623C675.335 658.284 676.696 656.823 678.491 655.582Z" fill="#AEDAE3" stroke="black"/>
<path d="M678.491 706.708C680.285 705.468 682.133 704.711 683.655 704.473C685.214 704.23 686.252 704.549 686.697 705.192C687.141 705.835 687.073 706.919 686.294 708.292C685.535 709.631 684.174 711.093 682.379 712.333C680.584 713.574 678.736 714.331 677.215 714.568C675.655 714.811 674.618 714.492 674.173 713.849C673.728 713.206 673.797 712.123 674.575 710.749C675.335 709.41 676.696 707.949 678.491 706.708Z" fill="#AEDAE3" stroke="black"/>
<path d="M701.985 859.062C703.779 857.821 705.627 857.064 707.149 856.827C708.709 856.584 709.746 856.903 710.191 857.546C710.635 858.189 710.567 859.272 709.788 860.646C709.029 861.985 707.668 863.446 705.873 864.687C704.079 865.927 702.23 866.684 700.709 866.922C699.149 867.165 698.112 866.846 697.667 866.203C697.223 865.56 697.291 864.476 698.069 863.103C698.829 861.764 700.19 860.302 701.985 859.062Z" fill="#AEDAE3" stroke="black"/>
<path d="M757.406 656.04C759.513 656.604 761.286 657.523 762.452 658.529C763.648 659.56 764.076 660.557 763.874 661.312C763.671 662.068 762.802 662.717 761.251 663.013C759.738 663.301 757.743 663.21 755.636 662.645C753.529 662.08 751.756 661.162 750.59 660.156C749.394 659.125 748.966 658.127 749.168 657.372C749.371 656.617 750.24 655.967 751.791 655.672C753.304 655.384 755.299 655.475 757.406 656.04Z" fill="#AEDAE3" stroke="black"/>
<path d="M669.466 883.489C671.573 884.053 673.346 884.972 674.512 885.978C675.707 887.009 676.136 888.006 675.933 888.762C675.731 889.517 674.861 890.166 673.31 890.462C671.798 890.75 669.803 890.659 667.696 890.094C665.588 889.53 663.815 888.611 662.649 887.605C661.454 886.574 661.025 885.576 661.228 884.821C661.43 884.066 662.3 883.417 663.851 883.121C665.363 882.833 667.358 882.924 669.466 883.489Z" fill="#AEDAE3" stroke="black"/>
<path d="M720.536 825.214C722.643 825.779 724.416 826.698 725.582 827.703C726.778 828.735 727.206 829.732 727.004 830.487C726.801 831.242 725.932 831.892 724.381 832.187C722.868 832.476 720.873 832.384 718.766 831.82C716.659 831.255 714.885 830.337 713.72 829.331C712.524 828.299 712.096 827.302 712.298 826.547C712.5 825.792 713.37 825.142 714.921 824.847C716.434 824.559 718.429 824.65 720.536 825.214Z" fill="#AEDAE3" stroke="black"/>
<path d="M735.062 744.782C734.491 742.676 734.393 740.682 734.677 739.168C734.967 737.616 735.614 736.745 736.369 736.54C737.123 736.335 738.122 736.761 739.157 737.953C740.167 739.115 741.091 740.886 741.662 742.991C742.233 745.097 742.331 747.091 742.047 748.605C741.757 750.157 741.11 751.028 740.355 751.233C739.601 751.438 738.602 751.013 737.567 749.82C736.557 748.658 735.633 746.887 735.062 744.782Z" fill="#AEDAE3" stroke="black"/>
<path d="M574.754 1002.27C576.349 1003.76 577.482 1005.4 578.038 1006.84C578.608 1008.31 578.518 1009.39 577.984 1009.96C577.451 1010.53 576.378 1010.7 574.87 1010.23C573.399 1009.77 571.681 1008.75 570.087 1007.27C568.492 1005.78 567.359 1004.13 566.803 1002.7C566.232 1001.22 566.323 1000.14 566.857 999.571C567.39 999 568.463 998.836 569.971 999.304C571.441 999.76 573.159 1000.78 574.754 1002.27Z" fill="#AEDAE3" stroke="black"/>
<path d="M633.329 933.35C634.914 931.851 636.626 930.823 638.094 930.357C639.599 929.88 640.673 930.038 641.21 930.607C641.747 931.175 641.844 932.256 641.282 933.731C640.735 935.171 639.611 936.822 638.025 938.32C636.44 939.818 634.728 940.847 633.26 941.312C631.755 941.789 630.681 941.631 630.144 941.063C629.607 940.495 629.51 939.413 630.072 937.938C630.619 936.499 631.743 934.848 633.329 933.35Z" fill="#AEDAE3" stroke="black"/>
<path d="M656.43 982.057C655.859 979.952 655.762 977.957 656.045 976.444C656.336 974.892 656.982 974.02 657.737 973.815C658.491 973.611 659.49 974.036 660.525 975.228C661.535 976.391 662.459 978.161 663.03 980.267C663.601 982.372 663.699 984.367 663.415 985.88C663.125 987.432 662.478 988.304 661.723 988.509C660.969 988.713 659.97 988.288 658.935 987.096C657.926 985.933 657.001 984.163 656.43 982.057Z" fill="#AEDAE3" stroke="black"/>
<path d="M617.002 884.716C616.431 882.611 616.334 880.616 616.617 879.103C616.908 877.551 617.555 876.679 618.309 876.475C619.064 876.27 620.062 876.695 621.097 877.887C622.107 879.05 623.031 880.82 623.602 882.926C624.174 885.031 624.271 887.026 623.988 888.539C623.697 890.091 623.05 890.963 622.296 891.168C621.541 891.372 620.542 890.947 619.507 889.755C618.498 888.592 617.574 886.822 617.002 884.716Z" fill="#AEDAE3" stroke="black"/>
<path d="M586.098 929.926C585.527 927.821 585.43 925.826 585.713 924.313C586.004 922.761 586.65 921.889 587.405 921.685C588.159 921.48 589.158 921.905 590.193 923.097C591.203 924.26 592.127 926.03 592.698 928.136C593.269 930.241 593.367 932.236 593.083 933.749C592.793 935.301 592.146 936.173 591.391 936.378C590.637 936.582 589.638 936.157 588.603 934.965C587.594 933.802 586.669 932.032 586.098 929.926Z" fill="#AEDAE3" stroke="black"/>
<path d="M628.127 835.298C627.556 833.193 627.459 831.198 627.742 829.685C628.033 828.133 628.68 827.261 629.434 827.057C630.189 826.852 631.187 827.277 632.222 828.469C633.232 829.632 634.156 831.402 634.727 833.508C635.299 835.613 635.396 837.608 635.113 839.121C634.822 840.673 634.175 841.545 633.421 841.75C632.666 841.954 631.667 841.529 630.632 840.337C629.623 839.174 628.699 837.404 628.127 835.298Z" fill="#AEDAE3" stroke="black"/>
<path d="M693.385 762.301C692.814 760.196 692.717 758.201 693 756.688C693.291 755.136 693.937 754.264 694.692 754.06C695.446 753.855 696.445 754.28 697.48 755.472C698.49 756.635 699.414 758.405 699.985 760.511C700.556 762.616 700.654 764.611 700.37 766.124C700.08 767.676 699.433 768.548 698.678 768.753C697.924 768.957 696.925 768.532 695.89 767.34C694.881 766.177 693.957 764.407 693.385 762.301Z" fill="#AEDAE3" stroke="black"/>
<path d="M639.942 690.346C639.371 688.241 639.273 686.246 639.557 684.733C639.847 683.181 640.494 682.309 641.249 682.104C642.003 681.9 643.002 682.325 644.037 683.517C645.046 684.68 645.97 686.45 646.542 688.556C647.113 690.661 647.21 692.656 646.927 694.169C646.636 695.721 645.99 696.593 645.235 696.798C644.481 697.002 643.482 696.577 642.447 695.385C641.437 694.222 640.513 692.452 639.942 690.346Z" fill="#AEDAE3" stroke="black"/>
<path d="M582.079 817.768C582.582 815.645 583.447 813.845 584.418 812.65C585.414 811.425 586.398 810.967 587.159 811.147C587.92 811.327 588.595 812.177 588.936 813.719C589.268 815.222 589.236 817.219 588.734 819.342C588.232 821.465 587.366 823.265 586.395 824.46C585.4 825.685 584.415 826.143 583.655 825.963C582.894 825.783 582.219 824.933 581.878 823.391C581.545 821.888 581.577 819.891 582.079 817.768Z" fill="#AEDAE3" stroke="black"/>
<path d="M635.694 1014.52C635.123 1012.41 635.025 1010.42 635.309 1008.9C635.599 1007.35 636.246 1006.48 637.001 1006.28C637.755 1006.07 638.754 1006.5 639.789 1007.69C640.798 1008.85 641.722 1010.62 642.294 1012.73C642.865 1014.83 642.962 1016.83 642.679 1018.34C642.388 1019.89 641.742 1020.76 640.987 1020.97C640.233 1021.17 639.234 1020.75 638.199 1019.56C637.189 1018.39 636.265 1016.62 635.694 1014.52Z" fill="#AEDAE3" stroke="black"/>
<path fill-rule="evenodd" clip-rule="evenodd" d="M701.82 624.65L705.699 613.651L706.156 613.812L702.277 624.81L701.82 624.65Z" fill="black" stroke="black"/>
<path fill-rule="evenodd" clip-rule="evenodd" d="M714.49 629.049L718.369 618.051L718.826 618.212L714.946 629.21L714.49 629.049Z" fill="black" stroke="black"/>
<path fill-rule="evenodd" clip-rule="evenodd" d="M725.83 633.056L729.709 622.058L730.165 622.218L726.286 633.217L725.83 633.056Z" fill="black" stroke="black"/>
<path d="M773.485 830.489L773.476 830.488L773.467 830.488C772.326 830.48 770.96 829.918 769.58 828.843C768.208 827.774 766.863 826.228 765.768 824.331C764.409 821.974 763.716 819.559 763.673 817.575C763.63 815.57 764.245 814.131 765.338 813.501C766.294 812.949 767.597 813.022 769.065 813.75C770.525 814.474 772.068 815.813 773.405 817.624L773.787 818.141L774.194 817.644C775.621 815.902 777.229 814.643 778.724 813.993C780.227 813.34 781.531 813.333 782.458 813.932C783.518 814.617 784.06 816.085 783.916 818.085C783.774 820.065 782.96 822.441 781.484 824.726C780.295 826.567 778.873 828.043 777.449 829.041C776.017 830.045 774.625 830.538 773.485 830.489Z" fill="#F6DDFA" stroke="black"/>
<path d="M835.624 796.488L835.616 796.49L835.608 796.493C834.531 796.872 833.056 796.807 831.393 796.264C829.74 795.724 827.95 794.727 826.276 793.313C824.198 791.558 822.727 789.522 822.013 787.669C821.293 785.798 821.383 784.236 822.197 783.272C822.909 782.429 824.159 782.055 825.787 782.242C827.406 782.427 829.312 783.163 831.184 784.413L831.719 784.77L831.933 784.164C832.684 782.041 833.77 780.311 834.955 779.193C836.147 778.069 837.372 777.62 838.447 777.868C839.677 778.153 840.684 779.35 841.228 781.28C841.766 783.191 841.807 785.703 841.194 788.353C840.7 790.487 839.863 792.358 838.863 793.78C837.856 795.211 836.713 796.147 835.624 796.488Z" fill="#F6DDFA" stroke="black"/>
<path d="M872.254 851.497L872.245 851.496L872.237 851.496C871.096 851.451 869.749 850.846 868.404 849.728C867.066 848.617 865.77 847.029 864.736 845.097C863.453 842.699 862.836 840.264 862.857 838.279C862.877 836.274 863.537 834.855 864.65 834.259C865.623 833.739 866.922 833.852 868.367 834.626C869.803 835.396 871.303 836.783 872.582 838.636L872.947 839.165L873.37 838.681C874.851 836.985 876.499 835.777 878.013 835.175C879.536 834.57 880.84 834.605 881.747 835.233C882.785 835.951 883.28 837.435 883.073 839.43C882.868 841.404 881.979 843.754 880.432 845.991C879.185 847.792 877.718 849.223 876.263 850.175C874.799 851.134 873.392 851.582 872.254 851.497Z" fill="#D9D9D9" stroke="black"/>
<path d="M832.099 944.4L832.09 944.401L832.081 944.401C830.944 944.503 829.531 944.075 828.054 943.137C826.586 942.205 825.098 940.796 823.826 939.012C822.246 936.797 821.324 934.461 821.091 932.49C820.856 930.498 821.329 929.007 822.357 928.274C823.255 927.633 824.559 927.58 826.09 928.164C827.613 928.744 829.278 929.928 830.783 931.603L831.212 932.081L831.57 931.547C832.822 929.676 834.302 928.267 835.727 927.477C837.161 926.683 838.459 926.55 839.439 927.057C840.56 927.637 841.24 929.046 841.289 931.051C841.338 933.035 840.756 935.479 839.507 937.895C838.5 939.841 837.227 941.447 835.906 942.578C834.577 943.715 833.238 944.339 832.099 944.4Z" fill="#F6DDFA" stroke="black"/>
<path d="M849.946 1003.47L849.937 1003.47L849.928 1003.47C848.793 1003.35 847.487 1002.66 846.216 1001.46C844.952 1000.27 843.76 998.601 842.851 996.608C841.722 994.133 841.262 991.663 841.409 989.684C841.557 987.683 842.306 986.31 843.454 985.786C844.458 985.328 845.748 985.525 847.14 986.389C848.525 987.248 849.933 988.728 851.092 990.659L851.422 991.21L851.875 990.754C853.461 989.156 855.182 988.055 856.732 987.551C858.29 987.044 859.589 987.161 860.455 987.846C861.445 988.628 861.844 990.141 861.511 992.119C861.181 994.076 860.144 996.364 858.457 998.498C857.099 1000.22 855.543 1001.55 854.031 1002.41C852.509 1003.27 851.076 1003.63 849.946 1003.47Z" fill="#F6DDFA" stroke="black"/>
<path d="M746.083 926.014L746.074 926.015L746.065 926.018C744.962 926.309 743.497 926.125 741.883 925.449C740.279 924.778 738.575 923.639 737.021 922.094C735.092 920.177 733.789 918.029 733.228 916.125C732.661 914.201 732.877 912.652 733.766 911.756C734.544 910.974 735.82 910.702 737.428 911.019C739.026 911.335 740.867 912.222 742.632 913.62L743.136 914.019L743.399 913.432C744.318 911.377 745.54 909.74 746.812 908.721C748.091 907.697 749.348 907.348 750.4 907.683C751.603 908.066 752.51 909.34 752.896 911.308C753.278 913.256 753.116 915.763 752.29 918.355C751.626 920.442 750.641 922.24 749.529 923.577C748.41 924.921 747.196 925.762 746.083 926.014Z" fill="#F6DDFA" stroke="black"/>
<path d="M786.797 756.27L786.789 756.267L786.781 756.263C785.724 755.834 784.662 754.807 783.777 753.298C782.897 751.798 782.218 749.864 781.902 747.697C781.51 745.005 781.758 742.505 782.452 740.645C783.153 738.766 784.256 737.656 785.505 737.474C786.597 737.315 787.78 737.864 788.876 739.083C789.965 740.295 790.904 742.109 791.477 744.287L791.64 744.908L792.203 744.597C794.172 743.505 796.132 742.929 797.761 742.878C799.399 742.827 800.613 743.302 801.253 744.201C801.986 745.229 801.946 746.793 801.073 748.599C800.21 750.386 798.575 752.294 796.359 753.871C794.575 755.142 792.708 755.989 791.016 756.39C789.314 756.794 787.838 756.737 786.797 756.27Z" fill="#F6DDFA" stroke="black"/>
<path d="M828.59 713.05L828.581 713.05L828.572 713.049C827.433 712.996 826.09 712.382 824.752 711.254C823.423 710.132 822.139 708.535 821.119 706.597C819.852 704.189 819.253 701.749 819.288 699.765C819.323 697.76 819.993 696.346 821.11 695.758C822.087 695.245 823.386 695.368 824.824 696.152C826.255 696.932 827.745 698.33 829.011 700.192L829.372 700.724L829.798 700.243C831.292 698.557 832.948 697.361 834.466 696.771C835.994 696.177 837.297 696.22 838.2 696.855C839.233 697.58 839.717 699.068 839.496 701.061C839.276 703.034 838.371 705.377 836.807 707.603C835.548 709.396 834.07 710.815 832.608 711.758C831.138 712.705 829.727 713.143 828.59 713.05Z" fill="#F6DDFA" stroke="black"/>
<path d="M942.992 783.489L942.984 783.485L942.976 783.482C941.919 783.052 940.857 782.026 939.972 780.517C939.092 779.017 938.413 777.083 938.098 774.915C937.705 772.223 937.954 769.724 938.647 767.864C939.348 765.985 940.451 764.875 941.7 764.693C942.792 764.534 943.976 765.083 945.071 766.302C946.16 767.514 947.099 769.328 947.672 771.505L947.836 772.127L948.398 771.815C950.367 770.724 952.327 770.148 953.956 770.097C955.594 770.045 956.809 770.521 957.449 771.42C958.181 772.448 958.142 774.012 957.269 775.818C956.405 777.605 954.771 779.512 952.555 781.09C950.77 782.361 948.904 783.207 947.212 783.609C945.51 784.013 944.034 783.956 942.992 783.489Z" fill="#F6DDFA" stroke="black"/>
<path d="M807.471 889.101L807.463 889.098L807.455 889.094C806.398 888.665 805.336 887.638 804.451 886.129C803.571 884.629 802.892 882.695 802.576 880.528C802.184 877.836 802.432 875.336 803.126 873.476C803.827 871.597 804.93 870.487 806.179 870.305C807.27 870.146 808.454 870.695 809.549 871.914C810.638 873.126 811.578 874.94 812.151 877.118L812.314 877.739L812.877 877.428C814.846 876.336 816.806 875.76 818.435 875.709C820.072 875.658 821.287 876.133 821.927 877.032C822.659 878.06 822.62 879.624 821.747 881.43C820.884 883.217 819.249 885.125 817.033 886.703C815.249 887.973 813.382 888.82 811.69 889.221C809.988 889.625 808.512 889.568 807.471 889.101Z" fill="#F6DDFA" stroke="black"/>
<path d="M920.132 975.351L920.124 975.348L920.116 975.344C919.059 974.915 917.997 973.888 917.112 972.379C916.232 970.879 915.553 968.945 915.237 966.778C914.845 964.086 915.093 961.586 915.787 959.726C916.488 957.847 917.591 956.737 918.84 956.555C919.932 956.396 921.115 956.945 922.21 958.164C923.3 959.376 924.239 961.19 924.812 963.368L924.975 963.989L925.538 963.678C927.507 962.586 929.467 962.01 931.096 961.959C932.734 961.908 933.948 962.383 934.588 963.282C935.32 964.31 935.281 965.874 934.408 967.68C933.545 969.467 931.91 971.375 929.694 972.953C927.91 974.223 926.043 975.07 924.351 975.471C922.649 975.875 921.173 975.818 920.132 975.351Z" fill="#F6DDFA" stroke="black"/>
<path d="M960.511 843.051L960.504 843.056L960.497 843.062C959.625 843.797 958.221 844.258 956.474 844.338C954.737 844.418 952.709 844.118 950.644 843.387C948.08 842.48 945.983 841.096 944.661 839.615C943.325 838.119 942.857 836.627 943.278 835.437C943.646 834.397 944.683 833.605 946.272 833.204C947.851 832.805 949.894 832.819 952.088 833.327L952.714 833.471L952.701 832.829C952.652 830.578 953.056 828.575 953.769 827.11C954.487 825.637 955.474 824.784 956.567 824.636C957.818 824.467 959.184 825.231 960.375 826.844C961.554 828.441 962.48 830.776 962.844 833.472C963.137 835.643 963.016 837.689 962.583 839.373C962.147 841.068 961.409 842.347 960.511 843.051Z" fill="#F6DDFA" stroke="black"/>
<path d="M899.935 905.946L899.927 905.948L899.918 905.951C898.845 906.341 897.369 906.289 895.702 905.762C894.043 905.238 892.244 904.257 890.557 902.859C888.463 901.123 886.972 899.101 886.242 897.255C885.504 895.39 885.579 893.828 886.384 892.856C887.088 892.007 888.335 891.621 889.965 891.792C891.585 891.963 893.498 892.681 895.382 893.913L895.92 894.265L896.128 893.657C896.859 891.528 897.929 889.787 899.104 888.658C900.285 887.523 901.506 887.062 902.583 887.301C903.816 887.574 904.834 888.761 905.396 890.686C905.951 892.592 906.016 895.103 905.428 897.759C904.954 899.898 904.135 901.777 903.148 903.208C902.155 904.648 901.021 905.595 899.935 905.946Z" fill="#D9D9D9" stroke="black"/>
<path d="M735.788 989.611L735.779 989.609L735.77 989.608C734.644 989.422 733.382 988.656 732.185 987.38C730.995 986.112 729.905 984.376 729.118 982.332C728.14 979.793 727.829 977.301 728.094 975.334C728.363 973.346 729.193 972.02 730.37 971.566C731.4 971.17 732.676 971.443 734.013 972.389C735.344 973.33 736.661 974.892 737.701 976.889L737.998 977.459L738.478 977.031C740.157 975.531 741.941 974.535 743.518 974.125C745.104 973.713 746.394 973.908 747.217 974.643C748.158 975.484 748.466 977.018 748.014 978.972C747.567 980.906 746.395 983.128 744.583 985.157C743.123 986.79 741.49 988.029 739.929 988.794C738.358 989.565 736.906 989.836 735.788 989.611Z" fill="#F6DDFA" stroke="black"/>
</svg>
